<svg version="1.1" xmlns="http://www.w3.org/2000/svg" xmlns:xlink="http://www.w3.org/1999/xlink" width="8.75" height="5.725" viewBox="0,0,8.75,5.725"><g transform="translate(-235.625,-177.1375)"><g data-paper-data="{&quot;isPaintingLayer&quot;:true}" fill-rule="nonzero" stroke-linecap="butt" stroke-linejoin="miter" stroke-miterlimit="10" stroke-dasharray="" stroke-dashoffset="0" style="mix-blend-mode: normal"><path d="M235.625,180c0,-1.58092 1.95875,-2.8625 4.375,-2.8625c2.41625,0 4.375,1.28158 4.375,2.8625c0,1.58092 -1.95875,2.8625 -4.375,2.8625c-2.41625,0 -4.375,-1.28158 -4.375,-2.8625z" fill="#28123b" stroke="none" stroke-width="0"/><path d="M237.53333,180c0,-0.89133 1.10437,-1.6139 2.46667,-1.6139c1.3623,0 2.46667,0.72257 2.46667,1.6139c0,0.89133 -1.10436,1.6139 -2.46667,1.6139c-1.3623,0 -2.46667,-0.72256 -2.46667,-1.6139z" fill="none" stroke="#8b4fff" stroke-width="1.5"/><g stroke="none"><path d="M237.98288,180.31832c-0.35913,-0.17761 -0.36691,-0.46954 -0.01739,-0.65203c0.34953,-0.18249 0.92403,-0.18644 1.28315,-0.00883c0.35913,0.17761 0.36691,0.46954 0.01739,0.65203c-0.34953,0.18249 -0.92403,0.18644 -1.28315,0.00883z" fill="#8b4fff" stroke-width="NaN"/><path d="M240.75137,180.32793c-0.35913,-0.17761 -0.36691,-0.46954 -0.01739,-0.65203c0.34953,-0.18249 0.92403,-0.18644 1.28315,-0.00883c0.35913,0.17761 0.36691,0.46954 0.01739,0.65203c-0.34953,0.18249 -0.92403,0.18644 -1.28315,0.00884z" fill="#8b4fff" stroke-width="NaN"/><path d="M239.38638,180.98855c-0.35913,-0.17761 -0.36691,-0.46954 -0.01739,-0.65203c0.34953,-0.18249 0.92403,-0.18644 1.28315,-0.00883c0.35913,0.17761 0.36691,0.46954 0.01739,0.65203c-0.34953,0.18249 -0.92403,0.18644 -1.28315,0.00883z" fill="#8b4fff" stroke-width="NaN"/><path d="M239.3761,179.67231c-0.35913,-0.17761 -0.36691,-0.46954 -0.01739,-0.65203c0.34953,-0.18249 0.92403,-0.18644 1.28315,-0.00883c0.35913,0.17761 0.36691,0.46954 0.01739,0.65203c-0.34953,0.18249 -0.92403,0.18644 -1.28315,0.00883z" fill="#8b4fff" stroke-width="NaN"/><path d="M239.34818,180.34997c-0.38164,-0.18875 -0.38992,-0.49897 -0.01848,-0.6929c0.37144,-0.19393 0.98194,-0.19814 1.36359,-0.00939c0.38164,0.18875 0.38992,0.49897 0.01848,0.6929c-0.37144,0.19393 -0.98194,0.19814 -1.36359,0.00939z" fill="#28123b" stroke-width="0"/></g></g></g></svg>