<svg version="1.1" xmlns="http://www.w3.org/2000/svg" xmlns:xlink="http://www.w3.org/1999/xlink" width="97.93946" height="21.32194" viewBox="0,0,97.93946,21.32194"><defs><linearGradient x1="240" y1="173.73904" x2="240" y2="188.66097" gradientUnits="userSpaceOnUse" id="color-1"><stop offset="0" stop-color="#000000"/><stop offset="1" stop-color="#000000" stop-opacity="0"/></linearGradient><linearGradient x1="240" y1="173.73904" x2="240" y2="188.66097" gradientUnits="userSpaceOnUse" id="color-2"><stop offset="0" stop-color="#000000"/><stop offset="1" stop-color="#000000" stop-opacity="0"/></linearGradient></defs><g transform="translate(-191.03027,-169.33903)"><g data-paper-data="{&quot;isPaintingLayer&quot;:true}" fill-rule="nonzero" stroke-linecap="square" stroke-linejoin="miter" stroke-miterlimit="10" stroke-dasharray="" stroke-dashoffset="0" style="mix-blend-mode: normal"><path d="M193.99902,188.47337c-0.27083,0 -0.5,-0.09375 -0.6875,-0.28125c-0.1875,-0.1875 -0.28125,-0.41667 -0.28125,-0.6875v-12.625c0,-0.29167 0.09375,-0.52604 0.28125,-0.70312c0.1875,-0.1875 0.41667,-0.28125 0.6875,-0.28125h3.35938c0.9375,0 1.76563,0.19792 2.48438,0.59375c0.71875,0.39583 1.28125,0.9375 1.6875,1.625c0.40625,0.67708 0.60938,1.46875 0.60938,2.375c0,0.84375 -0.20312,1.59896 -0.60937,2.26563c-0.40625,0.65625 -0.96875,1.17188 -1.6875,1.54688c-0.71875,0.375 -1.54687,0.5625 -2.48437,0.5625h-2.375v4.64063c0,0.27083 -0.09375,0.5 -0.28125,0.6875c-0.17708,0.1875 -0.41146,0.28125 -0.70312,0.28125zM201.74902,188.47337c-0.17708,0 -0.33854,-0.03646 -0.48437,-0.10937c-0.13542,-0.07292 -0.25521,-0.19271 -0.35937,-0.35937l-3.35937,-5.40625l1.89063,-0.54687l3.0625,4.92188c0.21875,0.36458 0.24479,0.70833 0.07813,1.03125c-0.15625,0.3125 -0.43229,0.46875 -0.82812,0.46875zM194.9834,181.06712h2.375c0.57292,0 1.07813,-0.10937 1.51563,-0.32812c0.4375,-0.21875 0.78125,-0.52083 1.03125,-0.90625c0.25,-0.39583 0.375,-0.84375 0.375,-1.34375c0,-0.54167 -0.125,-1.02604 -0.375,-1.45312c-0.25,-0.42708 -0.59375,-0.75521 -1.03125,-0.98437c-0.4375,-0.23958 -0.94271,-0.35937 -1.51562,-0.35937h-2.375zM205.78979,188.47337c-0.27083,0 -0.5,-0.09375 -0.6875,-0.28125c-0.1875,-0.1875 -0.28125,-0.41667 -0.28125,-0.6875v-12.625c0,-0.29167 0.09375,-0.52604 0.28125,-0.70312c0.1875,-0.1875 0.41667,-0.28125 0.6875,-0.28125h8.4375c0.29167,0 0.52083,0.08854 0.6875,0.26563c0.17708,0.16667 0.26563,0.38542 0.26563,0.65625c0,0.26042 -0.08854,0.47396 -0.26562,0.64063c-0.16667,0.15625 -0.39583,0.23438 -0.6875,0.23438h-7.45312v4.53125h5.34375c0.29167,0 0.52083,0.08333 0.6875,0.25c0.17708,0.16667 0.26563,0.38542 0.26563,0.65625c0,0.26042 -0.08854,0.47396 -0.26562,0.64063c-0.16667,0.16667 -0.39583,0.25 -0.6875,0.25h-5.34375v4.65625h7.45313c0.29167,0 0.52083,0.08333 0.6875,0.25c0.17708,0.15625 0.26563,0.36458 0.26563,0.625c0,0.28125 -0.08854,0.50521 -0.26562,0.67188c-0.16667,0.16667 -0.39583,0.25 -0.6875,0.25zM217.64602,184.31712c-0.27083,0 -0.5,-0.08854 -0.6875,-0.26562c-0.17708,-0.17708 -0.26562,-0.40104 -0.26562,-0.67187c0,-0.28125 0.08854,-0.51042 0.26563,-0.6875c0.1875,-0.17708 0.41667,-0.26562 0.6875,-0.26562h4.15625c0.27083,0 0.49479,0.08854 0.67188,0.26563c0.17708,0.17708 0.26563,0.40625 0.26563,0.6875c0,0.27083 -0.08854,0.49479 -0.26562,0.67188c-0.17708,0.17708 -0.40104,0.26563 -0.67187,0.26563zM229.81564,188.66087c-0.80208,0 -1.5625,-0.125 -2.28125,-0.375c-0.71875,-0.25 -1.34896,-0.59896 -1.89062,-1.04687c-0.53125,-0.44792 -0.92187,-0.96354 -1.17187,-1.54687c-0.125,-0.26042 -0.125,-0.5 0,-0.71875c0.13542,-0.22917 0.35938,-0.375 0.67188,-0.4375c0.22917,-0.05208 0.44792,-0.01562 0.65625,0.10938c0.21875,0.11458 0.38542,0.29167 0.5,0.53125c0.14583,0.3125 0.39063,0.59896 0.73438,0.85938c0.34375,0.26042 0.75521,0.47396 1.23438,0.64063c0.48958,0.15625 1.00521,0.23438 1.54688,0.23438c0.59375,0 1.14063,-0.09375 1.64063,-0.28125c0.51042,-0.1875 0.91667,-0.45833 1.21875,-0.8125c0.3125,-0.35417 0.46875,-0.79167 0.46875,-1.3125c0,-0.66667 -0.26042,-1.26042 -0.78125,-1.78125c-0.51042,-0.52083 -1.35417,-0.84375 -2.53125,-0.96875c-1.54167,-0.14583 -2.75521,-0.59896 -3.64062,-1.35937c-0.88542,-0.76042 -1.32812,-1.69792 -1.32812,-2.8125c0,-0.82292 0.22917,-1.52083 0.6875,-2.09375c0.45833,-0.57292 1.08333,-1.00521 1.875,-1.29687c0.79167,-0.30208 1.67188,-0.45312 2.64063,-0.45312c0.76042,0 1.42188,0.10417 1.98438,0.3125c0.57292,0.20833 1.06771,0.5 1.48438,0.875c0.42708,0.375 0.79688,0.81771 1.10938,1.32813c0.16667,0.27083 0.23438,0.53125 0.20313,0.78125c-0.02083,0.23958 -0.14062,0.42708 -0.35937,0.5625c-0.22917,0.14583 -0.48437,0.17708 -0.76562,0.09375c-0.27083,-0.08333 -0.47396,-0.24479 -0.60937,-0.48437c-0.19792,-0.36458 -0.44271,-0.67187 -0.73437,-0.92187c-0.28125,-0.25 -0.61458,-0.44271 -1,-0.57812c-0.38542,-0.14583 -0.83854,-0.21875 -1.35937,-0.21875c-0.92708,-0.01042 -1.70312,0.16146 -2.32812,0.51563c-0.61458,0.35417 -0.92187,0.89583 -0.92187,1.625c0,0.375 0.09375,0.73438 0.28125,1.07813c0.19792,0.34375 0.55208,0.64063 1.0625,0.89063c0.52083,0.25 1.26563,0.42188 2.23438,0.51563c1.47917,0.14583 2.63021,0.59896 3.45313,1.35938c0.83333,0.75 1.25,1.73958 1.25,2.96875c0,0.70833 -0.14583,1.32292 -0.4375,1.84375c-0.29167,0.52083 -0.68229,0.96354 -1.17187,1.32813c-0.48958,0.35417 -1.05208,0.61979 -1.6875,0.79688c-0.625,0.16667 -1.27083,0.25 -1.9375,0.25zM238.97928,188.47337c-0.27083,0 -0.5,-0.09375 -0.6875,-0.28125c-0.1875,-0.1875 -0.28125,-0.41667 -0.28125,-0.6875v-12.625c0,-0.29167 0.09375,-0.52604 0.28125,-0.70312c0.1875,-0.1875 0.41667,-0.28125 0.6875,-0.28125h8.4375c0.29167,0 0.52083,0.08854 0.6875,0.26563c0.17708,0.16667 0.26563,0.38542 0.26563,0.65625c0,0.26042 -0.08854,0.47396 -0.26562,0.64063c-0.16667,0.15625 -0.39583,0.23438 -0.6875,0.23438h-7.45312v4.53125h5.34375c0.29167,0 0.52083,0.08333 0.6875,0.25c0.17708,0.16667 0.26563,0.38542 0.26563,0.65625c0,0.26042 -0.08854,0.47396 -0.26562,0.64063c-0.16667,0.16667 -0.39583,0.25 -0.6875,0.25h-5.34375v4.65625h7.45313c0.29167,0 0.52083,0.08333 0.6875,0.25c0.17708,0.15625 0.26563,0.36458 0.26563,0.625c0,0.28125 -0.08854,0.50521 -0.26562,0.67188c-0.16667,0.16667 -0.39583,0.25 -0.6875,0.25zM252.03863,188.47337c-0.27083,0 -0.5,-0.09375 -0.6875,-0.28125c-0.1875,-0.1875 -0.28125,-0.41667 -0.28125,-0.6875v-12.625c0,-0.29167 0.09375,-0.52604 0.28125,-0.70312c0.1875,-0.1875 0.41667,-0.28125 0.6875,-0.28125h3.35938c0.9375,0 1.76563,0.19792 2.48438,0.59375c0.71875,0.39583 1.28125,0.9375 1.6875,1.625c0.40625,0.67708 0.60938,1.46875 0.60938,2.375c0,0.84375 -0.20312,1.59896 -0.60937,2.26563c-0.40625,0.65625 -0.96875,1.17188 -1.6875,1.54688c-0.71875,0.375 -1.54687,0.5625 -2.48437,0.5625h-2.375v4.64063c0,0.27083 -0.09375,0.5 -0.28125,0.6875c-0.17708,0.1875 -0.41146,0.28125 -0.70312,0.28125zM259.78863,188.47337c-0.17708,0 -0.33854,-0.03646 -0.48437,-0.10937c-0.13542,-0.07292 -0.25521,-0.19271 -0.35937,-0.35937l-3.35937,-5.40625l1.89063,-0.54687l3.0625,4.92188c0.21875,0.36458 0.24479,0.70833 0.07813,1.03125c-0.15625,0.3125 -0.43229,0.46875 -0.82812,0.46875zM253.02301,181.06712h2.375c0.57292,0 1.07813,-0.10937 1.51563,-0.32812c0.4375,-0.21875 0.78125,-0.52083 1.03125,-0.90625c0.25,-0.39583 0.375,-0.84375 0.375,-1.34375c0,-0.54167 -0.125,-1.02604 -0.375,-1.45312c-0.25,-0.42708 -0.59375,-0.75521 -1.03125,-0.98437c-0.4375,-0.23958 -0.94271,-0.35937 -1.51562,-0.35937h-2.375zM267.86065,188.47337c-0.39583,0 -0.6875,-0.20312 -0.875,-0.60937l-5.46875,-12.5c-0.16667,-0.42708 -0.18229,-0.77604 -0.04687,-1.04687c0.13542,-0.28125 0.39583,-0.42187 0.78125,-0.42187c0.4375,0 0.73438,0.19271 0.89063,0.57813l4.79688,11.51563h-0.20312l4.89063,-11.51562c0.09375,-0.21875 0.20313,-0.36979 0.32813,-0.45312c0.13542,-0.08333 0.31771,-0.125 0.54688,-0.125c0.375,0 0.63021,0.13542 0.76563,0.40625c0.14583,0.27083 0.14583,0.56771 0,0.89063l-5.51562,12.67188c-0.09375,0.19792 -0.21354,0.34896 -0.35937,0.45313c-0.13542,0.10417 -0.3125,0.15625 -0.53125,0.15625zM277.57907,188.47337c-0.27083,0 -0.5,-0.09375 -0.6875,-0.28125c-0.1875,-0.1875 -0.28125,-0.41667 -0.28125,-0.6875v-12.625c0,-0.29167 0.09375,-0.52604 0.28125,-0.70312c0.1875,-0.1875 0.41667,-0.28125 0.6875,-0.28125h8.4375c0.29167,0 0.52083,0.08854 0.6875,0.26563c0.17708,0.16667 0.26563,0.38542 0.26563,0.65625c0,0.26042 -0.08854,0.47396 -0.26562,0.64063c-0.16667,0.15625 -0.39583,0.23438 -0.6875,0.23438h-7.45312v4.53125h5.34375c0.29167,0 0.52083,0.08333 0.6875,0.25c0.17708,0.16667 0.26563,0.38542 0.26563,0.65625c0,0.26042 -0.08854,0.47396 -0.26562,0.64063c-0.16667,0.16667 -0.39583,0.25 -0.6875,0.25h-5.34375v4.65625h7.45313c0.29167,0 0.52083,0.08333 0.6875,0.25c0.17708,0.15625 0.26563,0.36458 0.26563,0.625c0,0.28125 -0.08854,0.50521 -0.26562,0.67188c-0.16667,0.16667 -0.39583,0.25 -0.6875,0.25z" fill="url(#color-1)" stroke="url(#color-2)" stroke-width="4"/><path d="M193.99902,186.07336c-0.27083,0 -0.5,-0.09375 -0.6875,-0.28125c-0.1875,-0.1875 -0.28125,-0.41667 -0.28125,-0.6875v-12.625c0,-0.29167 0.09375,-0.52604 0.28125,-0.70312c0.1875,-0.1875 0.41667,-0.28125 0.6875,-0.28125h3.35938c0.9375,0 1.76563,0.19792 2.48438,0.59375c0.71875,0.39583 1.28125,0.9375 1.6875,1.625c0.40625,0.67708 0.60938,1.46875 0.60938,2.375c0,0.84375 -0.20312,1.59896 -0.60937,2.26563c-0.40625,0.65625 -0.96875,1.17188 -1.6875,1.54688c-0.71875,0.375 -1.54687,0.5625 -2.48437,0.5625h-2.375v4.64063c0,0.27083 -0.09375,0.5 -0.28125,0.6875c-0.17708,0.1875 -0.41146,0.28125 -0.70312,0.28125zM201.74902,186.07336c-0.17708,0 -0.33854,-0.03646 -0.48437,-0.10937c-0.13542,-0.07292 -0.25521,-0.19271 -0.35937,-0.35937l-3.35937,-5.40625l1.89063,-0.54687l3.0625,4.92188c0.21875,0.36458 0.24479,0.70833 0.07813,1.03125c-0.15625,0.3125 -0.43229,0.46875 -0.82812,0.46875zM194.9834,178.66711h2.375c0.57292,0 1.07813,-0.10937 1.51563,-0.32812c0.4375,-0.21875 0.78125,-0.52083 1.03125,-0.90625c0.25,-0.39583 0.375,-0.84375 0.375,-1.34375c0,-0.54167 -0.125,-1.02604 -0.375,-1.45312c-0.25,-0.42708 -0.59375,-0.75521 -1.03125,-0.98437c-0.4375,-0.23958 -0.94271,-0.35937 -1.51562,-0.35937h-2.375zM205.78979,186.07336c-0.27083,0 -0.5,-0.09375 -0.6875,-0.28125c-0.1875,-0.1875 -0.28125,-0.41667 -0.28125,-0.6875v-12.625c0,-0.29167 0.09375,-0.52604 0.28125,-0.70312c0.1875,-0.1875 0.41667,-0.28125 0.6875,-0.28125h8.4375c0.29167,0 0.52083,0.08854 0.6875,0.26563c0.17708,0.16667 0.26563,0.38542 0.26563,0.65625c0,0.26042 -0.08854,0.47396 -0.26562,0.64063c-0.16667,0.15625 -0.39583,0.23438 -0.6875,0.23438h-7.45312v4.53125h5.34375c0.29167,0 0.52083,0.08333 0.6875,0.25c0.17708,0.16667 0.26563,0.38542 0.26563,0.65625c0,0.26042 -0.08854,0.47396 -0.26562,0.64063c-0.16667,0.16667 -0.39583,0.25 -0.6875,0.25h-5.34375v4.65625h7.45313c0.29167,0 0.52083,0.08333 0.6875,0.25c0.17708,0.15625 0.26563,0.36458 0.26563,0.625c0,0.28125 -0.08854,0.50521 -0.26562,0.67188c-0.16667,0.16667 -0.39583,0.25 -0.6875,0.25zM217.64602,181.91711c-0.27083,0 -0.5,-0.08854 -0.6875,-0.26562c-0.17708,-0.17708 -0.26562,-0.40104 -0.26562,-0.67187c0,-0.28125 0.08854,-0.51042 0.26563,-0.6875c0.1875,-0.17708 0.41667,-0.26562 0.6875,-0.26562h4.15625c0.27083,0 0.49479,0.08854 0.67188,0.26563c0.17708,0.17708 0.26563,0.40625 0.26563,0.6875c0,0.27083 -0.08854,0.49479 -0.26562,0.67188c-0.17708,0.17708 -0.40104,0.26563 -0.67187,0.26563zM229.81564,186.26086c-0.80208,0 -1.5625,-0.125 -2.28125,-0.375c-0.71875,-0.25 -1.34896,-0.59896 -1.89062,-1.04687c-0.53125,-0.44792 -0.92187,-0.96354 -1.17187,-1.54687c-0.125,-0.26042 -0.125,-0.5 0,-0.71875c0.13542,-0.22917 0.35938,-0.375 0.67188,-0.4375c0.22917,-0.05208 0.44792,-0.01562 0.65625,0.10938c0.21875,0.11458 0.38542,0.29167 0.5,0.53125c0.14583,0.3125 0.39063,0.59896 0.73438,0.85938c0.34375,0.26042 0.75521,0.47396 1.23438,0.64063c0.48958,0.15625 1.00521,0.23438 1.54688,0.23438c0.59375,0 1.14063,-0.09375 1.64063,-0.28125c0.51042,-0.1875 0.91667,-0.45833 1.21875,-0.8125c0.3125,-0.35417 0.46875,-0.79167 0.46875,-1.3125c0,-0.66667 -0.26042,-1.26042 -0.78125,-1.78125c-0.51042,-0.52083 -1.35417,-0.84375 -2.53125,-0.96875c-1.54167,-0.14583 -2.75521,-0.59896 -3.64062,-1.35937c-0.88542,-0.76042 -1.32812,-1.69792 -1.32812,-2.8125c0,-0.82292 0.22917,-1.52083 0.6875,-2.09375c0.45833,-0.57292 1.08333,-1.00521 1.875,-1.29687c0.79167,-0.30208 1.67188,-0.45312 2.64063,-0.45312c0.76042,0 1.42188,0.10417 1.98438,0.3125c0.57292,0.20833 1.06771,0.5 1.48438,0.875c0.42708,0.375 0.79688,0.81771 1.10938,1.32813c0.16667,0.27083 0.23438,0.53125 0.20313,0.78125c-0.02083,0.23958 -0.14062,0.42708 -0.35937,0.5625c-0.22917,0.14583 -0.48437,0.17708 -0.76562,0.09375c-0.27083,-0.08333 -0.47396,-0.24479 -0.60937,-0.48437c-0.19792,-0.36458 -0.44271,-0.67187 -0.73437,-0.92187c-0.28125,-0.25 -0.61458,-0.44271 -1,-0.57812c-0.38542,-0.14583 -0.83854,-0.21875 -1.35937,-0.21875c-0.92708,-0.01042 -1.70312,0.16146 -2.32812,0.51563c-0.61458,0.35417 -0.92187,0.89583 -0.92187,1.625c0,0.375 0.09375,0.73438 0.28125,1.07813c0.19792,0.34375 0.55208,0.64063 1.0625,0.89063c0.52083,0.25 1.26563,0.42188 2.23438,0.51563c1.47917,0.14583 2.63021,0.59896 3.45313,1.35938c0.83333,0.75 1.25,1.73958 1.25,2.96875c0,0.70833 -0.14583,1.32292 -0.4375,1.84375c-0.29167,0.52083 -0.68229,0.96354 -1.17187,1.32813c-0.48958,0.35417 -1.05208,0.61979 -1.6875,0.79688c-0.625,0.16667 -1.27083,0.25 -1.9375,0.25zM238.97928,186.07336c-0.27083,0 -0.5,-0.09375 -0.6875,-0.28125c-0.1875,-0.1875 -0.28125,-0.41667 -0.28125,-0.6875v-12.625c0,-0.29167 0.09375,-0.52604 0.28125,-0.70312c0.1875,-0.1875 0.41667,-0.28125 0.6875,-0.28125h8.4375c0.29167,0 0.52083,0.08854 0.6875,0.26563c0.17708,0.16667 0.26563,0.38542 0.26563,0.65625c0,0.26042 -0.08854,0.47396 -0.26562,0.64063c-0.16667,0.15625 -0.39583,0.23438 -0.6875,0.23438h-7.45312v4.53125h5.34375c0.29167,0 0.52083,0.08333 0.6875,0.25c0.17708,0.16667 0.26563,0.38542 0.26563,0.65625c0,0.26042 -0.08854,0.47396 -0.26562,0.64063c-0.16667,0.16667 -0.39583,0.25 -0.6875,0.25h-5.34375v4.65625h7.45313c0.29167,0 0.52083,0.08333 0.6875,0.25c0.17708,0.15625 0.26563,0.36458 0.26563,0.625c0,0.28125 -0.08854,0.50521 -0.26562,0.67188c-0.16667,0.16667 -0.39583,0.25 -0.6875,0.25zM252.03863,186.07336c-0.27083,0 -0.5,-0.09375 -0.6875,-0.28125c-0.1875,-0.1875 -0.28125,-0.41667 -0.28125,-0.6875v-12.625c0,-0.29167 0.09375,-0.52604 0.28125,-0.70312c0.1875,-0.1875 0.41667,-0.28125 0.6875,-0.28125h3.35938c0.9375,0 1.76563,0.19792 2.48438,0.59375c0.71875,0.39583 1.28125,0.9375 1.6875,1.625c0.40625,0.67708 0.60938,1.46875 0.60938,2.375c0,0.84375 -0.20312,1.59896 -0.60937,2.26563c-0.40625,0.65625 -0.96875,1.17188 -1.6875,1.54688c-0.71875,0.375 -1.54687,0.5625 -2.48437,0.5625h-2.375v4.64063c0,0.27083 -0.09375,0.5 -0.28125,0.6875c-0.17708,0.1875 -0.41146,0.28125 -0.70312,0.28125zM259.78863,186.07336c-0.17708,0 -0.33854,-0.03646 -0.48437,-0.10937c-0.13542,-0.07292 -0.25521,-0.19271 -0.35937,-0.35937l-3.35937,-5.40625l1.89063,-0.54687l3.0625,4.92188c0.21875,0.36458 0.24479,0.70833 0.07813,1.03125c-0.15625,0.3125 -0.43229,0.46875 -0.82812,0.46875zM253.02301,178.66711h2.375c0.57292,0 1.07813,-0.10937 1.51563,-0.32812c0.4375,-0.21875 0.78125,-0.52083 1.03125,-0.90625c0.25,-0.39583 0.375,-0.84375 0.375,-1.34375c0,-0.54167 -0.125,-1.02604 -0.375,-1.45312c-0.25,-0.42708 -0.59375,-0.75521 -1.03125,-0.98437c-0.4375,-0.23958 -0.94271,-0.35937 -1.51562,-0.35937h-2.375zM267.86065,186.07336c-0.39583,0 -0.6875,-0.20312 -0.875,-0.60937l-5.46875,-12.5c-0.16667,-0.42708 -0.18229,-0.77604 -0.04687,-1.04687c0.13542,-0.28125 0.39583,-0.42187 0.78125,-0.42187c0.4375,0 0.73438,0.19271 0.89063,0.57813l4.79688,11.51563h-0.20312l4.89063,-11.51562c0.09375,-0.21875 0.20313,-0.36979 0.32813,-0.45312c0.13542,-0.08333 0.31771,-0.125 0.54688,-0.125c0.375,0 0.63021,0.13542 0.76563,0.40625c0.14583,0.27083 0.14583,0.56771 0,0.89063l-5.51562,12.67188c-0.09375,0.19792 -0.21354,0.34896 -0.35937,0.45313c-0.13542,0.10417 -0.3125,0.15625 -0.53125,0.15625zM277.57907,186.07336c-0.27083,0 -0.5,-0.09375 -0.6875,-0.28125c-0.1875,-0.1875 -0.28125,-0.41667 -0.28125,-0.6875v-12.625c0,-0.29167 0.09375,-0.52604 0.28125,-0.70312c0.1875,-0.1875 0.41667,-0.28125 0.6875,-0.28125h8.4375c0.29167,0 0.52083,0.08854 0.6875,0.26563c0.17708,0.16667 0.26563,0.38542 0.26563,0.65625c0,0.26042 -0.08854,0.47396 -0.26562,0.64063c-0.16667,0.15625 -0.39583,0.23438 -0.6875,0.23438h-7.45312v4.53125h5.34375c0.29167,0 0.52083,0.08333 0.6875,0.25c0.17708,0.16667 0.26563,0.38542 0.26563,0.65625c0,0.26042 -0.08854,0.47396 -0.26562,0.64063c-0.16667,0.16667 -0.39583,0.25 -0.6875,0.25h-5.34375v4.65625h7.45313c0.29167,0 0.52083,0.08333 0.6875,0.25c0.17708,0.15625 0.26563,0.36458 0.26563,0.625c0,0.28125 -0.08854,0.50521 -0.26562,0.67188c-0.16667,0.16667 -0.39583,0.25 -0.6875,0.25z" fill="#9966ff" stroke="#28123b" stroke-width="4"/><path d="M193.99902,186.07337c-0.27083,0 -0.5,-0.09375 -0.6875,-0.28125c-0.1875,-0.1875 -0.28125,-0.41667 -0.28125,-0.6875v-12.625c0,-0.29167 0.09375,-0.52604 0.28125,-0.70312c0.1875,-0.1875 0.41667,-0.28125 0.6875,-0.28125h3.35938c0.9375,0 1.76563,0.19792 2.48438,0.59375c0.71875,0.39583 1.28125,0.9375 1.6875,1.625c0.40625,0.67708 0.60938,1.46875 0.60938,2.375c0,0.84375 -0.20312,1.59896 -0.60937,2.26563c-0.40625,0.65625 -0.96875,1.17188 -1.6875,1.54688c-0.71875,0.375 -1.54687,0.5625 -2.48437,0.5625h-2.375v4.64063c0,0.27083 -0.09375,0.5 -0.28125,0.6875c-0.17708,0.1875 -0.41146,0.28125 -0.70312,0.28125zM201.74902,186.07337c-0.17708,0 -0.33854,-0.03646 -0.48437,-0.10937c-0.13542,-0.07292 -0.25521,-0.19271 -0.35937,-0.35937l-3.35937,-5.40625l1.89063,-0.54687l3.0625,4.92188c0.21875,0.36458 0.24479,0.70833 0.07813,1.03125c-0.15625,0.3125 -0.43229,0.46875 -0.82812,0.46875zM194.9834,178.66712h2.375c0.57292,0 1.07813,-0.10937 1.51563,-0.32812c0.4375,-0.21875 0.78125,-0.52083 1.03125,-0.90625c0.25,-0.39583 0.375,-0.84375 0.375,-1.34375c0,-0.54167 -0.125,-1.02604 -0.375,-1.45312c-0.25,-0.42708 -0.59375,-0.75521 -1.03125,-0.98437c-0.4375,-0.23958 -0.94271,-0.35937 -1.51562,-0.35937h-2.375zM205.78979,186.07337c-0.27083,0 -0.5,-0.09375 -0.6875,-0.28125c-0.1875,-0.1875 -0.28125,-0.41667 -0.28125,-0.6875v-12.625c0,-0.29167 0.09375,-0.52604 0.28125,-0.70312c0.1875,-0.1875 0.41667,-0.28125 0.6875,-0.28125h8.4375c0.29167,0 0.52083,0.08854 0.6875,0.26563c0.17708,0.16667 0.26563,0.38542 0.26563,0.65625c0,0.26042 -0.08854,0.47396 -0.26562,0.64063c-0.16667,0.15625 -0.39583,0.23438 -0.6875,0.23438h-7.45312v4.53125h5.34375c0.29167,0 0.52083,0.08333 0.6875,0.25c0.17708,0.16667 0.26563,0.38542 0.26563,0.65625c0,0.26042 -0.08854,0.47396 -0.26562,0.64063c-0.16667,0.16667 -0.39583,0.25 -0.6875,0.25h-5.34375v4.65625h7.45313c0.29167,0 0.52083,0.08333 0.6875,0.25c0.17708,0.15625 0.26563,0.36458 0.26563,0.625c0,0.28125 -0.08854,0.50521 -0.26562,0.67188c-0.16667,0.16667 -0.39583,0.25 -0.6875,0.25zM217.64602,181.91712c-0.27083,0 -0.5,-0.08854 -0.6875,-0.26562c-0.17708,-0.17708 -0.26562,-0.40104 -0.26562,-0.67187c0,-0.28125 0.08854,-0.51042 0.26563,-0.6875c0.1875,-0.17708 0.41667,-0.26562 0.6875,-0.26562h4.15625c0.27083,0 0.49479,0.08854 0.67188,0.26563c0.17708,0.17708 0.26563,0.40625 0.26563,0.6875c0,0.27083 -0.08854,0.49479 -0.26562,0.67188c-0.17708,0.17708 -0.40104,0.26563 -0.67187,0.26563zM229.81564,186.26087c-0.80208,0 -1.5625,-0.125 -2.28125,-0.375c-0.71875,-0.25 -1.34896,-0.59896 -1.89062,-1.04687c-0.53125,-0.44792 -0.92187,-0.96354 -1.17187,-1.54687c-0.125,-0.26042 -0.125,-0.5 0,-0.71875c0.13542,-0.22917 0.35938,-0.375 0.67188,-0.4375c0.22917,-0.05208 0.44792,-0.01562 0.65625,0.10938c0.21875,0.11458 0.38542,0.29167 0.5,0.53125c0.14583,0.3125 0.39063,0.59896 0.73438,0.85938c0.34375,0.26042 0.75521,0.47396 1.23438,0.64063c0.48958,0.15625 1.00521,0.23438 1.54688,0.23438c0.59375,0 1.14063,-0.09375 1.64063,-0.28125c0.51042,-0.1875 0.91667,-0.45833 1.21875,-0.8125c0.3125,-0.35417 0.46875,-0.79167 0.46875,-1.3125c0,-0.66667 -0.26042,-1.26042 -0.78125,-1.78125c-0.51042,-0.52083 -1.35417,-0.84375 -2.53125,-0.96875c-1.54167,-0.14583 -2.75521,-0.59896 -3.64062,-1.35937c-0.88542,-0.76042 -1.32812,-1.69792 -1.32812,-2.8125c0,-0.82292 0.22917,-1.52083 0.6875,-2.09375c0.45833,-0.57292 1.08333,-1.00521 1.875,-1.29687c0.79167,-0.30208 1.67188,-0.45312 2.64063,-0.45312c0.76042,0 1.42188,0.10417 1.98438,0.3125c0.57292,0.20833 1.06771,0.5 1.48438,0.875c0.42708,0.375 0.79688,0.81771 1.10938,1.32813c0.16667,0.27083 0.23438,0.53125 0.20313,0.78125c-0.02083,0.23958 -0.14062,0.42708 -0.35937,0.5625c-0.22917,0.14583 -0.48437,0.17708 -0.76562,0.09375c-0.27083,-0.08333 -0.47396,-0.24479 -0.60937,-0.48437c-0.19792,-0.36458 -0.44271,-0.67187 -0.73437,-0.92187c-0.28125,-0.25 -0.61458,-0.44271 -1,-0.57812c-0.38542,-0.14583 -0.83854,-0.21875 -1.35937,-0.21875c-0.92708,-0.01042 -1.70312,0.16146 -2.32812,0.51563c-0.61458,0.35417 -0.92187,0.89583 -0.92187,1.625c0,0.375 0.09375,0.73438 0.28125,1.07813c0.19792,0.34375 0.55208,0.64063 1.0625,0.89063c0.52083,0.25 1.26563,0.42188 2.23438,0.51563c1.47917,0.14583 2.63021,0.59896 3.45313,1.35938c0.83333,0.75 1.25,1.73958 1.25,2.96875c0,0.70833 -0.14583,1.32292 -0.4375,1.84375c-0.29167,0.52083 -0.68229,0.96354 -1.17187,1.32813c-0.48958,0.35417 -1.05208,0.61979 -1.6875,0.79688c-0.625,0.16667 -1.27083,0.25 -1.9375,0.25zM238.97928,186.07337c-0.27083,0 -0.5,-0.09375 -0.6875,-0.28125c-0.1875,-0.1875 -0.28125,-0.41667 -0.28125,-0.6875v-12.625c0,-0.29167 0.09375,-0.52604 0.28125,-0.70312c0.1875,-0.1875 0.41667,-0.28125 0.6875,-0.28125h8.4375c0.29167,0 0.52083,0.08854 0.6875,0.26563c0.17708,0.16667 0.26563,0.38542 0.26563,0.65625c0,0.26042 -0.08854,0.47396 -0.26562,0.64063c-0.16667,0.15625 -0.39583,0.23438 -0.6875,0.23438h-7.45312v4.53125h5.34375c0.29167,0 0.52083,0.08333 0.6875,0.25c0.17708,0.16667 0.26563,0.38542 0.26563,0.65625c0,0.26042 -0.08854,0.47396 -0.26562,0.64063c-0.16667,0.16667 -0.39583,0.25 -0.6875,0.25h-5.34375v4.65625h7.45313c0.29167,0 0.52083,0.08333 0.6875,0.25c0.17708,0.15625 0.26563,0.36458 0.26563,0.625c0,0.28125 -0.08854,0.50521 -0.26562,0.67188c-0.16667,0.16667 -0.39583,0.25 -0.6875,0.25zM252.03863,186.07337c-0.27083,0 -0.5,-0.09375 -0.6875,-0.28125c-0.1875,-0.1875 -0.28125,-0.41667 -0.28125,-0.6875v-12.625c0,-0.29167 0.09375,-0.52604 0.28125,-0.70312c0.1875,-0.1875 0.41667,-0.28125 0.6875,-0.28125h3.35938c0.9375,0 1.76563,0.19792 2.48438,0.59375c0.71875,0.39583 1.28125,0.9375 1.6875,1.625c0.40625,0.67708 0.60938,1.46875 0.60938,2.375c0,0.84375 -0.20312,1.59896 -0.60937,2.26563c-0.40625,0.65625 -0.96875,1.17188 -1.6875,1.54688c-0.71875,0.375 -1.54687,0.5625 -2.48437,0.5625h-2.375v4.64063c0,0.27083 -0.09375,0.5 -0.28125,0.6875c-0.17708,0.1875 -0.41146,0.28125 -0.70312,0.28125zM259.78863,186.07337c-0.17708,0 -0.33854,-0.03646 -0.48437,-0.10937c-0.13542,-0.07292 -0.25521,-0.19271 -0.35937,-0.35937l-3.35937,-5.40625l1.89063,-0.54687l3.0625,4.92188c0.21875,0.36458 0.24479,0.70833 0.07813,1.03125c-0.15625,0.3125 -0.43229,0.46875 -0.82812,0.46875zM253.02301,178.66712h2.375c0.57292,0 1.07813,-0.10937 1.51563,-0.32812c0.4375,-0.21875 0.78125,-0.52083 1.03125,-0.90625c0.25,-0.39583 0.375,-0.84375 0.375,-1.34375c0,-0.54167 -0.125,-1.02604 -0.375,-1.45312c-0.25,-0.42708 -0.59375,-0.75521 -1.03125,-0.98437c-0.4375,-0.23958 -0.94271,-0.35937 -1.51562,-0.35937h-2.375zM267.86065,186.07337c-0.39583,0 -0.6875,-0.20312 -0.875,-0.60937l-5.46875,-12.5c-0.16667,-0.42708 -0.18229,-0.77604 -0.04687,-1.04687c0.13542,-0.28125 0.39583,-0.42187 0.78125,-0.42187c0.4375,0 0.73438,0.19271 0.89063,0.57813l4.79688,11.51563h-0.20312l4.89063,-11.51562c0.09375,-0.21875 0.20313,-0.36979 0.32813,-0.45312c0.13542,-0.08333 0.31771,-0.125 0.54688,-0.125c0.375,0 0.63021,0.13542 0.76563,0.40625c0.14583,0.27083 0.14583,0.56771 0,0.89063l-5.51562,12.67188c-0.09375,0.19792 -0.21354,0.34896 -0.35937,0.45313c-0.13542,0.10417 -0.3125,0.15625 -0.53125,0.15625zM277.57907,186.07337c-0.27083,0 -0.5,-0.09375 -0.6875,-0.28125c-0.1875,-0.1875 -0.28125,-0.41667 -0.28125,-0.6875v-12.625c0,-0.29167 0.09375,-0.52604 0.28125,-0.70312c0.1875,-0.1875 0.41667,-0.28125 0.6875,-0.28125h8.4375c0.29167,0 0.52083,0.08854 0.6875,0.26563c0.17708,0.16667 0.26563,0.38542 0.26563,0.65625c0,0.26042 -0.08854,0.47396 -0.26562,0.64063c-0.16667,0.15625 -0.39583,0.23438 -0.6875,0.23438h-7.45312v4.53125h5.34375c0.29167,0 0.52083,0.08333 0.6875,0.25c0.17708,0.16667 0.26563,0.38542 0.26563,0.65625c0,0.26042 -0.08854,0.47396 -0.26562,0.64063c-0.16667,0.16667 -0.39583,0.25 -0.6875,0.25h-5.34375v4.65625h7.45313c0.29167,0 0.52083,0.08333 0.6875,0.25c0.17708,0.15625 0.26563,0.36458 0.26563,0.625c0,0.28125 -0.08854,0.50521 -0.26562,0.67188c-0.16667,0.16667 -0.39583,0.25 -0.6875,0.25z" fill="#ab81ff" stroke="#ab81ff" stroke-width="0.5"/></g></g></svg>