<svg version="1.1" xmlns="http://www.w3.org/2000/svg" xmlns:xlink="http://www.w3.org/1999/xlink" width="310.59403" height="88.58022" viewBox="0,0,310.59403,88.58022"><defs><linearGradient x1="-619.90502" y1="-674.966" x2="-536.54416" y2="540.45693" gradientUnits="userSpaceOnUse" id="color-1"><stop offset="0" stop-color="#000000"/><stop offset="1" stop-color="#000000" stop-opacity="0"/></linearGradient><linearGradient x1="241.70008" y1="140.6999" x2="241.70008" y2="150.0501" gradientUnits="userSpaceOnUse" id="color-2"><stop offset="0" stop-color="#000000"/><stop offset="1" stop-color="#000000" stop-opacity="0"/></linearGradient><linearGradient x1="241.70008" y1="140.6999" x2="241.70008" y2="150.0501" gradientUnits="userSpaceOnUse" id="color-3"><stop offset="0" stop-color="#000000"/><stop offset="1" stop-color="#000000" stop-opacity="0"/></linearGradient><linearGradient x1="92.44618" y1="145.37501" x2="92.44618" y2="217.31787" gradientUnits="userSpaceOnUse" id="color-4"><stop offset="0" stop-color="#000000"/><stop offset="1" stop-color="#000000" stop-opacity="0"/></linearGradient><linearGradient x1="92.44618" y1="145.37501" x2="92.44618" y2="217.31787" gradientUnits="userSpaceOnUse" id="color-5"><stop offset="0" stop-color="#000000"/><stop offset="1" stop-color="#000000" stop-opacity="0"/></linearGradient><linearGradient x1="240.97716" y1="213.36499" x2="240.97716" y2="222.71519" gradientUnits="userSpaceOnUse" id="color-6"><stop offset="0" stop-color="#000000"/><stop offset="1" stop-color="#000000" stop-opacity="0"/></linearGradient><linearGradient x1="240.97716" y1="213.36499" x2="240.97716" y2="222.71519" gradientUnits="userSpaceOnUse" id="color-7"><stop offset="0" stop-color="#000000"/><stop offset="1" stop-color="#000000" stop-opacity="0"/></linearGradient><linearGradient x1="390.23104" y1="146.09726" x2="390.23104" y2="218.04011" gradientUnits="userSpaceOnUse" id="color-8"><stop offset="0" stop-color="#000000"/><stop offset="1" stop-color="#000000" stop-opacity="0"/></linearGradient><linearGradient x1="390.23104" y1="146.09726" x2="390.23104" y2="218.04011" gradientUnits="userSpaceOnUse" id="color-9"><stop offset="0" stop-color="#000000"/><stop offset="1" stop-color="#000000" stop-opacity="0"/></linearGradient><linearGradient x1="245.14845" y1="165.5997" x2="245.14845" y2="203.14511" gradientUnits="userSpaceOnUse" id="color-10"><stop offset="0" stop-color="#8b4fff" stop-opacity="0"/><stop offset="1" stop-color="#8b4fff" stop-opacity="0"/></linearGradient><linearGradient x1="245.14845" y1="165.5997" x2="245.14845" y2="203.14511" gradientUnits="userSpaceOnUse" id="color-11"><stop offset="0" stop-color="#000000"/><stop offset="1" stop-color="#000000" stop-opacity="0"/></linearGradient></defs><g transform="translate(-86.19618,-135.70989)"><g data-paper-data="{&quot;isPaintingLayer&quot;:true}" fill-rule="nonzero" stroke-linejoin="miter" stroke-miterlimit="10" stroke-dasharray="" stroke-dashoffset="0" style="mix-blend-mode: normal"><path d="M91.78232,214.1876l-2.3224,-70.07674l298.7423,-1.48895l1.51423,70.2006z" fill="url(#color-1)" stroke="none" stroke-width="0" stroke-linecap="butt"/><g stroke-linecap="round"><g stroke-width="12.5"><path d="M388.82764,145.37501h-294.25513" fill="url(#color-2)" stroke="url(#color-3)"/><path d="M92.44618,145.37502v71.94284" fill="url(#color-4)" stroke="url(#color-5)"/><path d="M388.10473,218.04011h-294.25513" data-paper-data="{&quot;index&quot;:null}" fill="url(#color-6)" stroke="url(#color-7)"/><path d="M390.23104,218.04011v-71.94283" data-paper-data="{&quot;index&quot;:null}" fill="url(#color-8)" stroke="url(#color-9)"/></g><g fill="none" stroke="#28123b" stroke-width="12.5"><path d="M94.88169,141.95989h294.25513"/><path d="M92.75536,141.95989v71.94283"/><path d="M94.15878,214.62496h294.25513" data-paper-data="{&quot;index&quot;:null}"/><path d="M390.54022,214.62496v-71.94283" data-paper-data="{&quot;index&quot;:null}"/></g><g fill="none" stroke="#8b4fff" stroke-width="4.5"><path d="M389.13683,141.95989h-294.25513"/><path d="M92.75536,141.95989v71.94283"/><path d="M94.15878,214.62496h294.25513" data-paper-data="{&quot;index&quot;:null}"/><path d="M390.54022,214.62496v-71.94283" data-paper-data="{&quot;index&quot;:null}"/></g></g><g stroke-linecap="square"><path d="M140.02932,202.67383c-0.68075,0 -1.25675,-0.23564 -1.72803,-0.70692c-0.4451,-0.47128 -0.66765,-1.04729 -0.66765,-1.72803v-31.73294c0,-0.7331 0.22255,-1.32221 0.66765,-1.76731c0.47128,-0.47128 1.04729,-0.70691 1.72803,-0.70691c0.7593,0 1.38766,0.3011 1.88512,0.90328l20.46147,27.21649v-25.64555c0,-0.7331 0.22255,-1.32221 0.66765,-1.76731c0.47128,-0.47128 1.06039,-0.70691 1.76731,-0.70691c0.70691,0 1.28292,0.23564 1.72802,0.70691c0.4451,0.4451 0.66765,1.03421 0.66765,1.76731v31.73294c0,0.68075 -0.22255,1.25675 -0.66765,1.72803c-0.4451,0.47128 -1.02111,0.70692 -1.72802,0.70692c-0.31419,0 -0.65456,-0.06545 -1.02111,-0.19637c-0.36655,-0.15708 -0.65455,-0.36655 -0.86402,-0.62837l-20.46147,-27.21649v25.60629c0,0.68075 -0.22254,1.25675 -0.66764,1.72803c-0.4451,0.47128 -1.03421,0.70692 -1.76731,0.70692zM193.48124,203.14511c-2.74914,0 -5.26263,-0.45818 -7.5405,-1.37457c-2.27787,-0.94257 -4.24153,-2.23859 -5.89102,-3.88807c-1.62331,-1.67566 -2.89314,-3.66553 -3.80952,-5.96956c-0.91638,-2.30404 -1.37457,-4.83063 -1.37457,-7.57977c0,-2.74914 0.45818,-5.26263 1.37457,-7.5405c0.91638,-2.27787 2.18621,-4.25462 3.80952,-5.93029c1.64948,-1.67566 3.61316,-2.97169 5.89102,-3.88807c2.27787,-0.91638 4.79135,-1.37456 7.5405,-1.37456c2.77532,0 5.28882,0.45818 7.54051,1.37456c2.27787,0.91638 4.24153,2.21241 5.89102,3.88807c1.64948,1.67566 2.91934,3.65243 3.80952,5.93029c0.91638,2.27787 1.37457,4.79135 1.37457,7.5405c0,2.74914 -0.45818,5.27574 -1.37457,7.57977c-0.89019,2.30404 -2.16004,4.2939 -3.80952,5.96956c-1.64948,1.64948 -3.61315,2.9455 -5.89102,3.88807c-2.25168,0.91638 -4.76518,1.37457 -7.54051,1.37457zM193.48124,198.74647c2.04222,0 3.91425,-0.36655 5.61611,-1.09965c1.70186,-0.7331 3.18115,-1.75421 4.4379,-3.06332c1.25675,-1.30912 2.21241,-2.82768 2.86696,-4.55571c0.68074,-1.75421 1.02111,-3.65243 1.02111,-5.69465c0,-2.01604 -0.34037,-3.90116 -1.02111,-5.65538c-0.65455,-1.75421 -1.61021,-3.27279 -2.86696,-4.55571c-1.25675,-1.30912 -2.73605,-2.31713 -4.4379,-3.02405c-1.70186,-0.7331 -3.57388,-1.09965 -5.61611,-1.09965c-2.01604,0 -3.87497,0.36655 -5.57682,1.09965c-1.70186,0.70691 -3.18116,1.71494 -4.4379,3.02405c-1.23058,1.28293 -2.18622,2.80151 -2.86696,4.55571c-0.68074,1.75421 -1.02111,3.63934 -1.02111,5.65538c0,2.04222 0.34037,3.94045 1.02111,5.69465c0.68075,1.72803 1.63639,3.2466 2.86696,4.55571c1.25674,1.30912 2.73605,2.33022 4.4379,3.06332c1.70186,0.7331 3.56079,1.09965 5.57682,1.09965zM222.1774,202.67383c-0.68074,0 -1.25675,-0.23564 -1.72803,-0.70692c-0.47128,-0.47128 -0.70691,-1.04729 -0.70691,-1.72803v-31.73294c0,-0.7331 0.23563,-1.32221 0.70691,-1.76731c0.47128,-0.47128 1.0473,-0.70691 1.72803,-0.70691h8.44379c2.35641,0 4.4379,0.49746 6.24447,1.49239c1.80658,0.99493 3.22043,2.35641 4.24153,4.08444c1.02111,1.70185 1.53167,3.6917 1.53167,5.96956c0,2.12076 -0.51056,4.01898 -1.53167,5.69465c-1.02111,1.64948 -2.43496,2.9455 -4.24153,3.88807c-1.80658,0.94257 -3.88807,1.41385 -6.24447,1.41385h-5.96956v11.66421c0,0.68075 -0.23563,1.25675 -0.70691,1.72803c-0.4451,0.47128 -1.03421,0.70692 -1.76731,0.70692zM241.65702,202.67383c-0.4451,0 -0.85093,-0.09164 -1.21748,-0.27491c-0.34037,-0.18327 -0.64147,-0.48438 -0.90328,-0.90329l-8.44379,-13.58861l4.75209,-1.37457l7.69759,12.37113c0.54983,0.91638 0.61528,1.78041 0.19637,2.59204c-0.39273,0.78548 -1.08656,1.1782 -2.08149,1.1782zM224.65162,184.05821h5.96956c1.44002,0 2.70987,-0.27492 3.80952,-0.82475c1.09965,-0.54983 1.96368,-1.30912 2.59205,-2.27787c0.62837,-0.99493 0.94256,-2.12076 0.94256,-3.37752c0,-1.36147 -0.31419,-2.57895 -0.94256,-3.65243c-0.62837,-1.07347 -1.4924,-1.89823 -2.59205,-2.47422c-1.09965,-0.6022 -2.3695,-0.90328 -3.80952,-0.90328h-5.96956zM251.81334,202.67383c-0.68074,0 -1.25675,-0.23564 -1.72803,-0.70692c-0.47128,-0.47128 -0.70692,-1.04729 -0.70692,-1.72803v-31.73294c0,-0.7331 0.23563,-1.32221 0.70692,-1.76731c0.47128,-0.47128 1.04729,-0.70691 1.72803,-0.70691c0.94257,0 1.66257,0.4451 2.16004,1.3353l14.68827,29.41582h-1.4924l14.29553,-29.41582c0.49747,-0.89019 1.21747,-1.3353 2.16004,-1.3353c0.68074,0 1.25675,0.23564 1.72803,0.70691c0.47128,0.4451 0.70691,1.03421 0.70691,1.76731v31.73294c0,0.68075 -0.24873,1.25675 -0.7462,1.72803c-0.47128,0.47128 -1.03421,0.70692 -1.68876,0.70692c-0.68074,0 -1.25674,-0.23564 -1.72803,-0.70692c-0.47128,-0.47128 -0.70692,-1.04729 -0.70692,-1.72803v-24.9779l0.94257,-0.23564l-12.29259,25.01719c-0.52365,0.81164 -1.23058,1.21748 -2.12076,1.21748c-1.02111,0 -1.76731,-0.48438 -2.23859,-1.45312l-12.13549,-24.34953l0.94256,-0.19637v24.9779c0,0.68075 -0.23563,1.25675 -0.70692,1.72803c-0.47128,0.47128 -1.06039,0.70692 -1.76731,0.70692zM293.9737,202.67383c-0.86402,0 -1.53168,-0.36655 -2.00295,-1.09965c-0.47128,-0.75929 -0.52364,-1.57094 -0.15708,-2.43496l13.19588,-31.45803c0.47128,-1.09965 1.23057,-1.64948 2.27786,-1.64948c1.12583,0 1.89822,0.54983 2.31713,1.64948l13.23515,31.57584c0.34037,0.86402 0.27491,1.64948 -0.19637,2.3564c-0.4451,0.70691 -1.11275,1.06039 -2.00294,1.06039c-0.47128,0 -0.92947,-0.13092 -1.37457,-0.39273c-0.41891,-0.26181 -0.72002,-0.62837 -0.90329,-1.09965l-11.62494,-28.90525h1.3353l-11.8213,28.90525c-0.23563,0.49747 -0.56293,0.87712 -0.98183,1.13893c-0.41891,0.23563 -0.85092,0.35346 -1.29602,0.35346zM296.48718,194.62277l1.84585,-4.04516h18.37996l1.88512,4.04516zM330.78795,202.67383c-0.68074,0 -1.25674,-0.23564 -1.72803,-0.70692c-0.4451,-0.47128 -0.66765,-1.04729 -0.66765,-1.72803v-31.73294c0,-0.70691 0.23564,-1.29603 0.70692,-1.76731c0.47128,-0.47128 1.03421,-0.70691 1.68876,-0.70691c0.70691,0 1.28293,0.23564 1.72803,0.70691c0.47128,0.47128 0.70692,1.06039 0.70692,1.76731v29.29798h17.0054c0.68074,0 1.25675,0.23564 1.72803,0.70692c0.47128,0.47128 0.70692,1.04729 0.70692,1.72802c0,0.68075 -0.23564,1.25675 -0.70692,1.72803c-0.47128,0.47128 -1.04729,0.70692 -1.72803,0.70692z" fill="url(#color-10)" stroke="url(#color-11)" stroke-width="9"/><path d="M139.73252,196.45135c-0.68075,0 -1.25675,-0.23564 -1.72803,-0.70692c-0.4451,-0.47128 -0.66765,-1.04729 -0.66765,-1.72803v-31.73294c0,-0.7331 0.22255,-1.32221 0.66765,-1.76731c0.47128,-0.47128 1.04729,-0.70692 1.72803,-0.70692c0.75929,0 1.38766,0.3011 1.88513,0.90328l20.46147,27.21649v-25.64555c0,-0.7331 0.22255,-1.32221 0.66765,-1.76731c0.47128,-0.47128 1.06039,-0.70692 1.76731,-0.70692c0.70692,0 1.28293,0.23564 1.72803,0.70692c0.4451,0.4451 0.66765,1.03421 0.66765,1.76731v31.73294c0,0.68075 -0.22255,1.25675 -0.66765,1.72803c-0.4451,0.47128 -1.02111,0.70692 -1.72803,0.70692c-0.31419,0 -0.65455,-0.06545 -1.02111,-0.19637c-0.36655,-0.15709 -0.65455,-0.36655 -0.86402,-0.62837l-20.46147,-27.21649v25.60629c0,0.68075 -0.22255,1.25675 -0.66765,1.72803c-0.4451,0.47128 -1.03421,0.70692 -1.76731,0.70692zM193.18444,196.92263c-2.74914,0 -5.26263,-0.45818 -7.5405,-1.37456c-2.27787,-0.94256 -4.24153,-2.23859 -5.89102,-3.88807c-1.62331,-1.67566 -2.89314,-3.66553 -3.80952,-5.96956c-0.91638,-2.30404 -1.37456,-4.83063 -1.37456,-7.57977c0,-2.74914 0.45818,-5.26263 1.37456,-7.5405c0.91638,-2.27787 2.18621,-4.25462 3.80952,-5.93029c1.64948,-1.67566 3.61315,-2.97169 5.89102,-3.88807c2.27787,-0.91638 4.79135,-1.37456 7.5405,-1.37456c2.77532,0 5.28882,0.45818 7.5405,1.37456c2.27787,0.91638 4.24153,2.21241 5.89102,3.88807c1.64948,1.67566 2.91934,3.65243 3.80952,5.93029c0.91638,2.27787 1.37456,4.79135 1.37456,7.5405c0,2.74914 -0.45818,5.27573 -1.37456,7.57977c-0.89019,2.30404 -2.16004,4.2939 -3.80952,5.96956c-1.64948,1.64948 -3.61315,2.94551 -5.89102,3.88807c-2.25169,0.91638 -4.76518,1.37456 -7.5405,1.37456zM193.18444,192.524c2.04222,0 3.91425,-0.36655 5.61611,-1.09965c1.70186,-0.7331 3.18115,-1.75421 4.4379,-3.06332c1.25675,-1.30912 2.21241,-2.82769 2.86696,-4.55572c0.68075,-1.75421 1.02111,-3.65243 1.02111,-5.69465c0,-2.01604 -0.34037,-3.90117 -1.02111,-5.65538c-0.65455,-1.75421 -1.61021,-3.27279 -2.86696,-4.55572c-1.25675,-1.30912 -2.73605,-2.31713 -4.4379,-3.02405c-1.70186,-0.7331 -3.57388,-1.09965 -5.61611,-1.09965c-2.01604,0 -3.87497,0.36655 -5.57683,1.09965c-1.70186,0.70692 -3.18115,1.71494 -4.4379,3.02405c-1.23058,1.28293 -2.18621,2.80151 -2.86696,4.55572c-0.68075,1.75421 -1.02111,3.63934 -1.02111,5.65538c0,2.04222 0.34037,3.94045 1.02111,5.69465c0.68075,1.72803 1.63638,3.2466 2.86696,4.55572c1.25675,1.30912 2.73605,2.33023 4.4379,3.06332c1.70186,0.7331 3.56079,1.09965 5.57683,1.09965zM221.88059,196.45135c-0.68075,0 -1.25675,-0.23564 -1.72803,-0.70692c-0.47128,-0.47128 -0.70692,-1.04729 -0.70692,-1.72803v-31.73294c0,-0.7331 0.23564,-1.32221 0.70692,-1.76731c0.47128,-0.47128 1.04729,-0.70692 1.72803,-0.70692h8.44379c2.35641,0 4.4379,0.49746 6.24448,1.49239c1.80659,0.99493 3.22042,2.35641 4.24153,4.08444c1.02111,1.70186 1.53167,3.6917 1.53167,5.96956c0,2.12076 -0.51056,4.01899 -1.53167,5.69465c-1.02111,1.64948 -2.43496,2.94551 -4.24153,3.88807c-1.80659,0.94256 -3.88807,1.41384 -6.24448,1.41384h-5.96956v11.66422c0,0.68075 -0.23564,1.25675 -0.70692,1.72803c-0.4451,0.47128 -1.03421,0.70692 -1.76731,0.70692zM241.36023,196.45135c-0.4451,0 -0.85093,-0.09164 -1.21748,-0.27491c-0.34037,-0.18327 -0.64147,-0.48438 -0.90328,-0.90328l-8.44379,-13.58861l4.75208,-1.37456l7.69759,12.37113c0.54983,0.91638 0.61528,1.78041 0.19637,2.59204c-0.39273,0.78548 -1.08656,1.1782 -2.08149,1.1782zM224.35481,177.83574h5.96956c1.44003,0 2.70987,-0.27491 3.80952,-0.82474c1.09965,-0.54983 1.96367,-1.30912 2.59204,-2.27787c0.62837,-0.99493 0.94256,-2.12076 0.94256,-3.37752c0,-1.36147 -0.31419,-2.57895 -0.94256,-3.65243c-0.62837,-1.07347 -1.49239,-1.89822 -2.59204,-2.47422c-1.09965,-0.6022 -2.36951,-0.90328 -3.80952,-0.90328h-5.96956zM251.51655,196.45135c-0.68075,0 -1.25675,-0.23564 -1.72803,-0.70692c-0.47128,-0.47128 -0.70692,-1.04729 -0.70692,-1.72803v-31.73294c0,-0.7331 0.23564,-1.32221 0.70692,-1.76731c0.47128,-0.47128 1.04729,-0.70692 1.72803,-0.70692c0.94256,0 1.66258,0.4451 2.16004,1.3353l14.68827,29.41581h-1.49239l14.29553,-29.41581c0.49746,-0.89019 1.21748,-1.3353 2.16004,-1.3353c0.68075,0 1.25675,0.23564 1.72803,0.70692c0.47128,0.4451 0.70692,1.03421 0.70692,1.76731v31.73294c0,0.68075 -0.24873,1.25675 -0.7462,1.72803c-0.47128,0.47128 -1.03421,0.70692 -1.68876,0.70692c-0.68075,0 -1.25675,-0.23564 -1.72803,-0.70692c-0.47128,-0.47128 -0.70692,-1.04729 -0.70692,-1.72803v-24.97791l0.94256,-0.23564l-12.29259,25.01718c-0.52365,0.81165 -1.23058,1.21748 -2.12076,1.21748c-1.02111,0 -1.76731,-0.48438 -2.23859,-1.45311l-12.13549,-24.34954l0.94256,-0.19637v24.97791c0,0.68075 -0.23564,1.25675 -0.70692,1.72803c-0.47128,0.47128 -1.06039,0.70692 -1.76731,0.70692zM293.6769,196.45135c-0.86402,0 -1.53167,-0.36655 -2.00294,-1.09965c-0.47128,-0.75929 -0.52365,-1.57094 -0.15709,-2.43496l13.19588,-31.45803c0.47128,-1.09965 1.23058,-1.64948 2.27787,-1.64948c1.12583,0 1.89822,0.54983 2.31713,1.64948l13.23515,31.57584c0.34037,0.86402 0.27491,1.64948 -0.19637,2.35641c-0.4451,0.70692 -1.11275,1.06039 -2.00294,1.06039c-0.47128,0 -0.92946,-0.13092 -1.37456,-0.39273c-0.41891,-0.26182 -0.72002,-0.62837 -0.90328,-1.09965l-11.62494,-28.90525h1.3353l-11.8213,28.90525c-0.23564,0.49746 -0.56293,0.87711 -0.98183,1.13893c-0.41891,0.23564 -0.85093,0.35346 -1.29603,0.35346zM296.1904,188.40028l1.84585,-4.04516h18.37997l1.88513,4.04516zM330.49115,196.45135c-0.68075,0 -1.25675,-0.23564 -1.72803,-0.70692c-0.4451,-0.47128 -0.66765,-1.04729 -0.66765,-1.72803v-31.73294c0,-0.70692 0.23564,-1.29603 0.70692,-1.76731c0.47128,-0.47128 1.03421,-0.70692 1.68876,-0.70692c0.70692,0 1.28293,0.23564 1.72803,0.70692c0.47128,0.47128 0.70692,1.06039 0.70692,1.76731v29.29799h17.0054c0.68075,0 1.25675,0.23564 1.72803,0.70692c0.47128,0.47128 0.70692,1.04729 0.70692,1.72803c0,0.68075 -0.23564,1.25675 -0.70692,1.72803c-0.47128,0.47128 -1.04729,0.70692 -1.72803,0.70692z" fill="#8b4fff" stroke="#28123b" stroke-width="9"/><path d="M139.73252,196.45135c-0.68075,0 -1.25675,-0.23564 -1.72803,-0.70692c-0.4451,-0.47128 -0.66765,-1.04729 -0.66765,-1.72803v-31.73294c0,-0.7331 0.22255,-1.32221 0.66765,-1.76731c0.47128,-0.47128 1.04729,-0.70691 1.72803,-0.70691c0.7593,0 1.38766,0.3011 1.88512,0.90328l20.46147,27.21649v-25.64555c0,-0.7331 0.22255,-1.32221 0.66765,-1.76731c0.47128,-0.47128 1.06039,-0.70691 1.76731,-0.70691c0.70691,0 1.28292,0.23563 1.72802,0.70691c0.4451,0.4451 0.66765,1.03421 0.66765,1.76731v31.73294c0,0.68075 -0.22255,1.25675 -0.66765,1.72803c-0.4451,0.47128 -1.02111,0.70692 -1.72802,0.70692c-0.31419,0 -0.65456,-0.06545 -1.02111,-0.19637c-0.36655,-0.15708 -0.65455,-0.36655 -0.86402,-0.62837l-20.46147,-27.21649v25.60629c0,0.68075 -0.22254,1.25675 -0.66764,1.72803c-0.4451,0.47128 -1.03421,0.70692 -1.76731,0.70692zM193.18444,196.92263c-2.74914,0 -5.26263,-0.45818 -7.5405,-1.37457c-2.27787,-0.94257 -4.24153,-2.23859 -5.89102,-3.88807c-1.62331,-1.67566 -2.89314,-3.66553 -3.80952,-5.96956c-0.91638,-2.30404 -1.37456,-4.83063 -1.37456,-7.57977c0,-2.74914 0.45818,-5.26263 1.37456,-7.5405c0.91638,-2.27787 2.18621,-4.25462 3.80952,-5.93029c1.64948,-1.67566 3.61315,-2.97169 5.89102,-3.88806c2.27787,-0.91638 4.79135,-1.37457 7.5405,-1.37457c2.77532,0 5.28882,0.45818 7.54051,1.37457c2.27787,0.91638 4.24153,2.2124 5.89102,3.88806c1.64948,1.67566 2.91934,3.65243 3.80952,5.93029c0.91638,2.27787 1.37457,4.79135 1.37457,7.5405c0,2.74914 -0.45818,5.27574 -1.37457,7.57977c-0.89019,2.30404 -2.16004,4.2939 -3.80952,5.96956c-1.64948,1.64948 -3.61315,2.9455 -5.89102,3.88807c-2.25168,0.91638 -4.76518,1.37457 -7.54051,1.37457zM193.18444,192.524c2.04222,0 3.91425,-0.36655 5.61611,-1.09965c1.70186,-0.7331 3.18115,-1.75421 4.4379,-3.06332c1.25675,-1.30912 2.21241,-2.82768 2.86696,-4.55571c0.68074,-1.75421 1.02111,-3.65243 1.02111,-5.69465c0,-2.01604 -0.34037,-3.90116 -1.02111,-5.65538c-0.65455,-1.75421 -1.61021,-3.27279 -2.86696,-4.55571c-1.25675,-1.30912 -2.73605,-2.31713 -4.4379,-3.02405c-1.70186,-0.7331 -3.57388,-1.09965 -5.61611,-1.09965c-2.01604,0 -3.87497,0.36655 -5.57683,1.09965c-1.70185,0.70691 -3.18115,1.71494 -4.4379,3.02405c-1.23058,1.28293 -2.18621,2.80151 -2.86696,4.55571c-0.68075,1.75421 -1.02111,3.63934 -1.02111,5.65538c0,2.04222 0.34037,3.94045 1.02111,5.69465c0.68075,1.72803 1.63638,3.2466 2.86696,4.55571c1.25674,1.30912 2.73606,2.33022 4.4379,3.06332c1.70186,0.7331 3.56079,1.09965 5.57683,1.09965zM221.88059,196.45135c-0.68074,0 -1.25675,-0.23564 -1.72803,-0.70692c-0.47128,-0.47128 -0.70691,-1.04729 -0.70691,-1.72803v-31.73294c0,-0.7331 0.23563,-1.32221 0.70691,-1.76731c0.47128,-0.47128 1.0473,-0.70691 1.72803,-0.70691h8.44379c2.35641,0 4.4379,0.49746 6.24447,1.49239c1.80658,0.99493 3.22043,2.35641 4.24153,4.08444c1.02111,1.70185 1.53167,3.6917 1.53167,5.96956c0,2.12076 -0.51056,4.01898 -1.53167,5.69465c-1.02111,1.64948 -2.43496,2.9455 -4.24153,3.88807c-1.80658,0.94257 -3.88807,1.41385 -6.24447,1.41385h-5.96956v11.66421c0,0.68075 -0.23563,1.25675 -0.70691,1.72803c-0.4451,0.47128 -1.03421,0.70692 -1.76731,0.70692zM241.36023,196.45135c-0.4451,0 -0.85093,-0.09164 -1.21748,-0.27491c-0.34037,-0.18327 -0.64147,-0.48438 -0.90328,-0.90329l-8.44379,-13.58861l4.75209,-1.37457l7.69759,12.37113c0.54983,0.91638 0.61528,1.78041 0.19637,2.59204c-0.39273,0.78548 -1.08656,1.1782 -2.08149,1.1782zM224.35481,177.83573h5.96956c1.44002,0 2.70987,-0.27492 3.80952,-0.82475c1.09965,-0.54983 1.96368,-1.30912 2.59205,-2.27787c0.62837,-0.99493 0.94256,-2.12076 0.94256,-3.37752c0,-1.36147 -0.31419,-2.57895 -0.94256,-3.65243c-0.62837,-1.07347 -1.4924,-1.89823 -2.59205,-2.47422c-1.09965,-0.6022 -2.3695,-0.90328 -3.80952,-0.90328h-5.96956zM251.51654,196.45135c-0.68074,0 -1.25675,-0.23564 -1.72803,-0.70692c-0.47128,-0.47128 -0.70692,-1.04729 -0.70692,-1.72803v-31.73294c0,-0.7331 0.23563,-1.32221 0.70692,-1.76731c0.47128,-0.47128 1.04729,-0.70691 1.72803,-0.70691c0.94257,0 1.66257,0.4451 2.16004,1.3353l14.68827,29.41582h-1.4924l14.29553,-29.41582c0.49747,-0.89019 1.21747,-1.3353 2.16004,-1.3353c0.68074,0 1.25675,0.23563 1.72803,0.70691c0.47128,0.4451 0.70691,1.03421 0.70691,1.76731v31.73294c0,0.68075 -0.24873,1.25675 -0.7462,1.72803c-0.47128,0.47128 -1.03421,0.70692 -1.68876,0.70692c-0.68074,0 -1.25674,-0.23564 -1.72803,-0.70692c-0.47128,-0.47128 -0.70692,-1.04729 -0.70692,-1.72803v-24.9779l0.94257,-0.23564l-12.29259,25.01719c-0.52365,0.81164 -1.23058,1.21748 -2.12076,1.21748c-1.02111,0 -1.76731,-0.48438 -2.23859,-1.45312l-12.13549,-24.34953l0.94256,-0.19637v24.9779c0,0.68075 -0.23563,1.25675 -0.70692,1.72803c-0.47128,0.47128 -1.06039,0.70692 -1.76731,0.70692zM293.6769,196.45135c-0.86402,0 -1.53168,-0.36655 -2.00295,-1.09965c-0.47128,-0.75929 -0.52364,-1.57094 -0.15708,-2.43496l13.19588,-31.45803c0.47128,-1.09965 1.23057,-1.64948 2.27786,-1.64948c1.12583,0 1.89822,0.54983 2.31713,1.64948l13.23515,31.57584c0.34037,0.86402 0.27491,1.64948 -0.19637,2.3564c-0.4451,0.70691 -1.11275,1.06039 -2.00294,1.06039c-0.47128,0 -0.92947,-0.13092 -1.37457,-0.39273c-0.41891,-0.26181 -0.72002,-0.62837 -0.90329,-1.09965l-11.62494,-28.90525h1.3353l-11.8213,28.90525c-0.23563,0.49747 -0.56293,0.87712 -0.98183,1.13893c-0.41891,0.23563 -0.85092,0.35346 -1.29602,0.35346zM296.1904,188.40028l1.84585,-4.04516h18.37996l1.88512,4.04516zM330.49115,196.45135c-0.68074,0 -1.25674,-0.23564 -1.72803,-0.70692c-0.4451,-0.47128 -0.66765,-1.04729 -0.66765,-1.72803v-31.73294c0,-0.70691 0.23564,-1.29603 0.70692,-1.76731c0.47128,-0.47128 1.03421,-0.70691 1.68876,-0.70691c0.70691,0 1.28293,0.23563 1.72803,0.70691c0.47128,0.47128 0.70692,1.06039 0.70692,1.76731v29.29798h17.0054c0.68074,0 1.25675,0.23564 1.72803,0.70692c0.47128,0.47128 0.70692,1.04729 0.70692,1.72802c0,0.68075 -0.23564,1.25675 -0.70692,1.72803c-0.47128,0.47128 -1.04729,0.70692 -1.72803,0.70692z" fill="#a97fff" stroke="none" stroke-width="1"/></g></g></g></svg>