<svg version="1.1" xmlns="http://www.w3.org/2000/svg" xmlns:xlink="http://www.w3.org/1999/xlink" width="10.49266" height="8.23116" viewBox="0,0,10.49266,8.23116"><g transform="translate(-233.62292,-175.88442)"><g data-paper-data="{&quot;isPaintingLayer&quot;:true}" fill-rule="nonzero" stroke-linecap="butt" stroke-linejoin="miter" stroke-miterlimit="10" stroke-dasharray="" stroke-dashoffset="0" style="mix-blend-mode: normal"><path d="M236.38442,180c0,-1.99682 1.61876,-3.61558 3.61558,-3.61558c1.99682,0 3.61558,1.61876 3.61558,3.61558c0,1.99682 -1.61874,3.61558 -3.61558,3.61558c-1.99682,0 -3.61558,-1.61874 -3.61558,-3.61558z" fill="none" stroke="#673bbf" stroke-width="1"/><path d="M236.675,180c0,-1.83635 1.48865,-3.325 3.325,-3.325c1.83635,0 3.325,1.48865 3.325,3.325c0,1.83635 -1.48865,3.325 -3.325,3.325c-1.83635,0 -3.325,-1.48865 -3.325,-3.325z" fill="#673bbf" stroke="none" stroke-width="none"/><ellipse cx="467.24583" cy="356.18333" transform="scale(0.5,0.5)" rx="0" ry="0" fill="#673bbf" stroke="none" stroke-width="0"/></g></g></svg>