<svg version="1.1" xmlns="http://www.w3.org/2000/svg" xmlns:xlink="http://www.w3.org/1999/xlink" width="8.00605" height="8.00605" viewBox="0,0,8.00605,8.00605"><g transform="translate(-235.99698,-175.99698)"><g data-paper-data="{&quot;isPaintingLayer&quot;:true}" fill-rule="nonzero" stroke-width="0" stroke-linecap="butt" stroke-linejoin="miter" stroke-miterlimit="10" stroke-dasharray="" stroke-dashoffset="0" style="mix-blend-mode: normal"><path d="M237.44437,183.08093c-1.70156,-1.41143 -1.93673,-3.935 -0.5253,-5.63656c1.41143,-1.70156 3.935,-1.93673 5.63656,-0.5253c1.70156,1.41143 1.93673,3.935 0.5253,5.63656c-1.41143,1.70156 -3.935,1.93673 -5.63656,0.5253z" fill="#28123b" stroke="none"/><g stroke="#000000"><g data-paper-data="{&quot;index&quot;:null}"><path d="M237.80186,182.27991c-0.17993,-0.17422 -0.00173,-0.01303 -0.00173,-0.01303l4.37621,-4.5464c0,0 -0.0982,-0.08871 0.01759,0.02341c1.25258,1.21283 1.2848,3.21145 0.07197,4.46404c-1.21283,1.25258 -3.21145,1.2848 -4.46404,0.07197z" fill="#57a0ff"/><path d="M237.81915,182.28526c0,0 0.16685,0.17291 -0.01308,-0.0013c-1.25258,-1.21283 -1.2848,-3.21145 -0.07197,-4.46404c1.21283,-1.25258 3.21145,-1.2848 4.46404,-0.07197c0.11579,0.11211 0.02396,0.01682 0.02396,0.01682l-4.40296,4.5205z" data-paper-data="{&quot;index&quot;:null}" fill="#ff647e"/></g><path d="M239.85059,180.10319l2.32568,-2.41613c0,0 -0.09821,-0.08871 0.01759,0.02341c1.25258,1.21283 1.28481,3.21145 0.07197,4.46404c-0.08205,0.08475 -0.10473,0.10407 -0.10473,0.10407z" data-paper-data="{&quot;index&quot;:null}" fill="#75b1ff"/><path d="M237.65511,177.9018c0,0 0.01857,-0.0233 0.10056,-0.1081c1.21195,-1.25346 3.21054,-1.2871 4.46399,-0.07516c0.11587,0.11204 0.02398,0.01681 0.02398,0.01681l-2.33819,2.40403z" data-paper-data="{&quot;index&quot;:null}" fill="#ff8fa2"/></g></g></g></svg>