<svg version="1.1" xmlns="http://www.w3.org/2000/svg" xmlns:xlink="http://www.w3.org/1999/xlink" width="135.34255" height="167.04014" viewBox="0,0,135.34255,167.04014"><defs><linearGradient x1="240" y1="173.76454" x2="240" y2="188.70213" gradientUnits="userSpaceOnUse" id="color-1"><stop offset="0" stop-color="#000000"/><stop offset="1" stop-color="#000000" stop-opacity="0"/></linearGradient><linearGradient x1="240" y1="173.76454" x2="240" y2="188.70213" gradientUnits="userSpaceOnUse" id="color-2"><stop offset="0" stop-color="#000000"/><stop offset="1" stop-color="#000000" stop-opacity="0"/></linearGradient></defs><g transform="translate(-172.50736,-169.29787)"><g data-paper-data="{&quot;isPaintingLayer&quot;:true}" fill-rule="nonzero" stroke-linejoin="miter" stroke-miterlimit="10" stroke-dasharray="" stroke-dashoffset="0" style="mix-blend-mode: normal"><path d="M298.54911,186.64887v86.83783" fill="none" stroke="#8b4fff" stroke-width="1" stroke-linecap="round"/><path d="M180.68354,185.9413v86.83783" fill="none" stroke="#8b4fff" stroke-width="1" stroke-linecap="round"/><path d="M179.58759,188.70203c-0.80208,0 -1.5625,-0.125 -2.28125,-0.375c-0.71875,-0.25 -1.34896,-0.59896 -1.89062,-1.04687c-0.53125,-0.44792 -0.92187,-0.96354 -1.17187,-1.54687c-0.125,-0.26042 -0.125,-0.5 0,-0.71875c0.13542,-0.22917 0.35938,-0.375 0.67188,-0.4375c0.22917,-0.05208 0.44792,-0.01562 0.65625,0.10938c0.21875,0.11458 0.38542,0.29167 0.5,0.53125c0.14583,0.3125 0.39063,0.59896 0.73438,0.85938c0.34375,0.26042 0.75521,0.47396 1.23438,0.64063c0.48958,0.15625 1.00521,0.23438 1.54688,0.23438c0.59375,0 1.14063,-0.09375 1.64063,-0.28125c0.51042,-0.1875 0.91667,-0.45833 1.21875,-0.8125c0.3125,-0.35417 0.46875,-0.79167 0.46875,-1.3125c0,-0.66667 -0.26042,-1.26042 -0.78125,-1.78125c-0.51042,-0.52083 -1.35417,-0.84375 -2.53125,-0.96875c-1.54167,-0.14583 -2.75521,-0.59896 -3.64062,-1.35937c-0.88542,-0.76042 -1.32812,-1.69792 -1.32812,-2.8125c0,-0.82292 0.22917,-1.52083 0.6875,-2.09375c0.45833,-0.57292 1.08333,-1.00521 1.875,-1.29687c0.79167,-0.30208 1.67188,-0.45312 2.64063,-0.45312c0.76042,0 1.42188,0.10417 1.98438,0.3125c0.57292,0.20833 1.06771,0.5 1.48438,0.875c0.42708,0.375 0.79688,0.81771 1.10938,1.32813c0.16667,0.27083 0.23438,0.53125 0.20313,0.78125c-0.02083,0.23958 -0.14062,0.42708 -0.35937,0.5625c-0.22917,0.14583 -0.48437,0.17708 -0.76562,0.09375c-0.27083,-0.08333 -0.47396,-0.24479 -0.60937,-0.48437c-0.19792,-0.36458 -0.44271,-0.67187 -0.73437,-0.92187c-0.28125,-0.25 -0.61458,-0.44271 -1,-0.57812c-0.38542,-0.14583 -0.83854,-0.21875 -1.35937,-0.21875c-0.92708,-0.01042 -1.70312,0.16146 -2.32812,0.51563c-0.61458,0.35417 -0.92187,0.89583 -0.92187,1.625c0,0.375 0.09375,0.73438 0.28125,1.07813c0.19792,0.34375 0.55208,0.64063 1.0625,0.89063c0.52083,0.25 1.26563,0.42188 2.23438,0.51563c1.47917,0.14583 2.63021,0.59896 3.45313,1.35938c0.83333,0.75 1.25,1.73958 1.25,2.96875c0,0.70833 -0.14583,1.32292 -0.4375,1.84375c-0.29167,0.52083 -0.68229,0.96354 -1.17187,1.32813c-0.48958,0.35417 -1.05208,0.61979 -1.6875,0.79688c-0.625,0.16667 -1.27083,0.25 -1.9375,0.25zM188.75122,188.51453c-0.27083,0 -0.5,-0.09375 -0.6875,-0.28125c-0.1875,-0.1875 -0.28125,-0.41667 -0.28125,-0.6875v-12.625c0,-0.29167 0.09375,-0.52604 0.28125,-0.70312c0.1875,-0.1875 0.41667,-0.28125 0.6875,-0.28125h8.4375c0.29167,0 0.52083,0.08854 0.6875,0.26563c0.17708,0.16667 0.26563,0.38542 0.26563,0.65625c0,0.26042 -0.08854,0.47396 -0.26562,0.64063c-0.16667,0.15625 -0.39583,0.23438 -0.6875,0.23438h-7.45312v4.53125h5.34375c0.29167,0 0.52083,0.08333 0.6875,0.25c0.17708,0.16667 0.26563,0.38542 0.26563,0.65625c0,0.26042 -0.08854,0.47396 -0.26562,0.64063c-0.16667,0.16667 -0.39583,0.25 -0.6875,0.25h-5.34375v4.65625h7.45313c0.29167,0 0.52083,0.08333 0.6875,0.25c0.17708,0.15625 0.26563,0.36458 0.26563,0.625c0,0.28125 -0.08854,0.50521 -0.26562,0.67188c-0.16667,0.16667 -0.39583,0.25 -0.6875,0.25zM201.79499,188.51453c-0.27083,0 -0.5,-0.09375 -0.6875,-0.28125c-0.17708,-0.1875 -0.26562,-0.41667 -0.26562,-0.6875v-12.625c0,-0.28125 0.09375,-0.51562 0.28125,-0.70312c0.1875,-0.1875 0.41146,-0.28125 0.67188,-0.28125c0.28125,0 0.51042,0.09375 0.6875,0.28125c0.1875,0.1875 0.28125,0.42188 0.28125,0.70313v11.65625h6.76563c0.27083,0 0.5,0.09375 0.6875,0.28125c0.1875,0.1875 0.28125,0.41667 0.28125,0.6875c0,0.27083 -0.09375,0.5 -0.28125,0.6875c-0.1875,0.1875 -0.41667,0.28125 -0.6875,0.28125zM213.78791,188.51453c-0.27083,0 -0.5,-0.09375 -0.6875,-0.28125c-0.1875,-0.1875 -0.28125,-0.41667 -0.28125,-0.6875v-12.625c0,-0.29167 0.09375,-0.52604 0.28125,-0.70312c0.1875,-0.1875 0.41667,-0.28125 0.6875,-0.28125h8.4375c0.29167,0 0.52083,0.08854 0.6875,0.26563c0.17708,0.16667 0.26563,0.38542 0.26563,0.65625c0,0.26042 -0.08854,0.47396 -0.26562,0.64063c-0.16667,0.15625 -0.39583,0.23438 -0.6875,0.23438h-7.45312v4.53125h5.34375c0.29167,0 0.52083,0.08333 0.6875,0.25c0.17708,0.16667 0.26563,0.38542 0.26563,0.65625c0,0.26042 -0.08854,0.47396 -0.26562,0.64063c-0.16667,0.16667 -0.39583,0.25 -0.6875,0.25h-5.34375v4.65625h7.45313c0.29167,0 0.52083,0.08333 0.6875,0.25c0.17708,0.15625 0.26563,0.36458 0.26563,0.625c0,0.28125 -0.08854,0.50521 -0.26562,0.67188c-0.16667,0.16667 -0.39583,0.25 -0.6875,0.25zM232.40978,188.70203c-1,0 -1.94271,-0.1875 -2.82812,-0.5625c-0.875,-0.38542 -1.64062,-0.91667 -2.29687,-1.59375c-0.64583,-0.67708 -1.15625,-1.46875 -1.53125,-2.375c-0.36458,-0.90625 -0.54687,-1.89062 -0.54687,-2.95312c0,-1.04167 0.18229,-2.01042 0.54688,-2.90625c0.375,-0.90625 0.88542,-1.69792 1.53125,-2.375c0.65625,-0.67708 1.41667,-1.20833 2.28125,-1.59375c0.875,-0.38542 1.82292,-0.57812 2.84375,-0.57812c0.95833,0 1.78125,0.125 2.46875,0.375c0.69792,0.23958 1.39583,0.64583 2.09375,1.21875c0.09375,0.07292 0.16667,0.15104 0.21875,0.23438c0.0625,0.08333 0.10417,0.16667 0.125,0.25c0.02083,0.07292 0.03125,0.16667 0.03125,0.28125c0,0.23958 -0.08854,0.4375 -0.26562,0.59375c-0.16667,0.15625 -0.36979,0.24479 -0.60937,0.26563c-0.22917,0.01042 -0.45833,-0.06771 -0.6875,-0.23437c-0.45833,-0.40625 -0.93229,-0.71354 -1.42187,-0.92187c-0.48958,-0.20833 -1.14062,-0.3125 -1.95312,-0.3125c-0.72917,0 -1.41667,0.15104 -2.0625,0.45313c-0.64583,0.29167 -1.21875,0.69792 -1.71875,1.21875c-0.48958,0.52083 -0.86979,1.13021 -1.14062,1.82813c-0.27083,0.6875 -0.40625,1.42188 -0.40625,2.20313c0,0.80208 0.13542,1.54688 0.40625,2.23438c0.27083,0.6875 0.65104,1.29167 1.14063,1.8125c0.5,0.52083 1.07292,0.93229 1.71875,1.23438c0.64583,0.29167 1.33333,0.4375 2.0625,0.4375c0.63542,0 1.23438,-0.10937 1.79688,-0.32812c0.57292,-0.21875 1.11979,-0.52083 1.64063,-0.90625c0.21875,-0.16667 0.4375,-0.23958 0.65625,-0.21875c0.21875,0.02083 0.40104,0.10938 0.54688,0.26563c0.15625,0.15625 0.23438,0.36979 0.23438,0.64063c0,0.125 -0.02604,0.25 -0.07812,0.375c-0.05208,0.11458 -0.125,0.21875 -0.21875,0.3125c-0.67708,0.53125 -1.40104,0.9375 -2.17187,1.21875c-0.76042,0.27083 -1.5625,0.40625 -2.40625,0.40625zM244.68696,188.51453c-0.27083,0 -0.5,-0.09375 -0.6875,-0.28125c-0.1875,-0.1875 -0.28125,-0.41667 -0.28125,-0.6875v-13.60937h1.9375v13.60938c0,0.27083 -0.09375,0.5 -0.28125,0.6875c-0.1875,0.1875 -0.41667,0.28125 -0.6875,0.28125zM239.68696,175.73328c-0.26042,0 -0.47396,-0.08333 -0.64062,-0.25c-0.16667,-0.16667 -0.25,-0.38021 -0.25,-0.64062c0,-0.26042 0.08333,-0.47396 0.25,-0.64062c0.16667,-0.17708 0.38021,-0.26562 0.64063,-0.26562h9.98438c0.26042,0 0.47396,0.08854 0.64063,0.26563c0.16667,0.16667 0.25,0.38021 0.25,0.64063c0,0.26042 -0.08333,0.47396 -0.25,0.64063c-0.16667,0.16667 -0.38021,0.25 -0.64062,0.25zM259.14128,188.51453c-0.27083,0 -0.5,-0.09375 -0.6875,-0.28125c-0.1875,-0.1875 -0.28125,-0.41667 -0.28125,-0.6875v-12.625c0,-0.29167 0.09375,-0.52604 0.28125,-0.70312c0.1875,-0.1875 0.41667,-0.28125 0.6875,-0.28125h4.46875c0.84375,0 1.58333,0.16667 2.21875,0.5c0.64583,0.33333 1.15104,0.79167 1.51563,1.375c0.36458,0.58333 0.54688,1.25521 0.54688,2.01563c0,0.60417 -0.16667,1.15625 -0.5,1.65625c-0.32292,0.48958 -0.77083,0.875 -1.34375,1.15625c0.82292,0.19792 1.48438,0.58854 1.98438,1.17188c0.5,0.58333 0.75,1.34896 0.75,2.29688c0,0.86458 -0.20312,1.625 -0.60937,2.28125c-0.40625,0.65625 -0.97396,1.17708 -1.70312,1.5625c-0.71875,0.375 -1.54167,0.5625 -2.46875,0.5625zM260.12566,186.71766h3.875c0.57292,0 1.07292,-0.09896 1.5,-0.29687c0.4375,-0.19792 0.78125,-0.48958 1.03125,-0.875c0.25,-0.38542 0.375,-0.86458 0.375,-1.4375c0,-0.53125 -0.125,-0.96875 -0.375,-1.3125c-0.25,-0.35417 -0.59375,-0.61979 -1.03125,-0.79687c-0.42708,-0.1875 -0.92708,-0.28125 -1.5,-0.28125h-3.875zM260.12566,179.93641h3.48438c0.70833,0 1.28646,-0.17187 1.73438,-0.51562c0.45833,-0.35417 0.6875,-0.88542 0.6875,-1.59375c0,-0.70833 -0.22917,-1.23437 -0.6875,-1.57812c-0.44792,-0.34375 -1.02604,-0.51562 -1.73437,-0.51562h-3.48437zM270.52287,188.51453c-0.34375,0 -0.60937,-0.14583 -0.79687,-0.4375c-0.1875,-0.30208 -0.20833,-0.625 -0.0625,-0.96875l5.25,-12.51562c0.1875,-0.4375 0.48958,-0.65625 0.90625,-0.65625c0.44792,0 0.75521,0.21875 0.92188,0.65625l5.26563,12.5625c0.13542,0.34375 0.10938,0.65625 -0.07812,0.9375c-0.17708,0.28125 -0.44271,0.42188 -0.79687,0.42188c-0.1875,0 -0.36979,-0.05208 -0.54687,-0.15625c-0.16667,-0.10417 -0.28646,-0.25 -0.35937,-0.4375l-4.625,-11.5h0.53125l-4.70312,11.5c-0.09375,0.19792 -0.22396,0.34896 -0.39062,0.45313c-0.16667,0.09375 -0.33854,0.14063 -0.51562,0.14063zM271.52287,185.31141l0.73438,-1.60937h7.3125l0.75,1.60938zM285.16944,188.51453c-0.27083,0 -0.5,-0.09375 -0.6875,-0.28125c-0.17708,-0.1875 -0.26562,-0.41667 -0.26562,-0.6875v-12.625c0,-0.28125 0.09375,-0.51562 0.28125,-0.70312c0.1875,-0.1875 0.41146,-0.28125 0.67188,-0.28125c0.28125,0 0.51042,0.09375 0.6875,0.28125c0.1875,0.1875 0.28125,0.42188 0.28125,0.70313v11.65625h6.76563c0.27083,0 0.5,0.09375 0.6875,0.28125c0.1875,0.1875 0.28125,0.41667 0.28125,0.6875c0,0.27083 -0.09375,0.5 -0.28125,0.6875c-0.1875,0.1875 -0.41667,0.28125 -0.6875,0.28125zM297.14677,188.51453c-0.27083,0 -0.5,-0.09375 -0.6875,-0.28125c-0.17708,-0.1875 -0.26562,-0.41667 -0.26562,-0.6875v-12.625c0,-0.28125 0.09375,-0.51562 0.28125,-0.70312c0.1875,-0.1875 0.41146,-0.28125 0.67188,-0.28125c0.28125,0 0.51042,0.09375 0.6875,0.28125c0.1875,0.1875 0.28125,0.42188 0.28125,0.70313v11.65625h6.76563c0.27083,0 0.5,0.09375 0.6875,0.28125c0.1875,0.1875 0.28125,0.41667 0.28125,0.6875c0,0.27083 -0.09375,0.5 -0.28125,0.6875c-0.1875,0.1875 -0.41667,0.28125 -0.6875,0.28125z" fill="url(#color-1)" stroke="url(#color-2)" stroke-width="4" stroke-linecap="square"/><path d="M179.5876,186.23536c-0.80208,0 -1.5625,-0.125 -2.28125,-0.375c-0.71875,-0.25 -1.34896,-0.59896 -1.89062,-1.04687c-0.53125,-0.44792 -0.92187,-0.96354 -1.17187,-1.54687c-0.125,-0.26042 -0.125,-0.5 0,-0.71875c0.13542,-0.22917 0.35938,-0.375 0.67188,-0.4375c0.22917,-0.05208 0.44792,-0.01562 0.65625,0.10938c0.21875,0.11458 0.38542,0.29167 0.5,0.53125c0.14583,0.3125 0.39063,0.59896 0.73438,0.85938c0.34375,0.26042 0.75521,0.47396 1.23438,0.64063c0.48958,0.15625 1.00521,0.23438 1.54688,0.23438c0.59375,0 1.14063,-0.09375 1.64063,-0.28125c0.51042,-0.1875 0.91667,-0.45833 1.21875,-0.8125c0.3125,-0.35417 0.46875,-0.79167 0.46875,-1.3125c0,-0.66667 -0.26042,-1.26042 -0.78125,-1.78125c-0.51042,-0.52083 -1.35417,-0.84375 -2.53125,-0.96875c-1.54167,-0.14583 -2.75521,-0.59896 -3.64062,-1.35937c-0.88542,-0.76042 -1.32812,-1.69792 -1.32812,-2.8125c0,-0.82292 0.22917,-1.52083 0.6875,-2.09375c0.45833,-0.57292 1.08333,-1.00521 1.875,-1.29687c0.79167,-0.30208 1.67188,-0.45312 2.64063,-0.45312c0.76042,0 1.42188,0.10417 1.98438,0.3125c0.57292,0.20833 1.06771,0.5 1.48438,0.875c0.42708,0.375 0.79688,0.81771 1.10938,1.32813c0.16667,0.27083 0.23438,0.53125 0.20313,0.78125c-0.02083,0.23958 -0.14062,0.42708 -0.35937,0.5625c-0.22917,0.14583 -0.48437,0.17708 -0.76562,0.09375c-0.27083,-0.08333 -0.47396,-0.24479 -0.60937,-0.48437c-0.19792,-0.36458 -0.44271,-0.67187 -0.73437,-0.92187c-0.28125,-0.25 -0.61458,-0.44271 -1,-0.57812c-0.38542,-0.14583 -0.83854,-0.21875 -1.35937,-0.21875c-0.92708,-0.01042 -1.70312,0.16146 -2.32812,0.51563c-0.61458,0.35417 -0.92187,0.89583 -0.92187,1.625c0,0.375 0.09375,0.73438 0.28125,1.07813c0.19792,0.34375 0.55208,0.64063 1.0625,0.89063c0.52083,0.25 1.26563,0.42188 2.23438,0.51563c1.47917,0.14583 2.63021,0.59896 3.45313,1.35938c0.83333,0.75 1.25,1.73958 1.25,2.96875c0,0.70833 -0.14583,1.32292 -0.4375,1.84375c-0.29167,0.52083 -0.68229,0.96354 -1.17187,1.32813c-0.48958,0.35417 -1.05208,0.61979 -1.6875,0.79688c-0.625,0.16667 -1.27083,0.25 -1.9375,0.25zM188.75124,186.04786c-0.27083,0 -0.5,-0.09375 -0.6875,-0.28125c-0.1875,-0.1875 -0.28125,-0.41667 -0.28125,-0.6875v-12.625c0,-0.29167 0.09375,-0.52604 0.28125,-0.70312c0.1875,-0.1875 0.41667,-0.28125 0.6875,-0.28125h8.4375c0.29167,0 0.52083,0.08854 0.6875,0.26563c0.17708,0.16667 0.26563,0.38542 0.26563,0.65625c0,0.26042 -0.08854,0.47396 -0.26562,0.64063c-0.16667,0.15625 -0.39583,0.23438 -0.6875,0.23438h-7.45312v4.53125h5.34375c0.29167,0 0.52083,0.08333 0.6875,0.25c0.17708,0.16667 0.26563,0.38542 0.26563,0.65625c0,0.26042 -0.08854,0.47396 -0.26562,0.64063c-0.16667,0.16667 -0.39583,0.25 -0.6875,0.25h-5.34375v4.65625h7.45313c0.29167,0 0.52083,0.08333 0.6875,0.25c0.17708,0.15625 0.26563,0.36458 0.26563,0.625c0,0.28125 -0.08854,0.50521 -0.26562,0.67188c-0.16667,0.16667 -0.39583,0.25 -0.6875,0.25zM201.79499,186.04786c-0.27083,0 -0.5,-0.09375 -0.6875,-0.28125c-0.17708,-0.1875 -0.26562,-0.41667 -0.26562,-0.6875v-12.625c0,-0.28125 0.09375,-0.51562 0.28125,-0.70312c0.1875,-0.1875 0.41146,-0.28125 0.67188,-0.28125c0.28125,0 0.51042,0.09375 0.6875,0.28125c0.1875,0.1875 0.28125,0.42188 0.28125,0.70313v11.65625h6.76563c0.27083,0 0.5,0.09375 0.6875,0.28125c0.1875,0.1875 0.28125,0.41667 0.28125,0.6875c0,0.27083 -0.09375,0.5 -0.28125,0.6875c-0.1875,0.1875 -0.41667,0.28125 -0.6875,0.28125zM213.78792,186.04786c-0.27083,0 -0.5,-0.09375 -0.6875,-0.28125c-0.1875,-0.1875 -0.28125,-0.41667 -0.28125,-0.6875v-12.625c0,-0.29167 0.09375,-0.52604 0.28125,-0.70312c0.1875,-0.1875 0.41667,-0.28125 0.6875,-0.28125h8.4375c0.29167,0 0.52083,0.08854 0.6875,0.26563c0.17708,0.16667 0.26563,0.38542 0.26563,0.65625c0,0.26042 -0.08854,0.47396 -0.26562,0.64063c-0.16667,0.15625 -0.39583,0.23438 -0.6875,0.23438h-7.45312v4.53125h5.34375c0.29167,0 0.52083,0.08333 0.6875,0.25c0.17708,0.16667 0.26563,0.38542 0.26563,0.65625c0,0.26042 -0.08854,0.47396 -0.26562,0.64063c-0.16667,0.16667 -0.39583,0.25 -0.6875,0.25h-5.34375v4.65625h7.45313c0.29167,0 0.52083,0.08333 0.6875,0.25c0.17708,0.15625 0.26563,0.36458 0.26563,0.625c0,0.28125 -0.08854,0.50521 -0.26562,0.67188c-0.16667,0.16667 -0.39583,0.25 -0.6875,0.25zM232.40979,186.23536c-1,0 -1.94271,-0.1875 -2.82812,-0.5625c-0.875,-0.38542 -1.64062,-0.91667 -2.29687,-1.59375c-0.64583,-0.67708 -1.15625,-1.46875 -1.53125,-2.375c-0.36458,-0.90625 -0.54687,-1.89062 -0.54687,-2.95312c0,-1.04167 0.18229,-2.01042 0.54688,-2.90625c0.375,-0.90625 0.88542,-1.69792 1.53125,-2.375c0.65625,-0.67708 1.41667,-1.20833 2.28125,-1.59375c0.875,-0.38542 1.82292,-0.57812 2.84375,-0.57812c0.95833,0 1.78125,0.125 2.46875,0.375c0.69792,0.23958 1.39583,0.64583 2.09375,1.21875c0.09375,0.07292 0.16667,0.15104 0.21875,0.23438c0.0625,0.08333 0.10417,0.16667 0.125,0.25c0.02083,0.07292 0.03125,0.16667 0.03125,0.28125c0,0.23958 -0.08854,0.4375 -0.26562,0.59375c-0.16667,0.15625 -0.36979,0.24479 -0.60937,0.26563c-0.22917,0.01042 -0.45833,-0.06771 -0.6875,-0.23437c-0.45833,-0.40625 -0.93229,-0.71354 -1.42187,-0.92187c-0.48958,-0.20833 -1.14062,-0.3125 -1.95312,-0.3125c-0.72917,0 -1.41667,0.15104 -2.0625,0.45313c-0.64583,0.29167 -1.21875,0.69792 -1.71875,1.21875c-0.48958,0.52083 -0.86979,1.13021 -1.14062,1.82813c-0.27083,0.6875 -0.40625,1.42188 -0.40625,2.20313c0,0.80208 0.13542,1.54688 0.40625,2.23438c0.27083,0.6875 0.65104,1.29167 1.14063,1.8125c0.5,0.52083 1.07292,0.93229 1.71875,1.23438c0.64583,0.29167 1.33333,0.4375 2.0625,0.4375c0.63542,0 1.23438,-0.10937 1.79688,-0.32812c0.57292,-0.21875 1.11979,-0.52083 1.64063,-0.90625c0.21875,-0.16667 0.4375,-0.23958 0.65625,-0.21875c0.21875,0.02083 0.40104,0.10938 0.54688,0.26563c0.15625,0.15625 0.23438,0.36979 0.23438,0.64063c0,0.125 -0.02604,0.25 -0.07812,0.375c-0.05208,0.11458 -0.125,0.21875 -0.21875,0.3125c-0.67708,0.53125 -1.40104,0.9375 -2.17187,1.21875c-0.76042,0.27083 -1.5625,0.40625 -2.40625,0.40625zM244.68697,186.04786c-0.27083,0 -0.5,-0.09375 -0.6875,-0.28125c-0.1875,-0.1875 -0.28125,-0.41667 -0.28125,-0.6875v-13.60937h1.9375v13.60938c0,0.27083 -0.09375,0.5 -0.28125,0.6875c-0.1875,0.1875 -0.41667,0.28125 -0.6875,0.28125zM239.68697,173.26661c-0.26042,0 -0.47396,-0.08333 -0.64062,-0.25c-0.16667,-0.16667 -0.25,-0.38021 -0.25,-0.64062c0,-0.26042 0.08333,-0.47396 0.25,-0.64062c0.16667,-0.17708 0.38021,-0.26562 0.64063,-0.26562h9.98438c0.26042,0 0.47396,0.08854 0.64063,0.26563c0.16667,0.16667 0.25,0.38021 0.25,0.64063c0,0.26042 -0.08333,0.47396 -0.25,0.64063c-0.16667,0.16667 -0.38021,0.25 -0.64062,0.25zM259.14128,186.04786c-0.27083,0 -0.5,-0.09375 -0.6875,-0.28125c-0.1875,-0.1875 -0.28125,-0.41667 -0.28125,-0.6875v-12.625c0,-0.29167 0.09375,-0.52604 0.28125,-0.70312c0.1875,-0.1875 0.41667,-0.28125 0.6875,-0.28125h4.46875c0.84375,0 1.58333,0.16667 2.21875,0.5c0.64583,0.33333 1.15104,0.79167 1.51563,1.375c0.36458,0.58333 0.54688,1.25521 0.54688,2.01563c0,0.60417 -0.16667,1.15625 -0.5,1.65625c-0.32292,0.48958 -0.77083,0.875 -1.34375,1.15625c0.82292,0.19792 1.48438,0.58854 1.98438,1.17188c0.5,0.58333 0.75,1.34896 0.75,2.29688c0,0.86458 -0.20312,1.625 -0.60937,2.28125c-0.40625,0.65625 -0.97396,1.17708 -1.70312,1.5625c-0.71875,0.375 -1.54167,0.5625 -2.46875,0.5625zM260.12566,184.251h3.875c0.57292,0 1.07292,-0.09896 1.5,-0.29687c0.4375,-0.19792 0.78125,-0.48958 1.03125,-0.875c0.25,-0.38542 0.375,-0.86458 0.375,-1.4375c0,-0.53125 -0.125,-0.96875 -0.375,-1.3125c-0.25,-0.35417 -0.59375,-0.61979 -1.03125,-0.79687c-0.42708,-0.1875 -0.92708,-0.28125 -1.5,-0.28125h-3.875zM260.12566,177.46975h3.48438c0.70833,0 1.28646,-0.17187 1.73438,-0.51562c0.45833,-0.35417 0.6875,-0.88542 0.6875,-1.59375c0,-0.70833 -0.22917,-1.23437 -0.6875,-1.57812c-0.44792,-0.34375 -1.02604,-0.51562 -1.73437,-0.51562h-3.48437zM270.52287,186.04786c-0.34375,0 -0.60937,-0.14583 -0.79687,-0.4375c-0.1875,-0.30208 -0.20833,-0.625 -0.0625,-0.96875l5.25,-12.51562c0.1875,-0.4375 0.48958,-0.65625 0.90625,-0.65625c0.44792,0 0.75521,0.21875 0.92188,0.65625l5.26563,12.5625c0.13542,0.34375 0.10938,0.65625 -0.07812,0.9375c-0.17708,0.28125 -0.44271,0.42188 -0.79687,0.42188c-0.1875,0 -0.36979,-0.05208 -0.54687,-0.15625c-0.16667,-0.10417 -0.28646,-0.25 -0.35937,-0.4375l-4.625,-11.5h0.53125l-4.70312,11.5c-0.09375,0.19792 -0.22396,0.34896 -0.39062,0.45313c-0.16667,0.09375 -0.33854,0.14063 -0.51562,0.14063zM271.52287,182.84475l0.73438,-1.60937h7.3125l0.75,1.60938zM285.16944,186.04786c-0.27083,0 -0.5,-0.09375 -0.6875,-0.28125c-0.17708,-0.1875 -0.26562,-0.41667 -0.26562,-0.6875v-12.625c0,-0.28125 0.09375,-0.51562 0.28125,-0.70312c0.1875,-0.1875 0.41146,-0.28125 0.67188,-0.28125c0.28125,0 0.51042,0.09375 0.6875,0.28125c0.1875,0.1875 0.28125,0.42188 0.28125,0.70313v11.65625h6.76563c0.27083,0 0.5,0.09375 0.6875,0.28125c0.1875,0.1875 0.28125,0.41667 0.28125,0.6875c0,0.27083 -0.09375,0.5 -0.28125,0.6875c-0.1875,0.1875 -0.41667,0.28125 -0.6875,0.28125zM297.14677,186.04786c-0.27083,0 -0.5,-0.09375 -0.6875,-0.28125c-0.17708,-0.1875 -0.26562,-0.41667 -0.26562,-0.6875v-12.625c0,-0.28125 0.09375,-0.51562 0.28125,-0.70312c0.1875,-0.1875 0.41146,-0.28125 0.67188,-0.28125c0.28125,0 0.51042,0.09375 0.6875,0.28125c0.1875,0.1875 0.28125,0.42188 0.28125,0.70313v11.65625h6.76563c0.27083,0 0.5,0.09375 0.6875,0.28125c0.1875,0.1875 0.28125,0.41667 0.28125,0.6875c0,0.27083 -0.09375,0.5 -0.28125,0.6875c-0.1875,0.1875 -0.41667,0.28125 -0.6875,0.28125z" fill="#28123b" stroke="#28123b" stroke-width="4" stroke-linecap="square"/><path d="M179.5876,186.23536c-0.80208,0 -1.5625,-0.125 -2.28125,-0.375c-0.71875,-0.25 -1.34896,-0.59896 -1.89062,-1.04687c-0.53125,-0.44792 -0.92187,-0.96354 -1.17187,-1.54687c-0.125,-0.26042 -0.125,-0.5 0,-0.71875c0.13542,-0.22917 0.35938,-0.375 0.67188,-0.4375c0.22917,-0.05208 0.44792,-0.01562 0.65625,0.10938c0.21875,0.11458 0.38542,0.29167 0.5,0.53125c0.14583,0.3125 0.39063,0.59896 0.73438,0.85938c0.34375,0.26042 0.75521,0.47396 1.23438,0.64063c0.48958,0.15625 1.00521,0.23438 1.54688,0.23438c0.59375,0 1.14063,-0.09375 1.64063,-0.28125c0.51042,-0.1875 0.91667,-0.45833 1.21875,-0.8125c0.3125,-0.35417 0.46875,-0.79167 0.46875,-1.3125c0,-0.66667 -0.26042,-1.26042 -0.78125,-1.78125c-0.51042,-0.52083 -1.35417,-0.84375 -2.53125,-0.96875c-1.54167,-0.14583 -2.75521,-0.59896 -3.64062,-1.35937c-0.88542,-0.76042 -1.32812,-1.69792 -1.32812,-2.8125c0,-0.82292 0.22917,-1.52083 0.6875,-2.09375c0.45833,-0.57292 1.08333,-1.00521 1.875,-1.29687c0.79167,-0.30208 1.67188,-0.45312 2.64063,-0.45312c0.76042,0 1.42188,0.10417 1.98438,0.3125c0.57292,0.20833 1.06771,0.5 1.48438,0.875c0.42708,0.375 0.79688,0.81771 1.10938,1.32813c0.16667,0.27083 0.23438,0.53125 0.20313,0.78125c-0.02083,0.23958 -0.14062,0.42708 -0.35937,0.5625c-0.22917,0.14583 -0.48437,0.17708 -0.76562,0.09375c-0.27083,-0.08333 -0.47396,-0.24479 -0.60937,-0.48437c-0.19792,-0.36458 -0.44271,-0.67187 -0.73437,-0.92187c-0.28125,-0.25 -0.61458,-0.44271 -1,-0.57812c-0.38542,-0.14583 -0.83854,-0.21875 -1.35937,-0.21875c-0.92708,-0.01042 -1.70312,0.16146 -2.32812,0.51563c-0.61458,0.35417 -0.92187,0.89583 -0.92187,1.625c0,0.375 0.09375,0.73438 0.28125,1.07813c0.19792,0.34375 0.55208,0.64063 1.0625,0.89063c0.52083,0.25 1.26563,0.42188 2.23438,0.51563c1.47917,0.14583 2.63021,0.59896 3.45313,1.35938c0.83333,0.75 1.25,1.73958 1.25,2.96875c0,0.70833 -0.14583,1.32292 -0.4375,1.84375c-0.29167,0.52083 -0.68229,0.96354 -1.17187,1.32813c-0.48958,0.35417 -1.05208,0.61979 -1.6875,0.79688c-0.625,0.16667 -1.27083,0.25 -1.9375,0.25zM188.75124,186.04786c-0.27083,0 -0.5,-0.09375 -0.6875,-0.28125c-0.1875,-0.1875 -0.28125,-0.41667 -0.28125,-0.6875v-12.625c0,-0.29167 0.09375,-0.52604 0.28125,-0.70312c0.1875,-0.1875 0.41667,-0.28125 0.6875,-0.28125h8.4375c0.29167,0 0.52083,0.08854 0.6875,0.26563c0.17708,0.16667 0.26563,0.38542 0.26563,0.65625c0,0.26042 -0.08854,0.47396 -0.26562,0.64063c-0.16667,0.15625 -0.39583,0.23438 -0.6875,0.23438h-7.45312v4.53125h5.34375c0.29167,0 0.52083,0.08333 0.6875,0.25c0.17708,0.16667 0.26563,0.38542 0.26563,0.65625c0,0.26042 -0.08854,0.47396 -0.26562,0.64063c-0.16667,0.16667 -0.39583,0.25 -0.6875,0.25h-5.34375v4.65625h7.45313c0.29167,0 0.52083,0.08333 0.6875,0.25c0.17708,0.15625 0.26563,0.36458 0.26563,0.625c0,0.28125 -0.08854,0.50521 -0.26562,0.67188c-0.16667,0.16667 -0.39583,0.25 -0.6875,0.25zM201.79499,186.04786c-0.27083,0 -0.5,-0.09375 -0.6875,-0.28125c-0.17708,-0.1875 -0.26562,-0.41667 -0.26562,-0.6875v-12.625c0,-0.28125 0.09375,-0.51562 0.28125,-0.70312c0.1875,-0.1875 0.41146,-0.28125 0.67188,-0.28125c0.28125,0 0.51042,0.09375 0.6875,0.28125c0.1875,0.1875 0.28125,0.42188 0.28125,0.70313v11.65625h6.76563c0.27083,0 0.5,0.09375 0.6875,0.28125c0.1875,0.1875 0.28125,0.41667 0.28125,0.6875c0,0.27083 -0.09375,0.5 -0.28125,0.6875c-0.1875,0.1875 -0.41667,0.28125 -0.6875,0.28125zM213.78792,186.04786c-0.27083,0 -0.5,-0.09375 -0.6875,-0.28125c-0.1875,-0.1875 -0.28125,-0.41667 -0.28125,-0.6875v-12.625c0,-0.29167 0.09375,-0.52604 0.28125,-0.70312c0.1875,-0.1875 0.41667,-0.28125 0.6875,-0.28125h8.4375c0.29167,0 0.52083,0.08854 0.6875,0.26563c0.17708,0.16667 0.26563,0.38542 0.26563,0.65625c0,0.26042 -0.08854,0.47396 -0.26562,0.64063c-0.16667,0.15625 -0.39583,0.23438 -0.6875,0.23438h-7.45312v4.53125h5.34375c0.29167,0 0.52083,0.08333 0.6875,0.25c0.17708,0.16667 0.26563,0.38542 0.26563,0.65625c0,0.26042 -0.08854,0.47396 -0.26562,0.64063c-0.16667,0.16667 -0.39583,0.25 -0.6875,0.25h-5.34375v4.65625h7.45313c0.29167,0 0.52083,0.08333 0.6875,0.25c0.17708,0.15625 0.26563,0.36458 0.26563,0.625c0,0.28125 -0.08854,0.50521 -0.26562,0.67188c-0.16667,0.16667 -0.39583,0.25 -0.6875,0.25zM232.40979,186.23536c-1,0 -1.94271,-0.1875 -2.82812,-0.5625c-0.875,-0.38542 -1.64062,-0.91667 -2.29687,-1.59375c-0.64583,-0.67708 -1.15625,-1.46875 -1.53125,-2.375c-0.36458,-0.90625 -0.54687,-1.89062 -0.54687,-2.95312c0,-1.04167 0.18229,-2.01042 0.54688,-2.90625c0.375,-0.90625 0.88542,-1.69792 1.53125,-2.375c0.65625,-0.67708 1.41667,-1.20833 2.28125,-1.59375c0.875,-0.38542 1.82292,-0.57812 2.84375,-0.57812c0.95833,0 1.78125,0.125 2.46875,0.375c0.69792,0.23958 1.39583,0.64583 2.09375,1.21875c0.09375,0.07292 0.16667,0.15104 0.21875,0.23438c0.0625,0.08333 0.10417,0.16667 0.125,0.25c0.02083,0.07292 0.03125,0.16667 0.03125,0.28125c0,0.23958 -0.08854,0.4375 -0.26562,0.59375c-0.16667,0.15625 -0.36979,0.24479 -0.60937,0.26563c-0.22917,0.01042 -0.45833,-0.06771 -0.6875,-0.23437c-0.45833,-0.40625 -0.93229,-0.71354 -1.42187,-0.92187c-0.48958,-0.20833 -1.14062,-0.3125 -1.95312,-0.3125c-0.72917,0 -1.41667,0.15104 -2.0625,0.45313c-0.64583,0.29167 -1.21875,0.69792 -1.71875,1.21875c-0.48958,0.52083 -0.86979,1.13021 -1.14062,1.82813c-0.27083,0.6875 -0.40625,1.42188 -0.40625,2.20313c0,0.80208 0.13542,1.54688 0.40625,2.23438c0.27083,0.6875 0.65104,1.29167 1.14063,1.8125c0.5,0.52083 1.07292,0.93229 1.71875,1.23438c0.64583,0.29167 1.33333,0.4375 2.0625,0.4375c0.63542,0 1.23438,-0.10937 1.79688,-0.32812c0.57292,-0.21875 1.11979,-0.52083 1.64063,-0.90625c0.21875,-0.16667 0.4375,-0.23958 0.65625,-0.21875c0.21875,0.02083 0.40104,0.10938 0.54688,0.26563c0.15625,0.15625 0.23438,0.36979 0.23438,0.64063c0,0.125 -0.02604,0.25 -0.07812,0.375c-0.05208,0.11458 -0.125,0.21875 -0.21875,0.3125c-0.67708,0.53125 -1.40104,0.9375 -2.17187,1.21875c-0.76042,0.27083 -1.5625,0.40625 -2.40625,0.40625zM244.68697,186.04786c-0.27083,0 -0.5,-0.09375 -0.6875,-0.28125c-0.1875,-0.1875 -0.28125,-0.41667 -0.28125,-0.6875v-13.60937h1.9375v13.60938c0,0.27083 -0.09375,0.5 -0.28125,0.6875c-0.1875,0.1875 -0.41667,0.28125 -0.6875,0.28125zM239.68697,173.26661c-0.26042,0 -0.47396,-0.08333 -0.64062,-0.25c-0.16667,-0.16667 -0.25,-0.38021 -0.25,-0.64062c0,-0.26042 0.08333,-0.47396 0.25,-0.64062c0.16667,-0.17708 0.38021,-0.26562 0.64063,-0.26562h9.98438c0.26042,0 0.47396,0.08854 0.64063,0.26563c0.16667,0.16667 0.25,0.38021 0.25,0.64063c0,0.26042 -0.08333,0.47396 -0.25,0.64063c-0.16667,0.16667 -0.38021,0.25 -0.64062,0.25zM259.14128,186.04786c-0.27083,0 -0.5,-0.09375 -0.6875,-0.28125c-0.1875,-0.1875 -0.28125,-0.41667 -0.28125,-0.6875v-12.625c0,-0.29167 0.09375,-0.52604 0.28125,-0.70312c0.1875,-0.1875 0.41667,-0.28125 0.6875,-0.28125h4.46875c0.84375,0 1.58333,0.16667 2.21875,0.5c0.64583,0.33333 1.15104,0.79167 1.51563,1.375c0.36458,0.58333 0.54688,1.25521 0.54688,2.01563c0,0.60417 -0.16667,1.15625 -0.5,1.65625c-0.32292,0.48958 -0.77083,0.875 -1.34375,1.15625c0.82292,0.19792 1.48438,0.58854 1.98438,1.17188c0.5,0.58333 0.75,1.34896 0.75,2.29688c0,0.86458 -0.20312,1.625 -0.60937,2.28125c-0.40625,0.65625 -0.97396,1.17708 -1.70312,1.5625c-0.71875,0.375 -1.54167,0.5625 -2.46875,0.5625zM260.12566,184.251h3.875c0.57292,0 1.07292,-0.09896 1.5,-0.29687c0.4375,-0.19792 0.78125,-0.48958 1.03125,-0.875c0.25,-0.38542 0.375,-0.86458 0.375,-1.4375c0,-0.53125 -0.125,-0.96875 -0.375,-1.3125c-0.25,-0.35417 -0.59375,-0.61979 -1.03125,-0.79687c-0.42708,-0.1875 -0.92708,-0.28125 -1.5,-0.28125h-3.875zM260.12566,177.46975h3.48438c0.70833,0 1.28646,-0.17187 1.73438,-0.51562c0.45833,-0.35417 0.6875,-0.88542 0.6875,-1.59375c0,-0.70833 -0.22917,-1.23437 -0.6875,-1.57812c-0.44792,-0.34375 -1.02604,-0.51562 -1.73437,-0.51562h-3.48437zM270.52287,186.04786c-0.34375,0 -0.60937,-0.14583 -0.79687,-0.4375c-0.1875,-0.30208 -0.20833,-0.625 -0.0625,-0.96875l5.25,-12.51562c0.1875,-0.4375 0.48958,-0.65625 0.90625,-0.65625c0.44792,0 0.75521,0.21875 0.92188,0.65625l5.26563,12.5625c0.13542,0.34375 0.10938,0.65625 -0.07812,0.9375c-0.17708,0.28125 -0.44271,0.42188 -0.79687,0.42188c-0.1875,0 -0.36979,-0.05208 -0.54687,-0.15625c-0.16667,-0.10417 -0.28646,-0.25 -0.35937,-0.4375l-4.625,-11.5h0.53125l-4.70312,11.5c-0.09375,0.19792 -0.22396,0.34896 -0.39062,0.45313c-0.16667,0.09375 -0.33854,0.14063 -0.51562,0.14063zM271.52287,182.84475l0.73438,-1.60937h7.3125l0.75,1.60938zM285.16944,186.04786c-0.27083,0 -0.5,-0.09375 -0.6875,-0.28125c-0.17708,-0.1875 -0.26562,-0.41667 -0.26562,-0.6875v-12.625c0,-0.28125 0.09375,-0.51562 0.28125,-0.70312c0.1875,-0.1875 0.41146,-0.28125 0.67188,-0.28125c0.28125,0 0.51042,0.09375 0.6875,0.28125c0.1875,0.1875 0.28125,0.42188 0.28125,0.70313v11.65625h6.76563c0.27083,0 0.5,0.09375 0.6875,0.28125c0.1875,0.1875 0.28125,0.41667 0.28125,0.6875c0,0.27083 -0.09375,0.5 -0.28125,0.6875c-0.1875,0.1875 -0.41667,0.28125 -0.6875,0.28125zM297.14677,186.04786c-0.27083,0 -0.5,-0.09375 -0.6875,-0.28125c-0.17708,-0.1875 -0.26562,-0.41667 -0.26562,-0.6875v-12.625c0,-0.28125 0.09375,-0.51562 0.28125,-0.70312c0.1875,-0.1875 0.41146,-0.28125 0.67188,-0.28125c0.28125,0 0.51042,0.09375 0.6875,0.28125c0.1875,0.1875 0.28125,0.42188 0.28125,0.70313v11.65625h6.76563c0.27083,0 0.5,0.09375 0.6875,0.28125c0.1875,0.1875 0.28125,0.41667 0.28125,0.6875c0,0.27083 -0.09375,0.5 -0.28125,0.6875c-0.1875,0.1875 -0.41667,0.28125 -0.6875,0.28125z" fill="#a97fff" stroke="#a97fff" stroke-width="0.5" stroke-linecap="square"/><path d="M199.06036,298.60428v37.23373" fill="none" stroke="#8b4fff" stroke-width="1" stroke-linecap="round"/><path d="M281.82902,335.7881v-37.23373" fill="none" stroke="#8b4fff" stroke-width="1" stroke-linecap="round"/></g></g></svg>