<svg version="1.1" xmlns="http://www.w3.org/2000/svg" xmlns:xlink="http://www.w3.org/1999/xlink" width="7.63261" height="7.82695" viewBox="0,0,7.63261,7.82695"><g transform="translate(-236.18388,-175.867)"><g data-paper-data="{&quot;isPaintingLayer&quot;:true}" fill-rule="nonzero" stroke-linejoin="miter" stroke-miterlimit="10" stroke-dasharray="" stroke-dashoffset="0" style="mix-blend-mode: normal"><path d="M238.52926,177.74352c0.81384,-0.48392 0.85873,-0.71989 1.36228,-1.62652c0.0833,-0.31486 0.20361,-0.12706 0.2418,0.11893c0.55845,0.98615 0.93309,1.22237 1.66636,1.64167c1.12334,0.66176 1.79853,1.87069 1.76564,2.87476c-0.07634,2.33068 -1.56786,2.69159 -3.6314,2.69159c-2.06353,0 -3.47636,-0.54253 -3.50006,-2.50234c-0.02146,-1.7748 0.9003,-2.51823 1.77319,-3.02236z" fill="#28123b" stroke="#28123b" stroke-width="0.5" stroke-linecap="butt"/><path d="M239.17676,180.35841c0,0.66478 -0.00605,1.2037 -0.59259,1.2037c-0.47543,0 -0.59259,-0.53892 -0.59259,-1.2037c0,-0.66478 0.21114,-0.86195 0.59259,-1.2037c0.58764,0.00877 0.59259,0.53892 0.59259,1.2037z" fill="#9966ff" stroke="none" stroke-width="NaN" stroke-linecap="butt"/><path d="M241.2383,179.12439c0.42797,0.38828 0.59259,0.53892 0.59259,1.2037c0,0.66478 -0.11716,1.2037 -0.59259,1.2037c-0.58654,0 -0.59259,-0.53892 -0.59259,-1.2037c0,-0.66478 0.00495,-1.19494 0.59259,-1.2037z" data-paper-data="{&quot;index&quot;:null}" fill="#9966ff" stroke="none" stroke-width="NaN" stroke-linecap="butt"/><path d="M239.31975,180.13253c0,0.3455 -0.00314,0.62559 -0.30798,0.62559c-0.24709,0 -0.30798,-0.28009 -0.30798,-0.62559c0,-0.3455 0.06138,-0.62927 0.30798,-0.62559c0.30541,0.00456 0.30798,0.28009 0.30798,0.62559z" fill="#28123b" stroke="none" stroke-width="NaN" stroke-linecap="butt"/><path d="M240.81764,179.50694c0.2466,-0.00368 0.30798,0.2801 0.30798,0.6256c0,0.3455 -0.06089,0.62559 -0.30798,0.62559c-0.30484,0 -0.30799,-0.28009 -0.30799,-0.62559c0,-0.3455 0.00258,-0.62104 0.30799,-0.6256z" data-paper-data="{&quot;index&quot;:null}" fill="#28123b" stroke="none" stroke-width="NaN" stroke-linecap="butt"/><path d="M238.79949,178.35968c0.64619,-0.38423 0.68183,-0.57159 1.08165,-1.29146c0.06614,-0.25 0.16166,-0.10089 0.19199,0.09443c0.44341,0.783 0.74087,0.97056 1.32309,1.30348c0.89193,0.52544 1.42803,1.48533 1.40192,2.28256c-0.06061,1.85056 -1.24488,2.13712 -2.88333,2.13712c-1.63844,0 -2.76023,-0.43076 -2.77904,-1.98685c-0.01704,-1.40919 0.71484,-1.99947 1.40792,-2.39975z" fill="none" stroke="#9966ff" stroke-width="0.5" stroke-linecap="butt"/><path d="M239.19241,179.91207c0,0.11295 -0.06768,0.20452 -0.15116,0.20452c-0.08348,0 -0.15116,-0.09157 -0.15116,-0.20452c0,-0.11295 0.06768,-0.20451 0.15116,-0.20451c0.08348,0 0.15116,0.09156 0.15116,0.20451z" fill="#9966ff" stroke="none" stroke-width="0" stroke-linecap="butt"/><path d="M240.89008,179.88882c0,0.11295 -0.06768,0.20451 -0.15116,0.20451c-0.08348,0 -0.15117,-0.09156 -0.15117,-0.20451c0,-0.11295 0.06768,-0.20452 0.15117,-0.20452c0.08348,0 0.15116,0.09157 0.15116,0.20452z" fill="#9966ff" stroke="none" stroke-width="0" stroke-linecap="butt"/><path d="M238.21565,181.67472l-0.16279,-0.06977" fill="none" stroke="#9966ff" stroke-width="0.1" stroke-linecap="round"/><path d="M241.65751,181.65146l-0.13953,0.04651" fill="none" stroke="#9966ff" stroke-width="0.1" stroke-linecap="round"/></g></g></svg>