<svg version="1.1" xmlns="http://www.w3.org/2000/svg" xmlns:xlink="http://www.w3.org/1999/xlink" width="8.75023" height="3.33233" viewBox="0,0,8.75023,3.33233"><g transform="translate(-235.62488,-178.33384)"><g data-paper-data="{&quot;isPaintingLayer&quot;:true}" fill-rule="nonzero" stroke-linejoin="miter" stroke-miterlimit="10" stroke-dasharray="" stroke-dashoffset="0" style="mix-blend-mode: normal"><g stroke-linecap="butt"><path d="M237.20682,181.28236c-1.85972,-0.58748 -2.11676,-1.63785 -0.57413,-2.34608c1.54263,-0.70823 4.30077,-0.80612 6.16049,-0.21864c1.85972,0.58748 2.11676,1.63785 0.57413,2.34608c-1.54263,0.70823 -4.30077,0.80612 -6.16049,0.21864z" fill="#28123b" stroke="none" stroke-width="0"/><path d="M236.4037,180.00001c0,-0.75639 1.61013,-1.36956 3.5963,-1.36956c1.98618,0 3.5963,0.61318 3.5963,1.36956c0,0.75639 -1.61012,1.36956 -3.5963,1.36956c-1.98618,0 -3.5963,-0.61318 -3.5963,-1.36956z" fill="none" stroke="#8b4fff" stroke-width="0.5"/></g><path d="M240.18832,179.4778l-0.16081,0.08748l-0.32161,0.06998l-0.3216,0.01749" fill="none" stroke="#8b4fff" stroke-width="0.2" stroke-linecap="round"/><path d="M241.69073,179.6387l-0.27074,-0.02749l-0.21659,-0.055l-0.12635,-0.08249" fill="none" stroke="#8b4fff" stroke-width="0.2" stroke-linecap="round"/><path d="M240.44887,179.70405c0,0.06728 -0.19155,0.14389 -0.44575,0.14389c-0.2542,0 -0.46027,-0.05453 -0.46027,-0.12181c0,-0.06728 0.20607,-0.1218 0.46027,-0.1218c0.2542,0 0.44575,0.03245 0.44575,0.09973z" fill="none" stroke="#8b4fff" stroke-width="0.2" stroke-linecap="butt"/><path d="M239.61505,179.74867l0.27074,-0.02749h0.28879l0.16244,0.02749" fill="none" stroke="#8b4fff" stroke-width="0.2" stroke-linecap="round"/><g fill="none" stroke="#8b4fff" stroke-width="0.2"><path d="M241.67565,179.7158c0,0.06728 -0.20606,0.12181 -0.46025,0.12181c-0.2542,0 -0.43129,-0.07661 -0.43129,-0.14389c0,-0.06728 0.17709,-0.09972 0.43129,-0.09972c0.2542,0 0.46025,0.05453 0.46025,0.1218z" stroke-linecap="butt"/><path d="M240.82733,179.73835l0.27074,-0.02749h0.28879l0.16244,0.02749" stroke-linecap="round"/></g><path d="M240.9845,179.89699l-0.05415,-0.08935l-0.21659,-0.04811l-0.09025,-0.08935l-0.01805,-0.12372" fill="none" stroke="#28123b" stroke-width="0.2" stroke-linecap="round"/><path d="M240.75216,179.51497l0.01805,0.12372l0.09024,0.08935l0.2166,0.04811l0.05415,0.08936l-0.05158,0.06109l-0.03305,0.05664l-0.04958,0.16993l0.04958,0.10699l0.08263,0.03776v0.05034l-0.19831,0.05034l-0.26441,0.00629l-0.14873,-0.05664l-0.23135,-0.02517l-0.03306,0.05034l0.16526,0.03146" fill="none" stroke="#8b4fff" stroke-width="0.2" stroke-linecap="round"/><path d="M240.05503,180.36086l-0.04957,-0.05034l0.04957,-0.06294l0.09916,-0.02517" fill="none" stroke="#8b4fff" stroke-width="0.2" stroke-linecap="round"/><path d="M239.87325,180.5119l0.03305,-0.10699l0.11568,-0.15104" fill="none" stroke="#8b4fff" stroke-width="0.2" stroke-linecap="round"/><path d="M241.12919,180.27276l0.1322,0.02517v0.07552l-0.19831,0.01259" fill="none" stroke="#8b4fff" stroke-width="0.2" stroke-linecap="round"/><path d="M241.32749,180.30423l0.1322,0.10069l0.03305,0.10069" fill="none" stroke="#8b4fff" stroke-width="0.2" stroke-linecap="round"/><path d="M240.42115,180.55339l0.06624,-0.01504l0.13246,-0.04012h0.13247l0.07727,0.02006l0.07728,-0.01003l0.11039,-0.01003l0.15454,0.06018l-0.13246,0.0301c0,0 -0.05099,-0.0201 -0.08216,-0.0176c-0.03138,0.00252 -0.06695,0.02685 -0.11654,0.02763c-0.04959,0.00079 -0.10167,-0.02597 -0.13372,-0.02367c-0.03712,0.00266 -0.0981,0.01865 -0.0981,0.01865z" fill="none" stroke="#8b4fff" stroke-width="0.2" stroke-linecap="round"/><path d="M241.17261,180.56908l-0.05439,0.07837l-0.11967,0.05037l-0.33724,0.0056l-0.1523,-0.05037l-0.10879,-0.07276" fill="none" stroke="#8b4fff" stroke-width="0.2" stroke-linecap="round"/><path d="M239.60217,180.33507l0.0459,-0.13402l-0.06121,-0.05827l-0.27542,-0.02331l-0.32133,-0.08741l-0.0459,-0.13402l0.12241,-0.10489" fill="none" stroke="#8b4fff" stroke-width="0.2" stroke-linecap="round"/><path d="M241.28531,181.01684l-0.26013,0.04662l-0.41313,0.01165l-1.49953,-0.26222" fill="none" stroke="#8b4fff" stroke-width="0.2" stroke-linecap="round"/><path d="M239.12783,180.06702l0.0765,0.14568l0.0153,0.20395l-0.0612,0.14568l-0.09181,0.09324l-0.0459,0.08158l0.06121,0.05827" fill="none" stroke="#8b4fff" stroke-width="0.2" stroke-linecap="round"/><path d="M238.69939,180.07285l-0.39784,-0.06992l-0.32133,-0.23309l-0.0765,-0.30884l0.0918,-0.23308l0.47434,-0.18647l0.91808,-0.09906l1.34652,-0.01748l0.68856,0.06993l0.27542,0.13402l0.09181,0.15151l0.21421,0.03496l0.07651,0.09324l0.0153,0.07575l-0.06121,0.05244l-0.13771,0.05827v0.16316l0.13771,0.05244l0.04591,0.08741l-0.07651,0.07575l-0.33662,0.09906l-0.06121,0.0641v0.63516l0.24482,0.04661l0.06121,0.09324l-0.0765,0.04079l-0.50495,0.05244l0.01531,-0.10489l-0.12241,-0.0641h-0.22952" fill="none" stroke="#8b4fff" stroke-width="0.2" stroke-linecap="round"/><path d="M239.03602,179.25705l0.16832,0.09324l0.04591,0.0641l-0.10711,0.06993v0.07575" fill="none" stroke="#8b4fff" stroke-width="0.2" stroke-linecap="round"/><path d="M240.53555,179.16381l0.0306,0.04662v0.08741" fill="none" stroke="#8b4fff" stroke-width="0.2" stroke-linecap="round"/><path d="M240.41314,179.29201l0.09181,0.08158v0.0641" fill="none" stroke="#8b4fff" stroke-width="0.2" stroke-linecap="round"/><path d="M238.65349,180.06119l-0.06121,0.16316l-0.26012,0.22143l-0.29073,0.1282" fill="none" stroke="#8b4fff" stroke-width="0.2" stroke-linecap="round"/><path d="M240.21363,179.75611c0,0.01558 -0.07107,0.02821 -0.15873,0.02821c-0.08766,0 -0.15873,-0.01263 -0.15873,-0.02821c0,-0.01558 0.07107,-0.02821 0.15873,-0.02821c0.08766,0 0.15873,0.01263 0.15873,0.02821z" fill="#8b4fff" stroke="#8b4fff" stroke-width="0.2" stroke-linecap="butt"/><path d="M241.48347,179.73798c0,0.01558 -0.07107,0.02821 -0.15873,0.02821c-0.08766,0 -0.15873,-0.01263 -0.15873,-0.02821c0,-0.01558 0.07107,-0.02821 0.15873,-0.02821c0.08766,0 0.15873,0.01263 0.15873,0.02821z" fill="#8b4fff" stroke="#8b4fff" stroke-width="0.2" stroke-linecap="butt"/><path d="M236.81679,180.45429l0.4127,-0.07858l0.68254,-0.04232l0.46032,0.01209" fill="none" stroke="#8b4fff" stroke-width="0.2" stroke-linecap="round"/><path d="M241.633,180.60436l0.47117,0.06946l0.39517,0.17943" fill="none" stroke="#8b4fff" stroke-width="0.2" stroke-linecap="round"/><path d="M237.83267,181.01043l-0.22222,-0.13299l-0.06349,-0.13903l0.04762,-0.21762l0.31746,-0.15113" fill="none" stroke="#8b4fff" stroke-width="0.2" stroke-linecap="round"/><path d="M240.12258,179.74818c0,0.0122 -0.03244,0.02208 -0.07246,0.02208c-0.04002,0 -0.07246,-0.00988 -0.07246,-0.02208c0,-0.0122 0.03244,-0.02208 0.07246,-0.02208c0.04002,0 0.07246,0.00988 0.07246,0.02208z" fill="#28123b" stroke="none" stroke-width="0.2" stroke-linecap="butt"/><path d="M241.41244,179.73715c0,0.0122 -0.03245,0.02208 -0.07247,0.02208c-0.04002,0 -0.07246,-0.00988 -0.07246,-0.02208c0,-0.0122 0.03244,-0.02208 0.07246,-0.02208c0.04002,0 0.07247,0.00988 0.07247,0.02208z" fill="#28123b" stroke="none" stroke-width="0.2" stroke-linecap="butt"/><path d="M239.19505,179.69851l0.17391,0.03312" fill="none" stroke="#8b4fff" stroke-width="0.2" stroke-linecap="round"/><path d="M239.32548,179.76474l-0.13043,0.01656" fill="none" stroke="#8b4fff" stroke-width="0.2" stroke-linecap="round"/><path d="M241.78925,179.72058l0.11594,-0.02208" fill="none" stroke="#8b4fff" stroke-width="0.2" stroke-linecap="round"/><path d="M241.74577,179.77578l0.13043,0.00552" fill="none" stroke="#8b4fff" stroke-width="0.2" stroke-linecap="round"/><path d="M238.42693,179.26161c0,0 0.09838,-0.05387 0.16153,-0.07236c0.06245,-0.0183 0.21529,-0.03802 0.21529,-0.03802" fill="none" stroke="#502576" stroke-width="0.2" stroke-linecap="round"/></g></g></svg>