<svg version="1.1" xmlns="http://www.w3.org/2000/svg" xmlns:xlink="http://www.w3.org/1999/xlink" width="137.77422" height="119.62744" viewBox="0,0,137.77422,119.62744"><defs><linearGradient x1="-118.66754" y1="-1015.04701" x2="-83.88442" y2="695.21506" gradientUnits="userSpaceOnUse" id="color-1"><stop offset="0" stop-color="#000000"/><stop offset="1" stop-color="#000000" stop-opacity="0"/></linearGradient><linearGradient x1="240.128" y1="134.23559" x2="240.128" y2="147.39257" gradientUnits="userSpaceOnUse" id="color-2"><stop offset="0" stop-color="#000000"/><stop offset="1" stop-color="#000000" stop-opacity="0"/></linearGradient><linearGradient x1="240.128" y1="134.23559" x2="240.128" y2="147.39257" gradientUnits="userSpaceOnUse" id="color-3"><stop offset="0" stop-color="#000000"/><stop offset="1" stop-color="#000000" stop-opacity="0"/></linearGradient><linearGradient x1="177.40397" y1="140.81408" x2="177.40397" y2="242.04724" gradientUnits="userSpaceOnUse" id="color-4"><stop offset="0" stop-color="#000000"/><stop offset="1" stop-color="#000000" stop-opacity="0"/></linearGradient><linearGradient x1="177.40397" y1="140.81408" x2="177.40397" y2="242.04724" gradientUnits="userSpaceOnUse" id="color-5"><stop offset="0" stop-color="#000000"/><stop offset="1" stop-color="#000000" stop-opacity="0"/></linearGradient><linearGradient x1="239.8242" y1="236.48504" x2="239.8242" y2="249.64202" gradientUnits="userSpaceOnUse" id="color-6"><stop offset="0" stop-color="#000000"/><stop offset="1" stop-color="#000000" stop-opacity="0"/></linearGradient><linearGradient x1="239.8242" y1="236.48504" x2="239.8242" y2="249.64202" gradientUnits="userSpaceOnUse" id="color-7"><stop offset="0" stop-color="#000000"/><stop offset="1" stop-color="#000000" stop-opacity="0"/></linearGradient><linearGradient x1="302.54828" y1="141.83038" x2="302.54828" y2="243.06353" gradientUnits="userSpaceOnUse" id="color-8"><stop offset="0" stop-color="#000000"/><stop offset="1" stop-color="#000000" stop-opacity="0"/></linearGradient><linearGradient x1="302.54828" y1="141.83038" x2="302.54828" y2="243.06353" gradientUnits="userSpaceOnUse" id="color-9"><stop offset="0" stop-color="#000000"/><stop offset="1" stop-color="#000000" stop-opacity="0"/></linearGradient><linearGradient x1="247.90974" y1="169.65099" x2="247.90974" y2="217.51568" gradientUnits="userSpaceOnUse" id="color-10"><stop offset="0" stop-color="#000000"/><stop offset="1" stop-color="#000000" stop-opacity="0"/></linearGradient><linearGradient x1="223.37226" y1="198.34428" x2="223.37226" y2="217.62656" gradientUnits="userSpaceOnUse" id="color-11"><stop offset="0" stop-color="#000000"/><stop offset="1" stop-color="#000000" stop-opacity="0"/></linearGradient></defs><g transform="translate(-171.15397,-129.68609)"><g data-paper-data="{&quot;isPaintingLayer&quot;:true}" fill-rule="nonzero" stroke-linejoin="miter" stroke-miterlimit="10" stroke-dasharray="" stroke-dashoffset="0" style="mix-blend-mode: normal"><path d="M178.29088,236.11065l-0.96904,-98.60731l124.65311,-2.09515l0.63183,98.7816z" fill="url(#color-1)" stroke="none" stroke-width="0" stroke-linecap="butt"/><g stroke-linecap="round"><g stroke-width="12.5"><path d="M301.95849,140.81408h-123.66096" fill="url(#color-2)" stroke="url(#color-3)"/><path d="M177.40397,242.04724v-101.23316" fill="url(#color-4)" stroke="url(#color-5)"/><path d="M301.65468,243.06353h-123.66095" data-paper-data="{&quot;index&quot;:null}" fill="url(#color-6)" stroke="url(#color-7)"/><path d="M302.54828,243.06353v-101.23314" data-paper-data="{&quot;index&quot;:null}" fill="url(#color-8)" stroke="url(#color-9)"/></g><g fill="none" stroke="#28123b" stroke-width="12.5"><path d="M302.08842,136.00852h-123.66096"/><path d="M177.5339,237.24167v-101.23315"/><path d="M301.78461,238.25797h-123.66095" data-paper-data="{&quot;index&quot;:null}"/><path d="M302.67819,238.25797v-101.23315" data-paper-data="{&quot;index&quot;:null}"/></g><g fill="none" stroke="#8b4fff" stroke-width="4.5"><path d="M302.08842,136.00852h-123.66096"/><path d="M177.5339,237.24167v-101.23315"/><path d="M301.78461,238.25797h-123.66095" data-paper-data="{&quot;index&quot;:null}"/><path d="M302.67819,238.25797v-101.23315" data-paper-data="{&quot;index&quot;:null}"/></g></g><g fill="none" stroke-linecap="round"><g stroke="#28123b" stroke-width="12.5"><path d="M178.32149,135.93609h123.66096"/><path d="M177.42788,236.25092v-100.31483"/><path d="M178.01769,237.25798h123.66096" data-paper-data="{&quot;index&quot;:null}"/><path d="M302.57219,237.25798v-100.31482" data-paper-data="{&quot;index&quot;:null}"/></g><g stroke="#8b4fff" stroke-width="4.5"><path d="M178.32149,135.93609h123.66096"/><path d="M177.42788,236.25092v-100.31483"/><path d="M178.01769,237.25798h123.66096" data-paper-data="{&quot;index&quot;:null}"/><path d="M302.57219,237.25798v-100.31482" data-paper-data="{&quot;index&quot;:null}"/></g></g><g fill="none" stroke-width="13.5" stroke-linecap="round"><path d="M230.55866,217.51568l34.70215,-47.86469" data-paper-data="{&quot;index&quot;:null}" stroke="url(#color-10)"/><path d="M216.23352,198.34428l14.27749,19.28228" data-paper-data="{&quot;index&quot;:null}" stroke="url(#color-11)"/></g><path d="M265.42748,162.40099l-34.70215,47.86469" data-paper-data="{&quot;index&quot;:null}" fill="none" stroke="#28123b" stroke-width="13.5" stroke-linecap="round"/><path d="M230.96706,210.26568c0,0 1.37553,-1.89727 2.82831,-3.90109c4.87701,-6.72687 31.87385,-43.9636 31.87385,-43.9636" data-paper-data="{&quot;index&quot;:null}" fill="none" stroke="#ab80ff" stroke-width="5.5" stroke-linecap="round"/><path d="M230.67767,210.37656l-14.27749,-19.28228" data-paper-data="{&quot;index&quot;:null}" fill="none" stroke="#28123b" stroke-width="13.5" stroke-linecap="round"/><path d="M216.40119,191.22999l14.27749,19.28228" data-paper-data="{&quot;index&quot;:null}" fill="none" stroke="#a97eff" stroke-width="5.5" stroke-linecap="round"/><path d="M229.04617,208.0759l4.40044,-5.76842l3.72575,4.05374l-4.25758,5.91128z" fill="#a97eff" stroke="none" stroke-width="NaN" stroke-linecap="butt"/></g></g></svg>