<svg version="1.1" xmlns="http://www.w3.org/2000/svg" xmlns:xlink="http://www.w3.org/1999/xlink" width="8.75023" height="3.13485" viewBox="0,0,8.75023,3.13485"><g transform="translate(-235.62488,-178.43257)"><g data-paper-data="{&quot;isPaintingLayer&quot;:true}" fill-rule="nonzero" stroke-linecap="butt" stroke-linejoin="miter" stroke-miterlimit="10" stroke-dasharray="" stroke-dashoffset="0" style="mix-blend-mode: normal"><path d="M237.20682,181.20637c-1.85972,-0.55266 -2.11676,-1.54079 -0.57413,-2.20705c1.54263,-0.66626 4.30077,-0.75835 6.16049,-0.20568c1.85972,0.55266 2.11676,1.54079 0.57413,2.20705c-1.54263,0.66626 -4.30077,0.75835 -6.16049,0.20568z" fill="#28123b" stroke="none" stroke-width="0"/><g><path d="M238.74823,180.54128c-0.83443,-0.24798 -0.94977,-0.69133 -0.2576,-0.99028c0.69215,-0.29894 1.92971,-0.34027 2.76414,-0.09229c0.83443,0.24798 0.94978,0.69133 0.2576,0.99028c-0.69215,0.29894 -1.92971,0.34027 -2.76414,0.09229z" fill="none" stroke="#28123b" stroke-width="0.5"/><path d="M237.41361,179.73216c0,-0.23977 0.53444,-0.43414 1.19372,-0.43414c0.65928,0 1.19372,0.19437 1.19372,0.43414c0,0.23977 -0.53444,0.43414 -1.19372,0.43414c-0.65928,0 -1.19372,-0.19437 -1.19372,-0.43414z" fill="#8b4fff" stroke="none" stroke-width="0"/><path d="M239.43931,180.39957v-0.22032h1.15755v0.22032z" fill="#8b4fff" stroke="none" stroke-width="0"/><path d="M237.26891,180.00432c0,-0.26123 0.59113,-0.47302 1.32033,-0.47302c0.72919,0 1.32033,0.21178 1.32033,0.47302c0,0.26123 -0.59113,0.47302 -1.32033,0.47302c-0.72919,0 -1.32033,-0.21178 -1.32033,-0.47302z" fill="#8b4fff" stroke="#28123b" stroke-width="0.5"/><path d="M240.19895,179.74513c0,-0.23977 0.53444,-0.43414 1.19372,-0.43414c0.65928,0 1.19372,0.19437 1.19372,0.43414c0,0.23977 -0.53444,0.43414 -1.19372,0.43414c-0.65928,0 -1.19372,-0.19437 -1.19372,-0.43414z" fill="#8b4fff" stroke="none" stroke-width="0"/><path d="M240.09042,180.00432c0,-0.26123 0.59113,-0.47302 1.32033,-0.47302c0.72919,0 1.32033,0.21178 1.32033,0.47302c0,0.26123 -0.59114,0.47302 -1.32033,0.47302c-0.72919,0 -1.32033,-0.21178 -1.32033,-0.47302z" fill="#8b4fff" stroke="#28123b" stroke-width="0.5"/><path d="M238.28176,180.00432c0,-0.08946 0.20244,-0.16199 0.45216,-0.16199c0.24972,0 0.45216,0.07253 0.45216,0.16199c0,0.08946 -0.20244,0.16199 -0.45216,0.16199c-0.24972,0 -0.45216,-0.07253 -0.45216,-0.16199z" fill="#28123b" stroke="none" stroke-width="0"/><path d="M240.74155,180.00432c0,-0.08946 0.20244,-0.16199 0.45216,-0.16199c0.24972,0 0.45216,0.07253 0.45216,0.16199c0,0.08946 -0.20245,0.16199 -0.45216,0.16199c-0.24972,0 -0.45216,-0.07253 -0.45216,-0.16199z" fill="#28123b" stroke="none" stroke-width="0"/></g><path d="M237.03333,179.99999c0,-0.58699 1.32823,-1.06283 2.96667,-1.06283c1.63844,0 2.96667,0.47585 2.96667,1.06283c0,0.58699 -1.32822,1.06283 -2.96667,1.06283c-1.63844,0 -2.96667,-0.47585 -2.96667,-1.06283z" fill="none" stroke="#8b4fff" stroke-width="0.5"/></g></g></svg>