<svg version="1.1" xmlns="http://www.w3.org/2000/svg" xmlns:xlink="http://www.w3.org/1999/xlink" width="13.4425" height="8.75" viewBox="0,0,13.4425,8.75"><g transform="translate(-233.27875,-175.625)"><g data-paper-data="{&quot;isPaintingLayer&quot;:true}" fill-rule="nonzero" stroke-linecap="butt" stroke-linejoin="miter" stroke-miterlimit="10" stroke-dasharray="" stroke-dashoffset="0" style="mix-blend-mode: normal"><g><path d="M233.27875,180c0,-2.41625 1.95875,-4.375 4.375,-4.375c2.41625,0 4.375,1.95875 4.375,4.375c0,2.41625 -1.95875,4.375 -4.375,4.375c-2.41625,0 -4.375,-1.95875 -4.375,-4.375z" fill="#28123b" stroke="none" stroke-width="0"/><path d="M235.18708,180c0,-1.3623 1.10437,-2.46667 2.46667,-2.46667c1.3623,0 2.46667,1.10437 2.46667,2.46667c0,1.3623 -1.10436,2.46667 -2.46667,2.46667c-1.3623,0 -2.46667,-1.10436 -2.46667,-2.46667z" fill="#9965ff" stroke="#8b4fff" stroke-width="2"/><path d="M240.39737,183.3125v-6.375h5.18249c0,0 1.14139,2.07312 1.14139,3.125c0,1.07271 -1.14139,3.25 -1.14139,3.25z" fill="#28123b" stroke="none" stroke-width="0"/><path d="M240.02139,181.7472v-3.23529h4.16935c0,0 0.49784,1.08757 0.49784,1.58822c0,0.569 -0.49784,1.64707 -0.49784,1.64707z" fill="#a172ff" stroke="#8b4fff" stroke-width="1.5"/><path d="M233.27875,180c0,-2.41625 1.95875,-4.375 4.375,-4.375c2.41625,0 4.375,1.95875 4.375,4.375c0,2.41625 -1.95875,4.375 -4.375,4.375c-2.41625,0 -4.375,-1.95875 -4.375,-4.375z" fill="#28123b" stroke="none" stroke-width="0"/><path d="M235.18708,180c0,-1.3623 1.10437,-2.46667 2.46667,-2.46667c1.3623,0 2.46667,1.10437 2.46667,2.46667c0,1.3623 -1.10436,2.46667 -2.46667,2.46667c-1.3623,0 -2.46667,-1.10436 -2.46667,-2.46667z" fill="#9965ff" stroke="#8b4fff" stroke-width="2"/><path d="M235.08232,180c0,-1.42016 1.15127,-2.57143 2.57143,-2.57143c1.42016,0 2.57143,1.15127 2.57143,2.57143c0,1.42016 -1.15127,2.57143 -2.57143,2.57143c-1.42016,0 -2.57143,-1.15127 -2.57143,-2.57143z" fill="#a172ff" stroke="none" stroke-width="0"/><path d="M239.83266,182.49705c0,0 1.16328,-1.52498 1.18453,-2.30411c0.02187,-0.802 -1.2277,-2.44124 -1.2277,-2.44124h4.29824v4.74536z" fill="#8b4fff" stroke="none" stroke-width="0"/><path d="M239.25013,180.99445v-1.75034h4.64351c0,0 0.36104,0.60207 0.36104,0.88819c0,0.29692 -0.36104,0.86214 -0.36104,0.86214z" fill="#a172ff" stroke="none" stroke-width="0"/></g></g></g></svg>