<svg version="1.1" xmlns="http://www.w3.org/2000/svg" xmlns:xlink="http://www.w3.org/1999/xlink" width="10.78277" height="30.85712" viewBox="0,0,10.78277,30.85712"><defs><linearGradient x1="240.22114" y1="167.88653" x2="240.22114" y2="176.54013" gradientUnits="userSpaceOnUse" id="color-1"><stop offset="0" stop-color="#000000"/><stop offset="1" stop-color="#000000" stop-opacity="0"/></linearGradient><linearGradient x1="240.22114" y1="167.88653" x2="240.22114" y2="176.54013" gradientUnits="userSpaceOnUse" id="color-2"><stop offset="0" stop-color="#000000"/><stop offset="1" stop-color="#000000" stop-opacity="0"/></linearGradient><linearGradient x1="240.18397" y1="185.80236" x2="240.18397" y2="194.45596" gradientUnits="userSpaceOnUse" id="color-3"><stop offset="0" stop-color="#000000"/><stop offset="1" stop-color="#000000" stop-opacity="0"/></linearGradient><linearGradient x1="240.18397" y1="185.80236" x2="240.18397" y2="194.45596" gradientUnits="userSpaceOnUse" id="color-4"><stop offset="0" stop-color="#000000"/><stop offset="1" stop-color="#000000" stop-opacity="0"/></linearGradient></defs><g transform="translate(-234.76518,-164.59885)"><g data-paper-data="{&quot;isPaintingLayer&quot;:true}" fill-rule="nonzero" stroke-linecap="butt" stroke-linejoin="miter" stroke-miterlimit="10" stroke-dasharray="" stroke-dashoffset="0" style="mix-blend-mode: normal"><g><path d="M235.89434,172.21333c0,-2.38962 1.93718,-4.3268 4.32681,-4.3268c2.38962,0 4.3268,1.93717 4.3268,4.3268c0,2.38962 -1.93718,4.32681 -4.3268,4.32681c-2.38962,0 -4.32681,-1.93718 -4.32681,-4.32681z" fill="url(#color-1)" stroke="url(#color-2)" stroke-width="2"/><path d="M235.80236,169.92565c0,-2.38963 1.93718,-4.3268 4.3268,-4.3268c2.38963,0 4.3268,1.93718 4.3268,4.3268c0,2.38963 -1.93718,4.3268 -4.3268,4.3268c-2.38963,0 -4.3268,-1.93718 -4.3268,-4.3268z" fill="#28123b" stroke="#28123b" stroke-width="2"/><path d="M237.99805,169.99023c0,-1.14131 0.92522,-2.06653 2.06653,-2.06653c1.14131,0 2.06653,0.92522 2.06653,2.06653c0,1.14131 -0.92522,2.06653 -2.06653,2.06653c-1.14131,0 -2.06653,-0.92522 -2.06653,-2.06653z" fill="#a97fff" stroke="#9966ff" stroke-width="0"/></g><g><path d="M235.85717,190.12916c0,-2.38962 1.93718,-4.3268 4.3268,-4.3268c2.38962,0 4.3268,1.93717 4.3268,4.3268c0,2.38962 -1.93718,4.32681 -4.3268,4.32681c-2.38962,0 -4.3268,-1.93718 -4.3268,-4.32681z" fill="url(#color-3)" stroke="url(#color-4)" stroke-width="2"/><path d="M235.76518,187.84148c0,-2.38962 1.93718,-4.3268 4.32681,-4.3268c2.38962,0 4.3268,1.93717 4.3268,4.3268c0,2.38962 -1.93718,4.32681 -4.3268,4.32681c-2.38962,0 -4.32681,-1.93718 -4.32681,-4.32681z" fill="#28123b" stroke="#28123b" stroke-width="2"/><path d="M237.96087,187.90606c0,-1.14131 0.92522,-2.06653 2.06653,-2.06653c1.14131,0 2.06653,0.92522 2.06653,2.06653c0,1.14131 -0.92522,2.06653 -2.06653,2.06653c-1.14131,0 -2.06653,-0.92522 -2.06653,-2.06653z" fill="#a97fff" stroke="#9966ff" stroke-width="0"/></g></g></g></svg>