<svg version="1.1" xmlns="http://www.w3.org/2000/svg" xmlns:xlink="http://www.w3.org/1999/xlink" width="137.77422" height="119.62744" viewBox="0,0,137.77422,119.62744"><defs><linearGradient x1="-118.66754" y1="-1015.04701" x2="-83.88442" y2="695.21506" gradientUnits="userSpaceOnUse" id="color-1"><stop offset="0" stop-color="#000000"/><stop offset="1" stop-color="#000000" stop-opacity="0"/></linearGradient><linearGradient x1="240.128" y1="134.23559" x2="240.128" y2="147.39257" gradientUnits="userSpaceOnUse" id="color-2"><stop offset="0" stop-color="#000000"/><stop offset="1" stop-color="#000000" stop-opacity="0"/></linearGradient><linearGradient x1="240.128" y1="134.23559" x2="240.128" y2="147.39257" gradientUnits="userSpaceOnUse" id="color-3"><stop offset="0" stop-color="#000000"/><stop offset="1" stop-color="#000000" stop-opacity="0"/></linearGradient><linearGradient x1="177.40397" y1="140.81408" x2="177.40397" y2="242.04724" gradientUnits="userSpaceOnUse" id="color-4"><stop offset="0" stop-color="#000000"/><stop offset="1" stop-color="#000000" stop-opacity="0"/></linearGradient><linearGradient x1="177.40397" y1="140.81408" x2="177.40397" y2="242.04724" gradientUnits="userSpaceOnUse" id="color-5"><stop offset="0" stop-color="#000000"/><stop offset="1" stop-color="#000000" stop-opacity="0"/></linearGradient><linearGradient x1="239.8242" y1="236.48504" x2="239.8242" y2="249.64202" gradientUnits="userSpaceOnUse" id="color-6"><stop offset="0" stop-color="#000000"/><stop offset="1" stop-color="#000000" stop-opacity="0"/></linearGradient><linearGradient x1="239.8242" y1="236.48504" x2="239.8242" y2="249.64202" gradientUnits="userSpaceOnUse" id="color-7"><stop offset="0" stop-color="#000000"/><stop offset="1" stop-color="#000000" stop-opacity="0"/></linearGradient><linearGradient x1="302.54828" y1="141.83038" x2="302.54828" y2="243.06353" gradientUnits="userSpaceOnUse" id="color-8"><stop offset="0" stop-color="#000000"/><stop offset="1" stop-color="#000000" stop-opacity="0"/></linearGradient><linearGradient x1="302.54828" y1="141.83038" x2="302.54828" y2="243.06353" gradientUnits="userSpaceOnUse" id="color-9"><stop offset="0" stop-color="#000000"/><stop offset="1" stop-color="#000000" stop-opacity="0"/></linearGradient><linearGradient x1="259.53031" y1="172.89507" x2="259.53031" y2="211.3699" gradientUnits="userSpaceOnUse" id="color-10"><stop offset="0" stop-color="#000000"/><stop offset="1" stop-color="#000000" stop-opacity="0"/></linearGradient><linearGradient x1="259.40254" y1="172.80328" x2="259.40254" y2="211.27812" gradientUnits="userSpaceOnUse" id="color-11"><stop offset="0" stop-color="#000000"/><stop offset="1" stop-color="#000000" stop-opacity="0"/></linearGradient><linearGradient x1="243.16982" y1="165.93945" x2="243.16982" y2="179.43945" gradientUnits="userSpaceOnUse" id="color-12"><stop offset="0" stop-color="#000000"/><stop offset="1" stop-color="#000000" stop-opacity="0"/></linearGradient><linearGradient x1="244.8772" y1="169.83861" x2="244.8772" y2="175.33861" gradientUnits="userSpaceOnUse" id="color-13"><stop offset="0" stop-color="#000000"/><stop offset="1" stop-color="#000000" stop-opacity="0"/></linearGradient><linearGradient x1="215.48778" y1="206.98194" x2="215.48778" y2="214.98194" gradientUnits="userSpaceOnUse" id="color-14"><stop offset="0" stop-color="#000000"/><stop offset="1" stop-color="#000000" stop-opacity="0"/></linearGradient><linearGradient x1="215.48778" y1="206.98194" x2="215.48778" y2="214.98194" gradientUnits="userSpaceOnUse" id="color-15"><stop offset="0" stop-color="#000000"/><stop offset="1" stop-color="#000000" stop-opacity="0"/></linearGradient><linearGradient x1="222.26452" y1="206.89778" x2="222.26452" y2="214.89778" gradientUnits="userSpaceOnUse" id="color-16"><stop offset="0" stop-color="#000000"/><stop offset="1" stop-color="#000000" stop-opacity="0"/></linearGradient><linearGradient x1="222.26452" y1="206.89778" x2="222.26452" y2="214.89778" gradientUnits="userSpaceOnUse" id="color-17"><stop offset="0" stop-color="#000000"/><stop offset="1" stop-color="#000000" stop-opacity="0"/></linearGradient><linearGradient x1="226.67816" y1="172.89375" x2="226.67816" y2="211.36859" gradientUnits="userSpaceOnUse" id="color-18"><stop offset="0" stop-color="#000000"/><stop offset="1" stop-color="#000000" stop-opacity="0"/></linearGradient><linearGradient x1="226.55039" y1="172.80196" x2="226.55039" y2="211.2768" gradientUnits="userSpaceOnUse" id="color-19"><stop offset="0" stop-color="#000000"/><stop offset="1" stop-color="#000000" stop-opacity="0"/></linearGradient><linearGradient x1="248.33992" y1="206.98326" x2="248.33992" y2="214.98326" gradientUnits="userSpaceOnUse" id="color-20"><stop offset="0" stop-color="#000000"/><stop offset="1" stop-color="#000000" stop-opacity="0"/></linearGradient><linearGradient x1="248.33992" y1="206.98326" x2="248.33992" y2="214.98326" gradientUnits="userSpaceOnUse" id="color-21"><stop offset="0" stop-color="#000000"/><stop offset="1" stop-color="#000000" stop-opacity="0"/></linearGradient><linearGradient x1="255.11663" y1="206.8991" x2="255.11663" y2="214.8991" gradientUnits="userSpaceOnUse" id="color-22"><stop offset="0" stop-color="#000000"/><stop offset="1" stop-color="#000000" stop-opacity="0"/></linearGradient><linearGradient x1="255.11664" y1="206.89911" x2="255.11664" y2="214.89911" gradientUnits="userSpaceOnUse" id="color-23"><stop offset="0" stop-color="#000000"/><stop offset="1" stop-color="#000000" stop-opacity="0"/></linearGradient><linearGradient x1="240.20286" y1="168.71242" x2="240.20286" y2="216.57711" gradientUnits="userSpaceOnUse" id="color-24"><stop offset="0" stop-color="#000000"/><stop offset="1" stop-color="#000000" stop-opacity="0"/></linearGradient></defs><g transform="translate(-171.15397,-129.68609)"><g data-paper-data="{&quot;isPaintingLayer&quot;:true}" fill-rule="nonzero" stroke-linejoin="miter" stroke-miterlimit="10" stroke-dasharray="" stroke-dashoffset="0" style="mix-blend-mode: normal"><path d="M178.29088,236.11065l-0.96904,-98.60731l124.65311,-2.09515l0.63183,98.7816z" fill="url(#color-1)" stroke="none" stroke-width="0" stroke-linecap="butt"/><g stroke-linecap="round"><g stroke-width="12.5"><path d="M178.29754,140.81408h123.66096" fill="url(#color-2)" stroke="url(#color-3)"/><path d="M177.40397,140.81408v101.23316" fill="url(#color-4)" stroke="url(#color-5)"/><path d="M301.65468,243.06353h-123.66095" data-paper-data="{&quot;index&quot;:null}" fill="url(#color-6)" stroke="url(#color-7)"/><path d="M302.54828,141.83039v101.23314" data-paper-data="{&quot;index&quot;:null}" fill="url(#color-8)" stroke="url(#color-9)"/></g><g fill="none" stroke="#28123b" stroke-width="12.5"><path d="M302.08842,136.00852h-123.66096"/><path d="M177.5339,136.00852v101.23315"/><path d="M301.78461,238.25797h-123.66095" data-paper-data="{&quot;index&quot;:null}"/><path d="M302.67819,238.25797v-101.23315" data-paper-data="{&quot;index&quot;:null}"/></g><g fill="none" stroke="#8b4fff" stroke-width="4.5"><path d="M302.08842,136.00852h-123.66096"/><path d="M177.5339,136.00852v101.23315"/><path d="M301.78461,238.25797h-123.66095" data-paper-data="{&quot;index&quot;:null}"/><path d="M302.67819,238.25797v-101.23315" data-paper-data="{&quot;index&quot;:null}"/></g></g><g fill="none" stroke-linecap="round"><g stroke="#28123b" stroke-width="12.5"><path d="M301.98246,135.93609h-123.66096"/><path d="M177.42788,135.93609v100.31483"/><path d="M178.01769,237.25798h123.66096" data-paper-data="{&quot;index&quot;:null}"/><path d="M302.57219,237.25798v-100.31482" data-paper-data="{&quot;index&quot;:null}"/></g><g stroke="#8b4fff" stroke-width="4.5"><path d="M301.98246,135.93609h-123.66096"/><path d="M177.42788,135.93609v100.31483"/><path d="M178.01769,237.25798h123.66096" data-paper-data="{&quot;index&quot;:null}"/><path d="M302.57219,237.25798v-100.31482" data-paper-data="{&quot;index&quot;:null}"/></g></g><g fill="none" stroke="none" stroke-width="1" stroke-linecap="butt" font-family="sans-serif" font-weight="normal" font-size="12" text-anchor="start"><g/><g/></g><g><g fill="none" stroke-linecap="round"><path d="M259.61407,211.3699l-0.16753,-38.47483" data-paper-data="{&quot;index&quot;:null}" stroke="url(#color-10)" stroke-width="13.5"/><path d="M259.31877,172.80328c0,0 0.13034,29.93181 0.15388,35.33904c0.00701,1.61072 0.01365,3.1358 0.01365,3.1358" data-paper-data="{&quot;index&quot;:null}" stroke="url(#color-11)" stroke-width="5.5"/></g><g><g fill="none" stroke-linecap="round"><path d="M228.05422,172.84757l30.23118,-0.31624" data-paper-data="{&quot;index&quot;:null}" stroke="url(#color-12)" stroke-width="13.5"/><path d="M228.12574,172.74673c0,0 1.19831,-0.01253 2.46392,-0.02577c4.24867,-0.04444 31.039,-0.29047 31.039,-0.29047" data-paper-data="{&quot;index&quot;:null}" stroke="url(#color-13)" stroke-width="5.5"/></g><g stroke-width="8" stroke-linecap="butt"><path d="M212.1122,210.98194c0,-1.86428 1.5113,-3.37559 3.37559,-3.37559c1.86428,0 3.37559,1.5113 3.37559,3.37559c0,1.86428 -1.5113,3.37559 -3.37559,3.37559c-1.86428,0 -3.37559,-1.51131 -3.37559,-3.37559z" fill="url(#color-14)" stroke="url(#color-15)"/><path d="M219.56631,214.13563l-0.53964,-6.47569h6.4757l-1.7894,6.47569z" fill="url(#color-16)" stroke="url(#color-17)"/></g><g fill="none" stroke-linecap="round"><path d="M226.5944,172.89375l0.16753,38.47484" data-paper-data="{&quot;index&quot;:null}" stroke="url(#color-18)" stroke-width="13.5"/><path d="M226.63417,211.2768c0,0 -0.00664,-1.52508 -0.01366,-3.1358c-0.02354,-5.40723 -0.15388,-35.33904 -0.15388,-35.33904" data-paper-data="{&quot;index&quot;:null}" stroke="url(#color-19)" stroke-width="5.5"/></g><g stroke-width="8" stroke-linecap="butt"><path d="M244.96432,210.98326c0,-1.86428 1.5113,-3.37559 3.37559,-3.37559c1.86428,0 3.37559,1.5113 3.37559,3.37559c0,1.86428 -1.5113,3.37559 -3.37559,3.37559c-1.86428,0 -3.37559,-1.5113 -3.37559,-3.37559z" fill="url(#color-20)" stroke="url(#color-21)"/><path d="M252.41844,214.13695l-0.53964,-6.47569h6.47569l-1.7894,6.47569z" fill="url(#color-22)" stroke="url(#color-23)"/></g></g></g><g><g fill="none" stroke-linecap="round"><path d="M258.08925,167.1618l-30.23118,0.31624" data-paper-data="{&quot;index&quot;:null}" stroke="#28123b" stroke-width="13.5"/><path d="M227.92958,167.3772c0,0 1.19831,-0.01253 2.46392,-0.02577c4.24867,-0.04444 31.039,-0.29047 31.039,-0.29047" data-paper-data="{&quot;index&quot;:null}" stroke="#8b4fff" stroke-width="5.5"/></g><g><g fill="#8b4fff" stroke="#28123b" stroke-width="8" stroke-linecap="butt"><path d="M211.91605,205.61241c0,-1.86428 1.5113,-3.37559 3.37559,-3.37559c1.86428,0 3.37559,1.5113 3.37559,3.37559c0,1.86428 -1.5113,3.37559 -3.37559,3.37559c-1.86428,0 -3.37559,-1.51131 -3.37559,-3.37559z"/><path d="M219.37016,208.7661l-0.53964,-6.47569h6.4757l-1.7894,6.47569z"/></g><g fill="none" stroke-linecap="round"><path d="M226.39824,167.52422l0.16753,38.47484" data-paper-data="{&quot;index&quot;:null}" stroke="#28123b" stroke-width="13.5"/><path d="M226.43801,205.90727c0,0 -0.00664,-1.52508 -0.01366,-3.1358c-0.02354,-5.40723 -0.15388,-35.33904 -0.15388,-35.33904" data-paper-data="{&quot;index&quot;:null}" stroke="#8b4fff" stroke-width="5.5"/></g><g fill="#8b4fff" stroke="none" stroke-linecap="butt"><path d="M212.78821,205.58988c0,-1.86428 1.5113,-3.37559 3.37559,-3.37559c1.86428,0 3.37559,1.5113 3.37559,3.37559c0,1.86428 -1.51131,3.37559 -3.37559,3.37559c-1.86428,0 -3.37559,-1.51131 -3.37559,-3.37559z" stroke-width="NaN"/><path d="M216.73465,208.74357v-6.47569h9.44372v6.47569z" stroke-width="0"/></g></g><g><g fill="#8b4fff" stroke="#28123b" stroke-width="8" stroke-linecap="butt"><path d="M244.76818,205.24421c0,-1.86428 1.5113,-3.37559 3.37559,-3.37559c1.86428,0 3.37559,1.5113 3.37559,3.37559c0,1.86428 -1.5113,3.37559 -3.37559,3.37559c-1.86428,0 -3.37559,-1.5113 -3.37559,-3.37559z"/><path d="M252.22229,208.3979l-0.53964,-6.47569h6.47569l-1.7894,6.47569z"/></g><g fill="none" stroke-linecap="round"><path d="M259.41792,205.63085l-0.16753,-38.47483" data-paper-data="{&quot;index&quot;:null}" stroke="#28123b" stroke-width="13.5"/><path d="M259.12262,167.06423c0,0 0.13034,29.93181 0.15388,35.33904c0.00701,1.61072 0.01365,3.1358 0.01365,3.1358" data-paper-data="{&quot;index&quot;:null}" stroke="#8b4fff" stroke-width="5.5"/></g><g fill="#8b4fff" stroke="none" stroke-linecap="butt"><path d="M245.64035,205.22169c0,-1.86428 1.5113,-3.37559 3.37559,-3.37559c1.86428,0 3.37559,1.5113 3.37559,3.37559c0,1.86428 -1.51131,3.37559 -3.37559,3.37559c-1.86428,0 -3.37559,-1.5113 -3.37559,-3.37559z" stroke-width="NaN"/><path d="M249.5868,208.37538v-6.47569h9.44372v6.47569z" stroke-width="0"/></g></g><path d="M225.9093,170.13097l-0.02538,-5.45369l33.45741,-0.36232l0.02538,5.66617z" fill="#8b4fff" stroke="none" stroke-width="NaN" stroke-linecap="butt"/></g><g fill="none" stroke-linecap="round"><path d="M216.27794,168.71242l47.84984,47.86469" stroke="url(#color-24)" stroke-width="13.5"/><path d="M264.12778,211.24378l-47.84984,-47.86469" stroke="#28123b" stroke-width="13.5"/><path d="M216.61127,163.37909l47.84984,47.86469" stroke="#8b4fff" stroke-width="5.5"/></g></g></g></svg>