<svg version="1.1" xmlns="http://www.w3.org/2000/svg" xmlns:xlink="http://www.w3.org/1999/xlink" width="310.59403" height="88.58022" viewBox="0,0,310.59403,88.58022"><defs><linearGradient x1="-620.19915" y1="-674.70408" x2="-536.8382" y2="540.71885" gradientUnits="userSpaceOnUse" id="color-1"><stop offset="0" stop-color="#000000"/><stop offset="1" stop-color="#000000" stop-opacity="0"/></linearGradient><linearGradient x1="241.99407" y1="140.6999" x2="241.99407" y2="150.0501" gradientUnits="userSpaceOnUse" id="color-2"><stop offset="0" stop-color="#000000"/><stop offset="1" stop-color="#000000" stop-opacity="0"/></linearGradient><linearGradient x1="241.99407" y1="140.6999" x2="241.99407" y2="150.0501" gradientUnits="userSpaceOnUse" id="color-3"><stop offset="0" stop-color="#000000"/><stop offset="1" stop-color="#000000" stop-opacity="0"/></linearGradient><linearGradient x1="92.74021" y1="145.37501" x2="92.74021" y2="217.31787" gradientUnits="userSpaceOnUse" id="color-4"><stop offset="0" stop-color="#000000"/><stop offset="1" stop-color="#000000" stop-opacity="0"/></linearGradient><linearGradient x1="92.74021" y1="145.37501" x2="92.74021" y2="217.31787" gradientUnits="userSpaceOnUse" id="color-5"><stop offset="0" stop-color="#000000"/><stop offset="1" stop-color="#000000" stop-opacity="0"/></linearGradient><linearGradient x1="241.27118" y1="213.36499" x2="241.27118" y2="222.71519" gradientUnits="userSpaceOnUse" id="color-6"><stop offset="0" stop-color="#000000"/><stop offset="1" stop-color="#000000" stop-opacity="0"/></linearGradient><linearGradient x1="241.27118" y1="213.36499" x2="241.27118" y2="222.71519" gradientUnits="userSpaceOnUse" id="color-7"><stop offset="0" stop-color="#000000"/><stop offset="1" stop-color="#000000" stop-opacity="0"/></linearGradient><linearGradient x1="390.52506" y1="146.09726" x2="390.52506" y2="218.04011" gradientUnits="userSpaceOnUse" id="color-8"><stop offset="0" stop-color="#000000"/><stop offset="1" stop-color="#000000" stop-opacity="0"/></linearGradient><linearGradient x1="390.52506" y1="146.09726" x2="390.52506" y2="218.04011" gradientUnits="userSpaceOnUse" id="color-9"><stop offset="0" stop-color="#000000"/><stop offset="1" stop-color="#000000" stop-opacity="0"/></linearGradient><linearGradient x1="246.09502" y1="163.23863" x2="246.09502" y2="202.11862" gradientUnits="userSpaceOnUse" id="color-10"><stop offset="0" stop-color="#000000"/><stop offset="1" stop-color="#000000" stop-opacity="0"/></linearGradient><linearGradient x1="246.09502" y1="163.23863" x2="246.09502" y2="202.11862" gradientUnits="userSpaceOnUse" id="color-11"><stop offset="0" stop-color="#000000"/><stop offset="1" stop-color="#000000" stop-opacity="0"/></linearGradient></defs><g transform="translate(-86.4902,-135.70989)"><g data-paper-data="{&quot;isPaintingLayer&quot;:true}" fill-rule="nonzero" stroke-linejoin="miter" stroke-miterlimit="10" stroke-dasharray="" stroke-dashoffset="0" style="mix-blend-mode: normal"><g><path d="M91.48823,214.44951l-2.3224,-70.07674l298.74229,-1.48895l1.51424,70.2006z" fill="url(#color-1)" stroke="none" stroke-width="0" stroke-linecap="butt"/><g stroke-linecap="round"><g stroke-width="12.5"><path d="M94.86652,145.37501h294.25513" fill="url(#color-2)" stroke="url(#color-3)"/><path d="M92.74021,145.37502v71.94284" fill="url(#color-4)" stroke="url(#color-5)"/><path d="M94.14362,218.04011h294.25513" data-paper-data="{&quot;index&quot;:null}" fill="url(#color-6)" stroke="url(#color-7)"/><path d="M390.52506,146.09728v71.94283" data-paper-data="{&quot;index&quot;:null}" fill="url(#color-8)" stroke="url(#color-9)"/></g><g fill="none" stroke="#28123b" stroke-width="12.5"><path d="M389.43083,141.95989h-294.25513"/><path d="M93.04938,141.95989v71.94283"/><path d="M94.4528,214.62496h294.25513" data-paper-data="{&quot;index&quot;:null}"/><path d="M390.83424,214.62496v-71.94283" data-paper-data="{&quot;index&quot;:null}"/></g><g fill="none" stroke="#8b4fff" stroke-width="4.5"><path d="M95.17571,141.95989h294.25513"/><path d="M93.04938,141.95989v71.94283"/><path d="M94.4528,214.62496h294.25513" data-paper-data="{&quot;index&quot;:null}"/><path d="M390.83424,214.62496v-71.94283" data-paper-data="{&quot;index&quot;:null}"/></g></g></g><g stroke-linecap="square"><path d="M184.78158,201.62982c-0.70569,0 -1.30278,-0.24427 -1.79132,-0.73281c-0.48854,-0.48854 -0.73281,-1.08566 -0.73281,-1.79132v-32.89519c0,-0.75996 0.24427,-1.37063 0.73281,-1.83202c0.48854,-0.48854 1.08563,-0.73281 1.79132,-0.73281h21.98441c0.75994,0 1.35708,0.2307 1.79132,0.69211c0.46143,0.43427 0.69211,1.00423 0.69211,1.7099c0,0.67854 -0.2307,1.23494 -0.6921,1.6692c-0.43424,0.40712 -1.03138,0.61069 -1.79132,0.61069h-19.41955v11.80644h13.92346c0.75994,0 1.35708,0.21711 1.79132,0.65138c0.46143,0.43427 0.69211,1.00424 0.69211,1.70991c0,0.67854 -0.2307,1.23493 -0.69209,1.66919c-0.43424,0.43427 -1.03139,0.65139 -1.79132,0.65139h-13.92346v12.13214h19.41957c0.75994,0 1.35708,0.21711 1.79132,0.65139c0.46143,0.40712 0.69211,0.94993 0.69211,1.62847c0,0.73281 -0.2307,1.31636 -0.6921,1.75063c-0.43424,0.43427 -1.03138,0.65138 -1.79132,0.65138zM214.77808,201.62982c-0.89567,0 -1.58775,-0.37997 -2.07629,-1.13993c-0.48854,-0.78708 -0.54284,-1.62847 -0.16285,-2.52414l13.67918,-32.6102c0.48854,-1.13993 1.27564,-1.7099 2.36129,-1.7099c1.16708,0 1.96774,0.56997 2.40201,1.7099l13.71992,32.73234c0.35285,0.89567 0.285,1.7099 -0.20355,2.44271c-0.46139,0.73281 -1.15351,1.09923 -2.07629,1.09923c-0.48854,0 -0.96351,-0.1357 -1.4249,-0.40712c-0.43427,-0.27142 -0.7464,-0.6514 -0.93636,-1.13993l-12.05072,-29.96394h1.3842l-12.25426,29.96394c-0.24426,0.51569 -0.58355,0.90923 -1.01778,1.18066c-0.43424,0.24426 -0.88209,0.36642 -1.34348,0.36642zM217.38365,193.28389l1.91347,-4.19331h19.05316l1.95417,4.19333zM262.54864,202.11834c-2.08987,0 -4.07118,-0.3257 -5.94394,-0.97708c-1.87274,-0.65139 -3.5148,-1.56062 -4.92612,-2.72768c-1.3842,-1.16708 -2.40199,-2.51057 -3.05337,-4.03047c-0.3257,-0.67854 -0.3257,-1.30278 0,-1.87274c0.35285,-0.59712 0.93638,-0.97708 1.75062,-1.13993c0.59712,-0.1357 1.16708,-0.04071 1.7099,0.285c0.56997,0.29855 1.00423,0.75996 1.30278,1.3842c0.37998,0.81423 1.01781,1.56062 1.91348,2.23916c0.89567,0.67854 1.96774,1.23493 3.21625,1.6692c1.27563,0.40712 2.61914,0.61069 4.03049,0.61069c1.54705,0 2.97199,-0.24427 4.27475,-0.73281c1.32993,-0.48854 2.38844,-1.1942 3.17552,-2.11702c0.81423,-0.92281 1.22135,-2.06274 1.22135,-3.41979c0,-1.73705 -0.67854,-3.2841 -2.03559,-4.64115c-1.32993,-1.35704 -3.52837,-2.19844 -6.59532,-2.52414c-4.01692,-0.37998 -7.17886,-1.56063 -9.48585,-3.54192c-2.30701,-1.98133 -3.4605,-4.42403 -3.4605,-7.32813c0,-2.14417 0.59712,-3.96262 1.79132,-5.45539c1.1942,-1.49278 2.82268,-2.61913 4.88543,-3.37908c2.06274,-0.78708 4.35618,-1.18064 6.88032,-1.18064c1.98133,0 3.7048,0.27142 5.17042,0.81423c1.49278,0.54282 2.78198,1.30278 3.86764,2.27987c1.11278,0.97708 2.07632,2.13058 2.89056,3.46052c0.43427,0.70566 0.6107,1.3842 0.52927,2.0356c-0.05427,0.62424 -0.36639,1.11278 -0.93636,1.46563c-0.59712,0.37998 -1.26205,0.46139 -1.99487,0.24426c-0.70566,-0.21711 -1.23494,-0.63781 -1.58775,-1.26205c-0.51569,-0.94993 -1.15352,-1.7506 -1.91344,-2.40199c-0.73281,-0.65139 -1.60133,-1.15352 -2.60557,-1.50632c-1.00423,-0.37998 -2.18486,-0.56997 -3.54192,-0.56997c-2.41556,-0.02715 -4.43758,0.42069 -6.06605,1.34351c-1.60133,0.92281 -2.40199,2.33414 -2.40199,4.23404c0,0.97708 0.24427,1.91347 0.73281,2.80913c0.51569,0.89567 1.43849,1.6692 2.76841,2.3206c1.35704,0.65139 3.29766,1.09923 5.8218,1.3435c3.85407,0.37998 6.85318,1.56062 8.99734,3.54195c2.1713,1.95417 3.25695,4.53258 3.25695,7.73526c0,1.84559 -0.37997,3.44695 -1.13993,4.804c-0.75996,1.35704 -1.77775,2.51057 -3.05338,3.46053c-1.27563,0.92281 -2.74125,1.61489 -4.39689,2.07632c-1.62847,0.43427 -3.31123,0.65139 -5.04827,0.65139zM293.84113,201.62982c-0.67854,0 -1.26205,-0.24427 -1.7506,-0.73281c-0.48854,-0.48854 -0.73281,-1.08566 -0.73281,-1.79132v-11.3179l-12.98708,-20.19308c-0.40712,-0.67854 -0.56997,-1.31636 -0.48854,-1.91345c0.10857,-0.59712 0.39354,-1.08566 0.85497,-1.46563c0.46139,-0.37998 1.00423,-0.56997 1.62847,-0.56997c0.54282,0 0.97708,0.12215 1.30278,0.36642c0.3257,0.24426 0.63782,0.59712 0.93638,1.05851l12.33571,19.58242h-1.95417l12.57998,-19.78596c0.24427,-0.37998 0.54284,-0.67854 0.89566,-0.89567c0.35282,-0.21711 0.78711,-0.3257 1.30278,-0.3257c0.59709,0 1.08563,0.20357 1.46563,0.6107c0.40712,0.40712 0.63781,0.92281 0.69211,1.54705c0.0543,0.59712 -0.10854,1.1942 -0.48854,1.79132l-13.0685,20.19309v11.3179c0,0.70566 -0.24427,1.30278 -0.73281,1.79132c-0.48854,0.48854 -1.08566,0.7328 -1.79132,0.7328z" fill="url(#color-10)" stroke="url(#color-11)" stroke-width="8.5"/><path d="M184.78158,197.38628c-0.70569,0 -1.30278,-0.24427 -1.79132,-0.73281c-0.48854,-0.48854 -0.73281,-1.08566 -0.73281,-1.79132v-32.89519c0,-0.75996 0.24427,-1.37063 0.73281,-1.83202c0.48854,-0.48854 1.08563,-0.73281 1.79132,-0.73281h21.98441c0.75994,0 1.35708,0.2307 1.79132,0.69211c0.46143,0.43427 0.69211,1.00423 0.69211,1.7099c0,0.67854 -0.2307,1.23494 -0.6921,1.6692c-0.43424,0.40712 -1.03138,0.61069 -1.79132,0.61069h-19.41955v11.80644h13.92346c0.75994,0 1.35708,0.21711 1.79132,0.65138c0.46143,0.43427 0.69211,1.00424 0.69211,1.70991c0,0.67854 -0.2307,1.23493 -0.69209,1.66919c-0.43424,0.43427 -1.03139,0.65139 -1.79132,0.65139h-13.92346v12.13214h19.41957c0.75994,0 1.35708,0.21711 1.79132,0.65139c0.46143,0.40712 0.69211,0.94993 0.69211,1.62847c0,0.73281 -0.2307,1.31636 -0.6921,1.75063c-0.43424,0.43427 -1.03138,0.65138 -1.79132,0.65138zM214.77808,197.38628c-0.89567,0 -1.58775,-0.37997 -2.07629,-1.13993c-0.48854,-0.78708 -0.54284,-1.62847 -0.16285,-2.52414l13.67918,-32.6102c0.48854,-1.13993 1.27564,-1.7099 2.36129,-1.7099c1.16708,0 1.96774,0.56997 2.40201,1.7099l13.71992,32.73234c0.35285,0.89567 0.285,1.7099 -0.20355,2.44271c-0.46139,0.73281 -1.15351,1.09923 -2.07629,1.09923c-0.48854,0 -0.96351,-0.1357 -1.4249,-0.40712c-0.43427,-0.27142 -0.7464,-0.6514 -0.93636,-1.13993l-12.05072,-29.96394h1.3842l-12.25426,29.96394c-0.24426,0.51569 -0.58355,0.90923 -1.01778,1.18066c-0.43424,0.24426 -0.88209,0.36642 -1.34348,0.36642zM217.38365,189.04036l1.91347,-4.19331h19.05316l1.95417,4.19333zM262.54864,197.8748c-2.08987,0 -4.07118,-0.3257 -5.94394,-0.97708c-1.87274,-0.65139 -3.5148,-1.56062 -4.92612,-2.72768c-1.3842,-1.16708 -2.40199,-2.51057 -3.05337,-4.03047c-0.3257,-0.67854 -0.3257,-1.30278 0,-1.87274c0.35285,-0.59712 0.93638,-0.97708 1.75062,-1.13993c0.59712,-0.1357 1.16708,-0.04071 1.7099,0.285c0.56997,0.29855 1.00423,0.75996 1.30278,1.3842c0.37998,0.81423 1.01781,1.56062 1.91348,2.23916c0.89567,0.67854 1.96774,1.23493 3.21625,1.6692c1.27563,0.40712 2.61914,0.61069 4.03049,0.61069c1.54705,0 2.97199,-0.24427 4.27475,-0.73281c1.32993,-0.48854 2.38844,-1.1942 3.17552,-2.11702c0.81423,-0.92281 1.22135,-2.06274 1.22135,-3.41979c0,-1.73705 -0.67854,-3.2841 -2.03559,-4.64115c-1.32993,-1.35704 -3.52837,-2.19844 -6.59532,-2.52414c-4.01692,-0.37998 -7.17886,-1.56063 -9.48585,-3.54192c-2.30701,-1.98133 -3.4605,-4.42403 -3.4605,-7.32813c0,-2.14417 0.59712,-3.96262 1.79132,-5.45539c1.1942,-1.49278 2.82268,-2.61913 4.88543,-3.37908c2.06274,-0.78708 4.35618,-1.18064 6.88032,-1.18064c1.98133,0 3.7048,0.27142 5.17042,0.81423c1.49278,0.54282 2.78198,1.30278 3.86764,2.27987c1.11278,0.97708 2.07632,2.13058 2.89056,3.46052c0.43427,0.70566 0.6107,1.3842 0.52927,2.0356c-0.05427,0.62424 -0.36639,1.11278 -0.93636,1.46563c-0.59712,0.37998 -1.26205,0.46139 -1.99487,0.24426c-0.70566,-0.21711 -1.23494,-0.63781 -1.58775,-1.26205c-0.51569,-0.94993 -1.15352,-1.7506 -1.91344,-2.40199c-0.73281,-0.65139 -1.60133,-1.15352 -2.60557,-1.50632c-1.00423,-0.37998 -2.18486,-0.56997 -3.54192,-0.56997c-2.41556,-0.02715 -4.43758,0.42069 -6.06605,1.34351c-1.60133,0.92281 -2.40199,2.33414 -2.40199,4.23404c0,0.97708 0.24427,1.91347 0.73281,2.80913c0.51569,0.89567 1.43849,1.6692 2.76841,2.3206c1.35704,0.65139 3.29766,1.09923 5.8218,1.3435c3.85407,0.37998 6.85318,1.56062 8.99734,3.54195c2.1713,1.95417 3.25695,4.53258 3.25695,7.73526c0,1.84559 -0.37997,3.44695 -1.13993,4.804c-0.75996,1.35704 -1.77775,2.51057 -3.05338,3.46053c-1.27563,0.92281 -2.74125,1.61489 -4.39689,2.07632c-1.62847,0.43427 -3.31123,0.65139 -5.04827,0.65139zM293.84113,197.38628c-0.67854,0 -1.26205,-0.24427 -1.7506,-0.73281c-0.48854,-0.48854 -0.73281,-1.08566 -0.73281,-1.79132v-11.3179l-12.98708,-20.19308c-0.40712,-0.67854 -0.56997,-1.31636 -0.48854,-1.91345c0.10857,-0.59712 0.39354,-1.08566 0.85497,-1.46563c0.46139,-0.37998 1.00423,-0.56997 1.62847,-0.56997c0.54282,0 0.97708,0.12215 1.30278,0.36642c0.3257,0.24426 0.63782,0.59712 0.93638,1.05851l12.33571,19.58242h-1.95417l12.57998,-19.78596c0.24427,-0.37998 0.54284,-0.67854 0.89566,-0.89567c0.35282,-0.21711 0.78711,-0.3257 1.30278,-0.3257c0.59709,0 1.08563,0.20357 1.46563,0.6107c0.40712,0.40712 0.63781,0.92281 0.69211,1.54705c0.0543,0.59712 -0.10854,1.1942 -0.48854,1.79132l-13.0685,20.19309v11.3179c0,0.70566 -0.24427,1.30278 -0.73281,1.79132c-0.48854,0.48854 -1.08566,0.7328 -1.79132,0.7328z" fill="#8b4fff" stroke="#28123b" stroke-width="8.5"/><path d="M185.20593,196.96193c-0.70569,0 -1.30278,-0.24427 -1.79132,-0.73281c-0.48854,-0.48854 -0.73281,-1.08566 -0.73281,-1.79132v-32.8952c0,-0.75996 0.24427,-1.37063 0.73281,-1.83202c0.48854,-0.48854 1.08563,-0.7328 1.79132,-0.7328h21.98441c0.75994,0 1.35708,0.23069 1.79132,0.69211c0.46143,0.43427 0.69211,1.00424 0.69211,1.7099c0,0.67854 -0.2307,1.23493 -0.69209,1.6692c-0.43424,0.40712 -1.03138,0.6107 -1.79132,0.6107h-19.41955v11.80644h13.92346c0.75994,0 1.35708,0.21711 1.79132,0.65139c0.46143,0.43427 0.69211,1.00423 0.69211,1.7099c0,0.67854 -0.2307,1.23493 -0.69209,1.6692c-0.43424,0.43427 -1.03139,0.65139 -1.79132,0.65139h-13.92346v12.13213h19.41957c0.75994,0 1.35708,0.21712 1.79132,0.65139c0.46143,0.40712 0.69211,0.94993 0.69211,1.62847c0,0.73281 -0.2307,1.31635 -0.6921,1.75063c-0.43424,0.43427 -1.03138,0.65139 -1.79132,0.65139zM215.20244,196.96193c-0.89567,0 -1.58775,-0.37997 -2.07629,-1.13993c-0.48854,-0.78708 -0.54284,-1.62847 -0.16285,-2.52414l13.67918,-32.6102c0.48854,-1.13993 1.27563,-1.7099 2.36129,-1.7099c1.16708,0 1.96774,0.56997 2.40202,1.7099l13.71992,32.73234c0.35285,0.89567 0.285,1.7099 -0.20355,2.44271c-0.46139,0.73281 -1.15351,1.09923 -2.07629,1.09923c-0.48854,0 -0.96351,-0.1357 -1.4249,-0.40712c-0.43427,-0.27142 -0.7464,-0.65139 -0.93636,-1.13993l-12.05072,-29.96394h1.3842l-12.25426,29.96394c-0.24426,0.51569 -0.58355,0.90923 -1.01778,1.18066c-0.43424,0.24426 -0.88209,0.36642 -1.34348,0.36642zM217.808,188.61601l1.91347,-4.19331h19.05316l1.95417,4.19333zM262.97299,197.45044c-2.08987,0 -4.07118,-0.3257 -5.94394,-0.97709c-1.87274,-0.65139 -3.5148,-1.56062 -4.92612,-2.72768c-1.3842,-1.16708 -2.40199,-2.51056 -3.05337,-4.03047c-0.3257,-0.67854 -0.3257,-1.30278 0,-1.87274c0.35285,-0.59712 0.93638,-0.97708 1.75062,-1.13993c0.59712,-0.1357 1.16708,-0.04071 1.7099,0.285c0.56997,0.29855 1.00423,0.75995 1.30278,1.3842c0.37998,0.81423 1.01781,1.56062 1.91348,2.23916c0.89567,0.67854 1.96774,1.23493 3.21625,1.66919c1.27563,0.40712 2.61914,0.6107 4.03049,0.6107c1.54705,0 2.97199,-0.24427 4.27475,-0.73281c1.32993,-0.48854 2.38844,-1.1942 3.17552,-2.11702c0.81423,-0.92281 1.22135,-2.06275 1.22135,-3.4198c0,-1.73705 -0.67854,-3.2841 -2.03559,-4.64115c-1.32993,-1.35704 -3.52837,-2.19845 -6.59532,-2.52414c-4.01692,-0.37998 -7.17886,-1.56062 -9.48585,-3.54192c-2.30701,-1.98133 -3.4605,-4.42404 -3.4605,-7.32814c0,-2.14417 0.59712,-3.96261 1.79132,-5.45539c1.1942,-1.49278 2.82268,-2.61913 4.88543,-3.37908c2.06274,-0.78708 4.35618,-1.18064 6.88032,-1.18064c1.98133,0 3.7048,0.27142 5.17042,0.81424c1.49278,0.54282 2.78198,1.30278 3.86764,2.27986c1.11278,0.97708 2.07632,2.13059 2.89056,3.46053c0.43427,0.70566 0.6107,1.3842 0.52927,2.03559c-0.05427,0.62424 -0.36639,1.11278 -0.93636,1.46563c-0.59712,0.37998 -1.26205,0.46139 -1.99487,0.24426c-0.70566,-0.21711 -1.23494,-0.63781 -1.58775,-1.26205c-0.51569,-0.94993 -1.15352,-1.7506 -1.91345,-2.40199c-0.73281,-0.65139 -1.60132,-1.15352 -2.60557,-1.50632c-1.00423,-0.37998 -2.18486,-0.56997 -3.54192,-0.56997c-2.41556,-0.02715 -4.43758,0.42069 -6.06605,1.3435c-1.60133,0.92281 -2.40199,2.33414 -2.40199,4.23404c0,0.97708 0.24427,1.91347 0.73281,2.80913c0.51569,0.89567 1.43849,1.6692 2.76841,2.3206c1.35705,0.65139 3.29766,1.09923 5.8218,1.3435c3.85407,0.37998 6.85318,1.56062 8.99734,3.54195c2.1713,1.95417 3.25695,4.53258 3.25695,7.73526c0,1.84559 -0.37997,3.44695 -1.13993,4.804c-0.75996,1.35704 -1.77775,2.51056 -3.05337,3.46052c-1.27563,0.92281 -2.74125,1.61489 -4.39689,2.07632c-1.62847,0.43427 -3.31123,0.65139 -5.04827,0.65139zM294.26549,196.96193c-0.67854,0 -1.26205,-0.24427 -1.7506,-0.73281c-0.48854,-0.48854 -0.73281,-1.08566 -0.73281,-1.79132v-11.3179l-12.98708,-20.19309c-0.40712,-0.67854 -0.56997,-1.31635 -0.48854,-1.91344c0.10857,-0.59712 0.39353,-1.08566 0.85496,-1.46563c0.46139,-0.37998 1.00424,-0.56997 1.62848,-0.56997c0.54282,0 0.97708,0.12215 1.30278,0.36641c0.3257,0.24426 0.63782,0.59712 0.93638,1.05852l12.33571,19.58242h-1.95417l12.57998,-19.78596c0.24427,-0.37998 0.54284,-0.67854 0.89566,-0.89567c0.35282,-0.21711 0.7871,-0.3257 1.30277,-0.3257c0.59709,0 1.08563,0.20357 1.46563,0.6107c0.40712,0.40712 0.63781,0.92281 0.69211,1.54705c0.0543,0.59712 -0.10854,1.1942 -0.48854,1.79132l-13.0685,20.19309v11.3179c0,0.70566 -0.24427,1.30278 -0.73281,1.79132c-0.48854,0.48854 -1.08566,0.73281 -1.79132,0.73281z" fill="#a97fff" stroke="none" stroke-width="1"/></g></g></g></svg>