<svg version="1.1" xmlns="http://www.w3.org/2000/svg" xmlns:xlink="http://www.w3.org/1999/xlink" width="8.75023" height="5.35023" viewBox="0,0,8.75023,5.35023"><g transform="translate(-235.62488,-177.32488)"><g data-paper-data="{&quot;isPaintingLayer&quot;:true}" fill-rule="nonzero" stroke-linecap="butt" stroke-linejoin="miter" stroke-miterlimit="10" stroke-dasharray="" stroke-dashoffset="0" style="mix-blend-mode: normal"><path d="M237.20682,182.0589c-1.85972,-0.94323 -2.11676,-2.62966 -0.57413,-3.76676c1.54263,-1.13711 4.30077,-1.29427 6.16049,-0.35105c1.85972,0.94323 2.11676,2.62966 0.57413,3.76676c-1.54263,1.13711 -4.30077,1.29427 -6.16049,0.35105z" fill="#28123b" stroke="none" stroke-width="0"/><path d="M238.42518,181.16082c-1.04852,-0.5318 -1.19345,-1.48263 -0.3237,-2.12374c0.86975,-0.64111 2.42482,-0.72972 3.47335,-0.19792c1.04852,0.5318 1.19346,1.48263 0.3237,2.12374c-0.86975,0.64111 -2.42482,0.72972 -3.47335,0.19792z" fill="none" stroke="#8b4fff" stroke-width="1.5"/><path d="M238.71429,180c0,-0.43417 0.57564,-0.78613 1.28572,-0.78613c0.71008,0 1.28572,0.35196 1.28572,0.78613c0,0.43417 -0.57564,0.78613 -1.28572,0.78613c-0.71008,0 -1.28572,-0.35196 -1.28572,-0.78613z" fill="#8b4fff" stroke="none" stroke-width="0"/><path d="M239.42857,180c0,-0.19296 0.25584,-0.34939 0.57143,-0.34939c0.31559,0 0.57143,0.15643 0.57143,0.34939c0,0.19296 -0.25584,0.34939 -0.57143,0.34939c-0.31559,0 -0.57143,-0.15643 -0.57143,-0.34939z" fill="none" stroke="#28123b" stroke-width="0.5"/><path d="M238.42517,181.16082c-1.04852,-0.5318 -1.19345,-1.48263 -0.3237,-2.12374c0.86975,-0.64111 2.42482,-0.72972 3.47335,-0.19792c1.04852,0.5318 1.19346,1.48263 0.3237,2.12374c-0.86975,0.64111 -2.42482,0.72972 -3.47335,0.19792z" fill="none" stroke="#28123b" stroke-width="0.5"/></g></g></svg>