<svg version="1.1" xmlns="http://www.w3.org/2000/svg" xmlns:xlink="http://www.w3.org/1999/xlink" width="105.15699" height="49.93937" viewBox="0,0,105.15699,49.93937"><defs><linearGradient x1="236.20576" y1="174.12336" x2="236.20576" y2="199.24964" gradientUnits="userSpaceOnUse" id="color-1"><stop offset="0" stop-color="#000000"/><stop offset="1" stop-color="#000000" stop-opacity="0"/></linearGradient><linearGradient x1="236.20576" y1="174.12336" x2="236.20576" y2="199.24964" gradientUnits="userSpaceOnUse" id="color-2"><stop offset="0" stop-color="#000000"/><stop offset="1" stop-color="#000000" stop-opacity="0"/></linearGradient></defs><g transform="translate(-183.85224,-155.26843)"><g data-paper-data="{&quot;isPaintingLayer&quot;:true}" fill-rule="nonzero" stroke-linejoin="miter" stroke-miterlimit="10" stroke-dasharray="" stroke-dashoffset="0" style="mix-blend-mode: normal"><path d="M189.45549,198.93415c-0.45557,0 -0.84105,-0.15769 -1.15644,-0.47309c-0.29785,-0.3154 -0.4468,-0.70088 -0.4468,-1.15644v-21.23639c0,-0.49061 0.14894,-0.88486 0.44681,-1.18272c0.31539,-0.3154 0.70086,-0.47308 1.15643,-0.47308c0.50813,0 0.92865,0.20149 1.26157,0.6045l13.69329,18.2139v-17.16259c0,-0.49061 0.14893,-0.88486 0.44681,-1.18271c0.31539,-0.3154 0.70964,-0.47309 1.18274,-0.47309c0.4731,0 0.85857,0.15769 1.15643,0.47309c0.29785,0.29785 0.44681,0.69213 0.44681,1.18274v21.2364c0,0.45557 -0.14894,0.84104 -0.4468,1.15643c-0.29785,0.3154 -0.68333,0.47308 -1.15643,0.47308c-0.21025,0 -0.43805,-0.0438 -0.68335,-0.13141c-0.24529,-0.10512 -0.43805,-0.24529 -0.57824,-0.42052l-13.69328,-18.2139v17.13629c0,0.45557 -0.14893,0.84104 -0.4468,1.15644c-0.29785,0.3154 -0.69211,0.47308 -1.18271,0.47308zM215.52846,198.93415c-0.45557,0 -0.84105,-0.15769 -1.15643,-0.47309c-0.31539,-0.3154 -0.47309,-0.70088 -0.47309,-1.15644v-21.23639c0,-0.49061 0.15771,-0.88486 0.47309,-1.18272c0.31539,-0.3154 0.70087,-0.47308 1.15643,-0.47308h14.19266c0.49062,0 0.87608,0.14894 1.15644,0.44681c0.29785,0.28035 0.4468,0.64829 0.4468,1.10386c0,0.43805 -0.14891,0.79727 -0.44679,1.07762c-0.28035,0.26282 -0.66583,0.39424 -1.15645,0.39424h-12.53682v7.62198h8.98867c0.49062,0 0.87607,0.14018 1.15643,0.42054c0.29785,0.28035 0.44681,0.6483 0.44681,1.10387c0,0.43805 -0.14894,0.79724 -0.4468,1.0776c-0.28035,0.28035 -0.66581,0.42054 -1.15643,0.42054h-8.98866v7.83223h12.53684c0.49062,0 0.87607,0.14019 1.15643,0.42055c0.29785,0.26282 0.44681,0.61324 0.44681,1.05129c0,0.47309 -0.14893,0.84982 -0.4468,1.13017c-0.28035,0.28035 -0.66581,0.42055 -1.15643,0.42055zM247.19385,199.24956c-1.83979,0 -3.52187,-0.30664 -5.04628,-0.91989c-1.52441,-0.63077 -2.83854,-1.49809 -3.94241,-2.60197c-1.08635,-1.12141 -1.93615,-2.45307 -2.5494,-3.99498c-0.61324,-1.54191 -0.91989,-3.23276 -0.91989,-5.07255c0,-1.8398 0.30664,-3.52188 0.9199,-5.04627c0.61324,-1.52441 1.46307,-2.84731 2.54942,-3.96868c1.10387,-1.12141 2.418,-1.98872 3.94241,-2.60196c1.52441,-0.61324 3.20649,-0.9199 5.04629,-0.9199c1.85732,0 3.53942,0.30664 5.04628,0.9199c1.52441,0.61324 2.83853,1.48059 3.94241,2.60199c1.10386,1.12141 1.95367,2.4443 2.54942,3.96868c0.61325,1.52441 0.9199,3.20646 0.9199,5.04627c0,1.8398 -0.30664,3.53065 -0.91989,5.07256c-0.59576,1.54191 -1.44553,2.87357 -2.54941,3.99498c-1.10386,1.10387 -2.418,1.97122 -3.94241,2.60199c-1.50686,0.61324 -3.18896,0.9199 -5.04627,0.9199zM247.19385,196.30589c1.3667,0 2.61949,-0.2453 3.75844,-0.7359c1.13892,-0.49061 2.12891,-1.17398 2.96995,-2.05005c0.84104,-0.87607 1.48058,-1.89235 1.91863,-3.04879c0.45556,-1.17398 0.68336,-2.44428 0.68336,-3.81098c0,-1.34919 -0.2278,-2.61073 -0.68336,-3.7847c-0.43806,-1.17398 -1.07759,-2.19022 -1.91863,-3.04878c-0.84104,-0.87607 -1.83101,-1.55066 -2.96993,-2.02374c-1.13892,-0.49061 -2.39171,-0.73592 -3.75841,-0.73592c-1.34918,0 -2.59322,0.24531 -3.73215,0.73592c-1.13892,0.47309 -2.12889,1.14766 -2.96993,2.02377c-0.82353,0.85858 -1.46307,1.87481 -1.91863,3.04879c-0.45557,1.17398 -0.68337,2.43554 -0.68337,3.78472c0,1.3667 0.22779,2.63702 0.68337,3.81098c0.45557,1.15644 1.0951,2.17272 1.91863,3.04879c0.84104,0.87607 1.83101,1.55944 2.96994,2.05005c1.13892,0.49061 2.38297,0.7359 3.73215,0.7359zM266.37158,198.93415c-0.45556,0 -0.84105,-0.15769 -1.15643,-0.47309c-0.29785,-0.3154 -0.44679,-0.70088 -0.44679,-1.15644v-21.23639c0,-0.49061 0.14891,-0.88486 0.4468,-1.18272c0.31538,-0.3154 0.70088,-0.47308 1.15643,-0.47308c0.50813,0 0.92865,0.20149 1.26157,0.6045l13.69329,18.2139v-17.16259c0,-0.49061 0.14894,-0.88486 0.44681,-1.18271c0.31538,-0.3154 0.70963,-0.47309 1.18273,-0.47309c0.4731,0 0.85857,0.15769 1.15643,0.47309c0.29785,0.29785 0.44681,0.69213 0.44681,1.18274v21.2364c0,0.45557 -0.14893,0.84104 -0.4468,1.15643c-0.29785,0.3154 -0.68334,0.47308 -1.15643,0.47308c-0.21026,0 -0.43806,-0.0438 -0.68337,-0.13141c-0.24529,-0.10512 -0.43804,-0.24529 -0.5782,-0.42052l-13.69328,-18.2139v17.13629c0,0.45557 -0.14894,0.84104 -0.4468,1.15644c-0.29785,0.3154 -0.69211,0.47308 -1.18271,0.47308z" fill="url(#color-1)" stroke="url(#color-2)" stroke-width="8" stroke-linecap="square"/><path d="M189.90552,186.01116c-0.45557,0 -0.84105,-0.15771 -1.15643,-0.47309c-0.29785,-0.3154 -0.4468,-0.70086 -0.4468,-1.15643v-21.2364c0,-0.49061 0.14894,-0.88485 0.44681,-1.1827c0.31539,-0.3154 0.70086,-0.4731 1.15643,-0.4731c0.50813,0 0.92864,0.2015 1.26157,0.60451l13.69329,18.21391v-17.16258c0,-0.49061 0.14893,-0.88485 0.44681,-1.18271c0.31539,-0.3154 0.70964,-0.47308 1.18273,-0.47308c0.4731,0 0.85857,0.1577 1.15643,0.47308c0.29785,0.29785 0.44681,0.69213 0.44681,1.18274v21.2364c0,0.45557 -0.14893,0.84105 -0.4468,1.15643c-0.29785,0.3154 -0.68334,0.47309 -1.15644,0.47309c-0.21025,0 -0.43805,-0.0438 -0.68334,-0.13141c-0.24529,-0.10512 -0.43805,-0.24529 -0.57823,-0.42052l-13.69328,-18.2139v17.13631c0,0.45557 -0.14894,0.84103 -0.44681,1.15643c-0.29785,0.3154 -0.69211,0.47309 -1.18271,0.47309zM215.97841,186.01116c-0.45557,0 -0.84105,-0.15771 -1.15644,-0.47309c-0.31539,-0.3154 -0.47309,-0.70086 -0.47309,-1.15643v-21.2364c0,-0.49061 0.15771,-0.88485 0.47309,-1.1827c0.31539,-0.3154 0.70087,-0.4731 1.15644,-0.4731h14.19266c0.49062,0 0.87607,0.14894 1.15643,0.44681c0.29785,0.28035 0.44681,0.64831 0.44681,1.10388c0,0.43805 -0.14893,0.79725 -0.4468,1.07761c-0.28035,0.26282 -0.66582,0.39425 -1.15644,0.39425h-12.53684v7.62196h8.98867c0.49062,0 0.87607,0.14016 1.15643,0.42053c0.29785,0.28035 0.44681,0.64831 0.44681,1.10387c0,0.43805 -0.14893,0.79722 -0.4468,1.0776c-0.28035,0.28035 -0.66581,0.42053 -1.15643,0.42053h-8.98867v7.83226h12.53685c0.49062,0 0.87607,0.14016 1.15643,0.42054c0.29785,0.26282 0.44681,0.61324 0.44681,1.05129c0,0.47309 -0.14892,0.84983 -0.44679,1.13018c-0.28035,0.28035 -0.66582,0.42054 -1.15645,0.42054zM247.64379,186.32653c-1.83979,0 -3.52188,-0.30665 -5.04628,-0.9199c-1.52441,-0.63077 -2.83853,-1.49809 -3.94241,-2.60196c-1.08635,-1.12141 -1.93615,-2.45308 -2.5494,-3.99499c-0.61324,-1.54191 -0.91989,-3.23276 -0.91989,-5.07253c0,-1.8398 0.30664,-3.52186 0.91989,-5.04627c0.61324,-1.52441 1.46307,-2.84732 2.54942,-3.96869c1.10387,-1.12141 2.418,-1.98872 3.94241,-2.60198c1.52441,-0.61324 3.20648,-0.91989 5.04627,-0.91989c1.85732,0 3.53942,0.30664 5.04628,0.9199c1.52441,0.61324 2.83853,1.48059 3.94242,2.60199c1.10386,1.12141 1.95367,2.4443 2.54942,3.96868c0.61325,1.52441 0.9199,3.20647 0.9199,5.04628c0,1.8398 -0.30665,3.53064 -0.9199,5.07255c-0.59576,1.54191 -1.44552,2.87357 -2.5494,3.99497c-1.10386,1.10387 -2.418,1.97122 -3.94241,2.60199c-1.50686,0.61324 -3.18896,0.9199 -5.04629,0.9199zM247.64379,183.38288c1.3667,0 2.61948,-0.2453 3.75844,-0.73591c1.13892,-0.49061 2.1289,-1.17398 2.96994,-2.05005c0.84104,-0.87607 1.48059,-1.89234 1.91864,-3.04879c0.45556,-1.17398 0.68335,-2.44427 0.68335,-3.81097c0,-1.34919 -0.2278,-2.61076 -0.68335,-3.78473c-0.43806,-1.17398 -1.07759,-2.19022 -1.91863,-3.04879c-0.84104,-0.87607 -1.83101,-1.55066 -2.96992,-2.02376c-1.13892,-0.49061 -2.39171,-0.73591 -3.75841,-0.73591c-1.34918,0 -2.59324,0.24529 -3.73216,0.73591c-1.13892,0.47309 -2.12889,1.14768 -2.96993,2.02377c-0.82353,0.85858 -1.46307,1.87481 -1.91863,3.04879c-0.45557,1.17398 -0.68334,2.43554 -0.68334,3.7847c0,1.3667 0.22777,2.63703 0.68334,3.81098c0.45557,1.15644 1.09512,2.17269 1.91865,3.04879c0.84104,0.87607 1.83101,1.55944 2.96993,2.05005c1.13892,0.49061 2.38296,0.7359 3.73215,0.7359zM266.82159,186.01116c-0.45556,0 -0.84105,-0.15771 -1.15643,-0.47309c-0.29785,-0.3154 -0.4468,-0.70086 -0.4468,-1.15643v-21.2364c0,-0.49061 0.14893,-0.88485 0.44681,-1.1827c0.31538,-0.3154 0.70088,-0.4731 1.15643,-0.4731c0.50813,0 0.92865,0.2015 1.26157,0.60451l13.69329,18.21391v-17.16258c0,-0.49061 0.14894,-0.88485 0.44681,-1.18271c0.31538,-0.3154 0.70963,-0.47308 1.18273,-0.47308c0.4731,0 0.85857,0.1577 1.15643,0.47308c0.29785,0.29785 0.44681,0.69213 0.44681,1.18274v21.2364c0,0.45557 -0.14893,0.84105 -0.4468,1.15643c-0.29785,0.3154 -0.68336,0.47309 -1.15643,0.47309c-0.21026,0 -0.43805,-0.0438 -0.68334,-0.13141c-0.24529,-0.10512 -0.43804,-0.24529 -0.57822,-0.42052l-13.69327,-18.2139v17.13631c0,0.45557 -0.14894,0.84103 -0.4468,1.15643c-0.29785,0.3154 -0.69212,0.47309 -1.18271,0.47309z" fill="#9966ff" stroke="#28123b" stroke-width="8" stroke-linecap="square"/><path d="M190.35547,185.56118c-0.45557,0 -0.84105,-0.15768 -1.15643,-0.47309c-0.29785,-0.3154 -0.44679,-0.70087 -0.44679,-1.15644v-21.23641c0,-0.49061 0.14894,-0.88485 0.44681,-1.1827c0.31539,-0.3154 0.70086,-0.47309 1.15643,-0.47309c0.50813,0 0.92866,0.20149 1.26158,0.6045l13.69328,18.2139v-17.16258c0,-0.49061 0.14894,-0.88486 0.44681,-1.18272c0.31539,-0.3154 0.70963,-0.47308 1.18273,-0.47308c0.4731,0 0.85858,0.15768 1.15644,0.47308c0.29785,0.29785 0.44681,0.69211 0.44681,1.18274v21.23641c0,0.45557 -0.14893,0.84105 -0.4468,1.15643c-0.29785,0.3154 -0.68334,0.47309 -1.15644,0.47309c-0.21025,0 -0.43805,-0.0438 -0.68335,-0.13139c-0.24529,-0.10512 -0.43805,-0.24529 -0.57823,-0.42052l-13.69328,-18.2139v17.13631c0,0.45557 -0.14893,0.84104 -0.4468,1.15645c-0.29785,0.3154 -0.69211,0.47309 -1.1827,0.47309zM216.42837,185.56118c-0.45557,0 -0.84105,-0.15768 -1.15643,-0.47309c-0.31539,-0.3154 -0.4731,-0.70087 -0.4731,-1.15644v-21.23641c0,-0.49061 0.15771,-0.88485 0.4731,-1.1827c0.31539,-0.3154 0.70086,-0.47309 1.15643,-0.47309h14.19265c0.49062,0 0.87608,0.14894 1.15644,0.44681c0.29785,0.28035 0.44681,0.64831 0.44681,1.10386c0,0.43805 -0.14894,0.79722 -0.44681,1.07761c-0.28035,0.26282 -0.66582,0.39425 -1.15643,0.39425h-12.53682v7.62196h8.98865c0.49062,0 0.87609,0.14018 1.15645,0.42054c0.29785,0.28035 0.44681,0.6483 0.44681,1.10386c0,0.43805 -0.14891,0.79725 -0.44679,1.07761c-0.28035,0.28035 -0.66583,0.42054 -1.15644,0.42054h-8.98866v7.83223h12.53685c0.49062,0 0.87608,0.14019 1.15644,0.42055c0.29785,0.26282 0.44681,0.61324 0.44681,1.0513c0,0.47309 -0.14894,0.84981 -0.44681,1.13016c-0.28035,0.28035 -0.66581,0.42055 -1.15643,0.42055zM248.09375,185.87656c-1.83979,0 -3.52186,-0.30665 -5.04628,-0.9199c-1.52441,-0.63077 -2.83854,-1.4981 -3.94241,-2.60198c-1.08635,-1.12141 -1.93615,-2.45307 -2.54941,-3.99497c-0.61324,-1.54191 -0.91989,-3.23274 -0.91989,-5.07254c0,-1.8398 0.30664,-3.52187 0.9199,-5.04628c0.61324,-1.52441 1.46304,-2.8473 2.54942,-3.96867c1.10387,-1.12141 2.418,-1.98872 3.94242,-2.60197c1.52441,-0.61324 3.20647,-0.91989 5.04628,-0.91989c1.85732,0 3.5394,0.30664 5.04627,0.9199c1.52441,0.61324 2.83853,1.48059 3.94242,2.60199c1.10388,1.12141 1.95369,2.4443 2.54944,3.96868c0.61325,1.52441 0.9199,3.20647 0.9199,5.04628c0,1.8398 -0.30665,3.53064 -0.9199,5.07255c-0.59576,1.54191 -1.44553,2.87358 -2.54941,3.99497c-1.10386,1.10387 -2.418,1.97122 -3.94241,2.60199c-1.50686,0.61324 -3.18896,0.9199 -5.04627,0.9199zM248.09375,182.93291c1.3667,0 2.61949,-0.24531 3.75844,-0.73591c1.13892,-0.49061 2.1289,-1.17397 2.96994,-2.05004c0.84104,-0.87607 1.48059,-1.89234 1.91865,-3.04879c0.45556,-1.17398 0.68334,-2.44428 0.68334,-3.81098c0,-1.34919 -0.22779,-2.61073 -0.68334,-3.78468c-0.43806,-1.17398 -1.07759,-2.19022 -1.91863,-3.04879c-0.84104,-0.87607 -1.83101,-1.55068 -2.96993,-2.02378c-1.13892,-0.49061 -2.39171,-0.7359 -3.75841,-0.7359c-1.34918,0 -2.59322,0.24529 -3.73214,0.7359c-1.13892,0.47309 -2.1289,1.14769 -2.96994,2.02378c-0.82353,0.85858 -1.46307,1.87482 -1.91863,3.04879c-0.45557,1.17398 -0.68335,2.43553 -0.68335,3.78471c0,1.3667 0.22779,2.63702 0.68335,3.81099c0.45557,1.15644 1.09511,2.17272 1.91864,3.04879c0.84104,0.87607 1.83101,1.55943 2.96994,2.05005c1.13892,0.49061 2.38297,0.73591 3.73216,0.73591zM267.27153,185.56118c-0.45556,0 -0.84103,-0.15768 -1.15643,-0.47309c-0.29785,-0.3154 -0.44681,-0.70087 -0.44681,-1.15644v-21.23641c0,-0.49061 0.14893,-0.88485 0.44681,-1.1827c0.31538,-0.3154 0.70088,-0.47309 1.15645,-0.47309c0.50813,0 0.92865,0.20149 1.26157,0.6045l13.69329,18.2139v-17.16258c0,-0.49061 0.14893,-0.88486 0.44681,-1.18272c0.31538,-0.3154 0.70964,-0.47308 1.18274,-0.47308c0.4731,0 0.85859,0.15768 1.15645,0.47308c0.29785,0.29785 0.44681,0.69211 0.44681,1.18274v21.23641c0,0.45557 -0.14894,0.84105 -0.4468,1.15643c-0.29785,0.3154 -0.68336,0.47309 -1.15645,0.47309c-0.21026,0 -0.43804,-0.0438 -0.68334,-0.13139c-0.24529,-0.10512 -0.43806,-0.24529 -0.57823,-0.42052l-13.69327,-18.2139v17.13631c0,0.45557 -0.14894,0.84104 -0.4468,1.15645c-0.29785,0.3154 -0.69212,0.47309 -1.18271,0.47309z" fill="#c5a8ff" stroke="#c5a8ff" stroke-width="2" stroke-linecap="square"/><path d="M248.17372,185.47683c-6.49203,0 -11.75489,-5.26288 -11.75489,-11.75491c0,-6.49203 5.26284,-11.75488 11.75489,-11.75488c6.49203,0 11.75491,5.26285 11.75491,11.75488c0,6.49203 -5.26285,11.75491 -11.75491,11.75491z" data-paper-data="{&quot;index&quot;:null}" fill="#c5a8ff" stroke="none" stroke-width="0" stroke-linecap="butt"/><g fill="#ffffff" stroke-linecap="butt"><path d="M188.7363,163.38789c-0.33702,0 -0.33702,-0.45739 -0.33702,-0.45739l0.03557,-0.50948c0.44976,-1.1388 1.13358,-1.64399 2.02491,-1.11933c0,0 0.30144,0.20456 0.15072,0.61366c-0.15072,0.40912 -0.45215,0.20456 -0.45215,0.20456c-0.46635,-0.40077 -0.90915,0.06763 -1.1206,0.71024l0.03557,0.10037c0,0 0,0.45739 -0.33702,0.45739z" stroke="none" stroke-width="0.5"/><path d="M215.02363,163.38789c-0.33702,0 -0.33701,-0.45739 -0.33701,-0.45739l0.03557,-0.50948c0.44976,-1.1388 1.13358,-1.64399 2.02491,-1.11933c0,0 0.30146,0.20456 0.15072,0.61366c-0.15072,0.40912 -0.45216,0.20456 -0.45216,0.20456c-0.46635,-0.40077 -0.90915,0.06763 -1.1206,0.71024l0.03558,0.10037c0,0 0,0.45739 -0.33702,0.45739z" stroke="none" stroke-width="0.5"/><path d="M265.80075,163.38789c-0.33702,0 -0.33702,-0.45739 -0.33702,-0.45739l0.03557,-0.50948c0.44976,-1.1388 1.13358,-1.64399 2.02491,-1.11933c0,0 0.30145,0.20456 0.15071,0.61366c-0.15072,0.40912 -0.45214,0.20456 -0.45214,0.20456c-0.46634,-0.40077 -0.90915,0.06763 -1.12059,0.71024l0.03556,0.10037c0,0 0,0.45739 -0.33702,0.45739z" stroke="none" stroke-width="0.5"/><path d="M241.12383,163.71963c-0.30142,-0.20457 -0.15072,-0.61364 -0.15072,-0.61364l0.21291,-0.52545c0.55054,-0.74184 1.05877,-1.27174 1.8042,-1.54332c0,0 0.32695,-0.11095 0.40869,0.33279c0.08173,0.44375 -0.24524,0.55467 -0.24524,0.55467c-0.60611,0.1855 -1.04662,0.69442 -1.49107,1.3027l-0.08665,0.28769c0,0 -0.15072,0.4091 -0.45215,0.20456z" stroke="none" stroke-width="0.5"/><path d="M188.7363,163.38789c-0.33702,0 -0.33702,-0.45739 -0.33702,-0.45739l0.03557,-0.50948c0.44976,-1.1388 1.13358,-1.64399 2.02491,-1.11933c0,0 0.30144,0.20456 0.15072,0.61366c-0.15072,0.40912 -0.45215,0.20456 -0.45215,0.20456c-0.46635,-0.40077 -0.90915,0.06763 -1.1206,0.71024l0.03557,0.10037c0,0 0,0.45739 -0.33702,0.45739z" stroke="#ffffff" stroke-width="1"/><path d="M215.02363,163.38789c-0.33702,0 -0.33701,-0.45739 -0.33701,-0.45739l0.03557,-0.50948c0.44976,-1.1388 1.13358,-1.64399 2.02491,-1.11933c0,0 0.30146,0.20456 0.15072,0.61366c-0.15072,0.40912 -0.45216,0.20456 -0.45216,0.20456c-0.46635,-0.40077 -0.90915,0.06763 -1.1206,0.71024l0.03558,0.10037c0,0 0,0.45739 -0.33702,0.45739z" stroke="#ffffff" stroke-width="1"/><path d="M265.80075,163.38789c-0.33702,0 -0.33702,-0.45739 -0.33702,-0.45739l0.03557,-0.50948c0.44976,-1.1388 1.13358,-1.64399 2.02491,-1.11933c0,0 0.30145,0.20456 0.15071,0.61366c-0.15072,0.40912 -0.45214,0.20456 -0.45214,0.20456c-0.46634,-0.40077 -0.90915,0.06763 -1.12059,0.71024l0.03556,0.10037c0,0 0,0.45739 -0.33702,0.45739z" stroke="#ffffff" stroke-width="1"/><path d="M241.12383,163.71963c-0.30142,-0.20457 -0.15072,-0.61364 -0.15072,-0.61364l0.21291,-0.52545c0.55054,-0.74184 1.05877,-1.27174 1.8042,-1.54332c0,0 0.32695,-0.11095 0.40869,0.33279c0.08173,0.44375 -0.24524,0.55467 -0.24524,0.55467c-0.60611,0.1855 -1.04662,0.69442 -1.49107,1.3027l-0.08665,0.28769c0,0 -0.15072,0.4091 -0.45215,0.20456z" stroke="#ffffff" stroke-width="1"/></g><path d="M240.15625,173.62123c0,-4.46839 3.62234,-8.09073 8.09073,-8.09073c4.46839,0 8.09072,3.62234 8.09072,8.09073c0,4.46839 -3.62234,8.09072 -8.09072,8.09072c-4.46839,0 -8.09073,-3.62234 -8.09073,-8.09072z" fill="#231239" stroke="none" stroke-width="0" stroke-linecap="butt"/><g stroke="none" stroke-linecap="butt"><path d="M242.72979,165.52985c1.0801,-2.03742 3.60743,-2.8135 5.64487,-1.7334c2.03742,1.0801 2.81351,3.60745 1.73342,5.64486c-1.0801,2.03742 -3.60745,2.81351 -5.64486,1.73341c-2.03742,-1.0801 -2.81351,-3.60745 -1.73341,-5.64486z" fill="#c5a8ff" stroke-width="NaN"/><path d="M246.36873,177.50242c1.0801,-2.03742 3.60745,-2.81351 5.64486,-1.73341c2.03742,1.0801 2.81351,3.60745 1.73341,5.64486c-1.0801,2.03742 -3.60743,2.8135 -5.64487,1.7334c-2.03742,-1.0801 -2.81351,-3.60745 -1.73342,-5.64486z" fill="#c5a8ff" stroke-width="NaN"/><path d="M238.71625,173.43154c1.0801,-2.03742 3.60743,-2.8135 5.64485,-1.73341c2.03742,1.0801 2.81351,3.60745 1.73342,5.64486c-1.0801,2.03742 -3.60745,2.81351 -5.64486,1.73341c-2.03742,-1.0801 -2.81349,-3.60744 -1.7334,-5.64487z" fill="#c5a8ff" stroke-width="NaN"/><path d="M250.2917,169.76255c1.0801,-2.03742 3.60745,-2.81351 5.64486,-1.73342c2.03742,1.0801 2.81351,3.60745 1.73341,5.64486c-1.0801,2.03742 -3.60745,2.81351 -5.64486,1.73341c-2.03742,-1.0801 -2.81349,-3.60744 -1.7334,-5.64487z" fill="#c5a8ff" stroke-width="NaN"/><path d="M244.36555,171.36095c1.14783,-2.16516 3.83356,-2.98987 5.99871,-1.84205c2.16516,1.14783 2.98987,3.83356 1.84205,5.99871c-1.14783,2.16516 -3.83356,2.98987 -5.99871,1.84205c-2.16516,-1.14783 -2.98987,-3.83356 -1.84205,-5.99871z" fill="#28123b" stroke-width="0"/></g></g></g></svg>