<svg version="1.1" xmlns="http://www.w3.org/2000/svg" xmlns:xlink="http://www.w3.org/1999/xlink" width="137.84951" height="119.73293" viewBox="0,0,137.84951,119.73293"><defs><linearGradient x1="598.3416" y1="1378.32937" x2="563.55846" y2="-331.93269" gradientUnits="userSpaceOnUse" id="color-1"><stop offset="0" stop-color="#000000"/><stop offset="1" stop-color="#000000" stop-opacity="0"/></linearGradient><linearGradient x1="302.67476" y1="224.49169" x2="302.67476" y2="123.25854" gradientUnits="userSpaceOnUse" id="color-2"><stop offset="0" stop-color="#000000"/><stop offset="1" stop-color="#000000" stop-opacity="0"/></linearGradient><linearGradient x1="302.67476" y1="224.49169" x2="302.67476" y2="123.25854" gradientUnits="userSpaceOnUse" id="color-3"><stop offset="0" stop-color="#000000"/><stop offset="1" stop-color="#000000" stop-opacity="0"/></linearGradient><linearGradient x1="218.57467" y1="227.88297" x2="218.57467" y2="245.60001" gradientUnits="userSpaceOnUse" id="color-4"><stop offset="0" stop-color="#000000"/><stop offset="1" stop-color="#000000" stop-opacity="0"/></linearGradient><linearGradient x1="218.57467" y1="227.88297" x2="218.57467" y2="245.60001" gradientUnits="userSpaceOnUse" id="color-5"><stop offset="0" stop-color="#000000"/><stop offset="1" stop-color="#000000" stop-opacity="0"/></linearGradient><linearGradient x1="224.67472" y1="185.63101" x2="213.60623" y2="178.56601" gradientUnits="userSpaceOnUse" id="color-6"><stop offset="0" stop-color="#000000" stop-opacity="0"/><stop offset="1" stop-color="#000000" stop-opacity="0"/></linearGradient></defs><g transform="translate(-171.07526,-117.00854)"><g data-paper-data="{&quot;isPaintingLayer&quot;:true}" fill-rule="nonzero" stroke-linejoin="miter" stroke-miterlimit="10" stroke-dasharray="" stroke-dashoffset="0" style="mix-blend-mode: normal"><path d="M301.45506,229.2665c0,0 -73.00534,0.4358 -92.19814,0c-30.97244,-0.70328 -31.93166,-27.66239 -31.93166,-27.66239" data-paper-data="{&quot;index&quot;:null}" fill="none" stroke="#28123b" stroke-width="12.5" stroke-linecap="round"/><path d="M301.38315,127.17172l0.96904,98.60731l-122.65311,-4.15485l2.61817,-87.2816z" fill="url(#color-1)" stroke="none" stroke-width="0" stroke-linecap="butt"/><path d="M302.67476,123.25854v101.23316" fill="url(#color-2)" stroke="url(#color-3)" stroke-width="12.5" stroke-linecap="round"/><path d="M301.83498,236.74147" data-paper-data="{&quot;index&quot;:null}" fill="url(#color-4)" stroke="url(#color-5)" stroke-width="12.5" stroke-linecap="round"/><path d="M302.54483,229.29724v-101.23315" fill="none" stroke="#28123b" stroke-width="12.5" stroke-linecap="round"/><path d="M177.82526,154.71019c0,0 0.95922,-26.95911 31.93166,-27.66239c19.1928,-0.4358 92.19814,0 92.19814,0" data-paper-data="{&quot;index&quot;:null}" fill="none" stroke="#28123b" stroke-width="12.5" stroke-linecap="round"/><path d="M177.40053,156.5856v43.69534" data-paper-data="{&quot;index&quot;:null}" fill="none" stroke="#28123b" stroke-width="12.5" stroke-linecap="round"/><path d="M302.54483,229.29724v-101.23315" fill="none" stroke="#8b4fff" stroke-width="4.5" stroke-linecap="round"/><path d="M177.3564,158.92987c0,0 -1.28596,-31.88207 35.91692,-31.88207c22.81613,0 88.21289,0 88.21289,0" data-paper-data="{&quot;index&quot;:null}" fill="none" stroke="#8b4fff" stroke-width="4.5" stroke-linecap="round"/><path d="M177.40053,198.03095c0,0 0,-25.41537 0,-33.00578c0,-1.66611 0,-6.79857 0,-6.79857" data-paper-data="{&quot;index&quot;:null}" fill="none" stroke="#8b4fff" stroke-width="4.5" stroke-linecap="round"/><path d="M264.31264,211.83222l-49.1838,-32.80581" data-paper-data="{&quot;index&quot;:null}" fill="none" stroke="#28123b" stroke-width="13.5" stroke-linecap="round"/><path d="M215.13829,179.26796c0,0 1.94956,1.30036 4.0086,2.67375c6.91225,4.6105 45.1752,30.13207 45.1752,30.13207" data-paper-data="{&quot;index&quot;:null}" fill="none" stroke="#ab80ff" stroke-width="5.5" stroke-linecap="round"/><path d="M217.25136,177.26298l5.93592,4.17174l-3.90509,3.88127l-6.0731,-4.0234z" data-paper-data="{&quot;index&quot;:null}" fill="#8b4fff" stroke="none" stroke-width="NaN" stroke-linecap="butt"/><path d="M262.79618,145.52929l-49.1838,32.80581" data-paper-data="{&quot;index&quot;:null}" fill="none" stroke="#28123b" stroke-width="13.5" stroke-linecap="round"/><path d="M262.80561,145.28773c0,0 -38.26295,25.52157 -45.1752,30.13207c-2.05905,1.37339 -4.0086,2.67375 -4.0086,2.67375" data-paper-data="{&quot;index&quot;:null}" fill="none" stroke="#ab80ff" stroke-width="5.5" stroke-linecap="round"/><path d="M226.16208,183.30081l-2.97473,4.66042l-11.28446,-7.60491l3.1907,-4.1205z" data-paper-data="{&quot;index&quot;:null}" fill="#ab80ff" stroke="url(#color-6)" stroke-width="0" stroke-linecap="butt"/><path d="M301.4862,229.42987c0,0 -65.39676,0 -88.21289,0c-37.20288,0 -35.91692,-31.88207 -35.91692,-31.88207" data-paper-data="{&quot;index&quot;:null}" fill="none" stroke="#8b4fff" stroke-width="4.5" stroke-linecap="round"/></g></g></svg>