<svg version="1.1" xmlns="http://www.w3.org/2000/svg" xmlns:xlink="http://www.w3.org/1999/xlink" width="255.53164" height="74.38578" viewBox="0,0,255.53164,74.38578"><g transform="translate(-111.65177,-140.75646)"><g data-paper-data="{&quot;isPaintingLayer&quot;:true}" fill-rule="nonzero" stroke-linejoin="miter" stroke-miterlimit="10" stroke-dasharray="" stroke-dashoffset="0" style="mix-blend-mode: normal"><g><path d="M314.52438,173.08361c-0.46429,0.0112 -0.47548,-0.45309 -0.47548,-0.45309l0.03652,-0.51834c0.59172,-1.17093 1.52144,-1.70649 2.76224,-1.20351c0,0 0.4203,0.19762 0.22266,0.61791c-0.19762,0.4203 -0.6179,0.22265 -0.6179,0.22265c-0.65229,-0.39132 -1.25086,0.09886 -1.52642,0.75819l0.05146,0.1007c0,0 0.0112,0.46429 -0.45309,0.47549z" fill="#ffffff" stroke="none" stroke-width="0.5" stroke-linecap="butt"/><path d="M292.49377,173.93035c-0.4203,-0.19764 -0.22265,-0.61791 -0.22265,-0.61791l0.20452,-0.42654c0.60357,-0.9478 1.05739,-1.33637 2.21164,-1.37517c0,0 0.46429,-0.0112 0.47548,0.45309c0.0112,0.46429 -0.45309,0.47549 -0.45309,0.47549c-0.84581,0.0099 -1.00855,0.24094 -1.44898,0.94303l-0.14902,0.32532c0,0 -0.19764,0.4203 -0.61791,0.22266z" fill="#ffffff" stroke="none" stroke-width="0.5" stroke-linecap="butt"/><path d="M342.00626,172.23491c-0.46429,0.0112 -0.47548,-0.45309 -0.47548,-0.45309l0.03652,-0.51834c0.59172,-1.17093 1.52144,-1.70648 2.76224,-1.2035c0,0 0.4203,0.19761 0.22266,0.6179c-0.19762,0.4203 -0.6179,0.22266 -0.6179,0.22266c-0.65229,-0.39132 -1.25086,0.09885 -1.52642,0.75819l0.05146,0.1007c0,0 0.0112,0.46429 -0.45309,0.47549z" fill="#ffffff" stroke="none" stroke-width="0.5" stroke-linecap="butt"/><path d="M116.91607,178.1737c-0.46429,0.0112 -0.47548,-0.45309 -0.47548,-0.45309l0.03652,-0.51835c0.59172,-1.17093 1.52143,-1.70649 2.76224,-1.20351c0,0 0.4203,0.19761 0.22266,0.6179c-0.19762,0.4203 -0.6179,0.22266 -0.6179,0.22266c-0.65229,-0.39132 -1.25086,0.09886 -1.52641,0.7582l0.05146,0.1007c0,0 0.0112,0.46429 -0.45309,0.47548z" fill="#ffffff" stroke="none" stroke-width="0.5" stroke-linecap="butt"/><path d="M189.59855,173.96232c-0.47031,0.01134 -0.8722,-0.14187 -1.20564,-0.4596c-0.31534,-0.31819 -0.4787,-0.71243 -0.49005,-1.18274l-0.52878,-21.92363c-0.01221,-0.50649 0.13173,-0.9172 0.43182,-1.2321c0.31775,-0.33346 0.71176,-0.50586 1.18207,-0.5172c0.52457,-0.01265 0.96372,0.18489 1.31745,0.59265l14.58994,18.46237l-0.42734,-17.71798c-0.01221,-0.50649 0.13171,-0.91719 0.43181,-1.2321c0.31775,-0.33346 0.72083,-0.50607 1.20923,-0.51785c0.48841,-0.01178 0.89028,0.14144 1.20564,0.45961c0.3149,0.30007 0.4785,0.7034 0.49071,1.20988l0.52878,21.92363c0.01134,0.47031 -0.1328,0.87197 -0.43246,1.20498c-0.29963,0.33302 -0.69368,0.50542 -1.18209,0.5172c-0.21706,0.00524 -0.45331,-0.03432 -0.70872,-0.11865c-0.25584,-0.10242 -0.45834,-0.24232 -0.60741,-0.41973l-14.58992,-18.46236l0.42669,17.69086c0.01134,0.47031 -0.13282,0.87195 -0.43248,1.20498c-0.29963,0.33302 -0.70273,0.50563 -1.2092,0.51785zM216.51522,173.31311c-0.47031,0.01134 -0.87219,-0.14187 -1.20565,-0.45961c-0.33345,-0.31776 -0.50585,-0.71177 -0.51719,-1.18207l-0.52878,-21.92363c-0.01221,-0.50649 0.14078,-0.91741 0.45895,-1.23275c0.31775,-0.33346 0.71178,-0.50586 1.18209,-0.5172l14.65194,-0.35339c0.5065,-0.01221 0.90814,0.13194 1.20499,0.43247c0.31446,0.282 0.47741,0.65817 0.48875,1.12847c0.01091,0.45223 -0.13389,0.82676 -0.43443,1.12361c-0.28288,0.27831 -0.67756,0.42359 -1.18405,0.4358l-12.94254,0.31217l0.18979,7.86861l9.27955,-0.22381c0.5065,-0.01221 0.90791,0.12289 1.20433,0.40535c0.31446,0.282 0.47741,0.65816 0.48876,1.12846c0.01091,0.45223 -0.13389,0.82673 -0.43443,1.1236c-0.28244,0.2964 -0.67689,0.45072 -1.18338,0.46294l-9.27955,0.22382l0.19502,8.08571l12.94255,-0.31216c0.5065,-0.01221 0.90791,0.12289 1.20433,0.40534c0.31403,0.26391 0.47654,0.62196 0.48745,1.07419c0.01178,0.4884 -0.13258,0.88103 -0.43312,1.17787c-0.28244,0.2964 -0.6769,0.45072 -1.18339,0.46294zM249.2132,172.85022c-1.89934,0.04581 -3.64349,-0.22888 -5.23249,-0.82402c-1.58945,-0.61323 -2.96769,-1.4759 -4.13477,-2.588c-1.14943,-1.13065 -2.05988,-2.48424 -2.73137,-4.06079c-0.67148,-1.57655 -1.03015,-3.31447 -1.07596,-5.21378c-0.04581,-1.89934 0.22887,-3.64348 0.82402,-5.23248c0.59513,-1.58901 1.43951,-2.97588 2.5331,-4.1606c1.11166,-1.18518 2.44674,-2.11328 4.0052,-2.78434c1.55847,-0.67104 3.28734,-1.0295 5.18667,-1.07531c1.91743,-0.04625 3.66159,0.22843 5.23249,0.82402c1.58901,0.59513 2.96726,1.45783 4.13479,2.58803c1.16751,1.13021 2.07775,2.47475 2.73074,4.03363c0.67105,1.55847 1.0295,3.28733 1.07532,5.18668c0.04581,1.89934 -0.22866,3.65254 -0.82337,5.25961c-0.57665,1.60665 -1.42075,3.00255 -2.53242,4.18773c-1.1121,1.16707 -2.44717,2.09521 -4.00521,2.78435c-1.54035,0.67061 -3.26925,1.02908 -5.18668,1.07532zM249.1399,169.81131c1.41092,-0.03403 2.69815,-0.31846 3.86175,-0.85331c1.16356,-0.53484 2.16856,-1.26498 3.015,-2.19035c0.84644,-0.92537 1.48139,-1.99045 1.90482,-3.19522c0.44108,-1.22331 0.6446,-2.54039 0.61057,-3.95131c-0.03359,-1.39285 -0.30018,-2.68957 -0.7997,-3.89018c-0.48146,-1.20106 -1.167,-2.23427 -2.05664,-3.09968c-0.89007,-0.88349 -1.92887,-1.55525 -3.11643,-2.0153c-1.188,-0.47813 -2.48744,-0.70017 -3.89836,-0.66613c-1.39285,0.03359 -2.67104,0.3178 -3.83461,0.85265c-1.164,0.51676 -2.1692,1.23784 -3.01565,2.16321c-0.8288,0.90686 -1.46373,1.97191 -1.90481,3.19522c-0.44108,1.22331 -0.64481,2.53137 -0.61122,3.92419c0.03403,1.41092 0.30081,2.7167 0.80035,3.91729c0.4991,1.18252 1.18465,2.21573 2.05665,3.09968c0.89007,0.88349 1.92909,1.56431 3.1171,2.04244c1.188,0.47813 2.47839,0.70038 3.87124,0.66679zM269.00373,172.04713c-0.4703,0.01134 -0.87219,-0.14187 -1.20563,-0.4596c-0.31534,-0.31819 -0.47871,-0.71243 -0.49005,-1.18273l-0.52878,-21.92363c-0.01221,-0.50649 0.13172,-0.91719 0.43182,-1.2321c0.31773,-0.33346 0.71178,-0.50586 1.18208,-0.51721c0.52458,-0.01265 0.96372,0.1849 1.31745,0.59266l14.58993,18.46237l-0.42734,-17.71798c-0.01221,-0.50649 0.13173,-0.91718 0.43182,-1.2321c0.31773,-0.33346 0.72082,-0.50607 1.20923,-0.51785c0.48841,-0.01178 0.89028,0.14143 1.20564,0.4596c0.3149,0.30007 0.4785,0.7034 0.49072,1.20988l0.52878,21.92363c0.01134,0.47031 -0.1328,0.87197 -0.43246,1.20498c-0.29963,0.33302 -0.6937,0.50542 -1.18207,0.5172c-0.21706,0.00524 -0.45332,-0.03432 -0.70873,-0.11865c-0.25584,-0.10242 -0.45832,-0.24232 -0.60741,-0.41973l-14.58991,-18.46236l0.42669,17.69086c0.01134,0.47031 -0.13282,0.87196 -0.43246,1.20498c-0.29963,0.33302 -0.70274,0.50563 -1.20921,0.51785z" fill="#9966ff" stroke="#28123b" stroke-width="8" stroke-linecap="square"/><path d="M190.05189,173.48657c-0.47031,0.01134 -0.8722,-0.14184 -1.20564,-0.4596c-0.31534,-0.31819 -0.4787,-0.71244 -0.49004,-1.18275l-0.52878,-21.92364c-0.01221,-0.50649 0.13173,-0.9172 0.43182,-1.2321c0.31775,-0.33346 0.71177,-0.50585 1.18207,-0.51719c0.52457,-0.01265 0.96373,0.18489 1.31746,0.59265l14.58992,18.46236l-0.42734,-17.71799c-0.01221,-0.50649 0.13173,-0.9172 0.43182,-1.23211c0.31775,-0.33346 0.72082,-0.50607 1.20923,-0.51785c0.48841,-0.01178 0.89028,0.14141 1.20565,0.45961c0.3149,0.30007 0.47851,0.70339 0.49072,1.20988l0.52878,21.92364c0.01134,0.47031 -0.13281,0.87198 -0.43247,1.20498c-0.29963,0.33302 -0.69367,0.50541 -1.18208,0.5172c-0.21706,0.00524 -0.45332,-0.03431 -0.70873,-0.11863c-0.25584,-0.10242 -0.45834,-0.24232 -0.60741,-0.41974l-14.58993,-18.46236l0.42669,17.69086c0.01134,0.47031 -0.1328,0.87196 -0.43246,1.20499c-0.29963,0.33302 -0.70273,0.50563 -1.2092,0.51784zM216.96857,172.83737c-0.47031,0.01134 -0.8722,-0.14185 -1.20564,-0.45961c-0.33345,-0.31776 -0.50586,-0.71178 -0.51721,-1.18208l-0.52878,-21.92364c-0.01221,-0.50649 0.14078,-0.91741 0.45896,-1.23275c0.31775,-0.33346 0.71177,-0.50585 1.18207,-0.51719l14.65194,-0.35339c0.5065,-0.01221 0.90814,0.13194 1.20499,0.43247c0.31446,0.282 0.47741,0.65817 0.48876,1.12846c0.01091,0.45223 -0.13391,0.82673 -0.43444,1.1236c-0.28288,0.27831 -0.67756,0.42359 -1.18404,0.43581l-12.94253,0.31216l0.18979,7.86861l9.27954,-0.22381c0.5065,-0.01221 0.90794,0.12291 1.20435,0.40535c0.31446,0.282 0.47741,0.65815 0.48875,1.12846c0.01091,0.45223 -0.13387,0.82675 -0.43442,1.1236c-0.28244,0.2964 -0.67691,0.45073 -1.1834,0.46295l-9.27955,0.22382l0.19502,8.08569l12.94255,-0.31216c0.5065,-0.01221 0.90792,0.12291 1.20433,0.40535c0.31403,0.26391 0.47654,0.62196 0.48745,1.07419c0.01178,0.4884 -0.1326,0.88102 -0.43313,1.17786c-0.28244,0.2964 -0.67688,0.45073 -1.18338,0.46294zM249.66653,172.37451c-1.89934,0.04581 -3.64347,-0.22888 -5.23249,-0.82402c-1.58945,-0.61323 -2.96769,-1.47589 -4.13477,-2.58801c-1.14943,-1.13065 -2.05989,-2.48425 -2.73139,-4.06077c-0.67148,-1.57655 -1.03015,-3.31445 -1.07596,-5.21379c-0.04581,-1.89934 0.22887,-3.64348 0.82402,-5.23248c0.59513,-1.58901 1.43949,-2.97588 2.5331,-4.16059c1.11166,-1.18518 2.44674,-2.11328 4.00521,-2.78433c1.55847,-0.67104 3.28733,-1.0295 5.18668,-1.07531c1.91743,-0.04625 3.66157,0.22843 5.23248,0.82402c1.58901,0.59513 2.96726,1.45783 4.13479,2.58803c1.16752,1.13021 2.07777,2.47476 2.73076,4.03364c0.67105,1.55847 1.02951,3.28733 1.07532,5.18668c0.04581,1.89934 -0.22866,3.65253 -0.82337,5.25961c-0.57665,1.60665 -1.42076,3.00256 -2.53244,4.18773c-1.1121,1.16707 -2.44717,2.09521 -4.0052,2.78436c-1.54035,0.67061 -3.26925,1.02907 -5.18667,1.07532zM249.59323,169.33558c1.41092,-0.03403 2.69815,-0.31846 3.86175,-0.8533c1.16356,-0.53484 2.16856,-1.26498 3.01501,-2.19033c0.84644,-0.92537 1.48138,-1.99045 1.90482,-3.19522c0.44107,-1.22331 0.6446,-2.5404 0.61057,-3.95133c-0.03359,-1.39285 -0.30017,-2.68955 -0.7997,-3.89014c-0.48146,-1.20106 -1.167,-2.23427 -2.05664,-3.09968c-0.89007,-0.88349 -1.92887,-1.55526 -3.11643,-2.01531c-1.188,-0.47813 -2.48744,-0.70016 -3.89836,-0.66613c-1.39285,0.03359 -2.67103,0.3178 -3.8346,0.85264c-1.164,0.51676 -2.16922,1.23783 -3.01566,2.16321c-0.8288,0.90686 -1.46373,1.97192 -1.90481,3.19522c-0.44108,1.22331 -0.64481,2.53137 -0.61122,3.9242c0.03403,1.41092 0.30081,2.71669 0.80035,3.91731c0.4991,1.18252 1.18466,2.21577 2.05665,3.09968c0.89007,0.88349 1.92909,1.5643 3.1171,2.04244c1.188,0.47813 2.47841,0.70038 3.87125,0.66679zM269.45704,171.57139c-0.4703,0.01134 -0.87218,-0.14185 -1.20564,-0.45961c-0.31534,-0.31819 -0.47872,-0.71244 -0.49007,-1.18274l-0.52878,-21.92364c-0.01221,-0.50649 0.13172,-0.9172 0.43182,-1.2321c0.31773,-0.33346 0.71178,-0.50585 1.18209,-0.51719c0.52458,-0.01265 0.96372,0.18489 1.31745,0.59265l14.58993,18.46236l-0.42734,-17.71799c-0.01221,-0.50649 0.13172,-0.9172 0.43182,-1.23211c0.31773,-0.33346 0.72083,-0.50607 1.20924,-0.51785c0.48841,-0.01178 0.8903,0.14141 1.20565,0.4596c0.3149,0.30007 0.4785,0.70339 0.49071,1.20988l0.52878,21.92364c0.01134,0.47031 -0.13281,0.87198 -0.43246,1.20498c-0.29963,0.33302 -0.6937,0.50541 -1.1821,0.51719c-0.21706,0.00524 -0.45331,-0.03431 -0.70873,-0.11863c-0.25584,-0.10242 -0.45834,-0.24232 -0.60741,-0.41973l-14.58993,-18.46236l0.42669,17.69086c0.01134,0.47031 -0.13282,0.87197 -0.43246,1.20499c-0.29963,0.33302 -0.70274,0.50563 -1.20921,0.51785z" fill="#c5a8ff" stroke="#c5a8ff" stroke-width="2" stroke-linecap="square"/><path d="M249.73913,171.95984c-6.70213,0.16165 -12.26633,-5.14048 -12.42798,-11.84261c-0.16165,-6.70213 5.14046,-12.26633 11.84259,-12.42799c6.70213,-0.16165 12.26635,5.14047 12.42801,11.84259c0.16165,6.70213 -5.14047,12.26635 -11.84262,12.428z" data-paper-data="{&quot;index&quot;:null}" fill="#c5a8ff" stroke="none" stroke-width="0" stroke-linecap="butt"/><g fill="#ffffff" stroke-linecap="butt"><path d="M187.82823,150.63598c-0.34792,0.00839 -0.35932,-0.4638 -0.35932,-0.4638l0.02405,-0.52684c0.43596,-1.18685 1.12932,-1.72543 2.06256,-1.20598c0,0 0.31629,0.20367 0.17088,0.62976c-0.14541,0.42611 -0.46169,0.22244 -0.46169,0.22244c-0.49143,-0.40212 -0.93688,0.09245 -1.13917,0.76113l0.03922,0.10273c0,0 0.01139,0.4722 -0.33653,0.48059z" stroke="none" stroke-width="0.5"/><path d="M214.96623,149.98143c-0.34792,0.00839 -0.35931,-0.4638 -0.35931,-0.4638l0.02404,-0.52684c0.43596,-1.18685 1.12933,-1.72543 2.06257,-1.20598c0,0 0.31631,0.20367 0.17088,0.62976c-0.14541,0.42611 -0.4617,0.22244 -0.4617,0.22244c-0.49143,-0.40212 -0.93689,0.09245 -1.13918,0.76113l0.03923,0.10274c0,0 0.01138,0.47219 -0.33654,0.48058z" stroke="none" stroke-width="0.5"/><path d="M267.38658,148.7171c-0.34792,0.00839 -0.35931,-0.4638 -0.35931,-0.4638l0.02403,-0.52684c0.43596,-1.18685 1.12933,-1.72543 2.06257,-1.20598c0,0 0.3163,0.20367 0.17087,0.62976c-0.14541,0.42611 -0.46168,0.22244 -0.46168,0.22244c-0.49141,-0.40212 -0.93689,0.09245 -1.13917,0.76113l0.03921,0.10274c0,0 0.01138,0.47219 -0.33654,0.48058z" stroke="none" stroke-width="0.5"/><path d="M241.91935,149.67407c-0.31627,-0.20369 -0.17088,-0.62974 -0.17088,-0.62974l0.20672,-0.54775c0.54988,-0.77955 1.06137,-1.33926 1.82416,-1.6382c0,0 0.33478,-0.12268 0.43021,0.33338c0.09542,0.45607 -0.23937,0.57872 -0.23937,0.57872c-0.62111,0.20659 -1.0632,0.74295 -1.50688,1.38198l-0.0823,0.29916c0,0 -0.14541,0.42608 -0.46168,0.22243z" stroke="none" stroke-width="0.5"/><path d="M187.82823,150.63598c-0.34792,0.00839 -0.35932,-0.4638 -0.35932,-0.4638l0.02405,-0.52684c0.43596,-1.18685 1.12932,-1.72543 2.06256,-1.20598c0,0 0.31629,0.20367 0.17088,0.62976c-0.14541,0.42611 -0.46169,0.22244 -0.46169,0.22244c-0.49143,-0.40212 -0.93688,0.09245 -1.13917,0.76113l0.03922,0.10273c0,0 0.01139,0.4722 -0.33653,0.48059z" stroke="#ffffff" stroke-width="1"/><path d="M214.96623,149.98143c-0.34792,0.00839 -0.35931,-0.4638 -0.35931,-0.4638l0.02404,-0.52684c0.43596,-1.18685 1.12933,-1.72543 2.06257,-1.20598c0,0 0.31631,0.20367 0.17088,0.62976c-0.14541,0.42611 -0.4617,0.22244 -0.4617,0.22244c-0.49143,-0.40212 -0.93689,0.09245 -1.13918,0.76113l0.03923,0.10274c0,0 0.01138,0.47219 -0.33654,0.48058z" stroke="#ffffff" stroke-width="1"/><path d="M267.38658,148.7171c-0.34792,0.00839 -0.35931,-0.4638 -0.35931,-0.4638l0.02403,-0.52684c0.43596,-1.18685 1.12933,-1.72543 2.06257,-1.20598c0,0 0.3163,0.20367 0.17087,0.62976c-0.14541,0.42611 -0.46168,0.22244 -0.46168,0.22244c-0.49141,-0.40212 -0.93689,0.09245 -1.13917,0.76113l0.03921,0.10274c0,0 0.01138,0.47219 -0.33654,0.48058z" stroke="#ffffff" stroke-width="1"/><path d="M241.91935,149.67407c-0.31627,-0.20369 -0.17088,-0.62974 -0.17088,-0.62974l0.20672,-0.54775c0.54988,-0.77955 1.06137,-1.33926 1.82416,-1.6382c0,0 0.33478,-0.12268 0.43021,0.33338c0.09542,0.45607 -0.23937,0.57872 -0.23937,0.57872c-0.62111,0.20659 -1.0632,0.74295 -1.50688,1.38198l-0.0823,0.29916c0,0 -0.14541,0.42608 -0.46168,0.22243z" stroke="#ffffff" stroke-width="1"/></g><path d="M254.46938,174.28432c-0.46429,0.0112 -0.47548,-0.45309 -0.47548,-0.45309l0.03653,-0.51835c0.59172,-1.17093 1.52143,-1.70648 2.76224,-1.2035c0,0 0.4203,0.19761 0.22266,0.6179c-0.19762,0.4203 -0.61791,0.22265 -0.61791,0.22265c-0.65229,-0.39132 -1.25086,0.09886 -1.52641,0.7582l0.05146,0.1007c0,0 0.0112,0.46429 -0.45309,0.47548z" fill="#ffffff" stroke="none" stroke-width="0.5" stroke-linecap="butt"/><path d="M150.86028,178.11128c-0.4203,-0.19762 -0.22266,-0.6179 -0.22266,-0.6179l0.28046,-0.54045c0.74029,-0.77132 1.4275,-1.32612 2.44781,-1.62657c0,0 0.44773,-0.12346 0.57119,0.32424c0.12346,0.44773 -0.32424,0.57119 -0.32424,0.57119c-0.83048,0.20845 -1.42491,0.73967 -2.0223,1.3719l-0.11234,0.29492c0,0 -0.19761,0.4203 -0.6179,0.22266z" fill="#ffffff" stroke="none" stroke-width="0.5" stroke-linecap="butt"/><path d="M190.16031,176.72978c-0.42027,-0.19764 -0.22265,-0.61791 -0.22265,-0.61791l0.28046,-0.54044c0.7403,-0.77132 1.42751,-1.32612 2.44782,-1.62657c0,0 0.44773,-0.12349 0.57119,0.32424c0.12346,0.44773 -0.32428,0.57119 -0.32428,0.57119c-0.83047,0.20843 -1.4249,0.73967 -2.0223,1.3719l-0.11234,0.29492c0,0 -0.19764,0.42028 -0.61791,0.22266z" fill="#ffffff" stroke="none" stroke-width="0.5" stroke-linecap="butt"/><path d="M226.62512,175.54425c-0.44401,-0.1362 -0.30781,-0.58022 -0.30781,-0.58022l0.21546,-0.65999c0.61606,-0.66621 1.04832,-0.93226 1.92643,-1.18208c0,0 0.44773,-0.12346 0.57119,0.32427c0.12346,0.44773 -0.32424,0.57119 -0.32424,0.57119c-0.62661,0.16613 -0.92043,0.30731 -1.3717,0.75577l-0.12912,0.46326c0,0 -0.13619,0.44401 -0.58021,0.30781z" fill="#ffffff" stroke="none" stroke-width="0.5" stroke-linecap="butt"/><path d="M189.15717,190.7823c-0.15583,-6.46071 4.95527,-11.82447 11.416,-11.9803c6.46071,-0.15583 11.82446,4.95528 11.98029,11.41601c0.15583,6.46071 -4.95528,11.82446 -11.41599,11.98029c-6.46071,0.15583 -11.82447,-4.95528 -11.9803,-11.41599z" fill="#28123b" stroke="none" stroke-width="0" stroke-linecap="butt"/><path d="M254.46938,174.28432c-0.46429,0.0112 -0.47548,-0.45309 -0.47548,-0.45309l0.03653,-0.51835c0.59172,-1.17093 1.52143,-1.70648 2.76224,-1.2035c0,0 0.4203,0.19761 0.22266,0.6179c-0.19762,0.4203 -0.61791,0.22265 -0.61791,0.22265c-0.65229,-0.39132 -1.25086,0.09886 -1.52641,0.7582l0.05146,0.1007c0,0 0.0112,0.46429 -0.45309,0.47548z" fill="#ffffff" stroke="#ffffff" stroke-width="1" stroke-linecap="butt"/><path d="M226.62512,175.54425c-0.44401,-0.1362 -0.30781,-0.58022 -0.30781,-0.58022l0.21546,-0.65999c0.61606,-0.66621 1.04832,-0.93226 1.92643,-1.18208c0,0 0.44773,-0.12346 0.57119,0.32427c0.12346,0.44773 -0.32424,0.57119 -0.32424,0.57119c-0.62661,0.16613 -0.92043,0.30731 -1.3717,0.75577l-0.12912,0.46326c0,0 -0.13619,0.44401 -0.58021,0.30781z" fill="#ffffff" stroke="#ffffff" stroke-width="1" stroke-linecap="butt"/><path d="M314.52438,173.08361c-0.46429,0.0112 -0.47548,-0.45309 -0.47548,-0.45309l0.03652,-0.51834c0.59172,-1.17093 1.52144,-1.70649 2.76224,-1.20351c0,0 0.4203,0.19762 0.22266,0.61791c-0.19762,0.4203 -0.6179,0.22265 -0.6179,0.22265c-0.65229,-0.39132 -1.25086,0.09886 -1.52642,0.75819l0.05146,0.1007c0,0 0.0112,0.46429 -0.45309,0.47549z" fill="#ffffff" stroke="#ffffff" stroke-width="1" stroke-linecap="butt"/><path d="M292.49377,173.93035c-0.4203,-0.19764 -0.22265,-0.61791 -0.22265,-0.61791l0.20452,-0.42654c0.60357,-0.9478 1.05739,-1.33637 2.21164,-1.37517c0,0 0.46429,-0.0112 0.47548,0.45309c0.0112,0.46429 -0.45309,0.47549 -0.45309,0.47549c-0.84581,0.0099 -1.00855,0.24094 -1.44898,0.94303l-0.14902,0.32532c0,0 -0.19764,0.4203 -0.61791,0.22266z" fill="#ffffff" stroke="#ffffff" stroke-width="1" stroke-linecap="butt"/><path d="M342.00626,172.23491c-0.46429,0.0112 -0.47548,-0.45309 -0.47548,-0.45309l0.03652,-0.51834c0.59172,-1.17093 1.52144,-1.70648 2.76224,-1.2035c0,0 0.4203,0.19761 0.22266,0.6179c-0.19762,0.4203 -0.6179,0.22266 -0.6179,0.22266c-0.65229,-0.39132 -1.25086,0.09885 -1.52642,0.75819l0.05146,0.1007c0,0 0.0112,0.46429 -0.45309,0.47549z" fill="#ffffff" stroke="#ffffff" stroke-width="1" stroke-linecap="butt"/><path d="M241.167,159.92012c-0.11126,-4.61299 3.53811,-8.44274 8.15109,-8.554c4.61299,-0.11126 8.44274,3.53811 8.554,8.15109c0.11126,4.61299 -3.53811,8.44274 -8.15109,8.554c-4.61299,0.11126 -8.44274,-3.53811 -8.554,-8.15109z" fill="#231239" stroke="none" stroke-width="0" stroke-linecap="butt"/><path d="M242.61761,154.9724c-0.04928,-2.0431 1.56705,-3.73931 3.61014,-3.78859c2.0431,-0.04928 3.7393,1.56705 3.78858,3.61014c0.04928,2.0431 -1.56704,3.7393 -3.61013,3.78858c-2.0431,0.04928 -3.73931,-1.56703 -3.78859,-3.61012z" fill="#c5a8ff" stroke="none" stroke-width="0" stroke-linecap="butt"/><path d="M315.24054,171.79201c-0.46541,0.01123 -0.47664,-0.45419 -0.47664,-0.45419l0.03662,-0.51961c0.59317,-1.17378 1.52516,-1.71065 2.76898,-1.20645c0,0 0.42132,0.1981 0.2232,0.6194c-0.1981,0.42132 -0.6194,0.2232 -0.6194,0.2232c-0.65387,-0.39227 -1.25391,0.0991 -1.53013,0.76004l0.05159,0.10095c0,0 0.01123,0.46541 -0.45419,0.47664z" fill="#ffffff" stroke="none" stroke-width="0.5" stroke-linecap="butt"/><path d="M293.15623,172.64078c-0.42132,-0.19811 -0.2232,-0.6194 -0.2232,-0.6194l0.20502,-0.42759c0.60504,-0.95011 1.05997,-1.33963 2.21703,-1.37852c0,0 0.46542,-0.01123 0.47664,0.45419c0.01123,0.46541 -0.45419,0.47664 -0.45419,0.47664c-0.84788,0.00993 -1.011,0.24152 -1.4525,0.94533l-0.14937,0.32611c0,0 -0.19812,0.42132 -0.6194,0.2232z" fill="#ffffff" stroke="none" stroke-width="0.5" stroke-linecap="butt"/><path d="M342.78939,170.94124c-0.46541,0.01123 -0.47663,-0.45419 -0.47663,-0.45419l0.03662,-0.51961c0.59317,-1.17378 1.52516,-1.71065 2.76898,-1.20645c0,0 0.42132,0.1981 0.2232,0.6194c-0.1981,0.42132 -0.6194,0.2232 -0.6194,0.2232c-0.65387,-0.39227 -1.25391,0.0991 -1.53013,0.76004l0.05159,0.10095c0,0 0.01123,0.46541 -0.45419,0.47664z" fill="#ffffff" stroke="none" stroke-width="0.5" stroke-linecap="butt"/><path d="M258.04547,205.27041c-0.62827,0.01515 -1.16514,-0.18951 -1.61059,-0.61398c-0.44544,-0.42445 -0.67576,-0.95084 -0.69092,-1.57913l-0.70639,-29.28748c-0.01632,-0.67662 0.18806,-1.22556 0.61311,-1.64683c0.42445,-0.44544 0.95084,-0.67577 1.57912,-0.69093l10.36663,-0.25003c1.95732,-0.04721 3.68235,0.29805 5.17504,1.03576c1.51686,0.73713 2.71447,1.77211 3.5929,3.1049c0.87836,1.3328 1.33887,2.88125 1.38142,4.64527c0.03381,1.40156 -0.32194,2.69159 -1.06723,3.87014c-0.72171,1.1538 -1.73923,2.07295 -3.05254,2.75745c1.92009,0.41309 3.4764,1.28225 4.66894,2.60751c1.19254,1.32523 1.81532,3.08736 1.86836,5.28634c0.04837,2.00565 -0.38028,3.78104 -1.28598,5.32614c-0.9057,1.54509 -2.19354,2.7851 -3.86348,3.71998c-1.64636,0.91012 -3.54491,1.39116 -5.69552,1.44303zM260.22846,201.04692l8.98923,-0.21682c1.32906,-0.03205 2.48342,-0.2896 3.4631,-0.7726c1.00384,-0.48361 1.78495,-1.17943 2.34334,-2.08753c0.5584,-0.90807 0.82154,-2.02663 0.78949,-3.3557c-0.02973,-1.2324 -0.34417,-2.24033 -0.94335,-3.02375c-0.59978,-0.80763 -1.41206,-1.40455 -2.43689,-1.79086c-1.00122,-0.41105 -2.16639,-0.60057 -3.49545,-0.56852l-8.98923,0.21681zM259.84905,185.31579l8.08308,-0.19496c1.64319,-0.03963 2.97472,-0.47068 3.99459,-1.29317c1.04341,-0.84726 1.54532,-2.09247 1.50568,-3.73564c-0.03963,-1.64319 -0.6007,-2.8507 -1.68315,-3.62247c-1.05831,-0.77237 -2.40905,-1.13872 -4.05225,-1.09909l-8.08305,0.19496z" fill="#9966ff" stroke="#28123b" stroke-width="8" stroke-linecap="butt"/><path d="M284.44845,204.6336c-0.79743,0.01923 -1.42178,-0.3042 -1.87304,-0.97032c-0.45185,-0.69027 -0.51826,-1.43823 -0.1992,-2.24382l11.4787,-29.32747c0.41047,-1.0254 1.09902,-1.54977 2.0656,-1.57308c1.03907,-0.02506 1.76418,0.46521 2.17527,1.47079l12.91811,28.84787c0.33337,0.78985 0.29045,1.51624 -0.12877,2.17919c-0.39504,0.66237 -1.0034,1.00345 -1.82496,1.02327c-0.43494,0.01049 -0.86074,-0.10013 -1.27736,-0.33186c-0.39247,-0.23233 -0.67852,-0.56394 -0.85812,-0.9948l-2.58045,-5.99453l-15.49692,0.37375l-2.32959,6.11298c-0.20642,0.46438 -0.5,0.82207 -0.8808,1.07304c-0.38139,0.22682 -0.77749,0.34515 -1.18826,0.35506zM302.75266,193.02161l-6.55284,-15.2226l-5.91577,15.52333z" fill="#9966ff" stroke="#28123b" stroke-width="8" stroke-linecap="butt"/><path d="M236.79816,206.21809c-1.86067,0.04488 -3.63168,-0.20254 -5.31303,-0.74227c-1.68133,-0.53974 -3.16284,-1.31401 -4.44445,-2.32274c-1.25746,-1.00935 -2.19246,-2.18364 -2.80506,-3.52288c-0.30454,-0.59712 -0.31794,-1.15291 -0.04022,-1.66735c0.30132,-0.53921 0.81271,-0.89002 1.53414,-1.0525c0.52872,-0.13365 1.03821,-0.06128 1.52849,0.21704c0.51386,0.25358 0.9104,0.65504 1.18961,1.20441c0.35578,0.71679 0.93971,1.36763 1.7517,1.95251c0.812,0.58488 1.77845,1.05722 2.89936,1.41708c1.14448,0.33507 2.34498,0.48749 3.60156,0.45719c1.37738,-0.03322 2.64079,-0.28131 3.7902,-0.74426c1.17357,-0.4635 2.10084,-1.11452 2.7818,-1.95304c0.70514,-0.8391 1.04311,-1.86274 1.01397,-3.07096c-0.0373,-1.54654 -0.67463,-2.90934 -1.912,-4.08844c-1.21321,-1.17969 -3.18861,-1.88154 -5.92618,-2.10565c-3.58454,-0.25204 -6.42506,-1.23528 -8.52158,-2.94976c-2.09655,-1.71449 -3.17596,-3.8645 -3.23833,-6.45013c-0.04604,-1.90902 0.44654,-3.54085 1.47771,-4.89555c1.03117,-1.3547 2.45687,-2.39252 4.27707,-3.11337c1.81961,-0.74506 3.85308,-1.14469 6.10037,-1.19889c1.76403,-0.04255 3.30431,0.1621 4.62085,0.61389c1.34071,0.45124 2.50486,1.10016 3.49242,1.94677c1.01171,0.84602 1.89433,1.85235 2.64785,3.01894c0.40179,0.61895 0.57345,1.21927 0.51493,1.80097c-0.03492,0.55695 -0.3023,0.99861 -0.80217,1.325c-0.52347,0.35112 -1.11375,0.43788 -1.77086,0.26033c-0.63293,-0.17816 -1.11317,-0.54133 -1.4407,-1.08952c-0.47954,-0.83465 -1.0646,-1.53383 -1.75518,-2.09746c-0.66645,-0.56422 -1.45047,-0.99262 -2.35214,-1.28517c-0.90224,-0.31673 -1.95747,-0.46053 -3.1657,-0.43139c-2.15121,0.0277 -3.94187,0.46986 -5.37192,1.32642c-1.40588,0.856 -2.08842,2.12972 -2.04762,3.82126c0.02098,0.86991 0.25857,1.69839 0.71276,2.48531c0.47837,0.78635 1.31656,1.45526 2.51463,2.00665c1.22223,0.55082 2.95963,0.90785 5.21218,1.07114c3.43954,0.25554 6.13508,1.24232 8.08665,2.96029c1.97513,1.69323 2.99708,3.96554 3.06585,6.81697c0.03963,1.64319 -0.26428,3.07706 -0.91175,4.30162c-0.64748,1.22456 -1.52885,2.2734 -2.64417,3.14655c-1.11592,0.84901 -2.40593,1.49667 -3.87007,1.94302c-1.44054,0.42161 -2.93408,0.65105 -4.48062,0.68835z" fill="#9966ff" stroke="#28123b" stroke-width="8" stroke-linecap="butt"/><path d="M119.64847,208.60843c-0.62827,0.01515 -1.16514,-0.18951 -1.61059,-0.61399c-0.44544,-0.42445 -0.67577,-0.95084 -0.69093,-1.57912l-0.70639,-29.28748c-0.01632,-0.67662 0.18806,-1.22556 0.61312,-1.64683c0.42445,-0.44544 0.95083,-0.67577 1.57912,-0.69093l19.57331,-0.47209c0.65246,-0.01574 1.18903,0.17685 1.60972,0.57774c0.42011,0.37673 0.63778,0.87922 0.65293,1.5075c0.01457,0.60411 -0.17887,1.10442 -0.58033,1.50101c-0.40204,0.37236 -0.92931,0.56645 -1.58176,0.58219l-17.32602,0.41789l0.25353,10.51162l12.43269,-0.29986c0.65246,-0.01574 1.18873,0.16476 1.60885,0.5415c0.42011,0.37673 0.63777,0.87921 0.65293,1.5075c0.01457,0.60411 -0.17889,1.10447 -0.58034,1.50101c-0.40145,0.39655 -0.92843,0.60267 -1.58087,0.61841l-12.43267,0.29987l0.30686,12.72268c0.01515,0.62827 -0.18951,1.16513 -0.61399,1.61059c-0.40029,0.44485 -0.92668,0.67519 -1.57912,0.69093z" fill="#9966ff" stroke="#28123b" stroke-width="8" stroke-linecap="butt"/><path d="M346.21063,203.14395c-0.62827,0.01515 -1.16514,-0.18951 -1.61059,-0.61399c-0.42127,-0.42503 -0.6395,-0.95171 -0.65466,-1.58l-0.70639,-29.28748c-0.01574,-0.65246 0.18864,-1.20137 0.61312,-1.64683c0.42445,-0.44544 0.93877,-0.67548 1.54288,-0.69006c0.65246,-0.01574 1.18934,0.18894 1.61061,0.61399c0.44544,0.42445 0.67605,0.96293 0.69179,1.61539l0.65219,27.04017l15.69493,-0.37855c0.6283,-0.01515 1.16521,0.18952 1.61067,0.614c0.44544,0.42445 0.67578,0.95083 0.69093,1.57912c0.01515,0.62827 -0.18952,1.16515 -0.61399,1.6106c-0.42445,0.44544 -0.95086,0.67577 -1.5792,0.69092z" fill="#9966ff" stroke="#28123b" stroke-width="8" stroke-linecap="butt"/><path d="M318.4257,203.81409c-0.62827,0.01515 -1.16514,-0.18951 -1.61059,-0.61399c-0.42127,-0.42503 -0.63951,-0.95171 -0.65466,-1.58l-0.70639,-29.28748c-0.01574,-0.65246 0.18864,-1.20137 0.61312,-1.64683c0.42445,-0.44544 0.93878,-0.67548 1.54289,-0.69005c0.65246,-0.01574 1.18931,0.18893 1.61059,0.61399c0.44544,0.42445 0.67606,0.96293 0.6918,1.61539l0.65219,27.04016l15.69492,-0.37855c0.62827,-0.01515 1.16514,0.18952 1.61059,0.61399c0.44544,0.42445 0.67577,0.95083 0.69093,1.57912c0.01515,0.62827 -0.18952,1.16515 -0.61399,1.6106c-0.42445,0.44544 -0.95083,0.67577 -1.57912,0.69092z" fill="#9966ff" stroke="#28123b" stroke-width="8" stroke-linecap="butt"/><path d="M257.88281,204.9639c-0.62827,0.01515 -1.16514,-0.18951 -1.61059,-0.61398c-0.44544,-0.42445 -0.67577,-0.95086 -0.69093,-1.57914l-0.70639,-29.28748c-0.01632,-0.67662 0.18806,-1.22556 0.61312,-1.64683c0.42445,-0.44544 0.95084,-0.67576 1.57912,-0.69092l10.3666,-0.25003c1.95732,-0.04721 3.68235,0.29805 5.17504,1.03576c1.51686,0.73713 2.71446,1.77211 3.5929,3.1049c0.87836,1.3328 1.33888,2.88125 1.38143,4.64527c0.03381,1.40156 -0.32194,2.69159 -1.06723,3.87014c-0.72171,1.1538 -1.73923,2.07296 -3.05254,2.75745c1.92009,0.41309 3.47639,1.28223 4.66894,2.60751c1.19254,1.32523 1.81533,3.08736 1.86837,5.28633c0.04837,2.00565 -0.38028,3.78104 -1.28598,5.32614c-0.9057,1.54509 -2.19354,2.7851 -3.86349,3.71999c-1.64636,0.91012 -3.5449,1.39116 -5.69552,1.44303zM260.06587,200.74044l8.98921,-0.21681c1.32906,-0.03205 2.48342,-0.2896 3.46307,-0.77259c1.00384,-0.48361 1.78495,-1.17945 2.34334,-2.08753c0.5584,-0.90807 0.82156,-2.02663 0.78951,-3.35568c-0.02973,-1.2324 -0.34418,-2.24033 -0.94337,-3.02375c-0.59978,-0.80763 -1.41206,-1.40458 -2.43689,-1.79087c-1.00122,-0.41105 -2.16637,-0.60057 -3.49542,-0.56852l-8.98921,0.21681zM259.68645,185.00928l8.08305,-0.19496c1.64319,-0.03963 2.97472,-0.47071 3.99459,-1.29317c1.04341,-0.84726 1.54532,-2.09247 1.50569,-3.73565c-0.03963,-1.64319 -0.6007,-2.85066 -1.68316,-3.62245c-1.05831,-0.77237 -2.40905,-1.13872 -4.05225,-1.09909l-8.08304,0.19496z" fill="#af87ff" stroke="#af87ff" stroke-width="2" stroke-linecap="butt"/><path d="M284.28586,204.32709c-0.79743,0.01923 -1.42178,-0.3042 -1.87304,-0.97032c-0.45185,-0.69027 -0.51826,-1.43823 -0.1992,-2.24382l11.4787,-29.32749c0.41047,-1.0254 1.09901,-1.54976 2.06558,-1.57307c1.03907,-0.02506 1.76418,0.4652 2.17527,1.47078l12.9181,28.84787c0.33337,0.78985 0.29045,1.51624 -0.12877,2.17919c-0.39504,0.66237 -1.0034,1.00344 -1.82496,1.02326c-0.43494,0.01049 -0.86074,-0.10013 -1.27736,-0.33186c-0.39247,-0.23233 -0.67852,-0.56394 -0.85812,-0.9948l-2.58047,-5.99454l-15.49691,0.37376l-2.3296,6.11302c-0.20642,0.46438 -0.50004,0.82207 -0.88082,1.07304c-0.38139,0.22682 -0.77749,0.34519 -1.18826,0.3551zM302.59005,192.71506l-6.55282,-15.22255l-5.91574,15.52328z" fill="#af87ff" stroke="#af87ff" stroke-width="2" stroke-linecap="butt"/><path d="M236.63554,205.91156c-1.86067,0.04488 -3.63168,-0.20254 -5.31301,-0.74227c-1.68133,-0.53974 -3.16284,-1.31401 -4.44445,-2.32274c-1.25746,-1.00935 -2.19247,-2.18364 -2.80507,-3.52284c-0.30454,-0.59712 -0.31794,-1.15291 -0.04022,-1.66734c0.30132,-0.53921 0.81271,-0.89003 1.53414,-1.0525c0.52872,-0.13365 1.0382,-0.06127 1.52849,0.21702c0.51386,0.25358 0.9104,0.65506 1.18962,1.20442c0.35578,0.71679 0.93971,1.36758 1.7517,1.95249c0.812,0.58488 1.77845,1.05726 2.89936,1.41708c1.14448,0.33507 2.34503,0.48749 3.60157,0.45718c1.37738,-0.03322 2.64079,-0.28131 3.7902,-0.74426c1.17357,-0.4635 2.10084,-1.11451 2.7818,-1.95303c0.70514,-0.8391 1.04311,-1.86273 1.01397,-3.07096c-0.0373,-1.54654 -0.67463,-2.90935 -1.912,-4.08844c-1.21321,-1.17969 -3.18861,-1.88158 -5.92618,-2.10569c-3.58454,-0.25204 -6.42506,-1.23528 -8.52158,-2.94975c-2.09655,-1.71449 -3.17597,-3.86451 -3.23833,-6.45013c-0.04604,-1.90902 0.44654,-3.54085 1.47771,-4.89555c1.03117,-1.3547 2.45686,-2.39252 4.27704,-3.11337c1.81961,-0.74506 3.85309,-1.14469 6.10039,-1.1989c1.76403,-0.04255 3.3043,0.1621 4.62085,0.6139c1.34071,0.45124 2.50487,1.10016 3.49244,1.94677c1.01171,0.84602 1.89432,1.85234 2.64785,3.01891c0.40179,0.61895 0.57345,1.21927 0.51493,1.80097c-0.03492,0.55695 -0.3023,0.9986 -0.80221,1.325c-0.52347,0.35112 -1.11372,0.43788 -1.77082,0.26033c-0.63293,-0.17816 -1.11317,-0.54134 -1.44072,-1.08952c-0.47954,-0.83465 -1.06459,-1.53383 -1.75516,-2.09746c-0.66645,-0.5642 -1.45049,-0.99261 -2.35215,-1.28517c-0.90224,-0.31673 -1.95746,-0.46055 -3.1657,-0.43141c-2.15121,0.0277 -3.94187,0.46986 -5.37192,1.32642c-1.40588,0.856 -2.08843,2.12973 -2.04763,3.82126c0.02098,0.86991 0.25858,1.69837 0.71277,2.48531c0.47837,0.78635 1.31656,1.45526 2.51462,2.00664c1.22223,0.55082 2.95963,0.90787 5.21218,1.07114c3.43954,0.25554 6.13508,1.24228 8.08663,2.96028c1.97513,1.69323 2.99708,3.96554 3.06585,6.81697c0.03963,1.64319 -0.26427,3.07707 -0.91174,4.30162c-0.64748,1.22456 -1.52886,2.2734 -2.6442,3.14655c-1.11592,0.84901 -2.40593,1.49663 -3.87007,1.94299c-1.44054,0.42161 -2.93408,0.65107 -4.48062,0.68837z" fill="#af87ff" stroke="#af87ff" stroke-width="2" stroke-linecap="butt"/><path d="M119.48581,208.30192c-0.62827,0.01515 -1.16514,-0.18951 -1.61059,-0.61398c-0.44544,-0.42445 -0.67577,-0.95086 -0.69092,-1.57914l-0.70639,-29.28748c-0.01632,-0.67662 0.18806,-1.22556 0.61311,-1.64683c0.42445,-0.44544 0.95084,-0.67576 1.57912,-0.69091l19.57333,-0.47209c0.65246,-0.01574 1.18903,0.17683 1.60972,0.57774c0.42011,0.37673 0.63778,0.87922 0.65293,1.5075c0.01457,0.60411 -0.17887,1.10443 -0.58034,1.50101c-0.40204,0.37236 -0.92931,0.56645 -1.58174,0.58219l-17.32603,0.41789l0.25353,10.51162l12.43269,-0.29987c0.65246,-0.01574 1.18873,0.16474 1.60884,0.54148c0.42011,0.37673 0.63777,0.87922 0.65293,1.5075c0.01457,0.60411 -0.17887,1.10443 -0.58033,1.50101c-0.40145,0.39655 -0.92844,0.60269 -1.58088,0.61843l-12.43267,0.29987l0.30686,12.72265c0.01515,0.62827 -0.18951,1.16515 -0.61398,1.6106c-0.40029,0.44485 -0.92669,0.67517 -1.57912,0.69091z" fill="#af87ff" stroke="#af87ff" stroke-width="2" stroke-linecap="butt"/><path d="M346.048,202.83743c-0.62827,0.01515 -1.16515,-0.18951 -1.61061,-0.61398c-0.42127,-0.42503 -0.6395,-0.95173 -0.65465,-1.58001l-0.70639,-29.28748c-0.01574,-0.65246 0.18864,-1.20137 0.6131,-1.64683c0.42445,-0.44544 0.93877,-0.67547 1.54288,-0.69004c0.65246,-0.01574 1.18934,0.18893 1.61061,0.61398c0.44544,0.42445 0.67606,0.96295 0.6918,1.6154l0.65219,27.04016l15.69489,-0.37855c0.6283,-0.01515 1.16521,0.18951 1.61067,0.61398c0.44544,0.42445 0.67578,0.95086 0.69093,1.57913c0.01515,0.62827 -0.18952,1.16514 -0.61399,1.61059c-0.42445,0.44544 -0.95086,0.67576 -1.5792,0.69091z" fill="#af87ff" stroke="#af87ff" stroke-width="2" stroke-linecap="butt"/><path d="M318.26307,203.50758c-0.62827,0.01515 -1.16513,-0.18951 -1.61059,-0.61397c-0.42127,-0.42503 -0.63951,-0.95174 -0.65466,-1.58001l-0.70639,-29.28748c-0.01574,-0.65246 0.18864,-1.20137 0.61312,-1.64683c0.42445,-0.44544 0.93877,-0.67546 1.54289,-0.69004c0.65246,-0.01574 1.18934,0.18893 1.61061,0.61397c0.44544,0.42445 0.67605,0.96295 0.69179,1.6154l0.65219,27.04016l15.69492,-0.37855c0.62827,-0.01515 1.16514,0.18951 1.6106,0.61398c0.44544,0.42445 0.67576,0.95086 0.69092,1.57913c0.01515,0.62827 -0.18952,1.16514 -0.61398,1.61059c-0.42445,0.44544 -0.95085,0.67576 -1.57913,0.69091z" fill="#af87ff" stroke="#af87ff" stroke-width="2" stroke-linecap="butt"/><path d="M255.03911,172.99567c-0.46541,0.01123 -0.47664,-0.45419 -0.47664,-0.45419l0.03662,-0.51961c0.59317,-1.17378 1.52515,-1.71065 2.76897,-1.20644c0,0 0.42132,0.1981 0.2232,0.6194c-0.1981,0.42132 -0.6194,0.2232 -0.6194,0.2232c-0.65387,-0.39227 -1.25391,0.0991 -1.53013,0.76004l0.05159,0.10095c0,0 0.01122,0.46541 -0.45419,0.47664z" fill="#ffffff" stroke="none" stroke-width="0.5" stroke-linecap="butt"/><path d="M227.12697,174.2586c-0.44508,-0.13652 -0.30856,-0.58163 -0.30856,-0.58163l0.21599,-0.66161c0.61755,-0.66783 1.05088,-0.93453 1.93114,-1.18496c0,0 0.44882,-0.12376 0.57258,0.32506c0.12376,0.44882 -0.32502,0.57259 -0.32502,0.57259c-0.62813,0.16654 -0.92268,0.30805 -1.37504,0.7576l-0.12943,0.46439c0,0 -0.13653,0.44508 -0.58163,0.30856z" fill="#ffffff" stroke="none" stroke-width="0.5" stroke-linecap="butt"/><path d="M255.03911,172.99567c-0.46541,0.01123 -0.47664,-0.45419 -0.47664,-0.45419l0.03662,-0.51961c0.59317,-1.17378 1.52515,-1.71065 2.76897,-1.20644c0,0 0.42132,0.1981 0.2232,0.6194c-0.1981,0.42132 -0.6194,0.2232 -0.6194,0.2232c-0.65387,-0.39227 -1.25391,0.0991 -1.53013,0.76004l0.05159,0.10095c0,0 0.01122,0.46541 -0.45419,0.47664z" fill="#ffffff" stroke="#ffffff" stroke-width="1" stroke-linecap="butt"/><path d="M227.12697,174.2586c-0.44508,-0.13652 -0.30856,-0.58163 -0.30856,-0.58163l0.21599,-0.66161c0.61755,-0.66783 1.05088,-0.93453 1.93114,-1.18496c0,0 0.44882,-0.12376 0.57258,0.32506c0.12376,0.44882 -0.32502,0.57259 -0.32502,0.57259c-0.62813,0.16654 -0.92268,0.30805 -1.37504,0.7576l-0.12943,0.46439c0,0 -0.13653,0.44508 -0.58163,0.30856z" fill="#ffffff" stroke="#ffffff" stroke-width="1" stroke-linecap="butt"/><path d="M315.24054,171.79201c-0.46541,0.01123 -0.47664,-0.45419 -0.47664,-0.45419l0.03662,-0.51961c0.59317,-1.17378 1.52516,-1.71065 2.76898,-1.20645c0,0 0.42132,0.1981 0.2232,0.6194c-0.1981,0.42132 -0.6194,0.2232 -0.6194,0.2232c-0.65387,-0.39227 -1.25391,0.0991 -1.53013,0.76004l0.05159,0.10095c0,0 0.01123,0.46541 -0.45419,0.47664z" fill="#ffffff" stroke="#ffffff" stroke-width="1" stroke-linecap="butt"/><path d="M293.15623,172.64078c-0.42132,-0.19811 -0.2232,-0.6194 -0.2232,-0.6194l0.20502,-0.42759c0.60504,-0.95011 1.05997,-1.33963 2.21703,-1.37852c0,0 0.46542,-0.01123 0.47664,0.45419c0.01123,0.46541 -0.45419,0.47664 -0.45419,0.47664c-0.84788,0.00993 -1.011,0.24152 -1.4525,0.94533l-0.14937,0.32611c0,0 -0.19812,0.42132 -0.6194,0.2232z" fill="#ffffff" stroke="#ffffff" stroke-width="1" stroke-linecap="butt"/><path d="M342.78939,170.94124c-0.46541,0.01123 -0.47663,-0.45419 -0.47663,-0.45419l0.03662,-0.51961c0.59317,-1.17378 1.52516,-1.71065 2.76898,-1.20645c0,0 0.42132,0.1981 0.2232,0.6194c-0.1981,0.42132 -0.6194,0.2232 -0.6194,0.2232c-0.65387,-0.39227 -1.25391,0.0991 -1.53013,0.76004l0.05159,0.10095c0,0 0.01123,0.46541 -0.45419,0.47664z" fill="#ffffff" stroke="#ffffff" stroke-width="1" stroke-linecap="butt"/><path d="M161.22173,208.0837c-2.53729,0.0612 -4.86728,-0.30575 -6.99,-1.10076c-2.1233,-0.8192 -3.96449,-1.97162 -5.52358,-3.45731c-1.53551,-1.5104 -2.7518,-3.31865 -3.64883,-5.42474c-0.89701,-2.10608 -1.37615,-4.42773 -1.43735,-6.96505c-0.0612,-2.53729 0.30574,-4.86728 1.10081,-6.98999c0.79502,-2.12272 1.92302,-3.97541 3.38396,-5.55808c1.48506,-1.58326 3.26855,-2.82313 5.35048,-3.71959c2.08193,-0.89643 4.3915,-1.37527 6.92879,-1.43647c2.56144,-0.06178 4.89144,0.30516 6.99,1.10079c2.12272,0.79502 3.96391,1.94749 5.52358,3.45732c1.55967,1.50982 2.77564,3.306 3.64798,5.38849c0.89643,2.08193 1.37532,4.39151 1.43652,6.9288c0.0612,2.53729 -0.30546,4.87937 -1.09989,7.02625c-0.77033,2.1463 -1.89799,4.01106 -3.38306,5.59432c-1.48564,1.55908 -3.26913,2.79897 -5.35048,3.7196c-2.05775,0.89585 -4.36736,1.37472 -6.9288,1.4365zM161.12381,204.02403c1.88485,-0.04546 3.60445,-0.42543 5.15883,-1.13993c1.55436,-0.71451 2.89695,-1.68983 4.02771,-2.92604c1.13076,-1.23622 1.97897,-2.65902 2.54463,-4.26846c0.58922,-1.6342 0.86111,-3.39366 0.81565,-5.27852c-0.04488,-1.86067 -0.40098,-3.59292 -1.06831,-5.1968c-0.64316,-1.60447 -1.55896,-2.98474 -2.74744,-4.14082c-1.18905,-1.18027 -2.57676,-2.07764 -4.16321,-2.69222c-1.587,-0.63874 -3.32294,-0.93535 -5.20777,-0.88989c-1.86067,0.04488 -3.5682,0.42455 -5.12257,1.13905c-1.55495,0.69034 -2.89783,1.65358 -4.02859,2.88981c-1.10718,1.21146 -1.95535,2.63428 -2.54457,4.26845c-0.58922,1.6342 -0.86141,3.38161 -0.81653,5.24229c0.04546,1.88485 0.40186,3.62919 1.06919,5.23307c0.66674,1.5797 1.58257,2.96 2.74745,4.14082c1.18905,1.18027 2.57705,2.08973 4.1641,2.72846c1.587,0.63874 3.31088,0.93564 5.17153,0.89077z" fill="#9966ff" stroke="#28123b" stroke-width="8" stroke-linecap="butt"/><path d="M200.21538,207.14321c-2.53729,0.0612 -4.86726,-0.30575 -6.99,-1.10077c-2.1233,-0.8192 -3.96449,-1.97162 -5.52358,-3.45731c-1.53551,-1.5104 -2.75176,-3.31865 -3.64882,-5.42474c-0.89701,-2.10608 -1.37615,-4.42773 -1.43735,-6.96505c-0.0612,-2.53729 0.30575,-4.86728 1.10079,-6.99c0.79502,-2.12272 1.92305,-3.9754 3.38396,-5.55808c1.48506,-1.58326 3.26855,-2.82313 5.35048,-3.71959c2.08193,-0.89643 4.39151,-1.37527 6.92879,-1.43647c2.56144,-0.06178 4.89146,0.30516 6.98999,1.10079c2.12272,0.79502 3.96391,1.94749 5.52359,3.45732c1.55967,1.50982 2.77566,3.306 3.64797,5.38849c0.89643,2.08193 1.3753,4.3915 1.4365,6.9288c0.0612,2.53729 -0.30546,4.87937 -1.09989,7.02625c-0.77033,2.1463 -1.89798,4.01106 -3.38306,5.59432c-1.48564,1.55908 -3.26913,2.79897 -5.35048,3.7196c-2.05775,0.89585 -4.36736,1.37472 -6.9288,1.4365zM200.11747,203.08353c1.88485,-0.04546 3.60444,-0.42543 5.15885,-1.13993c1.55436,-0.71451 2.89695,-1.68983 4.02771,-2.92604c1.13076,-1.23622 1.97897,-2.65901 2.54463,-4.26845c0.58922,-1.6342 0.86112,-3.39367 0.81566,-5.27852c-0.04488,-1.86067 -0.40098,-3.59292 -1.06831,-5.1968c-0.64316,-1.60447 -1.55896,-2.98474 -2.74744,-4.14082c-1.18905,-1.18027 -2.57676,-2.07764 -4.16321,-2.69221c-1.587,-0.63874 -3.32294,-0.93535 -5.20777,-0.88989c-1.86067,0.04488 -3.56822,0.42455 -5.12258,1.13905c-1.55495,0.69034 -2.89781,1.65358 -4.02858,2.88981c-1.10718,1.21146 -1.95539,2.63428 -2.54461,4.26846c-0.58922,1.6342 -0.86141,3.38161 -0.81653,5.24229c0.04546,1.88485 0.40186,3.62919 1.06919,5.23307c0.66674,1.5797 1.58256,2.96 2.74745,4.14082c1.18905,1.18027 2.57705,2.08973 4.1641,2.72846c1.587,0.63874 3.31088,0.93564 5.17154,0.89076z" fill="#9966ff" stroke="#28123b" stroke-width="8" stroke-linecap="butt"/><path d="M200.05276,206.83667c-2.53729,0.0612 -4.86728,-0.30575 -6.98999,-1.10077c-2.1233,-0.8192 -3.9645,-1.97166 -5.52358,-3.45731c-1.53551,-1.5104 -2.7518,-3.31863 -3.64883,-5.42472c-0.89701,-2.10608 -1.37615,-4.42776 -1.43735,-6.96504c-0.0612,-2.53729 0.30574,-4.86728 1.10081,-6.98999c0.79502,-2.12272 1.92302,-3.97541 3.38395,-5.55809c1.48506,-1.58326 3.26855,-2.82311 5.35048,-3.71958c2.08193,-0.89643 4.39151,-1.37528 6.9288,-1.43648c2.56144,-0.06178 4.89144,0.30517 6.98999,1.10079c2.12272,0.79502 3.96391,1.9475 5.52359,3.45733c1.55967,1.50982 2.77564,3.306 3.64797,5.38849c0.89643,2.08193 1.37533,4.39151 1.43653,6.9288c0.0612,2.53729 -0.30546,4.87937 -1.0999,7.02624c-0.77033,2.1463 -1.89799,4.01106 -3.38306,5.59432c-1.48564,1.55908 -3.26913,2.79896 -5.35048,3.71959c-2.05775,0.89585 -4.36736,1.37472 -6.9288,1.4365zM199.95484,202.777c1.88485,-0.04546 3.60445,-0.42543 5.15883,-1.13992c1.55436,-0.71451 2.89698,-1.68984 4.02772,-2.92605c1.13076,-1.23622 1.97897,-2.65901 2.54463,-4.26845c0.58922,-1.6342 0.86111,-3.39367 0.81565,-5.27852c-0.04488,-1.86067 -0.40098,-3.59295 -1.06831,-5.19683c-0.64316,-1.60447 -1.55897,-2.98473 -2.74745,-4.14081c-1.18905,-1.18027 -2.57675,-2.07764 -4.1632,-2.69222c-1.587,-0.63874 -3.32295,-0.93536 -5.20778,-0.8899c-1.86067,0.04488 -3.56819,0.42456 -5.12257,1.13905c-1.55495,0.69034 -2.89783,1.65358 -4.02859,2.88981c-1.10718,1.21146 -1.95535,2.63428 -2.54457,4.26846c-0.58922,1.6342 -0.86141,3.3816 -0.81654,5.24228c0.04546,1.88485 0.40186,3.6292 1.06919,5.23308c0.66674,1.5797 1.58257,2.95997 2.74745,4.14081c1.18905,1.18027 2.57705,2.08973 4.1641,2.72846c1.587,0.63874 3.31088,0.93564 5.17153,0.89077z" fill="#ff7a90" stroke="#ff7a90" stroke-width="2" stroke-linecap="butt"/><path d="M161.26764,207.55835c-2.53729,0.0612 -4.86728,-0.30575 -6.98999,-1.10077c-2.1233,-0.8192 -3.9645,-1.97167 -5.52358,-3.45731c-1.53551,-1.5104 -2.75176,-3.31863 -3.64883,-5.42472c-0.89701,-2.10608 -1.37615,-4.42776 -1.43735,-6.96504c-0.0612,-2.53729 0.30575,-4.86728 1.10079,-6.99c0.79502,-2.12272 1.92305,-3.97541 3.38395,-5.55809c1.48506,-1.58326 3.26855,-2.82311 5.35048,-3.71958c2.08193,-0.89643 4.39151,-1.37528 6.9288,-1.43648c2.56144,-0.06178 4.89146,0.30516 6.98999,1.10079c2.12272,0.79502 3.96391,1.9475 5.52358,3.45733c1.55967,1.50982 2.77564,3.306 3.64798,5.38849c0.89643,2.08193 1.3753,4.3915 1.4365,6.9288c0.0612,2.53729 -0.30546,4.87937 -1.0999,7.02624c-0.77033,2.1463 -1.89797,4.01106 -3.38306,5.59432c-1.48564,1.55908 -3.26913,2.79896 -5.35048,3.71959c-2.05775,0.89585 -4.36735,1.37472 -6.9288,1.4365zM161.16973,203.49868c1.88485,-0.04546 3.60444,-0.42542 5.15885,-1.13992c1.55436,-0.71451 2.89698,-1.68984 4.02772,-2.92605c1.13076,-1.23622 1.97894,-2.65902 2.54461,-4.26846c0.58922,-1.6342 0.86112,-3.39366 0.81566,-5.27852c-0.04488,-1.86067 -0.40098,-3.59295 -1.06831,-5.19683c-0.64316,-1.60447 -1.55896,-2.98474 -2.74744,-4.14081c-1.18905,-1.18027 -2.57676,-2.07764 -4.16321,-2.69222c-1.587,-0.63874 -3.32296,-0.93535 -5.20777,-0.88989c-1.86067,0.04488 -3.56822,0.42456 -5.12258,1.13905c-1.55495,0.69034 -2.8978,1.65358 -4.02857,2.88981c-1.10718,1.21146 -1.95539,2.63428 -2.54461,4.26846c-0.58922,1.6342 -0.86141,3.3816 -0.81653,5.24228c0.04546,1.88485 0.40186,3.6292 1.06919,5.23308c0.66674,1.5797 1.58258,2.95997 2.74745,4.14081c1.18905,1.18027 2.57704,2.08973 4.16409,2.72846c1.587,0.63874 3.31088,0.93564 5.17154,0.89077z" fill="#57a0ff" stroke="#57a0ff" stroke-width="2" stroke-linecap="butt"/><path d="M149.59734,176.9128c-0.42132,-0.1981 -0.2232,-0.61941 -0.2232,-0.61941l0.28115,-0.54178c0.7421,-0.7732 1.43098,-1.32935 2.45378,-1.63052c0,0 0.44883,-0.12376 0.57259,0.32502c0.12376,0.44882 -0.32502,0.57258 -0.32502,0.57258c-0.83252,0.20896 -1.42837,0.74149 -2.02723,1.37525l-0.11261,0.29565c0,0 -0.1981,0.42132 -0.6194,0.2232z" fill="#ffffff" stroke="none" stroke-width="0.5" stroke-linecap="butt"/><path d="M188.99316,175.52794c-0.4213,-0.19811 -0.2232,-0.6194 -0.2232,-0.6194l0.28115,-0.54177c0.74211,-0.7732 1.43098,-1.32935 2.45377,-1.63053c0,0 0.44883,-0.12379 0.57259,0.32502c0.12376,0.44882 -0.32507,0.57258 -0.32507,0.57258c-0.83251,0.20894 -1.42837,0.74149 -2.02722,1.37525l-0.1126,0.29565c0,0 -0.19812,0.42129 -0.6194,0.2232z" fill="#ffffff" stroke="none" stroke-width="0.5" stroke-linecap="butt"/><path d="M148.94423,190.89327c-0.15621,-6.47646 4.96736,-11.85328 11.44382,-12.00949c6.47646,-0.15621 11.85328,4.96735 12.00949,11.44382c0.15621,6.47646 -4.96735,11.85328 -11.44381,12.00949c-6.47646,0.15621 -11.85329,-4.96735 -12.0095,-11.44382z" fill="#28123b" stroke="none" stroke-width="0" stroke-linecap="butt"/><path d="M187.98758,189.61475c-0.15621,-6.47646 4.96735,-11.85329 11.44383,-12.0095c6.47646,-0.15621 11.85328,4.96735 12.00949,11.44383c0.15621,6.47646 -4.96735,11.85328 -11.44382,12.00949c-6.47646,0.15621 -11.85329,-4.96735 -12.0095,-11.44382z" fill="#28123b" stroke="none" stroke-width="0" stroke-linecap="butt"/><path d="M149.59734,176.9128c-0.42132,-0.1981 -0.2232,-0.61941 -0.2232,-0.61941l0.28115,-0.54178c0.7421,-0.7732 1.43098,-1.32935 2.45378,-1.63052c0,0 0.44883,-0.12376 0.57259,0.32502c0.12376,0.44882 -0.32502,0.57258 -0.32502,0.57258c-0.83252,0.20896 -1.42837,0.74149 -2.02723,1.37525l-0.11261,0.29565c0,0 -0.1981,0.42132 -0.6194,0.2232z" fill="#ffffff" stroke="#ffffff" stroke-width="1" stroke-linecap="butt"/><path d="M188.99316,175.52794c-0.4213,-0.19811 -0.2232,-0.6194 -0.2232,-0.6194l0.28115,-0.54177c0.74211,-0.7732 1.43098,-1.32935 2.45377,-1.63053c0,0 0.44883,-0.12379 0.57259,0.32502c0.12376,0.44882 -0.32507,0.57258 -0.32507,0.57258c-0.83251,0.20894 -1.42837,0.74149 -2.02722,1.37525l-0.1126,0.29565c0,0 -0.19812,0.42129 -0.6194,0.2232z" fill="#ffffff" stroke="#ffffff" stroke-width="1" stroke-linecap="butt"/><path d="M145.73068,190.71558c-0.19753,-8.18991 6.28156,-14.98927 14.47147,-15.1868c8.18991,-0.19753 14.98928,6.28156 15.18681,14.47147c0.19753,8.18991 -6.28155,14.98927 -14.47147,15.1868c-8.18991,0.19753 -14.98927,-6.28156 -15.1868,-14.47147z" fill="#86baff" stroke="none" stroke-width="0" stroke-linecap="butt"/><path d="M184.78671,190.24524c-0.19753,-8.18991 6.28156,-14.98928 14.47147,-15.18681c8.18991,-0.19753 14.98928,6.28155 15.18681,14.47147c0.19753,8.18991 -6.28156,14.98927 -14.47148,15.1868c-8.18991,0.19753 -14.98927,-6.28156 -15.1868,-14.47147z" fill="#ff9aab" stroke="none" stroke-width="0" stroke-linecap="butt"/><path d="M117.15043,176.8945c-0.46541,0.01123 -0.47664,-0.45419 -0.47664,-0.45419l0.03662,-0.51961c0.59317,-1.17378 1.52515,-1.71065 2.76897,-1.20645c0,0 0.42132,0.1981 0.2232,0.6194c-0.1981,0.42132 -0.6194,0.2232 -0.6194,0.2232c-0.65387,-0.39227 -1.2539,0.0991 -1.53012,0.76004l0.05159,0.10095c0,0 0.01123,0.46541 -0.45419,0.47664z" fill="#ffffff" stroke="none" stroke-width="0.5" stroke-linecap="butt"/><path d="M117.15043,176.8945c-0.46541,0.01123 -0.47664,-0.45419 -0.47664,-0.45419l0.03662,-0.51961c0.59317,-1.17378 1.52515,-1.71065 2.76897,-1.20645c0,0 0.42132,0.1981 0.2232,0.6194c-0.1981,0.42132 -0.6194,0.2232 -0.6194,0.2232c-0.65387,-0.39227 -1.2539,0.0991 -1.53012,0.76004l0.05159,0.10095c0,0 0.01123,0.46541 -0.45419,0.47664z" fill="#ffffff" stroke="#ffffff" stroke-width="1" stroke-linecap="butt"/><path d="M313.93532,167.28796c-0.46473,0.02755 -0.49227,-0.43719 -0.49227,-0.43719l0.01837,-0.52057c0.55163,-1.19387 1.4642,-1.7631 2.72495,-1.30284c0,0 0.428,0.1832 0.2448,0.61118c-0.18321,0.42801 -0.61118,0.24481 -0.61118,0.24481c-0.66723,-0.36909 -1.24965,0.14302 -1.50253,0.81324l0.0551,0.09909c0,0 0.02754,0.46473 -0.43719,0.49227z" fill="#ffffff" stroke="none" stroke-width="0.5" stroke-linecap="butt"/><path d="M291.89438,168.91097c-0.42801,-0.18322 -0.2448,-0.61119 -0.2448,-0.61119l0.18989,-0.43452c0.57134,-0.97075 1.01233,-1.37599 2.16731,-1.45545c0,0 0.46474,-0.02755 0.49228,0.43719c0.02755,0.46473 -0.43719,0.49228 -0.43719,0.49228c-0.84701,0.03967 -1.00191,0.27684 -1.41845,0.9957l-0.13784,0.33115c0,0 -0.18321,0.42801 -0.61118,0.2448z" fill="#ffffff" stroke="none" stroke-width="0.5" stroke-linecap="butt"/><path d="M341.43737,165.47134c-0.46473,0.02755 -0.49228,-0.43719 -0.49228,-0.43719l0.01837,-0.52058c0.55163,-1.19387 1.4642,-1.7631 2.72495,-1.30284c0,0 0.42801,0.18321 0.24481,0.61119c-0.18321,0.42801 -0.61119,0.2448 -0.61119,0.2448c-0.66723,-0.36909 -1.24965,0.14303 -1.50253,0.81325l0.0551,0.09908c0,0 0.02755,0.46474 -0.43719,0.49228z" fill="#ffffff" stroke="none" stroke-width="0.5" stroke-linecap="butt"/><path d="M257.94987,202.75219c-0.62735,0.03719 -1.17108,-0.14853 -1.63115,-0.55712c-0.46005,-0.40857 -0.70871,-0.92655 -0.74588,-1.55391l-1.73336,-29.24467c-0.04004,-0.67563 0.14495,-1.23141 0.55496,-1.66733c0.40857,-0.46005 0.92655,-0.70872 1.55391,-0.74589l10.35149,-0.61355c1.95446,-0.11584 3.69052,0.16869 5.20818,0.85358c1.54179,0.68346 2.77496,1.6758 3.69961,2.97696c0.92457,1.30117 1.43912,2.8325 1.54353,4.59394c0.08296,1.39951 -0.22732,2.70123 -0.93081,3.9052c-0.6808,1.17842 -1.66545,2.13268 -2.95393,2.86283c1.93341,0.34548 3.51925,1.15952 4.75754,2.44211c1.23829,1.28258 1.92252,3.02178 2.05265,5.21754c0.11871,2.00271 -0.24739,3.79205 -1.09835,5.36797c-0.85094,1.57591 -2.09448,2.86034 -3.73061,3.85322c-1.61342,0.96732 -3.49392,1.51465 -5.6414,1.64194zM259.98337,198.45473l8.97609,-0.53202c1.32712,-0.07866 2.47174,-0.37654 3.43387,-0.89361c0.98626,-0.51853 1.74246,-1.24133 2.26867,-2.16845c0.5262,-0.9271 0.74994,-2.0542 0.67128,-3.38133c-0.07294,-1.23059 -0.42255,-2.22687 -1.04884,-2.9888c-0.62775,-0.78609 -1.46046,-1.35415 -2.49821,-1.70428c-1.01503,-0.37567 -2.18612,-0.5242 -3.51324,-0.44554l-8.97609,0.53202zM259.05232,182.74659l8.07127,-0.4784c1.64079,-0.09725 2.95638,-0.57473 3.94677,-1.4325c1.01305,-0.88334 1.47096,-2.14539 1.37372,-3.78617c-0.09725,-1.64079 -0.70034,-2.82787 -1.8092,-3.5612c-1.08475,-0.73477 -2.4475,-1.0535 -4.08831,-0.95625l-8.07124,0.47839z" fill="#9966ff" stroke="#28123b" stroke-width="8" stroke-linecap="butt"/><path d="M284.31428,201.18956c-0.79627,0.04719 -1.43157,-0.25414 -1.90593,-0.90403c-0.47578,-0.67399 -0.56839,-1.41914 -0.27778,-2.23545l10.44283,-29.71209c0.37424,-1.03917 1.04398,-1.58736 2.00914,-1.64457c1.03756,-0.0615 1.77942,0.40304 2.22553,1.39358l13.92214,28.37694c0.36087,0.77767 0.34347,1.50512 -0.05224,2.18237c-0.37156,0.67582 -0.96758,1.03803 -1.78795,1.08665c-0.43431,0.02575 -0.86373,-0.06989 -1.28822,-0.28684c-0.40038,-0.21842 -0.6979,-0.53979 -0.8925,-0.96409l-2.78914,-5.90032l-15.47427,0.91716l-2.11371,6.19093c-0.19,0.47133 -0.47085,0.8391 -0.84262,1.10327c-0.3732,0.24006 -0.76491,0.37221 -1.17507,0.39652zM302.19989,188.94259l-7.08282,-14.98336l-5.36757,15.7213z" fill="#9966ff" stroke="#28123b" stroke-width="8" stroke-linecap="butt"/><path d="M236.74888,204.44465c-1.85794,0.11012 -3.63654,-0.07502 -5.33579,-0.55544c-1.69923,-0.48043 -3.207,-1.20225 -4.5232,-2.1654c-1.29209,-0.96462 -2.26771,-2.10538 -2.92692,-3.42231c-0.32529,-0.58608 -0.35818,-1.14105 -0.09868,-1.66492c0.28222,-0.54945 0.78099,-0.91798 1.49627,-1.10567c0.52371,-0.15212 1.03542,-0.09766 1.53516,0.16328c0.52245,0.2354 0.93282,0.6227 1.23114,1.16194c0.3807,0.70388 0.98711,1.33382 1.81911,1.88985c0.83202,0.55604 1.81444,0.99418 2.94729,1.3145c1.15553,0.29472 2.36063,0.40493 3.61538,0.33056c1.37537,-0.08152 2.6293,-0.37378 3.76175,-0.87676c1.15659,-0.50438 2.06045,-1.18752 2.71157,-2.04942c0.67527,-0.86332 0.97712,-1.8982 0.9056,-3.10465c-0.09153,-1.54428 -0.77628,-2.88388 -2.05424,-4.01885c-1.25384,-1.1364 -3.25266,-1.76854 -5.9964,-1.89647c-3.59117,-0.12614 -6.46444,-1.00913 -8.61982,-2.64901c-2.1554,-1.63988 -3.30956,-3.75071 -3.4626,-6.33256c-0.11298,-1.90624 0.32205,-3.55433 1.30505,-4.94437c0.98302,-1.39004 2.37143,-2.47723 4.16523,-3.26149c1.79236,-0.80844 3.81056,-1.27915 6.05456,-1.41215c1.76144,-0.1044 3.30797,0.04608 4.63954,0.45141c1.35572,0.40392 2.54192,1.01162 3.55858,1.82306c1.04078,0.81 1.95814,1.78477 2.75212,2.9242c0.42326,0.60447 0.61588,1.19841 0.5778,1.7818c-0.01536,0.55783 -0.26709,1.00861 -0.7552,1.35233c-0.51083,0.36926 -1.09771,0.47669 -1.76065,0.32229c-0.63879,-0.15585 -1.13147,-0.50195 -1.47802,-1.03831c-0.50852,-0.81732 -1.11776,-1.49554 -1.82768,-2.03459c-0.68583,-0.5405 -1.48439,-0.94112 -2.39577,-1.20186c-0.9128,-0.28489 -1.97242,-0.39159 -3.17889,-0.32008c-2.14892,0.10315 -3.92297,0.60786 -5.32209,1.51406c-1.37499,0.9048 -2.01242,2.20168 -1.91232,3.89074c0.05148,0.86865 0.318,1.68827 0.79952,2.45877c0.50565,0.76909 1.3668,1.40817 2.58348,1.9172c1.2408,0.5076 2.98966,0.80347 5.24654,0.88764c3.44639,0.13472 6.17489,1.02633 8.18551,2.67479c2.03331,1.62289 3.13433,3.85796 3.30309,6.70522c0.09725,1.64079 -0.15617,3.08444 -0.76028,4.33096c-0.60413,1.24653 -1.44815,2.32563 -2.53216,3.23738c-1.08544,0.88764 -2.35194,1.58014 -3.79953,2.07759c-1.42486,0.47188 -2.90945,0.75358 -4.45373,0.84511z" fill="#9966ff" stroke="#28123b" stroke-width="8" stroke-linecap="butt"/><path d="M119.75517,210.94314c-0.62735,0.03719 -1.17107,-0.14852 -1.63114,-0.55711c-0.46005,-0.40857 -0.70872,-0.92655 -0.7459,-1.55391l-1.73336,-29.24468c-0.04004,-0.67563 0.14495,-1.23141 0.55497,-1.66733c0.40857,-0.46005 0.92655,-0.70872 1.55391,-0.74589l19.54471,-1.15843c0.65151,-0.03862 1.19449,0.13502 1.62899,0.52091c0.43306,0.36176 0.66823,0.8563 0.7054,1.48367c0.03575,0.60323 -0.14001,1.11003 -0.52732,1.52045c-0.38873,0.38624 -0.90886,0.59871 -1.56036,0.63732l-17.3007,1.02542l0.62213,10.49625l12.41452,-0.73582c0.65151,-0.03862 1.19378,0.12295 1.62685,0.48472c0.43306,0.36176 0.66823,0.8563 0.7054,1.48367c0.03575,0.60323 -0.14003,1.11008 -0.52733,1.52045c-0.38729,0.41038 -0.90671,0.63487 -1.5582,0.67348l-12.41451,0.73582l0.75299,12.70408c0.03719,0.62735 -0.14853,1.17106 -0.55712,1.63114c-0.38444,0.45862 -0.90241,0.70728 -1.55391,0.74589z" fill="#9966ff" stroke="#28123b" stroke-width="8" stroke-linecap="butt"/><path d="M345.98617,197.53422c-0.62735,0.03719 -1.17107,-0.14852 -1.63114,-0.55711c-0.43592,-0.40999 -0.67249,-0.9287 -0.70968,-1.55606l-1.73336,-29.24468c-0.03862,-0.65151 0.14638,-1.20725 0.55497,-1.66733c0.40857,-0.46005 0.9145,-0.70799 1.51773,-0.74374c0.65151,-0.03862 1.19523,0.14708 1.63115,0.55711c0.46005,0.40857 0.70942,0.93862 0.74803,1.59013l1.60035,27.00064l15.67198,-0.9289c0.62738,-0.03719 1.17114,0.14852 1.63122,0.55712c0.46005,0.40857 0.70872,0.92655 0.7459,1.55391c0.03719,0.62735 -0.14852,1.17108 -0.55711,1.63115c-0.40857,0.46005 -0.92657,0.70871 -1.55399,0.7459z" fill="#9966ff" stroke="#28123b" stroke-width="8" stroke-linecap="butt"/><path d="M318.24186,199.17864c-0.62735,0.03719 -1.17107,-0.14852 -1.63114,-0.55711c-0.43592,-0.40999 -0.67249,-0.92869 -0.70968,-1.55606l-1.73337,-29.24468c-0.03862,-0.65151 0.14638,-1.20725 0.55497,-1.66733c0.40857,-0.46005 0.9145,-0.708 1.51773,-0.74375c0.65151,-0.03862 1.19521,0.14709 1.63114,0.55712c0.46005,0.40857 0.70943,0.93862 0.74804,1.59013l1.60035,27.00064l15.67198,-0.9289c0.62735,-0.03719 1.17107,0.14853 1.63114,0.55712c0.46005,0.40857 0.70872,0.92655 0.74589,1.55391c0.03719,0.62735 -0.14852,1.17107 -0.55711,1.63114c-0.40857,0.46005 -0.92655,0.70872 -1.55391,0.7459z" fill="#9966ff" stroke="#28123b" stroke-width="8" stroke-linecap="butt"/><path d="M257.77658,202.45158c-0.62735,0.03719 -1.17107,-0.14852 -1.63114,-0.5571c-0.46005,-0.40857 -0.70872,-0.92657 -0.7459,-1.55392l-1.73336,-29.24468c-0.04004,-0.67563 0.14495,-1.2314 0.55497,-1.66732c0.40857,-0.46005 0.92655,-0.70871 1.55391,-0.74588l10.35145,-0.61355c1.95446,-0.11584 3.69053,0.16869 5.20818,0.85358c1.54179,0.68346 2.77496,1.67579 3.69961,2.97695c0.92457,1.30117 1.43912,2.83251 1.54353,4.59395c0.08296,1.39951 -0.22732,2.70122 -0.93081,3.9052c-0.6808,1.17842 -1.66545,2.13269 -2.95393,2.86283c1.93341,0.34548 3.51925,1.1595 4.75754,2.44211c1.23829,1.28258 1.92252,3.02178 2.05265,5.21754c0.11871,2.00271 -0.2474,3.79205 -1.09835,5.36798c-0.85094,1.57591 -2.09448,2.86034 -3.73061,3.85323c-1.61342,0.96732 -3.49392,1.51465 -5.6414,1.64194zM259.81013,198.15415l8.97607,-0.53202c1.32712,-0.07866 2.47174,-0.37654 3.43384,-0.89361c0.98626,-0.51853 1.74247,-1.24133 2.26867,-2.16844c0.5262,-0.9271 0.74996,-2.05421 0.67131,-3.38132c-0.07294,-1.23059 -0.42256,-2.22687 -1.04886,-2.9888c-0.62775,-0.78609 -1.46047,-1.35418 -2.49821,-1.70429c-1.01503,-0.37567 -2.1861,-0.52422 -3.51321,-0.44555l-8.97607,0.53203zM258.87909,182.44598l8.07125,-0.4784c1.64079,-0.09725 2.95638,-0.57477 3.94677,-1.4325c1.01305,-0.88334 1.47096,-2.14539 1.37372,-3.78617c-0.09725,-1.64079 -0.70034,-2.82784 -1.8092,-3.56117c-1.08475,-0.73477 -2.4475,-1.0535 -4.08831,-0.95625l-8.07123,0.47839z" fill="#af87ff" stroke="#af87ff" stroke-width="2" stroke-linecap="butt"/><path d="M284.14102,200.88893c-0.79627,0.04719 -1.43157,-0.25414 -1.90593,-0.90403c-0.47578,-0.67399 -0.5684,-1.41914 -0.27778,-2.23545l10.44283,-29.71211c0.37424,-1.03917 1.04397,-1.58736 2.00913,-1.64456c1.03756,-0.0615 1.77941,0.40303 2.22552,1.39356l13.92214,28.37694c0.36087,0.77767 0.34346,1.50513 -0.05225,2.18237c-0.37156,0.67582 -0.96758,1.03801 -1.78794,1.08664c-0.43431,0.02575 -0.86373,-0.06989 -1.28822,-0.28685c-0.40038,-0.21842 -0.69789,-0.53978 -0.89249,-0.96408l-2.78916,-5.90033l-15.47426,0.91716l-2.11372,6.19098c-0.19,0.47133 -0.47089,0.83911 -0.84265,1.10328c-0.3732,0.24006 -0.76491,0.37224 -1.17506,0.39656zM302.02659,188.64194l-7.0828,-14.98331l-5.36753,15.72125z" fill="#af87ff" stroke="#af87ff" stroke-width="2" stroke-linecap="butt"/><path d="M236.57562,204.14402c-1.85794,0.11012 -3.63655,-0.07502 -5.33577,-0.55544c-1.69923,-0.48043 -3.20699,-1.20225 -4.52319,-2.1654c-1.29209,-0.96462 -2.26772,-2.10538 -2.92692,-3.42226c-0.32529,-0.58608 -0.35818,-1.14104 -0.09869,-1.66491c0.28222,-0.54945 0.78099,-0.91799 1.49627,-1.10568c0.52371,-0.15212 1.03541,-0.09766 1.53515,0.16326c0.52245,0.2354 0.93283,0.62272 1.23115,1.16195c0.3807,0.70388 0.9871,1.33377 1.81911,1.88983c0.83202,0.55604 1.81446,0.99422 2.94729,1.3145c1.15553,0.29472 2.36067,0.40492 3.61539,0.33055c1.37537,-0.08152 2.62931,-0.37378 3.76176,-0.87676c1.15659,-0.50438 2.06044,-1.18752 2.71157,-2.04942c0.67527,-0.86332 0.97712,-1.89818 0.90561,-3.10464c-0.09153,-1.54428 -0.77628,-2.88389 -2.05424,-4.01886c-1.25384,-1.1364 -3.25266,-1.76857 -5.9964,-1.8965c-3.59117,-0.12614 -6.46444,-1.00913 -8.61981,-2.64901c-2.1554,-1.63988 -3.30957,-3.75071 -3.46261,-6.33255c-0.11298,-1.90624 0.32206,-3.55433 1.30506,-4.94437c0.98302,-1.39004 2.37142,-2.47723 4.1652,-3.26149c1.79236,-0.80844 3.81056,-1.27915 6.05457,-1.41215c1.76144,-0.1044 3.30797,0.04608 4.63955,0.45141c1.35572,0.40392 2.54191,1.01161 3.55858,1.82306c1.04078,0.81 1.95815,1.78475 2.75213,2.92417c0.42326,0.60447 0.61587,1.19841 0.57779,1.7818c-0.01536,0.55783 -0.26709,1.0086 -0.75525,1.35233c-0.51083,0.36926 -1.09766,0.47669 -1.7606,0.32229c-0.63879,-0.15585 -1.13148,-0.50196 -1.47805,-1.03831c-0.50852,-0.81732 -1.11775,-1.49554 -1.82766,-2.0346c-0.68582,-0.54048 -1.4844,-0.94112 -2.39578,-1.20186c-0.9128,-0.28489 -1.97242,-0.3916 -3.17889,-0.32009c-2.14892,0.10315 -3.92296,0.60786 -5.32208,1.51406c-1.37499,0.9048 -2.01242,2.2017 -1.91232,3.89074c0.05148,0.86865 0.318,1.68825 0.79952,2.45877c0.50565,0.76909 1.36679,1.40817 2.58347,1.91719c1.2408,0.5076 2.98966,0.80348 5.24655,0.88764c3.44639,0.13472 6.17487,1.02629 8.1855,2.67478c2.03331,1.62289 3.13434,3.85796 3.3031,6.70522c0.09725,1.64079 -0.15617,3.08445 -0.76028,4.33096c-0.60413,1.24653 -1.44816,2.32562 -2.53219,3.23737c-1.08544,0.88764 -2.35194,1.58011 -3.79953,2.07756c-1.42486,0.47188 -2.90943,0.75359 -4.45371,0.84513z" fill="#af87ff" stroke="#af87ff" stroke-width="2" stroke-linecap="butt"/><path d="M119.58187,210.64253c-0.62735,0.03719 -1.17107,-0.14852 -1.63114,-0.5571c-0.46005,-0.40857 -0.70871,-0.92658 -0.74588,-1.55393l-1.73336,-29.24468c-0.04004,-0.67563 0.14495,-1.23141 0.55496,-1.66733c0.40857,-0.46005 0.92655,-0.7087 1.55391,-0.74588l19.54473,-1.15843c0.65151,-0.03862 1.19449,0.135 1.629,0.52091c0.43306,0.36176 0.66823,0.8563 0.7054,1.48367c0.03575,0.60323 -0.14001,1.11003 -0.52732,1.52045c-0.38873,0.38624 -0.90886,0.59871 -1.56035,0.63732l-17.30071,1.02542l0.62213,10.49625l12.41451,-0.73582c0.65151,-0.03862 1.19378,0.12295 1.62685,0.4847c0.43306,0.36176 0.66824,0.8563 0.70541,1.48367c0.03575,0.60323 -0.14001,1.11003 -0.52732,1.52044c-0.38729,0.41038 -0.90672,0.63489 -1.55821,0.6735l-12.4145,0.73582l0.75298,12.70405c0.03719,0.62735 -0.14852,1.17107 -0.5571,1.63114c-0.38444,0.45862 -0.90242,0.70727 -1.55391,0.74588z" fill="#af87ff" stroke="#af87ff" stroke-width="2" stroke-linecap="butt"/><path d="M345.8129,197.23357c-0.62735,0.03719 -1.17108,-0.14852 -1.63116,-0.5571c-0.43592,-0.40999 -0.6725,-0.92872 -0.70968,-1.55607l-1.73336,-29.24467c-0.03862,-0.65151 0.14638,-1.20725 0.55496,-1.66733c0.40857,-0.46005 0.9145,-0.70798 1.51773,-0.74373c0.65151,-0.03862 1.19523,0.14708 1.63115,0.5571c0.46005,0.40857 0.70943,0.93863 0.74804,1.59013l1.60036,27.00064l15.67194,-0.92889c0.62738,-0.03719 1.17114,0.14852 1.63122,0.55711c0.46005,0.40857 0.70872,0.92657 0.74589,1.55392c0.03719,0.62735 -0.14852,1.17107 -0.55711,1.63114c-0.40857,0.46005 -0.92657,0.7087 -1.55399,0.74589z" fill="#af87ff" stroke="#af87ff" stroke-width="2" stroke-linecap="butt"/><path d="M318.06858,198.878c-0.62735,0.03719 -1.17107,-0.14852 -1.63115,-0.5571c-0.43592,-0.40999 -0.6725,-0.92872 -0.70967,-1.55607l-1.73336,-29.24468c-0.03862,-0.65151 0.14638,-1.20725 0.55497,-1.66733c0.40857,-0.46005 0.9145,-0.70798 1.51773,-0.74373c0.65151,-0.03862 1.19523,0.14708 1.63115,0.5571c0.46005,0.40857 0.70942,0.93863 0.74803,1.59013l1.60035,27.00064l15.67198,-0.9289c0.62735,-0.03719 1.17107,0.14852 1.63115,0.5571c0.46005,0.40857 0.70871,0.92658 0.74588,1.55393c0.03719,0.62735 -0.14853,1.17107 -0.55711,1.63114c-0.40857,0.46005 -0.92657,0.70871 -1.55392,0.74588z" fill="#af87ff" stroke="#af87ff" stroke-width="2" stroke-linecap="butt"/><path d="M253.81317,170.60277c-0.46473,0.02755 -0.49228,-0.43719 -0.49228,-0.43719l0.01837,-0.52057c0.55163,-1.19387 1.4642,-1.7631 2.72495,-1.30284c0,0 0.42801,0.18321 0.2448,0.61119c-0.18321,0.42801 -0.61119,0.2448 -0.61119,0.2448c-0.66723,-0.36909 -1.24965,0.14303 -1.50252,0.81325l0.0551,0.09908c0,0 0.02754,0.46474 -0.43719,0.49228z" fill="#ffffff" stroke="none" stroke-width="0.5" stroke-linecap="butt"/><path d="M225.9625,172.84411c-0.4496,-0.12082 -0.32878,-0.57045 -0.32878,-0.57045l0.19265,-0.66878c0.59374,-0.68908 1.01745,-0.97083 1.88838,-1.25198c0,0 0.44421,-0.13944 0.58364,0.30478c0.13943,0.44421 -0.30474,0.58363 -0.30474,0.58363c-0.6219,0.18847 -0.9113,0.34023 -1.34762,0.80538l-0.11306,0.46864c0,0 -0.12082,0.4496 -0.57045,0.32877z" fill="#ffffff" stroke="none" stroke-width="0.5" stroke-linecap="butt"/><path d="M253.81317,170.60277c-0.46473,0.02755 -0.49228,-0.43719 -0.49228,-0.43719l0.01837,-0.52057c0.55163,-1.19387 1.4642,-1.7631 2.72495,-1.30284c0,0 0.42801,0.18321 0.2448,0.61119c-0.18321,0.42801 -0.61119,0.2448 -0.61119,0.2448c-0.66723,-0.36909 -1.24965,0.14303 -1.50252,0.81325l0.0551,0.09908c0,0 0.02754,0.46474 -0.43719,0.49228z" fill="#ffffff" stroke="#ffffff" stroke-width="1" stroke-linecap="butt"/><path d="M225.9625,172.84411c-0.4496,-0.12082 -0.32878,-0.57045 -0.32878,-0.57045l0.19265,-0.66878c0.59374,-0.68908 1.01745,-0.97083 1.88838,-1.25198c0,0 0.44421,-0.13944 0.58364,0.30478c0.13943,0.44421 -0.30474,0.58363 -0.30474,0.58363c-0.6219,0.18847 -0.9113,0.34023 -1.34762,0.80538l-0.11306,0.46864c0,0 -0.12082,0.4496 -0.57045,0.32877z" fill="#ffffff" stroke="#ffffff" stroke-width="1" stroke-linecap="butt"/><path d="M313.93532,167.28796c-0.46473,0.02755 -0.49227,-0.43719 -0.49227,-0.43719l0.01837,-0.52057c0.55163,-1.19387 1.4642,-1.7631 2.72495,-1.30284c0,0 0.428,0.1832 0.2448,0.61118c-0.18321,0.42801 -0.61118,0.24481 -0.61118,0.24481c-0.66723,-0.36909 -1.24965,0.14302 -1.50253,0.81324l0.0551,0.09909c0,0 0.02754,0.46473 -0.43719,0.49227z" fill="#ffffff" stroke="#ffffff" stroke-width="1" stroke-linecap="butt"/><path d="M291.89438,168.91097c-0.42801,-0.18322 -0.2448,-0.61119 -0.2448,-0.61119l0.18989,-0.43452c0.57134,-0.97075 1.01233,-1.37599 2.16731,-1.45545c0,0 0.46474,-0.02755 0.49228,0.43719c0.02755,0.46473 -0.43719,0.49228 -0.43719,0.49228c-0.84701,0.03967 -1.00191,0.27684 -1.41845,0.9957l-0.13784,0.33115c0,0 -0.18321,0.42801 -0.61118,0.2448z" fill="#ffffff" stroke="#ffffff" stroke-width="1" stroke-linecap="butt"/><path d="M341.43737,165.47134c-0.46473,0.02755 -0.49228,-0.43719 -0.49228,-0.43719l0.01837,-0.52058c0.55163,-1.19387 1.4642,-1.7631 2.72495,-1.30284c0,0 0.42801,0.18321 0.24481,0.61119c-0.18321,0.42801 -0.61119,0.2448 -0.61119,0.2448c-0.66723,-0.36909 -1.24965,0.14303 -1.50253,0.81325l0.0551,0.09908c0,0 0.02755,0.46474 -0.43719,0.49228z" fill="#ffffff" stroke="#ffffff" stroke-width="1" stroke-linecap="butt"/><path d="M161.28444,208.96035c-2.53358,0.15017 -4.87502,-0.13482 -7.02431,-0.85488c-2.15073,-0.74422 -4.03122,-1.83134 -5.64146,-3.26142c-1.58754,-1.45561 -2.86653,-3.22007 -3.83688,-5.29339c-0.97034,-2.07331 -1.53063,-4.37673 -1.6808,-6.91034c-0.15017,-2.53358 0.13482,-4.87501 0.85493,-7.02431c0.72006,-2.14931 1.78236,-4.04042 3.18689,-5.67338c1.42861,-1.63438 3.16751,-2.93606 5.21671,-3.90499c2.04921,-0.96892 4.34055,-1.52848 6.87414,-1.67865c2.5577,-0.1516 4.89913,0.13338 7.02431,0.8549c2.14931,0.72006 4.02979,1.80723 5.64147,3.26143c1.61167,1.45417 2.88991,3.20659 3.83476,5.2572c0.96892,2.04921 1.52854,4.34055 1.67871,6.87414c0.15017,2.53358 -0.13411,4.88708 -0.85274,7.0605c-0.69457,2.172 -1.75612,4.07518 -3.18473,5.70956c-1.43004,1.61024 -3.16892,2.91192 -5.2167,3.905c-2.02506,0.96748 -4.31645,1.52708 -6.87414,1.67868zM161.04416,204.9066c1.88209,-0.11156 3.5873,-0.5516 5.11566,-1.32019c1.52834,-0.76859 2.83589,-1.79042 3.92259,-3.06554c1.0867,-1.27513 1.88446,-2.72679 2.39332,-4.35509c0.53154,-1.65386 0.74153,-3.42179 0.62998,-5.30388c-0.11012,-1.85794 -0.52677,-3.57664 -1.24996,-5.15613c-0.69906,-1.58093 -1.6627,-2.92822 -2.89101,-4.04188c-1.22972,-1.13782 -2.64806,-1.98597 -4.25509,-2.54451c-1.60843,-0.58267 -3.3537,-0.81821 -5.23578,-0.70666c-1.85794,0.11012 -3.5511,0.54946 -5.07946,1.31805c-1.52976,0.74447 -2.83804,1.75422 -3.92473,3.02935c-1.064,1.24955 -1.86174,2.70125 -2.39328,4.35509c-0.53154,1.65386 -0.74226,3.40974 -0.63213,5.2677c0.11156,1.88209 0.52892,3.61285 1.25211,5.19235c0.72175,1.55534 1.68543,2.90266 2.89102,4.04188c1.22972,1.13782 2.64877,1.99804 4.25725,2.58071c1.60843,0.58267 3.34166,0.81893 5.19959,0.7088z" fill="#9966ff" stroke="#28123b" stroke-width="8" stroke-linecap="butt"/><path d="M200.22108,206.65251c-2.53358,0.15017 -4.87499,-0.13482 -7.02431,-0.85489c-2.15073,-0.74422 -4.03122,-1.83133 -5.64146,-3.26141c-1.58754,-1.45561 -2.86649,-3.22007 -3.83688,-5.2934c-0.97034,-2.07331 -1.53064,-4.37673 -1.68081,-6.91034c-0.15017,-2.53358 0.13482,-4.87501 0.85491,-7.02431c0.72006,-2.14931 1.7824,-4.04042 3.1869,-5.67338c1.42861,-1.63438 3.1675,-2.93606 5.2167,-3.90499c2.04921,-0.96892 4.34055,-1.52849 6.87413,-1.67865c2.5577,-0.1516 4.89915,0.13338 7.02431,0.85491c2.14931,0.72006 4.02979,1.80723 5.64147,3.26143c1.61167,1.45417 2.88993,3.20659 3.83476,5.2572c0.96892,2.04921 1.52851,4.34055 1.67868,6.87414c0.15017,2.53358 -0.13411,4.88708 -0.85274,7.0605c-0.69457,2.172 -1.7561,4.07518 -3.18473,5.70956c-1.43004,1.61024 -3.16892,2.91192 -5.2167,3.905c-2.02506,0.96748 -4.31645,1.52708 -6.87414,1.67868zM199.98081,202.59879c1.88209,-0.11156 3.5873,-0.55161 5.11569,-1.3202c1.52834,-0.76859 2.83589,-1.79042 3.92259,-3.06554c1.0867,-1.27513 1.88446,-2.72679 2.39332,-4.35509c0.53154,-1.65386 0.74154,-3.42179 0.62999,-5.30388c-0.11012,-1.85794 -0.52677,-3.57664 -1.24996,-5.15613c-0.69906,-1.58093 -1.66269,-2.92822 -2.891,-4.04188c-1.22972,-1.13782 -2.64806,-1.98598 -4.25509,-2.54452c-1.60843,-0.58267 -3.3537,-0.81821 -5.23579,-0.70665c-1.85794,0.11012 -3.55113,0.54947 -5.07947,1.31805c-1.52976,0.74447 -2.83802,1.75422 -3.92472,3.02935c-1.064,1.24955 -1.86177,2.70125 -2.39331,4.35509c-0.53154,1.65386 -0.74226,3.40974 -0.63213,5.2677c0.11156,1.88209 0.52893,3.61285 1.25211,5.19234c0.72175,1.55534 1.68542,2.90266 2.89101,4.04189c1.22972,1.13782 2.64878,1.99804 4.25725,2.58071c1.60843,0.58267 3.34166,0.81892 5.1996,0.7088z" fill="#9966ff" stroke="#28123b" stroke-width="8" stroke-linecap="butt"/><path d="M200.04781,206.35188c-2.53358,0.15017 -4.87501,-0.13483 -7.02431,-0.85489c-2.15073,-0.74422 -4.03122,-1.83137 -5.64146,-3.26141c-1.58754,-1.45561 -2.86652,-3.22006 -3.83688,-5.29338c-0.97034,-2.07331 -1.53064,-4.37675 -1.68081,-6.91033c-0.15017,-2.53358 0.13481,-4.87501 0.85493,-7.02431c0.72006,-2.14931 1.78237,-4.04042 3.1869,-5.67337c1.42861,-1.63438 3.1675,-2.93605 5.2167,-3.90499c2.04921,-0.96892 4.34055,-1.52849 6.87414,-1.67866c2.5577,-0.1516 4.89914,0.13338 7.02431,0.85491c2.14931,0.72006 4.02979,1.80723 5.64147,3.26143c1.61167,1.45417 2.88991,3.20659 3.83476,5.2572c0.96892,2.04921 1.52853,4.34055 1.6787,6.87414c0.15017,2.53358 -0.13411,4.88707 -0.85274,7.0605c-0.69457,2.172 -1.75612,4.07518 -3.18473,5.70956c-1.43004,1.61024 -3.16893,2.91192 -5.21671,3.905c-2.02506,0.96748 -4.31644,1.52709 -6.87414,1.67868zM199.80754,202.29814c1.88209,-0.11156 3.5873,-0.55161 5.11567,-1.3202c1.52834,-0.76859 2.83592,-1.79042 3.9226,-3.06554c1.0867,-1.27513 1.88446,-2.7268 2.39332,-4.3551c0.53154,-1.65386 0.74154,-3.42179 0.62998,-5.30388c-0.11012,-1.85794 -0.52677,-3.57666 -1.24996,-5.15615c-0.69906,-1.58093 -1.6627,-2.92821 -2.89101,-4.04188c-1.22972,-1.13782 -2.64805,-1.98598 -4.25509,-2.54452c-1.60843,-0.58267 -3.3537,-0.8182 -5.23578,-0.70665c-1.85794,0.11012 -3.55111,0.54946 -5.07946,1.31805c-1.52976,0.74447 -2.83804,1.75422 -3.92473,3.02935c-1.064,1.24955 -1.86174,2.70125 -2.39328,4.35509c-0.53154,1.65386 -0.74226,3.40974 -0.63213,5.2677c0.11156,1.88209 0.52892,3.61285 1.25211,5.19234c0.72175,1.55534 1.68543,2.90264 2.89101,4.04189c1.22972,1.13782 2.64878,1.99804 4.25725,2.58071c1.60843,0.58267 3.34166,0.81892 5.19959,0.7088z" fill="#ff7a90" stroke="#ff7a90" stroke-width="2" stroke-linecap="butt"/><path d="M161.31188,208.4337c-2.53358,0.15017 -4.87501,-0.13482 -7.02431,-0.85489c-2.15073,-0.74422 -4.03121,-1.83137 -5.64146,-3.26141c-1.58754,-1.45561 -2.86649,-3.22005 -3.83688,-5.29338c-0.97034,-2.07331 -1.53064,-4.37676 -1.68081,-6.91034c-0.15017,-2.53358 0.13482,-4.87501 0.85491,-7.02431c0.72006,-2.14931 1.7824,-4.04042 3.1869,-5.67338c1.42861,-1.63438 3.16751,-2.93605 5.21671,-3.90499c2.04921,-0.96892 4.34055,-1.52849 6.87414,-1.67866c2.5577,-0.1516 4.89915,0.13339 7.02431,0.85491c2.14931,0.72006 4.02979,1.80723 5.64147,3.26143c1.61167,1.45417 2.88991,3.20659 3.83476,5.2572c0.96892,2.04921 1.52851,4.34055 1.67868,6.87414c0.15017,2.53358 -0.13411,4.88707 -0.85274,7.0605c-0.69457,2.172 -1.7561,4.07518 -3.18473,5.70956c-1.43004,1.61024 -3.16892,2.91192 -5.2167,3.905c-2.02506,0.96748 -4.31645,1.52708 -6.87414,1.67868zM161.07161,204.37996c1.88209,-0.11156 3.58731,-0.55161 5.11569,-1.3202c1.52834,-0.76859 2.83591,-1.79042 3.92259,-3.06554c1.0867,-1.27513 1.88444,-2.72679 2.39331,-4.35509c0.53154,-1.65386 0.74154,-3.42179 0.62999,-5.30388c-0.11012,-1.85794 -0.52678,-3.57666 -1.24997,-5.15615c-0.69906,-1.58093 -1.66269,-2.92822 -2.891,-4.04189c-1.22972,-1.13782 -2.64805,-1.98597 -4.25509,-2.54451c-1.60843,-0.58267 -3.35373,-0.81821 -5.23579,-0.70665c-1.85794,0.11012 -3.55113,0.54947 -5.07947,1.31805c-1.52976,0.74447 -2.83802,1.75422 -3.92472,3.02935c-1.064,1.24955 -1.86177,2.70126 -2.39331,4.3551c-0.53154,1.65386 -0.74225,3.40974 -0.63212,5.2677c0.11156,1.88209 0.52892,3.61285 1.25211,5.19234c0.72175,1.55534 1.68543,2.90264 2.89101,4.04189c1.22972,1.13782 2.64878,1.99804 4.25725,2.58071c1.60843,0.58267 3.34167,0.81892 5.1996,0.7088z" fill="#57a0ff" stroke="#57a0ff" stroke-width="2" stroke-linecap="butt"/><path d="M148.5737,178.21639c-0.42801,-0.18321 -0.2448,-0.61119 -0.2448,-0.61119l0.26197,-0.5513c0.71452,-0.79877 1.38346,-1.37874 2.39506,-1.7156c0,0 0.44421,-0.13943 0.58363,0.30474c0.13943,0.44421 -0.30473,0.58363 -0.30473,0.58363c-0.82467,0.23804 -1.40148,0.79114 -1.97772,1.44552l-0.10217,0.29941c0,0 -0.18321,0.42801 -0.61119,0.2448z" fill="#ffffff" stroke="none" stroke-width="0.5" stroke-linecap="butt"/><path d="M187.8967,175.45039c-0.42798,-0.18322 -0.2448,-0.61119 -0.2448,-0.61119l0.26197,-0.55129c0.71453,-0.79877 1.38346,-1.37874 2.39507,-1.7156c0,0 0.44421,-0.13946 0.58362,0.30474c0.13943,0.44421 -0.30477,0.58364 -0.30477,0.58364c-0.82467,0.23802 -1.40148,0.79115 -1.97773,1.44552l-0.10217,0.29941c0,0 -0.18322,0.42799 -0.61119,0.24481z" fill="#ffffff" stroke="none" stroke-width="0.5" stroke-linecap="butt"/><path d="M148.41144,192.21119c-0.38331,-6.46699 4.54848,-12.02024 11.01547,-12.40355c6.46699,-0.38331 12.02024,4.54848 12.40356,11.01547c0.38331,6.46699 -4.54848,12.02024 -11.01547,12.40355c-6.46699,0.38331 -12.02024,-4.54848 -12.40356,-11.01547z" fill="#28123b" stroke="none" stroke-width="0" stroke-linecap="butt"/><path d="M187.3859,189.5638c-0.38331,-6.46699 4.54848,-12.02026 11.01549,-12.40357c6.46699,-0.38331 12.02024,4.54849 12.40355,11.01549c0.38331,6.46699 -4.54848,12.02024 -11.01547,12.40355c-6.46699,0.38331 -12.02025,-4.54848 -12.40356,-11.01547z" fill="#28123b" stroke="none" stroke-width="0" stroke-linecap="butt"/><path d="M148.5737,178.21639c-0.42801,-0.18321 -0.2448,-0.61119 -0.2448,-0.61119l0.26197,-0.5513c0.71452,-0.79877 1.38346,-1.37874 2.39506,-1.7156c0,0 0.44421,-0.13943 0.58363,0.30474c0.13943,0.44421 -0.30473,0.58363 -0.30473,0.58363c-0.82467,0.23804 -1.40148,0.79114 -1.97772,1.44552l-0.10217,0.29941c0,0 -0.18321,0.42801 -0.61119,0.2448z" fill="#ffffff" stroke="#ffffff" stroke-width="1" stroke-linecap="butt"/><path d="M187.8967,175.45039c-0.42798,-0.18322 -0.2448,-0.61119 -0.2448,-0.61119l0.26197,-0.55129c0.71453,-0.79877 1.38346,-1.37874 2.39507,-1.7156c0,0 0.44421,-0.13946 0.58362,0.30474c0.13943,0.44421 -0.30477,0.58364 -0.30477,0.58364c-0.82467,0.23802 -1.40148,0.79115 -1.97773,1.44552l-0.10217,0.29941c0,0 -0.18322,0.42799 -0.61119,0.24481z" fill="#ffffff" stroke="#ffffff" stroke-width="1" stroke-linecap="butt"/><path d="M145.19363,192.14634c-0.48472,-8.17793 5.75187,-15.2004 13.9298,-15.68511c8.17793,-0.48472 15.2004,5.75187 15.68511,13.9298c0.48472,8.17793 -5.75187,15.2004 -13.92981,15.68511c-8.17793,0.48472 -15.20039,-5.75187 -15.6851,-13.9298z" fill="#86baff" stroke="none" stroke-width="0" stroke-linecap="butt"/><path d="M184.20913,190.30619c-0.48472,-8.17793 5.75187,-15.20041 13.9298,-15.68512c8.17793,-0.48472 15.20042,5.75187 15.68512,13.92981c0.48472,8.17793 -5.75187,15.2004 -13.92982,15.68511c-8.17793,0.48472 -15.20039,-5.75187 -15.6851,-13.9298z" fill="#ff9aab" stroke="none" stroke-width="0" stroke-linecap="butt"/><path d="M116.14614,179.33636c-0.46473,0.02755 -0.49228,-0.43719 -0.49228,-0.43719l0.01837,-0.52058c0.55163,-1.19387 1.4642,-1.7631 2.72495,-1.30284c0,0 0.42801,0.18321 0.2448,0.61119c-0.18321,0.42801 -0.61119,0.2448 -0.61119,0.2448c-0.66723,-0.36909 -1.24965,0.14302 -1.50253,0.81325l0.0551,0.09908c0,0 0.02755,0.46474 -0.43719,0.49228z" fill="#ffffff" stroke="none" stroke-width="0.5" stroke-linecap="butt"/><path d="M116.14614,179.33636c-0.46473,0.02755 -0.49228,-0.43719 -0.49228,-0.43719l0.01837,-0.52058c0.55163,-1.19387 1.4642,-1.7631 2.72495,-1.30284c0,0 0.42801,0.18321 0.2448,0.61119c-0.18321,0.42801 -0.61119,0.2448 -0.61119,0.2448c-0.66723,-0.36909 -1.24965,0.14302 -1.50253,0.81325l0.0551,0.09908c0,0 0.02755,0.46474 -0.43719,0.49228z" fill="#ffffff" stroke="#ffffff" stroke-width="1" stroke-linecap="butt"/></g></g></g></svg>