<svg version="1.1" xmlns="http://www.w3.org/2000/svg" xmlns:xlink="http://www.w3.org/1999/xlink" width="8.75023" height="8.75023" viewBox="0,0,8.75023,8.75023"><g transform="translate(-235.62488,-175.62488)"><g data-paper-data="{&quot;isPaintingLayer&quot;:true}" fill-rule="nonzero" stroke-linejoin="miter" stroke-miterlimit="10" stroke-dasharray="" stroke-dashoffset="0" style="mix-blend-mode: normal"><g stroke-linecap="butt"><path d="M237.20682,183.36731c-1.85972,-1.54263 -2.11676,-4.30077 -0.57413,-6.16049c1.54263,-1.85972 4.30077,-2.11676 6.16049,-0.57413c1.85972,1.54263 2.11676,4.30077 0.57413,6.16049c-1.54263,1.85972 -4.30077,2.11676 -6.16049,0.57413z" fill="#28123b" stroke="none" stroke-width="0"/><path d="M236.4037,180c0,-1.98618 1.61013,-3.5963 3.5963,-3.5963c1.98618,0 3.5963,1.61013 3.5963,3.5963c0,1.98618 -1.61012,3.5963 -3.5963,3.5963c-1.98618,0 -3.5963,-1.61012 -3.5963,-3.5963z" fill="none" stroke="#8b4fff" stroke-width="0.5"/></g><g stroke-width="0.2"><path d="M240.18832,178.62874l-0.16081,0.22972l-0.32161,0.18377l-0.3216,0.04594" fill="none" stroke="#8b4fff" stroke-linecap="round"/><path d="M241.69073,179.05126l-0.27074,-0.07219l-0.21659,-0.1444l-0.12635,-0.21659" fill="none" stroke="#8b4fff" stroke-linecap="round"/><path d="M240.44887,179.22288c0,0.17665 -0.19155,0.37782 -0.44575,0.37782c-0.2542,0 -0.46027,-0.1432 -0.46027,-0.31985c0,-0.17665 0.20607,-0.31984 0.46027,-0.31984c0.2542,0 0.44575,0.08522 0.44575,0.26187z" fill="none" stroke="#8b4fff" stroke-linecap="butt"/><path d="M239.61505,179.34005l0.27074,-0.0722h0.28879l0.16244,0.0722" fill="none" stroke="#8b4fff" stroke-linecap="round"/><g fill="none" stroke="#8b4fff"><path d="M241.67565,179.25372c0,0.17665 -0.20606,0.31985 -0.46025,0.31985c-0.2542,0 -0.43129,-0.20117 -0.43129,-0.37782c0,-0.17665 0.17709,-0.26186 0.43129,-0.26186c0.2542,0 0.46025,0.14319 0.46025,0.31983z" stroke-linecap="butt"/><path d="M240.82733,179.31292l0.27074,-0.0722h0.28879l0.16244,0.0722" stroke-linecap="round"/></g><path d="M240.9845,179.7295l-0.05415,-0.23464l-0.21659,-0.12634l-0.09025,-0.23464l-0.01805,-0.32488" fill="none" stroke="#28123b" stroke-linecap="round"/><path d="M240.75216,178.72637l0.01805,0.32488l0.09024,0.23464l0.2166,0.12634l0.05415,0.23465l-0.05158,0.16042l-0.03305,0.14873l-0.04958,0.44619l0.04958,0.28093l0.08263,0.09915v0.1322l-0.19831,0.1322l-0.26441,0.01653l-0.14873,-0.14873l-0.23135,-0.0661l-0.03306,0.1322l0.16526,0.08263" fill="none" stroke="#8b4fff" stroke-linecap="round"/><path d="M240.05503,180.94756l-0.04957,-0.1322l0.04957,-0.16526l0.09916,-0.0661" fill="none" stroke="#8b4fff" stroke-linecap="round"/><path d="M239.87325,181.34417l0.03305,-0.28093l0.11568,-0.39661" fill="none" stroke="#8b4fff" stroke-linecap="round"/><path d="M241.12919,180.71621l0.1322,0.0661v0.19831l-0.19831,0.03305" fill="none" stroke="#8b4fff" stroke-linecap="round"/><path d="M241.32749,180.79884l0.1322,0.26441l0.03305,0.2644" fill="none" stroke="#8b4fff" stroke-linecap="round"/><path d="M240.42115,181.4531l0.06624,-0.03951l0.13246,-0.10536h0.13247l0.07727,0.05268l0.07728,-0.02634l0.11039,-0.02634l0.15454,0.15804l-0.13246,0.07902c0,0 -0.05099,-0.05279 -0.08216,-0.04622c-0.03138,0.00661 -0.06695,0.0705 -0.11654,0.07256c-0.04959,0.00207 -0.10167,-0.06819 -0.13372,-0.06215c-0.03712,0.00699 -0.0981,0.04898 -0.0981,0.04898z" fill="none" stroke="#8b4fff" stroke-linecap="round"/><path d="M241.17261,181.4943l-0.05439,0.20577l-0.11967,0.13228l-0.33724,0.0147l-0.1523,-0.13228l-0.10879,-0.19107" fill="none" stroke="#8b4fff" stroke-linecap="round"/><path d="M239.60217,180.87983l0.0459,-0.35193l-0.06121,-0.15301l-0.27542,-0.06121l-0.32133,-0.22952l-0.0459,-0.35193l0.12241,-0.27542" fill="none" stroke="#8b4fff" stroke-linecap="round"/><path d="M241.28531,182.67008l-0.26013,0.12241l-0.41313,0.0306l-1.49953,-0.68856" fill="none" stroke="#8b4fff" stroke-linecap="round"/><path d="M239.12783,180.17597l0.0765,0.38254l0.0153,0.53554l-0.0612,0.38254l-0.09181,0.24482l-0.0459,0.21422l0.06121,0.15301" fill="none" stroke="#8b4fff" stroke-linecap="round"/><path d="M238.69939,180.19127l-0.39784,-0.18361l-0.32133,-0.61206l-0.0765,-0.81096l0.0918,-0.61205l0.47434,-0.48964l0.91808,-0.26012l1.34652,-0.04591l0.68856,0.18362l0.27542,0.35193l0.09181,0.39783l0.21421,0.09181l0.07651,0.24482l0.0153,0.19892l-0.06121,0.13771l-0.13771,0.15301v0.42844l0.13771,0.13771l0.04591,0.22952l-0.07651,0.19891l-0.33662,0.26012l-0.06121,0.16832v1.66784l0.24482,0.1224l0.06121,0.24482l-0.0765,0.10711l-0.50495,0.13771l0.01531,-0.27542l-0.12241,-0.16832h-0.22952" fill="none" stroke="#8b4fff" stroke-linecap="round"/><path d="M239.03602,178.04909l0.16832,0.24482l0.04591,0.16832l-0.10711,0.18362v0.19891" fill="none" stroke="#8b4fff" stroke-linecap="round"/><path d="M240.53555,177.80426l0.0306,0.12241v0.22952" fill="none" stroke="#8b4fff" stroke-linecap="round"/><path d="M240.41314,178.14089l0.09181,0.21422v0.16832" fill="none" stroke="#8b4fff" stroke-linecap="round"/><path d="M238.65349,180.16067l-0.06121,0.42844l-0.26012,0.58145l-0.29073,0.33663" fill="none" stroke="#8b4fff" stroke-linecap="round"/><path d="M240.21363,179.35956c0,0.04091 -0.07107,0.07408 -0.15873,0.07408c-0.08766,0 -0.15873,-0.03317 -0.15873,-0.07408c0,-0.04091 0.07107,-0.07407 0.15873,-0.07407c0.08766,0 0.15873,0.03316 0.15873,0.07407z" fill="#8b4fff" stroke="#8b4fff" stroke-linecap="butt"/><path d="M241.48347,179.31194c0,0.04091 -0.07107,0.07407 -0.15873,0.07407c-0.08766,0 -0.15873,-0.03316 -0.15873,-0.07407c0,-0.04091 0.07107,-0.07407 0.15873,-0.07407c0.08766,0 0.15873,0.03316 0.15873,0.07407z" fill="#8b4fff" stroke="#8b4fff" stroke-linecap="butt"/><path d="M236.81679,181.19289l0.4127,-0.20635l0.68254,-0.11111l0.46032,0.03175" fill="none" stroke="#8b4fff" stroke-linecap="round"/><path d="M241.633,181.58696l0.47117,0.18239l0.39517,0.47117" fill="none" stroke="#8b4fff" stroke-linecap="round"/><path d="M237.83267,182.65322l-0.22222,-0.34921l-0.06349,-0.36508l0.04762,-0.57143l0.31746,-0.39683" fill="none" stroke="#8b4fff" stroke-linecap="round"/><path d="M240.12258,179.33874c0,0.03202 -0.03244,0.05797 -0.07246,0.05797c-0.04002,0 -0.07246,-0.02595 -0.07246,-0.05797c0,-0.03202 0.03244,-0.05797 0.07246,-0.05797c0.04002,0 0.07246,0.02595 0.07246,0.05797z" fill="#28123b" stroke="none" stroke-linecap="butt"/><path d="M241.41244,179.30976c0,0.03202 -0.03245,0.05797 -0.07247,0.05797c-0.04002,0 -0.07246,-0.02596 -0.07246,-0.05797c0,-0.03202 0.03244,-0.05797 0.07246,-0.05797c0.04002,0 0.07247,0.02595 0.07247,0.05797z" fill="#28123b" stroke="none" stroke-linecap="butt"/><path d="M239.19505,179.20831l0.17391,0.08696" fill="none" stroke="#8b4fff" stroke-linecap="round"/><path d="M239.19505,179.4257l0.13043,-0.04348" fill="none" stroke="#8b4fff" stroke-linecap="round"/><path d="M241.90519,179.20831l-0.11594,0.05797" fill="none" stroke="#8b4fff" stroke-linecap="round"/><path d="M241.74577,179.41121l0.13043,0.01449" fill="none" stroke="#8b4fff" stroke-linecap="round"/><path d="M238.42693,178.06108c0,0 0.09838,-0.14145 0.16153,-0.19002c0.06245,-0.04804 0.21529,-0.09983 0.21529,-0.09983" fill="none" stroke="#502576" stroke-linecap="round"/></g></g></g></svg>