<svg version="1.1" xmlns="http://www.w3.org/2000/svg" xmlns:xlink="http://www.w3.org/1999/xlink" width="310.59403" height="88.58022" viewBox="0,0,310.59403,88.58022"><defs><linearGradient x1="-620.19919" y1="-674.70408" x2="-536.83824" y2="540.71885" gradientUnits="userSpaceOnUse" id="color-1"><stop offset="0" stop-color="#000000"/><stop offset="1" stop-color="#000000" stop-opacity="0"/></linearGradient><linearGradient x1="241.99403" y1="140.6999" x2="241.99403" y2="150.0501" gradientUnits="userSpaceOnUse" id="color-2"><stop offset="0" stop-color="#000000"/><stop offset="1" stop-color="#000000" stop-opacity="0"/></linearGradient><linearGradient x1="241.99403" y1="140.6999" x2="241.99403" y2="150.0501" gradientUnits="userSpaceOnUse" id="color-3"><stop offset="0" stop-color="#000000"/><stop offset="1" stop-color="#000000" stop-opacity="0"/></linearGradient><linearGradient x1="92.74017" y1="145.37501" x2="92.74017" y2="217.31787" gradientUnits="userSpaceOnUse" id="color-4"><stop offset="0" stop-color="#000000"/><stop offset="1" stop-color="#000000" stop-opacity="0"/></linearGradient><linearGradient x1="92.74017" y1="145.37501" x2="92.74017" y2="217.31787" gradientUnits="userSpaceOnUse" id="color-5"><stop offset="0" stop-color="#000000"/><stop offset="1" stop-color="#000000" stop-opacity="0"/></linearGradient><linearGradient x1="241.27114" y1="213.36499" x2="241.27114" y2="222.71519" gradientUnits="userSpaceOnUse" id="color-6"><stop offset="0" stop-color="#000000"/><stop offset="1" stop-color="#000000" stop-opacity="0"/></linearGradient><linearGradient x1="241.27114" y1="213.36499" x2="241.27114" y2="222.71519" gradientUnits="userSpaceOnUse" id="color-7"><stop offset="0" stop-color="#000000"/><stop offset="1" stop-color="#000000" stop-opacity="0"/></linearGradient><linearGradient x1="390.52503" y1="146.09726" x2="390.52503" y2="218.04011" gradientUnits="userSpaceOnUse" id="color-8"><stop offset="0" stop-color="#000000"/><stop offset="1" stop-color="#000000" stop-opacity="0"/></linearGradient><linearGradient x1="390.52503" y1="146.09726" x2="390.52503" y2="218.04011" gradientUnits="userSpaceOnUse" id="color-9"><stop offset="0" stop-color="#000000"/><stop offset="1" stop-color="#000000" stop-opacity="0"/></linearGradient><linearGradient x1="239.87969" y1="167.52534" x2="239.87969" y2="205.41927" gradientUnits="userSpaceOnUse" id="color-10"><stop offset="0" stop-color="#000000"/><stop offset="1" stop-color="#000000" stop-opacity="0"/></linearGradient><linearGradient x1="239.87969" y1="167.52534" x2="239.87969" y2="205.41927" gradientUnits="userSpaceOnUse" id="color-11"><stop offset="0" stop-color="#000000"/><stop offset="1" stop-color="#000000" stop-opacity="0"/></linearGradient></defs><g transform="translate(-86.49017,-135.70989)"><g data-paper-data="{&quot;isPaintingLayer&quot;:true}" fill-rule="nonzero" stroke-linejoin="miter" stroke-miterlimit="10" stroke-dasharray="" stroke-dashoffset="0" style="mix-blend-mode: normal"><g><path d="M91.48819,214.44951l-2.3224,-70.07674l298.74229,-1.48895l1.51424,70.2006z" fill="url(#color-1)" stroke="none" stroke-width="0" stroke-linecap="butt"/><g stroke-linecap="round"><g stroke-width="12.5"><path d="M94.86648,145.37501h294.25513" fill="url(#color-2)" stroke="url(#color-3)"/><path d="M92.74017,217.31786v-71.94284" fill="url(#color-4)" stroke="url(#color-5)"/><path d="M94.14358,218.04011h294.25513" data-paper-data="{&quot;index&quot;:null}" fill="url(#color-6)" stroke="url(#color-7)"/><path d="M390.52503,218.04011v-71.94283" data-paper-data="{&quot;index&quot;:null}" fill="url(#color-8)" stroke="url(#color-9)"/></g><g fill="none" stroke="#28123b" stroke-width="12.5"><path d="M95.17566,141.95989h294.25513"/><path d="M93.04934,141.95989v71.94283"/><path d="M94.45276,214.62496h294.25513" data-paper-data="{&quot;index&quot;:null}"/><path d="M390.83421,214.62496v-71.94283" data-paper-data="{&quot;index&quot;:null}"/></g><g fill="none" stroke="#8b4fff" stroke-width="4.5"><path d="M389.43081,141.95989h-294.25513"/><path d="M93.04934,141.95989v71.94283"/><path d="M94.45276,214.62496h294.25513" data-paper-data="{&quot;index&quot;:null}"/><path d="M390.83421,214.62496v-71.94283" data-paper-data="{&quot;index&quot;:null}"/></g></g></g><g stroke-linecap="square"><path d="M170.96772,205.41901c-2.03687,0 -3.96794,-0.31743 -5.79319,-0.9523c-1.82525,-0.63487 -3.42566,-1.52105 -4.80119,-2.6585c-1.3491,-1.13748 -2.34107,-2.44689 -2.97594,-3.92824c-0.31743,-0.66133 -0.31743,-1.26974 0,-1.82525c0.3439,-0.58197 0.91264,-0.9523 1.70623,-1.11102c0.58197,-0.13226 1.13748,-0.03967 1.66653,0.27777c0.55551,0.29097 0.97877,0.74069 1.26974,1.3491c0.37033,0.79359 0.992,1.52105 1.86494,2.18238c0.87295,0.66133 1.91784,1.20361 3.13468,1.62687c1.24328,0.39679 2.55271,0.5952 3.92827,0.5952c1.50782,0 2.89661,-0.23808 4.16635,-0.71423c1.2962,-0.47615 2.32786,-1.16392 3.09499,-2.06333c0.79359,-0.89941 1.19038,-2.01043 1.19038,-3.33307c0,-1.69299 -0.66133,-3.20081 -1.98397,-4.52345c-1.2962,-1.32264 -3.43889,-2.14269 -6.42806,-2.46012c-3.91504,-0.37033 -6.9968,-1.52105 -9.24528,-3.45209c-2.24851,-1.93107 -3.37273,-4.31183 -3.37273,-7.14229c0,-2.08979 0.58197,-3.86212 1.74589,-5.31703c1.16392,-1.45492 2.75109,-2.55271 4.76152,-3.29337c2.01043,-0.76713 4.2457,-1.15069 6.70583,-1.15069c1.93107,0 3.61083,0.26454 5.03929,0.79359c1.45492,0.52905 2.71143,1.26974 3.76955,2.22204c1.08456,0.9523 2.02366,2.07656 2.81725,3.37276c0.42326,0.68777 0.5952,1.3491 0.51584,1.98397c-0.0529,0.60841 -0.3571,1.08456 -0.91261,1.42846c-0.58197,0.37033 -1.23005,0.44969 -1.94428,0.23808c-0.68777,-0.21161 -1.20361,-0.62164 -1.54748,-1.23005c-0.50261,-0.92584 -1.12425,-1.7062 -1.86492,-2.34107c-0.71423,-0.63487 -1.56071,-1.12425 -2.53948,-1.46812c-0.97877,-0.37033 -2.12945,-0.55551 -3.45209,-0.55551c-2.3543,-0.02646 -4.32504,0.41002 -5.91221,1.30943c-1.56071,0.89941 -2.34107,2.27494 -2.34107,4.12665c0,0.9523 0.23808,1.86494 0.71423,2.73789c0.50261,0.87295 1.402,1.62687 2.6982,2.26174c1.32264,0.63487 3.21404,1.07136 5.67416,1.30943c3.75632,0.37033 6.67936,1.52105 8.76915,3.45212c2.11622,1.90461 3.17435,4.41763 3.17435,7.53908c0,1.79879 -0.37033,3.35953 -1.11102,4.68216c-0.74069,1.32264 -1.73266,2.44689 -2.97594,3.37276c-1.24328,0.89941 -2.67174,1.57394 -4.28537,2.02366c-1.58717,0.42326 -3.22725,0.63487 -4.92024,0.63487zM194.23859,204.94286c-0.68777,0 -1.26974,-0.23808 -1.74589,-0.71423c-0.47615,-0.47615 -0.71423,-1.05812 -0.71423,-1.74589v-32.06093c0,-0.74069 0.23808,-1.33587 0.71423,-1.78556c0.47615,-0.47615 1.05812,-0.71423 1.74589,-0.71423c0.74069,0 1.33587,0.23808 1.78558,0.71423c0.47615,0.44969 0.71423,1.04489 0.71423,1.78558v13.57034h21.98237v-13.57034c0,-0.74069 0.22485,-1.33587 0.67456,-1.78556c0.47615,-0.47615 1.07136,-0.71423 1.78558,-0.71423c0.71423,0 1.2962,0.23808 1.74589,0.71423c0.44969,0.44969 0.67456,1.04489 0.67456,1.78558v32.06093c0,0.68777 -0.22485,1.26974 -0.67454,1.74589c-0.44969,0.47615 -1.03166,0.71423 -1.74589,0.71423c-0.71423,0 -1.30941,-0.23808 -1.78556,-0.71423c-0.44969,-0.47615 -0.67454,-1.05812 -0.67454,-1.74589v-14.12585h-21.98237v14.12585c0,0.68777 -0.23808,1.26974 -0.71423,1.74589c-0.44969,0.47615 -1.04489,0.71423 -1.78556,0.71423zM231.57584,204.94286c-0.87295,0 -1.54748,-0.37033 -2.02363,-1.11102c-0.47615,-0.76713 -0.52905,-1.58717 -0.15872,-2.46012l13.33227,-31.78316c0.47615,-1.11102 1.24328,-1.66653 2.3014,-1.66653c1.13748,0 1.91784,0.55551 2.3411,1.66653l13.37196,31.90221c0.3439,0.87295 0.27777,1.66653 -0.19838,2.38076c-0.44969,0.71423 -1.12425,1.07136 -2.02363,1.07136c-0.47615,0 -0.93907,-0.13226 -1.38877,-0.39679c-0.42326,-0.26454 -0.72746,-0.63487 -0.91261,-1.11102l-11.74509,-29.20401h1.3491l-11.94348,29.20401c-0.23808,0.50261 -0.56874,0.88618 -0.99197,1.15071c-0.42326,0.23808 -0.85972,0.35713 -1.30941,0.35713zM234.11532,196.80858l1.86494,-4.08696h18.56994l1.90461,4.08699zM268.81027,204.94286c-0.68777,0 -1.26974,-0.23808 -1.74589,-0.71423c-0.47615,-0.47615 -0.71423,-1.05812 -0.71423,-1.74589v-32.06093c0,-0.74069 0.23808,-1.33587 0.71423,-1.78556c0.47615,-0.47615 1.05812,-0.71423 1.74589,-0.71423h8.53108c2.38076,0 4.48378,0.50261 6.30903,1.50782c1.82525,1.0052 3.25371,2.38076 4.28537,4.12665c1.03166,1.71943 1.54751,3.72986 1.54751,6.03126c0,2.14269 -0.51582,4.06053 -1.54748,5.75352c-1.03166,1.66653 -2.46012,2.97596 -4.28537,3.92827c-1.82525,0.9523 -3.92824,1.42846 -6.30901,1.42846h-6.03126v11.78478c0,0.68777 -0.23808,1.26974 -0.71423,1.74589c-0.44969,0.47615 -1.04489,0.71423 -1.78556,0.71423zM288.49124,204.94286c-0.44969,0 -0.85972,-0.09259 -1.23005,-0.27774c-0.3439,-0.18518 -0.6481,-0.48938 -0.91261,-0.91261l-8.53105,-13.72906l4.80122,-1.38877l7.77716,12.49901c0.55551,0.92584 0.62164,1.79879 0.19841,2.61884c-0.39679,0.79359 -1.09779,1.19038 -2.10299,1.19038zM271.31009,186.13484h6.03126c1.45492,0 2.73789,-0.27774 3.84891,-0.83325c1.11102,-0.55551 1.98397,-1.32264 2.61884,-2.3014c0.63487,-1.0052 0.9523,-2.14269 0.9523,-3.41243c0,-1.37556 -0.31743,-2.60561 -0.9523,-3.69017c-0.63487,-1.08456 -1.50782,-1.91784 -2.61884,-2.49979c-1.11102,-0.60841 -2.39399,-0.91261 -3.84889,-0.91261h-6.03126zM298.75264,204.94286c-0.68777,0 -1.26974,-0.23808 -1.74589,-0.71423c-0.47615,-0.47615 -0.71423,-1.05812 -0.71423,-1.74589v-32.06093c0,-0.74069 0.23808,-1.33587 0.71423,-1.78556c0.47615,-0.47615 1.05812,-0.71423 1.74589,-0.71423h21.42686c0.74069,0 1.32264,0.22485 1.74589,0.67456c0.44969,0.42326 0.67456,0.97877 0.67456,1.66653c0,0.66133 -0.22485,1.20361 -0.67454,1.62687c-0.42326,0.39679 -1.0052,0.5952 -1.74589,0.5952h-18.92704v11.50702h13.57034c0.74069,0 1.32264,0.21161 1.74589,0.63487c0.44969,0.42326 0.67456,0.97877 0.67456,1.66653c0,0.66133 -0.22485,1.20361 -0.67454,1.62687c-0.42326,0.42326 -1.0052,0.63487 -1.74589,0.63487h-13.57034v11.82445h18.92707c0.74069,0 1.32264,0.21161 1.74589,0.63487c0.44969,0.39679 0.67456,0.92584 0.67456,1.58717c0,0.71423 -0.22485,1.28297 -0.67454,1.70623c-0.42326,0.42326 -1.0052,0.63487 -1.74589,0.63487z" fill="url(#color-10)" stroke="url(#color-11)" stroke-width="9"/><path d="M170.90134,196.09938c-2.03687,0 -3.96794,-0.31743 -5.79319,-0.9523c-1.82525,-0.63487 -3.42566,-1.52105 -4.80119,-2.6585c-1.3491,-1.13748 -2.34107,-2.44689 -2.97594,-3.92824c-0.31743,-0.66133 -0.31743,-1.26974 0,-1.82525c0.3439,-0.58197 0.91264,-0.9523 1.70623,-1.11102c0.58197,-0.13226 1.13748,-0.03967 1.66653,0.27777c0.55551,0.29097 0.97877,0.74069 1.26974,1.3491c0.37033,0.79359 0.992,1.52105 1.86494,2.18238c0.87295,0.66133 1.91784,1.20361 3.13468,1.62687c1.24328,0.39679 2.55271,0.5952 3.92827,0.5952c1.50782,0 2.89661,-0.23808 4.16635,-0.71423c1.2962,-0.47615 2.32786,-1.16392 3.09499,-2.06333c0.79359,-0.89941 1.19038,-2.01043 1.19038,-3.33307c0,-1.69299 -0.66133,-3.20081 -1.98397,-4.52345c-1.2962,-1.32264 -3.43889,-2.14269 -6.42806,-2.46012c-3.91504,-0.37033 -6.9968,-1.52105 -9.24528,-3.45209c-2.24851,-1.93107 -3.37273,-4.31183 -3.37273,-7.14229c0,-2.08979 0.58197,-3.86212 1.74589,-5.31703c1.16392,-1.45492 2.75109,-2.55271 4.76152,-3.29337c2.01043,-0.76713 4.2457,-1.15069 6.70583,-1.15069c1.93107,0 3.61083,0.26454 5.03929,0.79359c1.45492,0.52905 2.71143,1.26974 3.76955,2.22204c1.08456,0.9523 2.02366,2.07656 2.81725,3.37276c0.42326,0.68777 0.5952,1.3491 0.51584,1.98397c-0.0529,0.60841 -0.3571,1.08456 -0.91261,1.42846c-0.58197,0.37033 -1.23005,0.44969 -1.94428,0.23808c-0.68777,-0.21161 -1.20361,-0.62164 -1.54748,-1.23005c-0.50261,-0.92584 -1.12425,-1.7062 -1.86492,-2.34107c-0.71423,-0.63487 -1.56071,-1.12425 -2.53948,-1.46812c-0.97877,-0.37033 -2.12945,-0.55551 -3.45209,-0.55551c-2.3543,-0.02646 -4.32504,0.41002 -5.91221,1.30943c-1.56071,0.89941 -2.34107,2.27494 -2.34107,4.12665c0,0.9523 0.23808,1.86494 0.71423,2.73789c0.50261,0.87295 1.402,1.62687 2.6982,2.26174c1.32264,0.63487 3.21404,1.07136 5.67416,1.30943c3.75632,0.37033 6.67936,1.52105 8.76915,3.45212c2.11622,1.90461 3.17435,4.41763 3.17435,7.53908c0,1.79879 -0.37033,3.35953 -1.11102,4.68216c-0.74069,1.32264 -1.73266,2.44689 -2.97594,3.37276c-1.24328,0.89941 -2.67174,1.57394 -4.28537,2.02366c-1.58717,0.42326 -3.22725,0.63487 -4.92024,0.63487zM194.17221,195.62323c-0.68777,0 -1.26974,-0.23808 -1.74589,-0.71423c-0.47615,-0.47615 -0.71423,-1.05812 -0.71423,-1.74589v-32.06093c0,-0.74069 0.23808,-1.33587 0.71423,-1.78556c0.47615,-0.47615 1.05812,-0.71423 1.74589,-0.71423c0.74069,0 1.33587,0.23808 1.78558,0.71423c0.47615,0.44969 0.71423,1.04489 0.71423,1.78558v13.57034h21.98237v-13.57034c0,-0.74069 0.22485,-1.33587 0.67456,-1.78556c0.47615,-0.47615 1.07136,-0.71423 1.78558,-0.71423c0.71423,0 1.2962,0.23808 1.74589,0.71423c0.44969,0.44969 0.67456,1.04489 0.67456,1.78558v32.06093c0,0.68777 -0.22485,1.26974 -0.67454,1.74589c-0.44969,0.47615 -1.03166,0.71423 -1.74589,0.71423c-0.71423,0 -1.30941,-0.23808 -1.78556,-0.71423c-0.44969,-0.47615 -0.67454,-1.05812 -0.67454,-1.74589v-14.12585h-21.98237v14.12585c0,0.68777 -0.23808,1.26974 -0.71423,1.74589c-0.44969,0.47615 -1.04489,0.71423 -1.78556,0.71423zM231.50946,195.62323c-0.87295,0 -1.54748,-0.37033 -2.02363,-1.11102c-0.47615,-0.76713 -0.52905,-1.58717 -0.15872,-2.46012l13.33227,-31.78316c0.47615,-1.11102 1.24328,-1.66653 2.3014,-1.66653c1.13748,0 1.91784,0.55551 2.3411,1.66653l13.37196,31.90221c0.3439,0.87295 0.27777,1.66653 -0.19838,2.38076c-0.44969,0.71423 -1.12425,1.07136 -2.02363,1.07136c-0.47615,0 -0.93907,-0.13226 -1.38877,-0.39679c-0.42326,-0.26454 -0.72746,-0.63487 -0.91261,-1.11102l-11.74509,-29.20401h1.3491l-11.94348,29.20401c-0.23808,0.50261 -0.56874,0.88618 -0.99197,1.15071c-0.42326,0.23808 -0.85972,0.35713 -1.30941,0.35713zM234.04894,187.48894l1.86494,-4.08696h18.56994l1.90461,4.08699zM268.74389,195.62323c-0.68777,0 -1.26974,-0.23808 -1.74589,-0.71423c-0.47615,-0.47615 -0.71423,-1.05812 -0.71423,-1.74589v-32.06093c0,-0.74069 0.23808,-1.33587 0.71423,-1.78556c0.47615,-0.47615 1.05812,-0.71423 1.74589,-0.71423h8.53108c2.38076,0 4.48378,0.50261 6.30903,1.50782c1.82525,1.0052 3.25371,2.38076 4.28537,4.12665c1.03166,1.71943 1.54751,3.72986 1.54751,6.03126c0,2.14269 -0.51582,4.06053 -1.54748,5.75352c-1.03166,1.66653 -2.46012,2.97596 -4.28537,3.92827c-1.82525,0.9523 -3.92824,1.42846 -6.30901,1.42846h-6.03126v11.78478c0,0.68777 -0.23808,1.26974 -0.71423,1.74589c-0.44969,0.47615 -1.04489,0.71423 -1.78556,0.71423zM288.42485,195.62323c-0.44969,0 -0.85972,-0.09259 -1.23005,-0.27774c-0.3439,-0.18518 -0.6481,-0.48938 -0.91261,-0.91261l-8.53105,-13.72906l4.80122,-1.38877l7.77716,12.49901c0.55551,0.92584 0.62164,1.79879 0.19841,2.61884c-0.39679,0.79359 -1.09779,1.19038 -2.10299,1.19038zM271.2437,176.81521h6.03126c1.45492,0 2.73789,-0.27774 3.84891,-0.83325c1.11102,-0.55551 1.98397,-1.32264 2.61884,-2.3014c0.63487,-1.0052 0.9523,-2.14269 0.9523,-3.41243c0,-1.37556 -0.31743,-2.60561 -0.9523,-3.69017c-0.63487,-1.08456 -1.50782,-1.91784 -2.61884,-2.49979c-1.11102,-0.60841 -2.39399,-0.91261 -3.84889,-0.91261h-6.03126zM298.68626,195.62323c-0.68777,0 -1.26974,-0.23808 -1.74589,-0.71423c-0.47615,-0.47615 -0.71423,-1.05812 -0.71423,-1.74589v-32.06093c0,-0.74069 0.23808,-1.33587 0.71423,-1.78556c0.47615,-0.47615 1.05812,-0.71423 1.74589,-0.71423h21.42686c0.74069,0 1.32264,0.22485 1.74589,0.67456c0.44969,0.42326 0.67456,0.97877 0.67456,1.66653c0,0.66133 -0.22485,1.20361 -0.67454,1.62687c-0.42326,0.39679 -1.0052,0.5952 -1.74589,0.5952h-18.92704v11.50702h13.57034c0.74069,0 1.32264,0.21161 1.74589,0.63487c0.44969,0.42326 0.67456,0.97877 0.67456,1.66653c0,0.66133 -0.22485,1.20361 -0.67454,1.62687c-0.42326,0.42326 -1.0052,0.63487 -1.74589,0.63487h-13.57034v11.82445h18.92707c0.74069,0 1.32264,0.21161 1.74589,0.63487c0.44969,0.39679 0.67456,0.92584 0.67456,1.58717c0,0.71423 -0.22485,1.28297 -0.67454,1.70623c-0.42326,0.42326 -1.0052,0.63487 -1.74589,0.63487z" fill="#a97fff" stroke="#28123b" stroke-width="9"/><path d="M170.90131,196.09938c-2.03687,0 -3.96794,-0.31743 -5.79319,-0.9523c-1.82525,-0.63487 -3.42566,-1.52105 -4.80119,-2.6585c-1.3491,-1.13748 -2.34107,-2.44689 -2.97594,-3.92824c-0.31743,-0.66133 -0.31743,-1.26974 0,-1.82525c0.3439,-0.58197 0.91264,-0.9523 1.70623,-1.11102c0.58197,-0.13226 1.13748,-0.03967 1.66653,0.27777c0.55551,0.29097 0.97877,0.74069 1.26974,1.3491c0.37033,0.79359 0.992,1.52105 1.86494,2.18238c0.87295,0.66133 1.91784,1.20361 3.13468,1.62687c1.24328,0.39679 2.55271,0.5952 3.92827,0.5952c1.50782,0 2.89661,-0.23808 4.16635,-0.71423c1.2962,-0.47615 2.32786,-1.16392 3.09499,-2.06333c0.79359,-0.89941 1.19038,-2.01043 1.19038,-3.33307c0,-1.69299 -0.66133,-3.20081 -1.98397,-4.52345c-1.2962,-1.32264 -3.43889,-2.14269 -6.42806,-2.46012c-3.91504,-0.37033 -6.9968,-1.52105 -9.24528,-3.45209c-2.24851,-1.93107 -3.37273,-4.31183 -3.37273,-7.14229c0,-2.08979 0.58197,-3.86212 1.74589,-5.31703c1.16392,-1.45492 2.75109,-2.55271 4.76152,-3.29337c2.01043,-0.76713 4.2457,-1.15069 6.70583,-1.15069c1.93107,0 3.61083,0.26454 5.03929,0.79359c1.45492,0.52905 2.71143,1.26974 3.76955,2.22204c1.08456,0.9523 2.02366,2.07656 2.81725,3.37276c0.42326,0.68777 0.5952,1.3491 0.51584,1.98397c-0.0529,0.60841 -0.3571,1.08456 -0.91261,1.42846c-0.58197,0.37033 -1.23005,0.44969 -1.94428,0.23808c-0.68777,-0.21161 -1.20361,-0.62164 -1.54748,-1.23005c-0.50261,-0.92584 -1.12425,-1.7062 -1.86492,-2.34107c-0.71423,-0.63487 -1.56071,-1.12425 -2.53948,-1.46812c-0.97877,-0.37033 -2.12945,-0.55551 -3.45209,-0.55551c-2.3543,-0.02646 -4.32504,0.41002 -5.91221,1.30943c-1.56071,0.89941 -2.34107,2.27494 -2.34107,4.12665c0,0.9523 0.23808,1.86494 0.71423,2.73789c0.50261,0.87295 1.402,1.62687 2.6982,2.26174c1.32264,0.63487 3.21404,1.07136 5.67416,1.30943c3.75632,0.37033 6.67936,1.52105 8.76915,3.45212c2.11622,1.90461 3.17435,4.41763 3.17435,7.53908c0,1.79879 -0.37033,3.35953 -1.11102,4.68216c-0.74069,1.32264 -1.73266,2.44689 -2.97594,3.37276c-1.24328,0.89941 -2.67174,1.57394 -4.28537,2.02366c-1.58717,0.42326 -3.22725,0.63487 -4.92024,0.63487zM194.17221,195.62323c-0.68777,0 -1.26974,-0.23808 -1.74589,-0.71423c-0.47615,-0.47615 -0.71423,-1.05812 -0.71423,-1.74589v-32.06093c0,-0.74069 0.23808,-1.33587 0.71423,-1.78556c0.47615,-0.47615 1.05812,-0.71423 1.74589,-0.71423c0.74069,0 1.33587,0.23808 1.78558,0.71423c0.47615,0.44969 0.71423,1.04489 0.71423,1.78558v13.57034h21.98237v-13.57034c0,-0.74069 0.22485,-1.33587 0.67456,-1.78556c0.47615,-0.47615 1.07136,-0.71423 1.78558,-0.71423c0.71423,0 1.2962,0.23808 1.74589,0.71423c0.44969,0.44969 0.67456,1.04489 0.67456,1.78558v32.06093c0,0.68777 -0.22485,1.26974 -0.67454,1.74589c-0.44969,0.47615 -1.03166,0.71423 -1.74589,0.71423c-0.71423,0 -1.30941,-0.23808 -1.78556,-0.71423c-0.44969,-0.47615 -0.67454,-1.05812 -0.67454,-1.74589v-14.12585h-21.98237v14.12585c0,0.68777 -0.23808,1.26974 -0.71423,1.74589c-0.44969,0.47615 -1.04489,0.71423 -1.78556,0.71423zM231.50946,195.62323c-0.87295,0 -1.54748,-0.37033 -2.02363,-1.11102c-0.47615,-0.76713 -0.52905,-1.58717 -0.15872,-2.46012l13.33227,-31.78316c0.47615,-1.11102 1.24328,-1.66653 2.3014,-1.66653c1.13748,0 1.91784,0.55551 2.3411,1.66653l13.37196,31.90221c0.3439,0.87295 0.27777,1.66653 -0.19838,2.38076c-0.44969,0.71423 -1.12425,1.07136 -2.02363,1.07136c-0.47615,0 -0.93907,-0.13226 -1.38877,-0.39679c-0.42326,-0.26454 -0.72746,-0.63487 -0.91261,-1.11102l-11.74509,-29.20401h1.3491l-11.94348,29.20401c-0.23808,0.50261 -0.56874,0.88618 -0.99197,1.15071c-0.42326,0.23808 -0.85972,0.35713 -1.30941,0.35713zM234.04894,187.48892l1.86494,-4.08696h18.56994l1.90461,4.08699zM268.74389,195.62323c-0.68777,0 -1.26974,-0.23808 -1.74589,-0.71423c-0.47615,-0.47615 -0.71423,-1.05812 -0.71423,-1.74589v-32.06093c0,-0.74069 0.23808,-1.33587 0.71423,-1.78556c0.47615,-0.47615 1.05812,-0.71423 1.74589,-0.71423h8.53108c2.38076,0 4.48378,0.50261 6.30903,1.50782c1.82525,1.0052 3.25371,2.38076 4.28537,4.12665c1.03166,1.71943 1.54751,3.72986 1.54751,6.03126c0,2.14269 -0.51582,4.06053 -1.54748,5.75352c-1.03166,1.66653 -2.46012,2.97596 -4.28537,3.92827c-1.82525,0.9523 -3.92824,1.42846 -6.30901,1.42846h-6.03126v11.78478c0,0.68777 -0.23808,1.26974 -0.71423,1.74589c-0.44969,0.47615 -1.04489,0.71423 -1.78556,0.71423zM288.42485,195.62323c-0.44969,0 -0.85972,-0.09259 -1.23005,-0.27774c-0.3439,-0.18518 -0.6481,-0.48938 -0.91261,-0.91261l-8.53105,-13.72906l4.80122,-1.38877l7.77716,12.49901c0.55551,0.92584 0.62164,1.79879 0.19841,2.61884c-0.39679,0.79359 -1.09779,1.19038 -2.10299,1.19038zM271.24368,176.81521h6.03126c1.45492,0 2.73789,-0.27774 3.84891,-0.83325c1.11102,-0.55551 1.98397,-1.32264 2.61884,-2.3014c0.63487,-1.0052 0.9523,-2.14269 0.9523,-3.41243c0,-1.37556 -0.31743,-2.60561 -0.9523,-3.69017c-0.63487,-1.08456 -1.50782,-1.91784 -2.61884,-2.49979c-1.11102,-0.60841 -2.39399,-0.91261 -3.84889,-0.91261h-6.03126zM298.68626,195.62323c-0.68777,0 -1.26974,-0.23808 -1.74589,-0.71423c-0.47615,-0.47615 -0.71423,-1.05812 -0.71423,-1.74589v-32.06093c0,-0.74069 0.23808,-1.33587 0.71423,-1.78556c0.47615,-0.47615 1.05812,-0.71423 1.74589,-0.71423h21.42686c0.74069,0 1.32264,0.22485 1.74589,0.67456c0.44969,0.42326 0.67456,0.97877 0.67456,1.66653c0,0.66133 -0.22485,1.20361 -0.67454,1.62687c-0.42326,0.39679 -1.0052,0.5952 -1.74589,0.5952h-18.92704v11.50702h13.57034c0.74069,0 1.32264,0.21161 1.74589,0.63487c0.44969,0.42326 0.67456,0.97877 0.67456,1.66653c0,0.66133 -0.22485,1.20361 -0.67454,1.62687c-0.42326,0.42326 -1.0052,0.63487 -1.74589,0.63487h-13.57034v11.82445h18.92707c0.74069,0 1.32264,0.21161 1.74589,0.63487c0.44969,0.39679 0.67456,0.92584 0.67456,1.58717c0,0.71423 -0.22485,1.28297 -0.67454,1.70623c-0.42326,0.42326 -1.0052,0.63487 -1.74589,0.63487z" fill="#a97fff" stroke="#a97fff" stroke-width="0.5"/></g></g></g></svg>