<svg version="1.1" xmlns="http://www.w3.org/2000/svg" xmlns:xlink="http://www.w3.org/1999/xlink" width="137.77424" height="153.31744" viewBox="0,0,137.77424,153.31744"><defs><linearGradient x1="-118.66754" y1="-1015.04701" x2="-83.88441" y2="695.21506" gradientUnits="userSpaceOnUse" id="color-1"><stop offset="0" stop-color="#000000"/><stop offset="1" stop-color="#000000" stop-opacity="0"/></linearGradient><linearGradient x1="240.12802" y1="134.23559" x2="240.12802" y2="147.39257" gradientUnits="userSpaceOnUse" id="color-2"><stop offset="0" stop-color="#000000"/><stop offset="1" stop-color="#000000" stop-opacity="0"/></linearGradient><linearGradient x1="240.12802" y1="134.23559" x2="240.12802" y2="147.39257" gradientUnits="userSpaceOnUse" id="color-3"><stop offset="0" stop-color="#000000"/><stop offset="1" stop-color="#000000" stop-opacity="0"/></linearGradient><linearGradient x1="177.40397" y1="140.81408" x2="177.40397" y2="242.04724" gradientUnits="userSpaceOnUse" id="color-4"><stop offset="0" stop-color="#000000"/><stop offset="1" stop-color="#000000" stop-opacity="0"/></linearGradient><linearGradient x1="177.40397" y1="140.81408" x2="177.40397" y2="242.04724" gradientUnits="userSpaceOnUse" id="color-5"><stop offset="0" stop-color="#000000"/><stop offset="1" stop-color="#000000" stop-opacity="0"/></linearGradient><linearGradient x1="239.82425" y1="236.48504" x2="239.82425" y2="249.64202" gradientUnits="userSpaceOnUse" id="color-6"><stop offset="0" stop-color="#000000"/><stop offset="1" stop-color="#000000" stop-opacity="0"/></linearGradient><linearGradient x1="239.82425" y1="236.48504" x2="239.82425" y2="249.64202" gradientUnits="userSpaceOnUse" id="color-7"><stop offset="0" stop-color="#000000"/><stop offset="1" stop-color="#000000" stop-opacity="0"/></linearGradient><linearGradient x1="302.54828" y1="141.83038" x2="302.54828" y2="243.06353" gradientUnits="userSpaceOnUse" id="color-8"><stop offset="0" stop-color="#000000"/><stop offset="1" stop-color="#000000" stop-opacity="0"/></linearGradient><linearGradient x1="302.54828" y1="141.83038" x2="302.54828" y2="243.06353" gradientUnits="userSpaceOnUse" id="color-9"><stop offset="0" stop-color="#000000"/><stop offset="1" stop-color="#000000" stop-opacity="0"/></linearGradient><linearGradient x1="239.09711" y1="258.80658" x2="239.09711" y2="281.75353" gradientUnits="userSpaceOnUse" id="color-10"><stop offset="0" stop-color="#000000"/><stop offset="1" stop-color="#000000" stop-opacity="0"/></linearGradient><linearGradient x1="239.09711" y1="258.80658" x2="239.09711" y2="281.75353" gradientUnits="userSpaceOnUse" id="color-11"><stop offset="0" stop-color="#000000"/><stop offset="1" stop-color="#000000" stop-opacity="0"/></linearGradient></defs><g transform="translate(-171.15397,-129.68609)"><g data-paper-data="{&quot;isPaintingLayer&quot;:true}" fill-rule="nonzero" stroke-linejoin="miter" stroke-miterlimit="10" stroke-dasharray="" stroke-dashoffset="0" style="mix-blend-mode: normal"><path d="M178.29089,236.11065l-0.96904,-98.60731l124.65311,-2.09515l0.63183,98.7816z" fill="url(#color-1)" stroke="none" stroke-width="0" stroke-linecap="butt"/><g stroke-linecap="round"><g stroke-width="12.5"><path d="M301.95851,140.81408h-123.66096" fill="url(#color-2)" stroke="url(#color-3)"/><path d="M177.40397,242.04724v-101.23316" fill="url(#color-4)" stroke="url(#color-5)"/><path d="M301.65468,243.06353h-123.66095" data-paper-data="{&quot;index&quot;:null}" fill="url(#color-6)" stroke="url(#color-7)"/><path d="M302.54828,243.06353v-101.23314" data-paper-data="{&quot;index&quot;:null}" fill="url(#color-8)" stroke="url(#color-9)"/></g><g fill="none" stroke="#28123b" stroke-width="12.5"><path d="M178.4275,136.00852h123.66096"/><path d="M177.5339,237.24167v-101.23315"/><path d="M301.78461,238.25797h-123.66095" data-paper-data="{&quot;index&quot;:null}"/><path d="M302.67821,238.25797v-101.23315" data-paper-data="{&quot;index&quot;:null}"/></g><g fill="none" stroke="#8b4fff" stroke-width="4.5"><path d="M302.08842,136.00852h-123.66096"/><path d="M177.5339,237.24167v-101.23315"/><path d="M301.78461,238.25797h-123.66095" data-paper-data="{&quot;index&quot;:null}"/><path d="M302.67821,238.25797v-101.23315" data-paper-data="{&quot;index&quot;:null}"/></g></g><g fill="none" stroke-linecap="round"><g stroke="#28123b" stroke-width="12.5"><path d="M223.10433,195.13679h-29.90641"/><path d="M192.98179,195.13679v35.42015"/><path d="M223.24697,195.49238v35.42014" data-paper-data="{&quot;index&quot;:null}"/></g><g stroke-width="4.5"><path d="M193.19793,195.13679h29.90641" stroke="#4294ff"/><path d="M192.98179,195.13679v35.42015" stroke="#4aa2ff"/><path d="M216.13303,230.91253" data-paper-data="{&quot;index&quot;:null}" stroke="#8b4fff"/><path d="M223.24697,195.49238v35.42014" data-paper-data="{&quot;index&quot;:null}" stroke="#4294ff"/></g></g><g fill="#0f00eb" stroke-linecap="round"><g stroke="#28123b" stroke-width="12.5"><path d="M202.29455,168.02762h12.03391"/><path d="M202.20761,179.34452v-11.3169"/><path d="M202.265,179.45812h12.03391" data-paper-data="{&quot;index&quot;:null}"/><path d="M214.38587,168.14123v11.3169" data-paper-data="{&quot;index&quot;:null}"/></g><g stroke-width="4.5"><path d="M214.32847,168.02762h-12.03391" stroke="#4294ff"/><path d="M202.20761,179.34452v-11.3169" stroke="#4aa2ff"/><path d="M202.265,179.45812h12.03391" data-paper-data="{&quot;index&quot;:null}" stroke="#4294ff"/><path d="M214.38587,168.14123v11.3169" data-paper-data="{&quot;index&quot;:null}" stroke="#4294ff"/></g></g><g fill="none" stroke-linecap="round"><g stroke="#28123b" stroke-width="12.5"><path d="M301.98244,135.93609h-123.66096"/><path d="M177.42788,236.25092v-100.31483"/><path d="M178.01768,237.25798h123.66096" data-paper-data="{&quot;index&quot;:null}"/><path d="M302.57219,237.25798v-100.31482" data-paper-data="{&quot;index&quot;:null}"/></g><g stroke="#8b4fff" stroke-width="4.5"><path d="M301.98244,135.93609h-123.66096"/><path d="M177.42788,236.25092v-100.31483"/><path d="M178.01768,237.25798h123.66096" data-paper-data="{&quot;index&quot;:null}"/><path d="M302.57219,237.25798v-100.31482" data-paper-data="{&quot;index&quot;:null}"/></g></g><g fill="none" stroke-linecap="round"><g stroke="#28123b" stroke-width="12.5"><path d=""/><path d="M259.64955,227.42231l2.79281,-12.05321"/><path d="M259.73337,227.53605h17.57934" data-paper-data="{&quot;index&quot;:null}"/><path d="M277.43974,227.53605l-2.4154,-11.9326" data-paper-data="{&quot;index&quot;:null}"/></g><g stroke-width="4.5"><path d="" stroke="#8b4fff"/><path d="M262.43607,215.45669l-2.78654,11.96563" stroke="#ff6c85"/><path d="M259.73337,227.53605h17.57934" data-paper-data="{&quot;index&quot;:null}" stroke="#ff4f6d"/><path d="M277.43974,227.53605l-2.38846,-11.96563" data-paper-data="{&quot;index&quot;:null}" stroke="#ff4f6d"/></g></g><g fill="none" stroke-linecap="round"><g stroke="#28123b" stroke-width="12.5"><path d="M286.77115,185.34208h-36.63798"/><path d="M249.86842,185.34208v25.25069"/><path d="M286.68111,210.84626h-36.63796" data-paper-data="{&quot;index&quot;:null}"/><path d="M286.94586,185.59557v25.25069" data-paper-data="{&quot;index&quot;:null}"/></g><g stroke-width="4.5"><path d="M286.77115,185.34208h-36.63798" stroke="#ff4f6d"/><path d="M249.86842,185.34208v25.25069" stroke="#ff6c85"/><path d="M286.68111,210.84626h-36.63796" data-paper-data="{&quot;index&quot;:null}" stroke="#ff4f6d"/><path d="M286.94586,185.59557v25.25069" data-paper-data="{&quot;index&quot;:null}" stroke="#ff4f6d"/></g></g><g stroke-linecap="square"><path d="M178.69239,281.75347c-0.39352,0 -0.73784,-0.14756 -1.03298,-0.4427c-0.29514,-0.29514 -0.44271,-0.64767 -0.44271,-1.05757v-17.90497l-2.13973,0.91001c-0.32792,0.13117 -0.63946,0.19676 -0.9346,0.19676c-0.4427,0 -0.80344,-0.13117 -1.08217,-0.39352c-0.27873,-0.27873 -0.4181,-0.63947 -0.4181,-1.08217c0,-0.31154 0.07379,-0.59027 0.22136,-0.83622c0.16397,-0.26235 0.40991,-0.45091 0.73784,-0.56567l4.57463,-1.64784c0.09838,-0.03279 0.19675,-0.05739 0.29513,-0.07377c0.09838,-0.03279 0.18856,-0.04919 0.27055,-0.04919c0.45911,0 0.81982,0.14756 1.08217,0.4427c0.26235,0.27873 0.39352,0.64766 0.39352,1.10677v19.89715c0,0.40992 -0.14757,0.76244 -0.44271,1.05758c-0.29514,0.29514 -0.65586,0.4427 -1.08216,0.4427zM196.20591,281.75347c-0.4263,0 -0.78703,-0.14756 -1.08217,-0.4427c-0.29514,-0.29514 -0.4427,-0.65587 -0.4427,-1.08217v-19.87255c0,-0.45911 0.14756,-0.82802 0.4427,-1.10676c0.29514,-0.29514 0.65587,-0.44271 1.08217,-0.44271h5.87815c1.47569,0 2.77921,0.32793 3.91057,0.98379c1.13136,0.63946 2.01677,1.53308 2.65623,2.68083c0.63946,1.14776 0.9592,2.46768 0.9592,3.95976c0,1.4265 -0.31973,2.69722 -0.95919,3.81219c-0.63946,1.11496 -1.52487,1.98398 -2.65623,2.60704c-1.13136,0.62306 -2.43487,0.9346 -3.91056,0.9346h-4.32867v6.44383c0,0.4263 -0.14756,0.78703 -0.4427,1.08216c-0.27873,0.29514 -0.64766,0.44271 -1.10676,0.44271zM197.7554,270.98097h4.32867c0.90181,0 1.69704,-0.19676 2.3857,-0.59027c0.68865,-0.39352 1.22973,-0.9346 1.62325,-1.62325c0.39352,-0.68865 0.59028,-1.46748 0.59028,-2.33649c0,-0.951 -0.19676,-1.77902 -0.59028,-2.48406c-0.39352,-0.72144 -0.9346,-1.28713 -1.62325,-1.69703c-0.68865,-0.40992 -1.48389,-0.61486 -2.38568,-0.61486h-4.32867zM214.47641,281.75347c-0.4263,0 -0.78703,-0.14756 -1.08217,-0.4427c-0.27873,-0.29514 -0.4181,-0.65587 -0.4181,-1.08217v-19.87255c0,-0.4427 0.14757,-0.81162 0.44271,-1.10676c0.29514,-0.29514 0.64766,-0.44271 1.05758,-0.44271c0.4427,0 0.80344,0.14757 1.08217,0.44271c0.29514,0.29514 0.44271,0.66407 0.44271,1.10677v18.34767h10.64951c0.4263,0 0.78703,0.14757 1.08217,0.44271c0.29514,0.29514 0.4427,0.65586 0.4427,1.08216c0,0.4263 -0.14756,0.78703 -0.4427,1.08217c-0.29514,0.29514 -0.65587,0.4427 -1.08217,0.4427zM230.91911,281.75347c-0.54108,0 -0.95919,-0.22954 -1.25433,-0.68865c-0.29514,-0.47549 -0.32792,-0.98379 -0.09838,-1.52488l8.26383,-19.70038c0.29514,-0.68865 0.77063,-1.03298 1.42649,-1.03298c0.70505,0 1.18875,0.34433 1.4511,1.03298l8.28843,19.77417c0.21316,0.54108 0.17217,1.03298 -0.12297,1.47569c-0.27873,0.4427 -0.69685,0.66406 -1.25432,0.66406c-0.29514,0 -0.58208,-0.08198 -0.86081,-0.24595c-0.26235,-0.16397 -0.45091,-0.39352 -0.56567,-0.68865l-7.28004,-18.10173h0.83622l-7.40301,18.10173c-0.14757,0.31154 -0.35252,0.54929 -0.61486,0.71326c-0.26235,0.14757 -0.53288,0.22136 -0.81162,0.22136zM232.49317,276.71156l1.15596,-2.53325h11.51034l1.18055,2.53327zM257.00942,281.75347c-0.40992,0 -0.76242,-0.14756 -1.05756,-0.4427c-0.29514,-0.29514 -0.44271,-0.65587 -0.44271,-1.08217v-6.83734l-7.84571,-12.19899c-0.24595,-0.40992 -0.34433,-0.79523 -0.29514,-1.15594c0.06559,-0.36073 0.23775,-0.65587 0.5165,-0.88541c0.27873,-0.22955 0.60667,-0.34433 0.98379,-0.34433c0.32792,0 0.59028,0.07379 0.78704,0.22136c0.19676,0.14757 0.38531,0.36073 0.56569,0.63946l7.45221,11.83008h-1.18055l7.59979,-11.95304c0.14757,-0.22955 0.32792,-0.40992 0.54108,-0.54108c0.21316,-0.13117 0.4755,-0.19676 0.78704,-0.19676c0.36073,0 0.65586,0.12298 0.88541,0.36893c0.24595,0.24595 0.38532,0.55748 0.41812,0.9346c0.03279,0.36073 -0.06559,0.72144 -0.29514,1.08216l-7.8949,12.19899v6.83734c0,0.4263 -0.14756,0.78703 -0.4427,1.08216c-0.29514,0.29514 -0.65587,0.44271 -1.08217,0.44271zM271.32309,281.75347c-0.4263,0 -0.78703,-0.14756 -1.08217,-0.4427c-0.29514,-0.29514 -0.44271,-0.65587 -0.44271,-1.08217v-19.87255c0,-0.45911 0.14757,-0.82802 0.44271,-1.10676c0.29514,-0.29514 0.65587,-0.44271 1.08217,-0.44271h13.28116c0.45911,0 0.81982,0.13937 1.08217,0.41812c0.27873,0.26235 0.41812,0.60667 0.41812,1.03298c0,0.40992 -0.13937,0.74604 -0.4181,1.00839c-0.26235,0.24595 -0.62306,0.36893 -1.08217,0.36893h-11.73168v7.13248h8.4114c0.45911,0 0.81981,0.13117 1.08216,0.39352c0.27873,0.26235 0.41812,0.60667 0.41812,1.03298c0,0.40992 -0.13937,0.74604 -0.4181,1.00839c-0.26235,0.26235 -0.62306,0.39352 -1.08217,0.39352h-8.4114v7.32923h11.7317c0.45911,0 0.81981,0.13117 1.08216,0.39352c0.27873,0.24595 0.41812,0.57387 0.41812,0.98379c0,0.4427 -0.13937,0.79523 -0.4181,1.05758c-0.26235,0.26235 -0.62306,0.39352 -1.08217,0.39352zM291.8794,281.75347c-0.4263,0 -0.78703,-0.14756 -1.08216,-0.4427c-0.29514,-0.29514 -0.44271,-0.65587 -0.44271,-1.08217v-19.87255c0,-0.45911 0.14757,-0.82802 0.44271,-1.10676c0.29514,-0.29514 0.65586,-0.44271 1.08216,-0.44271h5.28788c1.47569,0 2.77921,0.31154 3.91057,0.9346c1.13136,0.62306 2.01678,1.47569 2.65624,2.55785c0.63946,1.06577 0.9592,2.3119 0.9592,3.7384c0,1.32812 -0.31973,2.51686 -0.95919,3.56624c-0.63946,1.03298 -1.52487,1.84461 -2.65623,2.43489c-1.13136,0.59027 -2.43487,0.88541 -3.91056,0.88541h-3.7384v7.30465c0,0.4263 -0.14756,0.78703 -0.4427,1.08216c-0.27873,0.29514 -0.64766,0.44271 -1.10676,0.44271zM304.07838,281.75347c-0.27873,0 -0.53288,-0.05739 -0.76243,-0.17216c-0.21316,-0.11478 -0.40172,-0.30333 -0.56567,-0.56567l-5.28786,-8.50978l2.97597,-0.86081l4.82057,7.74735c0.34433,0.57387 0.38532,1.11496 0.12298,1.62325c-0.24595,0.4919 -0.68045,0.73784 -1.30351,0.73784zM293.42886,270.09556h3.7384c0.90181,0 1.69704,-0.17215 2.38569,-0.51648c0.68865,-0.34433 1.22974,-0.81982 1.62325,-1.4265c0.39352,-0.62306 0.59027,-1.32812 0.59027,-2.11515c0,-0.85262 -0.19676,-1.61505 -0.59027,-2.2873c-0.39352,-0.67225 -0.9346,-1.18875 -1.62325,-1.54946c-0.68865,-0.37712 -1.48388,-0.56567 -2.38568,-0.56567h-3.7384z" fill="url(#color-10)" stroke="url(#color-11)" stroke-width="2.5"/><path d="M178.69239,278.65781c-0.39352,0 -0.73784,-0.14757 -1.03298,-0.44271c-0.29514,-0.29514 -0.44271,-0.64766 -0.44271,-1.05756v-17.90497l-2.13973,0.91001c-0.32792,0.13117 -0.63946,0.19676 -0.9346,0.19676c-0.4427,0 -0.80344,-0.13117 -1.08217,-0.39352c-0.27873,-0.27873 -0.4181,-0.63947 -0.4181,-1.08217c0,-0.31154 0.07379,-0.59027 0.22136,-0.83622c0.16397,-0.26235 0.40991,-0.45091 0.73784,-0.56567l4.57463,-1.64784c0.09838,-0.03279 0.19675,-0.05739 0.29513,-0.07377c0.09838,-0.03279 0.18856,-0.04919 0.27055,-0.04919c0.45911,0 0.81982,0.14757 1.08217,0.44271c0.26235,0.27873 0.39352,0.64766 0.39352,1.10677v19.89715c0,0.40992 -0.14757,0.76244 -0.44271,1.05758c-0.29514,0.29514 -0.65586,0.44271 -1.08216,0.44271zM196.20591,278.65781c-0.4263,0 -0.78703,-0.14757 -1.08217,-0.44271c-0.29514,-0.29514 -0.4427,-0.65586 -0.4427,-1.08216v-19.87255c0,-0.45911 0.14756,-0.82802 0.4427,-1.10676c0.29514,-0.29514 0.65587,-0.4427 1.08217,-0.4427h5.87815c1.47569,0 2.77921,0.32792 3.91057,0.98379c1.13136,0.63946 2.01677,1.53308 2.65623,2.68084c0.63946,1.14776 0.9592,2.46768 0.9592,3.95976c0,1.4265 -0.31973,2.69722 -0.95919,3.81219c-0.63946,1.11496 -1.52487,1.98398 -2.65623,2.60704c-1.13136,0.62306 -2.43487,0.9346 -3.91056,0.9346h-4.32867v6.44382c0,0.4263 -0.14756,0.78703 -0.4427,1.08217c-0.27873,0.29514 -0.64766,0.4427 -1.10676,0.4427zM197.7554,267.88531h4.32867c0.90181,0 1.69704,-0.19676 2.3857,-0.59028c0.68865,-0.39352 1.22973,-0.9346 1.62325,-1.62325c0.39352,-0.68865 0.59028,-1.46749 0.59028,-2.3365c0,-0.951 -0.19676,-1.77902 -0.59028,-2.48406c-0.39352,-0.72144 -0.9346,-1.28713 -1.62325,-1.69703c-0.68865,-0.40992 -1.48389,-0.61486 -2.38568,-0.61486h-4.32867zM214.47641,278.65781c-0.4263,0 -0.78703,-0.14757 -1.08217,-0.44271c-0.27873,-0.29514 -0.4181,-0.65586 -0.4181,-1.08216v-19.87255c0,-0.4427 0.14757,-0.81162 0.44271,-1.10676c0.29514,-0.29514 0.64766,-0.4427 1.05758,-0.4427c0.4427,0 0.80344,0.14756 1.08217,0.4427c0.29514,0.29514 0.44271,0.66407 0.44271,1.10677v18.34768h10.64951c0.4263,0 0.78703,0.14756 1.08217,0.4427c0.29514,0.29514 0.4427,0.65587 0.4427,1.08217c0,0.4263 -0.14756,0.78703 -0.4427,1.08217c-0.29514,0.29514 -0.65587,0.4427 -1.08217,0.4427zM230.91911,278.65781c-0.54108,0 -0.95919,-0.22955 -1.25433,-0.68865c-0.29514,-0.47549 -0.32792,-0.98379 -0.09838,-1.52487l8.26383,-19.70038c0.29514,-0.68865 0.77063,-1.03298 1.42649,-1.03298c0.70505,0 1.18875,0.34432 1.4511,1.03298l8.28843,19.77418c0.21316,0.54108 0.17217,1.03298 -0.12297,1.47568c-0.27873,0.4427 -0.69685,0.66407 -1.25432,0.66407c-0.29514,0 -0.58208,-0.08198 -0.86081,-0.24595c-0.26235,-0.16397 -0.45091,-0.39352 -0.56567,-0.68865l-7.28004,-18.10173h0.83622l-7.40301,18.10173c-0.14757,0.31154 -0.35252,0.54929 -0.61486,0.71326c-0.26235,0.14757 -0.53288,0.22136 -0.81162,0.22136zM232.49317,273.61589l1.15596,-2.53325h11.51034l1.18055,2.53326zM257.00942,278.65781c-0.40992,0 -0.76242,-0.14757 -1.05756,-0.44271c-0.29514,-0.29514 -0.44271,-0.65586 -0.44271,-1.08216v-6.83734l-7.84571,-12.19899c-0.24595,-0.40992 -0.34433,-0.79523 -0.29514,-1.15594c0.06559,-0.36073 0.23775,-0.65587 0.5165,-0.88541c0.27873,-0.22955 0.60667,-0.34433 0.98379,-0.34433c0.32792,0 0.59028,0.07379 0.78704,0.22136c0.19676,0.14757 0.38531,0.36073 0.56569,0.63947l7.45221,11.83008h-1.18055l7.59979,-11.95305c0.14757,-0.22955 0.32792,-0.40992 0.54108,-0.54108c0.21316,-0.13117 0.4755,-0.19676 0.78704,-0.19676c0.36073,0 0.65586,0.12298 0.88541,0.36893c0.24595,0.24595 0.38532,0.55748 0.41812,0.9346c0.03279,0.36073 -0.06559,0.72144 -0.29514,1.08217l-7.8949,12.19899v6.83734c0,0.4263 -0.14756,0.78703 -0.4427,1.08217c-0.29514,0.29514 -0.65587,0.4427 -1.08217,0.4427zM271.32309,278.65781c-0.4263,0 -0.78703,-0.14757 -1.08217,-0.44271c-0.29514,-0.29514 -0.44271,-0.65586 -0.44271,-1.08216v-19.87255c0,-0.45911 0.14757,-0.82802 0.44271,-1.10676c0.29514,-0.29514 0.65587,-0.4427 1.08217,-0.4427h13.28116c0.45911,0 0.81982,0.13937 1.08217,0.41812c0.27873,0.26235 0.41812,0.60668 0.41812,1.03298c0,0.40992 -0.13937,0.74604 -0.4181,1.00839c-0.26235,0.24595 -0.62306,0.36893 -1.08217,0.36893h-11.73168v7.13248h8.4114c0.45911,0 0.81981,0.13117 1.08216,0.39352c0.27873,0.26235 0.41812,0.60668 0.41812,1.03298c0,0.40992 -0.13937,0.74604 -0.4181,1.00839c-0.26235,0.26235 -0.62306,0.39352 -1.08217,0.39352h-8.4114v7.32923h11.7317c0.45911,0 0.81981,0.13117 1.08216,0.39352c0.27873,0.24595 0.41812,0.57387 0.41812,0.98379c0,0.4427 -0.13937,0.79523 -0.4181,1.05758c-0.26235,0.26235 -0.62306,0.39352 -1.08217,0.39352zM291.8794,278.65781c-0.4263,0 -0.78703,-0.14757 -1.08216,-0.44271c-0.29514,-0.29514 -0.44271,-0.65586 -0.44271,-1.08216v-19.87255c0,-0.45911 0.14757,-0.82802 0.44271,-1.10676c0.29514,-0.29514 0.65586,-0.4427 1.08216,-0.4427h5.28788c1.47569,0 2.77921,0.31154 3.91057,0.9346c1.13136,0.62306 2.01678,1.47569 2.65624,2.55785c0.63946,1.06577 0.9592,2.3119 0.9592,3.7384c0,1.32812 -0.31973,2.51686 -0.95919,3.56624c-0.63946,1.03298 -1.52487,1.84461 -2.65623,2.43489c-1.13136,0.59027 -2.43487,0.88541 -3.91056,0.88541h-3.7384v7.30465c0,0.4263 -0.14756,0.78703 -0.4427,1.08217c-0.27873,0.29514 -0.64766,0.4427 -1.10676,0.4427zM304.07838,278.65781c-0.27873,0 -0.53288,-0.05739 -0.76243,-0.17216c-0.21316,-0.11478 -0.40172,-0.30334 -0.56567,-0.56567l-5.28786,-8.50978l2.97597,-0.86081l4.82057,7.74735c0.34433,0.57387 0.38532,1.11495 0.12298,1.62325c-0.24595,0.4919 -0.68045,0.73784 -1.30351,0.73784zM293.42886,266.9999h3.7384c0.90181,0 1.69704,-0.17216 2.38569,-0.51648c0.68865,-0.34433 1.22974,-0.81981 1.62325,-1.42649c0.39352,-0.62306 0.59027,-1.32812 0.59027,-2.11515c0,-0.85262 -0.19676,-1.61505 -0.59027,-2.2873c-0.39352,-0.67225 -0.9346,-1.18875 -1.62325,-1.54946c-0.68865,-0.37712 -1.48388,-0.56567 -2.38568,-0.56567h-3.7384z" fill="#8b4fff" stroke="#28123b" stroke-width="2.5"/><path d="M178.69239,278.65781c-0.39352,0 -0.73784,-0.14757 -1.03298,-0.44271c-0.29514,-0.29514 -0.44271,-0.64766 -0.44271,-1.05756v-17.90497l-2.13973,0.91001c-0.32792,0.13117 -0.63946,0.19676 -0.9346,0.19676c-0.4427,0 -0.80344,-0.13117 -1.08217,-0.39352c-0.27873,-0.27873 -0.4181,-0.63947 -0.4181,-1.08217c0,-0.31154 0.07379,-0.59027 0.22136,-0.83622c0.16397,-0.26235 0.40991,-0.45091 0.73784,-0.56567l4.57463,-1.64784c0.09838,-0.03279 0.19675,-0.05739 0.29513,-0.07377c0.09838,-0.03279 0.18856,-0.04919 0.27055,-0.04919c0.45911,0 0.81982,0.14757 1.08217,0.44271c0.26235,0.27873 0.39352,0.64766 0.39352,1.10677v19.89715c0,0.40992 -0.14757,0.76244 -0.44271,1.05758c-0.29514,0.29514 -0.65586,0.44271 -1.08216,0.44271zM196.20591,278.65781c-0.4263,0 -0.78703,-0.14757 -1.08217,-0.44271c-0.29514,-0.29514 -0.4427,-0.65586 -0.4427,-1.08216v-19.87255c0,-0.45911 0.14756,-0.82802 0.4427,-1.10676c0.29514,-0.29514 0.65587,-0.4427 1.08217,-0.4427h5.87815c1.47569,0 2.77921,0.32792 3.91057,0.98379c1.13136,0.63946 2.01677,1.53308 2.65623,2.68084c0.63946,1.14776 0.9592,2.46768 0.9592,3.95976c0,1.4265 -0.31973,2.69722 -0.95919,3.81219c-0.63946,1.11496 -1.52487,1.98398 -2.65623,2.60704c-1.13136,0.62306 -2.43487,0.9346 -3.91056,0.9346h-4.32867v6.44382c0,0.4263 -0.14756,0.78703 -0.4427,1.08217c-0.27873,0.29514 -0.64766,0.4427 -1.10676,0.4427zM197.7554,267.88531h4.32867c0.90181,0 1.69704,-0.19676 2.3857,-0.59028c0.68865,-0.39352 1.22973,-0.9346 1.62325,-1.62325c0.39352,-0.68865 0.59028,-1.46749 0.59028,-2.3365c0,-0.951 -0.19676,-1.77902 -0.59028,-2.48406c-0.39352,-0.72144 -0.9346,-1.28713 -1.62325,-1.69703c-0.68865,-0.40992 -1.48389,-0.61486 -2.38568,-0.61486h-4.32867zM214.47641,278.65781c-0.4263,0 -0.78703,-0.14757 -1.08217,-0.44271c-0.27873,-0.29514 -0.4181,-0.65586 -0.4181,-1.08216v-19.87255c0,-0.4427 0.14757,-0.81162 0.44271,-1.10676c0.29514,-0.29514 0.64766,-0.4427 1.05758,-0.4427c0.4427,0 0.80344,0.14756 1.08217,0.4427c0.29514,0.29514 0.44271,0.66407 0.44271,1.10677v18.34768h10.64951c0.4263,0 0.78703,0.14756 1.08217,0.4427c0.29514,0.29514 0.4427,0.65587 0.4427,1.08217c0,0.4263 -0.14756,0.78703 -0.4427,1.08217c-0.29514,0.29514 -0.65587,0.4427 -1.08217,0.4427zM230.91911,278.65781c-0.54108,0 -0.95919,-0.22955 -1.25433,-0.68865c-0.29514,-0.47549 -0.32792,-0.98379 -0.09838,-1.52487l8.26383,-19.70038c0.29514,-0.68865 0.77063,-1.03298 1.42649,-1.03298c0.70505,0 1.18875,0.34432 1.4511,1.03298l8.28843,19.77418c0.21316,0.54108 0.17217,1.03298 -0.12297,1.47568c-0.27873,0.4427 -0.69685,0.66407 -1.25432,0.66407c-0.29514,0 -0.58208,-0.08198 -0.86081,-0.24595c-0.26235,-0.16397 -0.45091,-0.39352 -0.56567,-0.68865l-7.28004,-18.10173h0.83622l-7.40301,18.10173c-0.14757,0.31154 -0.35252,0.54929 -0.61486,0.71326c-0.26235,0.14757 -0.53288,0.22136 -0.81162,0.22136zM232.49317,273.61589l1.15596,-2.53325h11.51034l1.18055,2.53326zM257.00942,278.65781c-0.40992,0 -0.76242,-0.14757 -1.05756,-0.44271c-0.29514,-0.29514 -0.44271,-0.65586 -0.44271,-1.08216v-6.83734l-7.84571,-12.19899c-0.24595,-0.40992 -0.34433,-0.79523 -0.29514,-1.15594c0.06559,-0.36073 0.23775,-0.65587 0.5165,-0.88541c0.27873,-0.22955 0.60667,-0.34433 0.98379,-0.34433c0.32792,0 0.59028,0.07379 0.78704,0.22136c0.19676,0.14757 0.38531,0.36073 0.56569,0.63947l7.45221,11.83008h-1.18055l7.59979,-11.95305c0.14757,-0.22955 0.32792,-0.40992 0.54108,-0.54108c0.21316,-0.13117 0.4755,-0.19676 0.78704,-0.19676c0.36073,0 0.65586,0.12298 0.88541,0.36893c0.24595,0.24595 0.38532,0.55748 0.41812,0.9346c0.03279,0.36073 -0.06559,0.72144 -0.29514,1.08217l-7.8949,12.19899v6.83734c0,0.4263 -0.14756,0.78703 -0.4427,1.08217c-0.29514,0.29514 -0.65587,0.4427 -1.08217,0.4427zM271.32309,278.65781c-0.4263,0 -0.78703,-0.14757 -1.08217,-0.44271c-0.29514,-0.29514 -0.44271,-0.65586 -0.44271,-1.08216v-19.87255c0,-0.45911 0.14757,-0.82802 0.44271,-1.10676c0.29514,-0.29514 0.65587,-0.4427 1.08217,-0.4427h13.28116c0.45911,0 0.81982,0.13937 1.08217,0.41812c0.27873,0.26235 0.41812,0.60668 0.41812,1.03298c0,0.40992 -0.13937,0.74604 -0.4181,1.00839c-0.26235,0.24595 -0.62306,0.36893 -1.08217,0.36893h-11.73168v7.13248h8.4114c0.45911,0 0.81981,0.13117 1.08216,0.39352c0.27873,0.26235 0.41812,0.60668 0.41812,1.03298c0,0.40992 -0.13937,0.74604 -0.4181,1.00839c-0.26235,0.26235 -0.62306,0.39352 -1.08217,0.39352h-8.4114v7.32923h11.7317c0.45911,0 0.81981,0.13117 1.08216,0.39352c0.27873,0.24595 0.41812,0.57387 0.41812,0.98379c0,0.4427 -0.13937,0.79523 -0.4181,1.05758c-0.26235,0.26235 -0.62306,0.39352 -1.08217,0.39352zM291.8794,278.65781c-0.4263,0 -0.78703,-0.14757 -1.08216,-0.44271c-0.29514,-0.29514 -0.44271,-0.65586 -0.44271,-1.08216v-19.87255c0,-0.45911 0.14757,-0.82802 0.44271,-1.10676c0.29514,-0.29514 0.65586,-0.4427 1.08216,-0.4427h5.28788c1.47569,0 2.77921,0.31154 3.91057,0.9346c1.13136,0.62306 2.01678,1.47569 2.65624,2.55785c0.63946,1.06577 0.9592,2.3119 0.9592,3.7384c0,1.32812 -0.31973,2.51686 -0.95919,3.56624c-0.63946,1.03298 -1.52487,1.84461 -2.65623,2.43489c-1.13136,0.59027 -2.43487,0.88541 -3.91056,0.88541h-3.7384v7.30465c0,0.4263 -0.14756,0.78703 -0.4427,1.08217c-0.27873,0.29514 -0.64766,0.4427 -1.10676,0.4427zM304.07838,278.65781c-0.27873,0 -0.53288,-0.05739 -0.76243,-0.17216c-0.21316,-0.11478 -0.40172,-0.30334 -0.56567,-0.56567l-5.28786,-8.50978l2.97597,-0.86081l4.82057,7.74735c0.34433,0.57387 0.38532,1.11495 0.12298,1.62325c-0.24595,0.4919 -0.68045,0.73784 -1.30351,0.73784zM293.42886,266.9999h3.7384c0.90181,0 1.69704,-0.17216 2.38569,-0.51648c0.68865,-0.34433 1.22974,-0.81981 1.62325,-1.42649c0.39352,-0.62306 0.59027,-1.32812 0.59027,-2.11515c0,-0.85262 -0.19676,-1.61505 -0.59027,-2.2873c-0.39352,-0.67225 -0.9346,-1.18875 -1.62325,-1.54946c-0.68865,-0.37712 -1.48388,-0.56567 -2.38568,-0.56567h-3.7384z" fill="#a97fff" stroke="#8b4fff" stroke-width="0"/></g></g></g></svg>