<svg version="1.1" xmlns="http://www.w3.org/2000/svg" xmlns:xlink="http://www.w3.org/1999/xlink" width="137.77422" height="119.96077" viewBox="0,0,137.77422,119.96077"><defs><linearGradient x1="-118.66754" y1="-1015.04701" x2="-83.88442" y2="695.21506" gradientUnits="userSpaceOnUse" id="color-1"><stop offset="0" stop-color="#000000"/><stop offset="1" stop-color="#000000" stop-opacity="0"/></linearGradient><linearGradient x1="240.128" y1="134.23559" x2="240.128" y2="147.39257" gradientUnits="userSpaceOnUse" id="color-2"><stop offset="0" stop-color="#000000"/><stop offset="1" stop-color="#000000" stop-opacity="0"/></linearGradient><linearGradient x1="240.128" y1="134.23559" x2="240.128" y2="147.39257" gradientUnits="userSpaceOnUse" id="color-3"><stop offset="0" stop-color="#000000"/><stop offset="1" stop-color="#000000" stop-opacity="0"/></linearGradient><linearGradient x1="177.40397" y1="140.81408" x2="177.40397" y2="242.04724" gradientUnits="userSpaceOnUse" id="color-4"><stop offset="0" stop-color="#000000"/><stop offset="1" stop-color="#000000" stop-opacity="0"/></linearGradient><linearGradient x1="177.40397" y1="140.81408" x2="177.40397" y2="242.04724" gradientUnits="userSpaceOnUse" id="color-5"><stop offset="0" stop-color="#000000"/><stop offset="1" stop-color="#000000" stop-opacity="0"/></linearGradient><linearGradient x1="239.8242" y1="236.48504" x2="239.8242" y2="249.64202" gradientUnits="userSpaceOnUse" id="color-6"><stop offset="0" stop-color="#000000"/><stop offset="1" stop-color="#000000" stop-opacity="0"/></linearGradient><linearGradient x1="239.8242" y1="236.48504" x2="239.8242" y2="249.64202" gradientUnits="userSpaceOnUse" id="color-7"><stop offset="0" stop-color="#000000"/><stop offset="1" stop-color="#000000" stop-opacity="0"/></linearGradient><linearGradient x1="302.54828" y1="141.83038" x2="302.54828" y2="243.06353" gradientUnits="userSpaceOnUse" id="color-8"><stop offset="0" stop-color="#000000"/><stop offset="1" stop-color="#000000" stop-opacity="0"/></linearGradient><linearGradient x1="302.54828" y1="141.83038" x2="302.54828" y2="243.06353" gradientUnits="userSpaceOnUse" id="color-9"><stop offset="0" stop-color="#000000"/><stop offset="1" stop-color="#000000" stop-opacity="0"/></linearGradient><linearGradient x1="239.96649" y1="164.74689" x2="239.96649" y2="220.48311" gradientUnits="userSpaceOnUse" id="color-10"><stop offset="0" stop-color="#000000"/><stop offset="1" stop-color="#000000" stop-opacity="0"/></linearGradient><linearGradient x1="239.96649" y1="164.74689" x2="239.96649" y2="220.48311" gradientUnits="userSpaceOnUse" id="color-11"><stop offset="0" stop-color="#000000"/><stop offset="1" stop-color="#000000" stop-opacity="0"/></linearGradient></defs><g transform="translate(-171.15397,-129.35276)"><g data-paper-data="{&quot;isPaintingLayer&quot;:true}" fill-rule="nonzero" stroke-linejoin="miter" stroke-miterlimit="10" stroke-dasharray="" stroke-dashoffset="0" style="mix-blend-mode: normal"><path d="M178.29088,236.11065l-0.96904,-98.60731l124.65311,-2.09515l0.63183,98.7816z" fill="url(#color-1)" stroke="none" stroke-width="0" stroke-linecap="butt"/><g stroke-linecap="round"><g stroke-width="12.5"><path d="M301.95849,140.81408h-123.66096" fill="url(#color-2)" stroke="url(#color-3)"/><path d="M177.40397,242.04724v-101.23316" fill="url(#color-4)" stroke="url(#color-5)"/><path d="M177.99373,243.06353h123.66095" data-paper-data="{&quot;index&quot;:null}" fill="url(#color-6)" stroke="url(#color-7)"/><path d="M302.54828,243.06353v-101.23314" data-paper-data="{&quot;index&quot;:null}" fill="url(#color-8)" stroke="url(#color-9)"/></g><g fill="none" stroke="#28123b" stroke-width="12.5"><path d="M178.42746,136.00852h123.66096"/><path d="M177.5339,237.24167v-101.23315"/><path d="M301.78461,238.25797h-123.66095" data-paper-data="{&quot;index&quot;:null}"/><path d="M302.67819,238.25797v-101.23315" data-paper-data="{&quot;index&quot;:null}"/></g><g fill="none" stroke="#8b4fff" stroke-width="4.5"><path d="M178.42746,136.00852h123.66096"/><path d="M177.5339,237.24167v-101.23315"/><path d="M301.78461,238.25797h-123.66095" data-paper-data="{&quot;index&quot;:null}"/><path d="M302.67819,238.25797v-101.23315" data-paper-data="{&quot;index&quot;:null}"/></g></g><g fill="none" stroke-linecap="round"><g stroke="#28123b" stroke-width="12.5"><path d="M301.98245,135.60276h-123.66096"/><path d="M177.42788,235.91759v-100.31483"/><path d="M178.01769,236.92465h123.66096" data-paper-data="{&quot;index&quot;:null}"/><path d="M302.57219,236.92465v-100.31482" data-paper-data="{&quot;index&quot;:null}"/></g><g stroke="#8b4fff" stroke-width="4.5"><path d="M301.98245,135.60276h-123.66096"/><path d="M177.42788,235.91759v-100.31483"/><path d="M178.01769,236.92465h123.66096" data-paper-data="{&quot;index&quot;:null}"/><path d="M302.57219,236.92465v-100.31482" data-paper-data="{&quot;index&quot;:null}"/></g></g><path d="M239.99558,207.54425c-1.0148,0 -1.87349,-0.33176 -2.57605,-0.99527c-0.66352,-0.70256 -0.99527,-1.56125 -0.99527,-2.57605c0,-1.79543 0.46838,-3.76651 1.40511,-5.91319c0.93674,-2.18572 2.38092,-4.11779 4.33246,-5.7961c1.32707,-1.13189 2.537,-2.24429 3.62989,-3.33714c1.09288,-1.09288 1.97107,-2.34185 2.63461,-3.74697c0.66352,-1.44415 0.99531,-3.20056 0.99531,-5.26919c0,-1.48317 -0.35128,-2.86877 -1.05384,-4.15679c-0.66352,-1.32707 -1.6393,-2.38091 -2.92733,-3.16152c-1.28802,-0.81966 -2.86877,-1.22946 -4.74226,-1.22946c-2.26381,0 -4.15679,0.42932 -5.679,1.28802c-1.48317,0.81966 -2.59557,1.97107 -3.33714,3.45427c-0.70256,1.48317 -1.05384,3.22009 -1.05384,5.21067c0,1.05384 -0.33176,1.91253 -0.99527,2.57605c-0.62451,0.66352 -1.48316,0.99531 -2.57605,0.99531c-1.0148,0 -1.87349,-0.33176 -2.57605,-0.99527c-0.66352,-0.66352 -0.99527,-1.52221 -0.99527,-2.57605c0,-3.23956 0.70255,-6.08885 2.10768,-8.5478c1.44415,-2.498 3.45427,-4.44953 6.03033,-5.85466c2.61509,-1.44415 5.63999,-2.1662 9.07474,-2.1662c3.04442,0 5.73757,0.64404 8.07943,1.93205c2.34186,1.28802 4.19583,3.06395 5.56194,5.32776c1.40512,2.26381 2.10768,4.89839 2.10768,7.9038c0,2.61509 -0.42933,4.87888 -1.28802,6.79141c-0.81965,1.91253 -1.95155,3.62989 -3.3957,5.1521c-1.44416,1.52221 -3.10295,3.0249 -4.97644,4.50811c-1.20998,0.97579 -2.04911,2.24429 -2.51748,3.80554c-0.46838,1.56125 -0.70256,2.82976 -0.70256,3.80555c0,1.0148 -0.33176,1.87349 -0.99527,2.57605c-0.62451,0.66352 -1.48316,0.99531 -2.57605,0.99531zM239.99558,220.48303c-1.28802,0 -2.41992,-0.46838 -3.3957,-1.40512c-0.93674,-0.97579 -1.40512,-2.10768 -1.40512,-3.39569c0,-1.36608 0.46838,-2.51749 1.40512,-3.45423c0.97579,-0.97579 2.10768,-1.46365 3.3957,-1.46365c1.36608,0 2.51753,0.4879 3.45427,1.46369c0.97579,0.93674 1.46369,2.08816 1.46369,3.45426c0,1.28802 -0.4879,2.41992 -1.46365,3.3957c-0.93674,0.93674 -2.08816,1.40512 -3.45423,1.40512z" fill="url(#color-10)" stroke="url(#color-11)" stroke-width="9.5" stroke-linecap="square"/><path d="M239.99559,201.54425c-1.0148,0 -1.87349,-0.33176 -2.57605,-0.99527c-0.66352,-0.70256 -0.99527,-1.56125 -0.99527,-2.57605c0,-1.79543 0.46838,-3.76651 1.40511,-5.91319c0.93674,-2.18572 2.38092,-4.11779 4.33246,-5.7961c1.32707,-1.13189 2.537,-2.24429 3.62989,-3.33714c1.09288,-1.09288 1.97107,-2.34185 2.63461,-3.74697c0.66352,-1.44415 0.99531,-3.20056 0.99531,-5.26919c0,-1.48317 -0.35128,-2.86877 -1.05384,-4.15679c-0.66352,-1.32707 -1.6393,-2.38091 -2.92733,-3.16152c-1.28802,-0.81966 -2.86877,-1.22946 -4.74226,-1.22946c-2.26381,0 -4.15679,0.42932 -5.679,1.28802c-1.48317,0.81966 -2.59557,1.97107 -3.33714,3.45427c-0.70256,1.48317 -1.05384,3.22009 -1.05384,5.21067c0,1.05384 -0.33176,1.91253 -0.99527,2.57605c-0.62451,0.66352 -1.48316,0.99531 -2.57605,0.99531c-1.0148,0 -1.87349,-0.33176 -2.57605,-0.99527c-0.66352,-0.66352 -0.99527,-1.52221 -0.99527,-2.57605c0,-3.23956 0.70255,-6.08885 2.10768,-8.5478c1.44415,-2.498 3.45427,-4.44953 6.03033,-5.85466c2.61509,-1.44415 5.63999,-2.1662 9.07474,-2.1662c3.04442,0 5.73757,0.64404 8.07943,1.93205c2.34186,1.28802 4.19584,3.06395 5.56195,5.32776c1.40512,2.26381 2.10767,4.89839 2.10767,7.9038c0,2.61509 -0.42932,4.87888 -1.28802,6.79141c-0.81965,1.91253 -1.95154,3.62989 -3.3957,5.1521c-1.44415,1.52221 -3.10294,3.0249 -4.97644,4.50811c-1.20998,0.97579 -2.04911,2.24429 -2.51748,3.80554c-0.46838,1.56125 -0.70256,2.82976 -0.70256,3.80555c0,1.0148 -0.33176,1.87349 -0.99527,2.57605c-0.62451,0.66352 -1.48316,0.99531 -2.57605,0.99531zM239.99559,214.48303c-1.28802,0 -2.41992,-0.46838 -3.3957,-1.40512c-0.93674,-0.97579 -1.40512,-2.10768 -1.40512,-3.39569c0,-1.36608 0.46838,-2.51749 1.40512,-3.45423c0.97579,-0.97579 2.10768,-1.46365 3.3957,-1.46365c1.36608,0 2.51753,0.4879 3.45427,1.46369c0.97579,0.93674 1.46369,2.08816 1.46369,3.45426c0,1.28802 -0.4879,2.41992 -1.46365,3.3957c-0.93674,0.93674 -2.08816,1.40512 -3.45423,1.40512z" fill="#8b4fff" stroke="#28123b" stroke-width="9.5" stroke-linecap="square"/><path d="M239.99559,200.87758c-1.0148,0 -1.87349,-0.33176 -2.57605,-0.99527c-0.66352,-0.70256 -0.99527,-1.56125 -0.99527,-2.57605c0,-1.79544 0.46838,-3.76651 1.40512,-5.91319c0.93674,-2.18572 2.38091,-4.11779 4.33245,-5.7961c1.32707,-1.13189 2.537,-2.24429 3.62989,-3.33714c1.09288,-1.09288 1.97106,-2.34186 2.63461,-3.74698c0.66352,-1.44416 0.99531,-3.20056 0.99531,-5.26919c0,-1.48317 -0.35128,-2.86876 -1.05384,-4.15679c-0.66352,-1.32707 -1.6393,-2.38091 -2.92733,-3.16152c-1.28802,-0.81966 -2.86876,-1.22946 -4.74226,-1.22946c-2.26381,0 -4.15679,0.42933 -5.679,1.28802c-1.48317,0.81966 -2.59557,1.97106 -3.33714,3.45427c-0.70256,1.48317 -1.05384,3.22009 -1.05384,5.21067c0,1.05384 -0.33176,1.91253 -0.99527,2.57605c-0.62451,0.66352 -1.48317,0.99531 -2.57605,0.99531c-1.0148,0 -1.87349,-0.33176 -2.57605,-0.99527c-0.66352,-0.66352 -0.99527,-1.52221 -0.99527,-2.57605c0,-3.23956 0.70256,-6.08885 2.10768,-8.54781c1.44416,-2.498 3.45427,-4.44954 6.03032,-5.85466c2.61509,-1.44416 5.63999,-2.1662 9.07474,-2.1662c3.04442,0 5.73757,0.64403 8.07943,1.93205c2.34186,1.28802 4.19584,3.06395 5.56195,5.32776c1.40512,2.26381 2.10768,4.89839 2.10768,7.90381c0,2.61509 -0.42933,4.87887 -1.28802,6.79141c-0.81966,1.91253 -1.95154,3.62989 -3.3957,5.1521c-1.44416,1.52221 -3.10295,3.0249 -4.97644,4.50811c-1.20997,0.97579 -2.04911,2.24429 -2.51748,3.80555c-0.46838,1.56125 -0.70256,2.82976 -0.70256,3.80555c0,1.0148 -0.33176,1.87349 -0.99527,2.57605c-0.62451,0.66352 -1.48317,0.99531 -2.57605,0.99531zM239.99559,213.81636c-1.28802,0 -2.41992,-0.46838 -3.3957,-1.40512c-0.93674,-0.97579 -1.40512,-2.10768 -1.40512,-3.3957c0,-1.36608 0.46838,-2.51748 1.40512,-3.45423c0.97579,-0.97579 2.10768,-1.46365 3.3957,-1.46365c1.36608,0 2.51753,0.4879 3.45427,1.46369c0.97579,0.93674 1.46369,2.08816 1.46369,3.45427c0,1.28802 -0.4879,2.41992 -1.46365,3.3957c-0.93674,0.93674 -2.08816,1.40512 -3.45423,1.40512z" fill="#8b4fff" stroke="#9966ff" stroke-width="0" stroke-linecap="square"/></g></g></svg>