<svg version="1.1" xmlns="http://www.w3.org/2000/svg" xmlns:xlink="http://www.w3.org/1999/xlink" width="141.8684" height="153.83595" viewBox="0,0,141.8684,153.83595"><defs><linearGradient x1="-118.66754" y1="-1015.04701" x2="-83.88442" y2="695.21506" gradientUnits="userSpaceOnUse" id="color-1"><stop offset="0" stop-color="#000000"/><stop offset="1" stop-color="#000000" stop-opacity="0"/></linearGradient><linearGradient x1="240.128" y1="134.23559" x2="240.128" y2="147.39257" gradientUnits="userSpaceOnUse" id="color-2"><stop offset="0" stop-color="#000000"/><stop offset="1" stop-color="#000000" stop-opacity="0"/></linearGradient><linearGradient x1="240.128" y1="134.23559" x2="240.128" y2="147.39257" gradientUnits="userSpaceOnUse" id="color-3"><stop offset="0" stop-color="#000000"/><stop offset="1" stop-color="#000000" stop-opacity="0"/></linearGradient><linearGradient x1="177.40397" y1="140.81408" x2="177.40397" y2="242.04724" gradientUnits="userSpaceOnUse" id="color-4"><stop offset="0" stop-color="#000000"/><stop offset="1" stop-color="#000000" stop-opacity="0"/></linearGradient><linearGradient x1="177.40397" y1="140.81408" x2="177.40397" y2="242.04724" gradientUnits="userSpaceOnUse" id="color-5"><stop offset="0" stop-color="#000000"/><stop offset="1" stop-color="#000000" stop-opacity="0"/></linearGradient><linearGradient x1="239.8242" y1="236.48504" x2="239.8242" y2="249.64202" gradientUnits="userSpaceOnUse" id="color-6"><stop offset="0" stop-color="#000000"/><stop offset="1" stop-color="#000000" stop-opacity="0"/></linearGradient><linearGradient x1="239.8242" y1="236.48504" x2="239.8242" y2="249.64202" gradientUnits="userSpaceOnUse" id="color-7"><stop offset="0" stop-color="#000000"/><stop offset="1" stop-color="#000000" stop-opacity="0"/></linearGradient><linearGradient x1="302.54828" y1="141.83038" x2="302.54828" y2="243.06353" gradientUnits="userSpaceOnUse" id="color-8"><stop offset="0" stop-color="#000000"/><stop offset="1" stop-color="#000000" stop-opacity="0"/></linearGradient><linearGradient x1="302.54828" y1="141.83038" x2="302.54828" y2="243.06353" gradientUnits="userSpaceOnUse" id="color-9"><stop offset="0" stop-color="#000000"/><stop offset="1" stop-color="#000000" stop-opacity="0"/></linearGradient><linearGradient x1="243.71181" y1="259.2048" x2="243.71181" y2="282.27203" gradientUnits="userSpaceOnUse" id="color-10"><stop offset="0" stop-color="#000000"/><stop offset="1" stop-color="#000000" stop-opacity="0"/></linearGradient><linearGradient x1="243.71181" y1="259.2048" x2="243.71181" y2="282.27203" gradientUnits="userSpaceOnUse" id="color-11"><stop offset="0" stop-color="#000000"/><stop offset="1" stop-color="#000000" stop-opacity="0"/></linearGradient><linearGradient x1="243.71181" y1="259.2048" x2="243.71181" y2="282.27203" gradientUnits="userSpaceOnUse" id="color-12"><stop offset="0" stop-color="#000000"/><stop offset="1" stop-color="#000000" stop-opacity="0"/></linearGradient><linearGradient x1="243.71181" y1="259.2048" x2="243.71181" y2="282.27203" gradientUnits="userSpaceOnUse" id="color-13"><stop offset="0" stop-color="#000000"/><stop offset="1" stop-color="#000000" stop-opacity="0"/></linearGradient><linearGradient x1="243.71181" y1="259.2048" x2="243.71181" y2="282.27203" gradientUnits="userSpaceOnUse" id="color-14"><stop offset="0" stop-color="#000000"/><stop offset="1" stop-color="#000000" stop-opacity="0"/></linearGradient><linearGradient x1="243.71181" y1="259.2048" x2="243.71181" y2="282.27203" gradientUnits="userSpaceOnUse" id="color-15"><stop offset="0" stop-color="#000000"/><stop offset="1" stop-color="#000000" stop-opacity="0"/></linearGradient><linearGradient x1="243.71181" y1="259.2048" x2="243.71181" y2="282.27203" gradientUnits="userSpaceOnUse" id="color-16"><stop offset="0" stop-color="#000000"/><stop offset="1" stop-color="#000000" stop-opacity="0"/></linearGradient><linearGradient x1="243.71181" y1="259.2048" x2="243.71181" y2="282.27203" gradientUnits="userSpaceOnUse" id="color-17"><stop offset="0" stop-color="#000000"/><stop offset="1" stop-color="#000000" stop-opacity="0"/></linearGradient><linearGradient x1="243.71181" y1="259.2048" x2="243.71181" y2="282.27203" gradientUnits="userSpaceOnUse" id="color-18"><stop offset="0" stop-color="#000000"/><stop offset="1" stop-color="#000000" stop-opacity="0"/></linearGradient><linearGradient x1="243.71181" y1="259.2048" x2="243.71181" y2="282.27203" gradientUnits="userSpaceOnUse" id="color-19"><stop offset="0" stop-color="#000000"/><stop offset="1" stop-color="#000000" stop-opacity="0"/></linearGradient><linearGradient x1="243.71181" y1="259.2048" x2="243.71181" y2="282.27203" gradientUnits="userSpaceOnUse" id="color-20"><stop offset="0" stop-color="#000000"/><stop offset="1" stop-color="#000000" stop-opacity="0"/></linearGradient><linearGradient x1="243.71181" y1="259.2048" x2="243.71181" y2="282.27203" gradientUnits="userSpaceOnUse" id="color-21"><stop offset="0" stop-color="#000000"/><stop offset="1" stop-color="#000000" stop-opacity="0"/></linearGradient><linearGradient x1="177.64608" y1="258.92754" x2="177.64608" y2="281.99476" gradientUnits="userSpaceOnUse" id="color-22"><stop offset="0" stop-color="#000000"/><stop offset="1" stop-color="#000000" stop-opacity="0"/></linearGradient><linearGradient x1="177.64608" y1="258.92754" x2="177.64608" y2="281.99476" gradientUnits="userSpaceOnUse" id="color-23"><stop offset="0" stop-color="#000000"/><stop offset="1" stop-color="#000000" stop-opacity="0"/></linearGradient></defs><g transform="translate(-169.42396,-129.68609)"><g data-paper-data="{&quot;isPaintingLayer&quot;:true}" fill-rule="nonzero" stroke-linejoin="miter" stroke-miterlimit="10" stroke-dasharray="" stroke-dashoffset="0" style="mix-blend-mode: normal"><path d="M178.29088,236.11065l-0.96904,-98.60731l124.65311,-2.09515l0.63183,98.7816z" fill="url(#color-1)" stroke="none" stroke-width="0" stroke-linecap="butt"/><g stroke-linecap="round"><g stroke-width="12.5"><path d="M301.95849,140.81408h-123.66096" fill="url(#color-2)" stroke="url(#color-3)"/><path d="M177.40397,242.04724v-101.23316" fill="url(#color-4)" stroke="url(#color-5)"/><path d="M301.65468,243.06353h-123.66095" data-paper-data="{&quot;index&quot;:null}" fill="url(#color-6)" stroke="url(#color-7)"/><path d="M302.54828,243.06353v-101.23314" data-paper-data="{&quot;index&quot;:null}" fill="url(#color-8)" stroke="url(#color-9)"/></g><g fill="none" stroke="#28123b" stroke-width="12.5"><path d="M302.08842,136.00852h-123.66096"/><path d="M177.5339,237.24167v-101.23315"/><path d="M301.78461,238.25797h-123.66095" data-paper-data="{&quot;index&quot;:null}"/><path d="M302.67819,238.25797v-101.23315" data-paper-data="{&quot;index&quot;:null}"/></g><g fill="none" stroke="#8b4fff" stroke-width="4.5"><path d="M302.08842,136.00852h-123.66096"/><path d="M177.5339,237.24167v-101.23315"/><path d="M301.78461,238.25797h-123.66095" data-paper-data="{&quot;index&quot;:null}"/><path d="M302.67819,238.25797v-101.23315" data-paper-data="{&quot;index&quot;:null}"/></g></g><g fill="none" stroke-linecap="round"><g stroke="#28123b" stroke-width="12.5"><path d="M193.19793,195.13679h29.90641"/><path d="M192.98178,195.13679v35.42015"/><path d="M223.24692,195.49238v35.42014" data-paper-data="{&quot;index&quot;:null}"/></g><g stroke-width="4.5"><path d="M193.19792,195.13679h29.90641" stroke="#4294ff"/><path d="M192.98178,195.13679v35.42015" stroke="#4aa2ff"/><path d="M216.13302,230.91253" data-paper-data="{&quot;index&quot;:null}" stroke="#8b4fff"/><path d="M223.24692,195.49238v35.42014" data-paper-data="{&quot;index&quot;:null}" stroke="#4294ff"/></g></g><g fill="none" stroke-linecap="round"><g stroke="#28123b" stroke-width="12.5"><path d="M202.29455,168.02762h12.03391"/><path d="M202.20761,179.34452v-11.3169"/><path d="M202.26499,179.45812h12.03391" data-paper-data="{&quot;index&quot;:null}"/><path d="M214.38588,168.14123v11.3169" data-paper-data="{&quot;index&quot;:null}"/></g><g stroke-width="4.5"><path d="M214.32848,168.02762h-12.03391" stroke="#4294ff"/><path d="M202.20761,179.34452v-11.3169" stroke="#4aa2ff"/><path d="M202.26499,179.45812h12.03391" data-paper-data="{&quot;index&quot;:null}" stroke="#4294ff"/><path d="M214.38588,168.14123v11.3169" data-paper-data="{&quot;index&quot;:null}" stroke="#4294ff"/></g></g><g fill="none" stroke-linecap="round"><g stroke="#28123b" stroke-width="12.5"><path d="M287.10429,195.47012h-29.90641"/><path d="M256.98179,195.47012v35.42015"/><path d="M287.24692,231.24585v-35.42014" data-paper-data="{&quot;index&quot;:null}"/></g><g stroke-width="4.5"><path d="M257.19791,195.47012h29.90641" stroke="#ff4f6d"/><path d="M256.98179,195.47012v35.42015" stroke="#ff6c85"/><path d="M280.13302,231.24586" data-paper-data="{&quot;index&quot;:null}" stroke="#8b4fff"/><path d="M287.24692,231.24585v-35.42014" data-paper-data="{&quot;index&quot;:null}" stroke="#ff4f6d"/></g></g><g fill="none" stroke="#28123b" stroke-width="12.5" stroke-linecap="round"><path d="M301.98245,135.93609h-123.66096"/><path d="M177.42788,236.25092v-100.31483"/><path d="M178.01769,237.25798h123.66096" data-paper-data="{&quot;index&quot;:null}"/><path d="M302.57219,237.25798v-100.31482" data-paper-data="{&quot;index&quot;:null}"/></g><g fill="none" stroke="#8b4fff" stroke-width="4.5" stroke-linecap="round"><path d="M301.98245,135.93609h-123.66096"/><path d="M177.42788,236.25092v-100.31483"/><path d="M178.01769,237.25798h123.66096" data-paper-data="{&quot;index&quot;:null}"/><path d="M302.57219,237.25798v-100.31482" data-paper-data="{&quot;index&quot;:null}"/></g><g fill="none" stroke-linecap="round"><g stroke="#28123b" stroke-width="12.5"><path d="M278.32845,168.36095h-12.03391"/><path d="M266.20757,179.67785v-11.3169"/><path d="M278.29889,179.79145h-12.03391" data-paper-data="{&quot;index&quot;:null}"/><path d="M278.38584,179.79146v-11.3169" data-paper-data="{&quot;index&quot;:null}"/></g><g stroke-width="4.5"><path d="M266.29454,168.36095h12.03391" stroke="#ff4f6d"/><path d="M266.20757,179.67785v-11.3169" stroke="#ff6c85"/><path d="M278.29889,179.79145h-12.03391" data-paper-data="{&quot;index&quot;:null}" stroke="#ff4f6d"/><path d="M278.38584,179.79146v-11.3169" data-paper-data="{&quot;index&quot;:null}" stroke="#ff4f6d"/></g></g><g stroke-linecap="butt"><path d="M296.77079,282.27197c-0.42854,0 -0.79116,-0.14834 -1.08784,-0.44503c-0.29669,-0.29669 -0.44503,-0.65931 -0.44503,-1.08784v-19.97672c0,-0.46152 0.14834,-0.83236 0.44503,-1.11255c0.29669,-0.29669 0.65931,-0.44502 1.08784,-0.44502h5.3156c1.48342,0 2.79378,0.31317 3.93107,0.9395c1.13729,0.62633 2.02734,1.48342 2.67016,2.57126c0.64281,1.07135 0.96423,2.32403 0.96423,3.75799c0,1.33508 -0.32139,2.53006 -0.96421,3.58494c-0.64281,1.03839 -1.53287,1.85428 -2.67016,2.44765c-0.09989,0.05212 -0.20111,0.10195 -0.30366,0.14948l4.50668,7.2429c0.34613,0.57688 0.38734,1.1208 0.12363,1.63177c-0.24724,0.49447 -0.68402,0.74171 -1.31035,0.74171l-0.00005,-0.00003c-0.2802,0 -0.53567,-0.05769 -0.76642,-0.17306c-0.21428,-0.11539 -0.40382,-0.30493 -0.56864,-0.56864l-5.06307,-8.14803c-0.18034,0.0093 -0.3634,0.01396 -0.54918,0.01396h-3.75799v7.34294c0,0.42854 -0.14834,0.79116 -0.44503,1.08784c-0.2802,0.29669 -0.65105,0.44502 -1.11255,0.44502zM298.32839,270.55295h3.758c0.90654,0 1.70593,-0.17306 2.3982,-0.51919c0.69227,-0.34613 1.23618,-0.82412 1.63176,-1.43397c0.39558,-0.62633 0.59337,-1.33508 0.59337,-2.12624c0,-0.85709 -0.19779,-1.62352 -0.59337,-2.29929c-0.39558,-0.67577 -0.9395,-1.19498 -1.63176,-1.55758c-0.69227,-0.37909 -1.49167,-0.56863 -2.39819,-0.56863h-3.75799z" fill="url(#color-10)" stroke="url(#color-11)" stroke-width="2.5"/><path d="M200.59578,282.27197c-0.42854,0 -0.79116,-0.14834 -1.08784,-0.44503c-0.29668,-0.29669 -0.44503,-0.65931 -0.44503,-1.08784v-19.97672c0,-0.46152 0.14835,-0.83236 0.44503,-1.11255c0.29668,-0.29669 0.6593,-0.44502 1.08784,-0.44502h5.90896c1.48342,0 2.79378,0.32964 3.93107,0.98895c1.13729,0.64281 2.02734,1.54111 2.67015,2.69488c0.64282,1.15377 0.96423,2.48062 0.96423,3.98052c0,1.43397 -0.3214,2.71136 -0.96421,3.83218c-0.64282,1.1208 -1.53287,1.99438 -2.67016,2.62071c-1.13729,0.62633 -2.44763,0.9395 -3.93105,0.9395h-4.35136v6.4776c0,0.42854 -0.14834,0.79116 -0.44503,1.08784c-0.2802,0.29669 -0.65105,0.44502 -1.11255,0.44502zM202.15338,271.443h4.35136c0.90654,0 1.70594,-0.19779 2.3982,-0.59337c0.69226,-0.39558 1.23619,-0.9395 1.63177,-1.63176c0.39558,-0.69227 0.59337,-1.47517 0.59337,-2.34874c0,-0.95598 -0.19779,-1.78834 -0.59337,-2.49708c-0.39558,-0.72522 -0.9395,-1.29388 -1.63177,-1.70593c-0.69226,-0.41206 -1.49166,-0.61808 -2.39818,-0.61808h-4.35137z" fill="url(#color-12)" stroke="url(#color-13)" stroke-width="2.5"/><path d="M235.49096,282.27197c-0.54392,0 -0.96421,-0.23075 -1.26089,-0.69226c-0.29669,-0.47798 -0.32965,-0.98895 -0.0989,-1.53287l8.30715,-19.80365c0.29668,-0.69227 0.77467,-1.03839 1.43397,-1.03839c0.70875,0 1.19498,0.34612 1.4587,1.03839l8.33189,19.87783c0.21428,0.54392 0.17308,1.03839 -0.12361,1.48342c-0.2802,0.44502 -0.70051,0.66755 -1.2609,0.66755c-0.29668,0 -0.58512,-0.0824 -0.86532,-0.24723c-0.26372,-0.16483 -0.45327,-0.39558 -0.56863,-0.69226l-1.66052,-4.12885l-10.57033,-0.00001l-1.68856,4.12886c-0.14834,0.31317 -0.35438,0.55217 -0.61809,0.71699c-0.26372,0.14834 -0.53567,0.22252 -0.81588,0.22252zM248.15974,274.6571l-4.21676,-10.48491l-4.28797,10.48491z" fill="url(#color-14)" stroke="url(#color-15)" stroke-width="2.5"/><path d="M276.10672,282.27197c-0.42854,0 -0.79115,-0.14834 -1.08784,-0.44503c-0.29669,-0.29669 -0.44502,-0.65931 -0.44502,-1.08784v-19.97672c0,-0.46152 0.14834,-0.83236 0.44502,-1.11255c0.29669,-0.29669 0.6593,-0.44502 1.08784,-0.44502h13.35079c0.46151,0 0.82412,0.14009 1.08784,0.42031c0.2802,0.26372 0.42031,0.60986 0.42031,1.03839c0,0.41206 -0.1401,0.74996 -0.4203,1.01368c-0.26372,0.24723 -0.62633,0.37087 -1.08785,0.37087h-11.79318v7.16986h8.4555c0.46151,0 0.82412,0.13186 1.08785,0.39558c0.2802,0.26372 0.42031,0.60985 0.42031,1.03839c0,0.41206 -0.1401,0.74996 -0.4203,1.01368c-0.26372,0.26372 -0.62633,0.39558 -1.08784,0.39558h-8.45549v7.36766h11.7932c0.46151,0 0.82412,0.13186 1.08784,0.39558c0.2802,0.24723 0.42031,0.57689 0.42031,0.98895c0,0.44502 -0.1401,0.79941 -0.4203,1.06313c-0.26372,0.26372 -0.62632,0.39557 -1.08784,0.39557z" fill="url(#color-16)" stroke="url(#color-17)" stroke-width="2.5"/><path d="M261.71804,282.27197c-0.41206,0 -0.76643,-0.14834 -1.06311,-0.44503c-0.29669,-0.29669 -0.44502,-0.65931 -0.44502,-1.08784v-6.87318l-7.88684,-12.26293c-0.24724,-0.41206 -0.34614,-0.79941 -0.29669,-1.16201c0.06593,-0.36262 0.239,-0.6593 0.51921,-0.89005c0.2802,-0.23075 0.60985,-0.34613 0.98894,-0.34613c0.32965,0 0.59337,0.07418 0.79116,0.22252c0.19779,0.14834 0.38734,0.36262 0.56866,0.64282l6.90066,10.9545l7.0435,-11.07812c0.14834,-0.23075 0.32964,-0.41207 0.54392,-0.54392c0.21428,-0.13185 0.47798,-0.19778 0.79116,-0.19778c0.36262,0 0.6593,0.12363 0.89005,0.37086c0.24723,0.24723 0.38733,0.56041 0.42031,0.9395c0.03296,0.36262 -0.06593,0.72522 -0.29668,1.08784l-7.93629,12.26294v6.87318c0,0.42854 -0.14833,0.79116 -0.44502,1.08784c-0.29669,0.29669 -0.65931,0.44502 -1.08785,0.44502z" fill="url(#color-18)" stroke="url(#color-19)" stroke-width="2.5"/><path d="M218.96204,282.27197c-0.42854,0 -0.79116,-0.14834 -1.08785,-0.44503c-0.2802,-0.29669 -0.42029,-0.65931 -0.42029,-1.08784v-19.97672c0,-0.44502 0.14835,-0.81587 0.44503,-1.11255c0.29668,-0.29669 0.65106,-0.44502 1.06312,-0.44502c0.44502,0 0.80764,0.14834 1.08784,0.44502c0.29668,0.29669 0.44503,0.66755 0.44503,1.11257v18.44385h10.70534c0.42854,0 0.79116,0.14834 1.08784,0.44503c0.29668,0.29669 0.44503,0.65931 0.44503,1.08784c0,0.42854 -0.14834,0.79116 -0.44503,1.08784c-0.29668,0.29669 -0.65931,0.44502 -1.08784,0.44502z" fill="url(#color-20)" stroke="url(#color-21)" stroke-width="2.5"/><path d="M296.77079,279.16007c-0.42854,0 -0.79116,-0.14833 -1.08784,-0.44502c-0.29669,-0.29669 -0.44503,-0.65931 -0.44503,-1.08784v-19.97672c0,-0.46152 0.14834,-0.83236 0.44503,-1.11255c0.29669,-0.29668 0.65931,-0.44503 1.08784,-0.44503h5.3156c1.48342,0 2.79378,0.31317 3.93107,0.9395c1.13729,0.62633 2.02734,1.48343 2.67016,2.57126c0.64281,1.07135 0.96423,2.32403 0.96423,3.75799c0,1.33508 -0.32139,2.53006 -0.96421,3.58494c-0.64281,1.03839 -1.53287,1.85428 -2.67016,2.44765c-0.09989,0.05212 -0.20111,0.10195 -0.30366,0.14948l4.50668,7.2429c0.34613,0.57688 0.38734,1.12079 0.12363,1.63176c-0.24724,0.49447 -0.68402,0.74171 -1.31035,0.74171l-0.00005,-0.00004c-0.2802,0 -0.53567,-0.05769 -0.76642,-0.17305c-0.21428,-0.11539 -0.40382,-0.30492 -0.56864,-0.56863l-5.06307,-8.14804c-0.18034,0.0093 -0.3634,0.01396 -0.54918,0.01396h-3.75799v7.34294c0,0.42854 -0.14834,0.79116 -0.44503,1.08784c-0.2802,0.29669 -0.65105,0.44503 -1.11255,0.44503zM298.32839,267.44106h3.758c0.90654,0 1.70593,-0.17305 2.3982,-0.51918c0.69227,-0.34613 1.23618,-0.82413 1.63176,-1.43398c0.39558,-0.62633 0.59337,-1.33508 0.59337,-2.12623c0,-0.85709 -0.19779,-1.62352 -0.59337,-2.29929c-0.39558,-0.67577 -0.9395,-1.19498 -1.63176,-1.55758c-0.69227,-0.37909 -1.49167,-0.56864 -2.39819,-0.56864h-3.75799z" fill="#8b4fff" stroke="#28123b" stroke-width="2.5"/><path d="M200.59578,279.16007c-0.42854,0 -0.79116,-0.14833 -1.08784,-0.44502c-0.29668,-0.29669 -0.44503,-0.65931 -0.44503,-1.08784v-19.97672c0,-0.46152 0.14835,-0.83236 0.44503,-1.11255c0.29668,-0.29668 0.6593,-0.44503 1.08784,-0.44503h5.90896c1.48342,0 2.79378,0.32964 3.93107,0.98895c1.13729,0.64281 2.02734,1.54111 2.67015,2.69488c0.64282,1.15377 0.96423,2.48062 0.96423,3.98052c0,1.43397 -0.3214,2.71136 -0.96421,3.83218c-0.64282,1.1208 -1.53287,1.99438 -2.67016,2.62071c-1.13729,0.62633 -2.44763,0.9395 -3.93105,0.9395h-4.35136v6.4776c0,0.42854 -0.14834,0.79116 -0.44503,1.08784c-0.2802,0.29669 -0.65105,0.44503 -1.11255,0.44503zM202.15338,268.33111h4.35136c0.90654,0 1.70594,-0.19779 2.3982,-0.59337c0.69226,-0.39558 1.23619,-0.93949 1.63177,-1.63176c0.39558,-0.69227 0.59337,-1.47518 0.59337,-2.34875c0,-0.95598 -0.19779,-1.78834 -0.59337,-2.49708c-0.39558,-0.72522 -0.9395,-1.29387 -1.63177,-1.70592c-0.69226,-0.41206 -1.49166,-0.61809 -2.39818,-0.61809h-4.35137z" fill="#8b4fff" stroke="#28123b" stroke-width="2.5"/><path d="M235.49096,279.16007c-0.54392,0 -0.96421,-0.23074 -1.26089,-0.69226c-0.29669,-0.47798 -0.32965,-0.98895 -0.0989,-1.53287l8.30715,-19.80365c0.29668,-0.69227 0.77467,-1.03839 1.43397,-1.03839c0.70875,0 1.19498,0.34612 1.4587,1.03839l8.33189,19.87783c0.21428,0.54392 0.17308,1.03839 -0.12361,1.48342c-0.2802,0.44502 -0.70051,0.66755 -1.2609,0.66755c-0.29668,0 -0.58512,-0.08241 -0.86532,-0.24724c-0.26372,-0.16483 -0.45327,-0.39557 -0.56863,-0.69226l-1.66052,-4.12885l-10.57033,-0.00002l-1.68856,4.12886c-0.14834,0.31317 -0.35438,0.55216 -0.61809,0.71699c-0.26372,0.14834 -0.53567,0.22253 -0.81588,0.22253zM248.15974,271.5452l-4.21676,-10.4849l-4.28797,10.4849z" fill="#8b4fff" stroke="#28123b" stroke-width="2.5"/><path d="M276.10672,279.16007c-0.42854,0 -0.79115,-0.14833 -1.08784,-0.44502c-0.29669,-0.29669 -0.44502,-0.65931 -0.44502,-1.08784v-19.97672c0,-0.46152 0.14834,-0.83236 0.44502,-1.11255c0.29669,-0.29668 0.6593,-0.44503 1.08784,-0.44503h13.35079c0.46151,0 0.82412,0.1401 1.08784,0.42031c0.2802,0.26372 0.42031,0.60985 0.42031,1.03839c0,0.41206 -0.1401,0.74996 -0.4203,1.01368c-0.26372,0.24723 -0.62633,0.37086 -1.08785,0.37086h-11.79318v7.16986h8.4555c0.46151,0 0.82412,0.13186 1.08785,0.39558c0.2802,0.26372 0.42031,0.60987 0.42031,1.0384c0,0.41206 -0.1401,0.74996 -0.4203,1.01367c-0.26372,0.26372 -0.62633,0.39558 -1.08784,0.39558h-8.45549v7.36765h11.7932c0.46151,0 0.82412,0.13186 1.08784,0.39558c0.2802,0.24723 0.42031,0.57688 0.42031,0.98895c0,0.44502 -0.1401,0.79941 -0.4203,1.06313c-0.26372,0.26372 -0.62632,0.39558 -1.08784,0.39558z" fill="#8b4fff" stroke="#28123b" stroke-width="2.5"/><path d="M261.71804,279.16007c-0.41206,0 -0.76643,-0.14833 -1.06311,-0.44502c-0.29669,-0.29669 -0.44502,-0.65931 -0.44502,-1.08784v-6.87318l-7.88684,-12.26294c-0.24724,-0.41206 -0.34614,-0.79941 -0.29669,-1.16201c0.06593,-0.36262 0.239,-0.6593 0.51921,-0.89005c0.2802,-0.23075 0.60985,-0.34613 0.98894,-0.34613c0.32965,0 0.59337,0.07418 0.79116,0.22252c0.19779,0.14834 0.38734,0.36262 0.56866,0.64282l6.90066,10.9545l7.0435,-11.07811c0.14834,-0.23075 0.32964,-0.41207 0.54392,-0.54392c0.21428,-0.13185 0.47798,-0.1978 0.79116,-0.1978c0.36262,0 0.6593,0.12364 0.89005,0.37087c0.24723,0.24723 0.38733,0.56041 0.42031,0.9395c0.03296,0.36262 -0.06593,0.72523 -0.29668,1.08785l-7.93629,12.26293v6.87318c0,0.42854 -0.14833,0.79116 -0.44502,1.08784c-0.29669,0.29669 -0.65931,0.44503 -1.08785,0.44503z" fill="#8b4fff" stroke="#28123b" stroke-width="2.5"/><path d="M218.96204,279.16007c-0.42854,0 -0.79116,-0.14833 -1.08785,-0.44502c-0.2802,-0.29669 -0.42029,-0.65931 -0.42029,-1.08784v-19.97672c0,-0.44502 0.14835,-0.81587 0.44503,-1.11255c0.29668,-0.29668 0.65106,-0.44503 1.06312,-0.44503c0.44502,0 0.80764,0.14834 1.08784,0.44503c0.29668,0.29669 0.44503,0.66755 0.44503,1.11257v18.44385h10.70534c0.42854,0 0.79116,0.14834 1.08784,0.44502c0.29668,0.29669 0.44503,0.6593 0.44503,1.08784c0,0.42854 -0.14834,0.79116 -0.44503,1.08785c-0.29668,0.29669 -0.65931,0.44502 -1.08784,0.44502z" fill="#8b4fff" stroke="#28123b" stroke-width="2.5"/><path d="M296.77079,279.16007c-0.42854,0 -0.79116,-0.14833 -1.08784,-0.44502c-0.29669,-0.29669 -0.44503,-0.65931 -0.44503,-1.08784v-19.97672c0,-0.46152 0.14834,-0.83236 0.44503,-1.11255c0.29669,-0.29668 0.65931,-0.44503 1.08784,-0.44503h5.3156c1.48342,0 2.79378,0.31317 3.93107,0.9395c1.13729,0.62633 2.02734,1.48343 2.67016,2.57126c0.64281,1.07135 0.96423,2.32403 0.96423,3.75799c0,1.33508 -0.32139,2.53006 -0.96421,3.58494c-0.64281,1.03839 -1.53287,1.85428 -2.67016,2.44765c-0.09989,0.05212 -0.20111,0.10195 -0.30366,0.14948l4.50668,7.2429c0.34613,0.57688 0.38734,1.12079 0.12363,1.63176c-0.24724,0.49447 -0.68402,0.74171 -1.31035,0.74171l-0.00005,-0.00004c-0.2802,0 -0.53567,-0.05769 -0.76642,-0.17305c-0.21428,-0.11539 -0.40382,-0.30492 -0.56864,-0.56863l-5.06307,-8.14804c-0.18034,0.0093 -0.3634,0.01396 -0.54918,0.01396h-3.75799v7.34294c0,0.42854 -0.14834,0.79116 -0.44503,1.08784c-0.2802,0.29669 -0.65105,0.44503 -1.11255,0.44503zM298.32839,267.44106h3.758c0.90654,0 1.70593,-0.17305 2.3982,-0.51918c0.69227,-0.34613 1.23618,-0.82413 1.63176,-1.43398c0.39558,-0.62633 0.59337,-1.33508 0.59337,-2.12623c0,-0.85709 -0.19779,-1.62352 -0.59337,-2.29929c-0.39558,-0.67577 -0.9395,-1.19498 -1.63176,-1.55758c-0.69227,-0.37909 -1.49167,-0.56864 -2.39819,-0.56864h-3.75799z" fill="#a97fff" stroke="#8b4fff" stroke-width="0"/><path d="M200.59578,279.16007c-0.42854,0 -0.79116,-0.14833 -1.08784,-0.44502c-0.29668,-0.29669 -0.44503,-0.65931 -0.44503,-1.08784v-19.97672c0,-0.46152 0.14835,-0.83236 0.44503,-1.11255c0.29668,-0.29668 0.6593,-0.44503 1.08784,-0.44503h5.90896c1.48342,0 2.79378,0.32964 3.93107,0.98895c1.13729,0.64281 2.02734,1.54111 2.67015,2.69488c0.64282,1.15377 0.96423,2.48062 0.96423,3.98052c0,1.43397 -0.3214,2.71136 -0.96421,3.83218c-0.64282,1.1208 -1.53287,1.99438 -2.67016,2.62071c-1.13729,0.62633 -2.44763,0.9395 -3.93105,0.9395h-4.35136v6.4776c0,0.42854 -0.14834,0.79116 -0.44503,1.08784c-0.2802,0.29669 -0.65105,0.44503 -1.11255,0.44503zM202.15338,268.33111h4.35136c0.90654,0 1.70594,-0.19779 2.3982,-0.59337c0.69226,-0.39558 1.23619,-0.93949 1.63177,-1.63176c0.39558,-0.69227 0.59337,-1.47518 0.59337,-2.34875c0,-0.95598 -0.19779,-1.78834 -0.59337,-2.49708c-0.39558,-0.72522 -0.9395,-1.29387 -1.63177,-1.70592c-0.69226,-0.41206 -1.49166,-0.61809 -2.39818,-0.61809h-4.35137z" fill="#a97fff" stroke="#8b4fff" stroke-width="0"/><path d="M235.49096,279.16007c-0.54392,0 -0.96421,-0.23074 -1.26089,-0.69226c-0.29669,-0.47798 -0.32965,-0.98895 -0.0989,-1.53287l8.30715,-19.80365c0.29668,-0.69227 0.77467,-1.03839 1.43397,-1.03839c0.70875,0 1.19498,0.34612 1.4587,1.03839l8.33189,19.87783c0.21428,0.54392 0.17308,1.03839 -0.12361,1.48342c-0.2802,0.44502 -0.70051,0.66755 -1.2609,0.66755c-0.29668,0 -0.58512,-0.08241 -0.86532,-0.24724c-0.26372,-0.16483 -0.45327,-0.39557 -0.56863,-0.69226l-1.66052,-4.12885l-10.57033,-0.00002l-1.68856,4.12886c-0.14834,0.31317 -0.35438,0.55216 -0.61809,0.71699c-0.26372,0.14834 -0.53567,0.22253 -0.81588,0.22253zM248.15974,271.5452l-4.21676,-10.4849l-4.28797,10.4849z" fill="#a97fff" stroke="#8b4fff" stroke-width="0"/><path d="M276.10672,279.16007c-0.42854,0 -0.79115,-0.14833 -1.08784,-0.44502c-0.29669,-0.29669 -0.44502,-0.65931 -0.44502,-1.08784v-19.97672c0,-0.46152 0.14834,-0.83236 0.44502,-1.11255c0.29669,-0.29668 0.6593,-0.44503 1.08784,-0.44503h13.35079c0.46151,0 0.82412,0.1401 1.08784,0.42031c0.2802,0.26372 0.42031,0.60985 0.42031,1.03839c0,0.41206 -0.1401,0.74996 -0.4203,1.01368c-0.26372,0.24723 -0.62633,0.37086 -1.08785,0.37086h-11.79318v7.16986h8.4555c0.46151,0 0.82412,0.13186 1.08785,0.39558c0.2802,0.26372 0.42031,0.60987 0.42031,1.0384c0,0.41206 -0.1401,0.74996 -0.4203,1.01367c-0.26372,0.26372 -0.62633,0.39558 -1.08784,0.39558h-8.45549v7.36765h11.7932c0.46151,0 0.82412,0.13186 1.08784,0.39558c0.2802,0.24723 0.42031,0.57688 0.42031,0.98895c0,0.44502 -0.1401,0.79941 -0.4203,1.06313c-0.26372,0.26372 -0.62632,0.39558 -1.08784,0.39558z" fill="#a97fff" stroke="#8b4fff" stroke-width="0"/><path d="M261.71804,279.16007c-0.41206,0 -0.76643,-0.14833 -1.06311,-0.44502c-0.29669,-0.29669 -0.44502,-0.65931 -0.44502,-1.08784v-6.87318l-7.88684,-12.26294c-0.24724,-0.41206 -0.34614,-0.79941 -0.29669,-1.16201c0.06593,-0.36262 0.239,-0.6593 0.51921,-0.89005c0.2802,-0.23075 0.60985,-0.34613 0.98894,-0.34613c0.32965,0 0.59337,0.07418 0.79116,0.22252c0.19779,0.14834 0.38734,0.36262 0.56866,0.64282l6.90066,10.9545l7.0435,-11.07811c0.14834,-0.23075 0.32964,-0.41207 0.54392,-0.54392c0.21428,-0.13185 0.47798,-0.1978 0.79116,-0.1978c0.36262,0 0.6593,0.12364 0.89005,0.37087c0.24723,0.24723 0.38733,0.56041 0.42031,0.9395c0.03296,0.36262 -0.06593,0.72523 -0.29668,1.08785l-7.93629,12.26293v6.87318c0,0.42854 -0.14833,0.79116 -0.44502,1.08784c-0.29669,0.29669 -0.65931,0.44503 -1.08785,0.44503z" fill="#a97fff" stroke="#8b4fff" stroke-width="0"/><path d="M218.96204,279.16007c-0.42854,0 -0.79116,-0.14833 -1.08785,-0.44502c-0.2802,-0.29669 -0.42029,-0.65931 -0.42029,-1.08784v-19.97672c0,-0.44502 0.14835,-0.81587 0.44503,-1.11255c0.29668,-0.29668 0.65106,-0.44503 1.06312,-0.44503c0.44502,0 0.80764,0.14834 1.08784,0.44503c0.29668,0.29669 0.44503,0.66755 0.44503,1.11257v18.44385h10.70534c0.42854,0 0.79116,0.14834 1.08784,0.44502c0.29668,0.29669 0.44503,0.6593 0.44503,1.08784c0,0.42854 -0.14834,0.79116 -0.44503,1.08785c-0.29668,0.29669 -0.65931,0.44502 -1.08784,0.44502z" fill="#a97fff" stroke="#8b4fff" stroke-width="0"/><g><path d="M172.1821,281.99465c-0.44502,0 -0.80764,-0.14834 -1.08784,-0.44502c-0.2802,-0.29669 -0.4203,-0.65106 -0.4203,-1.06311c0,-0.42854 0.13186,-0.78291 0.39558,-1.06311l8.38132,-9.79057c0.59337,-0.69227 1.05488,-1.34332 1.38452,-1.95316c0.32964,-0.60985 0.49448,-1.19498 0.49448,-1.75537c0,-0.85709 -0.14834,-1.59881 -0.44503,-2.22514c-0.29668,-0.62633 -0.72522,-1.11255 -1.28563,-1.45869c-0.54392,-0.34613 -1.20323,-0.51919 -1.9779,-0.51919c-0.74171,0 -1.41748,0.18955 -2.02734,0.56865c-0.59337,0.37909 -1.06311,0.89006 -1.40924,1.53287c-0.34613,0.64281 -0.51919,1.34332 -0.51919,2.10152c0,0.39558 -0.14009,0.74171 -0.42029,1.0384c-0.2802,0.29669 -0.63457,0.44502 -1.06311,0.44502c-0.42854,0 -0.79116,-0.14833 -1.08784,-0.44502c-0.2802,-0.29669 -0.4203,-0.64282 -0.4203,-1.0384c0,-1.33508 0.30493,-2.52181 0.91478,-3.5602c0.60986,-1.05489 1.43398,-1.88725 2.47236,-2.49709c1.05489,-0.62633 2.24162,-0.9395 3.56021,-0.9395c1.35156,0 2.51357,0.28843 3.48604,0.86534c0.98895,0.57688 1.75539,1.38453 2.29931,2.42292c0.36796,0.70247 0.61147,1.49547 0.73051,2.37899c0.01429,0.12862 0.02866,0.25542 0.04304,0.38022c0.02823,0.30618 0.04234,0.62263 0.04234,0.94934c0,0.64281 -0.14009,1.28563 -0.42029,1.92844c-0.26372,0.64281 -0.60162,1.26092 -1.01367,1.85429c-0.39558,0.59337 -0.79941,1.12905 -1.21146,1.60705l-6.74955,7.66433h8.2577c0.44502,0 0.80764,0.15659 1.08784,0.46976c0.29668,0.29669 0.44503,0.64281 0.44503,1.03839c0,0.41206 -0.14834,0.76644 -0.44503,1.06313c-0.2802,0.29669 -0.64282,0.44502 -1.08784,0.44502z" fill="url(#color-22)" stroke="url(#color-23)" stroke-width="2.5"/><path d="M172.1821,279.02781c-0.44502,0 -0.80764,-0.14833 -1.08784,-0.44502c-0.2802,-0.29669 -0.4203,-0.65106 -0.4203,-1.06311c0,-0.42854 0.13186,-0.78291 0.39558,-1.06311l8.38132,-9.79058c0.59337,-0.69227 1.05488,-1.34332 1.38452,-1.95316c0.32964,-0.60985 0.49448,-1.19498 0.49448,-1.75537c0,-0.85709 -0.14834,-1.5988 -0.44503,-2.22513c-0.29668,-0.62633 -0.72522,-1.11255 -1.28563,-1.45869c-0.54392,-0.34613 -1.20323,-0.51919 -1.9779,-0.51919c-0.74171,0 -1.41748,0.18955 -2.02734,0.56866c-0.59337,0.37909 -1.06311,0.89005 -1.40924,1.53287c-0.34613,0.64281 -0.51919,1.34332 -0.51919,2.10152c0,0.39558 -0.14009,0.74171 -0.42029,1.03839c-0.2802,0.29669 -0.63457,0.44502 -1.06311,0.44502c-0.42854,0 -0.79116,-0.14834 -1.08784,-0.44502c-0.2802,-0.29669 -0.4203,-0.64281 -0.4203,-1.03839c0,-1.33508 0.30493,-2.52182 0.91478,-3.56021c0.60986,-1.05489 1.43398,-1.88724 2.47236,-2.49708c1.05489,-0.62633 2.24162,-0.9395 3.56021,-0.9395c1.35156,0 2.51357,0.28844 3.48604,0.86534c0.98895,0.57688 1.75539,1.38453 2.29931,2.42292c0.36796,0.70247 0.61147,1.49548 0.73051,2.379c0.01429,0.12862 0.02866,0.25542 0.04304,0.38021c0.02823,0.30618 0.04234,0.62262 0.04234,0.94934c0,0.64281 -0.14009,1.28564 -0.42029,1.92845c-0.26372,0.64281 -0.60162,1.26092 -1.01367,1.85429c-0.39558,0.59337 -0.79941,1.12905 -1.21146,1.60705l-6.74955,7.66433h8.2577c0.44502,0 0.80764,0.15658 1.08784,0.46975c0.29668,0.29669 0.44503,0.64282 0.44503,1.0384c0,0.41206 -0.14834,0.76644 -0.44503,1.06313c-0.2802,0.29669 -0.64282,0.44502 -1.08784,0.44502z" fill="#8b4fff" stroke="#28123b" stroke-width="2.5"/><path d="M172.1821,279.02781c-0.44502,0 -0.80764,-0.14833 -1.08784,-0.44502c-0.2802,-0.29669 -0.4203,-0.65106 -0.4203,-1.06311c0,-0.42854 0.13186,-0.78291 0.39558,-1.06311l8.38132,-9.79058c0.59337,-0.69227 1.05488,-1.34332 1.38452,-1.95316c0.32964,-0.60985 0.49448,-1.19498 0.49448,-1.75537c0,-0.85709 -0.14834,-1.5988 -0.44503,-2.22513c-0.29668,-0.62633 -0.72522,-1.11255 -1.28563,-1.45869c-0.54392,-0.34613 -1.20323,-0.51919 -1.9779,-0.51919c-0.74171,0 -1.41748,0.18955 -2.02734,0.56866c-0.59337,0.37909 -1.06311,0.89005 -1.40924,1.53287c-0.34613,0.64281 -0.51919,1.34332 -0.51919,2.10152c0,0.39558 -0.14009,0.74171 -0.42029,1.03839c-0.2802,0.29669 -0.63457,0.44502 -1.06311,0.44502c-0.42854,0 -0.79116,-0.14834 -1.08784,-0.44502c-0.2802,-0.29669 -0.4203,-0.64281 -0.4203,-1.03839c0,-1.33508 0.30493,-2.52182 0.91478,-3.56021c0.60986,-1.05489 1.43398,-1.88724 2.47236,-2.49708c1.05489,-0.62633 2.24162,-0.9395 3.56021,-0.9395c1.35156,0 2.51357,0.28844 3.48604,0.86534c0.98895,0.57688 1.75539,1.38453 2.29931,2.42292c0.36796,0.70247 0.61147,1.49548 0.73051,2.379c0.01429,0.12862 0.02866,0.25542 0.04304,0.38021c0.02823,0.30618 0.04234,0.62262 0.04234,0.94934c0,0.64281 -0.14009,1.28564 -0.42029,1.92845c-0.26372,0.64281 -0.60162,1.26092 -1.01367,1.85429c-0.39558,0.59337 -0.79941,1.12905 -1.21146,1.60705l-6.74955,7.66433h8.2577c0.44502,0 0.80764,0.15658 1.08784,0.46975c0.29668,0.29669 0.44503,0.64282 0.44503,1.0384c0,0.41206 -0.14834,0.76644 -0.44503,1.06313c-0.2802,0.29669 -0.64282,0.44502 -1.08784,0.44502z" fill="#a97fff" stroke="none" stroke-width="1"/></g></g></g></g></svg>