<svg version="1.1" xmlns="http://www.w3.org/2000/svg" xmlns:xlink="http://www.w3.org/1999/xlink" width="304.50121" height="157.71128" viewBox="0,0,304.50121,157.71128"><defs><linearGradient x1="3500.38597" y1="-114.64972" x2="-1140.39453" y2="-84.23632" gradientUnits="userSpaceOnUse" id="color-1"><stop offset="0" stop-color="#000000"/><stop offset="1" stop-color="#000000" stop-opacity="0"/></linearGradient><linearGradient x1="370.48285" y1="128.6721" x2="95.77987" y2="128.78708" gradientUnits="userSpaceOnUse" id="color-2"><stop offset="0" stop-color="#000000"/><stop offset="1" stop-color="#000000" stop-opacity="0"/></linearGradient><linearGradient x1="370.48285" y1="128.6721" x2="95.77987" y2="128.78708" gradientUnits="userSpaceOnUse" id="color-3"><stop offset="0" stop-color="#000000"/><stop offset="1" stop-color="#000000" stop-opacity="0"/></linearGradient><linearGradient x1="370.30644" y1="348.29428" x2="418.3828" y2="348.27416" gradientUnits="userSpaceOnUse" id="color-4"><stop offset="0" stop-color="#000000"/><stop offset="1" stop-color="#000000" stop-opacity="0"/></linearGradient><linearGradient x1="370.30644" y1="348.29428" x2="418.3828" y2="348.27416" gradientUnits="userSpaceOnUse" id="color-5"><stop offset="0" stop-color="#000000"/><stop offset="1" stop-color="#000000" stop-opacity="0"/></linearGradient><linearGradient x1="249.11239" y1="161.87248" x2="249.11239" y2="209.73717" gradientUnits="userSpaceOnUse" id="color-6"><stop offset="0" stop-color="#000000"/><stop offset="1" stop-color="#000000" stop-opacity="0"/></linearGradient><linearGradient x1="224.5749" y1="190.56577" x2="224.5749" y2="209.84805" gradientUnits="userSpaceOnUse" id="color-7"><stop offset="0" stop-color="#000000"/><stop offset="1" stop-color="#000000" stop-opacity="0"/></linearGradient></defs><g transform="translate(-89.52987,-122.4221)"><g data-paper-data="{&quot;isPaintingLayer&quot;:true}" fill-rule="nonzero" stroke-linejoin="miter" stroke-miterlimit="10" stroke-dasharray="" stroke-dashoffset="0" style="mix-blend-mode: normal"><g><path d="M383.44422,129.66505c0,0 1.45746,59.75636 0.34715,75.46668c-1.79179,25.35258 -24.52726,25.88026 -24.52726,25.88026" data-paper-data="{&quot;index&quot;:null}" fill="none" stroke="#28123b" stroke-width="12.5" stroke-linecap="round"/><path d="M106.40341,129.83986l273.33581,-0.0409c0,0 2.19787,54.32902 0.20501,72.83346c-1.38665,12.87558 -16.77952,26.70187 -16.77952,26.70187l-236.85436,-2.04391c0,0 -14.11253,-9.03494 -16.80172,-22.19932c-3.64896,-17.86279 -3.10522,-75.25121 -3.10522,-75.25121z" fill="url(#color-1)" stroke="none" stroke-width="0" stroke-linecap="butt"/><path d="M95.77987,128.78708l274.703,-0.11498" fill="url(#color-2)" stroke="url(#color-3)" stroke-width="12.5" stroke-linecap="round"/><path d="M108.82055,128.88797l274.70297,-0.11498" fill="none" stroke="#28123b" stroke-width="12.5" stroke-linecap="round"/><path d="M134.06078,231.23217c0,0 -25.62365,-1.04263 -27.64866,-26.3936c-1.25483,-15.70933 -0.34714,-75.46668 -0.34714,-75.46668" data-paper-data="{&quot;index&quot;:null}" fill="none" stroke="#28123b" stroke-width="12.5" stroke-linecap="round"/><path d="M357.97803,231.23997l-221.41943,0.04963" data-paper-data="{&quot;index&quot;:null}" fill="none" stroke="#28123b" stroke-width="12.5" stroke-linecap="round"/><path d="M108.82055,128.88797c0,0 35.84682,-0.01501 63.03329,-0.02639c49.81926,-0.02085 211.66968,-0.08859 211.66968,-0.08859" fill="none" stroke="#8b4fff" stroke-width="4.5" stroke-linecap="round"/><path d="M135.14159,231.32305c0,0 -28.60263,1.08881 -28.74269,-29.36276c-0.08591,-18.67563 -0.33214,-72.20465 -0.33214,-72.20465" data-paper-data="{&quot;index&quot;:null}" fill="none" stroke="#8b4fff" stroke-width="4.5" stroke-linecap="round"/><path d="M359.93917,231.24252l-225.26563,0.0452" data-paper-data="{&quot;index&quot;:null}" fill="none" stroke="#8b4fff" stroke-width="4.5" stroke-linecap="round"/><path d="M383.88741,129.63937c0,0 0.24624,53.52902 0.33215,72.20464c0.14008,30.45157 -25.3032,29.43518 -25.3032,29.43518" data-paper-data="{&quot;index&quot;:null}" fill="none" stroke="#8b4fff" stroke-width="4.5" stroke-linecap="round"/></g><path d="M394.03108,280.13338" data-paper-data="{&quot;index&quot;:null}" fill="url(#color-4)" stroke="url(#color-5)" stroke-width="12.5" stroke-linecap="round"/><g><g fill="none" stroke-width="13.5" stroke-linecap="round"><path d="M266.46346,161.87248l-34.70215,47.86469" data-paper-data="{&quot;index&quot;:null}" stroke="url(#color-6)"/><path d="M217.43617,190.56577l14.27749,19.28228" data-paper-data="{&quot;index&quot;:null}" stroke="url(#color-7)"/></g><path d="M231.92797,202.48717l34.70215,-47.86469" data-paper-data="{&quot;index&quot;:null}" fill="none" stroke="#28123b" stroke-width="13.5" stroke-linecap="round"/><path d="M232.16971,202.48717c0,0 1.37553,-1.89727 2.82831,-3.90109c4.87701,-6.72687 31.87385,-43.9636 31.87385,-43.9636" data-paper-data="{&quot;index&quot;:null}" fill="none" stroke="#ab80ff" stroke-width="5.5" stroke-linecap="round"/><path d="M231.88032,202.59805l-14.27749,-19.28228" data-paper-data="{&quot;index&quot;:null}" fill="none" stroke="#28123b" stroke-width="13.5" stroke-linecap="round"/><path d="M217.60383,183.45148l14.27749,19.28228" data-paper-data="{&quot;index&quot;:null}" fill="none" stroke="#a97eff" stroke-width="5.5" stroke-linecap="round"/><path d="M230.24881,200.29739l4.40044,-5.76842l3.72575,4.05374l-4.25758,5.91128z" fill="#a97eff" stroke="none" stroke-width="NaN" stroke-linecap="butt"/></g></g></g></svg>