<svg version="1.1" xmlns="http://www.w3.org/2000/svg" xmlns:xlink="http://www.w3.org/1999/xlink" width="8.75023" height="5.18307" viewBox="0,0,8.75023,5.18307"><g transform="translate(-235.62488,-177.40846)"><g data-paper-data="{&quot;isPaintingLayer&quot;:true}" fill-rule="nonzero" stroke-linejoin="miter" stroke-miterlimit="10" stroke-dasharray="" stroke-dashoffset="0" style="mix-blend-mode: normal"><g stroke-linecap="butt"><path d="M237.20682,181.99457c-1.85972,-0.91376 -2.11676,-2.5475 -0.57413,-3.64907c1.54263,-1.10158 4.30077,-1.25383 6.16049,-0.34007c1.85972,0.91376 2.11676,2.5475 0.57413,3.64907c-1.54263,1.10158 -4.30077,1.25383 -6.16049,0.34007z" fill="#28123b" stroke="none" stroke-width="0"/><path d="M236.4037,180c0,-1.17649 1.61013,-2.13021 3.5963,-2.13021c1.98618,0 3.5963,0.95373 3.5963,2.13021c0,1.17649 -1.61012,2.13021 -3.5963,2.13021c-1.98618,0 -3.5963,-0.95373 -3.5963,-2.13021z" fill="none" stroke="#8b4fff" stroke-width="0.5"/></g><path d="M240.18832,179.18776l-0.16081,0.13607l-0.32161,0.10885l-0.3216,0.02721" fill="none" stroke="#8b4fff" stroke-width="0.2" stroke-linecap="round"/><path d="M241.69073,179.43803l-0.27074,-0.04276l-0.21659,-0.08554l-0.12635,-0.1283" fill="none" stroke="#8b4fff" stroke-width="0.2" stroke-linecap="round"/><path d="M240.44887,179.53968c0,0.10464 -0.19155,0.2238 -0.44575,0.2238c-0.2542,0 -0.46027,-0.08482 -0.46027,-0.18946c0,-0.10464 0.20607,-0.18945 0.46027,-0.18945c0.2542,0 0.44575,0.05048 0.44575,0.15512z" fill="none" stroke="#8b4fff" stroke-width="0.2" stroke-linecap="butt"/><path d="M239.61505,179.60908l0.27074,-0.04276h0.28879l0.16244,0.04276" fill="none" stroke="#8b4fff" stroke-width="0.2" stroke-linecap="round"/><g fill="none" stroke="#8b4fff" stroke-width="0.2"><path d="M241.67565,179.55795c0,0.10464 -0.20606,0.18946 -0.46025,0.18946c-0.2542,0 -0.43129,-0.11916 -0.43129,-0.2238c0,-0.10464 0.17709,-0.15511 0.43129,-0.15511c0.2542,0 0.46025,0.08481 0.46025,0.18944z" stroke-linecap="butt"/><path d="M240.82733,179.59302l0.27074,-0.04276h0.28879l0.16244,0.04276" stroke-linecap="round"/></g><path d="M240.9845,179.83977l-0.05415,-0.13898l-0.21659,-0.07483l-0.09025,-0.13898l-0.01805,-0.19244" fill="none" stroke="#28123b" stroke-width="0.2" stroke-linecap="round"/><path d="M240.75216,179.24558l0.01805,0.19244l0.09024,0.13898l0.2166,0.07483l0.05415,0.13899l-0.05158,0.09502l-0.03305,0.08809l-0.04958,0.2643l0.04958,0.16641l0.08263,0.05873v0.0783l-0.19831,0.0783l-0.26441,0.00979l-0.14873,-0.08809l-0.23135,-0.03915l-0.03306,0.0783l0.16526,0.04894" fill="none" stroke="#8b4fff" stroke-width="0.2" stroke-linecap="round"/><path d="M240.05503,180.56127l-0.04957,-0.0783l0.04957,-0.09789l0.09916,-0.03915" fill="none" stroke="#8b4fff" stroke-width="0.2" stroke-linecap="round"/><path d="M239.87325,180.7962l0.03305,-0.16641l0.11568,-0.23492" fill="none" stroke="#8b4fff" stroke-width="0.2" stroke-linecap="round"/><path d="M241.12919,180.42424l0.1322,0.03915v0.11747l-0.19831,0.01958" fill="none" stroke="#8b4fff" stroke-width="0.2" stroke-linecap="round"/><path d="M241.32749,180.47319l0.1322,0.15662l0.03305,0.15662" fill="none" stroke="#8b4fff" stroke-width="0.2" stroke-linecap="round"/><path d="M240.42115,180.86073l0.06624,-0.0234l0.13246,-0.06241h0.13247l0.07727,0.0312l0.07728,-0.0156l0.11039,-0.0156l0.15454,0.09361l-0.13246,0.04681c0,0 -0.05099,-0.03127 -0.08216,-0.02738c-0.03138,0.00392 -0.06695,0.04176 -0.11654,0.04298c-0.04959,0.00123 -0.10167,-0.0404 -0.13372,-0.03682c-0.03712,0.00414 -0.0981,0.02901 -0.0981,0.02901z" fill="none" stroke="#8b4fff" stroke-width="0.2" stroke-linecap="round"/><path d="M241.17261,180.88513l-0.05439,0.12189l-0.11967,0.07835l-0.33724,0.00871l-0.1523,-0.07835l-0.10879,-0.11317" fill="none" stroke="#8b4fff" stroke-width="0.2" stroke-linecap="round"/><path d="M239.60217,180.52116l0.0459,-0.20846l-0.06121,-0.09064l-0.27542,-0.03626l-0.32133,-0.13595l-0.0459,-0.20846l0.12241,-0.16315" fill="none" stroke="#8b4fff" stroke-width="0.2" stroke-linecap="round"/><path d="M241.28531,181.58158l-0.26013,0.07251l-0.41313,0.01812l-1.49953,-0.40786" fill="none" stroke="#8b4fff" stroke-width="0.2" stroke-linecap="round"/><path d="M239.12783,180.10423l0.0765,0.22659l0.0153,0.31722l-0.0612,0.22659l-0.09181,0.14502l-0.0459,0.12689l0.06121,0.09064" fill="none" stroke="#8b4fff" stroke-width="0.2" stroke-linecap="round"/><path d="M238.69939,180.1133l-0.39784,-0.10876l-0.32133,-0.36254l-0.0765,-0.48036l0.0918,-0.36253l0.47434,-0.29003l0.91808,-0.15407l1.34652,-0.02719l0.68856,0.10877l0.27542,0.20846l0.09181,0.23565l0.21421,0.05438l0.07651,0.14502l0.0153,0.11782l-0.06121,0.08157l-0.13771,0.09064v0.25378l0.13771,0.08157l0.04591,0.13595l-0.07651,0.11782l-0.33662,0.15407l-0.06121,0.0997v0.98792l0.24482,0.0725l0.06121,0.14502l-0.0765,0.06345l-0.50495,0.08157l0.01531,-0.16315l-0.12241,-0.0997h-0.22952" fill="none" stroke="#8b4fff" stroke-width="0.2" stroke-linecap="round"/><path d="M239.03602,178.84441l0.16832,0.14502l0.04591,0.0997l-0.10711,0.10877v0.11782" fill="none" stroke="#8b4fff" stroke-width="0.2" stroke-linecap="round"/><path d="M240.53555,178.69939l0.0306,0.07251v0.13595" fill="none" stroke="#8b4fff" stroke-width="0.2" stroke-linecap="round"/><path d="M240.41314,178.89879l0.09181,0.12689v0.0997" fill="none" stroke="#8b4fff" stroke-width="0.2" stroke-linecap="round"/><path d="M238.65349,180.09517l-0.06121,0.25378l-0.26012,0.34441l-0.29073,0.1994" fill="none" stroke="#8b4fff" stroke-width="0.2" stroke-linecap="round"/><path d="M240.21363,179.62065c0,0.02424 -0.07107,0.04388 -0.15873,0.04388c-0.08766,0 -0.15873,-0.01965 -0.15873,-0.04388c0,-0.02424 0.07107,-0.04387 0.15873,-0.04387c0.08766,0 0.15873,0.01964 0.15873,0.04387z" fill="#8b4fff" stroke="#8b4fff" stroke-width="0.2" stroke-linecap="butt"/><path d="M241.48347,179.59245c0,0.02424 -0.07107,0.04387 -0.15873,0.04387c-0.08766,0 -0.15873,-0.01964 -0.15873,-0.04387c0,-0.02424 0.07107,-0.04387 0.15873,-0.04387c0.08766,0 0.15873,0.01964 0.15873,0.04387z" fill="#8b4fff" stroke="#8b4fff" stroke-width="0.2" stroke-linecap="butt"/><path d="M236.81679,180.70659l0.4127,-0.12223l0.68254,-0.06582l0.46032,0.01881" fill="none" stroke="#8b4fff" stroke-width="0.2" stroke-linecap="round"/><path d="M241.633,180.94001l0.47117,0.10803l0.39517,0.27909" fill="none" stroke="#8b4fff" stroke-width="0.2" stroke-linecap="round"/><path d="M237.83267,181.5716l-0.22222,-0.20685l-0.06349,-0.21624l0.04762,-0.33848l0.31746,-0.23506" fill="none" stroke="#8b4fff" stroke-width="0.2" stroke-linecap="round"/><path d="M240.12258,179.60831c0,0.01897 -0.03244,0.03434 -0.07246,0.03434c-0.04002,0 -0.07246,-0.01536 -0.07246,-0.03434c0,-0.01897 0.03244,-0.03434 0.07246,-0.03434c0.04002,0 0.07246,0.01536 0.07246,0.03434z" fill="#28123b" stroke="none" stroke-width="0.2" stroke-linecap="butt"/><path d="M241.41244,179.59115c0,0.01897 -0.03245,0.03434 -0.07247,0.03434c-0.04002,0 -0.07246,-0.01537 -0.07246,-0.03434c0,-0.01897 0.03244,-0.03434 0.07246,-0.03434c0.04002,0 0.07247,0.01536 0.07247,0.03434z" fill="#28123b" stroke="none" stroke-width="0.2" stroke-linecap="butt"/><path d="M239.19505,179.53105l0.17391,0.05151" fill="none" stroke="#8b4fff" stroke-width="0.2" stroke-linecap="round"/><path d="M239.19505,179.65983l0.13043,-0.02576" fill="none" stroke="#8b4fff" stroke-width="0.2" stroke-linecap="round"/><path d="M241.78925,179.56539l0.11594,-0.03434" fill="none" stroke="#8b4fff" stroke-width="0.2" stroke-linecap="round"/><path d="M241.74577,179.65124l0.13043,0.00858" fill="none" stroke="#8b4fff" stroke-width="0.2" stroke-linecap="round"/><path d="M238.42693,178.85151c0,0 0.09838,-0.08379 0.16153,-0.11255c0.06245,-0.02846 0.21529,-0.05913 0.21529,-0.05913" fill="none" stroke="#502576" stroke-width="0.2" stroke-linecap="round"/></g></g></svg>