<svg version="1.1" xmlns="http://www.w3.org/2000/svg" xmlns:xlink="http://www.w3.org/1999/xlink" width="8.75023" height="6.21177" viewBox="0,0,8.75023,6.21177"><g transform="translate(-235.62488,-176.89411)"><g data-paper-data="{&quot;isPaintingLayer&quot;:true}" fill-rule="nonzero" stroke-linecap="butt" stroke-linejoin="miter" stroke-miterlimit="10" stroke-dasharray="" stroke-dashoffset="0" style="mix-blend-mode: normal"><path d="M237.20682,182.39045c-1.85972,-1.09511 -2.11676,-3.05311 -0.57413,-4.37332c1.54263,-1.32021 4.30077,-1.50268 6.16049,-0.40757c1.85972,1.09511 2.11676,3.05311 0.57413,4.37332c-1.54263,1.32021 -4.30077,1.50268 -6.16049,0.40757z" fill="#28123b" stroke="none" stroke-width="0"/><g><path d="M238.74823,181.07256c-0.83443,-0.49136 -0.94977,-1.3699 -0.2576,-1.96226c0.69215,-0.59236 1.92971,-0.67424 2.76414,-0.18287c0.83443,0.49136 0.94978,1.3699 0.2576,1.96226c-0.69215,0.59236 -1.92971,0.67425 -2.76414,0.18287z" fill="none" stroke="#28123b" stroke-width="0.5"/><path d="M237.41361,179.46929c0,-0.47511 0.53444,-0.86026 1.19372,-0.86026c0.65928,0 1.19372,0.38515 1.19372,0.86026c0,0.47511 -0.53444,0.86026 -1.19372,0.86026c-0.65928,0 -1.19372,-0.38515 -1.19372,-0.86026z" fill="#8b4fff" stroke="none" stroke-width="0"/><path d="M239.43931,180.79178v-0.43655h1.15755v0.43655z" fill="#8b4fff" stroke="none" stroke-width="0"/><path d="M237.26891,180.00857c0,-0.51765 0.59113,-0.9373 1.32033,-0.9373c0.72919,0 1.32033,0.41964 1.32033,0.9373c0,0.51765 -0.59113,0.9373 -1.32033,0.9373c-0.72919,0 -1.32033,-0.41964 -1.32033,-0.9373z" fill="#8b4fff" stroke="#28123b" stroke-width="0.5"/><path d="M240.19895,179.49498c0,-0.47511 0.53444,-0.86026 1.19372,-0.86026c0.65928,0 1.19372,0.38515 1.19372,0.86026c0,0.47511 -0.53444,0.86026 -1.19372,0.86026c-0.65928,0 -1.19372,-0.38515 -1.19372,-0.86026z" fill="#8b4fff" stroke="none" stroke-width="0"/><path d="M240.09042,180.00857c0,-0.51765 0.59113,-0.9373 1.32033,-0.9373c0.72919,0 1.32033,0.41964 1.32033,0.9373c0,0.51765 -0.59114,0.9373 -1.32033,0.9373c-0.72919,0 -1.32033,-0.41965 -1.32033,-0.9373z" fill="#8b4fff" stroke="#28123b" stroke-width="0.5"/><path d="M238.28176,180.00857c0,-0.17728 0.20244,-0.32099 0.45216,-0.32099c0.24972,0 0.45216,0.14371 0.45216,0.32099c0,0.17728 -0.20244,0.32099 -0.45216,0.32099c-0.24972,0 -0.45216,-0.14371 -0.45216,-0.32099z" fill="#28123b" stroke="none" stroke-width="0"/><path d="M240.74155,180.00857c0,-0.17728 0.20244,-0.32099 0.45216,-0.32099c0.24972,0 0.45216,0.14371 0.45216,0.32099c0,0.17728 -0.20245,0.32099 -0.45216,0.32099c-0.24972,0 -0.45216,-0.14372 -0.45216,-0.32099z" fill="#28123b" stroke="none" stroke-width="0"/></g><path d="M237.03333,180c0,-1.16313 1.32823,-2.10603 2.96667,-2.10603c1.63844,0 2.96667,0.94291 2.96667,2.10603c0,1.16313 -1.32822,2.10603 -2.96667,2.10603c-1.63844,0 -2.96667,-0.9429 -2.96667,-2.10603z" fill="none" stroke="#8b4fff" stroke-width="0.5"/></g></g></svg>