<svg version="1.1" xmlns="http://www.w3.org/2000/svg" xmlns:xlink="http://www.w3.org/1999/xlink" width="8.00605" height="8.00605" viewBox="0,0,8.00605,8.00605"><g transform="translate(-235.99697,-175.99697)"><g data-paper-data="{&quot;isPaintingLayer&quot;:true}" fill-rule="nonzero" stroke-linecap="butt" stroke-linejoin="miter" stroke-miterlimit="10" stroke-dasharray="" stroke-dashoffset="0" style="mix-blend-mode: normal"><path d="M237.44438,183.08093c-1.70156,-1.41144 -1.93674,-3.935 -0.52531,-5.63655c1.41144,-1.70156 3.935,-1.93674 5.63655,-0.52531c1.70156,1.41144 1.93674,3.935 0.52531,5.63655c-1.41144,1.70156 -3.935,1.93674 -5.63655,0.52531z" fill="#28123b" stroke="none" stroke-width="0"/><g><path d="M238.74823,181.51087c-0.83443,-0.69215 -0.94977,-1.92971 -0.2576,-2.76414c0.69215,-0.83443 1.92971,-0.94977 2.76414,-0.2576c0.83443,0.69215 0.94978,1.92971 0.2576,2.76414c-0.69215,0.83443 -1.92971,0.94978 -2.76414,0.2576z" fill="none" stroke="#28123b" stroke-width="0.5"/><path d="M237.41361,179.25242c0,-0.66926 0.53444,-1.21181 1.19372,-1.21181c0.65928,0 1.19372,0.54254 1.19372,1.21181c0,0.66926 -0.53444,1.21181 -1.19372,1.21181c-0.65928,0 -1.19372,-0.54254 -1.19372,-1.21181z" fill="#8b4fff" stroke="none" stroke-width="0"/><path d="M239.43931,181.11535v-0.61495h1.15755v0.61495z" fill="#8b4fff" stroke="none" stroke-width="0"/><path d="M237.26891,180.01207c0,-0.72919 0.59113,-1.32033 1.32033,-1.32033c0.72919,0 1.32033,0.59113 1.32033,1.32033c0,0.72919 -0.59113,1.32033 -1.32033,1.32033c-0.72919,0 -1.32033,-0.59113 -1.32033,-1.32033z" fill="#8b4fff" stroke="#28123b" stroke-width="0.5"/><path d="M240.19895,179.2886c0,-0.66926 0.53444,-1.21181 1.19372,-1.21181c0.65928,0 1.19372,0.54254 1.19372,1.21181c0,0.66926 -0.53444,1.21181 -1.19372,1.21181c-0.65928,0 -1.19372,-0.54254 -1.19372,-1.21181z" fill="#8b4fff" stroke="none" stroke-width="0"/><path d="M240.09042,180.01207c0,-0.72919 0.59113,-1.32033 1.32033,-1.32033c0.72919,0 1.32033,0.59113 1.32033,1.32033c0,0.72919 -0.59114,1.32033 -1.32033,1.32033c-0.72919,0 -1.32033,-0.59114 -1.32033,-1.32033z" fill="#8b4fff" stroke="#28123b" stroke-width="0.5"/><path d="M238.28176,180.01207c0,-0.24972 0.20244,-0.45216 0.45216,-0.45216c0.24972,0 0.45216,0.20244 0.45216,0.45216c0,0.24972 -0.20244,0.45216 -0.45216,0.45216c-0.24972,0 -0.45216,-0.20244 -0.45216,-0.45216z" fill="#28123b" stroke="none" stroke-width="0"/><path d="M240.74155,180.01207c0,-0.24972 0.20244,-0.45216 0.45216,-0.45216c0.24972,0 0.45216,0.20244 0.45216,0.45216c0,0.24972 -0.20245,0.45216 -0.45216,0.45216c-0.24972,0 -0.45216,-0.20245 -0.45216,-0.45216z" fill="#28123b" stroke="none" stroke-width="0"/></g><path d="M237.03333,180c0,-1.63844 1.32823,-2.96667 2.96667,-2.96667c1.63844,0 2.96667,1.32823 2.96667,2.96667c0,1.63844 -1.32822,2.96667 -2.96667,2.96667c-1.63844,0 -2.96667,-1.32822 -2.96667,-2.96667z" fill="none" stroke="#8b4fff" stroke-width="0.5"/></g></g></svg>