<svg version="1.1" xmlns="http://www.w3.org/2000/svg" xmlns:xlink="http://www.w3.org/1999/xlink" width="177.83814" height="22.99256" viewBox="0,0,177.83814,22.99256"><defs><linearGradient x1="240.00001" y1="174.10154" x2="240.00001" y2="189.14847" gradientUnits="userSpaceOnUse" id="color-1"><stop offset="0" stop-color="#000000"/><stop offset="1" stop-color="#000000" stop-opacity="0"/></linearGradient><linearGradient x1="240.00001" y1="174.10154" x2="240.00001" y2="189.14847" gradientUnits="userSpaceOnUse" id="color-2"><stop offset="0" stop-color="#000000"/><stop offset="1" stop-color="#000000" stop-opacity="0"/></linearGradient></defs><g transform="translate(-151.08093,-168.45684)"><g data-paper-data="{&quot;isPaintingLayer&quot;:true}" fill-rule="nonzero" stroke-linecap="square" stroke-linejoin="miter" stroke-miterlimit="10" stroke-dasharray="" stroke-dashoffset="0" style="mix-blend-mode: normal"><path d="M160.28405,189.03902c-1,0 -1.94271,-0.1875 -2.82812,-0.5625c-0.875,-0.38542 -1.64062,-0.91667 -2.29687,-1.59375c-0.64583,-0.67708 -1.15625,-1.46875 -1.53125,-2.375c-0.36458,-0.90625 -0.54687,-1.89062 -0.54687,-2.95312c0,-1.04167 0.18229,-2.01042 0.54688,-2.90625c0.375,-0.90625 0.88542,-1.69792 1.53125,-2.375c0.65625,-0.67708 1.41667,-1.20833 2.28125,-1.59375c0.875,-0.38542 1.82292,-0.57812 2.84375,-0.57812c0.95833,0 1.78125,0.125 2.46875,0.375c0.69792,0.23958 1.39583,0.64583 2.09375,1.21875c0.09375,0.07292 0.16667,0.15104 0.21875,0.23438c0.0625,0.08333 0.10417,0.16667 0.125,0.25c0.02083,0.07292 0.03125,0.16667 0.03125,0.28125c0,0.23958 -0.08854,0.4375 -0.26562,0.59375c-0.16667,0.15625 -0.36979,0.24479 -0.60937,0.26563c-0.22917,0.01042 -0.45833,-0.06771 -0.6875,-0.23437c-0.45833,-0.40625 -0.93229,-0.71354 -1.42187,-0.92187c-0.48958,-0.20833 -1.14062,-0.3125 -1.95312,-0.3125c-0.72917,0 -1.41667,0.15104 -2.0625,0.45313c-0.64583,0.29167 -1.21875,0.69792 -1.71875,1.21875c-0.48958,0.52083 -0.86979,1.13021 -1.14062,1.82813c-0.27083,0.6875 -0.40625,1.42188 -0.40625,2.20313c0,0.80208 0.13542,1.54688 0.40625,2.23438c0.27083,0.6875 0.65104,1.29167 1.14063,1.8125c0.5,0.52083 1.07292,0.93229 1.71875,1.23438c0.64583,0.29167 1.33333,0.4375 2.0625,0.4375c0.63542,0 1.23438,-0.10937 1.79688,-0.32812c0.57292,-0.21875 1.11979,-0.52083 1.64063,-0.90625c0.21875,-0.16667 0.4375,-0.23958 0.65625,-0.21875c0.21875,0.02083 0.40104,0.10938 0.54688,0.26563c0.15625,0.15625 0.23438,0.36979 0.23438,0.64063c0,0.125 -0.02604,0.25 -0.07812,0.375c-0.05208,0.11458 -0.125,0.21875 -0.21875,0.3125c-0.67708,0.53125 -1.40104,0.9375 -2.17187,1.21875c-0.76042,0.27083 -1.5625,0.40625 -2.40625,0.40625zM174.98309,189.03902c-1.09375,0 -2.09375,-0.18229 -3,-0.54687c-0.90625,-0.375 -1.6875,-0.89062 -2.34375,-1.54687c-0.64583,-0.66667 -1.15104,-1.45833 -1.51562,-2.375c-0.36458,-0.91667 -0.54687,-1.92187 -0.54687,-3.01562c0,-1.09375 0.18229,-2.09375 0.54688,-3c0.36458,-0.90625 0.86979,-1.69271 1.51563,-2.35937c0.65625,-0.66667 1.4375,-1.18229 2.34375,-1.54687c0.90625,-0.36458 1.90625,-0.54687 3,-0.54687c1.10417,0 2.10417,0.18229 3,0.54688c0.90625,0.36458 1.6875,0.88021 2.34375,1.54688c0.65625,0.66667 1.16146,1.45313 1.51563,2.35938c0.36458,0.90625 0.54688,1.90625 0.54688,3c0,1.09375 -0.18229,2.09896 -0.54687,3.01563c-0.35417,0.91667 -0.85937,1.70833 -1.51562,2.375c-0.65625,0.65625 -1.4375,1.17188 -2.34375,1.54688c-0.89583,0.36458 -1.89583,0.54688 -3,0.54688zM174.98309,187.28902c0.8125,0 1.55729,-0.14583 2.23438,-0.4375c0.67708,-0.29167 1.26563,-0.69792 1.76563,-1.21875c0.5,-0.52083 0.88021,-1.125 1.14063,-1.8125c0.27083,-0.69792 0.40625,-1.45312 0.40625,-2.26562c0,-0.80208 -0.13542,-1.55208 -0.40625,-2.25c-0.26042,-0.69792 -0.64062,-1.30208 -1.14062,-1.8125c-0.5,-0.52083 -1.08854,-0.92187 -1.76562,-1.20312c-0.67708,-0.29167 -1.42187,-0.4375 -2.23437,-0.4375c-0.80208,0 -1.54167,0.14583 -2.21875,0.4375c-0.67708,0.28125 -1.26562,0.68229 -1.76562,1.20313c-0.48958,0.51042 -0.86979,1.11458 -1.14062,1.8125c-0.27083,0.69792 -0.40625,1.44792 -0.40625,2.25c0,0.8125 0.13542,1.56771 0.40625,2.26563c0.27083,0.6875 0.65104,1.29167 1.14063,1.8125c0.5,0.52083 1.08854,0.92708 1.76563,1.21875c0.67708,0.29167 1.41667,0.4375 2.21875,0.4375zM186.39986,188.85152c-0.27083,0 -0.5,-0.09375 -0.6875,-0.28125c-0.1875,-0.1875 -0.28125,-0.41667 -0.28125,-0.6875v-12.625c0,-0.29167 0.09375,-0.52604 0.28125,-0.70312c0.1875,-0.1875 0.41667,-0.28125 0.6875,-0.28125c0.375,0 0.66146,0.17708 0.85938,0.53125l5.84375,11.70313h-0.59375l5.6875,-11.70312c0.19792,-0.35417 0.48438,-0.53125 0.85938,-0.53125c0.27083,0 0.5,0.09375 0.6875,0.28125c0.1875,0.17708 0.28125,0.41146 0.28125,0.70313v12.625c0,0.27083 -0.09896,0.5 -0.29687,0.6875c-0.1875,0.1875 -0.41146,0.28125 -0.67187,0.28125c-0.27083,0 -0.5,-0.09375 -0.6875,-0.28125c-0.1875,-0.1875 -0.28125,-0.41667 -0.28125,-0.6875v-9.9375l0.375,-0.09375l-4.89062,9.95313c-0.20833,0.32292 -0.48958,0.48438 -0.84375,0.48438c-0.40625,0 -0.70312,-0.19271 -0.89062,-0.57812l-4.82812,-9.6875l0.375,-0.07812v9.9375c0,0.27083 -0.09375,0.5 -0.28125,0.6875c-0.1875,0.1875 -0.42187,0.28125 -0.70312,0.28125zM204.7203,188.85152c-0.27083,0 -0.5,-0.09375 -0.6875,-0.28125c-0.1875,-0.1875 -0.28125,-0.41667 -0.28125,-0.6875v-12.625c0,-0.29167 0.09375,-0.52604 0.28125,-0.70312c0.1875,-0.1875 0.41667,-0.28125 0.6875,-0.28125h3.73438c0.9375,0 1.76563,0.20833 2.48438,0.625c0.71875,0.40625 1.28125,0.97396 1.6875,1.70313c0.40625,0.72917 0.60938,1.56771 0.60938,2.51563c0,0.90625 -0.20312,1.71354 -0.60937,2.42188c-0.40625,0.70833 -0.96875,1.26042 -1.6875,1.65625c-0.71875,0.39583 -1.54687,0.59375 -2.48437,0.59375h-2.75v4.09375c0,0.27083 -0.09375,0.5 -0.28125,0.6875c-0.17708,0.1875 -0.41146,0.28125 -0.70312,0.28125zM205.70466,182.00777h2.75c0.57292,0 1.07813,-0.125 1.51563,-0.375c0.4375,-0.25 0.78125,-0.59375 1.03125,-1.03125c0.25,-0.4375 0.375,-0.93229 0.375,-1.48437c0,-0.60417 -0.125,-1.13021 -0.375,-1.57812c-0.25,-0.45833 -0.59375,-0.81771 -1.03125,-1.07812c-0.4375,-0.26042 -0.94271,-0.39062 -1.51562,-0.39062h-2.75zM221.48376,189.1484c-1.19792,0 -2.25521,-0.21875 -3.17187,-0.65625c-0.91667,-0.44792 -1.63542,-1.0625 -2.15625,-1.84375c-0.52083,-0.78125 -0.78125,-1.67708 -0.78125,-2.6875v-8.70312c0,-0.29167 0.09375,-0.52604 0.28125,-0.70312c0.1875,-0.1875 0.41667,-0.28125 0.6875,-0.28125c0.29167,0 0.52604,0.09375 0.70313,0.28125c0.1875,0.17708 0.28125,0.41146 0.28125,0.70313v8.70313c0,0.67708 0.17708,1.27604 0.53125,1.79688c0.35417,0.51042 0.84375,0.91146 1.46875,1.20313c0.625,0.29167 1.34375,0.4375 2.15625,0.4375c0.78125,0 1.47396,-0.14583 2.07813,-0.4375c0.60417,-0.29167 1.07813,-0.69271 1.42188,-1.20312c0.34375,-0.52083 0.51563,-1.11979 0.51563,-1.79687v-8.70312c0,-0.29167 0.08854,-0.52604 0.26563,-0.70312c0.1875,-0.1875 0.42188,-0.28125 0.70313,-0.28125c0.28125,0 0.51042,0.09375 0.6875,0.28125c0.17708,0.17708 0.26563,0.41146 0.26563,0.70313v8.70313c0,1.01042 -0.25521,1.90625 -0.76562,2.6875c-0.5,0.78125 -1.19792,1.39583 -2.09375,1.84375c-0.89583,0.4375 -1.92187,0.65625 -3.07812,0.65625zM235.45143,188.85152c-0.27083,0 -0.5,-0.09375 -0.6875,-0.28125c-0.1875,-0.1875 -0.28125,-0.41667 -0.28125,-0.6875v-13.60937h1.9375v13.60938c0,0.27083 -0.09375,0.5 -0.28125,0.6875c-0.1875,0.1875 -0.41667,0.28125 -0.6875,0.28125zM230.45143,176.07027c-0.26042,0 -0.47396,-0.08333 -0.64062,-0.25c-0.16667,-0.16667 -0.25,-0.38021 -0.25,-0.64062c0,-0.26042 0.08333,-0.47396 0.25,-0.64062c0.16667,-0.17708 0.38021,-0.26562 0.64063,-0.26562h9.98438c0.26042,0 0.47396,0.08854 0.64063,0.26563c0.16667,0.16667 0.25,0.38021 0.25,0.64063c0,0.26042 -0.08333,0.47396 -0.25,0.64063c-0.16667,0.16667 -0.38021,0.25 -0.64062,0.25zM244.43948,188.85152c-0.27083,0 -0.5,-0.09375 -0.6875,-0.28125c-0.1875,-0.1875 -0.28125,-0.41667 -0.28125,-0.6875v-12.625c0,-0.29167 0.09375,-0.52604 0.28125,-0.70312c0.1875,-0.1875 0.41667,-0.28125 0.6875,-0.28125h8.4375c0.29167,0 0.52083,0.08854 0.6875,0.26563c0.17708,0.16667 0.26563,0.38542 0.26563,0.65625c0,0.26042 -0.08854,0.47396 -0.26562,0.64063c-0.16667,0.15625 -0.39583,0.23438 -0.6875,0.23438h-7.45312v4.53125h5.34375c0.29167,0 0.52083,0.08333 0.6875,0.25c0.17708,0.16667 0.26563,0.38542 0.26563,0.65625c0,0.26042 -0.08854,0.47396 -0.26562,0.64063c-0.16667,0.16667 -0.39583,0.25 -0.6875,0.25h-5.34375v4.65625h7.45313c0.29167,0 0.52083,0.08333 0.6875,0.25c0.17708,0.15625 0.26563,0.36458 0.26563,0.625c0,0.28125 -0.08854,0.50521 -0.26562,0.67188c-0.16667,0.16667 -0.39583,0.25 -0.6875,0.25zM257.49885,188.85152c-0.27083,0 -0.5,-0.09375 -0.6875,-0.28125c-0.1875,-0.1875 -0.28125,-0.41667 -0.28125,-0.6875v-12.625c0,-0.29167 0.09375,-0.52604 0.28125,-0.70312c0.1875,-0.1875 0.41667,-0.28125 0.6875,-0.28125h3.35938c0.9375,0 1.76563,0.19792 2.48438,0.59375c0.71875,0.39583 1.28125,0.9375 1.6875,1.625c0.40625,0.67708 0.60938,1.46875 0.60938,2.375c0,0.84375 -0.20312,1.59896 -0.60937,2.26563c-0.40625,0.65625 -0.96875,1.17188 -1.6875,1.54688c-0.71875,0.375 -1.54687,0.5625 -2.48437,0.5625h-2.375v4.64063c0,0.27083 -0.09375,0.5 -0.28125,0.6875c-0.17708,0.1875 -0.41146,0.28125 -0.70312,0.28125zM265.24885,188.85152c-0.17708,0 -0.33854,-0.03646 -0.48437,-0.10937c-0.13542,-0.07292 -0.25521,-0.19271 -0.35937,-0.35937l-3.35937,-5.40625l1.89063,-0.54687l3.0625,4.92188c0.21875,0.36458 0.24479,0.70833 0.07813,1.03125c-0.15625,0.3125 -0.43229,0.46875 -0.82812,0.46875zM258.48322,181.44527h2.375c0.57292,0 1.07813,-0.10937 1.51563,-0.32812c0.4375,-0.21875 0.78125,-0.52083 1.03125,-0.90625c0.25,-0.39583 0.375,-0.84375 0.375,-1.34375c0,-0.54167 -0.125,-1.02604 -0.375,-1.45312c-0.25,-0.42708 -0.59375,-0.75521 -1.03125,-0.98437c-0.4375,-0.23958 -0.94271,-0.35937 -1.51562,-0.35937h-2.375zM276.8965,188.85152c-0.22917,0 -0.43229,-0.06771 -0.60937,-0.20312c-0.16667,-0.13542 -0.28646,-0.32292 -0.35937,-0.5625l-3.75,-12.46875c-0.125,-0.40625 -0.11979,-0.72917 0.01563,-0.96875c0.14583,-0.25 0.38021,-0.375 0.70313,-0.375c0.20833,0 0.40104,0.0625 0.57813,0.1875c0.17708,0.11458 0.30208,0.29688 0.375,0.54688l3.26563,11.375h-0.40625l3.01563,-11.26562c0.05208,-0.1875 0.16146,-0.34375 0.32813,-0.46875c0.17708,-0.125 0.38021,-0.1875 0.60938,-0.1875c0.19792,0 0.38542,0.05729 0.5625,0.17188c0.1875,0.10417 0.30208,0.26042 0.34375,0.46875l3.04688,11.28125h-0.375l3.28125,-11.46875c0.125,-0.42708 0.44271,-0.64062 0.95313,-0.64062c0.35417,0 0.57813,0.13542 0.67188,0.40625c0.10417,0.27083 0.10417,0.58333 0,0.9375l-3.75,12.45313c-0.08333,0.23958 -0.21354,0.43229 -0.39062,0.57813c-0.16667,0.13542 -0.35937,0.20313 -0.57812,0.20313c-0.23958,0 -0.44271,-0.07292 -0.60937,-0.21875c-0.16667,-0.15625 -0.28646,-0.33854 -0.35937,-0.54687l-3,-11.60937h0.4375l-3.03125,11.59375c-0.09375,0.23958 -0.22396,0.43229 -0.39062,0.57813c-0.16667,0.13542 -0.35937,0.20313 -0.57812,0.20313zM292.25546,188.85152c-0.27083,0 -0.5,-0.09375 -0.6875,-0.28125c-0.1875,-0.1875 -0.28125,-0.41667 -0.28125,-0.6875v-12.625c0,-0.29167 0.09375,-0.52604 0.28125,-0.70312c0.1875,-0.1875 0.41667,-0.28125 0.6875,-0.28125c0.29167,0 0.52604,0.09375 0.70313,0.28125c0.1875,0.17708 0.28125,0.41146 0.28125,0.70313v12.625c0,0.27083 -0.09375,0.5 -0.28125,0.6875c-0.17708,0.1875 -0.41146,0.28125 -0.70312,0.28125zM297.91133,188.85152c-0.27083,0 -0.5,-0.09375 -0.6875,-0.28125c-0.17708,-0.1875 -0.26562,-0.41667 -0.26562,-0.6875v-12.625c0,-0.29167 0.08854,-0.52604 0.26563,-0.70312c0.1875,-0.1875 0.41667,-0.28125 0.6875,-0.28125c0.30208,0 0.55208,0.11979 0.75,0.35938l8.14063,10.82813v-10.20312c0,-0.29167 0.08854,-0.52604 0.26563,-0.70312c0.1875,-0.1875 0.42188,-0.28125 0.70313,-0.28125c0.28125,0 0.51042,0.09375 0.6875,0.28125c0.17708,0.17708 0.26563,0.41146 0.26563,0.70313v12.625c0,0.27083 -0.08854,0.5 -0.26562,0.6875c-0.17708,0.1875 -0.40625,0.28125 -0.6875,0.28125c-0.125,0 -0.26042,-0.02604 -0.40625,-0.07812c-0.14583,-0.0625 -0.26042,-0.14583 -0.34375,-0.25l-8.14062,-10.82812v10.1875c0,0.27083 -0.08854,0.5 -0.26562,0.6875c-0.17708,0.1875 -0.41146,0.28125 -0.70312,0.28125zM317.08355,189.03902c-0.80208,0 -1.5625,-0.125 -2.28125,-0.375c-0.71875,-0.25 -1.34896,-0.59896 -1.89062,-1.04687c-0.53125,-0.44792 -0.92187,-0.96354 -1.17187,-1.54687c-0.125,-0.26042 -0.125,-0.5 0,-0.71875c0.13542,-0.22917 0.35938,-0.375 0.67188,-0.4375c0.22917,-0.05208 0.44792,-0.01562 0.65625,0.10938c0.21875,0.11458 0.38542,0.29167 0.5,0.53125c0.14583,0.3125 0.39063,0.59896 0.73438,0.85938c0.34375,0.26042 0.75521,0.47396 1.23438,0.64063c0.48958,0.15625 1.00521,0.23438 1.54688,0.23438c0.59375,0 1.14063,-0.09375 1.64063,-0.28125c0.51042,-0.1875 0.91667,-0.45833 1.21875,-0.8125c0.3125,-0.35417 0.46875,-0.79167 0.46875,-1.3125c0,-0.66667 -0.26042,-1.26042 -0.78125,-1.78125c-0.51042,-0.52083 -1.35417,-0.84375 -2.53125,-0.96875c-1.54167,-0.14583 -2.75521,-0.59896 -3.64062,-1.35937c-0.88542,-0.76042 -1.32812,-1.69792 -1.32812,-2.8125c0,-0.82292 0.22917,-1.52083 0.6875,-2.09375c0.45833,-0.57292 1.08333,-1.00521 1.875,-1.29687c0.79167,-0.30208 1.67188,-0.45312 2.64063,-0.45312c0.76042,0 1.42188,0.10417 1.98438,0.3125c0.57292,0.20833 1.06771,0.5 1.48438,0.875c0.42708,0.375 0.79688,0.81771 1.10938,1.32813c0.16667,0.27083 0.23438,0.53125 0.20313,0.78125c-0.02083,0.23958 -0.14062,0.42708 -0.35937,0.5625c-0.22917,0.14583 -0.48437,0.17708 -0.76562,0.09375c-0.27083,-0.08333 -0.47396,-0.24479 -0.60937,-0.48437c-0.19792,-0.36458 -0.44271,-0.67187 -0.73437,-0.92187c-0.28125,-0.25 -0.61458,-0.44271 -1,-0.57812c-0.38542,-0.14583 -0.83854,-0.21875 -1.35937,-0.21875c-0.92708,-0.01042 -1.70312,0.16146 -2.32812,0.51563c-0.61458,0.35417 -0.92187,0.89583 -0.92187,1.625c0,0.375 0.09375,0.73438 0.28125,1.07813c0.19792,0.34375 0.55208,0.64063 1.0625,0.89063c0.52083,0.25 1.26563,0.42188 2.23438,0.51563c1.47917,0.14583 2.63021,0.59896 3.45313,1.35938c0.83333,0.75 1.25,1.73958 1.25,2.96875c0,0.70833 -0.14583,1.32292 -0.4375,1.84375c-0.29167,0.52083 -0.68229,0.96354 -1.17187,1.32813c-0.48958,0.35417 -1.05208,0.61979 -1.6875,0.79688c-0.625,0.16667 -1.27083,0.25 -1.9375,0.25zM325.63781,185.3984c-0.27083,0 -0.5,-0.09375 -0.6875,-0.28125c-0.17708,-0.19792 -0.26562,-0.42187 -0.26562,-0.67187v-9.1875c0,-0.28125 0.08854,-0.51562 0.26563,-0.70312c0.1875,-0.1875 0.41667,-0.28125 0.6875,-0.28125c0.27083,0 0.49479,0.09375 0.67188,0.28125c0.1875,0.1875 0.28125,0.42188 0.28125,0.70313v9.1875c0,0.26042 -0.09896,0.48438 -0.29687,0.67188c-0.1875,0.1875 -0.40625,0.28125 -0.65625,0.28125zM325.63781,188.85152c-0.34375,0 -0.64583,-0.125 -0.90625,-0.375c-0.25,-0.25 -0.375,-0.55208 -0.375,-0.90625c0,-0.36458 0.125,-0.67187 0.375,-0.92187c0.26042,-0.26042 0.5625,-0.39062 0.90625,-0.39062c0.36458,0 0.66667,0.13021 0.90625,0.39063c0.25,0.25 0.375,0.55729 0.375,0.92188c0,0.35417 -0.125,0.65625 -0.375,0.90625c-0.25,0.25 -0.55208,0.375 -0.90625,0.375z" fill="url(#color-1)" stroke="url(#color-2)" stroke-width="4"/><path d="M160.28404,185.78903c-1,0 -1.94271,-0.1875 -2.82812,-0.5625c-0.875,-0.38542 -1.64062,-0.91667 -2.29687,-1.59375c-0.64583,-0.67708 -1.15625,-1.46875 -1.53125,-2.375c-0.36458,-0.90625 -0.54687,-1.89062 -0.54687,-2.95312c0,-1.04167 0.18229,-2.01042 0.54688,-2.90625c0.375,-0.90625 0.88542,-1.69792 1.53125,-2.375c0.65625,-0.67708 1.41667,-1.20833 2.28125,-1.59375c0.875,-0.38542 1.82292,-0.57812 2.84375,-0.57812c0.95833,0 1.78125,0.125 2.46875,0.375c0.69792,0.23958 1.39583,0.64583 2.09375,1.21875c0.09375,0.07292 0.16667,0.15104 0.21875,0.23438c0.0625,0.08333 0.10417,0.16667 0.125,0.25c0.02083,0.07292 0.03125,0.16667 0.03125,0.28125c0,0.23958 -0.08854,0.4375 -0.26562,0.59375c-0.16667,0.15625 -0.36979,0.24479 -0.60937,0.26563c-0.22917,0.01042 -0.45833,-0.06771 -0.6875,-0.23437c-0.45833,-0.40625 -0.93229,-0.71354 -1.42187,-0.92187c-0.48958,-0.20833 -1.14062,-0.3125 -1.95312,-0.3125c-0.72917,0 -1.41667,0.15104 -2.0625,0.45313c-0.64583,0.29167 -1.21875,0.69792 -1.71875,1.21875c-0.48958,0.52083 -0.86979,1.13021 -1.14062,1.82813c-0.27083,0.6875 -0.40625,1.42188 -0.40625,2.20313c0,0.80208 0.13542,1.54688 0.40625,2.23438c0.27083,0.6875 0.65104,1.29167 1.14063,1.8125c0.5,0.52083 1.07292,0.93229 1.71875,1.23438c0.64583,0.29167 1.33333,0.4375 2.0625,0.4375c0.63542,0 1.23438,-0.10937 1.79688,-0.32812c0.57292,-0.21875 1.11979,-0.52083 1.64063,-0.90625c0.21875,-0.16667 0.4375,-0.23958 0.65625,-0.21875c0.21875,0.02083 0.40104,0.10938 0.54688,0.26563c0.15625,0.15625 0.23438,0.36979 0.23438,0.64063c0,0.125 -0.02604,0.25 -0.07812,0.375c-0.05208,0.11458 -0.125,0.21875 -0.21875,0.3125c-0.67708,0.53125 -1.40104,0.9375 -2.17187,1.21875c-0.76042,0.27083 -1.5625,0.40625 -2.40625,0.40625zM174.98308,185.78903c-1.09375,0 -2.09375,-0.18229 -3,-0.54687c-0.90625,-0.375 -1.6875,-0.89062 -2.34375,-1.54687c-0.64583,-0.66667 -1.15104,-1.45833 -1.51562,-2.375c-0.36458,-0.91667 -0.54687,-1.92187 -0.54687,-3.01562c0,-1.09375 0.18229,-2.09375 0.54688,-3c0.36458,-0.90625 0.86979,-1.69271 1.51563,-2.35937c0.65625,-0.66667 1.4375,-1.18229 2.34375,-1.54687c0.90625,-0.36458 1.90625,-0.54687 3,-0.54687c1.10417,0 2.10417,0.18229 3,0.54688c0.90625,0.36458 1.6875,0.88021 2.34375,1.54688c0.65625,0.66667 1.16146,1.45313 1.51563,2.35938c0.36458,0.90625 0.54688,1.90625 0.54688,3c0,1.09375 -0.18229,2.09896 -0.54687,3.01563c-0.35417,0.91667 -0.85937,1.70833 -1.51562,2.375c-0.65625,0.65625 -1.4375,1.17188 -2.34375,1.54688c-0.89583,0.36458 -1.89583,0.54688 -3,0.54688zM174.98308,184.03903c0.8125,0 1.55729,-0.14583 2.23438,-0.4375c0.67708,-0.29167 1.26563,-0.69792 1.76563,-1.21875c0.5,-0.52083 0.88021,-1.125 1.14063,-1.8125c0.27083,-0.69792 0.40625,-1.45312 0.40625,-2.26562c0,-0.80208 -0.13542,-1.55208 -0.40625,-2.25c-0.26042,-0.69792 -0.64062,-1.30208 -1.14062,-1.8125c-0.5,-0.52083 -1.08854,-0.92187 -1.76562,-1.20312c-0.67708,-0.29167 -1.42187,-0.4375 -2.23437,-0.4375c-0.80208,0 -1.54167,0.14583 -2.21875,0.4375c-0.67708,0.28125 -1.26562,0.68229 -1.76562,1.20313c-0.48958,0.51042 -0.86979,1.11458 -1.14062,1.8125c-0.27083,0.69792 -0.40625,1.44792 -0.40625,2.25c0,0.8125 0.13542,1.56771 0.40625,2.26563c0.27083,0.6875 0.65104,1.29167 1.14063,1.8125c0.5,0.52083 1.08854,0.92708 1.76563,1.21875c0.67708,0.29167 1.41667,0.4375 2.21875,0.4375zM186.39985,185.60153c-0.27083,0 -0.5,-0.09375 -0.6875,-0.28125c-0.1875,-0.1875 -0.28125,-0.41667 -0.28125,-0.6875v-12.625c0,-0.29167 0.09375,-0.52604 0.28125,-0.70312c0.1875,-0.1875 0.41667,-0.28125 0.6875,-0.28125c0.375,0 0.66146,0.17708 0.85938,0.53125l5.84375,11.70313h-0.59375l5.6875,-11.70312c0.19792,-0.35417 0.48438,-0.53125 0.85938,-0.53125c0.27083,0 0.5,0.09375 0.6875,0.28125c0.1875,0.17708 0.28125,0.41146 0.28125,0.70313v12.625c0,0.27083 -0.09896,0.5 -0.29687,0.6875c-0.1875,0.1875 -0.41146,0.28125 -0.67187,0.28125c-0.27083,0 -0.5,-0.09375 -0.6875,-0.28125c-0.1875,-0.1875 -0.28125,-0.41667 -0.28125,-0.6875v-9.9375l0.375,-0.09375l-4.89062,9.95313c-0.20833,0.32292 -0.48958,0.48438 -0.84375,0.48438c-0.40625,0 -0.70312,-0.19271 -0.89062,-0.57812l-4.82812,-9.6875l0.375,-0.07812v9.9375c0,0.27083 -0.09375,0.5 -0.28125,0.6875c-0.1875,0.1875 -0.42187,0.28125 -0.70312,0.28125zM204.72029,185.60153c-0.27083,0 -0.5,-0.09375 -0.6875,-0.28125c-0.1875,-0.1875 -0.28125,-0.41667 -0.28125,-0.6875v-12.625c0,-0.29167 0.09375,-0.52604 0.28125,-0.70312c0.1875,-0.1875 0.41667,-0.28125 0.6875,-0.28125h3.73438c0.9375,0 1.76563,0.20833 2.48438,0.625c0.71875,0.40625 1.28125,0.97396 1.6875,1.70313c0.40625,0.72917 0.60938,1.56771 0.60938,2.51563c0,0.90625 -0.20312,1.71354 -0.60937,2.42188c-0.40625,0.70833 -0.96875,1.26042 -1.6875,1.65625c-0.71875,0.39583 -1.54687,0.59375 -2.48437,0.59375h-2.75v4.09375c0,0.27083 -0.09375,0.5 -0.28125,0.6875c-0.17708,0.1875 -0.41146,0.28125 -0.70312,0.28125zM205.70466,178.75778h2.75c0.57292,0 1.07813,-0.125 1.51563,-0.375c0.4375,-0.25 0.78125,-0.59375 1.03125,-1.03125c0.25,-0.4375 0.375,-0.93229 0.375,-1.48437c0,-0.60417 -0.125,-1.13021 -0.375,-1.57812c-0.25,-0.45833 -0.59375,-0.81771 -1.03125,-1.07812c-0.4375,-0.26042 -0.94271,-0.39062 -1.51562,-0.39062h-2.75zM221.48376,185.89841c-1.19792,0 -2.25521,-0.21875 -3.17187,-0.65625c-0.91667,-0.44792 -1.63542,-1.0625 -2.15625,-1.84375c-0.52083,-0.78125 -0.78125,-1.67708 -0.78125,-2.6875v-8.70312c0,-0.29167 0.09375,-0.52604 0.28125,-0.70312c0.1875,-0.1875 0.41667,-0.28125 0.6875,-0.28125c0.29167,0 0.52604,0.09375 0.70313,0.28125c0.1875,0.17708 0.28125,0.41146 0.28125,0.70313v8.70313c0,0.67708 0.17708,1.27604 0.53125,1.79688c0.35417,0.51042 0.84375,0.91146 1.46875,1.20313c0.625,0.29167 1.34375,0.4375 2.15625,0.4375c0.78125,0 1.47396,-0.14583 2.07813,-0.4375c0.60417,-0.29167 1.07813,-0.69271 1.42188,-1.20312c0.34375,-0.52083 0.51563,-1.11979 0.51563,-1.79687v-8.70312c0,-0.29167 0.08854,-0.52604 0.26563,-0.70312c0.1875,-0.1875 0.42188,-0.28125 0.70313,-0.28125c0.28125,0 0.51042,0.09375 0.6875,0.28125c0.17708,0.17708 0.26563,0.41146 0.26563,0.70313v8.70313c0,1.01042 -0.25521,1.90625 -0.76562,2.6875c-0.5,0.78125 -1.19792,1.39583 -2.09375,1.84375c-0.89583,0.4375 -1.92187,0.65625 -3.07812,0.65625zM235.45143,185.60153c-0.27083,0 -0.5,-0.09375 -0.6875,-0.28125c-0.1875,-0.1875 -0.28125,-0.41667 -0.28125,-0.6875v-13.60937h1.9375v13.60938c0,0.27083 -0.09375,0.5 -0.28125,0.6875c-0.1875,0.1875 -0.41667,0.28125 -0.6875,0.28125zM230.45143,172.82028c-0.26042,0 -0.47396,-0.08333 -0.64062,-0.25c-0.16667,-0.16667 -0.25,-0.38021 -0.25,-0.64062c0,-0.26042 0.08333,-0.47396 0.25,-0.64062c0.16667,-0.17708 0.38021,-0.26562 0.64063,-0.26562h9.98438c0.26042,0 0.47396,0.08854 0.64063,0.26563c0.16667,0.16667 0.25,0.38021 0.25,0.64063c0,0.26042 -0.08333,0.47396 -0.25,0.64063c-0.16667,0.16667 -0.38021,0.25 -0.64062,0.25zM244.43947,185.60153c-0.27083,0 -0.5,-0.09375 -0.6875,-0.28125c-0.1875,-0.1875 -0.28125,-0.41667 -0.28125,-0.6875v-12.625c0,-0.29167 0.09375,-0.52604 0.28125,-0.70312c0.1875,-0.1875 0.41667,-0.28125 0.6875,-0.28125h8.4375c0.29167,0 0.52083,0.08854 0.6875,0.26563c0.17708,0.16667 0.26563,0.38542 0.26563,0.65625c0,0.26042 -0.08854,0.47396 -0.26562,0.64063c-0.16667,0.15625 -0.39583,0.23438 -0.6875,0.23438h-7.45312v4.53125h5.34375c0.29167,0 0.52083,0.08333 0.6875,0.25c0.17708,0.16667 0.26563,0.38542 0.26563,0.65625c0,0.26042 -0.08854,0.47396 -0.26562,0.64063c-0.16667,0.16667 -0.39583,0.25 -0.6875,0.25h-5.34375v4.65625h7.45313c0.29167,0 0.52083,0.08333 0.6875,0.25c0.17708,0.15625 0.26563,0.36458 0.26563,0.625c0,0.28125 -0.08854,0.50521 -0.26562,0.67188c-0.16667,0.16667 -0.39583,0.25 -0.6875,0.25zM257.49884,185.60153c-0.27083,0 -0.5,-0.09375 -0.6875,-0.28125c-0.1875,-0.1875 -0.28125,-0.41667 -0.28125,-0.6875v-12.625c0,-0.29167 0.09375,-0.52604 0.28125,-0.70312c0.1875,-0.1875 0.41667,-0.28125 0.6875,-0.28125h3.35938c0.9375,0 1.76563,0.19792 2.48438,0.59375c0.71875,0.39583 1.28125,0.9375 1.6875,1.625c0.40625,0.67708 0.60938,1.46875 0.60938,2.375c0,0.84375 -0.20312,1.59896 -0.60937,2.26563c-0.40625,0.65625 -0.96875,1.17188 -1.6875,1.54688c-0.71875,0.375 -1.54687,0.5625 -2.48437,0.5625h-2.375v4.64063c0,0.27083 -0.09375,0.5 -0.28125,0.6875c-0.17708,0.1875 -0.41146,0.28125 -0.70312,0.28125zM265.24884,185.60153c-0.17708,0 -0.33854,-0.03646 -0.48437,-0.10937c-0.13542,-0.07292 -0.25521,-0.19271 -0.35937,-0.35937l-3.35937,-5.40625l1.89063,-0.54687l3.0625,4.92188c0.21875,0.36458 0.24479,0.70833 0.07813,1.03125c-0.15625,0.3125 -0.43229,0.46875 -0.82812,0.46875zM258.48322,178.19528h2.375c0.57292,0 1.07813,-0.10937 1.51563,-0.32812c0.4375,-0.21875 0.78125,-0.52083 1.03125,-0.90625c0.25,-0.39583 0.375,-0.84375 0.375,-1.34375c0,-0.54167 -0.125,-1.02604 -0.375,-1.45312c-0.25,-0.42708 -0.59375,-0.75521 -1.03125,-0.98437c-0.4375,-0.23958 -0.94271,-0.35937 -1.51562,-0.35937h-2.375zM276.89652,185.60153c-0.22917,0 -0.43229,-0.06771 -0.60937,-0.20312c-0.16667,-0.13542 -0.28646,-0.32292 -0.35937,-0.5625l-3.75,-12.46875c-0.125,-0.40625 -0.11979,-0.72917 0.01563,-0.96875c0.14583,-0.25 0.38021,-0.375 0.70313,-0.375c0.20833,0 0.40104,0.0625 0.57813,0.1875c0.17708,0.11458 0.30208,0.29688 0.375,0.54688l3.26563,11.375h-0.40625l3.01563,-11.26562c0.05208,-0.1875 0.16146,-0.34375 0.32813,-0.46875c0.17708,-0.125 0.38021,-0.1875 0.60938,-0.1875c0.19792,0 0.38542,0.05729 0.5625,0.17188c0.1875,0.10417 0.30208,0.26042 0.34375,0.46875l3.04688,11.28125h-0.375l3.28125,-11.46875c0.125,-0.42708 0.44271,-0.64062 0.95313,-0.64062c0.35417,0 0.57813,0.13542 0.67188,0.40625c0.10417,0.27083 0.10417,0.58333 0,0.9375l-3.75,12.45313c-0.08333,0.23958 -0.21354,0.43229 -0.39062,0.57813c-0.16667,0.13542 -0.35937,0.20313 -0.57812,0.20313c-0.23958,0 -0.44271,-0.07292 -0.60937,-0.21875c-0.16667,-0.15625 -0.28646,-0.33854 -0.35937,-0.54687l-3,-11.60937h0.4375l-3.03125,11.59375c-0.09375,0.23958 -0.22396,0.43229 -0.39062,0.57813c-0.16667,0.13542 -0.35937,0.20313 -0.57812,0.20313zM292.25546,185.60153c-0.27083,0 -0.5,-0.09375 -0.6875,-0.28125c-0.1875,-0.1875 -0.28125,-0.41667 -0.28125,-0.6875v-12.625c0,-0.29167 0.09375,-0.52604 0.28125,-0.70312c0.1875,-0.1875 0.41667,-0.28125 0.6875,-0.28125c0.29167,0 0.52604,0.09375 0.70313,0.28125c0.1875,0.17708 0.28125,0.41146 0.28125,0.70313v12.625c0,0.27083 -0.09375,0.5 -0.28125,0.6875c-0.17708,0.1875 -0.41146,0.28125 -0.70312,0.28125zM297.91133,185.60153c-0.27083,0 -0.5,-0.09375 -0.6875,-0.28125c-0.17708,-0.1875 -0.26562,-0.41667 -0.26562,-0.6875v-12.625c0,-0.29167 0.08854,-0.52604 0.26563,-0.70312c0.1875,-0.1875 0.41667,-0.28125 0.6875,-0.28125c0.30208,0 0.55208,0.11979 0.75,0.35938l8.14063,10.82813v-10.20312c0,-0.29167 0.08854,-0.52604 0.26563,-0.70312c0.1875,-0.1875 0.42188,-0.28125 0.70313,-0.28125c0.28125,0 0.51042,0.09375 0.6875,0.28125c0.17708,0.17708 0.26563,0.41146 0.26563,0.70313v12.625c0,0.27083 -0.08854,0.5 -0.26562,0.6875c-0.17708,0.1875 -0.40625,0.28125 -0.6875,0.28125c-0.125,0 -0.26042,-0.02604 -0.40625,-0.07812c-0.14583,-0.0625 -0.26042,-0.14583 -0.34375,-0.25l-8.14062,-10.82812v10.1875c0,0.27083 -0.08854,0.5 -0.26562,0.6875c-0.17708,0.1875 -0.41146,0.28125 -0.70312,0.28125zM317.08356,185.78903c-0.80208,0 -1.5625,-0.125 -2.28125,-0.375c-0.71875,-0.25 -1.34896,-0.59896 -1.89062,-1.04687c-0.53125,-0.44792 -0.92187,-0.96354 -1.17187,-1.54687c-0.125,-0.26042 -0.125,-0.5 0,-0.71875c0.13542,-0.22917 0.35938,-0.375 0.67188,-0.4375c0.22917,-0.05208 0.44792,-0.01562 0.65625,0.10938c0.21875,0.11458 0.38542,0.29167 0.5,0.53125c0.14583,0.3125 0.39063,0.59896 0.73438,0.85938c0.34375,0.26042 0.75521,0.47396 1.23438,0.64063c0.48958,0.15625 1.00521,0.23438 1.54688,0.23438c0.59375,0 1.14063,-0.09375 1.64063,-0.28125c0.51042,-0.1875 0.91667,-0.45833 1.21875,-0.8125c0.3125,-0.35417 0.46875,-0.79167 0.46875,-1.3125c0,-0.66667 -0.26042,-1.26042 -0.78125,-1.78125c-0.51042,-0.52083 -1.35417,-0.84375 -2.53125,-0.96875c-1.54167,-0.14583 -2.75521,-0.59896 -3.64062,-1.35937c-0.88542,-0.76042 -1.32812,-1.69792 -1.32812,-2.8125c0,-0.82292 0.22917,-1.52083 0.6875,-2.09375c0.45833,-0.57292 1.08333,-1.00521 1.875,-1.29687c0.79167,-0.30208 1.67188,-0.45312 2.64063,-0.45312c0.76042,0 1.42188,0.10417 1.98438,0.3125c0.57292,0.20833 1.06771,0.5 1.48438,0.875c0.42708,0.375 0.79688,0.81771 1.10938,1.32813c0.16667,0.27083 0.23438,0.53125 0.20313,0.78125c-0.02083,0.23958 -0.14062,0.42708 -0.35937,0.5625c-0.22917,0.14583 -0.48437,0.17708 -0.76562,0.09375c-0.27083,-0.08333 -0.47396,-0.24479 -0.60937,-0.48437c-0.19792,-0.36458 -0.44271,-0.67187 -0.73437,-0.92187c-0.28125,-0.25 -0.61458,-0.44271 -1,-0.57812c-0.38542,-0.14583 -0.83854,-0.21875 -1.35937,-0.21875c-0.92708,-0.01042 -1.70312,0.16146 -2.32812,0.51563c-0.61458,0.35417 -0.92187,0.89583 -0.92187,1.625c0,0.375 0.09375,0.73438 0.28125,1.07813c0.19792,0.34375 0.55208,0.64063 1.0625,0.89063c0.52083,0.25 1.26563,0.42188 2.23438,0.51563c1.47917,0.14583 2.63021,0.59896 3.45313,1.35938c0.83333,0.75 1.25,1.73958 1.25,2.96875c0,0.70833 -0.14583,1.32292 -0.4375,1.84375c-0.29167,0.52083 -0.68229,0.96354 -1.17187,1.32813c-0.48958,0.35417 -1.05208,0.61979 -1.6875,0.79688c-0.625,0.16667 -1.27083,0.25 -1.9375,0.25zM325.63782,182.14841c-0.27083,0 -0.5,-0.09375 -0.6875,-0.28125c-0.17708,-0.19792 -0.26562,-0.42187 -0.26562,-0.67187v-9.1875c0,-0.28125 0.08854,-0.51562 0.26563,-0.70312c0.1875,-0.1875 0.41667,-0.28125 0.6875,-0.28125c0.27083,0 0.49479,0.09375 0.67188,0.28125c0.1875,0.1875 0.28125,0.42188 0.28125,0.70313v9.1875c0,0.26042 -0.09896,0.48438 -0.29687,0.67188c-0.1875,0.1875 -0.40625,0.28125 -0.65625,0.28125zM325.63782,185.60153c-0.34375,0 -0.64583,-0.125 -0.90625,-0.375c-0.25,-0.25 -0.375,-0.55208 -0.375,-0.90625c0,-0.36458 0.125,-0.67187 0.375,-0.92187c0.26042,-0.26042 0.5625,-0.39062 0.90625,-0.39062c0.36458,0 0.66667,0.13021 0.90625,0.39063c0.25,0.25 0.375,0.55729 0.375,0.92188c0,0.35417 -0.125,0.65625 -0.375,0.90625c-0.25,0.25 -0.55208,0.375 -0.90625,0.375z" fill="#9966ff" stroke="#28123b" stroke-width="4"/><path d="M160.28406,185.78903c-1,0 -1.94271,-0.1875 -2.82812,-0.5625c-0.875,-0.38542 -1.64062,-0.91667 -2.29687,-1.59375c-0.64583,-0.67708 -1.15625,-1.46875 -1.53125,-2.375c-0.36458,-0.90625 -0.54687,-1.89062 -0.54687,-2.95312c0,-1.04167 0.18229,-2.01042 0.54688,-2.90625c0.375,-0.90625 0.88542,-1.69792 1.53125,-2.375c0.65625,-0.67708 1.41667,-1.20833 2.28125,-1.59375c0.875,-0.38542 1.82292,-0.57812 2.84375,-0.57812c0.95833,0 1.78125,0.125 2.46875,0.375c0.69792,0.23958 1.39583,0.64583 2.09375,1.21875c0.09375,0.07292 0.16667,0.15104 0.21875,0.23438c0.0625,0.08333 0.10417,0.16667 0.125,0.25c0.02083,0.07292 0.03125,0.16667 0.03125,0.28125c0,0.23958 -0.08854,0.4375 -0.26562,0.59375c-0.16667,0.15625 -0.36979,0.24479 -0.60937,0.26563c-0.22917,0.01042 -0.45833,-0.06771 -0.6875,-0.23437c-0.45833,-0.40625 -0.93229,-0.71354 -1.42187,-0.92187c-0.48958,-0.20833 -1.14062,-0.3125 -1.95312,-0.3125c-0.72917,0 -1.41667,0.15104 -2.0625,0.45313c-0.64583,0.29167 -1.21875,0.69792 -1.71875,1.21875c-0.48958,0.52083 -0.86979,1.13021 -1.14062,1.82813c-0.27083,0.6875 -0.40625,1.42188 -0.40625,2.20313c0,0.80208 0.13542,1.54688 0.40625,2.23438c0.27083,0.6875 0.65104,1.29167 1.14063,1.8125c0.5,0.52083 1.07292,0.93229 1.71875,1.23438c0.64583,0.29167 1.33333,0.4375 2.0625,0.4375c0.63542,0 1.23438,-0.10937 1.79688,-0.32812c0.57292,-0.21875 1.11979,-0.52083 1.64063,-0.90625c0.21875,-0.16667 0.4375,-0.23958 0.65625,-0.21875c0.21875,0.02083 0.40104,0.10938 0.54688,0.26563c0.15625,0.15625 0.23438,0.36979 0.23438,0.64063c0,0.125 -0.02604,0.25 -0.07812,0.375c-0.05208,0.11458 -0.125,0.21875 -0.21875,0.3125c-0.67708,0.53125 -1.40104,0.9375 -2.17187,1.21875c-0.76042,0.27083 -1.5625,0.40625 -2.40625,0.40625zM174.9831,185.78903c-1.09375,0 -2.09375,-0.18229 -3,-0.54687c-0.90625,-0.375 -1.6875,-0.89062 -2.34375,-1.54687c-0.64583,-0.66667 -1.15104,-1.45833 -1.51562,-2.375c-0.36458,-0.91667 -0.54687,-1.92187 -0.54687,-3.01562c0,-1.09375 0.18229,-2.09375 0.54688,-3c0.36458,-0.90625 0.86979,-1.69271 1.51563,-2.35937c0.65625,-0.66667 1.4375,-1.18229 2.34375,-1.54687c0.90625,-0.36458 1.90625,-0.54687 3,-0.54687c1.10417,0 2.10417,0.18229 3,0.54688c0.90625,0.36458 1.6875,0.88021 2.34375,1.54688c0.65625,0.66667 1.16146,1.45313 1.51563,2.35938c0.36458,0.90625 0.54688,1.90625 0.54688,3c0,1.09375 -0.18229,2.09896 -0.54687,3.01563c-0.35417,0.91667 -0.85937,1.70833 -1.51562,2.375c-0.65625,0.65625 -1.4375,1.17188 -2.34375,1.54688c-0.89583,0.36458 -1.89583,0.54688 -3,0.54688zM174.9831,184.03903c0.8125,0 1.55729,-0.14583 2.23438,-0.4375c0.67708,-0.29167 1.26563,-0.69792 1.76563,-1.21875c0.5,-0.52083 0.88021,-1.125 1.14063,-1.8125c0.27083,-0.69792 0.40625,-1.45312 0.40625,-2.26562c0,-0.80208 -0.13542,-1.55208 -0.40625,-2.25c-0.26042,-0.69792 -0.64062,-1.30208 -1.14062,-1.8125c-0.5,-0.52083 -1.08854,-0.92187 -1.76562,-1.20312c-0.67708,-0.29167 -1.42187,-0.4375 -2.23437,-0.4375c-0.80208,0 -1.54167,0.14583 -2.21875,0.4375c-0.67708,0.28125 -1.26562,0.68229 -1.76562,1.20313c-0.48958,0.51042 -0.86979,1.11458 -1.14062,1.8125c-0.27083,0.69792 -0.40625,1.44792 -0.40625,2.25c0,0.8125 0.13542,1.56771 0.40625,2.26563c0.27083,0.6875 0.65104,1.29167 1.14063,1.8125c0.5,0.52083 1.08854,0.92708 1.76563,1.21875c0.67708,0.29167 1.41667,0.4375 2.21875,0.4375zM186.39986,185.60153c-0.27083,0 -0.5,-0.09375 -0.6875,-0.28125c-0.1875,-0.1875 -0.28125,-0.41667 -0.28125,-0.6875v-12.625c0,-0.29167 0.09375,-0.52604 0.28125,-0.70312c0.1875,-0.1875 0.41667,-0.28125 0.6875,-0.28125c0.375,0 0.66146,0.17708 0.85938,0.53125l5.84375,11.70313h-0.59375l5.6875,-11.70312c0.19792,-0.35417 0.48438,-0.53125 0.85938,-0.53125c0.27083,0 0.5,0.09375 0.6875,0.28125c0.1875,0.17708 0.28125,0.41146 0.28125,0.70313v12.625c0,0.27083 -0.09896,0.5 -0.29687,0.6875c-0.1875,0.1875 -0.41146,0.28125 -0.67187,0.28125c-0.27083,0 -0.5,-0.09375 -0.6875,-0.28125c-0.1875,-0.1875 -0.28125,-0.41667 -0.28125,-0.6875v-9.9375l0.375,-0.09375l-4.89062,9.95313c-0.20833,0.32292 -0.48958,0.48438 -0.84375,0.48438c-0.40625,0 -0.70312,-0.19271 -0.89062,-0.57812l-4.82812,-9.6875l0.375,-0.07812v9.9375c0,0.27083 -0.09375,0.5 -0.28125,0.6875c-0.1875,0.1875 -0.42187,0.28125 -0.70312,0.28125zM204.72031,185.60153c-0.27083,0 -0.5,-0.09375 -0.6875,-0.28125c-0.1875,-0.1875 -0.28125,-0.41667 -0.28125,-0.6875v-12.625c0,-0.29167 0.09375,-0.52604 0.28125,-0.70312c0.1875,-0.1875 0.41667,-0.28125 0.6875,-0.28125h3.73438c0.9375,0 1.76563,0.20833 2.48438,0.625c0.71875,0.40625 1.28125,0.97396 1.6875,1.70313c0.40625,0.72917 0.60938,1.56771 0.60938,2.51563c0,0.90625 -0.20312,1.71354 -0.60937,2.42188c-0.40625,0.70833 -0.96875,1.26042 -1.6875,1.65625c-0.71875,0.39583 -1.54687,0.59375 -2.48437,0.59375h-2.75v4.09375c0,0.27083 -0.09375,0.5 -0.28125,0.6875c-0.17708,0.1875 -0.41146,0.28125 -0.70312,0.28125zM205.70467,178.75778h2.75c0.57292,0 1.07813,-0.125 1.51563,-0.375c0.4375,-0.25 0.78125,-0.59375 1.03125,-1.03125c0.25,-0.4375 0.375,-0.93229 0.375,-1.48437c0,-0.60417 -0.125,-1.13021 -0.375,-1.57812c-0.25,-0.45833 -0.59375,-0.81771 -1.03125,-1.07812c-0.4375,-0.26042 -0.94271,-0.39062 -1.51562,-0.39062h-2.75zM221.48377,185.89841c-1.19792,0 -2.25521,-0.21875 -3.17187,-0.65625c-0.91667,-0.44792 -1.63542,-1.0625 -2.15625,-1.84375c-0.52083,-0.78125 -0.78125,-1.67708 -0.78125,-2.6875v-8.70312c0,-0.29167 0.09375,-0.52604 0.28125,-0.70312c0.1875,-0.1875 0.41667,-0.28125 0.6875,-0.28125c0.29167,0 0.52604,0.09375 0.70313,0.28125c0.1875,0.17708 0.28125,0.41146 0.28125,0.70313v8.70313c0,0.67708 0.17708,1.27604 0.53125,1.79688c0.35417,0.51042 0.84375,0.91146 1.46875,1.20313c0.625,0.29167 1.34375,0.4375 2.15625,0.4375c0.78125,0 1.47396,-0.14583 2.07813,-0.4375c0.60417,-0.29167 1.07813,-0.69271 1.42188,-1.20312c0.34375,-0.52083 0.51563,-1.11979 0.51563,-1.79687v-8.70312c0,-0.29167 0.08854,-0.52604 0.26563,-0.70312c0.1875,-0.1875 0.42188,-0.28125 0.70313,-0.28125c0.28125,0 0.51042,0.09375 0.6875,0.28125c0.17708,0.17708 0.26563,0.41146 0.26563,0.70313v8.70313c0,1.01042 -0.25521,1.90625 -0.76562,2.6875c-0.5,0.78125 -1.19792,1.39583 -2.09375,1.84375c-0.89583,0.4375 -1.92187,0.65625 -3.07812,0.65625zM235.45144,185.60153c-0.27083,0 -0.5,-0.09375 -0.6875,-0.28125c-0.1875,-0.1875 -0.28125,-0.41667 -0.28125,-0.6875v-13.60937h1.9375v13.60938c0,0.27083 -0.09375,0.5 -0.28125,0.6875c-0.1875,0.1875 -0.41667,0.28125 -0.6875,0.28125zM230.45144,172.82028c-0.26042,0 -0.47396,-0.08333 -0.64062,-0.25c-0.16667,-0.16667 -0.25,-0.38021 -0.25,-0.64062c0,-0.26042 0.08333,-0.47396 0.25,-0.64062c0.16667,-0.17708 0.38021,-0.26562 0.64063,-0.26562h9.98438c0.26042,0 0.47396,0.08854 0.64063,0.26563c0.16667,0.16667 0.25,0.38021 0.25,0.64063c0,0.26042 -0.08333,0.47396 -0.25,0.64063c-0.16667,0.16667 -0.38021,0.25 -0.64062,0.25zM244.43948,185.60153c-0.27083,0 -0.5,-0.09375 -0.6875,-0.28125c-0.1875,-0.1875 -0.28125,-0.41667 -0.28125,-0.6875v-12.625c0,-0.29167 0.09375,-0.52604 0.28125,-0.70312c0.1875,-0.1875 0.41667,-0.28125 0.6875,-0.28125h8.4375c0.29167,0 0.52083,0.08854 0.6875,0.26563c0.17708,0.16667 0.26563,0.38542 0.26563,0.65625c0,0.26042 -0.08854,0.47396 -0.26562,0.64063c-0.16667,0.15625 -0.39583,0.23438 -0.6875,0.23438h-7.45312v4.53125h5.34375c0.29167,0 0.52083,0.08333 0.6875,0.25c0.17708,0.16667 0.26563,0.38542 0.26563,0.65625c0,0.26042 -0.08854,0.47396 -0.26562,0.64063c-0.16667,0.16667 -0.39583,0.25 -0.6875,0.25h-5.34375v4.65625h7.45313c0.29167,0 0.52083,0.08333 0.6875,0.25c0.17708,0.15625 0.26563,0.36458 0.26563,0.625c0,0.28125 -0.08854,0.50521 -0.26562,0.67188c-0.16667,0.16667 -0.39583,0.25 -0.6875,0.25zM257.49885,185.60153c-0.27083,0 -0.5,-0.09375 -0.6875,-0.28125c-0.1875,-0.1875 -0.28125,-0.41667 -0.28125,-0.6875v-12.625c0,-0.29167 0.09375,-0.52604 0.28125,-0.70312c0.1875,-0.1875 0.41667,-0.28125 0.6875,-0.28125h3.35938c0.9375,0 1.76563,0.19792 2.48438,0.59375c0.71875,0.39583 1.28125,0.9375 1.6875,1.625c0.40625,0.67708 0.60938,1.46875 0.60938,2.375c0,0.84375 -0.20312,1.59896 -0.60937,2.26563c-0.40625,0.65625 -0.96875,1.17188 -1.6875,1.54688c-0.71875,0.375 -1.54687,0.5625 -2.48437,0.5625h-2.375v4.64063c0,0.27083 -0.09375,0.5 -0.28125,0.6875c-0.17708,0.1875 -0.41146,0.28125 -0.70312,0.28125zM265.24885,185.60153c-0.17708,0 -0.33854,-0.03646 -0.48437,-0.10937c-0.13542,-0.07292 -0.25521,-0.19271 -0.35937,-0.35937l-3.35937,-5.40625l1.89063,-0.54687l3.0625,4.92188c0.21875,0.36458 0.24479,0.70833 0.07813,1.03125c-0.15625,0.3125 -0.43229,0.46875 -0.82812,0.46875zM258.48321,178.19528h2.375c0.57292,0 1.07813,-0.10937 1.51563,-0.32812c0.4375,-0.21875 0.78125,-0.52083 1.03125,-0.90625c0.25,-0.39583 0.375,-0.84375 0.375,-1.34375c0,-0.54167 -0.125,-1.02604 -0.375,-1.45312c-0.25,-0.42708 -0.59375,-0.75521 -1.03125,-0.98437c-0.4375,-0.23958 -0.94271,-0.35937 -1.51562,-0.35937h-2.375zM276.89652,185.60153c-0.22917,0 -0.43229,-0.06771 -0.60937,-0.20312c-0.16667,-0.13542 -0.28646,-0.32292 -0.35937,-0.5625l-3.75,-12.46875c-0.125,-0.40625 -0.11979,-0.72917 0.01563,-0.96875c0.14583,-0.25 0.38021,-0.375 0.70313,-0.375c0.20833,0 0.40104,0.0625 0.57813,0.1875c0.17708,0.11458 0.30208,0.29688 0.375,0.54688l3.26563,11.375h-0.40625l3.01563,-11.26562c0.05208,-0.1875 0.16146,-0.34375 0.32813,-0.46875c0.17708,-0.125 0.38021,-0.1875 0.60938,-0.1875c0.19792,0 0.38542,0.05729 0.5625,0.17188c0.1875,0.10417 0.30208,0.26042 0.34375,0.46875l3.04688,11.28125h-0.375l3.28125,-11.46875c0.125,-0.42708 0.44271,-0.64062 0.95313,-0.64062c0.35417,0 0.57813,0.13542 0.67188,0.40625c0.10417,0.27083 0.10417,0.58333 0,0.9375l-3.75,12.45313c-0.08333,0.23958 -0.21354,0.43229 -0.39062,0.57813c-0.16667,0.13542 -0.35937,0.20313 -0.57812,0.20313c-0.23958,0 -0.44271,-0.07292 -0.60937,-0.21875c-0.16667,-0.15625 -0.28646,-0.33854 -0.35937,-0.54687l-3,-11.60937h0.4375l-3.03125,11.59375c-0.09375,0.23958 -0.22396,0.43229 -0.39062,0.57813c-0.16667,0.13542 -0.35937,0.20313 -0.57812,0.20313zM292.25547,185.60153c-0.27083,0 -0.5,-0.09375 -0.6875,-0.28125c-0.1875,-0.1875 -0.28125,-0.41667 -0.28125,-0.6875v-12.625c0,-0.29167 0.09375,-0.52604 0.28125,-0.70312c0.1875,-0.1875 0.41667,-0.28125 0.6875,-0.28125c0.29167,0 0.52604,0.09375 0.70313,0.28125c0.1875,0.17708 0.28125,0.41146 0.28125,0.70313v12.625c0,0.27083 -0.09375,0.5 -0.28125,0.6875c-0.17708,0.1875 -0.41146,0.28125 -0.70312,0.28125zM297.91132,185.60153c-0.27083,0 -0.5,-0.09375 -0.6875,-0.28125c-0.17708,-0.1875 -0.26562,-0.41667 -0.26562,-0.6875v-12.625c0,-0.29167 0.08854,-0.52604 0.26563,-0.70312c0.1875,-0.1875 0.41667,-0.28125 0.6875,-0.28125c0.30208,0 0.55208,0.11979 0.75,0.35938l8.14063,10.82813v-10.20312c0,-0.29167 0.08854,-0.52604 0.26563,-0.70312c0.1875,-0.1875 0.42188,-0.28125 0.70313,-0.28125c0.28125,0 0.51042,0.09375 0.6875,0.28125c0.17708,0.17708 0.26563,0.41146 0.26563,0.70313v12.625c0,0.27083 -0.08854,0.5 -0.26562,0.6875c-0.17708,0.1875 -0.40625,0.28125 -0.6875,0.28125c-0.125,0 -0.26042,-0.02604 -0.40625,-0.07812c-0.14583,-0.0625 -0.26042,-0.14583 -0.34375,-0.25l-8.14062,-10.82812v10.1875c0,0.27083 -0.08854,0.5 -0.26562,0.6875c-0.17708,0.1875 -0.41146,0.28125 -0.70312,0.28125zM317.08355,185.78903c-0.80208,0 -1.5625,-0.125 -2.28125,-0.375c-0.71875,-0.25 -1.34896,-0.59896 -1.89062,-1.04687c-0.53125,-0.44792 -0.92187,-0.96354 -1.17187,-1.54687c-0.125,-0.26042 -0.125,-0.5 0,-0.71875c0.13542,-0.22917 0.35938,-0.375 0.67188,-0.4375c0.22917,-0.05208 0.44792,-0.01562 0.65625,0.10938c0.21875,0.11458 0.38542,0.29167 0.5,0.53125c0.14583,0.3125 0.39063,0.59896 0.73438,0.85938c0.34375,0.26042 0.75521,0.47396 1.23438,0.64063c0.48958,0.15625 1.00521,0.23438 1.54688,0.23438c0.59375,0 1.14063,-0.09375 1.64063,-0.28125c0.51042,-0.1875 0.91667,-0.45833 1.21875,-0.8125c0.3125,-0.35417 0.46875,-0.79167 0.46875,-1.3125c0,-0.66667 -0.26042,-1.26042 -0.78125,-1.78125c-0.51042,-0.52083 -1.35417,-0.84375 -2.53125,-0.96875c-1.54167,-0.14583 -2.75521,-0.59896 -3.64062,-1.35937c-0.88542,-0.76042 -1.32812,-1.69792 -1.32812,-2.8125c0,-0.82292 0.22917,-1.52083 0.6875,-2.09375c0.45833,-0.57292 1.08333,-1.00521 1.875,-1.29687c0.79167,-0.30208 1.67188,-0.45312 2.64063,-0.45312c0.76042,0 1.42188,0.10417 1.98438,0.3125c0.57292,0.20833 1.06771,0.5 1.48438,0.875c0.42708,0.375 0.79688,0.81771 1.10938,1.32813c0.16667,0.27083 0.23438,0.53125 0.20313,0.78125c-0.02083,0.23958 -0.14062,0.42708 -0.35937,0.5625c-0.22917,0.14583 -0.48437,0.17708 -0.76562,0.09375c-0.27083,-0.08333 -0.47396,-0.24479 -0.60937,-0.48437c-0.19792,-0.36458 -0.44271,-0.67187 -0.73437,-0.92187c-0.28125,-0.25 -0.61458,-0.44271 -1,-0.57812c-0.38542,-0.14583 -0.83854,-0.21875 -1.35937,-0.21875c-0.92708,-0.01042 -1.70312,0.16146 -2.32812,0.51563c-0.61458,0.35417 -0.92187,0.89583 -0.92187,1.625c0,0.375 0.09375,0.73438 0.28125,1.07813c0.19792,0.34375 0.55208,0.64063 1.0625,0.89063c0.52083,0.25 1.26563,0.42188 2.23438,0.51563c1.47917,0.14583 2.63021,0.59896 3.45313,1.35938c0.83333,0.75 1.25,1.73958 1.25,2.96875c0,0.70833 -0.14583,1.32292 -0.4375,1.84375c-0.29167,0.52083 -0.68229,0.96354 -1.17187,1.32813c-0.48958,0.35417 -1.05208,0.61979 -1.6875,0.79688c-0.625,0.16667 -1.27083,0.25 -1.9375,0.25zM325.63781,182.14841c-0.27083,0 -0.5,-0.09375 -0.6875,-0.28125c-0.17708,-0.19792 -0.26562,-0.42187 -0.26562,-0.67187v-9.1875c0,-0.28125 0.08854,-0.51562 0.26563,-0.70312c0.1875,-0.1875 0.41667,-0.28125 0.6875,-0.28125c0.27083,0 0.49479,0.09375 0.67188,0.28125c0.1875,0.1875 0.28125,0.42188 0.28125,0.70313v9.1875c0,0.26042 -0.09896,0.48438 -0.29687,0.67188c-0.1875,0.1875 -0.40625,0.28125 -0.65625,0.28125zM325.63781,185.60153c-0.34375,0 -0.64583,-0.125 -0.90625,-0.375c-0.25,-0.25 -0.375,-0.55208 -0.375,-0.90625c0,-0.36458 0.125,-0.67187 0.375,-0.92187c0.26042,-0.26042 0.5625,-0.39062 0.90625,-0.39062c0.36458,0 0.66667,0.13021 0.90625,0.39063c0.25,0.25 0.375,0.55729 0.375,0.92188c0,0.35417 -0.125,0.65625 -0.375,0.90625c-0.25,0.25 -0.55208,0.375 -0.90625,0.375z" fill="#a97fff" stroke="#a97fff" stroke-width="0.5"/></g></g></svg>