<svg version="1.1" xmlns="http://www.w3.org/2000/svg" xmlns:xlink="http://www.w3.org/1999/xlink" width="8.00605" height="8.00605" viewBox="0,0,8.00605,8.00605"><g transform="translate(-235.99697,-175.99697)"><g data-paper-data="{&quot;isPaintingLayer&quot;:true}" fill-rule="nonzero" stroke-linecap="butt" stroke-linejoin="miter" stroke-miterlimit="10" stroke-dasharray="" stroke-dashoffset="0" style="mix-blend-mode: normal"><path d="M237.44438,183.08093c-1.70156,-1.41144 -1.93674,-3.935 -0.52531,-5.63655c1.41144,-1.70156 3.935,-1.93674 5.63655,-0.52531c1.70156,1.41144 1.93674,3.935 0.52531,5.63655c-1.41144,1.70156 -3.935,1.93674 -5.63655,0.52531z" fill="#28123b" stroke="none" stroke-width="0"/><path d="M238.42518,181.89852c-1.04852,-0.86975 -1.19345,-2.42482 -0.3237,-3.47335c0.86975,-1.04852 2.42482,-1.19345 3.47335,-0.3237c1.04852,0.86975 1.19346,2.42482 0.3237,3.47335c-0.86975,1.04852 -2.42482,1.19346 -3.47335,0.3237z" fill="none" stroke="#8b4fff" stroke-width="1.5"/><path d="M238.71429,180c0,-0.71008 0.57564,-1.28572 1.28572,-1.28572c0.71008,0 1.28572,0.57564 1.28572,1.28572c0,0.71008 -0.57564,1.28572 -1.28572,1.28572c-0.71008,0 -1.28572,-0.57564 -1.28572,-1.28572z" fill="#8b4fff" stroke="none" stroke-width="0"/><path d="M239.42857,180c0,-0.31559 0.25584,-0.57143 0.57143,-0.57143c0.31559,0 0.57143,0.25584 0.57143,0.57143c0,0.31559 -0.25584,0.57143 -0.57143,0.57143c-0.31559,0 -0.57143,-0.25584 -0.57143,-0.57143z" fill="none" stroke="#28123b" stroke-width="0.5"/><path d="M238.42517,181.89852c-1.04852,-0.86975 -1.19345,-2.42482 -0.3237,-3.47335c0.86975,-1.04852 2.42482,-1.19345 3.47335,-0.3237c1.04852,0.86975 1.19346,2.42482 0.3237,3.47335c-0.86975,1.04852 -2.42482,1.19346 -3.47335,0.3237z" fill="none" stroke="#28123b" stroke-width="0.5"/></g></g></svg>