<svg version="1.1" xmlns="http://www.w3.org/2000/svg" xmlns:xlink="http://www.w3.org/1999/xlink" width="8.75023" height="4.64308" viewBox="0,0,8.75023,4.64308"><g transform="translate(-235.62488,-177.67846)"><g data-paper-data="{&quot;isPaintingLayer&quot;:true}" fill-rule="nonzero" stroke-width="0" stroke-linecap="butt" stroke-linejoin="miter" stroke-miterlimit="10" stroke-dasharray="" stroke-dashoffset="0" style="mix-blend-mode: normal"><path d="M237.20682,181.78678c-1.85972,-0.81855 -2.11676,-2.2821 -0.57413,-3.26891c1.54263,-0.98681 4.30077,-1.1232 6.16049,-0.30465c1.85972,0.81855 2.11676,2.2821 0.57413,3.26891c-1.54263,0.98681 -4.30077,1.1232 -6.16049,0.30465z" fill="#28123b" stroke="none"/><g stroke="#000000"><g data-paper-data="{&quot;index&quot;:null}"><path d="M237.80182,181.20978c-0.17993,-0.09244 -0.00173,-0.00691 -0.00173,-0.00691l4.37621,-2.41243c0,0 -0.0982,-0.04707 0.01759,0.01242c1.25258,0.64356 1.2848,1.70407 0.07197,2.36873c-1.21283,0.66465 -3.21145,0.68175 -4.46404,0.03819z" fill="#57a0ff"/><path d="M237.81911,181.21261c0,0 0.16685,0.09175 -0.01308,-0.00069c-1.25258,-0.64356 -1.2848,-1.70407 -0.07197,-2.36873c1.21283,-0.66465 3.21145,-0.68175 4.46404,-0.03819c0.11579,0.05949 0.02396,0.00892 0.02396,0.00892l-4.40296,2.39869z" data-paper-data="{&quot;index&quot;:null}" fill="#ff647e"/></g><path d="M239.85055,180.05475l2.32568,-1.28206c0,0 -0.09821,-0.04707 0.01759,0.01242c1.25258,0.64356 1.28481,1.70407 0.07197,2.36873c-0.08205,0.04497 -0.10473,0.05522 -0.10473,0.05522z" data-paper-data="{&quot;index&quot;:null}" fill="#75b1ff"/><path d="M237.65507,178.88664c0,0 0.01857,-0.01236 0.10056,-0.05736c1.21195,-0.66512 3.21054,-0.68297 4.46399,-0.03988c0.11587,0.05945 0.02398,0.00892 0.02398,0.00892l-2.33819,1.27564z" data-paper-data="{&quot;index&quot;:null}" fill="#ff8096"/></g></g></g></svg>