<svg version="1.1" xmlns="http://www.w3.org/2000/svg" xmlns:xlink="http://www.w3.org/1999/xlink" width="137.84951" height="119.73293" viewBox="0,0,137.84951,119.73293"><defs><linearGradient x1="-118.34158" y1="1378.32937" x2="-83.55845" y2="-331.93269" gradientUnits="userSpaceOnUse" id="color-1"><stop offset="0" stop-color="#000000"/><stop offset="1" stop-color="#000000" stop-opacity="0"/></linearGradient><linearGradient x1="177.32525" y1="224.49169" x2="177.32525" y2="123.25854" gradientUnits="userSpaceOnUse" id="color-2"><stop offset="0" stop-color="#000000"/><stop offset="1" stop-color="#000000" stop-opacity="0"/></linearGradient><linearGradient x1="177.32525" y1="224.49169" x2="177.32525" y2="123.25854" gradientUnits="userSpaceOnUse" id="color-3"><stop offset="0" stop-color="#000000"/><stop offset="1" stop-color="#000000" stop-opacity="0"/></linearGradient><linearGradient x1="261.42535" y1="227.88297" x2="261.42535" y2="245.60001" gradientUnits="userSpaceOnUse" id="color-4"><stop offset="0" stop-color="#000000"/><stop offset="1" stop-color="#000000" stop-opacity="0"/></linearGradient><linearGradient x1="261.42535" y1="227.88297" x2="261.42535" y2="245.60001" gradientUnits="userSpaceOnUse" id="color-5"><stop offset="0" stop-color="#000000"/><stop offset="1" stop-color="#000000" stop-opacity="0"/></linearGradient><linearGradient x1="255.3253" y1="185.63101" x2="266.39379" y2="178.56601" gradientUnits="userSpaceOnUse" id="color-6"><stop offset="0" stop-color="#000000" stop-opacity="0"/><stop offset="1" stop-color="#000000" stop-opacity="0"/></linearGradient></defs><g transform="translate(-171.07525,-117.00854)"><g data-paper-data="{&quot;isPaintingLayer&quot;:true}" fill-rule="nonzero" stroke-linejoin="miter" stroke-miterlimit="10" stroke-dasharray="" stroke-dashoffset="0" style="mix-blend-mode: normal"><path d="M302.67476,201.60411c0,0 -0.95922,26.95911 -31.93166,27.66239c-19.1928,0.4358 -92.19814,0 -92.19814,0" data-paper-data="{&quot;index&quot;:null}" fill="none" stroke="#28123b" stroke-width="12.5" stroke-linecap="round"/><path d="M297.68277,134.34258l2.61817,87.2816l-122.65311,4.15485l0.96904,-98.60731z" data-paper-data="{&quot;index&quot;:null}" fill="url(#color-1)" stroke="none" stroke-width="0" stroke-linecap="butt"/><path d="M177.32525,123.25854v101.23316" data-paper-data="{&quot;index&quot;:null}" fill="url(#color-2)" stroke="url(#color-3)" stroke-width="12.5" stroke-linecap="round"/><path d="M178.16503,236.74147" data-paper-data="{&quot;index&quot;:null}" fill="url(#color-4)" stroke="url(#color-5)" stroke-width="12.5" stroke-linecap="round"/><path d="M177.45518,229.29724v-101.23315" data-paper-data="{&quot;index&quot;:null}" fill="none" stroke="#28123b" stroke-width="12.5" stroke-linecap="round"/><path d="M178.04496,127.0478c0,0 73.00534,-0.4358 92.19814,0c30.97244,0.70328 31.93166,27.66239 31.93166,27.66239" data-paper-data="{&quot;index&quot;:null}" fill="none" stroke="#28123b" stroke-width="12.5" stroke-linecap="round"/><path d="M302.59949,156.5856v43.69534" data-paper-data="{&quot;index&quot;:null}" fill="none" stroke="#28123b" stroke-width="12.5" stroke-linecap="round"/><path d="M177.45518,229.29724v-101.23315" data-paper-data="{&quot;index&quot;:null}" fill="none" stroke="#8b4fff" stroke-width="4.5" stroke-linecap="round"/><path d="M178.5138,127.0478c0,0 65.39676,0 88.21289,0c37.20288,0 35.91692,31.88207 35.91692,31.88207" data-paper-data="{&quot;index&quot;:null}" fill="none" stroke="#8b4fff" stroke-width="4.5" stroke-linecap="round"/><path d="M302.59949,198.03095c0,0 0,-25.41537 0,-33.00578c0,-1.66611 0,-6.79857 0,-6.79857" data-paper-data="{&quot;index&quot;:null}" fill="none" stroke="#8b4fff" stroke-width="4.5" stroke-linecap="round"/><path d="M215.68738,211.83222l49.1838,-32.80581" data-paper-data="{&quot;index&quot;:null}" fill="none" stroke="#28123b" stroke-width="13.5" stroke-linecap="round"/><path d="M215.67793,212.07378c0,0 38.26295,-25.52157 45.1752,-30.13207c2.05904,-1.37339 4.0086,-2.67375 4.0086,-2.67375" data-paper-data="{&quot;index&quot;:null}" fill="none" stroke="#ab80ff" stroke-width="5.5" stroke-linecap="round"/><path d="M266.79093,181.29259l-6.0731,4.0234l-3.90509,-3.88127l5.93592,-4.17174z" data-paper-data="{&quot;index&quot;:null}" fill="#8b4fff" stroke="none" stroke-width="NaN" stroke-linecap="butt"/><path d="M217.20383,145.52929l49.1838,32.80581" data-paper-data="{&quot;index&quot;:null}" fill="none" stroke="#28123b" stroke-width="13.5" stroke-linecap="round"/><path d="M266.3782,178.09355c0,0 -1.94955,-1.30036 -4.0086,-2.67375c-6.91225,-4.6105 -45.1752,-30.13207 -45.1752,-30.13207" data-paper-data="{&quot;index&quot;:null}" fill="none" stroke="#ab80ff" stroke-width="5.5" stroke-linecap="round"/><path d="M264.90643,176.23582l3.1907,4.1205l-11.28446,7.60491l-2.97473,-4.66042z" data-paper-data="{&quot;index&quot;:null}" fill="#ab80ff" stroke="url(#color-6)" stroke-width="0" stroke-linecap="butt"/><path d="M302.64363,197.5478c0,0 1.28596,31.88207 -35.91692,31.88207c-22.81613,0 -88.21289,0 -88.21289,0" data-paper-data="{&quot;index&quot;:null}" fill="none" stroke="#8b4fff" stroke-width="4.5" stroke-linecap="round"/></g></g></svg>