<svg version="1.1" xmlns="http://www.w3.org/2000/svg" xmlns:xlink="http://www.w3.org/1999/xlink" width="8.75" height="8.75" viewBox="0,0,8.75,8.75"><g transform="translate(-235.625,-175.625)"><g data-paper-data="{&quot;isPaintingLayer&quot;:true}" fill-rule="nonzero" stroke-linecap="butt" stroke-linejoin="miter" stroke-miterlimit="10" stroke-dasharray="" stroke-dashoffset="0" style="mix-blend-mode: normal"><path d="M235.625,180c0,-2.41625 1.95875,-4.375 4.375,-4.375c2.41625,0 4.375,1.95875 4.375,4.375c0,2.41625 -1.95875,4.375 -4.375,4.375c-2.41625,0 -4.375,-1.95875 -4.375,-4.375z" fill="#28123b" stroke="none" stroke-width="0"/><path d="M237.53333,180c0,-1.3623 1.10437,-2.46667 2.46667,-2.46667c1.3623,0 2.46667,1.10437 2.46667,2.46667c0,1.3623 -1.10436,2.46667 -2.46667,2.46667c-1.3623,0 -2.46667,-1.10436 -2.46667,-2.46667z" fill="#9965ff" stroke="#8b4fff" stroke-width="2"/><path d="M237.42857,180c0,-1.42016 1.15127,-2.57143 2.57143,-2.57143c1.42016,0 2.57143,1.15127 2.57143,2.57143c0,1.42016 -1.15127,2.57143 -2.57143,2.57143c-1.42016,0 -2.57143,-1.15127 -2.57143,-2.57143z" fill="#a172ff" stroke="none" stroke-width="0"/></g></g></svg>