<svg version="1.1" xmlns="http://www.w3.org/2000/svg" xmlns:xlink="http://www.w3.org/1999/xlink" width="872.3016" height="87.85813" viewBox="0,0,872.3016,87.85813"><defs><linearGradient x1="-40.98598" y1="178.16666" x2="237.51402" y2="178.16666" gradientUnits="userSpaceOnUse" id="color-1"><stop offset="0" stop-color="#000000" stop-opacity="0"/><stop offset="1" stop-color="#000000"/></linearGradient><linearGradient x1="-1419.70586" y1="-675.54973" x2="-1253.12521" y2="539.8731" gradientUnits="userSpaceOnUse" id="color-2"><stop offset="0" stop-color="#000000"/><stop offset="1" stop-color="#000000" stop-opacity="0"/></linearGradient><linearGradient x1="599.08551" y1="146.09726" x2="599.08551" y2="218.04018" gradientUnits="userSpaceOnUse" id="color-3"><stop offset="0" stop-color="#000000"/><stop offset="1" stop-color="#000000" stop-opacity="0"/></linearGradient><linearGradient x1="599.08551" y1="146.09726" x2="599.08551" y2="218.04018" gradientUnits="userSpaceOnUse" id="color-4"><stop offset="0" stop-color="#000000"/><stop offset="1" stop-color="#000000" stop-opacity="0"/></linearGradient><linearGradient x1="334.95323" y1="140.69988" x2="334.95323" y2="150.05007" gradientUnits="userSpaceOnUse" id="color-5"><stop offset="0" stop-color="#000000"/><stop offset="1" stop-color="#000000" stop-opacity="0"/></linearGradient><linearGradient x1="334.95323" y1="140.69988" x2="334.95323" y2="150.05007" gradientUnits="userSpaceOnUse" id="color-6"><stop offset="0" stop-color="#000000"/><stop offset="1" stop-color="#000000" stop-opacity="0"/></linearGradient><linearGradient x1="333.67108" y1="213.36505" x2="333.67108" y2="222.71525" gradientUnits="userSpaceOnUse" id="color-7"><stop offset="0" stop-color="#000000"/><stop offset="1" stop-color="#000000" stop-opacity="0"/></linearGradient><linearGradient x1="333.67108" y1="213.36505" x2="333.67108" y2="222.71525" gradientUnits="userSpaceOnUse" id="color-8"><stop offset="0" stop-color="#000000"/><stop offset="1" stop-color="#000000" stop-opacity="0"/></linearGradient><linearGradient x1="-262.63658" y1="142.07595" x2="73.44447" y2="142.07595" gradientUnits="userSpaceOnUse" id="color-9"><stop offset="0" stop-color="#8b4fff" stop-opacity="0"/><stop offset="1" stop-color="#8b4fff"/></linearGradient><linearGradient x1="-262.63658" y1="142.07595" x2="73.44447" y2="142.07595" gradientUnits="userSpaceOnUse" id="color-10"><stop offset="0" stop-color="#8b4fff" stop-opacity="0"/><stop offset="1" stop-color="#8b4fff"/></linearGradient><linearGradient x1="-263.96993" y1="214.74271" x2="72.11115" y2="214.74271" gradientUnits="userSpaceOnUse" id="color-11"><stop offset="0" stop-color="#8b4fff" stop-opacity="0"/><stop offset="1" stop-color="#8b4fff"/></linearGradient><linearGradient x1="-263.96993" y1="214.74271" x2="72.11115" y2="214.74271" gradientUnits="userSpaceOnUse" id="color-12"><stop offset="0" stop-color="#8b4fff" stop-opacity="0"/><stop offset="1" stop-color="#8b4fff"/></linearGradient><linearGradient x1="412.44875" y1="169.53361" x2="412.44875" y2="209.38444" gradientUnits="userSpaceOnUse" id="color-13"><stop offset="0" stop-color="#000000"/><stop offset="1" stop-color="#000000" stop-opacity="0"/></linearGradient><linearGradient x1="412.44875" y1="169.53361" x2="412.44875" y2="209.38444" gradientUnits="userSpaceOnUse" id="color-14"><stop offset="0" stop-color="#000000"/><stop offset="1" stop-color="#000000" stop-opacity="0"/></linearGradient></defs><g transform="translate(266.21987,-136.43205)"><g data-paper-data="{&quot;isPaintingLayer&quot;:true}" fill-rule="nonzero" stroke-linejoin="miter" stroke-miterlimit="10" stroke-dasharray="" stroke-dashoffset="0" style="mix-blend-mode: normal"><g><path d="M-83.986,214.41666l4,-71.25l77.5,0.5l5,70z" fill="url(#color-1)" stroke="none" stroke-width="0" stroke-linecap="butt"/><path d="M2.46375,213.60385l-4.64084,-70.07674l596.97878,-1.48895l3.02589,70.2006z" fill="url(#color-2)" stroke="none" stroke-width="0" stroke-linecap="butt"/><path d="M599.08551,146.09732v71.94283" data-paper-data="{&quot;index&quot;:null}" fill="url(#color-3)" stroke="url(#color-4)" stroke-width="12.5" stroke-linecap="round"/><path d="M599.83173,142.68205v71.94283" data-paper-data="{&quot;index&quot;:null}" fill="none" stroke="#28123b" stroke-width="12.5" stroke-linecap="round"/><path d="M74.01026,145.37502h521.88581" fill="url(#color-5)" stroke="url(#color-6)" stroke-width="12.5" stroke-linecap="round"/><path d="M72.72818,218.04018h521.8858" data-paper-data="{&quot;index&quot;:null}" fill="url(#color-7)" stroke="url(#color-8)" stroke-width="12.5" stroke-linecap="round"/><path d="M598.46393,141.95982h-523.90526" fill="none" stroke="#8b4fff" stroke-width="4.5" stroke-linecap="round"/><path d="M73.27653,214.96938h525.04295" data-paper-data="{&quot;index&quot;:null}" fill="none" stroke="#8b4fff" stroke-width="4.5" stroke-linecap="round"/><path d="M599.83173,142.68205v71.94283" data-paper-data="{&quot;index&quot;:null}" fill="none" stroke="#8b4fff" stroke-width="4.5" stroke-linecap="round"/><path d="M-262.63654,142.07595h336.08102" fill="url(#color-9)" stroke="url(#color-10)" stroke-width="4.5" stroke-linecap="round"/><path d="M-263.96987,214.74271h336.08102" fill="url(#color-11)" stroke="url(#color-12)" stroke-width="4.5" stroke-linecap="round"/></g><g stroke-linecap="square"><path d="M272.88929,209.09462c-2.64844,0 -5.14515,-0.49659 -7.49009,-1.48975c-2.31738,-1.02075 -4.34508,-2.42775 -6.08311,-4.22095c-1.71044,-1.7932 -3.06226,-3.88989 -4.05542,-6.29003c-0.96557,-2.40014 -1.44835,-5.00719 -1.44835,-7.82115c0,-2.75879 0.48278,-5.32447 1.44838,-7.69702c0.99316,-2.40014 2.34497,-4.49683 4.05542,-6.29003c1.73804,-1.7932 3.75197,-3.20018 6.04174,-4.22095c2.31738,-1.02075 4.82789,-1.53111 7.53149,-1.53111c2.53807,0 4.71753,0.33105 6.53833,0.99316c1.8484,0.63451 3.69677,1.71044 5.54517,3.22778c0.24829,0.19312 0.44141,0.40002 0.57934,0.62074c0.16553,0.22069 0.27589,0.44141 0.33105,0.6621c0.05517,0.19312 0.08276,0.44141 0.08276,0.74488c0,0.63451 -0.23449,1.15869 -0.70347,1.57251c-0.44141,0.41382 -0.97937,0.6483 -1.61388,0.7035c-0.60694,0.02759 -1.21385,-0.17933 -1.8208,-0.62072c-1.21385,-1.07593 -2.46911,-1.88977 -3.76573,-2.44151c-1.29663,-0.55175 -3.02086,-0.82763 -5.17271,-0.82763c-1.93116,0 -3.75197,0.40002 -5.4624,1.20008c-1.71044,0.77247 -3.22778,1.8484 -4.55199,3.22778c-1.29663,1.37939 -2.30359,2.99329 -3.02086,4.84169c-0.71728,1.8208 -1.07593,3.76576 -1.07593,5.83485c0,2.12426 0.35865,4.09681 1.07593,5.91762c0.71728,1.8208 1.72424,3.4209 3.02089,4.80029c1.32422,1.37939 2.84156,2.46911 4.55199,3.26918c1.71044,0.77247 3.53124,1.15869 5.4624,1.15869c1.68287,0 3.26918,-0.28966 4.75892,-0.869c1.51734,-0.57934 2.96569,-1.37939 4.34511,-2.40014c0.57934,-0.44141 1.15869,-0.63451 1.73804,-0.57934c0.57934,0.05517 1.06213,0.28969 1.44838,0.7035c0.41382,0.41382 0.62074,0.97937 0.62074,1.69667c0,0.33105 -0.06896,0.6621 -0.20689,0.99316c-0.13793,0.30346 -0.33105,0.57934 -0.57934,0.82763c-1.7932,1.40698 -3.71057,2.48291 -5.75205,3.22778c-2.01393,0.71728 -4.13818,1.07593 -6.3728,1.07593zM310.16349,209.38428c-3.17262,0 -5.97278,-0.57934 -8.40049,-1.73804c-2.42775,-1.18629 -4.33131,-2.81397 -5.71068,-4.88305c-1.37939,-2.0691 -2.0691,-4.44164 -2.0691,-7.11768v-23.04965c0,-0.77247 0.24829,-1.39318 0.74488,-1.86216c0.49659,-0.49659 1.10353,-0.74488 1.8208,-0.74488c0.77247,0 1.39318,0.24829 1.8622,0.74488c0.49659,0.46898 0.74488,1.08973 0.74488,1.8622v23.04968c0,1.7932 0.46898,3.37951 1.40698,4.75892c0.938,1.35181 2.23462,2.41395 3.88989,3.18642c1.65527,0.77247 3.55883,1.15869 5.71068,1.15869c2.0691,0 3.90369,-0.38622 5.5038,-1.15869c1.6001,-0.77247 2.85536,-1.8346 3.76576,-3.18638c0.9104,-1.37939 1.36561,-2.96569 1.36561,-4.75889v-23.04965c0,-0.77247 0.23449,-1.39318 0.7035,-1.86216c0.49659,-0.49659 1.11732,-0.74488 1.8622,-0.74488c0.74488,0 1.35181,0.24829 1.8208,0.74488c0.46898,0.46898 0.7035,1.08973 0.7035,1.8622v23.04968c0,2.67603 -0.67591,5.04858 -2.02769,7.11768c-1.32422,2.0691 -3.17262,3.69677 -5.54517,4.88305c-2.37255,1.15869 -5.08995,1.73804 -8.1522,1.73804zM348.02499,209.09462c-2.12426,0 -4.13818,-0.33105 -6.04174,-0.99316c-1.90356,-0.6621 -3.57264,-1.5863 -5.00719,-2.77257c-1.40698,-1.18629 -2.44151,-2.55187 -3.10362,-4.09679c-0.33105,-0.68971 -0.33105,-1.32422 0,-1.90356c0.35865,-0.60694 0.95179,-0.99316 1.77942,-1.15869c0.60694,-0.13793 1.18629,-0.04137 1.73804,0.28969c0.57934,0.30346 1.02075,0.77247 1.32422,1.40698c0.38622,0.82763 1.03456,1.5863 1.94496,2.27601c0.9104,0.68971 2.00012,1.25526 3.26918,1.69667c1.29663,0.41382 2.66223,0.62074 4.09681,0.62074c1.57251,0 3.02089,-0.24829 4.34511,-0.74488c1.35181,-0.49659 2.42775,-1.21385 3.22778,-2.15185c0.82763,-0.938 1.24145,-2.09668 1.24145,-3.47607c0,-1.76563 -0.68971,-3.33814 -2.0691,-4.71753c-1.35181,-1.37939 -3.58644,-2.23462 -6.70385,-2.56567c-4.08301,-0.38622 -7.297,-1.5863 -9.64196,-3.6002c-2.34497,-2.01393 -3.51744,-4.49683 -3.51744,-7.44872c0,-2.17945 0.60694,-4.02783 1.8208,-5.54517c1.21385,-1.51734 2.86913,-2.66223 4.96582,-3.43468c2.09668,-0.80004 4.42786,-1.20006 6.99354,-1.20006c2.01393,0 3.76576,0.27589 5.2555,0.82763c1.51734,0.55175 2.82777,1.32422 3.93129,2.31738c1.1311,0.99316 2.11048,2.16565 2.93812,3.51747c0.44141,0.71728 0.62074,1.40698 0.53798,2.0691c-0.05517,0.63451 -0.37243,1.1311 -0.95177,1.48975c-0.60694,0.38622 -1.28282,0.46898 -2.02769,0.24829c-0.71728,-0.22069 -1.25526,-0.6483 -1.61388,-1.28282c-0.52418,-0.96557 -1.17249,-1.7794 -1.94494,-2.44151c-0.74488,-0.6621 -1.62768,-1.17249 -2.64844,-1.53111c-1.02075,-0.38622 -2.22081,-0.57934 -3.6002,-0.57934c-2.45532,-0.02759 -4.5106,0.42762 -6.16588,1.36561c-1.62768,0.938 -2.44151,2.37255 -2.44151,4.3037c0,0.99316 0.24829,1.94496 0.74488,2.85536c0.52418,0.9104 1.46214,1.69667 2.81397,2.35877c1.37939,0.6621 3.35194,1.11732 5.91762,1.36561c3.91748,0.38622 6.96594,1.5863 9.14539,3.60023c2.20702,1.98632 3.31054,4.60717 3.31054,7.86255c0,1.87597 -0.38622,3.50367 -1.15869,4.88305c-0.77247,1.37939 -1.807,2.55187 -3.10362,3.51747c-1.29663,0.938 -2.78636,1.64147 -4.46924,2.11048c-1.65527,0.44141 -3.36571,0.6621 -5.13134,0.6621zM379.17251,208.59804c-0.71728,0 -1.32422,-0.24829 -1.8208,-0.74488c-0.49659,-0.49659 -0.74488,-1.10353 -0.74488,-1.8208v-36.04354h5.13134v36.04356c0,0.71728 -0.24829,1.32422 -0.74488,1.8208c-0.49659,0.49659 -1.10353,0.74488 -1.8208,0.74488zM365.93032,174.74772c-0.68971,0 -1.25526,-0.22069 -1.69665,-0.6621c-0.44141,-0.44141 -0.6621,-1.00696 -0.6621,-1.69665c0,-0.68971 0.22069,-1.25526 0.6621,-1.69665c0.44141,-0.46898 1.00696,-0.70347 1.69667,-0.70347h26.44299c0.68971,0 1.25526,0.23449 1.69667,0.7035c0.44141,0.44141 0.6621,1.00696 0.6621,1.69667c0,0.68971 -0.22069,1.25526 -0.6621,1.69667c-0.44141,0.44141 -1.00696,0.6621 -1.69665,0.6621zM415.77471,209.09462c-2.89673,0 -5.54517,-0.48278 -7.94531,-1.44835c-2.40014,-0.99316 -4.46924,-2.35875 -6.20727,-4.09679c-1.71044,-1.76563 -3.04846,-3.86229 -4.01402,-6.29003c-0.96557,-2.42775 -1.44835,-5.08995 -1.44835,-7.98668c0,-2.89673 0.48278,-5.54517 1.44838,-7.94531c0.96557,-2.40014 2.30359,-4.48303 4.01405,-6.24864c1.73804,-1.76563 3.80713,-3.13122 6.20727,-4.09679c2.40014,-0.96557 5.04858,-1.44835 7.94531,-1.44835c2.92432,0 5.57276,0.48278 7.94531,1.44838c2.40014,0.96557 4.46924,2.33118 6.20727,4.09681c1.73804,1.76563 3.07606,3.84852 4.01405,6.24866c0.96557,2.40014 1.44838,5.04858 1.44838,7.94531c0,2.89673 -0.48278,5.55896 -1.44835,7.9867c-0.938,2.42775 -2.27599,4.5244 -4.01402,6.29003c-1.73804,1.73804 -3.80713,3.10364 -6.20727,4.09681c-2.37255,0.96557 -5.02099,1.44838 -7.94531,1.44838zM415.77471,204.45986c2.15185,0 4.12438,-0.38622 5.91762,-1.15869c1.7932,-0.77247 3.35194,-1.8484 4.67615,-3.22778c1.32422,-1.37939 2.33118,-2.97948 3.02089,-4.80029c0.71728,-1.8484 1.07593,-3.8485 1.07593,-6.00035c0,-2.12426 -0.35865,-4.11058 -1.07593,-5.95898c-0.68971,-1.8484 -1.69665,-3.44848 -3.02086,-4.80029c-1.32422,-1.37939 -2.88293,-2.44151 -4.67613,-3.18638c-1.7932,-0.77247 -3.76573,-1.15869 -5.91758,-1.15869c-2.12426,0 -4.08301,0.38622 -5.87621,1.15869c-1.7932,0.74488 -3.35191,1.807 -4.67613,3.18642c-1.29663,1.35181 -2.30359,2.9519 -3.02086,4.80029c-0.71728,1.8484 -1.07593,3.83473 -1.07593,5.95898c0,2.15185 0.35865,4.15199 1.07593,6.00037c0.71728,1.8208 1.72424,3.4209 3.02089,4.80029c1.32422,1.37939 2.88293,2.45532 4.67615,3.22778c1.7932,0.77247 3.75197,1.15869 5.87621,1.15869zM446.01132,208.59804c-0.71728,0 -1.32422,-0.24829 -1.8208,-0.74488c-0.49659,-0.49659 -0.74488,-1.10353 -0.74488,-1.8208v-33.43651c0,-0.77247 0.24829,-1.39318 0.74488,-1.86216c0.49659,-0.49659 1.10353,-0.74488 1.8208,-0.74488c0.99316,0 1.75184,0.46898 2.27601,1.40698l15.4768,30.99498h-1.57251l15.06298,-30.99496c0.52418,-0.938 1.28285,-1.40698 2.27601,-1.40698c0.71728,0 1.32422,0.24829 1.8208,0.74488c0.49659,0.46898 0.74488,1.08973 0.74488,1.8622v33.43651c0,0.71728 -0.26208,1.32422 -0.78624,1.8208c-0.49659,0.49659 -1.08973,0.74488 -1.7794,0.74488c-0.71728,0 -1.32422,-0.24829 -1.8208,-0.74488c-0.49659,-0.49659 -0.74488,-1.10353 -0.74488,-1.8208v-26.31883l0.99316,-0.24829l-12.95249,26.36023c-0.55175,0.85524 -1.29663,1.28285 -2.23462,1.28285c-1.07593,0 -1.86216,-0.51038 -2.35875,-1.53111l-12.78697,-25.65672l0.99316,-0.20689v26.31883c0,0.71728 -0.24829,1.32422 -0.74488,1.8208c-0.49659,0.49659 -1.1173,0.74488 -1.86216,0.74488zM494.5318,208.59804c-0.71728,0 -1.32422,-0.24829 -1.8208,-0.74488c-0.49659,-0.49659 -0.74488,-1.10353 -0.74488,-1.8208v-33.43651c0,-0.77247 0.24829,-1.39318 0.74488,-1.86216c0.49659,-0.49659 1.10353,-0.74488 1.8208,-0.74488c0.77247,0 1.39318,0.24829 1.8622,0.74488c0.49659,0.46898 0.74488,1.08973 0.74488,1.8622v33.43651c0,0.71728 -0.24829,1.32422 -0.74488,1.8208c-0.46898,0.49659 -1.08973,0.74488 -1.86216,0.74488zM507.31782,208.59804c-0.77247,0 -1.37939,-0.24829 -1.8208,-0.74488c-0.44141,-0.49659 -0.68971,-1.06213 -0.74488,-1.69665c-0.05517,-0.63451 0.12416,-1.20006 0.53798,-1.69665l24.12561,-29.91903h-21.6013c-0.82763,0 -1.44835,-0.20689 -1.86216,-0.62072c-0.41382,-0.41382 -0.60694,-0.9242 -0.57934,-1.53111c-0.02759,-0.68971 0.20692,-1.25526 0.7035,-1.69665c0.49659,-0.46898 1.10353,-0.70347 1.8208,-0.70347h25.4912c0.74488,0 1.35181,0.23449 1.8208,0.7035c0.46898,0.46898 0.73108,1.02075 0.78626,1.65527c0.08276,0.63451 -0.09657,1.20008 -0.53796,1.69667l-24.24974,30.00183h22.18065c0.74488,0 1.35181,0.22069 1.8208,0.6621c0.46898,0.44141 0.7035,0.96557 0.7035,1.57251c0,0.71728 -0.23449,1.28285 -0.70347,1.69667c-0.46898,0.41382 -1.07593,0.62074 -1.8208,0.62074zM546.21466,208.59804c-0.71728,0 -1.32422,-0.24829 -1.8208,-0.74488c-0.49659,-0.49659 -0.74488,-1.10353 -0.74488,-1.8208v-33.43651c0,-0.77247 0.24829,-1.39318 0.74488,-1.86216c0.49659,-0.49659 1.10353,-0.74488 1.8208,-0.74488h22.34617c0.77247,0 1.37939,0.23449 1.8208,0.7035c0.46898,0.44141 0.7035,1.02075 0.7035,1.73804c0,0.68971 -0.23449,1.25526 -0.70347,1.69667c-0.44141,0.41382 -1.04833,0.62074 -1.8208,0.62074h-19.73912v12.00072h14.15258c0.77247,0 1.37939,0.22069 1.8208,0.6621c0.46898,0.44141 0.7035,1.02075 0.7035,1.73804c0,0.68971 -0.23449,1.25526 -0.70347,1.69667c-0.44141,0.44141 -1.04833,0.6621 -1.8208,0.6621h-14.15258v12.33178h19.73914c0.77247,0 1.37939,0.22069 1.8208,0.6621c0.46898,0.41382 0.7035,0.96557 0.7035,1.65527c0,0.74488 -0.23449,1.33801 -0.70347,1.77942c-0.44141,0.44141 -1.04833,0.6621 -1.8208,0.6621z" fill="url(#color-13)" stroke="url(#color-14)" stroke-width="13.5"/><path d="M272.88931,198.16517c-2.64844,0 -5.14515,-0.49659 -7.49009,-1.48975c-2.31738,-1.02075 -4.34508,-2.42775 -6.08311,-4.22095c-1.71044,-1.7932 -3.06226,-3.88989 -4.05542,-6.29003c-0.96557,-2.40014 -1.44835,-5.00719 -1.44835,-7.82115c0,-2.75879 0.48278,-5.32447 1.44838,-7.69702c0.99316,-2.40014 2.34497,-4.49683 4.05542,-6.29003c1.73804,-1.7932 3.75197,-3.20018 6.04174,-4.22095c2.31738,-1.02075 4.82789,-1.53111 7.53149,-1.53111c2.53807,0 4.71753,0.33105 6.53833,0.99316c1.8484,0.63451 3.69677,1.71044 5.54517,3.22778c0.24829,0.19312 0.44141,0.40002 0.57934,0.62074c0.16553,0.22069 0.27589,0.44141 0.33105,0.6621c0.05517,0.19312 0.08276,0.44141 0.08276,0.74488c0,0.63451 -0.23449,1.15869 -0.70347,1.57251c-0.44141,0.41382 -0.97937,0.6483 -1.61388,0.7035c-0.60694,0.02759 -1.21385,-0.17933 -1.8208,-0.62072c-1.21385,-1.07593 -2.46911,-1.88977 -3.76573,-2.44151c-1.29663,-0.55175 -3.02086,-0.82763 -5.17271,-0.82763c-1.93116,0 -3.75197,0.40002 -5.4624,1.20008c-1.71044,0.77247 -3.22778,1.8484 -4.55199,3.22778c-1.29663,1.37939 -2.30359,2.99329 -3.02086,4.84169c-0.71728,1.8208 -1.07593,3.76576 -1.07593,5.83485c0,2.12426 0.35865,4.09681 1.07593,5.91762c0.71728,1.8208 1.72424,3.4209 3.02089,4.80029c1.32422,1.37939 2.84156,2.46911 4.55199,3.26918c1.71044,0.77247 3.53124,1.15869 5.4624,1.15869c1.68287,0 3.26918,-0.28966 4.75892,-0.869c1.51734,-0.57934 2.96569,-1.37939 4.34511,-2.40014c0.57934,-0.44141 1.15869,-0.63451 1.73804,-0.57934c0.57934,0.05517 1.06213,0.28969 1.44838,0.7035c0.41382,0.41382 0.62074,0.97937 0.62074,1.69667c0,0.33105 -0.06896,0.6621 -0.20689,0.99316c-0.13793,0.30346 -0.33105,0.57934 -0.57934,0.82763c-1.7932,1.40698 -3.71057,2.48291 -5.75205,3.22778c-2.01393,0.71728 -4.13818,1.07593 -6.3728,1.07593zM310.16351,198.45482c-3.17262,0 -5.97278,-0.57934 -8.40049,-1.73804c-2.42775,-1.18629 -4.33131,-2.81397 -5.71068,-4.88305c-1.37939,-2.0691 -2.0691,-4.44164 -2.0691,-7.11768v-23.04965c0,-0.77247 0.24829,-1.39318 0.74488,-1.86216c0.49659,-0.49659 1.10353,-0.74488 1.8208,-0.74488c0.77247,0 1.39318,0.24829 1.8622,0.74488c0.49659,0.46898 0.74488,1.08973 0.74488,1.8622v23.04968c0,1.7932 0.46898,3.37951 1.40698,4.75892c0.938,1.35181 2.23462,2.41395 3.88989,3.18642c1.65527,0.77247 3.55883,1.15869 5.71068,1.15869c2.0691,0 3.90369,-0.38622 5.5038,-1.15869c1.6001,-0.77247 2.85536,-1.8346 3.76576,-3.18638c0.9104,-1.37939 1.36561,-2.96569 1.36561,-4.75889v-23.04965c0,-0.77247 0.23449,-1.39318 0.7035,-1.86216c0.49659,-0.49659 1.11732,-0.74488 1.8622,-0.74488c0.74488,0 1.35181,0.24829 1.8208,0.74488c0.46898,0.46898 0.7035,1.08973 0.7035,1.8622v23.04968c0,2.67603 -0.67591,5.04858 -2.02769,7.11768c-1.32422,2.0691 -3.17262,3.69677 -5.54517,4.88305c-2.37255,1.15869 -5.08995,1.73804 -8.1522,1.73804zM348.02502,198.16517c-2.12426,0 -4.13818,-0.33105 -6.04174,-0.99316c-1.90356,-0.6621 -3.57264,-1.5863 -5.00719,-2.77257c-1.40698,-1.18629 -2.44151,-2.55187 -3.10362,-4.09679c-0.33105,-0.68971 -0.33105,-1.32422 0,-1.90356c0.35865,-0.60694 0.95179,-0.99316 1.77942,-1.15869c0.60694,-0.13793 1.18629,-0.04137 1.73804,0.28969c0.57934,0.30346 1.02075,0.77247 1.32422,1.40698c0.38622,0.82763 1.03456,1.5863 1.94496,2.27601c0.9104,0.68971 2.00012,1.25526 3.26918,1.69667c1.29663,0.41382 2.66223,0.62074 4.09681,0.62074c1.57251,0 3.02089,-0.24829 4.34511,-0.74488c1.35181,-0.49659 2.42775,-1.21385 3.22778,-2.15185c0.82763,-0.938 1.24145,-2.09668 1.24145,-3.47607c0,-1.76563 -0.68971,-3.33814 -2.0691,-4.71753c-1.35181,-1.37939 -3.58644,-2.23462 -6.70385,-2.56567c-4.08301,-0.38622 -7.297,-1.5863 -9.64196,-3.6002c-2.34497,-2.01393 -3.51744,-4.49683 -3.51744,-7.44872c0,-2.17945 0.60694,-4.02783 1.8208,-5.54517c1.21385,-1.51734 2.86913,-2.66223 4.96582,-3.43468c2.09668,-0.80004 4.42786,-1.20006 6.99354,-1.20006c2.01393,0 3.76576,0.27589 5.2555,0.82763c1.51734,0.55175 2.82777,1.32422 3.93129,2.31738c1.1311,0.99316 2.11048,2.16565 2.93812,3.51747c0.44141,0.71728 0.62074,1.40698 0.53798,2.0691c-0.05517,0.63451 -0.37243,1.1311 -0.95177,1.48975c-0.60694,0.38622 -1.28282,0.46898 -2.02769,0.24829c-0.71728,-0.22069 -1.25526,-0.6483 -1.61388,-1.28282c-0.52418,-0.96557 -1.17249,-1.7794 -1.94494,-2.44151c-0.74488,-0.6621 -1.62768,-1.17249 -2.64844,-1.53111c-1.02075,-0.38622 -2.22081,-0.57934 -3.6002,-0.57934c-2.45532,-0.02759 -4.5106,0.42762 -6.16588,1.36561c-1.62768,0.938 -2.44151,2.37255 -2.44151,4.3037c0,0.99316 0.24829,1.94496 0.74488,2.85536c0.52418,0.9104 1.46214,1.69667 2.81397,2.35877c1.37939,0.6621 3.35194,1.11732 5.91762,1.36561c3.91748,0.38622 6.96594,1.5863 9.14539,3.60023c2.20702,1.98632 3.31054,4.60717 3.31054,7.86255c0,1.87597 -0.38622,3.50367 -1.15869,4.88305c-0.77247,1.37939 -1.807,2.55187 -3.10362,3.51747c-1.29663,0.938 -2.78636,1.64147 -4.46924,2.11048c-1.65527,0.44141 -3.36571,0.6621 -5.13134,0.6621zM379.17253,197.66859c-0.71728,0 -1.32422,-0.24829 -1.8208,-0.74488c-0.49659,-0.49659 -0.74488,-1.10353 -0.74488,-1.8208v-36.04354h5.13134v36.04356c0,0.71728 -0.24829,1.32422 -0.74488,1.8208c-0.49659,0.49659 -1.10353,0.74488 -1.8208,0.74488zM365.93035,163.81826c-0.68971,0 -1.25526,-0.22069 -1.69665,-0.6621c-0.44141,-0.44141 -0.6621,-1.00696 -0.6621,-1.69665c0,-0.68971 0.22069,-1.25526 0.6621,-1.69665c0.44141,-0.46898 1.00696,-0.70347 1.69667,-0.70347h26.44299c0.68971,0 1.25526,0.23449 1.69667,0.7035c0.44141,0.44141 0.6621,1.00696 0.6621,1.69667c0,0.68971 -0.22069,1.25526 -0.6621,1.69667c-0.44141,0.44141 -1.00696,0.6621 -1.69665,0.6621zM415.77474,198.16517c-2.89673,0 -5.54517,-0.48278 -7.94531,-1.44835c-2.40014,-0.99316 -4.46924,-2.35875 -6.20727,-4.09679c-1.71044,-1.76563 -3.04846,-3.86229 -4.01402,-6.29003c-0.96557,-2.42775 -1.44835,-5.08995 -1.44835,-7.98668c0,-2.89673 0.48278,-5.54517 1.44838,-7.94531c0.96557,-2.40014 2.30359,-4.48303 4.01405,-6.24864c1.73804,-1.76563 3.80713,-3.13122 6.20727,-4.09679c2.40014,-0.96557 5.04858,-1.44835 7.94531,-1.44835c2.92432,0 5.57276,0.48278 7.94531,1.44838c2.40014,0.96557 4.46924,2.33118 6.20727,4.09681c1.73804,1.76563 3.07606,3.84852 4.01405,6.24866c0.96557,2.40014 1.44838,5.04858 1.44838,7.94531c0,2.89673 -0.48278,5.55896 -1.44835,7.9867c-0.938,2.42775 -2.27599,4.5244 -4.01402,6.29003c-1.73804,1.73804 -3.80713,3.10364 -6.20727,4.09681c-2.37255,0.96557 -5.02099,1.44838 -7.94531,1.44838zM415.77474,193.5304c2.15185,0 4.12438,-0.38622 5.91762,-1.15869c1.7932,-0.77247 3.35194,-1.8484 4.67615,-3.22778c1.32422,-1.37939 2.33118,-2.97948 3.02089,-4.80029c0.71728,-1.8484 1.07593,-3.8485 1.07593,-6.00035c0,-2.12426 -0.35865,-4.11058 -1.07593,-5.95898c-0.68971,-1.8484 -1.69665,-3.44848 -3.02086,-4.80029c-1.32422,-1.37939 -2.88293,-2.44151 -4.67613,-3.18638c-1.7932,-0.77247 -3.76573,-1.15869 -5.91758,-1.15869c-2.12426,0 -4.08301,0.38622 -5.87621,1.15869c-1.7932,0.74488 -3.35191,1.807 -4.67613,3.18642c-1.29663,1.35181 -2.30359,2.9519 -3.02086,4.80029c-0.71728,1.8484 -1.07593,3.83473 -1.07593,5.95898c0,2.15185 0.35865,4.15199 1.07593,6.00037c0.71728,1.8208 1.72424,3.4209 3.02089,4.80029c1.32422,1.37939 2.88293,2.45532 4.67615,3.22778c1.7932,0.77247 3.75197,1.15869 5.87621,1.15869zM446.01135,197.66859c-0.71728,0 -1.32422,-0.24829 -1.8208,-0.74488c-0.49659,-0.49659 -0.74488,-1.10353 -0.74488,-1.8208v-33.43651c0,-0.77247 0.24829,-1.39318 0.74488,-1.86216c0.49659,-0.49659 1.10353,-0.74488 1.8208,-0.74488c0.99316,0 1.75184,0.46898 2.27601,1.40698l15.4768,30.99498h-1.57251l15.06298,-30.99496c0.52418,-0.938 1.28285,-1.40698 2.27601,-1.40698c0.71728,0 1.32422,0.24829 1.8208,0.74488c0.49659,0.46898 0.74488,1.08973 0.74488,1.8622v33.43651c0,0.71728 -0.26208,1.32422 -0.78624,1.8208c-0.49659,0.49659 -1.08973,0.74488 -1.7794,0.74488c-0.71728,0 -1.32422,-0.24829 -1.8208,-0.74488c-0.49659,-0.49659 -0.74488,-1.10353 -0.74488,-1.8208v-26.31883l0.99316,-0.24829l-12.95249,26.36023c-0.55175,0.85524 -1.29663,1.28285 -2.23462,1.28285c-1.07593,0 -1.86216,-0.51038 -2.35875,-1.53111l-12.78697,-25.65672l0.99316,-0.20689v26.31883c0,0.71728 -0.24829,1.32422 -0.74488,1.8208c-0.49659,0.49659 -1.1173,0.74488 -1.86216,0.74488zM494.53183,197.66859c-0.71728,0 -1.32422,-0.24829 -1.8208,-0.74488c-0.49659,-0.49659 -0.74488,-1.10353 -0.74488,-1.8208v-33.43651c0,-0.77247 0.24829,-1.39318 0.74488,-1.86216c0.49659,-0.49659 1.10353,-0.74488 1.8208,-0.74488c0.77247,0 1.39318,0.24829 1.8622,0.74488c0.49659,0.46898 0.74488,1.08973 0.74488,1.8622v33.43651c0,0.71728 -0.24829,1.32422 -0.74488,1.8208c-0.46898,0.49659 -1.08973,0.74488 -1.86216,0.74488zM507.31785,197.66859c-0.77247,0 -1.37939,-0.24829 -1.8208,-0.74488c-0.44141,-0.49659 -0.68971,-1.06213 -0.74488,-1.69665c-0.05517,-0.63451 0.12416,-1.20006 0.53798,-1.69665l24.12561,-29.91903h-21.6013c-0.82763,0 -1.44835,-0.20689 -1.86216,-0.62072c-0.41382,-0.41382 -0.60694,-0.9242 -0.57934,-1.53111c-0.02759,-0.68971 0.20692,-1.25526 0.7035,-1.69665c0.49659,-0.46898 1.10353,-0.70347 1.8208,-0.70347h25.4912c0.74488,0 1.35181,0.23449 1.8208,0.7035c0.46898,0.46898 0.73108,1.02075 0.78626,1.65527c0.08276,0.63451 -0.09657,1.20008 -0.53796,1.69667l-24.24974,30.00183h22.18065c0.74488,0 1.35181,0.22069 1.8208,0.6621c0.46898,0.44141 0.7035,0.96557 0.7035,1.57251c0,0.71728 -0.23449,1.28285 -0.70347,1.69667c-0.46898,0.41382 -1.07593,0.62074 -1.8208,0.62074zM546.21466,197.66859c-0.71728,0 -1.32422,-0.24829 -1.8208,-0.74488c-0.49659,-0.49659 -0.74488,-1.10353 -0.74488,-1.8208v-33.43651c0,-0.77247 0.24829,-1.39318 0.74488,-1.86216c0.49659,-0.49659 1.10353,-0.74488 1.8208,-0.74488h22.34617c0.77247,0 1.37939,0.23449 1.8208,0.7035c0.46898,0.44141 0.7035,1.02075 0.7035,1.73804c0,0.68971 -0.23449,1.25526 -0.70347,1.69667c-0.44141,0.41382 -1.04833,0.62074 -1.8208,0.62074h-19.73912v12.00072h14.15258c0.77247,0 1.37939,0.22069 1.8208,0.6621c0.46898,0.44141 0.7035,1.02075 0.7035,1.73804c0,0.68971 -0.23449,1.25526 -0.70347,1.69667c-0.44141,0.44141 -1.04833,0.6621 -1.8208,0.6621h-14.15258v12.33178h19.73914c0.77247,0 1.37939,0.22069 1.8208,0.6621c0.46898,0.41382 0.7035,0.96557 0.7035,1.65527c0,0.74488 -0.23449,1.33801 -0.70347,1.77942c-0.44141,0.44141 -1.04833,0.6621 -1.8208,0.6621z" fill="#28123b" stroke="#28123b" stroke-width="13.5"/><path d="M273.43207,198.70793c-2.64844,0 -5.14515,-0.49659 -7.49009,-1.48975c-2.31738,-1.02075 -4.34508,-2.42775 -6.08311,-4.22095c-1.71044,-1.7932 -3.06226,-3.88989 -4.05542,-6.29003c-0.96557,-2.40014 -1.44835,-5.00719 -1.44835,-7.82115c0,-2.75879 0.48278,-5.32447 1.44838,-7.69702c0.99316,-2.40014 2.34497,-4.49683 4.05542,-6.29003c1.73804,-1.7932 3.75197,-3.20018 6.04174,-4.22095c2.31738,-1.02075 4.82789,-1.53111 7.53149,-1.53111c2.53807,0 4.71753,0.33105 6.53833,0.99316c1.8484,0.63451 3.69677,1.71044 5.54517,3.22778c0.24829,0.19312 0.44141,0.40002 0.57934,0.62074c0.16553,0.22069 0.27589,0.44141 0.33105,0.6621c0.05517,0.19312 0.08276,0.44141 0.08276,0.74488c0,0.63451 -0.23449,1.15869 -0.70347,1.57251c-0.44141,0.41382 -0.97937,0.6483 -1.61388,0.7035c-0.60694,0.02759 -1.21385,-0.17933 -1.8208,-0.62072c-1.21385,-1.07593 -2.46911,-1.88977 -3.76573,-2.44151c-1.29663,-0.55175 -3.02086,-0.82763 -5.17271,-0.82763c-1.93116,0 -3.75197,0.40002 -5.4624,1.20008c-1.71044,0.77247 -3.22778,1.8484 -4.55199,3.22778c-1.29663,1.37939 -2.30359,2.99329 -3.02086,4.84169c-0.71728,1.8208 -1.07593,3.76576 -1.07593,5.83485c0,2.12426 0.35865,4.09681 1.07593,5.91762c0.71728,1.8208 1.72424,3.4209 3.02089,4.80029c1.32422,1.37939 2.84156,2.46911 4.55199,3.26918c1.71044,0.77247 3.53124,1.15869 5.4624,1.15869c1.68287,0 3.26918,-0.28966 4.75892,-0.869c1.51734,-0.57934 2.96569,-1.37939 4.34511,-2.40014c0.57934,-0.44141 1.15869,-0.63451 1.73804,-0.57934c0.57934,0.05517 1.06213,0.28969 1.44838,0.7035c0.41382,0.41382 0.62074,0.97937 0.62074,1.69667c0,0.33105 -0.06896,0.6621 -0.20689,0.99316c-0.13793,0.30346 -0.33105,0.57934 -0.57934,0.82763c-1.7932,1.40698 -3.71057,2.48291 -5.75205,3.22778c-2.01393,0.71728 -4.13818,1.07593 -6.3728,1.07593zM310.70627,198.99758c-3.17262,0 -5.97278,-0.57934 -8.40049,-1.73804c-2.42775,-1.18629 -4.33131,-2.81397 -5.71068,-4.88305c-1.37939,-2.0691 -2.0691,-4.44164 -2.0691,-7.11768v-23.04965c0,-0.77247 0.24829,-1.39318 0.74488,-1.86216c0.49659,-0.49659 1.10353,-0.74488 1.8208,-0.74488c0.77247,0 1.39318,0.24829 1.8622,0.74488c0.49659,0.46898 0.74488,1.08973 0.74488,1.8622v23.04968c0,1.7932 0.46898,3.37951 1.40698,4.75892c0.938,1.35181 2.23462,2.41395 3.88989,3.18642c1.65527,0.77247 3.55883,1.15869 5.71068,1.15869c2.0691,0 3.90369,-0.38622 5.5038,-1.15869c1.6001,-0.77247 2.85536,-1.8346 3.76576,-3.18638c0.9104,-1.37939 1.36561,-2.96569 1.36561,-4.75889v-23.04965c0,-0.77247 0.23449,-1.39318 0.7035,-1.86216c0.49659,-0.49659 1.11732,-0.74488 1.8622,-0.74488c0.74488,0 1.35181,0.24829 1.8208,0.74488c0.46898,0.46898 0.7035,1.08973 0.7035,1.8622v23.04968c0,2.67603 -0.67591,5.04858 -2.02769,7.11768c-1.32422,2.0691 -3.17262,3.69677 -5.54517,4.88305c-2.37255,1.15869 -5.08995,1.73804 -8.1522,1.73804zM348.56778,198.70793c-2.12426,0 -4.13818,-0.33105 -6.04174,-0.99316c-1.90356,-0.6621 -3.57264,-1.5863 -5.00719,-2.77257c-1.40698,-1.18629 -2.44151,-2.55187 -3.10362,-4.09679c-0.33105,-0.68971 -0.33105,-1.32422 0,-1.90356c0.35865,-0.60694 0.95179,-0.99316 1.77942,-1.15869c0.60694,-0.13793 1.18629,-0.04137 1.73804,0.28969c0.57934,0.30346 1.02075,0.77247 1.32422,1.40698c0.38622,0.82763 1.03456,1.5863 1.94496,2.27601c0.9104,0.68971 2.00012,1.25526 3.26918,1.69667c1.29663,0.41382 2.66223,0.62074 4.09681,0.62074c1.57251,0 3.02089,-0.24829 4.34511,-0.74488c1.35181,-0.49659 2.42775,-1.21385 3.22778,-2.15185c0.82763,-0.938 1.24145,-2.09668 1.24145,-3.47607c0,-1.76563 -0.68971,-3.33814 -2.0691,-4.71753c-1.35181,-1.37939 -3.58644,-2.23462 -6.70385,-2.56567c-4.08301,-0.38622 -7.297,-1.5863 -9.64196,-3.6002c-2.34497,-2.01393 -3.51744,-4.49683 -3.51744,-7.44872c0,-2.17945 0.60694,-4.02783 1.8208,-5.54517c1.21385,-1.51734 2.86913,-2.66223 4.96582,-3.43468c2.09668,-0.80004 4.42786,-1.20006 6.99354,-1.20006c2.01393,0 3.76576,0.27589 5.2555,0.82763c1.51734,0.55175 2.82777,1.32422 3.93129,2.31738c1.1311,0.99316 2.11048,2.16565 2.93812,3.51747c0.44141,0.71728 0.62074,1.40698 0.53798,2.0691c-0.05517,0.63451 -0.37243,1.1311 -0.95177,1.48975c-0.60694,0.38622 -1.28282,0.46898 -2.02769,0.24829c-0.71728,-0.22069 -1.25526,-0.6483 -1.61388,-1.28282c-0.52418,-0.96557 -1.17249,-1.7794 -1.94494,-2.44151c-0.74488,-0.6621 -1.62768,-1.17249 -2.64844,-1.53111c-1.02075,-0.38622 -2.22081,-0.57934 -3.6002,-0.57934c-2.45532,-0.02759 -4.5106,0.42762 -6.16588,1.36561c-1.62768,0.938 -2.44151,2.37255 -2.44151,4.3037c0,0.99316 0.24829,1.94496 0.74488,2.85536c0.52418,0.9104 1.46214,1.69667 2.81397,2.35877c1.37939,0.6621 3.35194,1.11732 5.91762,1.36561c3.91748,0.38622 6.96594,1.5863 9.14539,3.60023c2.20702,1.98632 3.31054,4.60717 3.31054,7.86255c0,1.87597 -0.38622,3.50367 -1.15869,4.88305c-0.77247,1.37939 -1.807,2.55187 -3.10362,3.51747c-1.29663,0.938 -2.78636,1.64147 -4.46924,2.11048c-1.65527,0.44141 -3.36571,0.6621 -5.13134,0.6621zM379.71528,198.21134c-0.71728,0 -1.32422,-0.24829 -1.8208,-0.74488c-0.49659,-0.49659 -0.74488,-1.10353 -0.74488,-1.8208v-36.04354h5.13134v36.04356c0,0.71728 -0.24829,1.32422 -0.74488,1.8208c-0.49659,0.49659 -1.10353,0.74488 -1.8208,0.74488zM366.4731,164.36101c-0.68971,0 -1.25526,-0.22069 -1.69665,-0.6621c-0.44141,-0.44141 -0.6621,-1.00696 -0.6621,-1.69665c0,-0.68971 0.22069,-1.25526 0.6621,-1.69665c0.44141,-0.46898 1.00696,-0.70347 1.69667,-0.70347h26.44299c0.68971,0 1.25526,0.23449 1.69667,0.7035c0.44141,0.44141 0.6621,1.00696 0.6621,1.69667c0,0.68971 -0.22069,1.25526 -0.6621,1.69667c-0.44141,0.44141 -1.00696,0.6621 -1.69665,0.6621zM416.31749,198.70793c-2.89673,0 -5.54517,-0.48278 -7.94531,-1.44835c-2.40014,-0.99316 -4.46924,-2.35875 -6.20727,-4.09679c-1.71044,-1.76563 -3.04846,-3.86229 -4.01402,-6.29003c-0.96557,-2.42775 -1.44835,-5.08995 -1.44835,-7.98668c0,-2.89673 0.48278,-5.54517 1.44838,-7.94531c0.96557,-2.40014 2.30359,-4.48303 4.01405,-6.24864c1.73804,-1.76563 3.80713,-3.13122 6.20727,-4.09679c2.40014,-0.96557 5.04858,-1.44835 7.94531,-1.44835c2.92432,0 5.57276,0.48278 7.94531,1.44838c2.40014,0.96557 4.46924,2.33118 6.20727,4.09681c1.73804,1.76563 3.07606,3.84852 4.01405,6.24866c0.96557,2.40014 1.44838,5.04858 1.44838,7.94531c0,2.89673 -0.48278,5.55896 -1.44835,7.9867c-0.938,2.42775 -2.27599,4.5244 -4.01402,6.29003c-1.73804,1.73804 -3.80713,3.10364 -6.20727,4.09681c-2.37255,0.96557 -5.02099,1.44838 -7.94531,1.44838zM416.31749,194.07316c2.15185,0 4.12438,-0.38622 5.91762,-1.15869c1.7932,-0.77247 3.35194,-1.8484 4.67615,-3.22778c1.32422,-1.37939 2.33118,-2.97948 3.02089,-4.80029c0.71728,-1.8484 1.07593,-3.8485 1.07593,-6.00035c0,-2.12426 -0.35865,-4.11058 -1.07593,-5.95898c-0.68971,-1.8484 -1.69665,-3.44848 -3.02086,-4.80029c-1.32422,-1.37939 -2.88293,-2.44151 -4.67613,-3.18638c-1.7932,-0.77247 -3.76573,-1.15869 -5.91758,-1.15869c-2.12426,0 -4.08301,0.38622 -5.87621,1.15869c-1.7932,0.74488 -3.35191,1.807 -4.67613,3.18642c-1.29663,1.35181 -2.30359,2.9519 -3.02086,4.80029c-0.71728,1.8484 -1.07593,3.83473 -1.07593,5.95898c0,2.15185 0.35865,4.15199 1.07593,6.00037c0.71728,1.8208 1.72424,3.4209 3.02089,4.80029c1.32422,1.37939 2.88293,2.45532 4.67615,3.22778c1.7932,0.77247 3.75197,1.15869 5.87621,1.15869zM446.55411,198.21134c-0.71728,0 -1.32422,-0.24829 -1.8208,-0.74488c-0.49659,-0.49659 -0.74488,-1.10353 -0.74488,-1.8208v-33.43651c0,-0.77247 0.24829,-1.39318 0.74488,-1.86216c0.49659,-0.49659 1.10353,-0.74488 1.8208,-0.74488c0.99316,0 1.75184,0.46898 2.27601,1.40698l15.4768,30.99498h-1.57251l15.06298,-30.99496c0.52418,-0.938 1.28285,-1.40698 2.27601,-1.40698c0.71728,0 1.32422,0.24829 1.8208,0.74488c0.49659,0.46898 0.74488,1.08973 0.74488,1.8622v33.43651c0,0.71728 -0.26208,1.32422 -0.78624,1.8208c-0.49659,0.49659 -1.08973,0.74488 -1.7794,0.74488c-0.71728,0 -1.32422,-0.24829 -1.8208,-0.74488c-0.49659,-0.49659 -0.74488,-1.10353 -0.74488,-1.8208v-26.31883l0.99316,-0.24829l-12.95249,26.36023c-0.55175,0.85524 -1.29663,1.28285 -2.23462,1.28285c-1.07593,0 -1.86216,-0.51038 -2.35875,-1.53111l-12.78697,-25.65672l0.99316,-0.20689v26.31883c0,0.71728 -0.24829,1.32422 -0.74488,1.8208c-0.49659,0.49659 -1.1173,0.74488 -1.86216,0.74488zM495.07459,198.21134c-0.71728,0 -1.32422,-0.24829 -1.8208,-0.74488c-0.49659,-0.49659 -0.74488,-1.10353 -0.74488,-1.8208v-33.43651c0,-0.77247 0.24829,-1.39318 0.74488,-1.86216c0.49659,-0.49659 1.10353,-0.74488 1.8208,-0.74488c0.77247,0 1.39318,0.24829 1.8622,0.74488c0.49659,0.46898 0.74488,1.08973 0.74488,1.8622v33.43651c0,0.71728 -0.24829,1.32422 -0.74488,1.8208c-0.46898,0.49659 -1.08973,0.74488 -1.86216,0.74488zM507.8606,198.21134c-0.77247,0 -1.37939,-0.24829 -1.8208,-0.74488c-0.44141,-0.49659 -0.68971,-1.06213 -0.74488,-1.69665c-0.05517,-0.63451 0.12416,-1.20006 0.53798,-1.69665l24.12561,-29.91903h-21.6013c-0.82763,0 -1.44835,-0.20689 -1.86216,-0.62072c-0.41382,-0.41382 -0.60694,-0.9242 -0.57934,-1.53111c-0.02759,-0.68971 0.20692,-1.25526 0.7035,-1.69665c0.49659,-0.46898 1.10353,-0.70347 1.8208,-0.70347h25.4912c0.74488,0 1.35181,0.23449 1.8208,0.7035c0.46898,0.46898 0.73108,1.02075 0.78626,1.65527c0.08276,0.63451 -0.09657,1.20008 -0.53796,1.69667l-24.24974,30.00183h22.18065c0.74488,0 1.35181,0.22069 1.8208,0.6621c0.46898,0.44141 0.7035,0.96557 0.7035,1.57251c0,0.71728 -0.23449,1.28285 -0.70347,1.69667c-0.46898,0.41382 -1.07593,0.62074 -1.8208,0.62074zM546.75742,198.21134c-0.71728,0 -1.32422,-0.24829 -1.8208,-0.74488c-0.49659,-0.49659 -0.74488,-1.10353 -0.74488,-1.8208v-33.43651c0,-0.77247 0.24829,-1.39318 0.74488,-1.86216c0.49659,-0.49659 1.10353,-0.74488 1.8208,-0.74488h22.34617c0.77247,0 1.37939,0.23449 1.8208,0.7035c0.46898,0.44141 0.7035,1.02075 0.7035,1.73804c0,0.68971 -0.23449,1.25526 -0.70347,1.69667c-0.44141,0.41382 -1.04833,0.62074 -1.8208,0.62074h-19.73912v12.00072h14.15258c0.77247,0 1.37939,0.22069 1.8208,0.6621c0.46898,0.44141 0.7035,1.02075 0.7035,1.73804c0,0.68971 -0.23449,1.25526 -0.70347,1.69667c-0.44141,0.44141 -1.04833,0.6621 -1.8208,0.6621h-14.15258v12.33178h19.73914c0.77247,0 1.37939,0.22069 1.8208,0.6621c0.46898,0.41382 0.7035,0.96557 0.7035,1.65527c0,0.74488 -0.23449,1.33801 -0.70347,1.77942c-0.44141,0.44141 -1.04833,0.6621 -1.8208,0.6621z" fill="#a97fff" stroke="#a97fff" stroke-width="2.5"/></g></g></g></svg>