<svg version="1.1" xmlns="http://www.w3.org/2000/svg" xmlns:xlink="http://www.w3.org/1999/xlink" width="15.0675" height="8.75" viewBox="0,0,15.0675,8.75"><g transform="translate(-232.46625,-175.625)"><g data-paper-data="{&quot;isPaintingLayer&quot;:true}" fill-rule="nonzero" stroke-linecap="butt" stroke-linejoin="miter" stroke-miterlimit="10" stroke-dasharray="" stroke-dashoffset="0" style="mix-blend-mode: normal"><g><path d="M232.46625,180c0,-2.41625 1.95875,-4.375 4.375,-4.375c2.41625,0 4.375,1.95875 4.375,4.375c0,2.41625 -1.95875,4.375 -4.375,4.375c-2.41625,0 -4.375,-1.95875 -4.375,-4.375z" fill="#28123b" stroke="none" stroke-width="0"/><path d="M234.37458,180c0,-1.3623 1.10437,-2.46667 2.46667,-2.46667c1.3623,0 2.46667,1.10437 2.46667,2.46667c0,1.3623 -1.10436,2.46667 -2.46667,2.46667c-1.3623,0 -2.46667,-1.10436 -2.46667,-2.46667z" fill="#9965ff" stroke="#8b4fff" stroke-width="2"/><path d="M239.59203,183.3125v-6.375h6.50834c0,0 1.43338,2.07312 1.43338,3.125c0,1.07271 -1.43338,3.25 -1.43338,3.25z" fill="#28123b" stroke="none" stroke-width="0"/><path d="M239.20889,181.7472v-3.23529h5.44707c0,0 0.7183,1.08757 0.7183,1.58822c0,0.569 -0.838,1.64707 -0.838,1.64707z" fill="#a172ff" stroke="#8b4fff" stroke-width="1.5"/><path d="M232.46625,180c0,-2.41625 1.95875,-4.375 4.375,-4.375c2.41625,0 4.375,1.95875 4.375,4.375c0,2.41625 -1.95875,4.375 -4.375,4.375c-2.41625,0 -4.375,-1.95875 -4.375,-4.375z" fill="#28123b" stroke="none" stroke-width="0"/><path d="M234.37458,180c0,-1.3623 1.10437,-2.46667 2.46667,-2.46667c1.3623,0 2.46667,1.10437 2.46667,2.46667c0,1.3623 -1.10436,2.46667 -2.46667,2.46667c-1.3623,0 -2.46667,-1.10436 -2.46667,-2.46667z" fill="#9965ff" stroke="#8b4fff" stroke-width="2"/><path d="M234.26982,180c0,-1.42016 1.15127,-2.57143 2.57143,-2.57143c1.42016,0 2.57143,1.15127 2.57143,2.57143c0,1.42016 -1.15127,2.57143 -2.57143,2.57143c-1.42016,0 -2.57143,-1.15127 -2.57143,-2.57143z" fill="#a172ff" stroke="none" stroke-width="0"/><path d="M238.55022,182.49705c0,0 1.51388,-1.52498 1.54154,-2.30411c0.02846,-0.802 -1.59772,-2.44124 -1.59772,-2.44124h5.59369v4.74536z" fill="#8b4fff" stroke="none" stroke-width="0"/><path d="M238.84104,180.99445v-1.72761h5.27614c0,0 0.41023,0.59425 0.41023,0.87666c0,0.29306 -0.41023,0.85095 -0.41023,0.85095z" fill="#a172ff" stroke="none" stroke-width="0"/></g></g></g></svg>