<svg version="1.1" xmlns="http://www.w3.org/2000/svg" xmlns:xlink="http://www.w3.org/1999/xlink" width="7.63261" height="6.03034" viewBox="0,0,7.63261,6.03034"><g transform="translate(-236.18388,-177.04733)"><g data-paper-data="{&quot;isPaintingLayer&quot;:true}" fill-rule="nonzero" stroke-linejoin="miter" stroke-miterlimit="10" stroke-dasharray="" stroke-dashoffset="0" style="mix-blend-mode: normal"><path d="M238.52926,178.52502c0.81384,-0.36526 0.85873,-0.54337 1.36228,-1.22769c0.0833,-0.23765 0.20361,-0.09591 0.2418,0.08976c0.55845,0.74435 0.93309,0.92263 1.66636,1.23912c1.12334,0.49949 1.79853,1.41199 1.76564,2.16986c-0.07634,1.75918 -1.56786,2.0316 -3.6314,2.0316c-2.06353,0 -3.47636,-0.4095 -3.50006,-1.88875c-0.02146,-1.33961 0.9003,-1.90075 1.77319,-2.28127z" fill="#28123b" stroke="#28123b" stroke-width="0.5" stroke-linecap="butt"/><path d="M239.17676,180.49872c0,0.50177 -0.00605,0.90855 -0.59259,0.90855c-0.47543,0 -0.59259,-0.40678 -0.59259,-0.90855c0,-0.50177 0.21114,-0.65059 0.59259,-0.90855c0.58764,0.00662 0.59259,0.40678 0.59259,0.90855z" fill="#9966ff" stroke="none" stroke-width="NaN" stroke-linecap="butt"/><path d="M241.2383,179.56729c0.42797,0.29307 0.59259,0.40678 0.59259,0.90855c0,0.50177 -0.11716,0.90855 -0.59259,0.90855c-0.58654,0 -0.59259,-0.40678 -0.59259,-0.90855c0,-0.50177 0.00495,-0.90193 0.59259,-0.90855z" data-paper-data="{&quot;index&quot;:null}" fill="#9966ff" stroke="none" stroke-width="NaN" stroke-linecap="butt"/><path d="M239.31975,180.32824c0,0.26078 -0.00314,0.47219 -0.30798,0.47219c-0.24709,0 -0.30798,-0.21141 -0.30798,-0.47219c0,-0.26078 0.06138,-0.47497 0.30798,-0.47219c0.30541,0.00344 0.30798,0.21141 0.30798,0.47219z" fill="#28123b" stroke="none" stroke-width="NaN" stroke-linecap="butt"/><path d="M240.81764,179.85605c0.2466,-0.00278 0.30798,0.21142 0.30798,0.4722c0,0.26078 -0.06089,0.47219 -0.30798,0.47219c-0.30484,0 -0.30799,-0.21141 -0.30799,-0.47219c0,-0.26078 0.00258,-0.46876 0.30799,-0.4722z" data-paper-data="{&quot;index&quot;:null}" fill="#28123b" stroke="none" stroke-width="NaN" stroke-linecap="butt"/><path d="M238.79949,178.99009c0.64619,-0.29002 0.68183,-0.43143 1.08165,-0.97479c0.06614,-0.1887 0.16166,-0.07615 0.19199,0.07128c0.44341,0.591 0.74087,0.73257 1.32309,0.98387c0.89193,0.3966 1.42803,1.12112 1.40192,1.72287c-0.06061,1.39679 -1.24488,1.61309 -2.88333,1.61309c-1.63844,0 -2.76023,-0.32513 -2.77904,-1.49966c-0.01704,-1.06365 0.71484,-1.50919 1.40792,-1.81132z" fill="none" stroke="#9966ff" stroke-width="0.5" stroke-linecap="butt"/><path d="M239.19241,180.16183c0,0.08525 -0.06768,0.15437 -0.15116,0.15437c-0.08348,0 -0.15116,-0.06912 -0.15116,-0.15437c0,-0.08525 0.06768,-0.15436 0.15116,-0.15436c0.08348,0 0.15116,0.06911 0.15116,0.15436z" fill="#9966ff" stroke="none" stroke-width="0" stroke-linecap="butt"/><path d="M240.89008,180.14428c0,0.08525 -0.06768,0.15436 -0.15116,0.15436c-0.08348,0 -0.15117,-0.06911 -0.15117,-0.15436c0,-0.08525 0.06768,-0.15437 0.15117,-0.15437c0.08348,0 0.15116,0.06912 0.15116,0.15437z" fill="#9966ff" stroke="none" stroke-width="0" stroke-linecap="butt"/><path d="M238.21565,181.49227l-0.16279,-0.05266" fill="none" stroke="#9966ff" stroke-width="0.1" stroke-linecap="round"/><path d="M241.65751,181.47471l-0.13953,0.03511" fill="none" stroke="#9966ff" stroke-width="0.1" stroke-linecap="round"/></g></g></svg>