<svg version="1.1" xmlns="http://www.w3.org/2000/svg" xmlns:xlink="http://www.w3.org/1999/xlink" width="9.59781" height="192.83182" viewBox="0,0,9.59781,192.83182"><g transform="translate(-235.3151,-96.54172)"><g data-paper-data="{&quot;isPaintingLayer&quot;:true}" fill-rule="nonzero" stroke-linejoin="miter" stroke-miterlimit="10" stroke-dasharray="" stroke-dashoffset="0" style="mix-blend-mode: normal"><path d="M237.93876,98.9353c0,0 0.40759,-1.39357 2.2751,-1.39357c2.09732,0 2.1281,1.53095 2.1281,1.53095" fill="none" stroke="#29133d" stroke-width="2" stroke-linecap="round"/><path d="M235.81298,288.76509c0,0 0.01744,-11.64517 0.2602,-15.14777c0.13408,-1.93459 0.88461,-4.12308 0.88461,-4.12308l-0.3816,-7.25042h7.63202l-0.954,7.44122c0,0 1.10403,2.23732 1.21047,4.36605c0.17553,3.5107 -0.25646,14.714 -0.25646,14.714z" fill="#441f64" stroke="none" stroke-width="0" stroke-linecap="butt"/><path d="M236.93878,262.79616v-164.10185h6.42857v164.10185z" fill="#29133d" stroke="none" stroke-width="1" stroke-linecap="butt"/><path d="M238.10259,262.59594v-164.10758h4.19761v164.10758z" fill="#441f64" stroke="none" stroke-width="0" stroke-linecap="butt"/><path d="M238.08339,186.76947v-87.10564" fill="none" stroke="#8b4fff" stroke-width="1" stroke-linecap="round"/><path d="M242.25005,99.66383v87.10564" fill="none" stroke="#8b4fff" stroke-width="1" stroke-linecap="round"/><path d="M238.08339,182.7667v78.88168" fill="none" stroke="#8b4fff" stroke-width="1" stroke-linecap="round"/><path d="M242.25005,261.64835v-78.88168" fill="none" stroke="#8b4fff" stroke-width="1" stroke-linecap="round"/><path d="M238.13682,99.23967c0,0 0.37872,-1.39876 2.11395,-1.39876c1.94876,0 1.97736,1.53664 1.97736,1.53664" fill="none" stroke="#8b4fff" stroke-width="1" stroke-linecap="round"/><path d="M235.84579,288.66382c0,0 -0.1677,-8.48344 -0.0308,-14.9368c0.0196,-0.92383 0.88794,-2.64856 0.88794,-3.42488c0,-0.39226 0.08908,-1.53932 0.02819,-2.27624c-0.07947,-0.96172 -0.31391,-1.52625 -0.31391,-1.86662c0,-2.4933 0,-3.71429 0,-3.71429" fill="none" stroke="#8b4fff" stroke-width="1" stroke-linecap="round"/><path d="M236.55113,262.26643h7.21057" fill="none" stroke="#8b4fff" stroke-width="1" stroke-linecap="round"/><path d="M235.88773,288.87354h8.4375" fill="none" stroke="#8b4fff" stroke-width="1" stroke-linecap="round"/><path d="M243.81069,262.58786c0,0 0,1.22099 0,3.71429c0,0.34037 -0.23444,0.9049 -0.31391,1.86662c-0.06089,0.73692 0.02819,1.88398 0.02819,2.27624c0,0.77632 0.86834,2.50105 0.88794,3.42488c0.1369,6.45336 -0.0308,14.9368 -0.0308,14.9368" data-paper-data="{&quot;index&quot;:null}" fill="none" stroke="#8b4fff" stroke-width="1" stroke-linecap="round"/><path d="M238.253,289.01069c0,0 -0.07764,-8.48344 -0.01426,-14.9368c0.00907,-0.92383 0.41109,-2.64856 0.41109,-3.42488c0,-0.39226 0.04124,-1.53932 0.01305,-2.27624c-0.03679,-0.96172 -0.14533,-1.52625 -0.14533,-1.86662c0,-2.4933 0,-3.71429 0,-3.71429" fill="none" stroke="#8b4fff" stroke-width="0.5" stroke-linecap="round"/><path d="M241.52942,262.70587c0,0 0,1.22099 0,3.71429c0,0.34037 -0.10854,0.9049 -0.14533,1.86662c-0.02819,0.73692 0.01306,1.88398 0.01306,2.27624c0,0.77632 0.40201,2.50105 0.41108,3.42488c0.06338,6.45336 -0.01426,14.9368 -0.01426,14.9368" data-paper-data="{&quot;index&quot;:null}" fill="none" stroke="#8b4fff" stroke-width="0.5" stroke-linecap="round"/><path d="M239.04164,99.44116v137.4651v22.87155" fill="none" stroke="#673bbf" stroke-width="0.25" stroke-linecap="round"/><path d="M241.26349,259.8619v-22.87155v-137.4651" fill="none" stroke="#673bbf" stroke-width="0.25" stroke-linecap="round"/></g></g></svg>