<svg version="1.1" xmlns="http://www.w3.org/2000/svg" xmlns:xlink="http://www.w3.org/1999/xlink" width="872.30161" height="87.85812" viewBox="0,0,872.30161,87.85812"><defs><linearGradient x1="-40.27082" y1="178.16678" x2="238.2292" y2="178.16678" gradientUnits="userSpaceOnUse" id="color-1"><stop offset="0" stop-color="#000000" stop-opacity="0"/><stop offset="1" stop-color="#000000"/></linearGradient><linearGradient x1="-1418.99071" y1="-675.54961" x2="-1252.41005" y2="539.87317" gradientUnits="userSpaceOnUse" id="color-2"><stop offset="0" stop-color="#000000"/><stop offset="1" stop-color="#000000" stop-opacity="0"/></linearGradient><linearGradient x1="599.80067" y1="146.09733" x2="599.80067" y2="218.04025" gradientUnits="userSpaceOnUse" id="color-3"><stop offset="0" stop-color="#000000"/><stop offset="1" stop-color="#000000" stop-opacity="0"/></linearGradient><linearGradient x1="599.80067" y1="146.09733" x2="599.80067" y2="218.04025" gradientUnits="userSpaceOnUse" id="color-4"><stop offset="0" stop-color="#000000"/><stop offset="1" stop-color="#000000" stop-opacity="0"/></linearGradient><linearGradient x1="335.66839" y1="140.69995" x2="335.66839" y2="150.05014" gradientUnits="userSpaceOnUse" id="color-5"><stop offset="0" stop-color="#000000"/><stop offset="1" stop-color="#000000" stop-opacity="0"/></linearGradient><linearGradient x1="335.66839" y1="140.69995" x2="335.66839" y2="150.05014" gradientUnits="userSpaceOnUse" id="color-6"><stop offset="0" stop-color="#000000"/><stop offset="1" stop-color="#000000" stop-opacity="0"/></linearGradient><linearGradient x1="334.38624" y1="213.36512" x2="334.38624" y2="222.71532" gradientUnits="userSpaceOnUse" id="color-7"><stop offset="0" stop-color="#000000"/><stop offset="1" stop-color="#000000" stop-opacity="0"/></linearGradient><linearGradient x1="334.38624" y1="213.36512" x2="334.38624" y2="222.71532" gradientUnits="userSpaceOnUse" id="color-8"><stop offset="0" stop-color="#000000"/><stop offset="1" stop-color="#000000" stop-opacity="0"/></linearGradient><linearGradient x1="-261.92142" y1="142.07602" x2="74.15963" y2="142.07602" gradientUnits="userSpaceOnUse" id="color-9"><stop offset="0" stop-color="#8b4fff" stop-opacity="0"/><stop offset="1" stop-color="#8b4fff"/></linearGradient><linearGradient x1="-261.92142" y1="142.07602" x2="74.15963" y2="142.07602" gradientUnits="userSpaceOnUse" id="color-10"><stop offset="0" stop-color="#8b4fff" stop-opacity="0"/><stop offset="1" stop-color="#8b4fff"/></linearGradient><linearGradient x1="-263.25477" y1="214.7428" x2="72.8263" y2="214.7428" gradientUnits="userSpaceOnUse" id="color-11"><stop offset="0" stop-color="#8b4fff" stop-opacity="0"/><stop offset="1" stop-color="#8b4fff"/></linearGradient><linearGradient x1="-263.25477" y1="214.7428" x2="72.8263" y2="214.7428" gradientUnits="userSpaceOnUse" id="color-12"><stop offset="0" stop-color="#8b4fff" stop-opacity="0"/><stop offset="1" stop-color="#8b4fff"/></linearGradient><linearGradient x1="508.33336" y1="170.59193" x2="508.33336" y2="209.88445" gradientUnits="userSpaceOnUse" id="color-13"><stop offset="0" stop-color="#000000"/><stop offset="1" stop-color="#000000" stop-opacity="0"/></linearGradient><linearGradient x1="508.33336" y1="170.59193" x2="508.33336" y2="209.88445" gradientUnits="userSpaceOnUse" id="color-14"><stop offset="0" stop-color="#000000"/><stop offset="1" stop-color="#000000" stop-opacity="0"/></linearGradient></defs><g transform="translate(265.50472,-136.43213)"><g data-paper-data="{&quot;isPaintingLayer&quot;:true}" fill-rule="nonzero" stroke-linejoin="miter" stroke-miterlimit="10" stroke-dasharray="" stroke-dashoffset="0" style="mix-blend-mode: normal"><path d="M-83.27085,214.41678l4,-71.25l77.5,0.5l5,70z" fill="url(#color-1)" stroke="none" stroke-width="0" stroke-linecap="butt"/><path d="M3.1789,213.60392l-4.64084,-70.07674l596.97878,-1.48895l3.02589,70.2006z" fill="url(#color-2)" stroke="none" stroke-width="0" stroke-linecap="butt"/><path d="M599.80067,146.09739v71.94283" data-paper-data="{&quot;index&quot;:null}" fill="url(#color-3)" stroke="url(#color-4)" stroke-width="12.5" stroke-linecap="round"/><path d="M600.54689,142.68213v71.94283" data-paper-data="{&quot;index&quot;:null}" fill="none" stroke="#28123b" stroke-width="12.5" stroke-linecap="round"/><path d="M74.72542,145.37509h521.88581" fill="url(#color-5)" stroke="url(#color-6)" stroke-width="12.5" stroke-linecap="round"/><path d="M73.44333,218.04025h521.8858" data-paper-data="{&quot;index&quot;:null}" fill="url(#color-7)" stroke="url(#color-8)" stroke-width="12.5" stroke-linecap="round"/><path d="M599.17909,141.95989h-523.90526" fill="none" stroke="#8b4fff" stroke-width="4.5" stroke-linecap="round"/><path d="M599.03464,214.9695h-525.04295" data-paper-data="{&quot;index&quot;:null}" fill="none" stroke="#8b4fff" stroke-width="4.5" stroke-linecap="round"/><path d="M600.54689,142.68213v71.94283" data-paper-data="{&quot;index&quot;:null}" fill="none" stroke="#8b4fff" stroke-width="4.5" stroke-linecap="round"/><path d="M-261.92137,142.07602h336.08102" fill="url(#color-9)" stroke="url(#color-10)" stroke-width="4.5" stroke-linecap="round"/><path d="M-263.25472,214.7428h336.08102" fill="url(#color-11)" stroke="url(#color-12)" stroke-width="4.5" stroke-linecap="round"/><path d="M449.25859,209.88436c-0.73,0 -1.34765,-0.25269 -1.85302,-0.75806c-0.50537,-0.50537 -0.75806,-1.12302 -0.75806,-1.85301v-34.02814c0,-0.78611 0.25269,-1.41783 0.75806,-1.89512c0.50537,-0.50537 1.12305,-0.75806 1.85302,-0.75806h10.06526c2.52685,0 4.75889,0.56154 6.69614,1.68456c1.93724,1.09496 3.45335,2.62512 4.54831,4.59045c1.09496,1.96533 1.64246,4.22545 1.64246,6.78037c0,2.44262 -0.54747,4.61849 -1.64244,6.52768c-1.09496,1.90919 -2.61107,3.39721 -4.54832,4.46409c-1.93724,1.06691 -4.16927,1.60033 -6.69611,1.60033h-7.41208v11.03387c0,0.73 -0.25268,1.34765 -0.75805,1.85301c-0.47731,0.50537 -1.109,0.75806 -1.89513,0.75806zM451.91178,191.43843h7.41207c1.54416,0 2.90588,-0.33691 4.08507,-1.01073c1.17919,-0.67383 2.10571,-1.60033 2.77953,-2.77952c0.67383,-1.17919 1.01073,-2.51279 1.01073,-4.00081c0,-1.6284 -0.33691,-3.04626 -1.01073,-4.25351c-0.67383,-1.23533 -1.60034,-2.20398 -2.77953,-2.90586c-1.17919,-0.70188 -2.54089,-1.05283 -4.08504,-1.05283h-7.41208zM480.54355,209.88436c-0.73,0 -1.34765,-0.25269 -1.85302,-0.75806c-0.47731,-0.50537 -0.71592,-1.12302 -0.71592,-1.85301v-34.02814c0,-0.75806 0.25269,-1.38975 0.75806,-1.89512c0.50537,-0.50537 1.109,-0.75806 1.81091,-0.75806c0.75806,0 1.37571,0.25269 1.85302,0.75806c0.50537,0.50537 0.75805,1.13709 0.75805,1.89514v31.41706h18.23539c0.73,0 1.34765,0.25269 1.85302,0.75806c0.50537,0.50537 0.75805,1.12305 0.75805,1.85302c0,0.73 -0.25268,1.34765 -0.75805,1.85301c-0.50537,0.50537 -1.12303,0.75806 -1.85302,0.75806zM508.69873,209.88436c-0.92651,0 -1.64244,-0.39306 -2.1478,-1.17919c-0.50537,-0.81419 -0.56153,-1.68456 -0.16845,-2.61106l14.15032,-33.73333c0.50537,-1.17919 1.31959,-1.76879 2.44262,-1.76879c1.20725,0 2.03552,0.5896 2.48474,1.76879l14.19244,33.85968c0.36496,0.9265 0.29481,1.76879 -0.21056,2.52685c-0.47731,0.75806 -1.19323,1.13709 -2.14779,1.13709c-0.50537,0 -0.99669,-0.14038 -1.47398,-0.42114c-0.44923,-0.28074 -0.7721,-0.67383 -0.96861,-1.17919l-12.46576,-30.99592h1.43188l-12.67631,30.99592c-0.25268,0.53346 -0.60364,0.94056 -1.05283,1.22133c-0.44919,0.25269 -0.91246,0.37904 -1.38975,0.37904zM511.39404,201.25095l1.97938,-4.33773h19.70936l2.02148,4.33776zM553.37362,209.88436c-0.70188,0 -1.30552,-0.25269 -1.81089,-0.75806c-0.50537,-0.50537 -0.75806,-1.12302 -0.75806,-1.85301v-11.7077l-13.43437,-20.88856c-0.42115,-0.70188 -0.5896,-1.36169 -0.50537,-1.97935c0.11229,-0.61765 0.4071,-1.12303 0.88441,-1.51611c0.47731,-0.39306 1.0388,-0.5896 1.68456,-0.5896c0.56154,0 1.01073,0.12635 1.34764,0.37904c0.33691,0.25269 0.65979,0.61768 0.96864,1.09496l12.76054,20.25686h-2.02148l13.01325,-20.46741c0.25269,-0.39306 0.56154,-0.70188 0.92651,-0.9265c0.36496,-0.2246 0.81422,-0.33691 1.34765,-0.33691c0.61765,0 1.12302,0.21058 1.5161,0.63173c0.42115,0.42114 0.65979,0.95459 0.71595,1.60033c0.05617,0.61768 -0.11229,1.23537 -0.50537,1.85302l-13.51859,20.88855v11.7077c0,0.73 -0.25268,1.34765 -0.75806,1.85301c-0.50537,0.50537 -1.12302,0.75806 -1.85302,0.75806z" fill="url(#color-13)" stroke="url(#color-14)" stroke-width="13.5" stroke-linecap="square"/><path d="M449.25859,198.31291c-0.73,0 -1.34765,-0.25269 -1.85302,-0.75806c-0.50537,-0.50537 -0.75806,-1.12302 -0.75806,-1.85301v-34.02813c0,-0.78611 0.25269,-1.41783 0.75806,-1.89512c0.50537,-0.50537 1.12305,-0.75806 1.85302,-0.75806h10.06526c2.52685,0 4.75889,0.56154 6.69614,1.68457c1.93724,1.09496 3.45335,2.62511 4.54831,4.59044c1.09496,1.96533 1.64246,4.22545 1.64246,6.78037c0,2.44262 -0.54747,4.61849 -1.64244,6.52768c-1.09496,1.90919 -2.61107,3.3972 -4.54832,4.46408c-1.93724,1.06691 -4.16927,1.60033 -6.69611,1.60033h-7.41208v11.03387c0,0.73 -0.25268,1.34765 -0.75805,1.85301c-0.47731,0.50537 -1.109,0.75806 -1.89513,0.75806zM451.91178,179.86699h7.41207c1.54416,0 2.90588,-0.33691 4.08507,-1.01073c1.17919,-0.67383 2.10571,-1.60033 2.77953,-2.77952c0.67383,-1.17919 1.01073,-2.51279 1.01073,-4.00081c0,-1.6284 -0.33691,-3.04626 -1.01073,-4.2535c-0.67383,-1.23533 -1.60034,-2.20398 -2.77953,-2.90586c-1.17919,-0.70188 -2.54089,-1.05284 -4.08504,-1.05284h-7.41208zM480.54355,198.31291c-0.73,0 -1.34765,-0.25269 -1.85302,-0.75806c-0.47731,-0.50537 -0.71592,-1.12302 -0.71592,-1.85301v-34.02813c0,-0.75806 0.25269,-1.38975 0.75806,-1.89512c0.50537,-0.50537 1.109,-0.75806 1.81091,-0.75806c0.75806,0 1.37571,0.25269 1.85302,0.75806c0.50537,0.50537 0.75805,1.13709 0.75805,1.89514v31.41706h18.23539c0.73,0 1.34765,0.25268 1.85302,0.75805c0.50537,0.50537 0.75805,1.12306 0.75805,1.85302c0,0.73 -0.25268,1.34765 -0.75805,1.85301c-0.50537,0.50537 -1.12303,0.75806 -1.85302,0.75806zM508.69873,198.31291c-0.9265,0 -1.64244,-0.39306 -2.1478,-1.17919c-0.50537,-0.81419 -0.56153,-1.68456 -0.16845,-2.61106l14.15032,-33.73333c0.50537,-1.17919 1.31959,-1.76878 2.44262,-1.76878c1.20725,0 2.03552,0.58959 2.48474,1.76878l14.19244,33.85968c0.36496,0.9265 0.29481,1.76879 -0.21056,2.52685c-0.47731,0.75806 -1.19323,1.13709 -2.1478,1.13709c-0.50537,0 -0.99669,-0.14038 -1.47398,-0.42114c-0.44922,-0.28074 -0.7721,-0.67383 -0.96861,-1.17919l-12.46575,-30.99592h1.43188l-12.67631,30.99592c-0.25269,0.53346 -0.60364,0.94055 -1.05283,1.22132c-0.4492,0.25269 -0.91246,0.37904 -1.38975,0.37904zM511.39404,189.67957l1.97937,-4.33772h19.70936l2.02148,4.33776zM553.37362,198.31291c-0.70188,0 -1.30552,-0.25269 -1.8109,-0.75806c-0.50537,-0.50537 -0.75805,-1.12302 -0.75805,-1.85301v-11.7077l-13.43437,-20.88856c-0.42115,-0.70188 -0.5896,-1.36169 -0.50537,-1.97935c0.11229,-0.61765 0.4071,-1.12302 0.88441,-1.5161c0.47731,-0.39306 1.0388,-0.5896 1.68456,-0.5896c0.56154,0 1.01073,0.12635 1.34764,0.37904c0.33691,0.25269 0.65979,0.61768 0.96864,1.09496l12.76054,20.25686h-2.02148l13.01325,-20.46742c0.25268,-0.39306 0.56154,-0.70188 0.92651,-0.9265c0.36496,-0.2246 0.81422,-0.33691 1.34764,-0.33691c0.61765,0 1.12302,0.21058 1.51611,0.63172c0.42115,0.42114 0.65978,0.95459 0.71595,1.60033c0.05616,0.61768 -0.11229,1.23537 -0.50537,1.85302l-13.51859,20.88855v11.7077c0,0.73 -0.25269,1.34765 -0.75806,1.85302c-0.50537,0.50537 -1.12303,0.75806 -1.85302,0.75806z" fill="#8b4fff" stroke="#28123b" stroke-width="13.5" stroke-linecap="square"/><path d="M449.25859,198.31291c-0.72999,0 -1.34765,-0.25269 -1.85302,-0.75806c-0.50537,-0.50537 -0.75806,-1.12302 -0.75806,-1.85302v-34.02813c0,-0.78611 0.25269,-1.41783 0.75806,-1.89512c0.50537,-0.50537 1.12305,-0.75806 1.85302,-0.75806h10.06526c2.52685,0 4.75889,0.56154 6.69614,1.68456c1.93725,1.09496 3.45335,2.62512 4.54831,4.59045c1.09496,1.96533 1.64246,4.22545 1.64246,6.78037c0,2.44262 -0.54746,4.6185 -1.64244,6.52768c-1.09496,1.90918 -2.61106,3.3972 -4.54831,4.46408c-1.93725,1.06691 -4.16927,1.60033 -6.69612,1.60033h-7.41207v11.03387c0,0.72999 -0.25269,1.34765 -0.75806,1.85302c-0.47731,0.50537 -1.109,0.75806 -1.89512,0.75806zM451.91178,179.86699h7.41207c1.54417,0 2.90589,-0.33691 4.08507,-1.01073c1.17919,-0.67383 2.1057,-1.60033 2.77952,-2.77952c0.67383,-1.17919 1.01073,-2.51279 1.01073,-4.00082c0,-1.62839 -0.33691,-3.04625 -1.01073,-4.2535c-0.67383,-1.23533 -1.60033,-2.20397 -2.77952,-2.90585c-1.17919,-0.70188 -2.54089,-1.05284 -4.08504,-1.05284h-7.41207zM480.54355,198.31291c-0.72999,0 -1.34765,-0.25269 -1.85302,-0.75806c-0.47731,-0.50537 -0.71592,-1.12302 -0.71592,-1.85302v-34.02813c0,-0.75806 0.25269,-1.38975 0.75806,-1.89512c0.50537,-0.50537 1.109,-0.75806 1.81091,-0.75806c0.75806,0 1.37571,0.25269 1.85302,0.75806c0.50537,0.50537 0.75806,1.1371 0.75806,1.89514v31.41706h18.23539c0.72999,0 1.34765,0.25269 1.85302,0.75806c0.50537,0.50537 0.75806,1.12305 0.75806,1.85302c0,0.72999 -0.25269,1.34765 -0.75806,1.85302c-0.50537,0.50537 -1.12302,0.75806 -1.85302,0.75806zM508.69873,198.31291c-0.9265,0 -1.64244,-0.39306 -2.1478,-1.17919c-0.50537,-0.81419 -0.56154,-1.68456 -0.16846,-2.61106l14.15032,-33.73332c0.50537,-1.17919 1.31959,-1.76879 2.44262,-1.76879c1.20725,0 2.03552,0.5896 2.48474,1.76879l14.19244,33.85967c0.36497,0.9265 0.29481,1.76879 -0.21056,2.52685c-0.47731,0.75806 -1.19323,1.1371 -2.1478,1.1371c-0.50537,0 -0.99669,-0.14037 -1.47398,-0.42114c-0.44923,-0.28074 -0.7721,-0.67383 -0.96861,-1.17919l-12.46575,-30.99592h1.43188l-12.67631,30.99592c-0.25269,0.53345 -0.60364,0.94056 -1.05284,1.22132c-0.44919,0.25269 -0.91246,0.37904 -1.38975,0.37904zM511.39404,189.67957l1.97937,-4.33773h19.70936l2.02148,4.33776zM553.37362,198.31291c-0.70188,0 -1.30552,-0.25269 -1.81089,-0.75806c-0.50537,-0.50537 -0.75806,-1.12302 -0.75806,-1.85302v-11.7077l-13.43436,-20.88856c-0.42114,-0.70188 -0.5896,-1.36169 -0.50537,-1.97935c0.11229,-0.61765 0.4071,-1.12302 0.88441,-1.5161c0.47731,-0.39306 1.03879,-0.5896 1.68456,-0.5896c0.56154,0 1.01073,0.12635 1.34765,0.37904c0.33691,0.25269 0.65979,0.61768 0.96864,1.09496l12.76053,20.25686h-2.02148l13.01325,-20.46742c0.25269,-0.39306 0.56154,-0.70188 0.9265,-0.9265c0.36497,-0.2246 0.81422,-0.33691 1.34765,-0.33691c0.61765,0 1.12302,0.21058 1.5161,0.63172c0.42114,0.42114 0.65979,0.9546 0.71595,1.60033c0.05617,0.61768 -0.11229,1.23537 -0.50537,1.85302l-13.51859,20.88856v11.7077c0,0.72999 -0.25269,1.34765 -0.75806,1.85302c-0.50537,0.50537 -1.12302,0.75806 -1.85302,0.75806z" fill="#a97eff" stroke="#a97eff" stroke-width="2.5" stroke-linecap="square"/></g></g></svg>