<svg version="1.1" xmlns="http://www.w3.org/2000/svg" xmlns:xlink="http://www.w3.org/1999/xlink" width="137.77423" height="118.5387" viewBox="0,0,137.77423,118.5387"><defs><linearGradient x1="-118.47055" y1="-1013.38961" x2="-83.68742" y2="696.87246" gradientUnits="userSpaceOnUse" id="color-1"><stop offset="0" stop-color="#000000"/><stop offset="1" stop-color="#000000" stop-opacity="0"/></linearGradient><linearGradient x1="239.92032" y1="133.86959" x2="239.92032" y2="147.02655" gradientUnits="userSpaceOnUse" id="color-2"><stop offset="0" stop-color="#000000"/><stop offset="1" stop-color="#000000" stop-opacity="0"/></linearGradient><linearGradient x1="239.92032" y1="133.86959" x2="239.92032" y2="147.02655" gradientUnits="userSpaceOnUse" id="color-3"><stop offset="0" stop-color="#000000"/><stop offset="1" stop-color="#000000" stop-opacity="0"/></linearGradient><linearGradient x1="177.19629" y1="140.44806" x2="177.19629" y2="241.68121" gradientUnits="userSpaceOnUse" id="color-4"><stop offset="0" stop-color="#000000"/><stop offset="1" stop-color="#000000" stop-opacity="0"/></linearGradient><linearGradient x1="177.19629" y1="140.44806" x2="177.19629" y2="241.68121" gradientUnits="userSpaceOnUse" id="color-5"><stop offset="0" stop-color="#000000"/><stop offset="1" stop-color="#000000" stop-opacity="0"/></linearGradient><linearGradient x1="239.61655" y1="236.11905" x2="239.61655" y2="249.27602" gradientUnits="userSpaceOnUse" id="color-6"><stop offset="0" stop-color="#000000"/><stop offset="1" stop-color="#000000" stop-opacity="0"/></linearGradient><linearGradient x1="239.61655" y1="236.11905" x2="239.61655" y2="249.27602" gradientUnits="userSpaceOnUse" id="color-7"><stop offset="0" stop-color="#000000"/><stop offset="1" stop-color="#000000" stop-opacity="0"/></linearGradient><linearGradient x1="302.34061" y1="141.46436" x2="302.34061" y2="242.6975" gradientUnits="userSpaceOnUse" id="color-8"><stop offset="0" stop-color="#000000"/><stop offset="1" stop-color="#000000" stop-opacity="0"/></linearGradient><linearGradient x1="302.34061" y1="141.46436" x2="302.34061" y2="242.6975" gradientUnits="userSpaceOnUse" id="color-9"><stop offset="0" stop-color="#000000"/><stop offset="1" stop-color="#000000" stop-opacity="0"/></linearGradient><linearGradient x1="255.19634" y1="179.30876" x2="266.26482" y2="186.37376" gradientUnits="userSpaceOnUse" id="color-10"><stop offset="0" stop-color="#000000" stop-opacity="0"/><stop offset="1" stop-color="#000000" stop-opacity="0"/></linearGradient></defs><g transform="translate(-170.94628,-129.39251)"><g data-paper-data="{&quot;isPaintingLayer&quot;:true}" fill-rule="nonzero" stroke-linejoin="miter" stroke-miterlimit="10" stroke-dasharray="" stroke-dashoffset="0" style="mix-blend-mode: normal"><g><path d="M178.4879,237.76805l-0.96904,-98.60731l124.65311,-2.09515l-5.36817,95.5316z" fill="url(#color-1)" stroke="none" stroke-width="0" stroke-linecap="butt"/><g stroke-linecap="round"><g stroke-width="12.5"><path d="M301.75082,140.44806h-123.66096" fill="url(#color-2)" stroke="url(#color-3)"/><path d="M177.19629,241.68121v-101.23316" fill="url(#color-4)" stroke="url(#color-5)"/><path d="M177.78606,242.6975" data-paper-data="{&quot;index&quot;:null}" fill="url(#color-6)" stroke="url(#color-7)"/><path d="M302.34061,141.46439" data-paper-data="{&quot;index&quot;:null}" fill="url(#color-8)" stroke="url(#color-9)"/></g><g fill="none" stroke="#28123b" stroke-width="12.5"><path d="M178.21981,135.64251h123.66096"/><path d="M177.32622,236.87568v-101.23315"/><path d="M302.0458,210.22956c0,0 -0.95922,26.95911 -31.93166,27.66239c-19.1928,0.4358 -92.19814,0 -92.19814,0" data-paper-data="{&quot;index&quot;:null}"/><path d="M302.47051,208.35416v-71.69534" data-paper-data="{&quot;index&quot;:null}"/></g><g fill="none" stroke="#8b4fff" stroke-width="4.5"><path d="M178.21981,135.64251h123.66096"/><path d="M177.32622,236.87568v-101.23315"/><path d="M302.51464,206.0099c0,0 1.28596,31.88207 -35.91692,31.88207c-22.81613,0 -88.21289,0 -88.21289,0" data-paper-data="{&quot;index&quot;:null}"/><path d="M302.47051,136.65881c0,0 0,55.66537 0,63.25578c0,1.66611 0,6.79857 0,6.79857" data-paper-data="{&quot;index&quot;:null}"/></g></g></g><path d="M264.74222,185.91336l-49.1838,-32.80581" data-paper-data="{&quot;index&quot;:null}" fill="none" stroke="#28123b" stroke-width="13.5" stroke-linecap="round"/><path d="M264.73276,185.67179c0,0 -1.94956,-1.30036 -4.0086,-2.67375c-6.91225,-4.6105 -45.1752,-30.13207 -45.1752,-30.13207" data-paper-data="{&quot;index&quot;:null}" fill="none" stroke="#ab80ff" stroke-width="5.5" stroke-linecap="round"/><path d="M262.61969,187.67679l-5.93592,-4.17174l3.90509,-3.88127l6.0731,4.0234z" fill="#8b4fff" stroke="none" stroke-width="NaN" stroke-linecap="butt"/><path d="M266.25865,186.60465l-49.1838,32.80581" data-paper-data="{&quot;index&quot;:null}" fill="none" stroke="#28123b" stroke-width="13.5" stroke-linecap="round"/><path d="M217.06544,219.65202c0,0 38.26295,-25.52157 45.1752,-30.13207c2.05905,-1.37339 4.0086,-2.67375 4.0086,-2.67375" data-paper-data="{&quot;index&quot;:null}" fill="none" stroke="#ab80ff" stroke-width="5.5" stroke-linecap="round"/><path d="M253.70898,181.63894l2.97473,-4.66042l11.28446,7.60491l-3.1907,4.1205z" fill="#ab80ff" stroke="url(#color-10)" stroke-width="0" stroke-linecap="butt"/></g></g></svg>