<svg version="1.1" xmlns="http://www.w3.org/2000/svg" xmlns:xlink="http://www.w3.org/1999/xlink" width="7.63261" height="4.52938" viewBox="0,0,7.63261,4.52938"><g transform="translate(-236.18388,-177.78084)"><g data-paper-data="{&quot;isPaintingLayer&quot;:true}" fill-rule="nonzero" stroke-linejoin="miter" stroke-miterlimit="10" stroke-dasharray="" stroke-dashoffset="0" style="mix-blend-mode: normal"><path d="M238.52926,178.92533c0.81384,-0.26613 0.85873,-0.3959 1.36228,-0.89449c0.0833,-0.17315 0.20361,-0.06988 0.2418,0.0654c0.55845,0.54233 0.93309,0.67222 1.66636,0.90282c1.12334,0.36393 1.79853,1.02877 1.76564,1.58095c-0.07634,1.28173 -1.56786,1.48021 -3.6314,1.48021c-2.06353,0 -3.47636,-0.29836 -3.50006,-1.37613c-0.02146,-0.97603 0.9003,-1.38488 1.77319,-1.66212z" fill="#28123b" stroke="#28123b" stroke-width="0.5" stroke-linecap="butt"/><path d="M239.17676,180.36336c0,0.36559 -0.00605,0.66197 -0.59259,0.66197c-0.47543,0 -0.59259,-0.29638 -0.59259,-0.66197c0,-0.36559 0.21114,-0.47402 0.59259,-0.66197c0.58764,0.00482 0.59259,0.29638 0.59259,0.66197z" fill="#9966ff" stroke="none" stroke-width="NaN" stroke-linecap="butt"/><path d="M241.2383,179.68473c0.42797,0.21353 0.59259,0.29638 0.59259,0.66197c0,0.36559 -0.11716,0.66197 -0.59259,0.66197c-0.58654,0 -0.59259,-0.29638 -0.59259,-0.66197c0,-0.36559 0.00495,-0.65714 0.59259,-0.66197z" data-paper-data="{&quot;index&quot;:null}" fill="#9966ff" stroke="none" stroke-width="NaN" stroke-linecap="butt"/><path d="M239.31975,180.23915c0,0.19 -0.00314,0.34404 -0.30798,0.34404c-0.24709,0 -0.30798,-0.15403 -0.30798,-0.34404c0,-0.19 0.06138,-0.34606 0.30798,-0.34404c0.30541,0.00251 0.30798,0.15403 0.30798,0.34404z" fill="#28123b" stroke="none" stroke-width="NaN" stroke-linecap="butt"/><path d="M240.81764,179.89512c0.2466,-0.00203 0.30798,0.15404 0.30798,0.34404c0,0.19 -0.06089,0.34404 -0.30798,0.34404c-0.30484,0 -0.30799,-0.15403 -0.30799,-0.34404c0,-0.19 0.00258,-0.34154 0.30799,-0.34404z" data-paper-data="{&quot;index&quot;:null}" fill="#28123b" stroke="none" stroke-width="NaN" stroke-linecap="butt"/><path d="M238.79949,179.26418c0.64619,-0.21131 0.68183,-0.31434 1.08165,-0.71023c0.06614,-0.13749 0.16166,-0.05548 0.19199,0.05193c0.44341,0.4306 0.74087,0.53375 1.32309,0.71684c0.89193,0.28896 1.42803,0.81684 1.40192,1.25527c-0.06061,1.01769 -1.24488,1.17529 -2.88333,1.17529c-1.63844,0 -2.76023,-0.23689 -2.77904,-1.09265c-0.01704,-0.77497 0.71484,-1.09959 1.40792,-1.31972z" fill="none" stroke="#9966ff" stroke-width="0.5" stroke-linecap="butt"/><path d="M239.19241,180.11791c0,0.06211 -0.06768,0.11247 -0.15116,0.11247c-0.08348,0 -0.15116,-0.05036 -0.15116,-0.11247c0,-0.06211 0.06768,-0.11247 0.15116,-0.11247c0.08348,0 0.15116,0.05035 0.15116,0.11247z" fill="#9966ff" stroke="none" stroke-width="0" stroke-linecap="butt"/><path d="M240.89008,180.10512c0,0.06211 -0.06768,0.11247 -0.15116,0.11247c-0.08348,0 -0.15117,-0.05035 -0.15117,-0.11247c0,-0.06211 0.06768,-0.11247 0.15117,-0.11247c0.08348,0 0.15116,0.05036 0.15116,0.11247z" fill="#9966ff" stroke="none" stroke-width="0" stroke-linecap="butt"/><path d="M238.05286,181.04889l0.16279,0.03837" fill="none" stroke="#9966ff" stroke-width="0.1" stroke-linecap="round"/><path d="M241.65751,181.07446l-0.13953,0.02558" fill="none" stroke="#9966ff" stroke-width="0.1" stroke-linecap="round"/></g></g></svg>