<svg version="1.1" xmlns="http://www.w3.org/2000/svg" xmlns:xlink="http://www.w3.org/1999/xlink" width="7.63261" height="2.59632" viewBox="0,0,7.63261,2.59632"><g transform="translate(-236.18388,-178.72553)"><g data-paper-data="{&quot;isPaintingLayer&quot;:true}" fill-rule="nonzero" stroke-linejoin="miter" stroke-miterlimit="10" stroke-dasharray="" stroke-dashoffset="0" style="mix-blend-mode: normal"><path d="M238.52926,179.44089c0.81384,-0.13846 0.85873,-0.20597 1.36228,-0.46537c0.0833,-0.09008 0.20361,-0.03636 0.2418,0.03402c0.55845,0.28215 0.93309,0.34973 1.66636,0.4697c1.12334,0.18934 1.79853,0.53523 1.76564,0.8225c-0.07634,0.66683 -1.56786,0.77009 -3.6314,0.77009c-2.06353,0 -3.47636,-0.15522 -3.50006,-0.71595c-0.02146,-0.50779 0.9003,-0.7205 1.77319,-0.86473z" fill="#28123b" stroke="#28123b" stroke-width="0.5" stroke-linecap="butt"/><path d="M239.17676,180.18904c0,0.1902 -0.00605,0.3444 -0.59259,0.3444c-0.47543,0 -0.59259,-0.15419 -0.59259,-0.3444c0,-0.1902 0.21114,-0.24661 0.59259,-0.3444c0.58764,0.00251 0.59259,0.15419 0.59259,0.3444z" fill="#9966ff" stroke="none" stroke-width="NaN" stroke-linecap="butt"/><path d="M241.2383,179.83598c0.42797,0.11109 0.59259,0.15419 0.59259,0.3444c0,0.1902 -0.11716,0.3444 -0.59259,0.3444c-0.58654,0 -0.59259,-0.15419 -0.59259,-0.3444c0,-0.1902 0.00495,-0.34188 0.59259,-0.3444z" data-paper-data="{&quot;index&quot;:null}" fill="#9966ff" stroke="none" stroke-width="NaN" stroke-linecap="butt"/><path d="M239.31975,180.12442c0,0.09885 -0.00314,0.17899 -0.30798,0.17899c-0.24709,0 -0.30798,-0.08014 -0.30798,-0.17899c0,-0.09885 0.06138,-0.18004 0.30798,-0.17899c0.30541,0.00131 0.30798,0.08014 0.30798,0.17899z" fill="#28123b" stroke="none" stroke-width="NaN" stroke-linecap="butt"/><path d="M240.81764,179.94544c0.2466,-0.00106 0.30798,0.08014 0.30798,0.17899c0,0.09885 -0.06089,0.17899 -0.30798,0.17899c-0.30484,0 -0.30799,-0.08014 -0.30799,-0.17899c0,-0.09885 0.00258,-0.17769 0.30799,-0.17899z" data-paper-data="{&quot;index&quot;:null}" fill="#28123b" stroke="none" stroke-width="NaN" stroke-linecap="butt"/><path d="M238.79949,179.61718c0.64619,-0.10994 0.68183,-0.16354 1.08165,-0.3695c0.06614,-0.07153 0.16166,-0.02886 0.19199,0.02702c0.44341,0.22402 0.74087,0.27769 1.32309,0.37294c0.89193,0.15033 1.42803,0.42497 1.40192,0.65307c-0.06061,0.52946 -1.24488,0.61146 -2.88333,0.61146c-1.63844,0 -2.76023,-0.12324 -2.77904,-0.56846c-0.01704,-0.40319 0.71484,-0.57207 1.40792,-0.6866z" fill="none" stroke="#9966ff" stroke-width="0.5" stroke-linecap="butt"/><path d="M239.19241,180.06135c0,0.03231 -0.06768,0.05851 -0.15116,0.05851c-0.08348,0 -0.15116,-0.0262 -0.15116,-0.05851c0,-0.03231 0.06768,-0.05851 0.15116,-0.05851c0.08348,0 0.15116,0.0262 0.15116,0.05851z" fill="#9966ff" stroke="none" stroke-width="0" stroke-linecap="butt"/><path d="M240.89008,180.05469c0,0.03231 -0.06768,0.05851 -0.15116,0.05851c-0.08348,0 -0.15117,-0.0262 -0.15117,-0.05851c0,-0.03231 0.06768,-0.05851 0.15117,-0.05851c0.08348,0 0.15116,0.0262 0.15116,0.05851z" fill="#9966ff" stroke="none" stroke-width="0" stroke-linecap="butt"/><path d="M238.05286,180.5457l0.16279,0.01996" fill="none" stroke="#9966ff" stroke-width="0.1" stroke-linecap="round"/><path d="M241.65751,180.559l-0.13953,0.01331" fill="none" stroke="#9966ff" stroke-width="0.1" stroke-linecap="round"/></g></g></svg>