<svg version="1.1" xmlns="http://www.w3.org/2000/svg" xmlns:xlink="http://www.w3.org/1999/xlink" width="8.75023" height="2.71451" viewBox="0,0,8.75023,2.71451"><g transform="translate(-235.62488,-178.64275)"><g data-paper-data="{&quot;isPaintingLayer&quot;:true}" fill-rule="nonzero" stroke-width="0" stroke-linecap="butt" stroke-linejoin="miter" stroke-miterlimit="10" stroke-dasharray="" stroke-dashoffset="0" style="mix-blend-mode: normal"><path d="M237.20682,181.04462c-1.85972,-0.47856 -2.11676,-1.3342 -0.57413,-1.91112c1.54263,-0.57692 4.30077,-0.65667 6.16049,-0.17811c1.85972,0.47856 2.11676,1.3342 0.57413,1.91112c-1.54263,0.57692 -4.30077,0.65667 -6.16049,0.17811z" fill="#28123b" stroke="none"/><g stroke="#000000"><g data-paper-data="{&quot;index&quot;:null}"><path d="M237.80182,180.70728c-0.17993,-0.05405 -0.00173,-0.00404 -0.00173,-0.00404l4.37621,-1.4104c0,0 -0.0982,-0.02751 0.01759,0.00726c1.25258,0.37625 1.2848,0.99626 0.07197,1.38484c-1.21283,0.38858 -3.21145,0.39858 -4.46404,0.02233z" fill="#57a0ff"/><path d="M237.81911,180.70894c0,0 0.16685,0.05364 -0.01308,-0.00041c-1.25258,-0.37625 -1.2848,-0.99627 -0.07197,-1.38484c1.21283,-0.38858 3.21145,-0.39857 4.46404,-0.02232c0.11579,0.03478 0.02396,0.00522 0.02396,0.00522l-4.40296,1.40236z" data-paper-data="{&quot;index&quot;:null}" fill="#ff647e"/></g><path d="M239.85055,180.03201l2.32568,-0.74954c0,0 -0.09821,-0.02751 0.01759,0.00726c1.25258,0.37625 1.28481,0.99626 0.07197,1.38484c-0.08205,0.0263 -0.10473,0.03228 -0.10473,0.03228z" data-paper-data="{&quot;index&quot;:null}" fill="#75b1ff"/><path d="M237.65507,179.34909c0,0 0.01857,-0.00722 0.10056,-0.03353c1.21195,-0.38886 3.21054,-0.39929 4.46399,-0.02332c0.11587,0.03475 0.02398,0.00521 0.02398,0.00521l-2.33819,0.74579z" data-paper-data="{&quot;index&quot;:null}" fill="#ff8096"/></g></g></g></svg>