<svg version="1.1" xmlns="http://www.w3.org/2000/svg" xmlns:xlink="http://www.w3.org/1999/xlink" width="8.75" height="7.225" viewBox="0,0,8.75,7.225"><g transform="translate(-235.625,-176.3875)"><g data-paper-data="{&quot;isPaintingLayer&quot;:true}" fill-rule="nonzero" stroke-linecap="butt" stroke-linejoin="miter" stroke-miterlimit="10" stroke-dasharray="" stroke-dashoffset="0" style="mix-blend-mode: normal"><path d="M235.625,180c0,-1.99513 1.95875,-3.6125 4.375,-3.6125c2.41625,0 4.375,1.61737 4.375,3.6125c0,1.99513 -1.95875,3.6125 -4.375,3.6125c-2.41625,0 -4.375,-1.61737 -4.375,-3.6125z" fill="#28123b" stroke="none" stroke-width="0"/><path d="M237.53333,180c0,-1.12487 1.10437,-2.03676 2.46667,-2.03676c1.3623,0 2.46667,0.91189 2.46667,2.03676c0,1.12487 -1.10436,2.03676 -2.46667,2.03676c-1.3623,0 -2.46667,-0.91188 -2.46667,-2.03676z" fill="none" stroke="#8b4fff" stroke-width="1.5"/><g stroke="none"><path d="M237.98288,180.42103c-0.35913,-0.23492 -0.36691,-0.62104 -0.01739,-0.8624c0.34953,-0.24137 0.92403,-0.2466 1.28315,-0.01169c0.35913,0.23492 0.36691,0.62104 0.01739,0.8624c-0.34953,0.24137 -0.92403,0.2466 -1.28315,0.01169z" fill="#8b4fff" stroke-width="NaN"/><path d="M240.75137,180.43373c-0.35913,-0.23492 -0.36691,-0.62104 -0.01739,-0.8624c0.34953,-0.24137 0.92403,-0.2466 1.28315,-0.01169c0.35913,0.23492 0.36691,0.62104 0.01739,0.8624c-0.34953,0.24137 -0.92403,0.2466 -1.28315,0.01169z" fill="#8b4fff" stroke-width="NaN"/><path d="M239.38638,181.30751c-0.35913,-0.23492 -0.36691,-0.62104 -0.01739,-0.8624c0.34953,-0.24137 0.92403,-0.2466 1.28315,-0.01169c0.35913,0.23492 0.36691,0.62104 0.01739,0.8624c-0.34953,0.24137 -0.92403,0.2466 -1.28315,0.01169z" fill="#8b4fff" stroke-width="NaN"/><path d="M239.3761,179.56658c-0.35913,-0.23492 -0.36691,-0.62104 -0.01739,-0.8624c0.34953,-0.24137 0.92403,-0.2466 1.28315,-0.01169c0.35913,0.23492 0.36691,0.62104 0.01739,0.8624c-0.34953,0.24137 -0.92403,0.2466 -1.28315,0.01169z" fill="#8b4fff" stroke-width="NaN"/><path d="M239.34818,180.46288c-0.38164,-0.24964 -0.38992,-0.65996 -0.01848,-0.91646c0.37144,-0.2565 0.98194,-0.26206 1.36359,-0.01242c0.38164,0.24964 0.38992,0.65996 0.01848,0.91646c-0.37144,0.2565 -0.98194,0.26206 -1.36359,0.01242z" fill="#28123b" stroke-width="0"/></g></g></g></svg>