<svg version="1.1" xmlns="http://www.w3.org/2000/svg" xmlns:xlink="http://www.w3.org/1999/xlink" width="199.62616" height="43.9469" viewBox="0,0,199.62616,43.9469"><defs><linearGradient x1="240" y1="162.52655" x2="240" y2="177.57348" gradientUnits="userSpaceOnUse" id="color-1"><stop offset="0" stop-color="#000000"/><stop offset="1" stop-color="#000000" stop-opacity="0"/></linearGradient><linearGradient x1="240" y1="162.52655" x2="240" y2="177.57348" gradientUnits="userSpaceOnUse" id="color-2"><stop offset="0" stop-color="#000000"/><stop offset="1" stop-color="#000000" stop-opacity="0"/></linearGradient><linearGradient x1="240.49189" y1="184.92652" x2="240.49189" y2="199.97345" gradientUnits="userSpaceOnUse" id="color-3"><stop offset="0" stop-color="#000000"/><stop offset="1" stop-color="#000000" stop-opacity="0"/></linearGradient><linearGradient x1="240.49189" y1="184.92652" x2="240.49189" y2="199.97345" gradientUnits="userSpaceOnUse" id="color-4"><stop offset="0" stop-color="#000000"/><stop offset="1" stop-color="#000000" stop-opacity="0"/></linearGradient></defs><g transform="translate(-140.12992,-158.02655)"><g data-paper-data="{&quot;isPaintingLayer&quot;:true}" fill-rule="nonzero" stroke-linecap="square" stroke-linejoin="miter" stroke-miterlimit="10" stroke-dasharray="" stroke-dashoffset="0" style="mix-blend-mode: normal"><g stroke-width="4"><path d="M147.21015,177.46404c-0.80208,0 -1.5625,-0.125 -2.28125,-0.375c-0.71875,-0.25 -1.34896,-0.59896 -1.89062,-1.04687c-0.53125,-0.44792 -0.92187,-0.96354 -1.17187,-1.54687c-0.125,-0.26042 -0.125,-0.5 0,-0.71875c0.13542,-0.22917 0.35938,-0.375 0.67188,-0.4375c0.22917,-0.05208 0.44792,-0.01562 0.65625,0.10938c0.21875,0.11458 0.38542,0.29167 0.5,0.53125c0.14583,0.3125 0.39063,0.59896 0.73438,0.85938c0.34375,0.26042 0.75521,0.47396 1.23438,0.64063c0.48958,0.15625 1.00521,0.23438 1.54688,0.23438c0.59375,0 1.14063,-0.09375 1.64063,-0.28125c0.51042,-0.1875 0.91667,-0.45833 1.21875,-0.8125c0.3125,-0.35417 0.46875,-0.79167 0.46875,-1.3125c0,-0.66667 -0.26042,-1.26042 -0.78125,-1.78125c-0.51042,-0.52083 -1.35417,-0.84375 -2.53125,-0.96875c-1.54167,-0.14583 -2.75521,-0.59896 -3.64062,-1.35937c-0.88542,-0.76042 -1.32812,-1.69792 -1.32812,-2.8125c0,-0.82292 0.22917,-1.52083 0.6875,-2.09375c0.45833,-0.57292 1.08333,-1.00521 1.875,-1.29687c0.79167,-0.30208 1.67188,-0.45312 2.64063,-0.45312c0.76042,0 1.42188,0.10417 1.98438,0.3125c0.57292,0.20833 1.06771,0.5 1.48438,0.875c0.42708,0.375 0.79688,0.81771 1.10938,1.32813c0.16667,0.27083 0.23438,0.53125 0.20313,0.78125c-0.02083,0.23958 -0.14062,0.42708 -0.35937,0.5625c-0.22917,0.14583 -0.48437,0.17708 -0.76562,0.09375c-0.27083,-0.08333 -0.47396,-0.24479 -0.60937,-0.48437c-0.19792,-0.36458 -0.44271,-0.67187 -0.73437,-0.92187c-0.28125,-0.25 -0.61458,-0.44271 -1,-0.57812c-0.38542,-0.14583 -0.83854,-0.21875 -1.35937,-0.21875c-0.92708,-0.01042 -1.70312,0.16146 -2.32812,0.51563c-0.61458,0.35417 -0.92187,0.89583 -0.92187,1.625c0,0.375 0.09375,0.73438 0.28125,1.07813c0.19792,0.34375 0.55208,0.64063 1.0625,0.89063c0.52083,0.25 1.26563,0.42188 2.23438,0.51563c1.47917,0.14583 2.63021,0.59896 3.45313,1.35938c0.83333,0.75 1.25,1.73958 1.25,2.96875c0,0.70833 -0.14583,1.32292 -0.4375,1.84375c-0.29167,0.52083 -0.68229,0.96354 -1.17187,1.32813c-0.48958,0.35417 -1.05208,0.61979 -1.6875,0.79688c-0.625,0.16667 -1.27083,0.25 -1.9375,0.25zM156.37379,177.27654c-0.27083,0 -0.5,-0.09375 -0.6875,-0.28125c-0.1875,-0.1875 -0.28125,-0.41667 -0.28125,-0.6875v-12.625c0,-0.29167 0.09375,-0.52604 0.28125,-0.70312c0.1875,-0.1875 0.41667,-0.28125 0.6875,-0.28125h8.4375c0.29167,0 0.52083,0.08854 0.6875,0.26563c0.17708,0.16667 0.26563,0.38542 0.26563,0.65625c0,0.26042 -0.08854,0.47396 -0.26562,0.64063c-0.16667,0.15625 -0.39583,0.23438 -0.6875,0.23438h-7.45312v4.53125h5.34375c0.29167,0 0.52083,0.08333 0.6875,0.25c0.17708,0.16667 0.26563,0.38542 0.26563,0.65625c0,0.26042 -0.08854,0.47396 -0.26562,0.64063c-0.16667,0.16667 -0.39583,0.25 -0.6875,0.25h-5.34375v4.65625h7.45313c0.29167,0 0.52083,0.08333 0.6875,0.25c0.17708,0.15625 0.26563,0.36458 0.26563,0.625c0,0.28125 -0.08854,0.50521 -0.26562,0.67188c-0.16667,0.16667 -0.39583,0.25 -0.6875,0.25zM169.41755,177.27654c-0.27083,0 -0.5,-0.09375 -0.6875,-0.28125c-0.17708,-0.1875 -0.26562,-0.41667 -0.26562,-0.6875v-12.625c0,-0.28125 0.09375,-0.51562 0.28125,-0.70312c0.1875,-0.1875 0.41146,-0.28125 0.67188,-0.28125c0.28125,0 0.51042,0.09375 0.6875,0.28125c0.1875,0.1875 0.28125,0.42188 0.28125,0.70313v11.65625h6.76563c0.27083,0 0.5,0.09375 0.6875,0.28125c0.1875,0.1875 0.28125,0.41667 0.28125,0.6875c0,0.27083 -0.09375,0.5 -0.28125,0.6875c-0.1875,0.1875 -0.41667,0.28125 -0.6875,0.28125zM181.41047,177.27654c-0.27083,0 -0.5,-0.09375 -0.6875,-0.28125c-0.1875,-0.1875 -0.28125,-0.41667 -0.28125,-0.6875v-12.625c0,-0.29167 0.09375,-0.52604 0.28125,-0.70312c0.1875,-0.1875 0.41667,-0.28125 0.6875,-0.28125h8.4375c0.29167,0 0.52083,0.08854 0.6875,0.26563c0.17708,0.16667 0.26563,0.38542 0.26563,0.65625c0,0.26042 -0.08854,0.47396 -0.26562,0.64063c-0.16667,0.15625 -0.39583,0.23438 -0.6875,0.23438h-7.45312v4.53125h5.34375c0.29167,0 0.52083,0.08333 0.6875,0.25c0.17708,0.16667 0.26563,0.38542 0.26563,0.65625c0,0.26042 -0.08854,0.47396 -0.26562,0.64063c-0.16667,0.16667 -0.39583,0.25 -0.6875,0.25h-5.34375v4.65625h7.45313c0.29167,0 0.52083,0.08333 0.6875,0.25c0.17708,0.15625 0.26563,0.36458 0.26563,0.625c0,0.28125 -0.08854,0.50521 -0.26562,0.67188c-0.16667,0.16667 -0.39583,0.25 -0.6875,0.25zM200.03235,177.46404c-1,0 -1.94271,-0.1875 -2.82812,-0.5625c-0.875,-0.38542 -1.64062,-0.91667 -2.29687,-1.59375c-0.64583,-0.67708 -1.15625,-1.46875 -1.53125,-2.375c-0.36458,-0.90625 -0.54687,-1.89062 -0.54687,-2.95312c0,-1.04167 0.18229,-2.01042 0.54688,-2.90625c0.375,-0.90625 0.88542,-1.69792 1.53125,-2.375c0.65625,-0.67708 1.41667,-1.20833 2.28125,-1.59375c0.875,-0.38542 1.82292,-0.57812 2.84375,-0.57812c0.95833,0 1.78125,0.125 2.46875,0.375c0.69792,0.23958 1.39583,0.64583 2.09375,1.21875c0.09375,0.07292 0.16667,0.15104 0.21875,0.23438c0.0625,0.08333 0.10417,0.16667 0.125,0.25c0.02083,0.07292 0.03125,0.16667 0.03125,0.28125c0,0.23958 -0.08854,0.4375 -0.26562,0.59375c-0.16667,0.15625 -0.36979,0.24479 -0.60937,0.26563c-0.22917,0.01042 -0.45833,-0.06771 -0.6875,-0.23437c-0.45833,-0.40625 -0.93229,-0.71354 -1.42187,-0.92187c-0.48958,-0.20833 -1.14062,-0.3125 -1.95312,-0.3125c-0.72917,0 -1.41667,0.15104 -2.0625,0.45313c-0.64583,0.29167 -1.21875,0.69792 -1.71875,1.21875c-0.48958,0.52083 -0.86979,1.13021 -1.14062,1.82813c-0.27083,0.6875 -0.40625,1.42188 -0.40625,2.20313c0,0.80208 0.13542,1.54688 0.40625,2.23438c0.27083,0.6875 0.65104,1.29167 1.14063,1.8125c0.5,0.52083 1.07292,0.93229 1.71875,1.23438c0.64583,0.29167 1.33333,0.4375 2.0625,0.4375c0.63542,0 1.23438,-0.10937 1.79688,-0.32812c0.57292,-0.21875 1.11979,-0.52083 1.64063,-0.90625c0.21875,-0.16667 0.4375,-0.23958 0.65625,-0.21875c0.21875,0.02083 0.40104,0.10938 0.54688,0.26563c0.15625,0.15625 0.23438,0.36979 0.23438,0.64063c0,0.125 -0.02604,0.25 -0.07812,0.375c-0.05208,0.11458 -0.125,0.21875 -0.21875,0.3125c-0.67708,0.53125 -1.40104,0.9375 -2.17187,1.21875c-0.76042,0.27083 -1.5625,0.40625 -2.40625,0.40625zM212.30952,177.27654c-0.27083,0 -0.5,-0.09375 -0.6875,-0.28125c-0.1875,-0.1875 -0.28125,-0.41667 -0.28125,-0.6875v-13.60937h1.9375v13.60938c0,0.27083 -0.09375,0.5 -0.28125,0.6875c-0.1875,0.1875 -0.41667,0.28125 -0.6875,0.28125zM207.30952,164.49529c-0.26042,0 -0.47396,-0.08333 -0.64062,-0.25c-0.16667,-0.16667 -0.25,-0.38021 -0.25,-0.64062c0,-0.26042 0.08333,-0.47396 0.25,-0.64062c0.16667,-0.17708 0.38021,-0.26562 0.64063,-0.26562h9.98438c0.26042,0 0.47396,0.08854 0.64063,0.26563c0.16667,0.16667 0.25,0.38021 0.25,0.64063c0,0.26042 -0.08333,0.47396 -0.25,0.64063c-0.16667,0.16667 -0.38021,0.25 -0.64062,0.25zM232.3263,177.46404c-1,0 -1.94271,-0.1875 -2.82812,-0.5625c-0.875,-0.38542 -1.64062,-0.91667 -2.29687,-1.59375c-0.64583,-0.67708 -1.15625,-1.46875 -1.53125,-2.375c-0.36458,-0.90625 -0.54687,-1.89062 -0.54687,-2.95312c0,-1.04167 0.18229,-2.01042 0.54688,-2.90625c0.375,-0.90625 0.88542,-1.69792 1.53125,-2.375c0.65625,-0.67708 1.41667,-1.20833 2.28125,-1.59375c0.875,-0.38542 1.82292,-0.57812 2.84375,-0.57812c0.95833,0 1.78125,0.125 2.46875,0.375c0.69792,0.23958 1.39583,0.64583 2.09375,1.21875c0.09375,0.07292 0.16667,0.15104 0.21875,0.23438c0.0625,0.08333 0.10417,0.16667 0.125,0.25c0.02083,0.07292 0.03125,0.16667 0.03125,0.28125c0,0.23958 -0.08854,0.4375 -0.26562,0.59375c-0.16667,0.15625 -0.36979,0.24479 -0.60937,0.26563c-0.22917,0.01042 -0.45833,-0.06771 -0.6875,-0.23437c-0.45833,-0.40625 -0.93229,-0.71354 -1.42187,-0.92187c-0.48958,-0.20833 -1.14062,-0.3125 -1.95312,-0.3125c-0.72917,0 -1.41667,0.15104 -2.0625,0.45313c-0.64583,0.29167 -1.21875,0.69792 -1.71875,1.21875c-0.48958,0.52083 -0.86979,1.13021 -1.14062,1.82813c-0.27083,0.6875 -0.40625,1.42188 -0.40625,2.20313c0,0.80208 0.13542,1.54688 0.40625,2.23438c0.27083,0.6875 0.65104,1.29167 1.14063,1.8125c0.5,0.52083 1.07292,0.93229 1.71875,1.23438c0.64583,0.29167 1.33333,0.4375 2.0625,0.4375c0.63542,0 1.23438,-0.10937 1.79688,-0.32812c0.57292,-0.21875 1.11979,-0.52083 1.64063,-0.90625c0.21875,-0.16667 0.4375,-0.23958 0.65625,-0.21875c0.21875,0.02083 0.40104,0.10938 0.54688,0.26563c0.15625,0.15625 0.23438,0.36979 0.23438,0.64063c0,0.125 -0.02604,0.25 -0.07812,0.375c-0.05208,0.11458 -0.125,0.21875 -0.21875,0.3125c-0.67708,0.53125 -1.40104,0.9375 -2.17187,1.21875c-0.76042,0.27083 -1.5625,0.40625 -2.40625,0.40625zM247.02534,177.46404c-1.09375,0 -2.09375,-0.18229 -3,-0.54687c-0.90625,-0.375 -1.6875,-0.89062 -2.34375,-1.54687c-0.64583,-0.66667 -1.15104,-1.45833 -1.51562,-2.375c-0.36458,-0.91667 -0.54687,-1.92187 -0.54687,-3.01562c0,-1.09375 0.18229,-2.09375 0.54688,-3c0.36458,-0.90625 0.86979,-1.69271 1.51563,-2.35937c0.65625,-0.66667 1.4375,-1.18229 2.34375,-1.54687c0.90625,-0.36458 1.90625,-0.54687 3,-0.54687c1.10417,0 2.10417,0.18229 3,0.54688c0.90625,0.36458 1.6875,0.88021 2.34375,1.54688c0.65625,0.66667 1.16146,1.45313 1.51563,2.35938c0.36458,0.90625 0.54688,1.90625 0.54688,3c0,1.09375 -0.18229,2.09896 -0.54687,3.01563c-0.35417,0.91667 -0.85937,1.70833 -1.51562,2.375c-0.65625,0.65625 -1.4375,1.17188 -2.34375,1.54688c-0.89583,0.36458 -1.89583,0.54688 -3,0.54688zM247.02534,175.71404c0.8125,0 1.55729,-0.14583 2.23438,-0.4375c0.67708,-0.29167 1.26563,-0.69792 1.76563,-1.21875c0.5,-0.52083 0.88021,-1.125 1.14063,-1.8125c0.27083,-0.69792 0.40625,-1.45312 0.40625,-2.26562c0,-0.80208 -0.13542,-1.55208 -0.40625,-2.25c-0.26042,-0.69792 -0.64062,-1.30208 -1.14062,-1.8125c-0.5,-0.52083 -1.08854,-0.92187 -1.76562,-1.20312c-0.67708,-0.29167 -1.42187,-0.4375 -2.23437,-0.4375c-0.80208,0 -1.54167,0.14583 -2.21875,0.4375c-0.67708,0.28125 -1.26562,0.68229 -1.76562,1.20313c-0.48958,0.51042 -0.86979,1.11458 -1.14062,1.8125c-0.27083,0.69792 -0.40625,1.44792 -0.40625,2.25c0,0.8125 0.13542,1.56771 0.40625,2.26563c0.27083,0.6875 0.65104,1.29167 1.14063,1.8125c0.5,0.52083 1.08854,0.92708 1.76563,1.21875c0.67708,0.29167 1.41667,0.4375 2.21875,0.4375zM258.44215,177.27654c-0.27083,0 -0.5,-0.09375 -0.6875,-0.28125c-0.1875,-0.1875 -0.28125,-0.41667 -0.28125,-0.6875v-12.625c0,-0.29167 0.09375,-0.52604 0.28125,-0.70312c0.1875,-0.1875 0.41667,-0.28125 0.6875,-0.28125c0.375,0 0.66146,0.17708 0.85938,0.53125l5.84375,11.70313h-0.59375l5.6875,-11.70312c0.19792,-0.35417 0.48438,-0.53125 0.85938,-0.53125c0.27083,0 0.5,0.09375 0.6875,0.28125c0.1875,0.17708 0.28125,0.41146 0.28125,0.70313v12.625c0,0.27083 -0.09896,0.5 -0.29687,0.6875c-0.1875,0.1875 -0.41146,0.28125 -0.67187,0.28125c-0.27083,0 -0.5,-0.09375 -0.6875,-0.28125c-0.1875,-0.1875 -0.28125,-0.41667 -0.28125,-0.6875v-9.9375l0.375,-0.09375l-4.89062,9.95313c-0.20833,0.32292 -0.48958,0.48438 -0.84375,0.48438c-0.40625,0 -0.70312,-0.19271 -0.89062,-0.57812l-4.82812,-9.6875l0.375,-0.07812v9.9375c0,0.27083 -0.09375,0.5 -0.28125,0.6875c-0.1875,0.1875 -0.42187,0.28125 -0.70312,0.28125zM276.76258,177.27654c-0.27083,0 -0.5,-0.09375 -0.6875,-0.28125c-0.1875,-0.1875 -0.28125,-0.41667 -0.28125,-0.6875v-12.625c0,-0.29167 0.09375,-0.52604 0.28125,-0.70312c0.1875,-0.1875 0.41667,-0.28125 0.6875,-0.28125h3.73438c0.9375,0 1.76563,0.20833 2.48438,0.625c0.71875,0.40625 1.28125,0.97396 1.6875,1.70313c0.40625,0.72917 0.60938,1.56771 0.60938,2.51563c0,0.90625 -0.20312,1.71354 -0.60937,2.42188c-0.40625,0.70833 -0.96875,1.26042 -1.6875,1.65625c-0.71875,0.39583 -1.54687,0.59375 -2.48437,0.59375h-2.75v4.09375c0,0.27083 -0.09375,0.5 -0.28125,0.6875c-0.17708,0.1875 -0.41146,0.28125 -0.70312,0.28125zM277.74696,170.43279h2.75c0.57292,0 1.07813,-0.125 1.51563,-0.375c0.4375,-0.25 0.78125,-0.59375 1.03125,-1.03125c0.25,-0.4375 0.375,-0.93229 0.375,-1.48437c0,-0.60417 -0.125,-1.13021 -0.375,-1.57812c-0.25,-0.45833 -0.59375,-0.81771 -1.03125,-1.07812c-0.4375,-0.26042 -0.94271,-0.39062 -1.51562,-0.39062h-2.75zM293.52601,177.57342c-1.19792,0 -2.25521,-0.21875 -3.17187,-0.65625c-0.91667,-0.44792 -1.63542,-1.0625 -2.15625,-1.84375c-0.52083,-0.78125 -0.78125,-1.67708 -0.78125,-2.6875v-8.70312c0,-0.29167 0.09375,-0.52604 0.28125,-0.70312c0.1875,-0.1875 0.41667,-0.28125 0.6875,-0.28125c0.29167,0 0.52604,0.09375 0.70313,0.28125c0.1875,0.17708 0.28125,0.41146 0.28125,0.70313v8.70313c0,0.67708 0.17708,1.27604 0.53125,1.79688c0.35417,0.51042 0.84375,0.91146 1.46875,1.20313c0.625,0.29167 1.34375,0.4375 2.15625,0.4375c0.78125,0 1.47396,-0.14583 2.07813,-0.4375c0.60417,-0.29167 1.07813,-0.69271 1.42188,-1.20312c0.34375,-0.52083 0.51563,-1.11979 0.51563,-1.79687v-8.70312c0,-0.29167 0.08854,-0.52604 0.26563,-0.70312c0.1875,-0.1875 0.42188,-0.28125 0.70313,-0.28125c0.28125,0 0.51042,0.09375 0.6875,0.28125c0.17708,0.17708 0.26563,0.41146 0.26563,0.70313v8.70313c0,1.01042 -0.25521,1.90625 -0.76562,2.6875c-0.5,0.78125 -1.19792,1.39583 -2.09375,1.84375c-0.89583,0.4375 -1.92187,0.65625 -3.07812,0.65625zM307.49372,177.27654c-0.27083,0 -0.5,-0.09375 -0.6875,-0.28125c-0.1875,-0.1875 -0.28125,-0.41667 -0.28125,-0.6875v-13.60937h1.9375v13.60938c0,0.27083 -0.09375,0.5 -0.28125,0.6875c-0.1875,0.1875 -0.41667,0.28125 -0.6875,0.28125zM302.49372,164.49529c-0.26042,0 -0.47396,-0.08333 -0.64062,-0.25c-0.16667,-0.16667 -0.25,-0.38021 -0.25,-0.64062c0,-0.26042 0.08333,-0.47396 0.25,-0.64062c0.16667,-0.17708 0.38021,-0.26562 0.64063,-0.26562h9.98438c0.26042,0 0.47396,0.08854 0.64063,0.26563c0.16667,0.16667 0.25,0.38021 0.25,0.64063c0,0.26042 -0.08333,0.47396 -0.25,0.64063c-0.16667,0.16667 -0.38021,0.25 -0.64062,0.25zM316.48176,177.27654c-0.27083,0 -0.5,-0.09375 -0.6875,-0.28125c-0.1875,-0.1875 -0.28125,-0.41667 -0.28125,-0.6875v-12.625c0,-0.29167 0.09375,-0.52604 0.28125,-0.70312c0.1875,-0.1875 0.41667,-0.28125 0.6875,-0.28125h8.4375c0.29167,0 0.52083,0.08854 0.6875,0.26563c0.17708,0.16667 0.26563,0.38542 0.26563,0.65625c0,0.26042 -0.08854,0.47396 -0.26562,0.64063c-0.16667,0.15625 -0.39583,0.23438 -0.6875,0.23438h-7.45312v4.53125h5.34375c0.29167,0 0.52083,0.08333 0.6875,0.25c0.17708,0.16667 0.26563,0.38542 0.26563,0.65625c0,0.26042 -0.08854,0.47396 -0.26562,0.64063c-0.16667,0.16667 -0.39583,0.25 -0.6875,0.25h-5.34375v4.65625h7.45313c0.29167,0 0.52083,0.08333 0.6875,0.25c0.17708,0.15625 0.26563,0.36458 0.26563,0.625c0,0.28125 -0.08854,0.50521 -0.26562,0.67188c-0.16667,0.16667 -0.39583,0.25 -0.6875,0.25zM329.54108,177.27654c-0.27083,0 -0.5,-0.09375 -0.6875,-0.28125c-0.1875,-0.1875 -0.28125,-0.41667 -0.28125,-0.6875v-12.625c0,-0.29167 0.09375,-0.52604 0.28125,-0.70312c0.1875,-0.1875 0.41667,-0.28125 0.6875,-0.28125h3.35938c0.9375,0 1.76563,0.19792 2.48438,0.59375c0.71875,0.39583 1.28125,0.9375 1.6875,1.625c0.40625,0.67708 0.60938,1.46875 0.60938,2.375c0,0.84375 -0.20312,1.59896 -0.60937,2.26563c-0.40625,0.65625 -0.96875,1.17188 -1.6875,1.54688c-0.71875,0.375 -1.54687,0.5625 -2.48437,0.5625h-2.375v4.64063c0,0.27083 -0.09375,0.5 -0.28125,0.6875c-0.17708,0.1875 -0.41146,0.28125 -0.70312,0.28125zM337.29108,177.27654c-0.17708,0 -0.33854,-0.03646 -0.48437,-0.10937c-0.13542,-0.07292 -0.25521,-0.19271 -0.35937,-0.35937l-3.35937,-5.40625l1.89063,-0.54687l3.0625,4.92188c0.21875,0.36458 0.24479,0.70833 0.07813,1.03125c-0.15625,0.3125 -0.43229,0.46875 -0.82812,0.46875zM330.52546,169.87029h2.375c0.57292,0 1.07813,-0.10937 1.51563,-0.32812c0.4375,-0.21875 0.78125,-0.52083 1.03125,-0.90625c0.25,-0.39583 0.375,-0.84375 0.375,-1.34375c0,-0.54167 -0.125,-1.02604 -0.375,-1.45312c-0.25,-0.42708 -0.59375,-0.75521 -1.03125,-0.98437c-0.4375,-0.23958 -0.94271,-0.35937 -1.51562,-0.35937h-2.375z" fill="url(#color-1)" stroke="url(#color-2)"/><path d="M185.4782,199.67651c-0.27083,0 -0.5,-0.09375 -0.6875,-0.28125c-0.1875,-0.1875 -0.28125,-0.41667 -0.28125,-0.6875v-12.625c0,-0.29167 0.09375,-0.52604 0.28125,-0.70312c0.1875,-0.1875 0.41667,-0.28125 0.6875,-0.28125h3.39063c1.0625,0 2.03125,0.18229 2.90625,0.54688c0.88542,0.35417 1.65104,0.85938 2.29688,1.51563c0.64583,0.64583 1.14063,1.41146 1.48438,2.29688c0.35417,0.875 0.53125,1.84896 0.53125,2.92188c0,1.07292 -0.17708,2.05729 -0.53125,2.95313c-0.34375,0.88542 -0.83854,1.65625 -1.48437,2.3125c-0.64583,0.64583 -1.41146,1.14583 -2.29687,1.5c-0.875,0.35417 -1.84375,0.53125 -2.90625,0.53125zM186.46257,197.95776h2.40625c1.04167,0 1.96354,-0.23958 2.76563,-0.71875c0.80208,-0.47917 1.43229,-1.13542 1.89063,-1.96875c0.45833,-0.84375 0.6875,-1.80729 0.6875,-2.89062c0,-1.09375 -0.22917,-2.05729 -0.6875,-2.89062c-0.45833,-0.83333 -1.08854,-1.48437 -1.89062,-1.95312c-0.80208,-0.47917 -1.72396,-0.71875 -2.76562,-0.71875h-2.40625zM200.08605,199.67651c-0.27083,0 -0.5,-0.09375 -0.6875,-0.28125c-0.1875,-0.1875 -0.28125,-0.41667 -0.28125,-0.6875v-12.625c0,-0.29167 0.09375,-0.52604 0.28125,-0.70312c0.1875,-0.1875 0.41667,-0.28125 0.6875,-0.28125c0.29167,0 0.52604,0.09375 0.70313,0.28125c0.1875,0.17708 0.28125,0.41146 0.28125,0.70313v12.625c0,0.27083 -0.09375,0.5 -0.28125,0.6875c-0.17708,0.1875 -0.41146,0.28125 -0.70312,0.28125zM204.58568,199.67651c-0.27083,0 -0.5,-0.09375 -0.6875,-0.28125c-0.1875,-0.1875 -0.28125,-0.41667 -0.28125,-0.6875v-12.625c0,-0.29167 0.09375,-0.52604 0.28125,-0.70312c0.1875,-0.1875 0.41667,-0.28125 0.6875,-0.28125h8.4375c0.28125,0 0.51042,0.08854 0.6875,0.26563c0.17708,0.16667 0.26563,0.38542 0.26563,0.65625c0,0.26042 -0.08854,0.47396 -0.26562,0.64063c-0.17708,0.15625 -0.40625,0.23438 -0.6875,0.23438h-7.46875v4.53125h5.35938c0.28125,0 0.51042,0.08333 0.6875,0.25c0.17708,0.16667 0.26563,0.38542 0.26563,0.65625c0,0.26042 -0.08854,0.47396 -0.26562,0.64063c-0.17708,0.16667 -0.40625,0.25 -0.6875,0.25h-5.35937v5.48438c0,0.27083 -0.09375,0.5 -0.28125,0.6875c-0.17708,0.1875 -0.40625,0.28125 -0.6875,0.28125zM216.24584,199.67651c-0.27083,0 -0.5,-0.09375 -0.6875,-0.28125c-0.1875,-0.1875 -0.28125,-0.41667 -0.28125,-0.6875v-12.625c0,-0.29167 0.09375,-0.52604 0.28125,-0.70312c0.1875,-0.1875 0.41667,-0.28125 0.6875,-0.28125h8.4375c0.28125,0 0.51042,0.08854 0.6875,0.26563c0.17708,0.16667 0.26563,0.38542 0.26563,0.65625c0,0.26042 -0.08854,0.47396 -0.26562,0.64063c-0.17708,0.15625 -0.40625,0.23438 -0.6875,0.23438h-7.46875v4.53125h5.35938c0.28125,0 0.51042,0.08333 0.6875,0.25c0.17708,0.16667 0.26563,0.38542 0.26563,0.65625c0,0.26042 -0.08854,0.47396 -0.26562,0.64063c-0.17708,0.16667 -0.40625,0.25 -0.6875,0.25h-5.35937v5.48438c0,0.27083 -0.09375,0.5 -0.28125,0.6875c-0.17708,0.1875 -0.40625,0.28125 -0.6875,0.28125zM229.07787,199.67651c-0.27083,0 -0.5,-0.09375 -0.6875,-0.28125c-0.1875,-0.1875 -0.28125,-0.41667 -0.28125,-0.6875v-12.625c0,-0.29167 0.09375,-0.52604 0.28125,-0.70312c0.1875,-0.1875 0.41667,-0.28125 0.6875,-0.28125c0.29167,0 0.52604,0.09375 0.70313,0.28125c0.1875,0.17708 0.28125,0.41146 0.28125,0.70313v12.625c0,0.27083 -0.09375,0.5 -0.28125,0.6875c-0.17708,0.1875 -0.41146,0.28125 -0.70312,0.28125zM240.31188,199.86401c-1,0 -1.94271,-0.1875 -2.82812,-0.5625c-0.875,-0.38542 -1.64062,-0.91667 -2.29687,-1.59375c-0.64583,-0.67708 -1.15625,-1.46875 -1.53125,-2.375c-0.36458,-0.90625 -0.54687,-1.89062 -0.54687,-2.95312c0,-1.04167 0.18229,-2.01042 0.54688,-2.90625c0.375,-0.90625 0.88542,-1.69792 1.53125,-2.375c0.65625,-0.67708 1.41667,-1.20833 2.28125,-1.59375c0.875,-0.38542 1.82292,-0.57812 2.84375,-0.57812c0.95833,0 1.78125,0.125 2.46875,0.375c0.69792,0.23958 1.39583,0.64583 2.09375,1.21875c0.09375,0.07292 0.16667,0.15104 0.21875,0.23438c0.0625,0.08333 0.10417,0.16667 0.125,0.25c0.02083,0.07292 0.03125,0.16667 0.03125,0.28125c0,0.23958 -0.08854,0.4375 -0.26562,0.59375c-0.16667,0.15625 -0.36979,0.24479 -0.60937,0.26563c-0.22917,0.01042 -0.45833,-0.06771 -0.6875,-0.23437c-0.45833,-0.40625 -0.93229,-0.71354 -1.42187,-0.92187c-0.48958,-0.20833 -1.14062,-0.3125 -1.95312,-0.3125c-0.72917,0 -1.41667,0.15104 -2.0625,0.45313c-0.64583,0.29167 -1.21875,0.69792 -1.71875,1.21875c-0.48958,0.52083 -0.86979,1.13021 -1.14062,1.82813c-0.27083,0.6875 -0.40625,1.42188 -0.40625,2.20313c0,0.80208 0.13542,1.54688 0.40625,2.23438c0.27083,0.6875 0.65104,1.29167 1.14063,1.8125c0.5,0.52083 1.07292,0.93229 1.71875,1.23438c0.64583,0.29167 1.33333,0.4375 2.0625,0.4375c0.63542,0 1.23438,-0.10937 1.79688,-0.32812c0.57292,-0.21875 1.11979,-0.52083 1.64063,-0.90625c0.21875,-0.16667 0.4375,-0.23958 0.65625,-0.21875c0.21875,0.02083 0.40104,0.10938 0.54688,0.26563c0.15625,0.15625 0.23438,0.36979 0.23438,0.64063c0,0.125 -0.02604,0.25 -0.07812,0.375c-0.05208,0.11458 -0.125,0.21875 -0.21875,0.3125c-0.67708,0.53125 -1.40104,0.9375 -2.17187,1.21875c-0.76042,0.27083 -1.5625,0.40625 -2.40625,0.40625zM254.38592,199.97339c-1.19792,0 -2.25521,-0.21875 -3.17187,-0.65625c-0.91667,-0.44792 -1.63542,-1.0625 -2.15625,-1.84375c-0.52083,-0.78125 -0.78125,-1.67708 -0.78125,-2.6875v-8.70312c0,-0.29167 0.09375,-0.52604 0.28125,-0.70312c0.1875,-0.1875 0.41667,-0.28125 0.6875,-0.28125c0.29167,0 0.52604,0.09375 0.70313,0.28125c0.1875,0.17708 0.28125,0.41146 0.28125,0.70313v8.70313c0,0.67708 0.17708,1.27604 0.53125,1.79688c0.35417,0.51042 0.84375,0.91146 1.46875,1.20313c0.625,0.29167 1.34375,0.4375 2.15625,0.4375c0.78125,0 1.47396,-0.14583 2.07813,-0.4375c0.60417,-0.29167 1.07813,-0.69271 1.42188,-1.20312c0.34375,-0.52083 0.51563,-1.11979 0.51563,-1.79687v-8.70312c0,-0.29167 0.08854,-0.52604 0.26563,-0.70312c0.1875,-0.1875 0.42188,-0.28125 0.70313,-0.28125c0.28125,0 0.51042,0.09375 0.6875,0.28125c0.17708,0.17708 0.26563,0.41146 0.26563,0.70313v8.70313c0,1.01042 -0.25521,1.90625 -0.76562,2.6875c-0.5,0.78125 -1.19792,1.39583 -2.09375,1.84375c-0.89583,0.4375 -1.92187,0.65625 -3.07812,0.65625zM264.99419,199.67651c-0.27083,0 -0.5,-0.09375 -0.6875,-0.28125c-0.17708,-0.1875 -0.26562,-0.41667 -0.26562,-0.6875v-12.625c0,-0.28125 0.09375,-0.51562 0.28125,-0.70312c0.1875,-0.1875 0.41146,-0.28125 0.67188,-0.28125c0.28125,0 0.51042,0.09375 0.6875,0.28125c0.1875,0.1875 0.28125,0.42188 0.28125,0.70313v11.65625h6.76563c0.27083,0 0.5,0.09375 0.6875,0.28125c0.1875,0.1875 0.28125,0.41667 0.28125,0.6875c0,0.27083 -0.09375,0.5 -0.28125,0.6875c-0.1875,0.1875 -0.41667,0.28125 -0.6875,0.28125zM277.90423,199.67651c-0.27083,0 -0.5,-0.09375 -0.6875,-0.28125c-0.1875,-0.1875 -0.28125,-0.41667 -0.28125,-0.6875v-13.60937h1.9375v13.60938c0,0.27083 -0.09375,0.5 -0.28125,0.6875c-0.1875,0.1875 -0.41667,0.28125 -0.6875,0.28125zM272.90423,186.89526c-0.26042,0 -0.47396,-0.08333 -0.64062,-0.25c-0.16667,-0.16667 -0.25,-0.38021 -0.25,-0.64062c0,-0.26042 0.08333,-0.47396 0.25,-0.64062c0.16667,-0.17708 0.38021,-0.26562 0.64063,-0.26562h9.98438c0.26042,0 0.47396,0.08854 0.64063,0.26563c0.16667,0.16667 0.25,0.38021 0.25,0.64063c0,0.26042 -0.08333,0.47396 -0.25,0.64063c-0.16667,0.16667 -0.38021,0.25 -0.64062,0.25zM290.29851,199.67651c-0.26042,0 -0.48437,-0.09375 -0.67187,-0.28125c-0.1875,-0.1875 -0.28125,-0.41667 -0.28125,-0.6875v-4.34375l-4.98437,-7.75c-0.15625,-0.26042 -0.21875,-0.50521 -0.1875,-0.73437c0.04167,-0.22917 0.15104,-0.41667 0.32813,-0.5625c0.17708,-0.14583 0.38542,-0.21875 0.625,-0.21875c0.20833,0 0.375,0.04688 0.5,0.14063c0.125,0.09375 0.24479,0.22917 0.35938,0.40625l4.73438,7.51563h-0.75l4.82813,-7.59375c0.09375,-0.14583 0.20833,-0.26042 0.34375,-0.34375c0.13542,-0.08333 0.30208,-0.125 0.5,-0.125c0.22917,0 0.41667,0.07813 0.5625,0.23438c0.15625,0.15625 0.24479,0.35417 0.26563,0.59375c0.02083,0.22917 -0.04167,0.45833 -0.1875,0.6875l-5.01562,7.75v4.34375c0,0.27083 -0.09375,0.5 -0.28125,0.6875c-0.1875,0.1875 -0.41667,0.28125 -0.6875,0.28125z" fill="url(#color-3)" stroke="url(#color-4)"/></g><g fill="#9966ff" stroke="#28123b" stroke-width="4"><path d="M147.21015,174.96404c-0.80208,0 -1.5625,-0.125 -2.28125,-0.375c-0.71875,-0.25 -1.34896,-0.59896 -1.89062,-1.04687c-0.53125,-0.44792 -0.92187,-0.96354 -1.17187,-1.54687c-0.125,-0.26042 -0.125,-0.5 0,-0.71875c0.13542,-0.22917 0.35938,-0.375 0.67188,-0.4375c0.22917,-0.05208 0.44792,-0.01562 0.65625,0.10938c0.21875,0.11458 0.38542,0.29167 0.5,0.53125c0.14583,0.3125 0.39063,0.59896 0.73438,0.85938c0.34375,0.26042 0.75521,0.47396 1.23438,0.64063c0.48958,0.15625 1.00521,0.23438 1.54688,0.23438c0.59375,0 1.14063,-0.09375 1.64063,-0.28125c0.51042,-0.1875 0.91667,-0.45833 1.21875,-0.8125c0.3125,-0.35417 0.46875,-0.79167 0.46875,-1.3125c0,-0.66667 -0.26042,-1.26042 -0.78125,-1.78125c-0.51042,-0.52083 -1.35417,-0.84375 -2.53125,-0.96875c-1.54167,-0.14583 -2.75521,-0.59896 -3.64062,-1.35937c-0.88542,-0.76042 -1.32812,-1.69792 -1.32812,-2.8125c0,-0.82292 0.22917,-1.52083 0.6875,-2.09375c0.45833,-0.57292 1.08333,-1.00521 1.875,-1.29687c0.79167,-0.30208 1.67188,-0.45312 2.64063,-0.45312c0.76042,0 1.42188,0.10417 1.98438,0.3125c0.57292,0.20833 1.06771,0.5 1.48438,0.875c0.42708,0.375 0.79688,0.81771 1.10938,1.32813c0.16667,0.27083 0.23438,0.53125 0.20313,0.78125c-0.02083,0.23958 -0.14062,0.42708 -0.35937,0.5625c-0.22917,0.14583 -0.48437,0.17708 -0.76562,0.09375c-0.27083,-0.08333 -0.47396,-0.24479 -0.60937,-0.48437c-0.19792,-0.36458 -0.44271,-0.67187 -0.73437,-0.92187c-0.28125,-0.25 -0.61458,-0.44271 -1,-0.57812c-0.38542,-0.14583 -0.83854,-0.21875 -1.35937,-0.21875c-0.92708,-0.01042 -1.70312,0.16146 -2.32812,0.51563c-0.61458,0.35417 -0.92187,0.89583 -0.92187,1.625c0,0.375 0.09375,0.73438 0.28125,1.07813c0.19792,0.34375 0.55208,0.64063 1.0625,0.89063c0.52083,0.25 1.26563,0.42188 2.23438,0.51563c1.47917,0.14583 2.63021,0.59896 3.45313,1.35938c0.83333,0.75 1.25,1.73958 1.25,2.96875c0,0.70833 -0.14583,1.32292 -0.4375,1.84375c-0.29167,0.52083 -0.68229,0.96354 -1.17187,1.32813c-0.48958,0.35417 -1.05208,0.61979 -1.6875,0.79688c-0.625,0.16667 -1.27083,0.25 -1.9375,0.25zM156.37379,174.77654c-0.27083,0 -0.5,-0.09375 -0.6875,-0.28125c-0.1875,-0.1875 -0.28125,-0.41667 -0.28125,-0.6875v-12.625c0,-0.29167 0.09375,-0.52604 0.28125,-0.70312c0.1875,-0.1875 0.41667,-0.28125 0.6875,-0.28125h8.4375c0.29167,0 0.52083,0.08854 0.6875,0.26563c0.17708,0.16667 0.26563,0.38542 0.26563,0.65625c0,0.26042 -0.08854,0.47396 -0.26562,0.64063c-0.16667,0.15625 -0.39583,0.23438 -0.6875,0.23438h-7.45312v4.53125h5.34375c0.29167,0 0.52083,0.08333 0.6875,0.25c0.17708,0.16667 0.26563,0.38542 0.26563,0.65625c0,0.26042 -0.08854,0.47396 -0.26562,0.64063c-0.16667,0.16667 -0.39583,0.25 -0.6875,0.25h-5.34375v4.65625h7.45313c0.29167,0 0.52083,0.08333 0.6875,0.25c0.17708,0.15625 0.26563,0.36458 0.26563,0.625c0,0.28125 -0.08854,0.50521 -0.26562,0.67188c-0.16667,0.16667 -0.39583,0.25 -0.6875,0.25zM169.41755,174.77654c-0.27083,0 -0.5,-0.09375 -0.6875,-0.28125c-0.17708,-0.1875 -0.26562,-0.41667 -0.26562,-0.6875v-12.625c0,-0.28125 0.09375,-0.51562 0.28125,-0.70312c0.1875,-0.1875 0.41146,-0.28125 0.67188,-0.28125c0.28125,0 0.51042,0.09375 0.6875,0.28125c0.1875,0.1875 0.28125,0.42188 0.28125,0.70313v11.65625h6.76563c0.27083,0 0.5,0.09375 0.6875,0.28125c0.1875,0.1875 0.28125,0.41667 0.28125,0.6875c0,0.27083 -0.09375,0.5 -0.28125,0.6875c-0.1875,0.1875 -0.41667,0.28125 -0.6875,0.28125zM181.41047,174.77654c-0.27083,0 -0.5,-0.09375 -0.6875,-0.28125c-0.1875,-0.1875 -0.28125,-0.41667 -0.28125,-0.6875v-12.625c0,-0.29167 0.09375,-0.52604 0.28125,-0.70312c0.1875,-0.1875 0.41667,-0.28125 0.6875,-0.28125h8.4375c0.29167,0 0.52083,0.08854 0.6875,0.26563c0.17708,0.16667 0.26563,0.38542 0.26563,0.65625c0,0.26042 -0.08854,0.47396 -0.26562,0.64063c-0.16667,0.15625 -0.39583,0.23438 -0.6875,0.23438h-7.45312v4.53125h5.34375c0.29167,0 0.52083,0.08333 0.6875,0.25c0.17708,0.16667 0.26563,0.38542 0.26563,0.65625c0,0.26042 -0.08854,0.47396 -0.26562,0.64063c-0.16667,0.16667 -0.39583,0.25 -0.6875,0.25h-5.34375v4.65625h7.45313c0.29167,0 0.52083,0.08333 0.6875,0.25c0.17708,0.15625 0.26563,0.36458 0.26563,0.625c0,0.28125 -0.08854,0.50521 -0.26562,0.67188c-0.16667,0.16667 -0.39583,0.25 -0.6875,0.25zM200.03235,174.96404c-1,0 -1.94271,-0.1875 -2.82812,-0.5625c-0.875,-0.38542 -1.64062,-0.91667 -2.29687,-1.59375c-0.64583,-0.67708 -1.15625,-1.46875 -1.53125,-2.375c-0.36458,-0.90625 -0.54687,-1.89062 -0.54687,-2.95312c0,-1.04167 0.18229,-2.01042 0.54688,-2.90625c0.375,-0.90625 0.88542,-1.69792 1.53125,-2.375c0.65625,-0.67708 1.41667,-1.20833 2.28125,-1.59375c0.875,-0.38542 1.82292,-0.57812 2.84375,-0.57812c0.95833,0 1.78125,0.125 2.46875,0.375c0.69792,0.23958 1.39583,0.64583 2.09375,1.21875c0.09375,0.07292 0.16667,0.15104 0.21875,0.23438c0.0625,0.08333 0.10417,0.16667 0.125,0.25c0.02083,0.07292 0.03125,0.16667 0.03125,0.28125c0,0.23958 -0.08854,0.4375 -0.26562,0.59375c-0.16667,0.15625 -0.36979,0.24479 -0.60937,0.26563c-0.22917,0.01042 -0.45833,-0.06771 -0.6875,-0.23437c-0.45833,-0.40625 -0.93229,-0.71354 -1.42187,-0.92187c-0.48958,-0.20833 -1.14062,-0.3125 -1.95312,-0.3125c-0.72917,0 -1.41667,0.15104 -2.0625,0.45313c-0.64583,0.29167 -1.21875,0.69792 -1.71875,1.21875c-0.48958,0.52083 -0.86979,1.13021 -1.14062,1.82813c-0.27083,0.6875 -0.40625,1.42188 -0.40625,2.20313c0,0.80208 0.13542,1.54688 0.40625,2.23438c0.27083,0.6875 0.65104,1.29167 1.14063,1.8125c0.5,0.52083 1.07292,0.93229 1.71875,1.23438c0.64583,0.29167 1.33333,0.4375 2.0625,0.4375c0.63542,0 1.23438,-0.10937 1.79688,-0.32812c0.57292,-0.21875 1.11979,-0.52083 1.64063,-0.90625c0.21875,-0.16667 0.4375,-0.23958 0.65625,-0.21875c0.21875,0.02083 0.40104,0.10938 0.54688,0.26563c0.15625,0.15625 0.23438,0.36979 0.23438,0.64063c0,0.125 -0.02604,0.25 -0.07812,0.375c-0.05208,0.11458 -0.125,0.21875 -0.21875,0.3125c-0.67708,0.53125 -1.40104,0.9375 -2.17187,1.21875c-0.76042,0.27083 -1.5625,0.40625 -2.40625,0.40625zM212.30952,174.77654c-0.27083,0 -0.5,-0.09375 -0.6875,-0.28125c-0.1875,-0.1875 -0.28125,-0.41667 -0.28125,-0.6875v-13.60937h1.9375v13.60938c0,0.27083 -0.09375,0.5 -0.28125,0.6875c-0.1875,0.1875 -0.41667,0.28125 -0.6875,0.28125zM207.30952,161.99529c-0.26042,0 -0.47396,-0.08333 -0.64062,-0.25c-0.16667,-0.16667 -0.25,-0.38021 -0.25,-0.64062c0,-0.26042 0.08333,-0.47396 0.25,-0.64062c0.16667,-0.17708 0.38021,-0.26562 0.64063,-0.26562h9.98438c0.26042,0 0.47396,0.08854 0.64063,0.26563c0.16667,0.16667 0.25,0.38021 0.25,0.64063c0,0.26042 -0.08333,0.47396 -0.25,0.64063c-0.16667,0.16667 -0.38021,0.25 -0.64062,0.25zM232.3263,174.96404c-1,0 -1.94271,-0.1875 -2.82812,-0.5625c-0.875,-0.38542 -1.64062,-0.91667 -2.29687,-1.59375c-0.64583,-0.67708 -1.15625,-1.46875 -1.53125,-2.375c-0.36458,-0.90625 -0.54687,-1.89062 -0.54687,-2.95312c0,-1.04167 0.18229,-2.01042 0.54688,-2.90625c0.375,-0.90625 0.88542,-1.69792 1.53125,-2.375c0.65625,-0.67708 1.41667,-1.20833 2.28125,-1.59375c0.875,-0.38542 1.82292,-0.57812 2.84375,-0.57812c0.95833,0 1.78125,0.125 2.46875,0.375c0.69792,0.23958 1.39583,0.64583 2.09375,1.21875c0.09375,0.07292 0.16667,0.15104 0.21875,0.23438c0.0625,0.08333 0.10417,0.16667 0.125,0.25c0.02083,0.07292 0.03125,0.16667 0.03125,0.28125c0,0.23958 -0.08854,0.4375 -0.26562,0.59375c-0.16667,0.15625 -0.36979,0.24479 -0.60937,0.26563c-0.22917,0.01042 -0.45833,-0.06771 -0.6875,-0.23437c-0.45833,-0.40625 -0.93229,-0.71354 -1.42187,-0.92187c-0.48958,-0.20833 -1.14062,-0.3125 -1.95312,-0.3125c-0.72917,0 -1.41667,0.15104 -2.0625,0.45313c-0.64583,0.29167 -1.21875,0.69792 -1.71875,1.21875c-0.48958,0.52083 -0.86979,1.13021 -1.14062,1.82813c-0.27083,0.6875 -0.40625,1.42188 -0.40625,2.20313c0,0.80208 0.13542,1.54688 0.40625,2.23438c0.27083,0.6875 0.65104,1.29167 1.14063,1.8125c0.5,0.52083 1.07292,0.93229 1.71875,1.23438c0.64583,0.29167 1.33333,0.4375 2.0625,0.4375c0.63542,0 1.23438,-0.10937 1.79688,-0.32812c0.57292,-0.21875 1.11979,-0.52083 1.64063,-0.90625c0.21875,-0.16667 0.4375,-0.23958 0.65625,-0.21875c0.21875,0.02083 0.40104,0.10938 0.54688,0.26563c0.15625,0.15625 0.23438,0.36979 0.23438,0.64063c0,0.125 -0.02604,0.25 -0.07812,0.375c-0.05208,0.11458 -0.125,0.21875 -0.21875,0.3125c-0.67708,0.53125 -1.40104,0.9375 -2.17187,1.21875c-0.76042,0.27083 -1.5625,0.40625 -2.40625,0.40625zM247.02534,174.96404c-1.09375,0 -2.09375,-0.18229 -3,-0.54687c-0.90625,-0.375 -1.6875,-0.89062 -2.34375,-1.54687c-0.64583,-0.66667 -1.15104,-1.45833 -1.51562,-2.375c-0.36458,-0.91667 -0.54687,-1.92187 -0.54687,-3.01562c0,-1.09375 0.18229,-2.09375 0.54688,-3c0.36458,-0.90625 0.86979,-1.69271 1.51563,-2.35937c0.65625,-0.66667 1.4375,-1.18229 2.34375,-1.54687c0.90625,-0.36458 1.90625,-0.54687 3,-0.54687c1.10417,0 2.10417,0.18229 3,0.54688c0.90625,0.36458 1.6875,0.88021 2.34375,1.54688c0.65625,0.66667 1.16146,1.45313 1.51563,2.35938c0.36458,0.90625 0.54688,1.90625 0.54688,3c0,1.09375 -0.18229,2.09896 -0.54687,3.01563c-0.35417,0.91667 -0.85937,1.70833 -1.51562,2.375c-0.65625,0.65625 -1.4375,1.17188 -2.34375,1.54688c-0.89583,0.36458 -1.89583,0.54688 -3,0.54688zM247.02534,173.21404c0.8125,0 1.55729,-0.14583 2.23438,-0.4375c0.67708,-0.29167 1.26563,-0.69792 1.76563,-1.21875c0.5,-0.52083 0.88021,-1.125 1.14063,-1.8125c0.27083,-0.69792 0.40625,-1.45312 0.40625,-2.26562c0,-0.80208 -0.13542,-1.55208 -0.40625,-2.25c-0.26042,-0.69792 -0.64062,-1.30208 -1.14062,-1.8125c-0.5,-0.52083 -1.08854,-0.92187 -1.76562,-1.20312c-0.67708,-0.29167 -1.42187,-0.4375 -2.23437,-0.4375c-0.80208,0 -1.54167,0.14583 -2.21875,0.4375c-0.67708,0.28125 -1.26562,0.68229 -1.76562,1.20313c-0.48958,0.51042 -0.86979,1.11458 -1.14062,1.8125c-0.27083,0.69792 -0.40625,1.44792 -0.40625,2.25c0,0.8125 0.13542,1.56771 0.40625,2.26563c0.27083,0.6875 0.65104,1.29167 1.14063,1.8125c0.5,0.52083 1.08854,0.92708 1.76563,1.21875c0.67708,0.29167 1.41667,0.4375 2.21875,0.4375zM258.44215,174.77654c-0.27083,0 -0.5,-0.09375 -0.6875,-0.28125c-0.1875,-0.1875 -0.28125,-0.41667 -0.28125,-0.6875v-12.625c0,-0.29167 0.09375,-0.52604 0.28125,-0.70312c0.1875,-0.1875 0.41667,-0.28125 0.6875,-0.28125c0.375,0 0.66146,0.17708 0.85938,0.53125l5.84375,11.70313h-0.59375l5.6875,-11.70312c0.19792,-0.35417 0.48438,-0.53125 0.85938,-0.53125c0.27083,0 0.5,0.09375 0.6875,0.28125c0.1875,0.17708 0.28125,0.41146 0.28125,0.70313v12.625c0,0.27083 -0.09896,0.5 -0.29687,0.6875c-0.1875,0.1875 -0.41146,0.28125 -0.67187,0.28125c-0.27083,0 -0.5,-0.09375 -0.6875,-0.28125c-0.1875,-0.1875 -0.28125,-0.41667 -0.28125,-0.6875v-9.9375l0.375,-0.09375l-4.89062,9.95313c-0.20833,0.32292 -0.48958,0.48438 -0.84375,0.48438c-0.40625,0 -0.70312,-0.19271 -0.89062,-0.57812l-4.82812,-9.6875l0.375,-0.07812v9.9375c0,0.27083 -0.09375,0.5 -0.28125,0.6875c-0.1875,0.1875 -0.42187,0.28125 -0.70312,0.28125zM276.76258,174.77654c-0.27083,0 -0.5,-0.09375 -0.6875,-0.28125c-0.1875,-0.1875 -0.28125,-0.41667 -0.28125,-0.6875v-12.625c0,-0.29167 0.09375,-0.52604 0.28125,-0.70312c0.1875,-0.1875 0.41667,-0.28125 0.6875,-0.28125h3.73438c0.9375,0 1.76563,0.20833 2.48438,0.625c0.71875,0.40625 1.28125,0.97396 1.6875,1.70313c0.40625,0.72917 0.60938,1.56771 0.60938,2.51563c0,0.90625 -0.20312,1.71354 -0.60937,2.42188c-0.40625,0.70833 -0.96875,1.26042 -1.6875,1.65625c-0.71875,0.39583 -1.54687,0.59375 -2.48437,0.59375h-2.75v4.09375c0,0.27083 -0.09375,0.5 -0.28125,0.6875c-0.17708,0.1875 -0.41146,0.28125 -0.70312,0.28125zM277.74696,167.93279h2.75c0.57292,0 1.07813,-0.125 1.51563,-0.375c0.4375,-0.25 0.78125,-0.59375 1.03125,-1.03125c0.25,-0.4375 0.375,-0.93229 0.375,-1.48437c0,-0.60417 -0.125,-1.13021 -0.375,-1.57812c-0.25,-0.45833 -0.59375,-0.81771 -1.03125,-1.07812c-0.4375,-0.26042 -0.94271,-0.39062 -1.51562,-0.39062h-2.75zM293.52601,175.07342c-1.19792,0 -2.25521,-0.21875 -3.17187,-0.65625c-0.91667,-0.44792 -1.63542,-1.0625 -2.15625,-1.84375c-0.52083,-0.78125 -0.78125,-1.67708 -0.78125,-2.6875v-8.70312c0,-0.29167 0.09375,-0.52604 0.28125,-0.70312c0.1875,-0.1875 0.41667,-0.28125 0.6875,-0.28125c0.29167,0 0.52604,0.09375 0.70313,0.28125c0.1875,0.17708 0.28125,0.41146 0.28125,0.70313v8.70313c0,0.67708 0.17708,1.27604 0.53125,1.79688c0.35417,0.51042 0.84375,0.91146 1.46875,1.20313c0.625,0.29167 1.34375,0.4375 2.15625,0.4375c0.78125,0 1.47396,-0.14583 2.07813,-0.4375c0.60417,-0.29167 1.07813,-0.69271 1.42188,-1.20312c0.34375,-0.52083 0.51563,-1.11979 0.51563,-1.79687v-8.70312c0,-0.29167 0.08854,-0.52604 0.26563,-0.70312c0.1875,-0.1875 0.42188,-0.28125 0.70313,-0.28125c0.28125,0 0.51042,0.09375 0.6875,0.28125c0.17708,0.17708 0.26563,0.41146 0.26563,0.70313v8.70313c0,1.01042 -0.25521,1.90625 -0.76562,2.6875c-0.5,0.78125 -1.19792,1.39583 -2.09375,1.84375c-0.89583,0.4375 -1.92187,0.65625 -3.07812,0.65625zM307.49372,174.77654c-0.27083,0 -0.5,-0.09375 -0.6875,-0.28125c-0.1875,-0.1875 -0.28125,-0.41667 -0.28125,-0.6875v-13.60937h1.9375v13.60938c0,0.27083 -0.09375,0.5 -0.28125,0.6875c-0.1875,0.1875 -0.41667,0.28125 -0.6875,0.28125zM302.49372,161.99529c-0.26042,0 -0.47396,-0.08333 -0.64062,-0.25c-0.16667,-0.16667 -0.25,-0.38021 -0.25,-0.64062c0,-0.26042 0.08333,-0.47396 0.25,-0.64062c0.16667,-0.17708 0.38021,-0.26562 0.64063,-0.26562h9.98438c0.26042,0 0.47396,0.08854 0.64063,0.26563c0.16667,0.16667 0.25,0.38021 0.25,0.64063c0,0.26042 -0.08333,0.47396 -0.25,0.64063c-0.16667,0.16667 -0.38021,0.25 -0.64062,0.25zM316.48176,174.77654c-0.27083,0 -0.5,-0.09375 -0.6875,-0.28125c-0.1875,-0.1875 -0.28125,-0.41667 -0.28125,-0.6875v-12.625c0,-0.29167 0.09375,-0.52604 0.28125,-0.70312c0.1875,-0.1875 0.41667,-0.28125 0.6875,-0.28125h8.4375c0.29167,0 0.52083,0.08854 0.6875,0.26563c0.17708,0.16667 0.26563,0.38542 0.26563,0.65625c0,0.26042 -0.08854,0.47396 -0.26562,0.64063c-0.16667,0.15625 -0.39583,0.23438 -0.6875,0.23438h-7.45312v4.53125h5.34375c0.29167,0 0.52083,0.08333 0.6875,0.25c0.17708,0.16667 0.26563,0.38542 0.26563,0.65625c0,0.26042 -0.08854,0.47396 -0.26562,0.64063c-0.16667,0.16667 -0.39583,0.25 -0.6875,0.25h-5.34375v4.65625h7.45313c0.29167,0 0.52083,0.08333 0.6875,0.25c0.17708,0.15625 0.26563,0.36458 0.26563,0.625c0,0.28125 -0.08854,0.50521 -0.26562,0.67188c-0.16667,0.16667 -0.39583,0.25 -0.6875,0.25zM329.54108,174.77654c-0.27083,0 -0.5,-0.09375 -0.6875,-0.28125c-0.1875,-0.1875 -0.28125,-0.41667 -0.28125,-0.6875v-12.625c0,-0.29167 0.09375,-0.52604 0.28125,-0.70312c0.1875,-0.1875 0.41667,-0.28125 0.6875,-0.28125h3.35938c0.9375,0 1.76563,0.19792 2.48438,0.59375c0.71875,0.39583 1.28125,0.9375 1.6875,1.625c0.40625,0.67708 0.60938,1.46875 0.60938,2.375c0,0.84375 -0.20312,1.59896 -0.60937,2.26563c-0.40625,0.65625 -0.96875,1.17188 -1.6875,1.54688c-0.71875,0.375 -1.54687,0.5625 -2.48437,0.5625h-2.375v4.64063c0,0.27083 -0.09375,0.5 -0.28125,0.6875c-0.17708,0.1875 -0.41146,0.28125 -0.70312,0.28125zM337.29108,174.77654c-0.17708,0 -0.33854,-0.03646 -0.48437,-0.10937c-0.13542,-0.07292 -0.25521,-0.19271 -0.35937,-0.35937l-3.35937,-5.40625l1.89063,-0.54687l3.0625,4.92188c0.21875,0.36458 0.24479,0.70833 0.07813,1.03125c-0.15625,0.3125 -0.43229,0.46875 -0.82812,0.46875zM330.52546,167.37029h2.375c0.57292,0 1.07813,-0.10937 1.51563,-0.32812c0.4375,-0.21875 0.78125,-0.52083 1.03125,-0.90625c0.25,-0.39583 0.375,-0.84375 0.375,-1.34375c0,-0.54167 -0.125,-1.02604 -0.375,-1.45312c-0.25,-0.42708 -0.59375,-0.75521 -1.03125,-0.98437c-0.4375,-0.23958 -0.94271,-0.35937 -1.51562,-0.35937h-2.375z"/><path d="M185.4782,197.17651c-0.27083,0 -0.5,-0.09375 -0.6875,-0.28125c-0.1875,-0.1875 -0.28125,-0.41667 -0.28125,-0.6875v-12.625c0,-0.29167 0.09375,-0.52604 0.28125,-0.70312c0.1875,-0.1875 0.41667,-0.28125 0.6875,-0.28125h3.39063c1.0625,0 2.03125,0.18229 2.90625,0.54688c0.88542,0.35417 1.65104,0.85938 2.29688,1.51563c0.64583,0.64583 1.14063,1.41146 1.48438,2.29688c0.35417,0.875 0.53125,1.84896 0.53125,2.92188c0,1.07292 -0.17708,2.05729 -0.53125,2.95313c-0.34375,0.88542 -0.83854,1.65625 -1.48437,2.3125c-0.64583,0.64583 -1.41146,1.14583 -2.29687,1.5c-0.875,0.35417 -1.84375,0.53125 -2.90625,0.53125zM186.46257,195.45776h2.40625c1.04167,0 1.96354,-0.23958 2.76563,-0.71875c0.80208,-0.47917 1.43229,-1.13542 1.89063,-1.96875c0.45833,-0.84375 0.6875,-1.80729 0.6875,-2.89062c0,-1.09375 -0.22917,-2.05729 -0.6875,-2.89062c-0.45833,-0.83333 -1.08854,-1.48437 -1.89062,-1.95312c-0.80208,-0.47917 -1.72396,-0.71875 -2.76562,-0.71875h-2.40625zM200.08605,197.17651c-0.27083,0 -0.5,-0.09375 -0.6875,-0.28125c-0.1875,-0.1875 -0.28125,-0.41667 -0.28125,-0.6875v-12.625c0,-0.29167 0.09375,-0.52604 0.28125,-0.70312c0.1875,-0.1875 0.41667,-0.28125 0.6875,-0.28125c0.29167,0 0.52604,0.09375 0.70313,0.28125c0.1875,0.17708 0.28125,0.41146 0.28125,0.70313v12.625c0,0.27083 -0.09375,0.5 -0.28125,0.6875c-0.17708,0.1875 -0.41146,0.28125 -0.70312,0.28125zM204.58568,197.17651c-0.27083,0 -0.5,-0.09375 -0.6875,-0.28125c-0.1875,-0.1875 -0.28125,-0.41667 -0.28125,-0.6875v-12.625c0,-0.29167 0.09375,-0.52604 0.28125,-0.70312c0.1875,-0.1875 0.41667,-0.28125 0.6875,-0.28125h8.4375c0.28125,0 0.51042,0.08854 0.6875,0.26563c0.17708,0.16667 0.26563,0.38542 0.26563,0.65625c0,0.26042 -0.08854,0.47396 -0.26562,0.64063c-0.17708,0.15625 -0.40625,0.23438 -0.6875,0.23438h-7.46875v4.53125h5.35938c0.28125,0 0.51042,0.08333 0.6875,0.25c0.17708,0.16667 0.26563,0.38542 0.26563,0.65625c0,0.26042 -0.08854,0.47396 -0.26562,0.64063c-0.17708,0.16667 -0.40625,0.25 -0.6875,0.25h-5.35937v5.48438c0,0.27083 -0.09375,0.5 -0.28125,0.6875c-0.17708,0.1875 -0.40625,0.28125 -0.6875,0.28125zM216.24584,197.17651c-0.27083,0 -0.5,-0.09375 -0.6875,-0.28125c-0.1875,-0.1875 -0.28125,-0.41667 -0.28125,-0.6875v-12.625c0,-0.29167 0.09375,-0.52604 0.28125,-0.70312c0.1875,-0.1875 0.41667,-0.28125 0.6875,-0.28125h8.4375c0.28125,0 0.51042,0.08854 0.6875,0.26563c0.17708,0.16667 0.26563,0.38542 0.26563,0.65625c0,0.26042 -0.08854,0.47396 -0.26562,0.64063c-0.17708,0.15625 -0.40625,0.23438 -0.6875,0.23438h-7.46875v4.53125h5.35938c0.28125,0 0.51042,0.08333 0.6875,0.25c0.17708,0.16667 0.26563,0.38542 0.26563,0.65625c0,0.26042 -0.08854,0.47396 -0.26562,0.64063c-0.17708,0.16667 -0.40625,0.25 -0.6875,0.25h-5.35937v5.48438c0,0.27083 -0.09375,0.5 -0.28125,0.6875c-0.17708,0.1875 -0.40625,0.28125 -0.6875,0.28125zM229.07787,197.17651c-0.27083,0 -0.5,-0.09375 -0.6875,-0.28125c-0.1875,-0.1875 -0.28125,-0.41667 -0.28125,-0.6875v-12.625c0,-0.29167 0.09375,-0.52604 0.28125,-0.70312c0.1875,-0.1875 0.41667,-0.28125 0.6875,-0.28125c0.29167,0 0.52604,0.09375 0.70313,0.28125c0.1875,0.17708 0.28125,0.41146 0.28125,0.70313v12.625c0,0.27083 -0.09375,0.5 -0.28125,0.6875c-0.17708,0.1875 -0.41146,0.28125 -0.70312,0.28125zM240.31188,197.36401c-1,0 -1.94271,-0.1875 -2.82812,-0.5625c-0.875,-0.38542 -1.64062,-0.91667 -2.29687,-1.59375c-0.64583,-0.67708 -1.15625,-1.46875 -1.53125,-2.375c-0.36458,-0.90625 -0.54687,-1.89062 -0.54687,-2.95312c0,-1.04167 0.18229,-2.01042 0.54688,-2.90625c0.375,-0.90625 0.88542,-1.69792 1.53125,-2.375c0.65625,-0.67708 1.41667,-1.20833 2.28125,-1.59375c0.875,-0.38542 1.82292,-0.57812 2.84375,-0.57812c0.95833,0 1.78125,0.125 2.46875,0.375c0.69792,0.23958 1.39583,0.64583 2.09375,1.21875c0.09375,0.07292 0.16667,0.15104 0.21875,0.23438c0.0625,0.08333 0.10417,0.16667 0.125,0.25c0.02083,0.07292 0.03125,0.16667 0.03125,0.28125c0,0.23958 -0.08854,0.4375 -0.26562,0.59375c-0.16667,0.15625 -0.36979,0.24479 -0.60937,0.26563c-0.22917,0.01042 -0.45833,-0.06771 -0.6875,-0.23437c-0.45833,-0.40625 -0.93229,-0.71354 -1.42187,-0.92187c-0.48958,-0.20833 -1.14062,-0.3125 -1.95312,-0.3125c-0.72917,0 -1.41667,0.15104 -2.0625,0.45313c-0.64583,0.29167 -1.21875,0.69792 -1.71875,1.21875c-0.48958,0.52083 -0.86979,1.13021 -1.14062,1.82813c-0.27083,0.6875 -0.40625,1.42188 -0.40625,2.20313c0,0.80208 0.13542,1.54688 0.40625,2.23438c0.27083,0.6875 0.65104,1.29167 1.14063,1.8125c0.5,0.52083 1.07292,0.93229 1.71875,1.23438c0.64583,0.29167 1.33333,0.4375 2.0625,0.4375c0.63542,0 1.23438,-0.10937 1.79688,-0.32812c0.57292,-0.21875 1.11979,-0.52083 1.64063,-0.90625c0.21875,-0.16667 0.4375,-0.23958 0.65625,-0.21875c0.21875,0.02083 0.40104,0.10938 0.54688,0.26563c0.15625,0.15625 0.23438,0.36979 0.23438,0.64063c0,0.125 -0.02604,0.25 -0.07812,0.375c-0.05208,0.11458 -0.125,0.21875 -0.21875,0.3125c-0.67708,0.53125 -1.40104,0.9375 -2.17187,1.21875c-0.76042,0.27083 -1.5625,0.40625 -2.40625,0.40625zM254.38592,197.47339c-1.19792,0 -2.25521,-0.21875 -3.17187,-0.65625c-0.91667,-0.44792 -1.63542,-1.0625 -2.15625,-1.84375c-0.52083,-0.78125 -0.78125,-1.67708 -0.78125,-2.6875v-8.70312c0,-0.29167 0.09375,-0.52604 0.28125,-0.70312c0.1875,-0.1875 0.41667,-0.28125 0.6875,-0.28125c0.29167,0 0.52604,0.09375 0.70313,0.28125c0.1875,0.17708 0.28125,0.41146 0.28125,0.70313v8.70313c0,0.67708 0.17708,1.27604 0.53125,1.79688c0.35417,0.51042 0.84375,0.91146 1.46875,1.20313c0.625,0.29167 1.34375,0.4375 2.15625,0.4375c0.78125,0 1.47396,-0.14583 2.07813,-0.4375c0.60417,-0.29167 1.07813,-0.69271 1.42188,-1.20312c0.34375,-0.52083 0.51563,-1.11979 0.51563,-1.79687v-8.70312c0,-0.29167 0.08854,-0.52604 0.26563,-0.70312c0.1875,-0.1875 0.42188,-0.28125 0.70313,-0.28125c0.28125,0 0.51042,0.09375 0.6875,0.28125c0.17708,0.17708 0.26563,0.41146 0.26563,0.70313v8.70313c0,1.01042 -0.25521,1.90625 -0.76562,2.6875c-0.5,0.78125 -1.19792,1.39583 -2.09375,1.84375c-0.89583,0.4375 -1.92187,0.65625 -3.07812,0.65625zM264.99419,197.17651c-0.27083,0 -0.5,-0.09375 -0.6875,-0.28125c-0.17708,-0.1875 -0.26562,-0.41667 -0.26562,-0.6875v-12.625c0,-0.28125 0.09375,-0.51562 0.28125,-0.70312c0.1875,-0.1875 0.41146,-0.28125 0.67188,-0.28125c0.28125,0 0.51042,0.09375 0.6875,0.28125c0.1875,0.1875 0.28125,0.42188 0.28125,0.70313v11.65625h6.76563c0.27083,0 0.5,0.09375 0.6875,0.28125c0.1875,0.1875 0.28125,0.41667 0.28125,0.6875c0,0.27083 -0.09375,0.5 -0.28125,0.6875c-0.1875,0.1875 -0.41667,0.28125 -0.6875,0.28125zM277.90423,197.17651c-0.27083,0 -0.5,-0.09375 -0.6875,-0.28125c-0.1875,-0.1875 -0.28125,-0.41667 -0.28125,-0.6875v-13.60937h1.9375v13.60938c0,0.27083 -0.09375,0.5 -0.28125,0.6875c-0.1875,0.1875 -0.41667,0.28125 -0.6875,0.28125zM272.90423,184.39526c-0.26042,0 -0.47396,-0.08333 -0.64062,-0.25c-0.16667,-0.16667 -0.25,-0.38021 -0.25,-0.64062c0,-0.26042 0.08333,-0.47396 0.25,-0.64062c0.16667,-0.17708 0.38021,-0.26562 0.64063,-0.26562h9.98438c0.26042,0 0.47396,0.08854 0.64063,0.26563c0.16667,0.16667 0.25,0.38021 0.25,0.64063c0,0.26042 -0.08333,0.47396 -0.25,0.64063c-0.16667,0.16667 -0.38021,0.25 -0.64062,0.25zM290.29851,197.17651c-0.26042,0 -0.48437,-0.09375 -0.67187,-0.28125c-0.1875,-0.1875 -0.28125,-0.41667 -0.28125,-0.6875v-4.34375l-4.98437,-7.75c-0.15625,-0.26042 -0.21875,-0.50521 -0.1875,-0.73437c0.04167,-0.22917 0.15104,-0.41667 0.32813,-0.5625c0.17708,-0.14583 0.38542,-0.21875 0.625,-0.21875c0.20833,0 0.375,0.04688 0.5,0.14063c0.125,0.09375 0.24479,0.22917 0.35938,0.40625l4.73438,7.51563h-0.75l4.82813,-7.59375c0.09375,-0.14583 0.20833,-0.26042 0.34375,-0.34375c0.13542,-0.08333 0.30208,-0.125 0.5,-0.125c0.22917,0 0.41667,0.07813 0.5625,0.23438c0.15625,0.15625 0.24479,0.35417 0.26563,0.59375c0.02083,0.22917 -0.04167,0.45833 -0.1875,0.6875l-5.01562,7.75v4.34375c0,0.27083 -0.09375,0.5 -0.28125,0.6875c-0.1875,0.1875 -0.41667,0.28125 -0.6875,0.28125z"/></g><g fill="#a97eff" stroke="#9966ff" stroke-width="0.5"><path d="M147.21015,174.96404c-0.80208,0 -1.5625,-0.125 -2.28125,-0.375c-0.71875,-0.25 -1.34896,-0.59896 -1.89062,-1.04687c-0.53125,-0.44792 -0.92187,-0.96354 -1.17187,-1.54687c-0.125,-0.26042 -0.125,-0.5 0,-0.71875c0.13542,-0.22917 0.35938,-0.375 0.67188,-0.4375c0.22917,-0.05208 0.44792,-0.01562 0.65625,0.10938c0.21875,0.11458 0.38542,0.29167 0.5,0.53125c0.14583,0.3125 0.39063,0.59896 0.73438,0.85938c0.34375,0.26042 0.75521,0.47396 1.23438,0.64063c0.48958,0.15625 1.00521,0.23438 1.54688,0.23438c0.59375,0 1.14063,-0.09375 1.64063,-0.28125c0.51042,-0.1875 0.91667,-0.45833 1.21875,-0.8125c0.3125,-0.35417 0.46875,-0.79167 0.46875,-1.3125c0,-0.66667 -0.26042,-1.26042 -0.78125,-1.78125c-0.51042,-0.52083 -1.35417,-0.84375 -2.53125,-0.96875c-1.54167,-0.14583 -2.75521,-0.59896 -3.64062,-1.35937c-0.88542,-0.76042 -1.32812,-1.69792 -1.32812,-2.8125c0,-0.82292 0.22917,-1.52083 0.6875,-2.09375c0.45833,-0.57292 1.08333,-1.00521 1.875,-1.29687c0.79167,-0.30208 1.67188,-0.45312 2.64063,-0.45312c0.76042,0 1.42188,0.10417 1.98438,0.3125c0.57292,0.20833 1.06771,0.5 1.48438,0.875c0.42708,0.375 0.79688,0.81771 1.10938,1.32813c0.16667,0.27083 0.23438,0.53125 0.20313,0.78125c-0.02083,0.23958 -0.14062,0.42708 -0.35937,0.5625c-0.22917,0.14583 -0.48437,0.17708 -0.76562,0.09375c-0.27083,-0.08333 -0.47396,-0.24479 -0.60937,-0.48437c-0.19792,-0.36458 -0.44271,-0.67187 -0.73437,-0.92187c-0.28125,-0.25 -0.61458,-0.44271 -1,-0.57812c-0.38542,-0.14583 -0.83854,-0.21875 -1.35937,-0.21875c-0.92708,-0.01042 -1.70312,0.16146 -2.32812,0.51563c-0.61458,0.35417 -0.92187,0.89583 -0.92187,1.625c0,0.375 0.09375,0.73438 0.28125,1.07813c0.19792,0.34375 0.55208,0.64063 1.0625,0.89063c0.52083,0.25 1.26563,0.42188 2.23438,0.51563c1.47917,0.14583 2.63021,0.59896 3.45313,1.35938c0.83333,0.75 1.25,1.73958 1.25,2.96875c0,0.70833 -0.14583,1.32292 -0.4375,1.84375c-0.29167,0.52083 -0.68229,0.96354 -1.17187,1.32813c-0.48958,0.35417 -1.05208,0.61979 -1.6875,0.79688c-0.625,0.16667 -1.27083,0.25 -1.9375,0.25zM156.37379,174.77654c-0.27083,0 -0.5,-0.09375 -0.6875,-0.28125c-0.1875,-0.1875 -0.28125,-0.41667 -0.28125,-0.6875v-12.625c0,-0.29167 0.09375,-0.52604 0.28125,-0.70312c0.1875,-0.1875 0.41667,-0.28125 0.6875,-0.28125h8.4375c0.29167,0 0.52083,0.08854 0.6875,0.26563c0.17708,0.16667 0.26563,0.38542 0.26563,0.65625c0,0.26042 -0.08854,0.47396 -0.26562,0.64063c-0.16667,0.15625 -0.39583,0.23438 -0.6875,0.23438h-7.45312v4.53125h5.34375c0.29167,0 0.52083,0.08333 0.6875,0.25c0.17708,0.16667 0.26563,0.38542 0.26563,0.65625c0,0.26042 -0.08854,0.47396 -0.26562,0.64063c-0.16667,0.16667 -0.39583,0.25 -0.6875,0.25h-5.34375v4.65625h7.45313c0.29167,0 0.52083,0.08333 0.6875,0.25c0.17708,0.15625 0.26563,0.36458 0.26563,0.625c0,0.28125 -0.08854,0.50521 -0.26562,0.67188c-0.16667,0.16667 -0.39583,0.25 -0.6875,0.25zM169.41755,174.77654c-0.27083,0 -0.5,-0.09375 -0.6875,-0.28125c-0.17708,-0.1875 -0.26562,-0.41667 -0.26562,-0.6875v-12.625c0,-0.28125 0.09375,-0.51562 0.28125,-0.70312c0.1875,-0.1875 0.41146,-0.28125 0.67188,-0.28125c0.28125,0 0.51042,0.09375 0.6875,0.28125c0.1875,0.1875 0.28125,0.42188 0.28125,0.70313v11.65625h6.76563c0.27083,0 0.5,0.09375 0.6875,0.28125c0.1875,0.1875 0.28125,0.41667 0.28125,0.6875c0,0.27083 -0.09375,0.5 -0.28125,0.6875c-0.1875,0.1875 -0.41667,0.28125 -0.6875,0.28125zM181.41047,174.77654c-0.27083,0 -0.5,-0.09375 -0.6875,-0.28125c-0.1875,-0.1875 -0.28125,-0.41667 -0.28125,-0.6875v-12.625c0,-0.29167 0.09375,-0.52604 0.28125,-0.70312c0.1875,-0.1875 0.41667,-0.28125 0.6875,-0.28125h8.4375c0.29167,0 0.52083,0.08854 0.6875,0.26563c0.17708,0.16667 0.26563,0.38542 0.26563,0.65625c0,0.26042 -0.08854,0.47396 -0.26562,0.64063c-0.16667,0.15625 -0.39583,0.23438 -0.6875,0.23438h-7.45312v4.53125h5.34375c0.29167,0 0.52083,0.08333 0.6875,0.25c0.17708,0.16667 0.26563,0.38542 0.26563,0.65625c0,0.26042 -0.08854,0.47396 -0.26562,0.64063c-0.16667,0.16667 -0.39583,0.25 -0.6875,0.25h-5.34375v4.65625h7.45313c0.29167,0 0.52083,0.08333 0.6875,0.25c0.17708,0.15625 0.26563,0.36458 0.26563,0.625c0,0.28125 -0.08854,0.50521 -0.26562,0.67188c-0.16667,0.16667 -0.39583,0.25 -0.6875,0.25zM200.03235,174.96404c-1,0 -1.94271,-0.1875 -2.82812,-0.5625c-0.875,-0.38542 -1.64062,-0.91667 -2.29687,-1.59375c-0.64583,-0.67708 -1.15625,-1.46875 -1.53125,-2.375c-0.36458,-0.90625 -0.54687,-1.89062 -0.54687,-2.95312c0,-1.04167 0.18229,-2.01042 0.54688,-2.90625c0.375,-0.90625 0.88542,-1.69792 1.53125,-2.375c0.65625,-0.67708 1.41667,-1.20833 2.28125,-1.59375c0.875,-0.38542 1.82292,-0.57812 2.84375,-0.57812c0.95833,0 1.78125,0.125 2.46875,0.375c0.69792,0.23958 1.39583,0.64583 2.09375,1.21875c0.09375,0.07292 0.16667,0.15104 0.21875,0.23438c0.0625,0.08333 0.10417,0.16667 0.125,0.25c0.02083,0.07292 0.03125,0.16667 0.03125,0.28125c0,0.23958 -0.08854,0.4375 -0.26562,0.59375c-0.16667,0.15625 -0.36979,0.24479 -0.60937,0.26563c-0.22917,0.01042 -0.45833,-0.06771 -0.6875,-0.23437c-0.45833,-0.40625 -0.93229,-0.71354 -1.42187,-0.92187c-0.48958,-0.20833 -1.14062,-0.3125 -1.95312,-0.3125c-0.72917,0 -1.41667,0.15104 -2.0625,0.45313c-0.64583,0.29167 -1.21875,0.69792 -1.71875,1.21875c-0.48958,0.52083 -0.86979,1.13021 -1.14062,1.82813c-0.27083,0.6875 -0.40625,1.42188 -0.40625,2.20313c0,0.80208 0.13542,1.54688 0.40625,2.23438c0.27083,0.6875 0.65104,1.29167 1.14063,1.8125c0.5,0.52083 1.07292,0.93229 1.71875,1.23438c0.64583,0.29167 1.33333,0.4375 2.0625,0.4375c0.63542,0 1.23438,-0.10937 1.79688,-0.32812c0.57292,-0.21875 1.11979,-0.52083 1.64063,-0.90625c0.21875,-0.16667 0.4375,-0.23958 0.65625,-0.21875c0.21875,0.02083 0.40104,0.10938 0.54688,0.26563c0.15625,0.15625 0.23438,0.36979 0.23438,0.64063c0,0.125 -0.02604,0.25 -0.07812,0.375c-0.05208,0.11458 -0.125,0.21875 -0.21875,0.3125c-0.67708,0.53125 -1.40104,0.9375 -2.17187,1.21875c-0.76042,0.27083 -1.5625,0.40625 -2.40625,0.40625zM212.30952,174.77654c-0.27083,0 -0.5,-0.09375 -0.6875,-0.28125c-0.1875,-0.1875 -0.28125,-0.41667 -0.28125,-0.6875v-13.60937h1.9375v13.60938c0,0.27083 -0.09375,0.5 -0.28125,0.6875c-0.1875,0.1875 -0.41667,0.28125 -0.6875,0.28125zM207.30952,161.99529c-0.26042,0 -0.47396,-0.08333 -0.64062,-0.25c-0.16667,-0.16667 -0.25,-0.38021 -0.25,-0.64062c0,-0.26042 0.08333,-0.47396 0.25,-0.64062c0.16667,-0.17708 0.38021,-0.26562 0.64063,-0.26562h9.98438c0.26042,0 0.47396,0.08854 0.64063,0.26563c0.16667,0.16667 0.25,0.38021 0.25,0.64063c0,0.26042 -0.08333,0.47396 -0.25,0.64063c-0.16667,0.16667 -0.38021,0.25 -0.64062,0.25zM232.3263,174.96404c-1,0 -1.94271,-0.1875 -2.82812,-0.5625c-0.875,-0.38542 -1.64062,-0.91667 -2.29687,-1.59375c-0.64583,-0.67708 -1.15625,-1.46875 -1.53125,-2.375c-0.36458,-0.90625 -0.54687,-1.89062 -0.54687,-2.95312c0,-1.04167 0.18229,-2.01042 0.54688,-2.90625c0.375,-0.90625 0.88542,-1.69792 1.53125,-2.375c0.65625,-0.67708 1.41667,-1.20833 2.28125,-1.59375c0.875,-0.38542 1.82292,-0.57812 2.84375,-0.57812c0.95833,0 1.78125,0.125 2.46875,0.375c0.69792,0.23958 1.39583,0.64583 2.09375,1.21875c0.09375,0.07292 0.16667,0.15104 0.21875,0.23438c0.0625,0.08333 0.10417,0.16667 0.125,0.25c0.02083,0.07292 0.03125,0.16667 0.03125,0.28125c0,0.23958 -0.08854,0.4375 -0.26562,0.59375c-0.16667,0.15625 -0.36979,0.24479 -0.60937,0.26563c-0.22917,0.01042 -0.45833,-0.06771 -0.6875,-0.23437c-0.45833,-0.40625 -0.93229,-0.71354 -1.42187,-0.92187c-0.48958,-0.20833 -1.14062,-0.3125 -1.95312,-0.3125c-0.72917,0 -1.41667,0.15104 -2.0625,0.45313c-0.64583,0.29167 -1.21875,0.69792 -1.71875,1.21875c-0.48958,0.52083 -0.86979,1.13021 -1.14062,1.82813c-0.27083,0.6875 -0.40625,1.42188 -0.40625,2.20313c0,0.80208 0.13542,1.54688 0.40625,2.23438c0.27083,0.6875 0.65104,1.29167 1.14063,1.8125c0.5,0.52083 1.07292,0.93229 1.71875,1.23438c0.64583,0.29167 1.33333,0.4375 2.0625,0.4375c0.63542,0 1.23438,-0.10937 1.79688,-0.32812c0.57292,-0.21875 1.11979,-0.52083 1.64063,-0.90625c0.21875,-0.16667 0.4375,-0.23958 0.65625,-0.21875c0.21875,0.02083 0.40104,0.10938 0.54688,0.26563c0.15625,0.15625 0.23438,0.36979 0.23438,0.64063c0,0.125 -0.02604,0.25 -0.07812,0.375c-0.05208,0.11458 -0.125,0.21875 -0.21875,0.3125c-0.67708,0.53125 -1.40104,0.9375 -2.17187,1.21875c-0.76042,0.27083 -1.5625,0.40625 -2.40625,0.40625zM247.02534,174.96404c-1.09375,0 -2.09375,-0.18229 -3,-0.54687c-0.90625,-0.375 -1.6875,-0.89062 -2.34375,-1.54687c-0.64583,-0.66667 -1.15104,-1.45833 -1.51562,-2.375c-0.36458,-0.91667 -0.54687,-1.92187 -0.54687,-3.01562c0,-1.09375 0.18229,-2.09375 0.54688,-3c0.36458,-0.90625 0.86979,-1.69271 1.51563,-2.35937c0.65625,-0.66667 1.4375,-1.18229 2.34375,-1.54687c0.90625,-0.36458 1.90625,-0.54687 3,-0.54687c1.10417,0 2.10417,0.18229 3,0.54688c0.90625,0.36458 1.6875,0.88021 2.34375,1.54688c0.65625,0.66667 1.16146,1.45313 1.51563,2.35938c0.36458,0.90625 0.54688,1.90625 0.54688,3c0,1.09375 -0.18229,2.09896 -0.54687,3.01563c-0.35417,0.91667 -0.85937,1.70833 -1.51562,2.375c-0.65625,0.65625 -1.4375,1.17188 -2.34375,1.54688c-0.89583,0.36458 -1.89583,0.54688 -3,0.54688zM247.02534,173.21404c0.8125,0 1.55729,-0.14583 2.23438,-0.4375c0.67708,-0.29167 1.26563,-0.69792 1.76563,-1.21875c0.5,-0.52083 0.88021,-1.125 1.14063,-1.8125c0.27083,-0.69792 0.40625,-1.45312 0.40625,-2.26562c0,-0.80208 -0.13542,-1.55208 -0.40625,-2.25c-0.26042,-0.69792 -0.64062,-1.30208 -1.14062,-1.8125c-0.5,-0.52083 -1.08854,-0.92187 -1.76562,-1.20312c-0.67708,-0.29167 -1.42187,-0.4375 -2.23437,-0.4375c-0.80208,0 -1.54167,0.14583 -2.21875,0.4375c-0.67708,0.28125 -1.26562,0.68229 -1.76562,1.20313c-0.48958,0.51042 -0.86979,1.11458 -1.14062,1.8125c-0.27083,0.69792 -0.40625,1.44792 -0.40625,2.25c0,0.8125 0.13542,1.56771 0.40625,2.26563c0.27083,0.6875 0.65104,1.29167 1.14063,1.8125c0.5,0.52083 1.08854,0.92708 1.76563,1.21875c0.67708,0.29167 1.41667,0.4375 2.21875,0.4375zM258.44215,174.77654c-0.27083,0 -0.5,-0.09375 -0.6875,-0.28125c-0.1875,-0.1875 -0.28125,-0.41667 -0.28125,-0.6875v-12.625c0,-0.29167 0.09375,-0.52604 0.28125,-0.70312c0.1875,-0.1875 0.41667,-0.28125 0.6875,-0.28125c0.375,0 0.66146,0.17708 0.85938,0.53125l5.84375,11.70313h-0.59375l5.6875,-11.70312c0.19792,-0.35417 0.48438,-0.53125 0.85938,-0.53125c0.27083,0 0.5,0.09375 0.6875,0.28125c0.1875,0.17708 0.28125,0.41146 0.28125,0.70313v12.625c0,0.27083 -0.09896,0.5 -0.29687,0.6875c-0.1875,0.1875 -0.41146,0.28125 -0.67187,0.28125c-0.27083,0 -0.5,-0.09375 -0.6875,-0.28125c-0.1875,-0.1875 -0.28125,-0.41667 -0.28125,-0.6875v-9.9375l0.375,-0.09375l-4.89062,9.95313c-0.20833,0.32292 -0.48958,0.48438 -0.84375,0.48438c-0.40625,0 -0.70312,-0.19271 -0.89062,-0.57812l-4.82812,-9.6875l0.375,-0.07812v9.9375c0,0.27083 -0.09375,0.5 -0.28125,0.6875c-0.1875,0.1875 -0.42187,0.28125 -0.70312,0.28125zM276.76258,174.77654c-0.27083,0 -0.5,-0.09375 -0.6875,-0.28125c-0.1875,-0.1875 -0.28125,-0.41667 -0.28125,-0.6875v-12.625c0,-0.29167 0.09375,-0.52604 0.28125,-0.70312c0.1875,-0.1875 0.41667,-0.28125 0.6875,-0.28125h3.73438c0.9375,0 1.76563,0.20833 2.48438,0.625c0.71875,0.40625 1.28125,0.97396 1.6875,1.70313c0.40625,0.72917 0.60938,1.56771 0.60938,2.51563c0,0.90625 -0.20312,1.71354 -0.60937,2.42188c-0.40625,0.70833 -0.96875,1.26042 -1.6875,1.65625c-0.71875,0.39583 -1.54687,0.59375 -2.48437,0.59375h-2.75v4.09375c0,0.27083 -0.09375,0.5 -0.28125,0.6875c-0.17708,0.1875 -0.41146,0.28125 -0.70312,0.28125zM277.74696,167.93279h2.75c0.57292,0 1.07813,-0.125 1.51563,-0.375c0.4375,-0.25 0.78125,-0.59375 1.03125,-1.03125c0.25,-0.4375 0.375,-0.93229 0.375,-1.48437c0,-0.60417 -0.125,-1.13021 -0.375,-1.57812c-0.25,-0.45833 -0.59375,-0.81771 -1.03125,-1.07812c-0.4375,-0.26042 -0.94271,-0.39062 -1.51562,-0.39062h-2.75zM293.52601,175.07342c-1.19792,0 -2.25521,-0.21875 -3.17187,-0.65625c-0.91667,-0.44792 -1.63542,-1.0625 -2.15625,-1.84375c-0.52083,-0.78125 -0.78125,-1.67708 -0.78125,-2.6875v-8.70312c0,-0.29167 0.09375,-0.52604 0.28125,-0.70312c0.1875,-0.1875 0.41667,-0.28125 0.6875,-0.28125c0.29167,0 0.52604,0.09375 0.70313,0.28125c0.1875,0.17708 0.28125,0.41146 0.28125,0.70313v8.70313c0,0.67708 0.17708,1.27604 0.53125,1.79688c0.35417,0.51042 0.84375,0.91146 1.46875,1.20313c0.625,0.29167 1.34375,0.4375 2.15625,0.4375c0.78125,0 1.47396,-0.14583 2.07813,-0.4375c0.60417,-0.29167 1.07813,-0.69271 1.42188,-1.20312c0.34375,-0.52083 0.51563,-1.11979 0.51563,-1.79687v-8.70312c0,-0.29167 0.08854,-0.52604 0.26563,-0.70312c0.1875,-0.1875 0.42188,-0.28125 0.70313,-0.28125c0.28125,0 0.51042,0.09375 0.6875,0.28125c0.17708,0.17708 0.26563,0.41146 0.26563,0.70313v8.70313c0,1.01042 -0.25521,1.90625 -0.76562,2.6875c-0.5,0.78125 -1.19792,1.39583 -2.09375,1.84375c-0.89583,0.4375 -1.92187,0.65625 -3.07812,0.65625zM307.49372,174.77654c-0.27083,0 -0.5,-0.09375 -0.6875,-0.28125c-0.1875,-0.1875 -0.28125,-0.41667 -0.28125,-0.6875v-13.60937h1.9375v13.60938c0,0.27083 -0.09375,0.5 -0.28125,0.6875c-0.1875,0.1875 -0.41667,0.28125 -0.6875,0.28125zM302.49372,161.99529c-0.26042,0 -0.47396,-0.08333 -0.64062,-0.25c-0.16667,-0.16667 -0.25,-0.38021 -0.25,-0.64062c0,-0.26042 0.08333,-0.47396 0.25,-0.64062c0.16667,-0.17708 0.38021,-0.26562 0.64063,-0.26562h9.98438c0.26042,0 0.47396,0.08854 0.64063,0.26563c0.16667,0.16667 0.25,0.38021 0.25,0.64063c0,0.26042 -0.08333,0.47396 -0.25,0.64063c-0.16667,0.16667 -0.38021,0.25 -0.64062,0.25zM316.48176,174.77654c-0.27083,0 -0.5,-0.09375 -0.6875,-0.28125c-0.1875,-0.1875 -0.28125,-0.41667 -0.28125,-0.6875v-12.625c0,-0.29167 0.09375,-0.52604 0.28125,-0.70312c0.1875,-0.1875 0.41667,-0.28125 0.6875,-0.28125h8.4375c0.29167,0 0.52083,0.08854 0.6875,0.26563c0.17708,0.16667 0.26563,0.38542 0.26563,0.65625c0,0.26042 -0.08854,0.47396 -0.26562,0.64063c-0.16667,0.15625 -0.39583,0.23438 -0.6875,0.23438h-7.45312v4.53125h5.34375c0.29167,0 0.52083,0.08333 0.6875,0.25c0.17708,0.16667 0.26563,0.38542 0.26563,0.65625c0,0.26042 -0.08854,0.47396 -0.26562,0.64063c-0.16667,0.16667 -0.39583,0.25 -0.6875,0.25h-5.34375v4.65625h7.45313c0.29167,0 0.52083,0.08333 0.6875,0.25c0.17708,0.15625 0.26563,0.36458 0.26563,0.625c0,0.28125 -0.08854,0.50521 -0.26562,0.67188c-0.16667,0.16667 -0.39583,0.25 -0.6875,0.25zM329.54108,174.77654c-0.27083,0 -0.5,-0.09375 -0.6875,-0.28125c-0.1875,-0.1875 -0.28125,-0.41667 -0.28125,-0.6875v-12.625c0,-0.29167 0.09375,-0.52604 0.28125,-0.70312c0.1875,-0.1875 0.41667,-0.28125 0.6875,-0.28125h3.35938c0.9375,0 1.76563,0.19792 2.48438,0.59375c0.71875,0.39583 1.28125,0.9375 1.6875,1.625c0.40625,0.67708 0.60938,1.46875 0.60938,2.375c0,0.84375 -0.20312,1.59896 -0.60937,2.26563c-0.40625,0.65625 -0.96875,1.17188 -1.6875,1.54688c-0.71875,0.375 -1.54687,0.5625 -2.48437,0.5625h-2.375v4.64063c0,0.27083 -0.09375,0.5 -0.28125,0.6875c-0.17708,0.1875 -0.41146,0.28125 -0.70312,0.28125zM337.29108,174.77654c-0.17708,0 -0.33854,-0.03646 -0.48437,-0.10937c-0.13542,-0.07292 -0.25521,-0.19271 -0.35937,-0.35937l-3.35937,-5.40625l1.89063,-0.54687l3.0625,4.92188c0.21875,0.36458 0.24479,0.70833 0.07813,1.03125c-0.15625,0.3125 -0.43229,0.46875 -0.82812,0.46875zM330.52546,167.37029h2.375c0.57292,0 1.07813,-0.10937 1.51563,-0.32812c0.4375,-0.21875 0.78125,-0.52083 1.03125,-0.90625c0.25,-0.39583 0.375,-0.84375 0.375,-1.34375c0,-0.54167 -0.125,-1.02604 -0.375,-1.45312c-0.25,-0.42708 -0.59375,-0.75521 -1.03125,-0.98437c-0.4375,-0.23958 -0.94271,-0.35937 -1.51562,-0.35937h-2.375z"/><path d="M185.4782,197.17651c-0.27083,0 -0.5,-0.09375 -0.6875,-0.28125c-0.1875,-0.1875 -0.28125,-0.41667 -0.28125,-0.6875v-12.625c0,-0.29167 0.09375,-0.52604 0.28125,-0.70312c0.1875,-0.1875 0.41667,-0.28125 0.6875,-0.28125h3.39063c1.0625,0 2.03125,0.18229 2.90625,0.54688c0.88542,0.35417 1.65104,0.85938 2.29688,1.51563c0.64583,0.64583 1.14063,1.41146 1.48438,2.29688c0.35417,0.875 0.53125,1.84896 0.53125,2.92188c0,1.07292 -0.17708,2.05729 -0.53125,2.95313c-0.34375,0.88542 -0.83854,1.65625 -1.48437,2.3125c-0.64583,0.64583 -1.41146,1.14583 -2.29687,1.5c-0.875,0.35417 -1.84375,0.53125 -2.90625,0.53125zM186.46257,195.45776h2.40625c1.04167,0 1.96354,-0.23958 2.76563,-0.71875c0.80208,-0.47917 1.43229,-1.13542 1.89063,-1.96875c0.45833,-0.84375 0.6875,-1.80729 0.6875,-2.89062c0,-1.09375 -0.22917,-2.05729 -0.6875,-2.89062c-0.45833,-0.83333 -1.08854,-1.48437 -1.89062,-1.95312c-0.80208,-0.47917 -1.72396,-0.71875 -2.76562,-0.71875h-2.40625zM200.08605,197.17651c-0.27083,0 -0.5,-0.09375 -0.6875,-0.28125c-0.1875,-0.1875 -0.28125,-0.41667 -0.28125,-0.6875v-12.625c0,-0.29167 0.09375,-0.52604 0.28125,-0.70312c0.1875,-0.1875 0.41667,-0.28125 0.6875,-0.28125c0.29167,0 0.52604,0.09375 0.70313,0.28125c0.1875,0.17708 0.28125,0.41146 0.28125,0.70313v12.625c0,0.27083 -0.09375,0.5 -0.28125,0.6875c-0.17708,0.1875 -0.41146,0.28125 -0.70312,0.28125zM204.58568,197.17651c-0.27083,0 -0.5,-0.09375 -0.6875,-0.28125c-0.1875,-0.1875 -0.28125,-0.41667 -0.28125,-0.6875v-12.625c0,-0.29167 0.09375,-0.52604 0.28125,-0.70312c0.1875,-0.1875 0.41667,-0.28125 0.6875,-0.28125h8.4375c0.28125,0 0.51042,0.08854 0.6875,0.26563c0.17708,0.16667 0.26563,0.38542 0.26563,0.65625c0,0.26042 -0.08854,0.47396 -0.26562,0.64063c-0.17708,0.15625 -0.40625,0.23438 -0.6875,0.23438h-7.46875v4.53125h5.35938c0.28125,0 0.51042,0.08333 0.6875,0.25c0.17708,0.16667 0.26563,0.38542 0.26563,0.65625c0,0.26042 -0.08854,0.47396 -0.26562,0.64063c-0.17708,0.16667 -0.40625,0.25 -0.6875,0.25h-5.35937v5.48438c0,0.27083 -0.09375,0.5 -0.28125,0.6875c-0.17708,0.1875 -0.40625,0.28125 -0.6875,0.28125zM216.24584,197.17651c-0.27083,0 -0.5,-0.09375 -0.6875,-0.28125c-0.1875,-0.1875 -0.28125,-0.41667 -0.28125,-0.6875v-12.625c0,-0.29167 0.09375,-0.52604 0.28125,-0.70312c0.1875,-0.1875 0.41667,-0.28125 0.6875,-0.28125h8.4375c0.28125,0 0.51042,0.08854 0.6875,0.26563c0.17708,0.16667 0.26563,0.38542 0.26563,0.65625c0,0.26042 -0.08854,0.47396 -0.26562,0.64063c-0.17708,0.15625 -0.40625,0.23438 -0.6875,0.23438h-7.46875v4.53125h5.35938c0.28125,0 0.51042,0.08333 0.6875,0.25c0.17708,0.16667 0.26563,0.38542 0.26563,0.65625c0,0.26042 -0.08854,0.47396 -0.26562,0.64063c-0.17708,0.16667 -0.40625,0.25 -0.6875,0.25h-5.35937v5.48438c0,0.27083 -0.09375,0.5 -0.28125,0.6875c-0.17708,0.1875 -0.40625,0.28125 -0.6875,0.28125zM229.07787,197.17651c-0.27083,0 -0.5,-0.09375 -0.6875,-0.28125c-0.1875,-0.1875 -0.28125,-0.41667 -0.28125,-0.6875v-12.625c0,-0.29167 0.09375,-0.52604 0.28125,-0.70312c0.1875,-0.1875 0.41667,-0.28125 0.6875,-0.28125c0.29167,0 0.52604,0.09375 0.70313,0.28125c0.1875,0.17708 0.28125,0.41146 0.28125,0.70313v12.625c0,0.27083 -0.09375,0.5 -0.28125,0.6875c-0.17708,0.1875 -0.41146,0.28125 -0.70312,0.28125zM240.31188,197.36401c-1,0 -1.94271,-0.1875 -2.82812,-0.5625c-0.875,-0.38542 -1.64062,-0.91667 -2.29687,-1.59375c-0.64583,-0.67708 -1.15625,-1.46875 -1.53125,-2.375c-0.36458,-0.90625 -0.54687,-1.89062 -0.54687,-2.95312c0,-1.04167 0.18229,-2.01042 0.54688,-2.90625c0.375,-0.90625 0.88542,-1.69792 1.53125,-2.375c0.65625,-0.67708 1.41667,-1.20833 2.28125,-1.59375c0.875,-0.38542 1.82292,-0.57812 2.84375,-0.57812c0.95833,0 1.78125,0.125 2.46875,0.375c0.69792,0.23958 1.39583,0.64583 2.09375,1.21875c0.09375,0.07292 0.16667,0.15104 0.21875,0.23438c0.0625,0.08333 0.10417,0.16667 0.125,0.25c0.02083,0.07292 0.03125,0.16667 0.03125,0.28125c0,0.23958 -0.08854,0.4375 -0.26562,0.59375c-0.16667,0.15625 -0.36979,0.24479 -0.60937,0.26563c-0.22917,0.01042 -0.45833,-0.06771 -0.6875,-0.23437c-0.45833,-0.40625 -0.93229,-0.71354 -1.42187,-0.92187c-0.48958,-0.20833 -1.14062,-0.3125 -1.95312,-0.3125c-0.72917,0 -1.41667,0.15104 -2.0625,0.45313c-0.64583,0.29167 -1.21875,0.69792 -1.71875,1.21875c-0.48958,0.52083 -0.86979,1.13021 -1.14062,1.82813c-0.27083,0.6875 -0.40625,1.42188 -0.40625,2.20313c0,0.80208 0.13542,1.54688 0.40625,2.23438c0.27083,0.6875 0.65104,1.29167 1.14063,1.8125c0.5,0.52083 1.07292,0.93229 1.71875,1.23438c0.64583,0.29167 1.33333,0.4375 2.0625,0.4375c0.63542,0 1.23438,-0.10937 1.79688,-0.32812c0.57292,-0.21875 1.11979,-0.52083 1.64063,-0.90625c0.21875,-0.16667 0.4375,-0.23958 0.65625,-0.21875c0.21875,0.02083 0.40104,0.10938 0.54688,0.26563c0.15625,0.15625 0.23438,0.36979 0.23438,0.64063c0,0.125 -0.02604,0.25 -0.07812,0.375c-0.05208,0.11458 -0.125,0.21875 -0.21875,0.3125c-0.67708,0.53125 -1.40104,0.9375 -2.17187,1.21875c-0.76042,0.27083 -1.5625,0.40625 -2.40625,0.40625zM254.38592,197.47339c-1.19792,0 -2.25521,-0.21875 -3.17187,-0.65625c-0.91667,-0.44792 -1.63542,-1.0625 -2.15625,-1.84375c-0.52083,-0.78125 -0.78125,-1.67708 -0.78125,-2.6875v-8.70312c0,-0.29167 0.09375,-0.52604 0.28125,-0.70312c0.1875,-0.1875 0.41667,-0.28125 0.6875,-0.28125c0.29167,0 0.52604,0.09375 0.70313,0.28125c0.1875,0.17708 0.28125,0.41146 0.28125,0.70313v8.70313c0,0.67708 0.17708,1.27604 0.53125,1.79688c0.35417,0.51042 0.84375,0.91146 1.46875,1.20313c0.625,0.29167 1.34375,0.4375 2.15625,0.4375c0.78125,0 1.47396,-0.14583 2.07813,-0.4375c0.60417,-0.29167 1.07813,-0.69271 1.42188,-1.20312c0.34375,-0.52083 0.51563,-1.11979 0.51563,-1.79687v-8.70312c0,-0.29167 0.08854,-0.52604 0.26563,-0.70312c0.1875,-0.1875 0.42188,-0.28125 0.70313,-0.28125c0.28125,0 0.51042,0.09375 0.6875,0.28125c0.17708,0.17708 0.26563,0.41146 0.26563,0.70313v8.70313c0,1.01042 -0.25521,1.90625 -0.76562,2.6875c-0.5,0.78125 -1.19792,1.39583 -2.09375,1.84375c-0.89583,0.4375 -1.92187,0.65625 -3.07812,0.65625zM264.99419,197.17651c-0.27083,0 -0.5,-0.09375 -0.6875,-0.28125c-0.17708,-0.1875 -0.26562,-0.41667 -0.26562,-0.6875v-12.625c0,-0.28125 0.09375,-0.51562 0.28125,-0.70312c0.1875,-0.1875 0.41146,-0.28125 0.67188,-0.28125c0.28125,0 0.51042,0.09375 0.6875,0.28125c0.1875,0.1875 0.28125,0.42188 0.28125,0.70313v11.65625h6.76563c0.27083,0 0.5,0.09375 0.6875,0.28125c0.1875,0.1875 0.28125,0.41667 0.28125,0.6875c0,0.27083 -0.09375,0.5 -0.28125,0.6875c-0.1875,0.1875 -0.41667,0.28125 -0.6875,0.28125zM277.90423,197.17651c-0.27083,0 -0.5,-0.09375 -0.6875,-0.28125c-0.1875,-0.1875 -0.28125,-0.41667 -0.28125,-0.6875v-13.60937h1.9375v13.60938c0,0.27083 -0.09375,0.5 -0.28125,0.6875c-0.1875,0.1875 -0.41667,0.28125 -0.6875,0.28125zM272.90423,184.39526c-0.26042,0 -0.47396,-0.08333 -0.64062,-0.25c-0.16667,-0.16667 -0.25,-0.38021 -0.25,-0.64062c0,-0.26042 0.08333,-0.47396 0.25,-0.64062c0.16667,-0.17708 0.38021,-0.26562 0.64063,-0.26562h9.98438c0.26042,0 0.47396,0.08854 0.64063,0.26563c0.16667,0.16667 0.25,0.38021 0.25,0.64063c0,0.26042 -0.08333,0.47396 -0.25,0.64063c-0.16667,0.16667 -0.38021,0.25 -0.64062,0.25zM290.29851,197.17651c-0.26042,0 -0.48437,-0.09375 -0.67187,-0.28125c-0.1875,-0.1875 -0.28125,-0.41667 -0.28125,-0.6875v-4.34375l-4.98437,-7.75c-0.15625,-0.26042 -0.21875,-0.50521 -0.1875,-0.73437c0.04167,-0.22917 0.15104,-0.41667 0.32813,-0.5625c0.17708,-0.14583 0.38542,-0.21875 0.625,-0.21875c0.20833,0 0.375,0.04688 0.5,0.14063c0.125,0.09375 0.24479,0.22917 0.35938,0.40625l4.73438,7.51563h-0.75l4.82813,-7.59375c0.09375,-0.14583 0.20833,-0.26042 0.34375,-0.34375c0.13542,-0.08333 0.30208,-0.125 0.5,-0.125c0.22917,0 0.41667,0.07813 0.5625,0.23438c0.15625,0.15625 0.24479,0.35417 0.26563,0.59375c0.02083,0.22917 -0.04167,0.45833 -0.1875,0.6875l-5.01562,7.75v4.34375c0,0.27083 -0.09375,0.5 -0.28125,0.6875c-0.1875,0.1875 -0.41667,0.28125 -0.6875,0.28125z"/></g></g></g></svg>