<svg version="1.1" xmlns="http://www.w3.org/2000/svg" xmlns:xlink="http://www.w3.org/1999/xlink" width="8.75023" height="6.95023" viewBox="0,0,8.75023,6.95023"><g transform="translate(-235.62488,-176.52488)"><g data-paper-data="{&quot;isPaintingLayer&quot;:true}" fill-rule="nonzero" stroke-linecap="butt" stroke-linejoin="miter" stroke-miterlimit="10" stroke-dasharray="" stroke-dashoffset="0" style="mix-blend-mode: normal"><path d="M237.20682,182.67463c-1.85972,-1.2253 -2.11676,-3.41606 -0.57413,-4.89322c1.54263,-1.47716 4.30077,-1.68133 6.16049,-0.45603c1.85972,1.2253 2.11676,3.41606 0.57413,4.89322c-1.54263,1.47716 -4.30077,1.68133 -6.16049,0.45603z" fill="#28123b" stroke="none" stroke-width="0"/><path d="M238.42518,181.50797c-1.04852,-0.69083 -1.19345,-1.92602 -0.3237,-2.75885c0.86975,-0.83283 2.42482,-0.94795 3.47335,-0.25711c1.04852,0.69083 1.19346,1.92602 0.3237,2.75885c-0.86975,0.83283 -2.42482,0.94795 -3.47335,0.25711z" fill="none" stroke="#8b4fff" stroke-width="1.5"/><path d="M238.71429,180c0,-0.56401 0.57564,-1.02123 1.28572,-1.02123c0.71008,0 1.28572,0.45722 1.28572,1.02123c0,0.56401 -0.57564,1.02123 -1.28572,1.02123c-0.71008,0 -1.28572,-0.45722 -1.28572,-1.02123z" fill="#8b4fff" stroke="none" stroke-width="0"/><path d="M239.42857,180c0,-0.25067 0.25584,-0.45388 0.57143,-0.45388c0.31559,0 0.57143,0.20321 0.57143,0.45388c0,0.25067 -0.25584,0.45388 -0.57143,0.45388c-0.31559,0 -0.57143,-0.20321 -0.57143,-0.45388z" fill="none" stroke="#28123b" stroke-width="0.5"/><path d="M238.42517,181.50797c-1.04852,-0.69083 -1.19345,-1.92602 -0.3237,-2.75885c0.86975,-0.83283 2.42482,-0.94795 3.47335,-0.25711c1.04852,0.69083 1.19346,1.92602 0.3237,2.75885c-0.86975,0.83283 -2.42482,0.94795 -3.47335,0.25711z" fill="none" stroke="#28123b" stroke-width="0.5"/></g></g></svg>