<svg version="1.1" xmlns="http://www.w3.org/2000/svg" xmlns:xlink="http://www.w3.org/1999/xlink" width="11.5675" height="8.75" viewBox="0,0,11.5675,8.75"><g transform="translate(-234.21625,-175.625)"><g data-paper-data="{&quot;isPaintingLayer&quot;:true}" fill-rule="nonzero" stroke-linecap="butt" stroke-linejoin="miter" stroke-miterlimit="10" stroke-dasharray="" stroke-dashoffset="0" style="mix-blend-mode: normal"><g><path d="M241.27875,183.3125v-6.375h3.6919c0,0 0.8131,2.07312 0.8131,3.125c0,1.07271 -0.8131,3.25 -0.8131,3.25z" fill="#28123b" stroke="none" stroke-width="0"/><path d="M234.21625,180c0,-2.41625 1.95875,-4.375 4.375,-4.375c2.41625,0 4.375,1.95875 4.375,4.375c0,2.41625 -1.95875,4.375 -4.375,4.375c-2.41625,0 -4.375,-1.95875 -4.375,-4.375z" fill="#28123b" stroke="none" stroke-width="0"/><path d="M236.12458,180c0,-1.3623 1.10437,-2.46667 2.46667,-2.46667c1.3623,0 2.46667,1.10437 2.46667,2.46667c0,1.3623 -1.10436,2.46667 -2.46667,2.46667c-1.3623,0 -2.46667,-1.10436 -2.46667,-2.46667z" fill="#9965ff" stroke="#8b4fff" stroke-width="2"/><path d="M240.95889,181.7472v-3.23529h2.58758c0,0 0.55947,1.14639 0.55947,1.64704c0,0.569 -0.55947,1.58825 -0.55947,1.58825z" fill="#a172ff" stroke="#8b4fff" stroke-width="1.5"/><path d="M234.21625,180c0,-2.41625 1.95875,-4.375 4.375,-4.375c2.41625,0 4.375,1.95875 4.375,4.375c0,2.41625 -1.95875,4.375 -4.375,4.375c-2.41625,0 -4.375,-1.95875 -4.375,-4.375z" fill="#28123b" stroke="none" stroke-width="0"/><path d="M236.12458,180c0,-1.3623 1.10437,-2.46667 2.46667,-2.46667c1.3623,0 2.46667,1.10437 2.46667,2.46667c0,1.3623 -1.10436,2.46667 -2.46667,2.46667c-1.3623,0 -2.46667,-1.10436 -2.46667,-2.46667z" fill="#9965ff" stroke="#8b4fff" stroke-width="2"/><path d="M236.01982,180c0,-1.42016 1.15127,-2.57143 2.57143,-2.57143c1.42016,0 2.57143,1.15127 2.57143,2.57143c0,1.42016 -1.15127,2.57143 -2.57143,2.57143c-1.42016,0 -2.57143,-1.15127 -2.57143,-2.57143z" fill="#a172ff" stroke="none" stroke-width="0"/><path d="M240.59512,182.49081c0,0 0.88649,-1.52297 0.90269,-2.30108c0.01666,-0.80094 -0.93558,-2.43803 -0.93558,-2.43803h3.27551v4.73912z" fill="#8b4fff" stroke="none" stroke-width="0"/><path d="M239.25013,180.99445v-1.75034h3.8c0,0 0.29546,0.60207 0.29546,0.88819c0,0.29692 -0.29546,0.86214 -0.29546,0.86214z" fill="#a172ff" stroke="none" stroke-width="0"/></g></g></g></svg>