<svg version="1.1" xmlns="http://www.w3.org/2000/svg" xmlns:xlink="http://www.w3.org/1999/xlink" width="137.77424" height="118.5387" viewBox="0,0,137.77424,118.5387"><defs><linearGradient x1="598.47059" y1="1378.19688" x2="563.68747" y2="-332.06519" gradientUnits="userSpaceOnUse" id="color-1"><stop offset="0" stop-color="#000000"/><stop offset="1" stop-color="#000000" stop-opacity="0"/></linearGradient><linearGradient x1="240.07973" y1="230.93767" x2="240.07973" y2="217.7807" gradientUnits="userSpaceOnUse" id="color-2"><stop offset="0" stop-color="#000000"/><stop offset="1" stop-color="#000000" stop-opacity="0"/></linearGradient><linearGradient x1="240.07973" y1="230.93767" x2="240.07973" y2="217.7807" gradientUnits="userSpaceOnUse" id="color-3"><stop offset="0" stop-color="#000000"/><stop offset="1" stop-color="#000000" stop-opacity="0"/></linearGradient><linearGradient x1="302.80376" y1="224.35919" x2="302.80376" y2="123.12604" gradientUnits="userSpaceOnUse" id="color-4"><stop offset="0" stop-color="#000000"/><stop offset="1" stop-color="#000000" stop-opacity="0"/></linearGradient><linearGradient x1="302.80376" y1="224.35919" x2="302.80376" y2="123.12604" gradientUnits="userSpaceOnUse" id="color-5"><stop offset="0" stop-color="#000000"/><stop offset="1" stop-color="#000000" stop-opacity="0"/></linearGradient><linearGradient x1="224.80371" y1="185.49851" x2="213.73522" y2="178.43351" gradientUnits="userSpaceOnUse" id="color-6"><stop offset="0" stop-color="#000000" stop-opacity="0"/><stop offset="1" stop-color="#000000" stop-opacity="0"/></linearGradient></defs><g transform="translate(-171.27952,-116.87604)"><g data-paper-data="{&quot;isPaintingLayer&quot;:true}" fill-rule="nonzero" stroke-linejoin="miter" stroke-miterlimit="10" stroke-dasharray="" stroke-dashoffset="0" style="mix-blend-mode: normal"><path d="M301.51214,127.03922l0.96904,98.60731l-124.65311,2.09515l4.61817,-92.5316z" fill="url(#color-1)" stroke="none" stroke-width="0" stroke-linecap="butt"/><path d="M301.91017,224.35919h-123.66096" fill="url(#color-2)" stroke="url(#color-3)" stroke-width="12.5" stroke-linecap="round"/><path d="M302.80376,123.12604v101.23316" fill="url(#color-4)" stroke="url(#color-5)" stroke-width="12.5" stroke-linecap="round"/><g fill="none" stroke="#28123b" stroke-width="12.5" stroke-linecap="round"><path d="M301.78024,229.16474h-123.66096"/><path d="M302.67383,229.16474v-101.23315"/><path d="M177.95425,154.57769c0,0 0.95922,-26.95911 31.93166,-27.66239c19.1928,-0.4358 92.19814,0 92.19814,0" data-paper-data="{&quot;index&quot;:null}"/><path d="M177.52952,228.14845v-71.69534" data-paper-data="{&quot;index&quot;:null}"/></g><g fill="none" stroke="#8b4fff" stroke-width="4.5" stroke-linecap="round"><path d="M301.78024,229.16474h-123.66096"/><path d="M302.67383,229.16474v-101.23315"/><path d="M177.48539,158.79737c0,0 -1.28596,-31.88207 35.91692,-31.88207c22.81613,0 88.21289,0 88.21289,0" data-paper-data="{&quot;index&quot;:null}"/><path d="M177.52952,228.14845c0,0 0,-55.66537 0,-63.25578c0,-1.66611 0,-6.79857 0,-6.79857" data-paper-data="{&quot;index&quot;:null}"/></g><path d="M215.25783,178.89391l49.1838,32.80581" data-paper-data="{&quot;index&quot;:null}" fill="none" stroke="#28123b" stroke-width="13.5" stroke-linecap="round"/><path d="M215.26728,179.13546c0,0 1.94956,1.30036 4.0086,2.67375c6.91225,4.6105 45.1752,30.13207 45.1752,30.13207" data-paper-data="{&quot;index&quot;:null}" fill="none" stroke="#ab80ff" stroke-width="5.5" stroke-linecap="round"/><path d="M217.38035,177.13048l5.93592,4.17174l-3.90509,3.88127l-6.0731,-4.0234z" data-paper-data="{&quot;index&quot;:null}" fill="#8b4fff" stroke="none" stroke-width="NaN" stroke-linecap="butt"/><path d="M213.74138,178.2026l49.1838,-32.80581" data-paper-data="{&quot;index&quot;:null}" fill="none" stroke="#28123b" stroke-width="13.5" stroke-linecap="round"/><path d="M262.9346,145.15523c0,0 -38.26295,25.52157 -45.1752,30.13207c-2.05905,1.37339 -4.0086,2.67375 -4.0086,2.67375" data-paper-data="{&quot;index&quot;:null}" fill="none" stroke="#ab80ff" stroke-width="5.5" stroke-linecap="round"/><path d="M226.29107,183.16831l-2.97473,4.66042l-11.28446,-7.60491l3.1907,-4.1205z" data-paper-data="{&quot;index&quot;:null}" fill="#ab80ff" stroke="url(#color-6)" stroke-width="0" stroke-linecap="butt"/></g></g></svg>