<svg version="1.1" xmlns="http://www.w3.org/2000/svg" xmlns:xlink="http://www.w3.org/1999/xlink" width="8.75023" height="6.50024" viewBox="0,0,8.75023,6.50024"><g transform="translate(-235.62488,-176.74987)"><g data-paper-data="{&quot;isPaintingLayer&quot;:true}" fill-rule="nonzero" stroke-width="0" stroke-linecap="butt" stroke-linejoin="miter" stroke-miterlimit="10" stroke-dasharray="" stroke-dashoffset="0" style="mix-blend-mode: normal"><path d="M237.20682,182.50145c-1.85972,-1.14596 -2.11676,-3.19489 -0.57413,-4.57641c1.54263,-1.38152 4.30077,-1.57246 6.16049,-0.4265c1.85972,1.14596 2.11676,3.19489 0.57413,4.57641c-1.54263,1.38152 -4.30077,1.57246 -6.16049,0.4265z" fill="#28123b" stroke="none"/><g stroke="#000000"><g data-paper-data="{&quot;index&quot;:null}"><path d="M237.80182,181.69366c-0.17993,-0.12942 -0.00173,-0.00968 -0.00173,-0.00968l4.37621,-3.37736c0,0 -0.0982,-0.0659 0.01759,0.01739c1.25258,0.90097 1.2848,2.38567 0.07197,3.31617c-1.21283,0.9305 -3.21145,0.95443 -4.46404,0.05346z" fill="#57a0ff"/><path d="M237.81911,181.69763c0,0 0.16685,0.12845 -0.01308,-0.00097c-1.25258,-0.90097 -1.2848,-2.38567 -0.07197,-3.31617c1.21283,-0.9305 3.21145,-0.95443 4.46404,-0.05346c0.11579,0.08328 0.02396,0.01249 0.02396,0.01249l-4.40296,3.35812z" data-paper-data="{&quot;index&quot;:null}" fill="#ff647e"/></g><path d="M239.85055,180.07665l2.32568,-1.79486c0,0 -0.09821,-0.0659 0.01759,0.01739c1.25258,0.90097 1.28481,2.38567 0.07197,3.31617c-0.08205,0.06296 -0.10473,0.07731 -0.10473,0.07731z" data-paper-data="{&quot;index&quot;:null}" fill="#75b1ff"/><path d="M237.65507,178.44132c0,0 0.01857,-0.01731 0.10056,-0.0803c1.21195,-0.93115 3.21054,-0.95614 4.46399,-0.05583c0.11587,0.08323 0.02398,0.01249 0.02398,0.01249l-2.33819,1.78587z" data-paper-data="{&quot;index&quot;:null}" fill="#ff8096"/></g></g></g></svg>