<svg version="1.1" xmlns="http://www.w3.org/2000/svg" xmlns:xlink="http://www.w3.org/1999/xlink" width="310.59402" height="88.58022" viewBox="0,0,310.59402,88.58022"><defs><linearGradient x1="-619.90502" y1="-674.966" x2="-536.54416" y2="540.45693" gradientUnits="userSpaceOnUse" id="color-1"><stop offset="0" stop-color="#000000"/><stop offset="1" stop-color="#000000" stop-opacity="0"/></linearGradient><linearGradient x1="241.70007" y1="140.6999" x2="241.70007" y2="150.0501" gradientUnits="userSpaceOnUse" id="color-2"><stop offset="0" stop-color="#000000"/><stop offset="1" stop-color="#000000" stop-opacity="0"/></linearGradient><linearGradient x1="241.70007" y1="140.6999" x2="241.70007" y2="150.0501" gradientUnits="userSpaceOnUse" id="color-3"><stop offset="0" stop-color="#000000"/><stop offset="1" stop-color="#000000" stop-opacity="0"/></linearGradient><linearGradient x1="92.44618" y1="145.37501" x2="92.44618" y2="217.31787" gradientUnits="userSpaceOnUse" id="color-4"><stop offset="0" stop-color="#000000"/><stop offset="1" stop-color="#000000" stop-opacity="0"/></linearGradient><linearGradient x1="92.44618" y1="145.37501" x2="92.44618" y2="217.31787" gradientUnits="userSpaceOnUse" id="color-5"><stop offset="0" stop-color="#000000"/><stop offset="1" stop-color="#000000" stop-opacity="0"/></linearGradient><linearGradient x1="240.97715" y1="213.36499" x2="240.97715" y2="222.71519" gradientUnits="userSpaceOnUse" id="color-6"><stop offset="0" stop-color="#000000"/><stop offset="1" stop-color="#000000" stop-opacity="0"/></linearGradient><linearGradient x1="240.97715" y1="213.36499" x2="240.97715" y2="222.71519" gradientUnits="userSpaceOnUse" id="color-7"><stop offset="0" stop-color="#000000"/><stop offset="1" stop-color="#000000" stop-opacity="0"/></linearGradient><linearGradient x1="390.23103" y1="146.09726" x2="390.23103" y2="218.04011" gradientUnits="userSpaceOnUse" id="color-8"><stop offset="0" stop-color="#000000"/><stop offset="1" stop-color="#000000" stop-opacity="0"/></linearGradient><linearGradient x1="390.23103" y1="146.09726" x2="390.23103" y2="218.04011" gradientUnits="userSpaceOnUse" id="color-9"><stop offset="0" stop-color="#000000"/><stop offset="1" stop-color="#000000" stop-opacity="0"/></linearGradient><linearGradient x1="245.25815" y1="165.6437" x2="245.25815" y2="201.77644" gradientUnits="userSpaceOnUse" id="color-10"><stop offset="0" stop-color="#000000"/><stop offset="1" stop-color="#000000" stop-opacity="0"/></linearGradient><linearGradient x1="245.25815" y1="165.6437" x2="245.25815" y2="201.77644" gradientUnits="userSpaceOnUse" id="color-11"><stop offset="0" stop-color="#000000"/><stop offset="1" stop-color="#000000" stop-opacity="0"/></linearGradient></defs><g transform="translate(-86.19617,-135.70989)"><g data-paper-data="{&quot;isPaintingLayer&quot;:true}" fill-rule="nonzero" stroke-linejoin="miter" stroke-miterlimit="10" stroke-dasharray="" stroke-dashoffset="0" style="mix-blend-mode: normal"><path d="M91.78232,214.1876l-2.3224,-70.07674l298.7423,-1.48895l1.51423,70.2006z" fill="url(#color-1)" stroke="none" stroke-width="0" stroke-linecap="butt"/><g stroke-linecap="round"><g stroke-width="12.5"><path d="M388.82764,145.37501h-294.25513" fill="url(#color-2)" stroke="url(#color-3)"/><path d="M92.44618,145.37502v71.94284" fill="url(#color-4)" stroke="url(#color-5)"/><path d="M93.84958,218.04011h294.25513" data-paper-data="{&quot;index&quot;:null}" fill="url(#color-6)" stroke="url(#color-7)"/><path d="M390.23103,146.09728v71.94283" data-paper-data="{&quot;index&quot;:null}" fill="url(#color-8)" stroke="url(#color-9)"/></g><g fill="none" stroke="#28123b" stroke-width="12.5"><path d="M389.13681,141.95989h-294.25513"/><path d="M92.75534,141.95989v71.94283"/><path d="M94.15877,214.62496h294.25513" data-paper-data="{&quot;index&quot;:null}"/><path d="M390.5402,214.62496v-71.94283" data-paper-data="{&quot;index&quot;:null}"/></g><g fill="none" stroke="#8b4fff" stroke-width="4.5"><path d="M94.88167,141.95989h294.25513"/><path d="M92.75534,141.95989v71.94283"/><path d="M94.15877,214.62496h294.25513" data-paper-data="{&quot;index&quot;:null}"/><path d="M390.5402,214.62496v-71.94283" data-paper-data="{&quot;index&quot;:null}"/></g></g><g stroke-linecap="square"><path d="M182.30741,201.77637c-0.67126,0 -1.23928,-0.23237 -1.70401,-0.69709c-0.46473,-0.46473 -0.69709,-1.03275 -0.69709,-1.70401v-31.29174c0,-0.72292 0.23237,-1.30382 0.69709,-1.74272c0.46473,-0.46473 1.03274,-0.69709 1.70401,-0.69709c0.72292,0 1.30382,0.23237 1.74275,0.69709c0.46473,0.4389 0.69709,1.01982 0.69709,1.74275v13.24477h21.45498v-13.24477c0,-0.72292 0.21945,-1.30382 0.65838,-1.74272c0.46473,-0.46473 1.04566,-0.69709 1.74275,-0.69709c0.69709,0 1.2651,0.23237 1.704,0.69709c0.4389,0.4389 0.65838,1.01982 0.65838,1.74275v31.29175c0,0.67126 -0.21945,1.23928 -0.65835,1.70401c-0.4389,0.46473 -1.00692,0.69709 -1.70401,0.69709c-0.69709,0 -1.278,-0.23237 -1.74272,-0.69709c-0.4389,-0.46473 -0.65835,-1.03275 -0.65835,-1.70401v-13.78696h-21.45498v13.78696c0,0.67126 -0.23237,1.23928 -0.69709,1.70401c-0.4389,0.46473 -1.01982,0.69709 -1.74272,0.69709zM218.74892,201.77637c-0.85201,0 -1.51036,-0.36144 -1.97508,-1.08437c-0.46473,-0.74872 -0.51635,-1.54909 -0.15491,-2.4011l13.01241,-31.02064c0.46473,-1.08437 1.21345,-1.62655 2.24619,-1.62655c1.1102,0 1.87183,0.54218 2.28493,1.62655l13.05115,31.13684c0.33565,0.852 0.2711,1.62655 -0.19363,2.32364c-0.4389,0.69709 -1.09727,1.04566 -1.97508,1.04566c-0.46473,0 -0.91654,-0.12909 -1.35545,-0.38728c-0.4131,-0.25819 -0.71001,-0.61963 -0.89071,-1.08437l-11.46332,-28.50338h1.31673l-11.65694,28.50338c-0.23237,0.49056 -0.55509,0.86492 -0.96817,1.12311c-0.41311,0.23237 -0.83909,0.34856 -1.278,0.34856zM221.22747,193.83725l1.8202,-3.98891h18.12443l1.85891,3.98893zM255.08997,201.77637c-0.67126,0 -1.23928,-0.23237 -1.704,-0.69709c-0.46473,-0.46473 -0.69709,-1.03275 -0.69709,-1.70401v-31.29174c0,-0.72292 0.23237,-1.30382 0.69709,-1.74272c0.46473,-0.46473 1.03274,-0.69709 1.704,-0.69709h8.3264c2.32364,0 4.37621,0.49056 6.15767,1.47164c1.78146,0.98109 3.17564,2.32364 4.18255,4.02765c1.00691,1.67818 1.51038,3.64037 1.51038,5.88656c0,2.09129 -0.50345,3.96311 -1.51036,5.61549c-1.00691,1.62655 -2.40109,2.90457 -4.18256,3.83402c-1.78146,0.92946 -3.83401,1.39419 -6.15764,1.39419h-5.88656v11.50205c0,0.67126 -0.23237,1.23928 -0.69709,1.70401c-0.4389,0.46473 -1.01982,0.69709 -1.74272,0.69709zM274.29877,201.77637c-0.4389,0 -0.83909,-0.09037 -1.20054,-0.27108c-0.33565,-0.18073 -0.63255,-0.47764 -0.89071,-0.89072l-8.32638,-13.39968l4.68603,-1.35545l7.59057,12.19914c0.54218,0.90363 0.60673,1.75564 0.19365,2.55601c-0.38728,0.77454 -1.07145,1.16182 -2.05254,1.16182zM257.52979,183.41957h5.88656c1.42002,0 2.6722,-0.27108 3.75657,-0.81326c1.08437,-0.54218 1.93638,-1.2909 2.55601,-2.24619c0.61963,-0.98109 0.92946,-2.09128 0.92946,-3.33055c0,-1.34256 -0.30982,-2.5431 -0.92946,-3.60164c-0.61963,-1.05855 -1.47164,-1.87183 -2.55601,-2.43981c-1.08437,-0.59381 -2.33655,-0.89072 -3.75654,-0.89072h-5.88656zM284.31404,201.77637c-0.67126,0 -1.23928,-0.23237 -1.70401,-0.69709c-0.46473,-0.46473 -0.69709,-1.03275 -0.69709,-1.70401v-31.29174c0,-0.72292 0.23237,-1.30382 0.69709,-1.74272c0.46473,-0.46473 1.03275,-0.69709 1.70401,-0.69709h8.40386c2.63346,0 5.03456,0.45182 7.2033,1.35547c2.19457,0.87783 4.09219,2.13002 5.69294,3.75657c1.60073,1.60072 2.82711,3.49839 3.67912,5.69294c0.87783,2.16874 1.31673,4.58274 1.31673,7.24204c0,2.65929 -0.4389,5.09911 -1.31673,7.31949c-0.852,2.19457 -2.07836,4.1051 -3.67909,5.73166c-1.60073,1.60073 -3.49838,2.84 -5.69292,3.71783c-2.16874,0.87783 -4.56983,1.31673 -7.2033,1.31673zM286.75387,197.51634h5.96402c2.58183,0 4.86674,-0.59381 6.85476,-1.78146c1.988,-1.18765 3.55,-2.8142 4.68603,-4.87965c1.136,-2.09129 1.704,-4.47946 1.704,-7.16455c0,-2.71092 -0.56801,-5.09911 -1.704,-7.16455c-1.136,-2.06545 -2.698,-3.67909 -4.686,-4.84091c-1.988,-1.18765 -4.27293,-1.78146 -6.85474,-1.78146h-5.96402z" fill="url(#color-10)" stroke="url(#color-11)" stroke-width="9"/><path d="M182.46453,196.38335c-0.67126,0 -1.23928,-0.23237 -1.70401,-0.69709c-0.46473,-0.46473 -0.69709,-1.03275 -0.69709,-1.70401v-31.29174c0,-0.72292 0.23237,-1.30382 0.69709,-1.74272c0.46473,-0.46473 1.03274,-0.69709 1.70401,-0.69709c0.72291,0 1.30382,0.23237 1.74275,0.69709c0.46473,0.4389 0.69709,1.01982 0.69709,1.74275v13.24477h21.45498v-13.24477c0,-0.72292 0.21945,-1.30382 0.65838,-1.74272c0.46473,-0.46473 1.04566,-0.69709 1.74275,-0.69709c0.69709,0 1.2651,0.23237 1.704,0.69709c0.4389,0.4389 0.65838,1.01982 0.65838,1.74275v31.29175c0,0.67126 -0.21945,1.23928 -0.65835,1.70401c-0.4389,0.46473 -1.00692,0.69709 -1.70401,0.69709c-0.69709,0 -1.278,-0.23237 -1.74272,-0.69709c-0.4389,-0.46473 -0.65835,-1.03274 -0.65835,-1.70401v-13.78696h-21.45498v13.78696c0,0.67126 -0.23237,1.23928 -0.69709,1.70401c-0.4389,0.46473 -1.01982,0.69709 -1.74272,0.69709zM218.90605,196.38335c-0.85201,0 -1.51036,-0.36144 -1.97508,-1.08437c-0.46473,-0.74872 -0.51635,-1.54909 -0.15491,-2.4011l13.0124,-31.02064c0.46473,-1.08437 1.21345,-1.62655 2.24619,-1.62655c1.11019,0 1.87183,0.54218 2.28493,1.62655l13.05115,31.13683c0.33565,0.85201 0.2711,1.62655 -0.19363,2.32364c-0.4389,0.69709 -1.09728,1.04566 -1.97508,1.04566c-0.46473,0 -0.91654,-0.12909 -1.35545,-0.38728c-0.41311,-0.25819 -0.71001,-0.61964 -0.89071,-1.08437l-11.46332,-28.50338h1.31673l-11.65694,28.50338c-0.23237,0.49056 -0.55509,0.86492 -0.96817,1.12311c-0.41311,0.23237 -0.83909,0.34856 -1.278,0.34856zM221.38461,188.44425l1.82021,-3.98891h18.12443l1.85892,3.98893zM255.24709,196.38335c-0.67126,0 -1.23928,-0.23237 -1.704,-0.69709c-0.46473,-0.46473 -0.69709,-1.03275 -0.69709,-1.70401v-31.29174c0,-0.72292 0.23237,-1.30382 0.69709,-1.74272c0.46473,-0.46473 1.03274,-0.69709 1.704,-0.69709h8.3264c2.32364,0 4.37622,0.49056 6.15767,1.47164c1.78146,0.98109 3.17564,2.32364 4.18256,4.02765c1.00691,1.67818 1.51038,3.64037 1.51038,5.88656c0,2.09129 -0.50345,3.96311 -1.51036,5.61549c-1.00691,1.62655 -2.40109,2.90457 -4.18256,3.83402c-1.78146,0.92946 -3.834,1.39418 -6.15764,1.39418h-5.88656v11.50205c0,0.67126 -0.23237,1.23928 -0.6971,1.70401c-0.4389,0.46473 -1.01982,0.69709 -1.74272,0.69709zM274.45589,196.38335c-0.4389,0 -0.83909,-0.09037 -1.20054,-0.27108c-0.33565,-0.18073 -0.63256,-0.47764 -0.89072,-0.89072l-8.32638,-13.39968l4.68603,-1.35545l7.59057,12.19915c0.54218,0.90364 0.60673,1.75564 0.19365,2.55601c-0.38728,0.77454 -1.07145,1.16183 -2.05254,1.16183zM257.68691,178.02656h5.88656c1.42002,0 2.6722,-0.27108 3.75657,-0.81326c1.08437,-0.54218 1.93637,-1.2909 2.55601,-2.24619c0.61963,-0.98109 0.92946,-2.09128 0.92946,-3.33055c0,-1.34256 -0.30982,-2.5431 -0.92946,-3.60164c-0.61963,-1.05855 -1.47164,-1.87183 -2.55601,-2.43981c-1.08437,-0.59381 -2.33656,-0.89072 -3.75655,-0.89072h-5.88656zM284.47116,196.38335c-0.67126,0 -1.23928,-0.23237 -1.70401,-0.69709c-0.46473,-0.46473 -0.69709,-1.03275 -0.69709,-1.70401v-31.29174c0,-0.72292 0.23237,-1.30382 0.69709,-1.74272c0.46473,-0.46473 1.03275,-0.69709 1.70401,-0.69709h8.40386c2.63346,0 5.03456,0.45182 7.2033,1.35547c2.19457,0.87783 4.09219,2.13002 5.69294,3.75657c1.60073,1.60072 2.82711,3.49839 3.67912,5.69294c0.87783,2.16874 1.31673,4.58274 1.31673,7.24204c0,2.65929 -0.4389,5.09911 -1.31673,7.31949c-0.852,2.19457 -2.07836,4.1051 -3.67909,5.73166c-1.60073,1.60072 -3.49838,2.84 -5.69291,3.71783c-2.16874,0.87783 -4.56984,1.31673 -7.2033,1.31673zM286.911,192.12334h5.96402c2.58183,0 4.86674,-0.59381 6.85476,-1.78146c1.988,-1.18765 3.55001,-2.8142 4.68603,-4.87965c1.136,-2.09129 1.704,-4.47946 1.704,-7.16455c0,-2.71092 -0.56801,-5.09911 -1.704,-7.16455c-1.136,-2.06545 -2.698,-3.67909 -4.686,-4.84091c-1.988,-1.18765 -4.27293,-1.78146 -6.85474,-1.78146h-5.96402z" fill="#8b4fff" stroke="#28123b" stroke-width="9"/><path d="M182.46453,196.38335c-0.67126,0 -1.23928,-0.23237 -1.70401,-0.69709c-0.46473,-0.46473 -0.69709,-1.03275 -0.69709,-1.70401v-31.29175c0,-0.72291 0.23237,-1.30382 0.69709,-1.74272c0.46473,-0.46473 1.03274,-0.69709 1.70401,-0.69709c0.72291,0 1.30382,0.23237 1.74275,0.69709c0.46473,0.4389 0.69709,1.01982 0.69709,1.74275v13.24477h21.45498v-13.24477c0,-0.72292 0.21945,-1.30382 0.65838,-1.74272c0.46473,-0.46473 1.04566,-0.69709 1.74275,-0.69709c0.69709,0 1.2651,0.23237 1.704,0.69709c0.4389,0.4389 0.65838,1.01982 0.65838,1.74275v31.29175c0,0.67126 -0.21945,1.23928 -0.65835,1.70401c-0.4389,0.46473 -1.00692,0.69709 -1.70401,0.69709c-0.69709,0 -1.278,-0.23237 -1.74272,-0.69709c-0.4389,-0.46473 -0.65835,-1.03274 -0.65835,-1.70401v-13.78696h-21.45498v13.78696c0,0.67126 -0.23237,1.23928 -0.69709,1.70401c-0.4389,0.46473 -1.01982,0.69709 -1.74272,0.69709zM218.90605,196.38335c-0.85201,0 -1.51036,-0.36144 -1.97508,-1.08437c-0.46473,-0.74872 -0.51635,-1.54909 -0.15491,-2.4011l13.0124,-31.02064c0.46473,-1.08437 1.21345,-1.62655 2.24619,-1.62655c1.11019,0 1.87183,0.54218 2.28493,1.62655l13.05115,31.13683c0.33565,0.85201 0.2711,1.62655 -0.19363,2.32364c-0.4389,0.69709 -1.09728,1.04566 -1.97508,1.04566c-0.46473,0 -0.91654,-0.12909 -1.35545,-0.38728c-0.41311,-0.25819 -0.71001,-0.61963 -0.89071,-1.08437l-11.46332,-28.50338h1.31673l-11.65694,28.50338c-0.23237,0.49056 -0.55509,0.86492 -0.96817,1.12311c-0.41311,0.23237 -0.83909,0.34856 -1.278,0.34856zM221.38461,188.44425l1.82021,-3.98891h18.12443l1.85892,3.98893zM255.24709,196.38335c-0.67126,0 -1.23928,-0.23237 -1.704,-0.69709c-0.46473,-0.46473 -0.69709,-1.03275 -0.69709,-1.70401v-31.29175c0,-0.72291 0.23237,-1.30382 0.69709,-1.74272c0.46473,-0.46473 1.03274,-0.69709 1.704,-0.69709h8.3264c2.32364,0 4.37622,0.49056 6.15767,1.47164c1.78146,0.98109 3.17564,2.32364 4.18256,4.02765c1.00691,1.67818 1.51038,3.64037 1.51038,5.88656c0,2.09129 -0.50345,3.96311 -1.51036,5.61549c-1.00691,1.62655 -2.40109,2.90457 -4.18256,3.83402c-1.78146,0.92946 -3.834,1.39419 -6.15764,1.39419h-5.88656v11.50205c0,0.67126 -0.23237,1.23928 -0.6971,1.70401c-0.4389,0.46473 -1.01982,0.69709 -1.74272,0.69709zM274.45589,196.38335c-0.4389,0 -0.83909,-0.09037 -1.20054,-0.27108c-0.33565,-0.18073 -0.63256,-0.47764 -0.89072,-0.89072l-8.32638,-13.39968l4.68603,-1.35545l7.59057,12.19914c0.54218,0.90364 0.60673,1.75564 0.19365,2.55601c-0.38728,0.77454 -1.07145,1.16183 -2.05254,1.16183zM257.68691,178.02656h5.88656c1.42002,0 2.6722,-0.27108 3.75657,-0.81326c1.08437,-0.54218 1.93637,-1.2909 2.55601,-2.24619c0.61963,-0.98109 0.92946,-2.09128 0.92946,-3.33055c0,-1.34256 -0.30982,-2.5431 -0.92946,-3.60164c-0.61963,-1.05854 -1.47164,-1.87183 -2.55601,-2.43981c-1.08437,-0.59381 -2.33656,-0.89072 -3.75655,-0.89072h-5.88656zM284.47116,196.38335c-0.67126,0 -1.23928,-0.23237 -1.70401,-0.69709c-0.46473,-0.46473 -0.69709,-1.03275 -0.69709,-1.70401v-31.29175c0,-0.72291 0.23237,-1.30382 0.69709,-1.74272c0.46473,-0.46473 1.03275,-0.69709 1.70401,-0.69709h8.40386c2.63346,0 5.03456,0.45182 7.2033,1.35547c2.19457,0.87783 4.09219,2.13002 5.69294,3.75657c1.60073,1.60073 2.82711,3.49839 3.67912,5.69294c0.87783,2.16874 1.31673,4.58274 1.31673,7.24204c0,2.65929 -0.4389,5.09911 -1.31673,7.31949c-0.852,2.19457 -2.07836,4.1051 -3.67909,5.73166c-1.60073,1.60073 -3.49838,2.84 -5.69292,3.71783c-2.16874,0.87783 -4.56983,1.31673 -7.2033,1.31673zM286.911,192.12334h5.96402c2.58183,0 4.86674,-0.59381 6.85476,-1.78146c1.988,-1.18765 3.55,-2.8142 4.68603,-4.87965c1.136,-2.09129 1.704,-4.47946 1.704,-7.16455c0,-2.71092 -0.56801,-5.09911 -1.704,-7.16455c-1.136,-2.06545 -2.698,-3.67909 -4.686,-4.84091c-1.988,-1.18765 -4.27293,-1.78146 -6.85474,-1.78146h-5.96402z" fill="#a97fff" stroke="none" stroke-width="1"/></g></g></g></svg>