<svg version="1.1" xmlns="http://www.w3.org/2000/svg" xmlns:xlink="http://www.w3.org/1999/xlink" width="73.4561" height="22.18757" viewBox="0,0,73.4561,22.18757"><defs><linearGradient x1="240" y1="175.78124" x2="240" y2="190.71881" gradientUnits="userSpaceOnUse" id="color-1"><stop offset="0" stop-color="#000000"/><stop offset="1" stop-color="#000000" stop-opacity="0"/></linearGradient><linearGradient x1="240" y1="175.78124" x2="240" y2="190.71881" gradientUnits="userSpaceOnUse" id="color-2"><stop offset="0" stop-color="#000000"/><stop offset="1" stop-color="#000000" stop-opacity="0"/></linearGradient></defs><g transform="translate(-203.27195,-170.53123)"><g data-paper-data="{&quot;isPaintingLayer&quot;:true}" fill-rule="nonzero" stroke-linecap="square" stroke-linejoin="miter" stroke-miterlimit="10" stroke-dasharray="" stroke-dashoffset="0" style="mix-blend-mode: normal"><path d="M212.47506,190.71873c-1,0 -1.94271,-0.1875 -2.82812,-0.5625c-0.875,-0.38542 -1.64062,-0.91667 -2.29687,-1.59375c-0.64583,-0.67708 -1.15625,-1.46875 -1.53125,-2.375c-0.36458,-0.90625 -0.54687,-1.89062 -0.54687,-2.95312c0,-1.04167 0.18229,-2.01042 0.54688,-2.90625c0.375,-0.90625 0.88542,-1.69792 1.53125,-2.375c0.65625,-0.67708 1.41667,-1.20833 2.28125,-1.59375c0.875,-0.38542 1.82292,-0.57812 2.84375,-0.57812c0.95833,0 1.78125,0.125 2.46875,0.375c0.69792,0.23958 1.39583,0.64583 2.09375,1.21875c0.09375,0.07292 0.16667,0.15104 0.21875,0.23438c0.0625,0.08333 0.10417,0.16667 0.125,0.25c0.02083,0.07292 0.03125,0.16667 0.03125,0.28125c0,0.23958 -0.08854,0.44271 -0.26562,0.60938c-0.16667,0.15625 -0.36979,0.23958 -0.60937,0.25c-0.23958,0.01042 -0.46875,-0.06771 -0.6875,-0.23437c-0.45833,-0.40625 -0.93229,-0.71354 -1.42187,-0.92187c-0.48958,-0.20833 -1.14062,-0.3125 -1.95312,-0.3125c-0.72917,0 -1.41667,0.15104 -2.0625,0.45313c-0.64583,0.29167 -1.21875,0.69792 -1.71875,1.21875c-0.48958,0.52083 -0.86979,1.13021 -1.14062,1.82813c-0.27083,0.6875 -0.40625,1.42188 -0.40625,2.20313c0,0.80208 0.13542,1.54688 0.40625,2.23438c0.27083,0.6875 0.65104,1.29167 1.14063,1.8125c0.5,0.52083 1.07292,0.93229 1.71875,1.23438c0.64583,0.29167 1.33333,0.4375 2.0625,0.4375c0.63542,0 1.23438,-0.10937 1.79688,-0.32812c0.57292,-0.21875 1.11979,-0.52083 1.64063,-0.90625c0.21875,-0.16667 0.4375,-0.23958 0.65625,-0.21875c0.21875,0.02083 0.40104,0.10938 0.54688,0.26563c0.15625,0.15625 0.23438,0.36979 0.23438,0.64063c0,0.125 -0.02083,0.25 -0.0625,0.375c-0.04167,0.11458 -0.11979,0.21875 -0.23437,0.3125c-0.65625,0.55208 -1.375,0.96354 -2.15625,1.23438c-0.77083,0.26042 -1.57812,0.39063 -2.42187,0.39063zM217.35006,188.40623l-1.85937,-0.375v-3.34375h-2.57812c-0.28125,0 -0.51562,-0.07812 -0.70312,-0.23437c-0.17708,-0.16667 -0.26562,-0.375 -0.26562,-0.625c0,-0.25 0.08854,-0.45312 0.26563,-0.60937c0.1875,-0.16667 0.42188,-0.25 0.70313,-0.25h3.48438c0.29167,0 0.52083,0.09375 0.6875,0.28125c0.17708,0.17708 0.26563,0.41146 0.26563,0.70313zM227.1741,190.71873c-1.09375,0 -2.09375,-0.18229 -3,-0.54687c-0.90625,-0.375 -1.6875,-0.89062 -2.34375,-1.54687c-0.64583,-0.66667 -1.15104,-1.45833 -1.51562,-2.375c-0.36458,-0.91667 -0.54687,-1.92187 -0.54687,-3.01562c0,-1.09375 0.18229,-2.09375 0.54688,-3c0.36458,-0.90625 0.86979,-1.69271 1.51563,-2.35937c0.65625,-0.66667 1.4375,-1.18229 2.34375,-1.54687c0.90625,-0.36458 1.90625,-0.54687 3,-0.54687c1.10417,0 2.10417,0.18229 3,0.54688c0.90625,0.36458 1.6875,0.88021 2.34375,1.54688c0.65625,0.66667 1.16146,1.45313 1.51563,2.35938c0.36458,0.90625 0.54688,1.90625 0.54688,3c0,1.09375 -0.18229,2.09896 -0.54687,3.01563c-0.35417,0.91667 -0.85937,1.70833 -1.51562,2.375c-0.65625,0.65625 -1.4375,1.17188 -2.34375,1.54688c-0.89583,0.36458 -1.89583,0.54688 -3,0.54688zM227.1741,188.96873c0.8125,0 1.55729,-0.14583 2.23438,-0.4375c0.67708,-0.29167 1.26563,-0.69792 1.76563,-1.21875c0.5,-0.52083 0.88021,-1.125 1.14063,-1.8125c0.27083,-0.69792 0.40625,-1.45312 0.40625,-2.26562c0,-0.80208 -0.13542,-1.55208 -0.40625,-2.25c-0.26042,-0.69792 -0.64062,-1.30208 -1.14062,-1.8125c-0.5,-0.52083 -1.08854,-0.92187 -1.76562,-1.20312c-0.67708,-0.29167 -1.42187,-0.4375 -2.23437,-0.4375c-0.80208,0 -1.54167,0.14583 -2.21875,0.4375c-0.67708,0.28125 -1.26562,0.68229 -1.76562,1.20313c-0.48958,0.51042 -0.86979,1.11458 -1.14062,1.8125c-0.27083,0.69792 -0.40625,1.44792 -0.40625,2.25c0,0.8125 0.13542,1.56771 0.40625,2.26563c0.27083,0.6875 0.65104,1.29167 1.14063,1.8125c0.5,0.52083 1.08854,0.92708 1.76563,1.21875c0.67708,0.29167 1.41667,0.4375 2.21875,0.4375zM236.67068,190.53123c-0.34375,0 -0.60937,-0.14583 -0.79687,-0.4375c-0.1875,-0.30208 -0.20833,-0.625 -0.0625,-0.96875l5.25,-12.51562c0.1875,-0.4375 0.48958,-0.65625 0.90625,-0.65625c0.44792,0 0.75521,0.21875 0.92188,0.65625l5.26563,12.5625c0.13542,0.34375 0.10938,0.65625 -0.07812,0.9375c-0.17708,0.28125 -0.44271,0.42188 -0.79687,0.42188c-0.1875,0 -0.36979,-0.05208 -0.54687,-0.15625c-0.16667,-0.10417 -0.28646,-0.25 -0.35937,-0.4375l-4.625,-11.5h0.53125l-4.70312,11.5c-0.09375,0.19792 -0.22396,0.34896 -0.39062,0.45313c-0.16667,0.09375 -0.33854,0.14063 -0.51562,0.14063zM237.67068,187.32812l0.73438,-1.60937h7.3125l0.75,1.60938zM251.31722,190.53123c-0.27083,0 -0.5,-0.09375 -0.6875,-0.28125c-0.17708,-0.1875 -0.26562,-0.41667 -0.26562,-0.6875v-12.625c0,-0.28125 0.09375,-0.51562 0.28125,-0.70312c0.1875,-0.1875 0.41146,-0.28125 0.67188,-0.28125c0.28125,0 0.51042,0.09375 0.6875,0.28125c0.1875,0.1875 0.28125,0.42188 0.28125,0.70313v11.65625h6.76563c0.27083,0 0.5,0.09375 0.6875,0.28125c0.1875,0.1875 0.28125,0.41667 0.28125,0.6875c0,0.27083 -0.09375,0.5 -0.28125,0.6875c-0.1875,0.1875 -0.41667,0.28125 -0.6875,0.28125zM262.70083,187.07812c-0.27083,0 -0.5,-0.09375 -0.6875,-0.28125c-0.17708,-0.19792 -0.26562,-0.42187 -0.26562,-0.67187v-9.1875c0,-0.28125 0.08854,-0.51562 0.26563,-0.70312c0.1875,-0.1875 0.41667,-0.28125 0.6875,-0.28125c0.27083,0 0.49479,0.09375 0.67188,0.28125c0.1875,0.1875 0.28125,0.42188 0.28125,0.70313v9.1875c0,0.26042 -0.09896,0.48438 -0.29687,0.67188c-0.1875,0.1875 -0.40625,0.28125 -0.65625,0.28125zM262.70083,190.53123c-0.34375,0 -0.64583,-0.125 -0.90625,-0.375c-0.25,-0.25 -0.375,-0.55208 -0.375,-0.90625c0,-0.36458 0.125,-0.67187 0.375,-0.92187c0.26042,-0.26042 0.5625,-0.39062 0.90625,-0.39062c0.36458,0 0.66667,0.13021 0.90625,0.39063c0.25,0.25 0.375,0.55729 0.375,0.92188c0,0.35417 -0.125,0.65625 -0.375,0.90625c-0.25,0.25 -0.55208,0.375 -0.90625,0.375zM268.07381,187.07812c-0.27083,0 -0.5,-0.09375 -0.6875,-0.28125c-0.17708,-0.19792 -0.26562,-0.42187 -0.26562,-0.67187v-9.1875c0,-0.28125 0.08854,-0.51562 0.26563,-0.70312c0.1875,-0.1875 0.41667,-0.28125 0.6875,-0.28125c0.27083,0 0.49479,0.09375 0.67188,0.28125c0.1875,0.1875 0.28125,0.42188 0.28125,0.70313v9.1875c0,0.26042 -0.09896,0.48438 -0.29687,0.67188c-0.1875,0.1875 -0.40625,0.28125 -0.65625,0.28125zM268.07381,190.53123c-0.34375,0 -0.64583,-0.125 -0.90625,-0.375c-0.25,-0.25 -0.375,-0.55208 -0.375,-0.90625c0,-0.36458 0.125,-0.67187 0.375,-0.92187c0.26042,-0.26042 0.5625,-0.39062 0.90625,-0.39062c0.36458,0 0.66667,0.13021 0.90625,0.39063c0.25,0.25 0.375,0.55729 0.375,0.92188c0,0.35417 -0.125,0.65625 -0.375,0.90625c-0.25,0.25 -0.55208,0.375 -0.90625,0.375zM273.4468,187.07812c-0.27083,0 -0.5,-0.09375 -0.6875,-0.28125c-0.17708,-0.19792 -0.26562,-0.42187 -0.26562,-0.67187v-9.1875c0,-0.28125 0.08854,-0.51562 0.26563,-0.70312c0.1875,-0.1875 0.41667,-0.28125 0.6875,-0.28125c0.27083,0 0.49479,0.09375 0.67188,0.28125c0.1875,0.1875 0.28125,0.42188 0.28125,0.70313v9.1875c0,0.26042 -0.09896,0.48438 -0.29687,0.67188c-0.1875,0.1875 -0.40625,0.28125 -0.65625,0.28125zM273.4468,190.53123c-0.34375,0 -0.64583,-0.125 -0.90625,-0.375c-0.25,-0.25 -0.375,-0.55208 -0.375,-0.90625c0,-0.36458 0.125,-0.67187 0.375,-0.92187c0.26042,-0.26042 0.5625,-0.39062 0.90625,-0.39062c0.36458,0 0.66667,0.13021 0.90625,0.39063c0.25,0.25 0.375,0.55729 0.375,0.92188c0,0.35417 -0.125,0.65625 -0.375,0.90625c-0.25,0.25 -0.55208,0.375 -0.90625,0.375z" fill="url(#color-1)" stroke="url(#color-2)" stroke-width="4"/><path d="M212.47506,187.46873c-1,0 -1.94271,-0.1875 -2.82812,-0.5625c-0.875,-0.38542 -1.64062,-0.91667 -2.29687,-1.59375c-0.64583,-0.67708 -1.15625,-1.46875 -1.53125,-2.375c-0.36458,-0.90625 -0.54687,-1.89062 -0.54687,-2.95312c0,-1.04167 0.18229,-2.01042 0.54688,-2.90625c0.375,-0.90625 0.88542,-1.69792 1.53125,-2.375c0.65625,-0.67708 1.41667,-1.20833 2.28125,-1.59375c0.875,-0.38542 1.82292,-0.57812 2.84375,-0.57812c0.95833,0 1.78125,0.125 2.46875,0.375c0.69792,0.23958 1.39583,0.64583 2.09375,1.21875c0.09375,0.07292 0.16667,0.15104 0.21875,0.23438c0.0625,0.08333 0.10417,0.16667 0.125,0.25c0.02083,0.07292 0.03125,0.16667 0.03125,0.28125c0,0.23958 -0.08854,0.44271 -0.26562,0.60938c-0.16667,0.15625 -0.36979,0.23958 -0.60937,0.25c-0.23958,0.01042 -0.46875,-0.06771 -0.6875,-0.23437c-0.45833,-0.40625 -0.93229,-0.71354 -1.42187,-0.92187c-0.48958,-0.20833 -1.14062,-0.3125 -1.95312,-0.3125c-0.72917,0 -1.41667,0.15104 -2.0625,0.45313c-0.64583,0.29167 -1.21875,0.69792 -1.71875,1.21875c-0.48958,0.52083 -0.86979,1.13021 -1.14062,1.82813c-0.27083,0.6875 -0.40625,1.42188 -0.40625,2.20313c0,0.80208 0.13542,1.54688 0.40625,2.23438c0.27083,0.6875 0.65104,1.29167 1.14063,1.8125c0.5,0.52083 1.07292,0.93229 1.71875,1.23438c0.64583,0.29167 1.33333,0.4375 2.0625,0.4375c0.63542,0 1.23438,-0.10937 1.79688,-0.32812c0.57292,-0.21875 1.11979,-0.52083 1.64063,-0.90625c0.21875,-0.16667 0.4375,-0.23958 0.65625,-0.21875c0.21875,0.02083 0.40104,0.10938 0.54688,0.26563c0.15625,0.15625 0.23438,0.36979 0.23438,0.64063c0,0.125 -0.02083,0.25 -0.0625,0.375c-0.04167,0.11458 -0.11979,0.21875 -0.23437,0.3125c-0.65625,0.55208 -1.375,0.96354 -2.15625,1.23438c-0.77083,0.26042 -1.57812,0.39063 -2.42187,0.39063zM217.35006,185.15623l-1.85937,-0.375v-3.34375h-2.57812c-0.28125,0 -0.51562,-0.07812 -0.70312,-0.23437c-0.17708,-0.16667 -0.26562,-0.375 -0.26562,-0.625c0,-0.25 0.08854,-0.45312 0.26563,-0.60937c0.1875,-0.16667 0.42188,-0.25 0.70313,-0.25h3.48438c0.29167,0 0.52083,0.09375 0.6875,0.28125c0.17708,0.17708 0.26563,0.41146 0.26563,0.70313zM227.1741,187.46873c-1.09375,0 -2.09375,-0.18229 -3,-0.54687c-0.90625,-0.375 -1.6875,-0.89062 -2.34375,-1.54687c-0.64583,-0.66667 -1.15104,-1.45833 -1.51562,-2.375c-0.36458,-0.91667 -0.54687,-1.92187 -0.54687,-3.01562c0,-1.09375 0.18229,-2.09375 0.54688,-3c0.36458,-0.90625 0.86979,-1.69271 1.51563,-2.35937c0.65625,-0.66667 1.4375,-1.18229 2.34375,-1.54687c0.90625,-0.36458 1.90625,-0.54687 3,-0.54687c1.10417,0 2.10417,0.18229 3,0.54688c0.90625,0.36458 1.6875,0.88021 2.34375,1.54688c0.65625,0.66667 1.16146,1.45313 1.51563,2.35938c0.36458,0.90625 0.54688,1.90625 0.54688,3c0,1.09375 -0.18229,2.09896 -0.54687,3.01563c-0.35417,0.91667 -0.85937,1.70833 -1.51562,2.375c-0.65625,0.65625 -1.4375,1.17188 -2.34375,1.54688c-0.89583,0.36458 -1.89583,0.54688 -3,0.54688zM227.1741,185.71873c0.8125,0 1.55729,-0.14583 2.23438,-0.4375c0.67708,-0.29167 1.26563,-0.69792 1.76563,-1.21875c0.5,-0.52083 0.88021,-1.125 1.14063,-1.8125c0.27083,-0.69792 0.40625,-1.45312 0.40625,-2.26562c0,-0.80208 -0.13542,-1.55208 -0.40625,-2.25c-0.26042,-0.69792 -0.64062,-1.30208 -1.14062,-1.8125c-0.5,-0.52083 -1.08854,-0.92187 -1.76562,-1.20312c-0.67708,-0.29167 -1.42187,-0.4375 -2.23437,-0.4375c-0.80208,0 -1.54167,0.14583 -2.21875,0.4375c-0.67708,0.28125 -1.26562,0.68229 -1.76562,1.20313c-0.48958,0.51042 -0.86979,1.11458 -1.14062,1.8125c-0.27083,0.69792 -0.40625,1.44792 -0.40625,2.25c0,0.8125 0.13542,1.56771 0.40625,2.26563c0.27083,0.6875 0.65104,1.29167 1.14063,1.8125c0.5,0.52083 1.08854,0.92708 1.76563,1.21875c0.67708,0.29167 1.41667,0.4375 2.21875,0.4375zM236.67068,187.28123c-0.34375,0 -0.60937,-0.14583 -0.79687,-0.4375c-0.1875,-0.30208 -0.20833,-0.625 -0.0625,-0.96875l5.25,-12.51562c0.1875,-0.4375 0.48958,-0.65625 0.90625,-0.65625c0.44792,0 0.75521,0.21875 0.92188,0.65625l5.26563,12.5625c0.13542,0.34375 0.10938,0.65625 -0.07812,0.9375c-0.17708,0.28125 -0.44271,0.42188 -0.79687,0.42188c-0.1875,0 -0.36979,-0.05208 -0.54687,-0.15625c-0.16667,-0.10417 -0.28646,-0.25 -0.35937,-0.4375l-4.625,-11.5h0.53125l-4.70312,11.5c-0.09375,0.19792 -0.22396,0.34896 -0.39062,0.45313c-0.16667,0.09375 -0.33854,0.14063 -0.51562,0.14063zM237.67068,184.07812l0.73438,-1.60937h7.3125l0.75,1.60938zM251.31722,187.28123c-0.27083,0 -0.5,-0.09375 -0.6875,-0.28125c-0.17708,-0.1875 -0.26562,-0.41667 -0.26562,-0.6875v-12.625c0,-0.28125 0.09375,-0.51562 0.28125,-0.70312c0.1875,-0.1875 0.41146,-0.28125 0.67188,-0.28125c0.28125,0 0.51042,0.09375 0.6875,0.28125c0.1875,0.1875 0.28125,0.42188 0.28125,0.70313v11.65625h6.76563c0.27083,0 0.5,0.09375 0.6875,0.28125c0.1875,0.1875 0.28125,0.41667 0.28125,0.6875c0,0.27083 -0.09375,0.5 -0.28125,0.6875c-0.1875,0.1875 -0.41667,0.28125 -0.6875,0.28125zM262.70083,183.82812c-0.27083,0 -0.5,-0.09375 -0.6875,-0.28125c-0.17708,-0.19792 -0.26562,-0.42187 -0.26562,-0.67187v-9.1875c0,-0.28125 0.08854,-0.51562 0.26563,-0.70312c0.1875,-0.1875 0.41667,-0.28125 0.6875,-0.28125c0.27083,0 0.49479,0.09375 0.67188,0.28125c0.1875,0.1875 0.28125,0.42188 0.28125,0.70313v9.1875c0,0.26042 -0.09896,0.48438 -0.29687,0.67188c-0.1875,0.1875 -0.40625,0.28125 -0.65625,0.28125zM262.70083,187.28123c-0.34375,0 -0.64583,-0.125 -0.90625,-0.375c-0.25,-0.25 -0.375,-0.55208 -0.375,-0.90625c0,-0.36458 0.125,-0.67187 0.375,-0.92187c0.26042,-0.26042 0.5625,-0.39062 0.90625,-0.39062c0.36458,0 0.66667,0.13021 0.90625,0.39063c0.25,0.25 0.375,0.55729 0.375,0.92188c0,0.35417 -0.125,0.65625 -0.375,0.90625c-0.25,0.25 -0.55208,0.375 -0.90625,0.375zM268.07381,183.82812c-0.27083,0 -0.5,-0.09375 -0.6875,-0.28125c-0.17708,-0.19792 -0.26562,-0.42187 -0.26562,-0.67187v-9.1875c0,-0.28125 0.08854,-0.51562 0.26563,-0.70312c0.1875,-0.1875 0.41667,-0.28125 0.6875,-0.28125c0.27083,0 0.49479,0.09375 0.67188,0.28125c0.1875,0.1875 0.28125,0.42188 0.28125,0.70313v9.1875c0,0.26042 -0.09896,0.48438 -0.29687,0.67188c-0.1875,0.1875 -0.40625,0.28125 -0.65625,0.28125zM268.07381,187.28123c-0.34375,0 -0.64583,-0.125 -0.90625,-0.375c-0.25,-0.25 -0.375,-0.55208 -0.375,-0.90625c0,-0.36458 0.125,-0.67187 0.375,-0.92187c0.26042,-0.26042 0.5625,-0.39062 0.90625,-0.39062c0.36458,0 0.66667,0.13021 0.90625,0.39063c0.25,0.25 0.375,0.55729 0.375,0.92188c0,0.35417 -0.125,0.65625 -0.375,0.90625c-0.25,0.25 -0.55208,0.375 -0.90625,0.375zM273.4468,183.82812c-0.27083,0 -0.5,-0.09375 -0.6875,-0.28125c-0.17708,-0.19792 -0.26562,-0.42187 -0.26562,-0.67187v-9.1875c0,-0.28125 0.08854,-0.51562 0.26563,-0.70312c0.1875,-0.1875 0.41667,-0.28125 0.6875,-0.28125c0.27083,0 0.49479,0.09375 0.67188,0.28125c0.1875,0.1875 0.28125,0.42188 0.28125,0.70313v9.1875c0,0.26042 -0.09896,0.48438 -0.29687,0.67188c-0.1875,0.1875 -0.40625,0.28125 -0.65625,0.28125zM273.4468,187.28123c-0.34375,0 -0.64583,-0.125 -0.90625,-0.375c-0.25,-0.25 -0.375,-0.55208 -0.375,-0.90625c0,-0.36458 0.125,-0.67187 0.375,-0.92187c0.26042,-0.26042 0.5625,-0.39062 0.90625,-0.39062c0.36458,0 0.66667,0.13021 0.90625,0.39063c0.25,0.25 0.375,0.55729 0.375,0.92188c0,0.35417 -0.125,0.65625 -0.375,0.90625c-0.25,0.25 -0.55208,0.375 -0.90625,0.375z" fill="#9966ff" stroke="#28123b" stroke-width="4"/><path d="M212.47506,187.46873c-1,0 -1.94271,-0.1875 -2.82812,-0.5625c-0.875,-0.38542 -1.64062,-0.91667 -2.29687,-1.59375c-0.64583,-0.67708 -1.15625,-1.46875 -1.53125,-2.375c-0.36458,-0.90625 -0.54687,-1.89062 -0.54687,-2.95312c0,-1.04167 0.18229,-2.01042 0.54688,-2.90625c0.375,-0.90625 0.88542,-1.69792 1.53125,-2.375c0.65625,-0.67708 1.41667,-1.20833 2.28125,-1.59375c0.875,-0.38542 1.82292,-0.57812 2.84375,-0.57812c0.95833,0 1.78125,0.125 2.46875,0.375c0.69792,0.23958 1.39583,0.64583 2.09375,1.21875c0.09375,0.07292 0.16667,0.15104 0.21875,0.23438c0.0625,0.08333 0.10417,0.16667 0.125,0.25c0.02083,0.07292 0.03125,0.16667 0.03125,0.28125c0,0.23958 -0.08854,0.44271 -0.26562,0.60938c-0.16667,0.15625 -0.36979,0.23958 -0.60937,0.25c-0.23958,0.01042 -0.46875,-0.06771 -0.6875,-0.23437c-0.45833,-0.40625 -0.93229,-0.71354 -1.42187,-0.92187c-0.48958,-0.20833 -1.14062,-0.3125 -1.95312,-0.3125c-0.72917,0 -1.41667,0.15104 -2.0625,0.45313c-0.64583,0.29167 -1.21875,0.69792 -1.71875,1.21875c-0.48958,0.52083 -0.86979,1.13021 -1.14062,1.82813c-0.27083,0.6875 -0.40625,1.42188 -0.40625,2.20313c0,0.80208 0.13542,1.54688 0.40625,2.23438c0.27083,0.6875 0.65104,1.29167 1.14063,1.8125c0.5,0.52083 1.07292,0.93229 1.71875,1.23438c0.64583,0.29167 1.33333,0.4375 2.0625,0.4375c0.63542,0 1.23438,-0.10937 1.79688,-0.32812c0.57292,-0.21875 1.11979,-0.52083 1.64063,-0.90625c0.21875,-0.16667 0.4375,-0.23958 0.65625,-0.21875c0.21875,0.02083 0.40104,0.10938 0.54688,0.26563c0.15625,0.15625 0.23438,0.36979 0.23438,0.64063c0,0.125 -0.02083,0.25 -0.0625,0.375c-0.04167,0.11458 -0.11979,0.21875 -0.23437,0.3125c-0.65625,0.55208 -1.375,0.96354 -2.15625,1.23438c-0.77083,0.26042 -1.57812,0.39063 -2.42187,0.39063zM217.35006,185.15623l-1.85937,-0.375v-3.34375h-2.57812c-0.28125,0 -0.51562,-0.07812 -0.70312,-0.23437c-0.17708,-0.16667 -0.26562,-0.375 -0.26562,-0.625c0,-0.25 0.08854,-0.45312 0.26563,-0.60937c0.1875,-0.16667 0.42188,-0.25 0.70313,-0.25h3.48438c0.29167,0 0.52083,0.09375 0.6875,0.28125c0.17708,0.17708 0.26563,0.41146 0.26563,0.70313zM227.1741,187.46873c-1.09375,0 -2.09375,-0.18229 -3,-0.54687c-0.90625,-0.375 -1.6875,-0.89062 -2.34375,-1.54687c-0.64583,-0.66667 -1.15104,-1.45833 -1.51562,-2.375c-0.36458,-0.91667 -0.54687,-1.92187 -0.54687,-3.01562c0,-1.09375 0.18229,-2.09375 0.54688,-3c0.36458,-0.90625 0.86979,-1.69271 1.51563,-2.35937c0.65625,-0.66667 1.4375,-1.18229 2.34375,-1.54687c0.90625,-0.36458 1.90625,-0.54687 3,-0.54687c1.10417,0 2.10417,0.18229 3,0.54688c0.90625,0.36458 1.6875,0.88021 2.34375,1.54688c0.65625,0.66667 1.16146,1.45313 1.51563,2.35938c0.36458,0.90625 0.54688,1.90625 0.54688,3c0,1.09375 -0.18229,2.09896 -0.54687,3.01563c-0.35417,0.91667 -0.85937,1.70833 -1.51562,2.375c-0.65625,0.65625 -1.4375,1.17188 -2.34375,1.54688c-0.89583,0.36458 -1.89583,0.54688 -3,0.54688zM227.1741,185.71873c0.8125,0 1.55729,-0.14583 2.23438,-0.4375c0.67708,-0.29167 1.26563,-0.69792 1.76563,-1.21875c0.5,-0.52083 0.88021,-1.125 1.14063,-1.8125c0.27083,-0.69792 0.40625,-1.45312 0.40625,-2.26562c0,-0.80208 -0.13542,-1.55208 -0.40625,-2.25c-0.26042,-0.69792 -0.64062,-1.30208 -1.14062,-1.8125c-0.5,-0.52083 -1.08854,-0.92187 -1.76562,-1.20312c-0.67708,-0.29167 -1.42187,-0.4375 -2.23437,-0.4375c-0.80208,0 -1.54167,0.14583 -2.21875,0.4375c-0.67708,0.28125 -1.26562,0.68229 -1.76562,1.20313c-0.48958,0.51042 -0.86979,1.11458 -1.14062,1.8125c-0.27083,0.69792 -0.40625,1.44792 -0.40625,2.25c0,0.8125 0.13542,1.56771 0.40625,2.26563c0.27083,0.6875 0.65104,1.29167 1.14063,1.8125c0.5,0.52083 1.08854,0.92708 1.76563,1.21875c0.67708,0.29167 1.41667,0.4375 2.21875,0.4375zM236.67068,187.28123c-0.34375,0 -0.60937,-0.14583 -0.79687,-0.4375c-0.1875,-0.30208 -0.20833,-0.625 -0.0625,-0.96875l5.25,-12.51562c0.1875,-0.4375 0.48958,-0.65625 0.90625,-0.65625c0.44792,0 0.75521,0.21875 0.92188,0.65625l5.26563,12.5625c0.13542,0.34375 0.10938,0.65625 -0.07812,0.9375c-0.17708,0.28125 -0.44271,0.42188 -0.79687,0.42188c-0.1875,0 -0.36979,-0.05208 -0.54687,-0.15625c-0.16667,-0.10417 -0.28646,-0.25 -0.35937,-0.4375l-4.625,-11.5h0.53125l-4.70312,11.5c-0.09375,0.19792 -0.22396,0.34896 -0.39062,0.45313c-0.16667,0.09375 -0.33854,0.14063 -0.51562,0.14063zM237.67068,184.07812l0.73438,-1.60937h7.3125l0.75,1.60938zM251.31722,187.28123c-0.27083,0 -0.5,-0.09375 -0.6875,-0.28125c-0.17708,-0.1875 -0.26562,-0.41667 -0.26562,-0.6875v-12.625c0,-0.28125 0.09375,-0.51562 0.28125,-0.70312c0.1875,-0.1875 0.41146,-0.28125 0.67188,-0.28125c0.28125,0 0.51042,0.09375 0.6875,0.28125c0.1875,0.1875 0.28125,0.42188 0.28125,0.70313v11.65625h6.76563c0.27083,0 0.5,0.09375 0.6875,0.28125c0.1875,0.1875 0.28125,0.41667 0.28125,0.6875c0,0.27083 -0.09375,0.5 -0.28125,0.6875c-0.1875,0.1875 -0.41667,0.28125 -0.6875,0.28125zM262.70083,183.82812c-0.27083,0 -0.5,-0.09375 -0.6875,-0.28125c-0.17708,-0.19792 -0.26562,-0.42187 -0.26562,-0.67187v-9.1875c0,-0.28125 0.08854,-0.51562 0.26563,-0.70312c0.1875,-0.1875 0.41667,-0.28125 0.6875,-0.28125c0.27083,0 0.49479,0.09375 0.67188,0.28125c0.1875,0.1875 0.28125,0.42188 0.28125,0.70313v9.1875c0,0.26042 -0.09896,0.48438 -0.29687,0.67188c-0.1875,0.1875 -0.40625,0.28125 -0.65625,0.28125zM262.70083,187.28123c-0.34375,0 -0.64583,-0.125 -0.90625,-0.375c-0.25,-0.25 -0.375,-0.55208 -0.375,-0.90625c0,-0.36458 0.125,-0.67187 0.375,-0.92187c0.26042,-0.26042 0.5625,-0.39062 0.90625,-0.39062c0.36458,0 0.66667,0.13021 0.90625,0.39063c0.25,0.25 0.375,0.55729 0.375,0.92188c0,0.35417 -0.125,0.65625 -0.375,0.90625c-0.25,0.25 -0.55208,0.375 -0.90625,0.375zM268.07381,183.82812c-0.27083,0 -0.5,-0.09375 -0.6875,-0.28125c-0.17708,-0.19792 -0.26562,-0.42187 -0.26562,-0.67187v-9.1875c0,-0.28125 0.08854,-0.51562 0.26563,-0.70312c0.1875,-0.1875 0.41667,-0.28125 0.6875,-0.28125c0.27083,0 0.49479,0.09375 0.67188,0.28125c0.1875,0.1875 0.28125,0.42188 0.28125,0.70313v9.1875c0,0.26042 -0.09896,0.48438 -0.29687,0.67188c-0.1875,0.1875 -0.40625,0.28125 -0.65625,0.28125zM268.07381,187.28123c-0.34375,0 -0.64583,-0.125 -0.90625,-0.375c-0.25,-0.25 -0.375,-0.55208 -0.375,-0.90625c0,-0.36458 0.125,-0.67187 0.375,-0.92187c0.26042,-0.26042 0.5625,-0.39062 0.90625,-0.39062c0.36458,0 0.66667,0.13021 0.90625,0.39063c0.25,0.25 0.375,0.55729 0.375,0.92188c0,0.35417 -0.125,0.65625 -0.375,0.90625c-0.25,0.25 -0.55208,0.375 -0.90625,0.375zM273.4468,183.82812c-0.27083,0 -0.5,-0.09375 -0.6875,-0.28125c-0.17708,-0.19792 -0.26562,-0.42187 -0.26562,-0.67187v-9.1875c0,-0.28125 0.08854,-0.51562 0.26563,-0.70312c0.1875,-0.1875 0.41667,-0.28125 0.6875,-0.28125c0.27083,0 0.49479,0.09375 0.67188,0.28125c0.1875,0.1875 0.28125,0.42188 0.28125,0.70313v9.1875c0,0.26042 -0.09896,0.48438 -0.29687,0.67188c-0.1875,0.1875 -0.40625,0.28125 -0.65625,0.28125zM273.4468,187.28123c-0.34375,0 -0.64583,-0.125 -0.90625,-0.375c-0.25,-0.25 -0.375,-0.55208 -0.375,-0.90625c0,-0.36458 0.125,-0.67187 0.375,-0.92187c0.26042,-0.26042 0.5625,-0.39062 0.90625,-0.39062c0.36458,0 0.66667,0.13021 0.90625,0.39063c0.25,0.25 0.375,0.55729 0.375,0.92188c0,0.35417 -0.125,0.65625 -0.375,0.90625c-0.25,0.25 -0.55208,0.375 -0.90625,0.375z" fill="#a97fff" stroke="#a97fff" stroke-width="0.5"/></g></g></svg>