<svg version="1.1" xmlns="http://www.w3.org/2000/svg" xmlns:xlink="http://www.w3.org/1999/xlink" width="8.00605" height="8.00605" viewBox="0,0,8.00605,8.00605"><g transform="translate(-235.99697,-175.99697)"><g data-paper-data="{&quot;isPaintingLayer&quot;:true}" fill-rule="nonzero" stroke-linecap="butt" stroke-linejoin="miter" stroke-miterlimit="10" stroke-dasharray="" stroke-dashoffset="0" style="mix-blend-mode: normal"><path d="M237.44438,183.08093c-1.70156,-1.41144 -1.93674,-3.935 -0.52531,-5.63655c1.41144,-1.70156 3.935,-1.93674 5.63655,-0.52531c1.70156,1.41144 1.93674,3.935 0.52531,5.63655c-1.41144,1.70156 -3.935,1.93674 -5.63655,0.52531z" fill="#28123b" stroke="none" stroke-width="0"/><path d="M237.53333,180c0,-1.3623 1.10437,-2.46667 2.46667,-2.46667c1.3623,0 2.46667,1.10437 2.46667,2.46667c0,1.3623 -1.10436,2.46667 -2.46667,2.46667c-1.3623,0 -2.46667,-1.10436 -2.46667,-2.46667z" fill="none" stroke="#8b4fff" stroke-width="1.5"/><path d="M237.98347,180.64084c-0.35913,-0.34953 -0.36691,-0.92403 -0.01739,-1.28315c0.34953,-0.35913 0.92403,-0.36691 1.28315,-0.01739c0.35913,0.34953 0.36691,0.92403 0.01739,1.28315c-0.34953,0.35913 -0.92403,0.36691 -1.28315,0.01739z" fill="#8b4fff" stroke="none" stroke-width="NaN"/><path d="M240.75196,180.65973c-0.35913,-0.34953 -0.36691,-0.92403 -0.01739,-1.28315c0.34953,-0.35913 0.92403,-0.36691 1.28315,-0.01739c0.35913,0.34953 0.36691,0.92403 0.01739,1.28315c-0.34953,0.35913 -0.92403,0.36691 -1.28315,0.01739z" fill="#8b4fff" stroke="none" stroke-width="NaN"/><path d="M239.38697,181.95981c-0.35913,-0.34953 -0.36691,-0.92403 -0.01739,-1.28315c0.34953,-0.35913 0.92403,-0.36691 1.28315,-0.01739c0.35913,0.34953 0.36691,0.92403 0.01739,1.28315c-0.34953,0.35913 -0.92403,0.36691 -1.28315,0.01739z" fill="#8b4fff" stroke="none" stroke-width="NaN"/><path d="M239.37669,179.36952c-0.35913,-0.34953 -0.36691,-0.92403 -0.01739,-1.28315c0.34953,-0.35913 0.92403,-0.36691 1.28315,-0.01739c0.35913,0.34953 0.36691,0.92403 0.01739,1.28315c-0.34953,0.35913 -0.92403,0.36691 -1.28315,0.01739z" fill="#8b4fff" stroke="none" stroke-width="NaN"/><path d="M239.37975,180.63729c-0.35196,-0.34255 -0.35959,-0.90557 -0.01704,-1.25753c0.34255,-0.35196 0.90557,-0.35959 1.25753,-0.01704c0.35196,0.34255 0.35959,0.90557 0.01704,1.25753c-0.34255,0.35196 -0.90557,0.35959 -1.25753,0.01704z" fill="#28123b" stroke="none" stroke-width="0"/></g></g></svg>