<svg version="1.1" xmlns="http://www.w3.org/2000/svg" xmlns:xlink="http://www.w3.org/1999/xlink" width="151.82889" height="22.81439" viewBox="0,0,151.82889,22.81439"><defs><linearGradient x1="239.88875" y1="174.07495" x2="239.88875" y2="188.99688" gradientUnits="userSpaceOnUse" id="color-1"><stop offset="0" stop-color="#000000"/><stop offset="1" stop-color="#000000" stop-opacity="0"/></linearGradient><linearGradient x1="239.88875" y1="174.07495" x2="239.88875" y2="188.99688" gradientUnits="userSpaceOnUse" id="color-2"><stop offset="0" stop-color="#000000"/><stop offset="1" stop-color="#000000" stop-opacity="0"/></linearGradient></defs><g transform="translate(-164.08556,-168.59277)"><g data-paper-data="{&quot;isPaintingLayer&quot;:true}" fill-rule="nonzero" stroke-linecap="square" stroke-linejoin="miter" stroke-miterlimit="10" stroke-dasharray="" stroke-dashoffset="0" style="mix-blend-mode: normal"><path d="M167.05431,188.80928c-0.27083,0 -0.5,-0.09375 -0.6875,-0.28125c-0.1875,-0.1875 -0.28125,-0.41667 -0.28125,-0.6875v-12.625c0,-0.29167 0.09375,-0.52604 0.28125,-0.70312c0.1875,-0.1875 0.41667,-0.28125 0.6875,-0.28125h3.73438c0.9375,0 1.76563,0.20833 2.48438,0.625c0.71875,0.40625 1.28125,0.97396 1.6875,1.70313c0.40625,0.72917 0.60938,1.56771 0.60938,2.51563c0,0.90625 -0.20312,1.71354 -0.60937,2.42188c-0.40625,0.70833 -0.96875,1.26042 -1.6875,1.65625c-0.71875,0.39583 -1.54687,0.59375 -2.48437,0.59375h-2.75v4.09375c0,0.27083 -0.09375,0.5 -0.28125,0.6875c-0.17708,0.1875 -0.41146,0.28125 -0.70312,0.28125zM168.03872,181.96553h2.75c0.57292,0 1.07813,-0.125 1.51563,-0.375c0.4375,-0.25 0.78125,-0.59375 1.03125,-1.03125c0.25,-0.4375 0.375,-0.93229 0.375,-1.48437c0,-0.60417 -0.125,-1.13021 -0.375,-1.57812c-0.25,-0.45833 -0.59375,-0.81771 -1.03125,-1.07812c-0.4375,-0.26042 -0.94271,-0.39062 -1.51562,-0.39062h-2.75zM178.66156,188.80928c-0.27083,0 -0.5,-0.09375 -0.6875,-0.28125c-0.17708,-0.1875 -0.26562,-0.41667 -0.26562,-0.6875v-12.625c0,-0.28125 0.09375,-0.51562 0.28125,-0.70312c0.1875,-0.1875 0.41146,-0.28125 0.67188,-0.28125c0.28125,0 0.51042,0.09375 0.6875,0.28125c0.1875,0.1875 0.28125,0.42188 0.28125,0.70313v11.65625h6.76563c0.27083,0 0.5,0.09375 0.6875,0.28125c0.1875,0.1875 0.28125,0.41667 0.28125,0.6875c0,0.27083 -0.09375,0.5 -0.28125,0.6875c-0.1875,0.1875 -0.41667,0.28125 -0.6875,0.28125zM189.10759,188.80928c-0.34375,0 -0.60937,-0.14583 -0.79687,-0.4375c-0.1875,-0.30208 -0.20833,-0.625 -0.0625,-0.96875l5.25,-12.51562c0.1875,-0.4375 0.48958,-0.65625 0.90625,-0.65625c0.44792,0 0.75521,0.21875 0.92188,0.65625l5.26563,12.5625c0.13542,0.34375 0.10938,0.65625 -0.07812,0.9375c-0.17708,0.28125 -0.44271,0.42188 -0.79687,0.42188c-0.1875,0 -0.36979,-0.05208 -0.54687,-0.15625c-0.16667,-0.10417 -0.28646,-0.25 -0.35937,-0.4375l-4.625,-11.5h0.53125l-4.70312,11.5c-0.09375,0.19792 -0.22396,0.34896 -0.39062,0.45313c-0.16667,0.09375 -0.33854,0.14063 -0.51562,0.14063zM190.10759,185.60614l0.73438,-1.60937h7.3125l0.75,1.60938zM205.68277,188.80928c-0.26042,0 -0.48437,-0.09375 -0.67187,-0.28125c-0.1875,-0.1875 -0.28125,-0.41667 -0.28125,-0.6875v-4.34375l-4.98437,-7.75c-0.15625,-0.26042 -0.21875,-0.50521 -0.1875,-0.73437c0.04167,-0.22917 0.15104,-0.41667 0.32813,-0.5625c0.17708,-0.14583 0.38542,-0.21875 0.625,-0.21875c0.20833,0 0.375,0.04688 0.5,0.14063c0.125,0.09375 0.24479,0.22917 0.35938,0.40625l4.73438,7.51563h-0.75l4.82813,-7.59375c0.09375,-0.14583 0.20833,-0.26042 0.34375,-0.34375c0.13542,-0.08333 0.30208,-0.125 0.5,-0.125c0.22917,0 0.41667,0.07813 0.5625,0.23438c0.15625,0.15625 0.24479,0.35417 0.26563,0.59375c0.02083,0.22917 -0.04167,0.45833 -0.1875,0.6875l-5.01562,7.75v4.34375c0,0.27083 -0.09375,0.5 -0.28125,0.6875c-0.1875,0.1875 -0.41667,0.28125 -0.6875,0.28125zM214.7762,188.80928c-0.27083,0 -0.5,-0.09375 -0.6875,-0.28125c-0.1875,-0.1875 -0.28125,-0.41667 -0.28125,-0.6875v-12.625c0,-0.29167 0.09375,-0.52604 0.28125,-0.70312c0.1875,-0.1875 0.41667,-0.28125 0.6875,-0.28125h8.4375c0.29167,0 0.52083,0.08854 0.6875,0.26563c0.17708,0.16667 0.26563,0.38542 0.26563,0.65625c0,0.26042 -0.08854,0.47396 -0.26562,0.64063c-0.16667,0.15625 -0.39583,0.23438 -0.6875,0.23438h-7.45312v4.53125h5.34375c0.29167,0 0.52083,0.08333 0.6875,0.25c0.17708,0.16667 0.26563,0.38542 0.26563,0.65625c0,0.26042 -0.08854,0.47396 -0.26562,0.64063c-0.16667,0.16667 -0.39583,0.25 -0.6875,0.25h-5.34375v4.65625h7.45313c0.29167,0 0.52083,0.08333 0.6875,0.25c0.17708,0.15625 0.26563,0.36458 0.26563,0.625c0,0.28125 -0.08854,0.50521 -0.26562,0.67188c-0.16667,0.16667 -0.39583,0.25 -0.6875,0.25zM227.83556,188.80928c-0.27083,0 -0.5,-0.09375 -0.6875,-0.28125c-0.1875,-0.1875 -0.28125,-0.41667 -0.28125,-0.6875v-12.625c0,-0.29167 0.09375,-0.52604 0.28125,-0.70312c0.1875,-0.1875 0.41667,-0.28125 0.6875,-0.28125h3.35938c0.9375,0 1.76563,0.19792 2.48438,0.59375c0.71875,0.39583 1.28125,0.9375 1.6875,1.625c0.40625,0.67708 0.60938,1.46875 0.60938,2.375c0,0.84375 -0.20312,1.59896 -0.60937,2.26563c-0.40625,0.65625 -0.96875,1.17188 -1.6875,1.54688c-0.71875,0.375 -1.54687,0.5625 -2.48437,0.5625h-2.375v4.64063c0,0.27083 -0.09375,0.5 -0.28125,0.6875c-0.17708,0.1875 -0.41146,0.28125 -0.70312,0.28125zM235.58556,188.80928c-0.17708,0 -0.33854,-0.03646 -0.48437,-0.10937c-0.13542,-0.07292 -0.25521,-0.19271 -0.35937,-0.35937l-3.35937,-5.40625l1.89063,-0.54687l3.0625,4.92188c0.21875,0.36458 0.24479,0.70833 0.07813,1.03125c-0.15625,0.3125 -0.43229,0.46875 -0.82812,0.46875zM228.81994,181.40303h2.375c0.57292,0 1.07813,-0.10937 1.51563,-0.32812c0.4375,-0.21875 0.78125,-0.52083 1.03125,-0.90625c0.25,-0.39583 0.375,-0.84375 0.375,-1.34375c0,-0.54167 -0.125,-1.02604 -0.375,-1.45312c-0.25,-0.42708 -0.59375,-0.75521 -1.03125,-0.98437c-0.4375,-0.23958 -0.94271,-0.35937 -1.51562,-0.35937h-2.375zM244.43637,188.80928c-0.28125,0 -0.51042,-0.09375 -0.6875,-0.28125c-0.17708,-0.1875 -0.26562,-0.41146 -0.26562,-0.67187c0,-0.27083 0.08333,-0.49479 0.25,-0.67187l5.29688,-6.1875c0.375,-0.4375 0.66667,-0.84896 0.875,-1.23437c0.20833,-0.38542 0.3125,-0.75521 0.3125,-1.10937c0,-0.54167 -0.09375,-1.01042 -0.28125,-1.40625c-0.1875,-0.39583 -0.45833,-0.70312 -0.8125,-0.92187c-0.34375,-0.21875 -0.76042,-0.32812 -1.25,-0.32812c-0.46875,0 -0.89583,0.11979 -1.28125,0.35938c-0.375,0.23958 -0.67187,0.5625 -0.89062,0.96875c-0.21875,0.40625 -0.32812,0.84896 -0.32812,1.32813c0,0.25 -0.08854,0.46875 -0.26562,0.65625c-0.17708,0.1875 -0.40104,0.28125 -0.67187,0.28125c-0.27083,0 -0.5,-0.09375 -0.6875,-0.28125c-0.17708,-0.1875 -0.26562,-0.40625 -0.26562,-0.65625c0,-0.84375 0.19271,-1.59375 0.57813,-2.25c0.38542,-0.66667 0.90625,-1.19271 1.5625,-1.57812c0.66667,-0.39583 1.41667,-0.59375 2.25,-0.59375c0.85417,0 1.58854,0.18229 2.20313,0.54688c0.625,0.36458 1.10938,0.875 1.45313,1.53125c0.34375,0.65625 0.51563,1.4375 0.51563,2.34375c0,0.40625 -0.08854,0.8125 -0.26562,1.21875c-0.16667,0.40625 -0.38021,0.79688 -0.64062,1.17188c-0.25,0.375 -0.50521,0.71354 -0.76562,1.01563l-4.26562,4.84375h5.21875c0.28125,0 0.51042,0.09896 0.6875,0.29688c0.1875,0.1875 0.28125,0.40625 0.28125,0.65625c0,0.26042 -0.09375,0.48438 -0.28125,0.67188c-0.17708,0.1875 -0.40625,0.28125 -0.6875,0.28125zM263.66936,188.80928c-0.22917,0 -0.43229,-0.06771 -0.60937,-0.20312c-0.16667,-0.13542 -0.28646,-0.32292 -0.35937,-0.5625l-3.75,-12.46875c-0.125,-0.40625 -0.11979,-0.72917 0.01563,-0.96875c0.14583,-0.25 0.38021,-0.375 0.70313,-0.375c0.20833,0 0.40104,0.0625 0.57813,0.1875c0.17708,0.11458 0.30208,0.29688 0.375,0.54688l3.26563,11.375h-0.40625l3.01563,-11.26562c0.05208,-0.1875 0.16146,-0.34375 0.32813,-0.46875c0.17708,-0.125 0.38021,-0.1875 0.60938,-0.1875c0.19792,0 0.38542,0.05729 0.5625,0.17188c0.1875,0.10417 0.30208,0.26042 0.34375,0.46875l3.04688,11.28125h-0.375l3.28125,-11.46875c0.125,-0.42708 0.44271,-0.64062 0.95313,-0.64062c0.35417,0 0.57813,0.13542 0.67188,0.40625c0.10417,0.27083 0.10417,0.58333 0,0.9375l-3.75,12.45313c-0.08333,0.23958 -0.21354,0.43229 -0.39062,0.57813c-0.16667,0.13542 -0.35937,0.20313 -0.57812,0.20313c-0.23958,0 -0.44271,-0.07292 -0.60937,-0.21875c-0.16667,-0.15625 -0.28646,-0.33854 -0.35937,-0.54687l-3,-11.60937h0.4375l-3.03125,11.59375c-0.09375,0.23958 -0.22396,0.43229 -0.39062,0.57813c-0.16667,0.13542 -0.35937,0.20313 -0.57812,0.20313zM279.02833,188.80928c-0.27083,0 -0.5,-0.09375 -0.6875,-0.28125c-0.1875,-0.1875 -0.28125,-0.41667 -0.28125,-0.6875v-12.625c0,-0.29167 0.09375,-0.52604 0.28125,-0.70312c0.1875,-0.1875 0.41667,-0.28125 0.6875,-0.28125c0.29167,0 0.52604,0.09375 0.70313,0.28125c0.1875,0.17708 0.28125,0.41146 0.28125,0.70313v12.625c0,0.27083 -0.09375,0.5 -0.28125,0.6875c-0.17708,0.1875 -0.41146,0.28125 -0.70312,0.28125zM284.6842,188.80928c-0.27083,0 -0.5,-0.09375 -0.6875,-0.28125c-0.17708,-0.1875 -0.26562,-0.41667 -0.26562,-0.6875v-12.625c0,-0.29167 0.08854,-0.52604 0.26563,-0.70312c0.1875,-0.1875 0.41667,-0.28125 0.6875,-0.28125c0.30208,0 0.55208,0.11979 0.75,0.35938l8.14063,10.82813v-10.20312c0,-0.29167 0.08854,-0.52604 0.26563,-0.70312c0.1875,-0.1875 0.42188,-0.28125 0.70313,-0.28125c0.28125,0 0.51042,0.09375 0.6875,0.28125c0.17708,0.17708 0.26563,0.41146 0.26563,0.70313v12.625c0,0.27083 -0.08854,0.5 -0.26562,0.6875c-0.17708,0.1875 -0.40625,0.28125 -0.6875,0.28125c-0.125,0 -0.26042,-0.02604 -0.40625,-0.07812c-0.14583,-0.0625 -0.26042,-0.14583 -0.34375,-0.25l-8.14062,-10.82812v10.1875c0,0.27083 -0.08854,0.5 -0.26562,0.6875c-0.17708,0.1875 -0.41146,0.28125 -0.70312,0.28125zM303.85639,188.99678c-0.80208,0 -1.5625,-0.125 -2.28125,-0.375c-0.71875,-0.25 -1.34896,-0.59896 -1.89062,-1.04687c-0.53125,-0.44792 -0.92187,-0.96354 -1.17187,-1.54687c-0.125,-0.26042 -0.125,-0.5 0,-0.71875c0.13542,-0.22917 0.35938,-0.375 0.67188,-0.4375c0.22917,-0.05208 0.44792,-0.01562 0.65625,0.10938c0.21875,0.11458 0.38542,0.29167 0.5,0.53125c0.14583,0.3125 0.39063,0.59896 0.73438,0.85938c0.34375,0.26042 0.75521,0.47396 1.23438,0.64063c0.48958,0.15625 1.00521,0.23438 1.54688,0.23438c0.59375,0 1.14063,-0.09375 1.64063,-0.28125c0.51042,-0.1875 0.91667,-0.45833 1.21875,-0.8125c0.3125,-0.35417 0.46875,-0.79167 0.46875,-1.3125c0,-0.66667 -0.26042,-1.26042 -0.78125,-1.78125c-0.51042,-0.52083 -1.35417,-0.84375 -2.53125,-0.96875c-1.54167,-0.14583 -2.75521,-0.59896 -3.64062,-1.35937c-0.88542,-0.76042 -1.32812,-1.69792 -1.32812,-2.8125c0,-0.82292 0.22917,-1.52083 0.6875,-2.09375c0.45833,-0.57292 1.08333,-1.00521 1.875,-1.29687c0.79167,-0.30208 1.67188,-0.45312 2.64063,-0.45312c0.76042,0 1.42188,0.10417 1.98438,0.3125c0.57292,0.20833 1.06771,0.5 1.48438,0.875c0.42708,0.375 0.79688,0.81771 1.10938,1.32813c0.16667,0.27083 0.23438,0.53125 0.20313,0.78125c-0.02083,0.23958 -0.14062,0.42708 -0.35937,0.5625c-0.22917,0.14583 -0.48437,0.17708 -0.76562,0.09375c-0.27083,-0.08333 -0.47396,-0.24479 -0.60937,-0.48437c-0.19792,-0.36458 -0.44271,-0.67187 -0.73437,-0.92187c-0.28125,-0.25 -0.61458,-0.44271 -1,-0.57812c-0.38542,-0.14583 -0.83854,-0.21875 -1.35937,-0.21875c-0.92708,-0.01042 -1.70312,0.16146 -2.32812,0.51563c-0.61458,0.35417 -0.92187,0.89583 -0.92187,1.625c0,0.375 0.09375,0.73438 0.28125,1.07813c0.19792,0.34375 0.55208,0.64063 1.0625,0.89063c0.52083,0.25 1.26563,0.42188 2.23438,0.51563c1.47917,0.14583 2.63021,0.59896 3.45313,1.35938c0.83333,0.75 1.25,1.73958 1.25,2.96875c0,0.70833 -0.14583,1.32292 -0.4375,1.84375c-0.29167,0.52083 -0.68229,0.96354 -1.17187,1.32813c-0.48958,0.35417 -1.05208,0.61979 -1.6875,0.79688c-0.625,0.16667 -1.27083,0.25 -1.9375,0.25zM312.41065,185.35614c-0.27083,0 -0.5,-0.09375 -0.6875,-0.28125c-0.17708,-0.19792 -0.26562,-0.42187 -0.26562,-0.67187v-9.1875c0,-0.28125 0.08854,-0.51562 0.26563,-0.70312c0.1875,-0.1875 0.41667,-0.28125 0.6875,-0.28125c0.27083,0 0.49479,0.09375 0.67188,0.28125c0.1875,0.1875 0.28125,0.42188 0.28125,0.70313v9.1875c0,0.26042 -0.09896,0.48438 -0.29687,0.67188c-0.1875,0.1875 -0.40625,0.28125 -0.65625,0.28125zM312.41065,188.80928c-0.34375,0 -0.64583,-0.125 -0.90625,-0.375c-0.25,-0.25 -0.375,-0.55208 -0.375,-0.90625c0,-0.36458 0.125,-0.67187 0.375,-0.92187c0.26042,-0.26042 0.5625,-0.39062 0.90625,-0.39062c0.36458,0 0.66667,0.13021 0.90625,0.39063c0.25,0.25 0.375,0.55729 0.375,0.92188c0,0.35417 -0.125,0.65625 -0.375,0.90625c-0.25,0.25 -0.55208,0.375 -0.90625,0.375z" fill="url(#color-1)" stroke="url(#color-2)" stroke-width="4"/><path d="M167.27691,185.73746c-0.27083,0 -0.5,-0.09375 -0.6875,-0.28125c-0.1875,-0.1875 -0.28125,-0.41667 -0.28125,-0.6875v-12.625c0,-0.29167 0.09375,-0.52604 0.28125,-0.70312c0.1875,-0.1875 0.41667,-0.28125 0.6875,-0.28125h3.73438c0.9375,0 1.76563,0.20833 2.48438,0.625c0.71875,0.40625 1.28125,0.97396 1.6875,1.70313c0.40625,0.72917 0.60938,1.56771 0.60938,2.51563c0,0.90625 -0.20312,1.71354 -0.60937,2.42188c-0.40625,0.70833 -0.96875,1.26042 -1.6875,1.65625c-0.71875,0.39583 -1.54687,0.59375 -2.48437,0.59375h-2.75v4.09375c0,0.27083 -0.09375,0.5 -0.28125,0.6875c-0.17708,0.1875 -0.41146,0.28125 -0.70312,0.28125zM168.26124,178.89371h2.75c0.57292,0 1.07813,-0.125 1.51563,-0.375c0.4375,-0.25 0.78125,-0.59375 1.03125,-1.03125c0.25,-0.4375 0.375,-0.93229 0.375,-1.48437c0,-0.60417 -0.125,-1.13021 -0.375,-1.57812c-0.25,-0.45833 -0.59375,-0.81771 -1.03125,-1.07812c-0.4375,-0.26042 -0.94271,-0.39062 -1.51562,-0.39062h-2.75zM178.88409,185.73746c-0.27083,0 -0.5,-0.09375 -0.6875,-0.28125c-0.17708,-0.1875 -0.26562,-0.41667 -0.26562,-0.6875v-12.625c0,-0.28125 0.09375,-0.51562 0.28125,-0.70312c0.1875,-0.1875 0.41146,-0.28125 0.67188,-0.28125c0.28125,0 0.51042,0.09375 0.6875,0.28125c0.1875,0.1875 0.28125,0.42188 0.28125,0.70313v11.65625h6.76563c0.27083,0 0.5,0.09375 0.6875,0.28125c0.1875,0.1875 0.28125,0.41667 0.28125,0.6875c0,0.27083 -0.09375,0.5 -0.28125,0.6875c-0.1875,0.1875 -0.41667,0.28125 -0.6875,0.28125zM189.33019,185.73746c-0.34375,0 -0.60937,-0.14583 -0.79687,-0.4375c-0.1875,-0.30208 -0.20833,-0.625 -0.0625,-0.96875l5.25,-12.51562c0.1875,-0.4375 0.48958,-0.65625 0.90625,-0.65625c0.44792,0 0.75521,0.21875 0.92188,0.65625l5.26563,12.5625c0.13542,0.34375 0.10938,0.65625 -0.07812,0.9375c-0.17708,0.28125 -0.44271,0.42188 -0.79687,0.42188c-0.1875,0 -0.36979,-0.05208 -0.54687,-0.15625c-0.16667,-0.10417 -0.28646,-0.25 -0.35937,-0.4375l-4.625,-11.5h0.53125l-4.70312,11.5c-0.09375,0.19792 -0.22396,0.34896 -0.39062,0.45313c-0.16667,0.09375 -0.33854,0.14063 -0.51562,0.14063zM190.33019,182.53432l0.73438,-1.60937h7.3125l0.75,1.60938zM205.90531,185.73746c-0.26042,0 -0.48437,-0.09375 -0.67187,-0.28125c-0.1875,-0.1875 -0.28125,-0.41667 -0.28125,-0.6875v-4.34375l-4.98437,-7.75c-0.15625,-0.26042 -0.21875,-0.50521 -0.1875,-0.73437c0.04167,-0.22917 0.15104,-0.41667 0.32813,-0.5625c0.17708,-0.14583 0.38542,-0.21875 0.625,-0.21875c0.20833,0 0.375,0.04688 0.5,0.14063c0.125,0.09375 0.24479,0.22917 0.35938,0.40625l4.73438,7.51563h-0.75l4.82813,-7.59375c0.09375,-0.14583 0.20833,-0.26042 0.34375,-0.34375c0.13542,-0.08333 0.30208,-0.125 0.5,-0.125c0.22917,0 0.41667,0.07813 0.5625,0.23438c0.15625,0.15625 0.24479,0.35417 0.26563,0.59375c0.02083,0.22917 -0.04167,0.45833 -0.1875,0.6875l-5.01562,7.75v4.34375c0,0.27083 -0.09375,0.5 -0.28125,0.6875c-0.1875,0.1875 -0.41667,0.28125 -0.6875,0.28125zM214.99877,185.73746c-0.27083,0 -0.5,-0.09375 -0.6875,-0.28125c-0.1875,-0.1875 -0.28125,-0.41667 -0.28125,-0.6875v-12.625c0,-0.29167 0.09375,-0.52604 0.28125,-0.70312c0.1875,-0.1875 0.41667,-0.28125 0.6875,-0.28125h8.4375c0.29167,0 0.52083,0.08854 0.6875,0.26563c0.17708,0.16667 0.26563,0.38542 0.26563,0.65625c0,0.26042 -0.08854,0.47396 -0.26562,0.64063c-0.16667,0.15625 -0.39583,0.23438 -0.6875,0.23438h-7.45312v4.53125h5.34375c0.29167,0 0.52083,0.08333 0.6875,0.25c0.17708,0.16667 0.26563,0.38542 0.26563,0.65625c0,0.26042 -0.08854,0.47396 -0.26562,0.64063c-0.16667,0.16667 -0.39583,0.25 -0.6875,0.25h-5.34375v4.65625h7.45313c0.29167,0 0.52083,0.08333 0.6875,0.25c0.17708,0.15625 0.26563,0.36458 0.26563,0.625c0,0.28125 -0.08854,0.50521 -0.26562,0.67188c-0.16667,0.16667 -0.39583,0.25 -0.6875,0.25zM228.05813,185.73746c-0.27083,0 -0.5,-0.09375 -0.6875,-0.28125c-0.1875,-0.1875 -0.28125,-0.41667 -0.28125,-0.6875v-12.625c0,-0.29167 0.09375,-0.52604 0.28125,-0.70312c0.1875,-0.1875 0.41667,-0.28125 0.6875,-0.28125h3.35938c0.9375,0 1.76563,0.19792 2.48438,0.59375c0.71875,0.39583 1.28125,0.9375 1.6875,1.625c0.40625,0.67708 0.60938,1.46875 0.60938,2.375c0,0.84375 -0.20312,1.59896 -0.60937,2.26563c-0.40625,0.65625 -0.96875,1.17188 -1.6875,1.54688c-0.71875,0.375 -1.54687,0.5625 -2.48437,0.5625h-2.375v4.64063c0,0.27083 -0.09375,0.5 -0.28125,0.6875c-0.17708,0.1875 -0.41146,0.28125 -0.70312,0.28125zM235.80813,185.73746c-0.17708,0 -0.33854,-0.03646 -0.48437,-0.10937c-0.13542,-0.07292 -0.25521,-0.19271 -0.35937,-0.35937l-3.35937,-5.40625l1.89063,-0.54687l3.0625,4.92188c0.21875,0.36458 0.24479,0.70833 0.07813,1.03125c-0.15625,0.3125 -0.43229,0.46875 -0.82812,0.46875zM229.04249,178.33121h2.375c0.57292,0 1.07813,-0.10937 1.51563,-0.32812c0.4375,-0.21875 0.78125,-0.52083 1.03125,-0.90625c0.25,-0.39583 0.375,-0.84375 0.375,-1.34375c0,-0.54167 -0.125,-1.02604 -0.375,-1.45312c-0.25,-0.42708 -0.59375,-0.75521 -1.03125,-0.98437c-0.4375,-0.23958 -0.94271,-0.35937 -1.51562,-0.35937h-2.375zM244.6589,185.73746c-0.28125,0 -0.51042,-0.09375 -0.6875,-0.28125c-0.17708,-0.1875 -0.26562,-0.41146 -0.26562,-0.67187c0,-0.27083 0.08333,-0.49479 0.25,-0.67187l5.29688,-6.1875c0.375,-0.4375 0.66667,-0.84896 0.875,-1.23437c0.20833,-0.38542 0.3125,-0.75521 0.3125,-1.10937c0,-0.54167 -0.09375,-1.01042 -0.28125,-1.40625c-0.1875,-0.39583 -0.45833,-0.70312 -0.8125,-0.92187c-0.34375,-0.21875 -0.76042,-0.32812 -1.25,-0.32812c-0.46875,0 -0.89583,0.11979 -1.28125,0.35938c-0.375,0.23958 -0.67187,0.5625 -0.89062,0.96875c-0.21875,0.40625 -0.32812,0.84896 -0.32812,1.32813c0,0.25 -0.08854,0.46875 -0.26562,0.65625c-0.17708,0.1875 -0.40104,0.28125 -0.67187,0.28125c-0.27083,0 -0.5,-0.09375 -0.6875,-0.28125c-0.17708,-0.1875 -0.26562,-0.40625 -0.26562,-0.65625c0,-0.84375 0.19271,-1.59375 0.57813,-2.25c0.38542,-0.66667 0.90625,-1.19271 1.5625,-1.57812c0.66667,-0.39583 1.41667,-0.59375 2.25,-0.59375c0.85417,0 1.58854,0.18229 2.20313,0.54688c0.625,0.36458 1.10938,0.875 1.45313,1.53125c0.34375,0.65625 0.51563,1.4375 0.51563,2.34375c0,0.40625 -0.08854,0.8125 -0.26562,1.21875c-0.16667,0.40625 -0.38021,0.79688 -0.64062,1.17188c-0.25,0.375 -0.50521,0.71354 -0.76562,1.01563l-4.26562,4.84375h5.21875c0.28125,0 0.51042,0.09896 0.6875,0.29688c0.1875,0.1875 0.28125,0.40625 0.28125,0.65625c0,0.26042 -0.09375,0.48438 -0.28125,0.67188c-0.17708,0.1875 -0.40625,0.28125 -0.6875,0.28125zM263.89194,185.73746c-0.22917,0 -0.43229,-0.06771 -0.60937,-0.20312c-0.16667,-0.13542 -0.28646,-0.32292 -0.35937,-0.5625l-3.75,-12.46875c-0.125,-0.40625 -0.11979,-0.72917 0.01563,-0.96875c0.14583,-0.25 0.38021,-0.375 0.70313,-0.375c0.20833,0 0.40104,0.0625 0.57813,0.1875c0.17708,0.11458 0.30208,0.29688 0.375,0.54688l3.26563,11.375h-0.40625l3.01563,-11.26562c0.05208,-0.1875 0.16146,-0.34375 0.32813,-0.46875c0.17708,-0.125 0.38021,-0.1875 0.60938,-0.1875c0.19792,0 0.38542,0.05729 0.5625,0.17188c0.1875,0.10417 0.30208,0.26042 0.34375,0.46875l3.04688,11.28125h-0.375l3.28125,-11.46875c0.125,-0.42708 0.44271,-0.64062 0.95313,-0.64062c0.35417,0 0.57813,0.13542 0.67188,0.40625c0.10417,0.27083 0.10417,0.58333 0,0.9375l-3.75,12.45313c-0.08333,0.23958 -0.21354,0.43229 -0.39062,0.57813c-0.16667,0.13542 -0.35937,0.20313 -0.57812,0.20313c-0.23958,0 -0.44271,-0.07292 -0.60937,-0.21875c-0.16667,-0.15625 -0.28646,-0.33854 -0.35937,-0.54687l-3,-11.60937h0.4375l-3.03125,11.59375c-0.09375,0.23958 -0.22396,0.43229 -0.39062,0.57813c-0.16667,0.13542 -0.35937,0.20313 -0.57812,0.20313zM279.25091,185.73746c-0.27083,0 -0.5,-0.09375 -0.6875,-0.28125c-0.1875,-0.1875 -0.28125,-0.41667 -0.28125,-0.6875v-12.625c0,-0.29167 0.09375,-0.52604 0.28125,-0.70312c0.1875,-0.1875 0.41667,-0.28125 0.6875,-0.28125c0.29167,0 0.52604,0.09375 0.70313,0.28125c0.1875,0.17708 0.28125,0.41146 0.28125,0.70313v12.625c0,0.27083 -0.09375,0.5 -0.28125,0.6875c-0.17708,0.1875 -0.41146,0.28125 -0.70312,0.28125zM284.90679,185.73746c-0.27083,0 -0.5,-0.09375 -0.6875,-0.28125c-0.17708,-0.1875 -0.26562,-0.41667 -0.26562,-0.6875v-12.625c0,-0.29167 0.08854,-0.52604 0.26563,-0.70312c0.1875,-0.1875 0.41667,-0.28125 0.6875,-0.28125c0.30208,0 0.55208,0.11979 0.75,0.35938l8.14063,10.82813v-10.20312c0,-0.29167 0.08854,-0.52604 0.26563,-0.70312c0.1875,-0.1875 0.42188,-0.28125 0.70313,-0.28125c0.28125,0 0.51042,0.09375 0.6875,0.28125c0.17708,0.17708 0.26563,0.41146 0.26563,0.70313v12.625c0,0.27083 -0.08854,0.5 -0.26562,0.6875c-0.17708,0.1875 -0.40625,0.28125 -0.6875,0.28125c-0.125,0 -0.26042,-0.02604 -0.40625,-0.07812c-0.14583,-0.0625 -0.26042,-0.14583 -0.34375,-0.25l-8.14062,-10.82812v10.1875c0,0.27083 -0.08854,0.5 -0.26562,0.6875c-0.17708,0.1875 -0.41146,0.28125 -0.70312,0.28125zM304.07894,185.92496c-0.80208,0 -1.5625,-0.125 -2.28125,-0.375c-0.71875,-0.25 -1.34896,-0.59896 -1.89062,-1.04687c-0.53125,-0.44792 -0.92187,-0.96354 -1.17187,-1.54687c-0.125,-0.26042 -0.125,-0.5 0,-0.71875c0.13542,-0.22917 0.35938,-0.375 0.67188,-0.4375c0.22917,-0.05208 0.44792,-0.01562 0.65625,0.10938c0.21875,0.11458 0.38542,0.29167 0.5,0.53125c0.14583,0.3125 0.39063,0.59896 0.73438,0.85938c0.34375,0.26042 0.75521,0.47396 1.23438,0.64063c0.48958,0.15625 1.00521,0.23438 1.54688,0.23438c0.59375,0 1.14063,-0.09375 1.64063,-0.28125c0.51042,-0.1875 0.91667,-0.45833 1.21875,-0.8125c0.3125,-0.35417 0.46875,-0.79167 0.46875,-1.3125c0,-0.66667 -0.26042,-1.26042 -0.78125,-1.78125c-0.51042,-0.52083 -1.35417,-0.84375 -2.53125,-0.96875c-1.54167,-0.14583 -2.75521,-0.59896 -3.64062,-1.35937c-0.88542,-0.76042 -1.32812,-1.69792 -1.32812,-2.8125c0,-0.82292 0.22917,-1.52083 0.6875,-2.09375c0.45833,-0.57292 1.08333,-1.00521 1.875,-1.29687c0.79167,-0.30208 1.67188,-0.45312 2.64063,-0.45312c0.76042,0 1.42188,0.10417 1.98438,0.3125c0.57292,0.20833 1.06771,0.5 1.48438,0.875c0.42708,0.375 0.79688,0.81771 1.10938,1.32813c0.16667,0.27083 0.23438,0.53125 0.20313,0.78125c-0.02083,0.23958 -0.14062,0.42708 -0.35937,0.5625c-0.22917,0.14583 -0.48437,0.17708 -0.76562,0.09375c-0.27083,-0.08333 -0.47396,-0.24479 -0.60937,-0.48437c-0.19792,-0.36458 -0.44271,-0.67187 -0.73437,-0.92187c-0.28125,-0.25 -0.61458,-0.44271 -1,-0.57812c-0.38542,-0.14583 -0.83854,-0.21875 -1.35937,-0.21875c-0.92708,-0.01042 -1.70312,0.16146 -2.32812,0.51563c-0.61458,0.35417 -0.92187,0.89583 -0.92187,1.625c0,0.375 0.09375,0.73438 0.28125,1.07813c0.19792,0.34375 0.55208,0.64063 1.0625,0.89063c0.52083,0.25 1.26563,0.42188 2.23438,0.51563c1.47917,0.14583 2.63021,0.59896 3.45313,1.35938c0.83333,0.75 1.25,1.73958 1.25,2.96875c0,0.70833 -0.14583,1.32292 -0.4375,1.84375c-0.29167,0.52083 -0.68229,0.96354 -1.17187,1.32813c-0.48958,0.35417 -1.05208,0.61979 -1.6875,0.79688c-0.625,0.16667 -1.27083,0.25 -1.9375,0.25zM312.6332,182.28432c-0.27083,0 -0.5,-0.09375 -0.6875,-0.28125c-0.17708,-0.19792 -0.26562,-0.42187 -0.26562,-0.67187v-9.1875c0,-0.28125 0.08854,-0.51562 0.26563,-0.70312c0.1875,-0.1875 0.41667,-0.28125 0.6875,-0.28125c0.27083,0 0.49479,0.09375 0.67188,0.28125c0.1875,0.1875 0.28125,0.42188 0.28125,0.70313v9.1875c0,0.26042 -0.09896,0.48438 -0.29687,0.67188c-0.1875,0.1875 -0.40625,0.28125 -0.65625,0.28125zM312.6332,185.73746c-0.34375,0 -0.64583,-0.125 -0.90625,-0.375c-0.25,-0.25 -0.375,-0.55208 -0.375,-0.90625c0,-0.36458 0.125,-0.67187 0.375,-0.92187c0.26042,-0.26042 0.5625,-0.39062 0.90625,-0.39062c0.36458,0 0.66667,0.13021 0.90625,0.39063c0.25,0.25 0.375,0.55729 0.375,0.92188c0,0.35417 -0.125,0.65625 -0.375,0.90625c-0.25,0.25 -0.55208,0.375 -0.90625,0.375z" fill="#9966ff" stroke="#28123b" stroke-width="4"/><path d="M167.27691,185.73746c-0.27083,0 -0.5,-0.09375 -0.6875,-0.28125c-0.1875,-0.1875 -0.28125,-0.41667 -0.28125,-0.6875v-12.625c0,-0.29167 0.09375,-0.52604 0.28125,-0.70312c0.1875,-0.1875 0.41667,-0.28125 0.6875,-0.28125h3.73438c0.9375,0 1.76563,0.20833 2.48438,0.625c0.71875,0.40625 1.28125,0.97396 1.6875,1.70313c0.40625,0.72917 0.60938,1.56771 0.60938,2.51563c0,0.90625 -0.20312,1.71354 -0.60937,2.42188c-0.40625,0.70833 -0.96875,1.26042 -1.6875,1.65625c-0.71875,0.39583 -1.54687,0.59375 -2.48437,0.59375h-2.75v4.09375c0,0.27083 -0.09375,0.5 -0.28125,0.6875c-0.17708,0.1875 -0.41146,0.28125 -0.70312,0.28125zM168.26125,178.89371h2.75c0.57292,0 1.07813,-0.125 1.51563,-0.375c0.4375,-0.25 0.78125,-0.59375 1.03125,-1.03125c0.25,-0.4375 0.375,-0.93229 0.375,-1.48437c0,-0.60417 -0.125,-1.13021 -0.375,-1.57812c-0.25,-0.45833 -0.59375,-0.81771 -1.03125,-1.07812c-0.4375,-0.26042 -0.94271,-0.39062 -1.51562,-0.39062h-2.75zM178.88409,185.73746c-0.27083,0 -0.5,-0.09375 -0.6875,-0.28125c-0.17708,-0.1875 -0.26562,-0.41667 -0.26562,-0.6875v-12.625c0,-0.28125 0.09375,-0.51562 0.28125,-0.70312c0.1875,-0.1875 0.41146,-0.28125 0.67188,-0.28125c0.28125,0 0.51042,0.09375 0.6875,0.28125c0.1875,0.1875 0.28125,0.42188 0.28125,0.70313v11.65625h6.76563c0.27083,0 0.5,0.09375 0.6875,0.28125c0.1875,0.1875 0.28125,0.41667 0.28125,0.6875c0,0.27083 -0.09375,0.5 -0.28125,0.6875c-0.1875,0.1875 -0.41667,0.28125 -0.6875,0.28125zM189.33019,185.73746c-0.34375,0 -0.60937,-0.14583 -0.79687,-0.4375c-0.1875,-0.30208 -0.20833,-0.625 -0.0625,-0.96875l5.25,-12.51562c0.1875,-0.4375 0.48958,-0.65625 0.90625,-0.65625c0.44792,0 0.75521,0.21875 0.92188,0.65625l5.26563,12.5625c0.13542,0.34375 0.10938,0.65625 -0.07812,0.9375c-0.17708,0.28125 -0.44271,0.42188 -0.79687,0.42188c-0.1875,0 -0.36979,-0.05208 -0.54687,-0.15625c-0.16667,-0.10417 -0.28646,-0.25 -0.35937,-0.4375l-4.625,-11.5h0.53125l-4.70312,11.5c-0.09375,0.19792 -0.22396,0.34896 -0.39062,0.45313c-0.16667,0.09375 -0.33854,0.14063 -0.51562,0.14063zM190.33019,182.53432l0.73438,-1.60937h7.3125l0.75,1.60938zM205.90531,185.73746c-0.26042,0 -0.48437,-0.09375 -0.67187,-0.28125c-0.1875,-0.1875 -0.28125,-0.41667 -0.28125,-0.6875v-4.34375l-4.98437,-7.75c-0.15625,-0.26042 -0.21875,-0.50521 -0.1875,-0.73437c0.04167,-0.22917 0.15104,-0.41667 0.32813,-0.5625c0.17708,-0.14583 0.38542,-0.21875 0.625,-0.21875c0.20833,0 0.375,0.04688 0.5,0.14063c0.125,0.09375 0.24479,0.22917 0.35938,0.40625l4.73438,7.51563h-0.75l4.82813,-7.59375c0.09375,-0.14583 0.20833,-0.26042 0.34375,-0.34375c0.13542,-0.08333 0.30208,-0.125 0.5,-0.125c0.22917,0 0.41667,0.07813 0.5625,0.23438c0.15625,0.15625 0.24479,0.35417 0.26563,0.59375c0.02083,0.22917 -0.04167,0.45833 -0.1875,0.6875l-5.01562,7.75v4.34375c0,0.27083 -0.09375,0.5 -0.28125,0.6875c-0.1875,0.1875 -0.41667,0.28125 -0.6875,0.28125zM214.99877,185.73746c-0.27083,0 -0.5,-0.09375 -0.6875,-0.28125c-0.1875,-0.1875 -0.28125,-0.41667 -0.28125,-0.6875v-12.625c0,-0.29167 0.09375,-0.52604 0.28125,-0.70312c0.1875,-0.1875 0.41667,-0.28125 0.6875,-0.28125h8.4375c0.29167,0 0.52083,0.08854 0.6875,0.26563c0.17708,0.16667 0.26563,0.38542 0.26563,0.65625c0,0.26042 -0.08854,0.47396 -0.26562,0.64063c-0.16667,0.15625 -0.39583,0.23438 -0.6875,0.23438h-7.45312v4.53125h5.34375c0.29167,0 0.52083,0.08333 0.6875,0.25c0.17708,0.16667 0.26563,0.38542 0.26563,0.65625c0,0.26042 -0.08854,0.47396 -0.26562,0.64063c-0.16667,0.16667 -0.39583,0.25 -0.6875,0.25h-5.34375v4.65625h7.45313c0.29167,0 0.52083,0.08333 0.6875,0.25c0.17708,0.15625 0.26563,0.36458 0.26563,0.625c0,0.28125 -0.08854,0.50521 -0.26562,0.67188c-0.16667,0.16667 -0.39583,0.25 -0.6875,0.25zM228.05813,185.73746c-0.27083,0 -0.5,-0.09375 -0.6875,-0.28125c-0.1875,-0.1875 -0.28125,-0.41667 -0.28125,-0.6875v-12.625c0,-0.29167 0.09375,-0.52604 0.28125,-0.70312c0.1875,-0.1875 0.41667,-0.28125 0.6875,-0.28125h3.35938c0.9375,0 1.76563,0.19792 2.48438,0.59375c0.71875,0.39583 1.28125,0.9375 1.6875,1.625c0.40625,0.67708 0.60938,1.46875 0.60938,2.375c0,0.84375 -0.20312,1.59896 -0.60937,2.26563c-0.40625,0.65625 -0.96875,1.17188 -1.6875,1.54688c-0.71875,0.375 -1.54687,0.5625 -2.48437,0.5625h-2.375v4.64063c0,0.27083 -0.09375,0.5 -0.28125,0.6875c-0.17708,0.1875 -0.41146,0.28125 -0.70312,0.28125zM235.80813,185.73746c-0.17708,0 -0.33854,-0.03646 -0.48437,-0.10937c-0.13542,-0.07292 -0.25521,-0.19271 -0.35937,-0.35937l-3.35937,-5.40625l1.89063,-0.54687l3.0625,4.92188c0.21875,0.36458 0.24479,0.70833 0.07813,1.03125c-0.15625,0.3125 -0.43229,0.46875 -0.82812,0.46875zM229.04249,178.33121h2.375c0.57292,0 1.07813,-0.10937 1.51563,-0.32812c0.4375,-0.21875 0.78125,-0.52083 1.03125,-0.90625c0.25,-0.39583 0.375,-0.84375 0.375,-1.34375c0,-0.54167 -0.125,-1.02604 -0.375,-1.45312c-0.25,-0.42708 -0.59375,-0.75521 -1.03125,-0.98437c-0.4375,-0.23958 -0.94271,-0.35937 -1.51562,-0.35937h-2.375zM244.6589,185.73746c-0.28125,0 -0.51042,-0.09375 -0.6875,-0.28125c-0.17708,-0.1875 -0.26562,-0.41146 -0.26562,-0.67187c0,-0.27083 0.08333,-0.49479 0.25,-0.67187l5.29688,-6.1875c0.375,-0.4375 0.66667,-0.84896 0.875,-1.23437c0.20833,-0.38542 0.3125,-0.75521 0.3125,-1.10937c0,-0.54167 -0.09375,-1.01042 -0.28125,-1.40625c-0.1875,-0.39583 -0.45833,-0.70312 -0.8125,-0.92187c-0.34375,-0.21875 -0.76042,-0.32812 -1.25,-0.32812c-0.46875,0 -0.89583,0.11979 -1.28125,0.35938c-0.375,0.23958 -0.67187,0.5625 -0.89062,0.96875c-0.21875,0.40625 -0.32812,0.84896 -0.32812,1.32813c0,0.25 -0.08854,0.46875 -0.26562,0.65625c-0.17708,0.1875 -0.40104,0.28125 -0.67187,0.28125c-0.27083,0 -0.5,-0.09375 -0.6875,-0.28125c-0.17708,-0.1875 -0.26562,-0.40625 -0.26562,-0.65625c0,-0.84375 0.19271,-1.59375 0.57813,-2.25c0.38542,-0.66667 0.90625,-1.19271 1.5625,-1.57812c0.66667,-0.39583 1.41667,-0.59375 2.25,-0.59375c0.85417,0 1.58854,0.18229 2.20313,0.54688c0.625,0.36458 1.10938,0.875 1.45313,1.53125c0.34375,0.65625 0.51563,1.4375 0.51563,2.34375c0,0.40625 -0.08854,0.8125 -0.26562,1.21875c-0.16667,0.40625 -0.38021,0.79688 -0.64062,1.17188c-0.25,0.375 -0.50521,0.71354 -0.76562,1.01563l-4.26562,4.84375h5.21875c0.28125,0 0.51042,0.09896 0.6875,0.29688c0.1875,0.1875 0.28125,0.40625 0.28125,0.65625c0,0.26042 -0.09375,0.48438 -0.28125,0.67188c-0.17708,0.1875 -0.40625,0.28125 -0.6875,0.28125zM263.89194,185.73746c-0.22917,0 -0.43229,-0.06771 -0.60937,-0.20312c-0.16667,-0.13542 -0.28646,-0.32292 -0.35937,-0.5625l-3.75,-12.46875c-0.125,-0.40625 -0.11979,-0.72917 0.01563,-0.96875c0.14583,-0.25 0.38021,-0.375 0.70313,-0.375c0.20833,0 0.40104,0.0625 0.57813,0.1875c0.17708,0.11458 0.30208,0.29688 0.375,0.54688l3.26563,11.375h-0.40625l3.01563,-11.26562c0.05208,-0.1875 0.16146,-0.34375 0.32813,-0.46875c0.17708,-0.125 0.38021,-0.1875 0.60938,-0.1875c0.19792,0 0.38542,0.05729 0.5625,0.17188c0.1875,0.10417 0.30208,0.26042 0.34375,0.46875l3.04688,11.28125h-0.375l3.28125,-11.46875c0.125,-0.42708 0.44271,-0.64062 0.95313,-0.64062c0.35417,0 0.57813,0.13542 0.67188,0.40625c0.10417,0.27083 0.10417,0.58333 0,0.9375l-3.75,12.45313c-0.08333,0.23958 -0.21354,0.43229 -0.39062,0.57813c-0.16667,0.13542 -0.35937,0.20313 -0.57812,0.20313c-0.23958,0 -0.44271,-0.07292 -0.60937,-0.21875c-0.16667,-0.15625 -0.28646,-0.33854 -0.35937,-0.54687l-3,-11.60937h0.4375l-3.03125,11.59375c-0.09375,0.23958 -0.22396,0.43229 -0.39062,0.57813c-0.16667,0.13542 -0.35937,0.20313 -0.57812,0.20313zM279.25091,185.73746c-0.27083,0 -0.5,-0.09375 -0.6875,-0.28125c-0.1875,-0.1875 -0.28125,-0.41667 -0.28125,-0.6875v-12.625c0,-0.29167 0.09375,-0.52604 0.28125,-0.70312c0.1875,-0.1875 0.41667,-0.28125 0.6875,-0.28125c0.29167,0 0.52604,0.09375 0.70313,0.28125c0.1875,0.17708 0.28125,0.41146 0.28125,0.70313v12.625c0,0.27083 -0.09375,0.5 -0.28125,0.6875c-0.17708,0.1875 -0.41146,0.28125 -0.70312,0.28125zM284.90679,185.73746c-0.27083,0 -0.5,-0.09375 -0.6875,-0.28125c-0.17708,-0.1875 -0.26562,-0.41667 -0.26562,-0.6875v-12.625c0,-0.29167 0.08854,-0.52604 0.26563,-0.70312c0.1875,-0.1875 0.41667,-0.28125 0.6875,-0.28125c0.30208,0 0.55208,0.11979 0.75,0.35938l8.14063,10.82813v-10.20312c0,-0.29167 0.08854,-0.52604 0.26563,-0.70312c0.1875,-0.1875 0.42188,-0.28125 0.70313,-0.28125c0.28125,0 0.51042,0.09375 0.6875,0.28125c0.17708,0.17708 0.26563,0.41146 0.26563,0.70313v12.625c0,0.27083 -0.08854,0.5 -0.26562,0.6875c-0.17708,0.1875 -0.40625,0.28125 -0.6875,0.28125c-0.125,0 -0.26042,-0.02604 -0.40625,-0.07812c-0.14583,-0.0625 -0.26042,-0.14583 -0.34375,-0.25l-8.14062,-10.82812v10.1875c0,0.27083 -0.08854,0.5 -0.26562,0.6875c-0.17708,0.1875 -0.41146,0.28125 -0.70312,0.28125zM304.07894,185.92496c-0.80208,0 -1.5625,-0.125 -2.28125,-0.375c-0.71875,-0.25 -1.34896,-0.59896 -1.89062,-1.04687c-0.53125,-0.44792 -0.92187,-0.96354 -1.17187,-1.54687c-0.125,-0.26042 -0.125,-0.5 0,-0.71875c0.13542,-0.22917 0.35938,-0.375 0.67188,-0.4375c0.22917,-0.05208 0.44792,-0.01562 0.65625,0.10938c0.21875,0.11458 0.38542,0.29167 0.5,0.53125c0.14583,0.3125 0.39063,0.59896 0.73438,0.85938c0.34375,0.26042 0.75521,0.47396 1.23438,0.64063c0.48958,0.15625 1.00521,0.23438 1.54688,0.23438c0.59375,0 1.14063,-0.09375 1.64063,-0.28125c0.51042,-0.1875 0.91667,-0.45833 1.21875,-0.8125c0.3125,-0.35417 0.46875,-0.79167 0.46875,-1.3125c0,-0.66667 -0.26042,-1.26042 -0.78125,-1.78125c-0.51042,-0.52083 -1.35417,-0.84375 -2.53125,-0.96875c-1.54167,-0.14583 -2.75521,-0.59896 -3.64062,-1.35937c-0.88542,-0.76042 -1.32812,-1.69792 -1.32812,-2.8125c0,-0.82292 0.22917,-1.52083 0.6875,-2.09375c0.45833,-0.57292 1.08333,-1.00521 1.875,-1.29687c0.79167,-0.30208 1.67188,-0.45312 2.64063,-0.45312c0.76042,0 1.42188,0.10417 1.98438,0.3125c0.57292,0.20833 1.06771,0.5 1.48438,0.875c0.42708,0.375 0.79688,0.81771 1.10938,1.32813c0.16667,0.27083 0.23438,0.53125 0.20313,0.78125c-0.02083,0.23958 -0.14062,0.42708 -0.35937,0.5625c-0.22917,0.14583 -0.48437,0.17708 -0.76562,0.09375c-0.27083,-0.08333 -0.47396,-0.24479 -0.60937,-0.48437c-0.19792,-0.36458 -0.44271,-0.67187 -0.73437,-0.92187c-0.28125,-0.25 -0.61458,-0.44271 -1,-0.57812c-0.38542,-0.14583 -0.83854,-0.21875 -1.35937,-0.21875c-0.92708,-0.01042 -1.70312,0.16146 -2.32812,0.51563c-0.61458,0.35417 -0.92187,0.89583 -0.92187,1.625c0,0.375 0.09375,0.73438 0.28125,1.07813c0.19792,0.34375 0.55208,0.64063 1.0625,0.89063c0.52083,0.25 1.26563,0.42188 2.23438,0.51563c1.47917,0.14583 2.63021,0.59896 3.45313,1.35938c0.83333,0.75 1.25,1.73958 1.25,2.96875c0,0.70833 -0.14583,1.32292 -0.4375,1.84375c-0.29167,0.52083 -0.68229,0.96354 -1.17187,1.32813c-0.48958,0.35417 -1.05208,0.61979 -1.6875,0.79688c-0.625,0.16667 -1.27083,0.25 -1.9375,0.25zM312.6332,182.28432c-0.27083,0 -0.5,-0.09375 -0.6875,-0.28125c-0.17708,-0.19792 -0.26562,-0.42187 -0.26562,-0.67187v-9.1875c0,-0.28125 0.08854,-0.51562 0.26563,-0.70312c0.1875,-0.1875 0.41667,-0.28125 0.6875,-0.28125c0.27083,0 0.49479,0.09375 0.67188,0.28125c0.1875,0.1875 0.28125,0.42188 0.28125,0.70313v9.1875c0,0.26042 -0.09896,0.48438 -0.29687,0.67188c-0.1875,0.1875 -0.40625,0.28125 -0.65625,0.28125zM312.6332,185.73746c-0.34375,0 -0.64583,-0.125 -0.90625,-0.375c-0.25,-0.25 -0.375,-0.55208 -0.375,-0.90625c0,-0.36458 0.125,-0.67187 0.375,-0.92187c0.26042,-0.26042 0.5625,-0.39062 0.90625,-0.39062c0.36458,0 0.66667,0.13021 0.90625,0.39063c0.25,0.25 0.375,0.55729 0.375,0.92188c0,0.35417 -0.125,0.65625 -0.375,0.90625c-0.25,0.25 -0.55208,0.375 -0.90625,0.375z" fill="#ab81ff" stroke="#ab81ff" stroke-width="0.5"/></g></g></svg>