<svg version="1.1" xmlns="http://www.w3.org/2000/svg" xmlns:xlink="http://www.w3.org/1999/xlink" width="8.75023" height="4.51947" viewBox="0,0,8.75023,4.51947"><g transform="translate(-235.62488,-177.74027)"><g data-paper-data="{&quot;isPaintingLayer&quot;:true}" fill-rule="nonzero" stroke-linecap="butt" stroke-linejoin="miter" stroke-miterlimit="10" stroke-dasharray="" stroke-dashoffset="0" style="mix-blend-mode: normal"><path d="M237.20682,181.7392c-1.85972,-0.79676 -2.11676,-2.22133 -0.57413,-3.18187c1.54263,-0.96054 4.30077,-1.0933 6.16049,-0.29653c1.85972,0.79676 2.11676,2.22133 0.57413,3.18187c-1.54263,0.96054 -4.30077,1.0933 -6.16049,0.29653z" fill="#28123b" stroke="none" stroke-width="0"/><g><path d="M238.74823,180.78035c-0.83443,-0.3575 -0.94977,-0.99669 -0.2576,-1.42767c0.69215,-0.43098 1.92971,-0.49055 2.76414,-0.13305c0.83443,0.3575 0.94978,0.99669 0.2576,1.42767c-0.69215,0.43098 -1.92971,0.49056 -2.76414,0.13305z" fill="none" stroke="#28123b" stroke-width="0.5"/><path d="M237.41361,179.61387c0,-0.34567 0.53444,-0.62589 1.19372,-0.62589c0.65928,0 1.19372,0.28022 1.19372,0.62589c0,0.34567 -0.53444,0.62589 -1.19372,0.62589c-0.65928,0 -1.19372,-0.28022 -1.19372,-0.62589z" fill="#8b4fff" stroke="none" stroke-width="0"/><path d="M239.43931,180.57607v-0.31762h1.15755v0.31762z" fill="#8b4fff" stroke="none" stroke-width="0"/><path d="M237.26891,180.00623c0,-0.37662 0.59113,-0.68195 1.32033,-0.68195c0.72919,0 1.32033,0.30532 1.32033,0.68195c0,0.37662 -0.59113,0.68195 -1.32033,0.68195c-0.72919,0 -1.32033,-0.30532 -1.32033,-0.68195z" fill="#8b4fff" stroke="#28123b" stroke-width="0.5"/><path d="M240.19895,179.63256c0,-0.34567 0.53444,-0.62589 1.19372,-0.62589c0.65928,0 1.19372,0.28022 1.19372,0.62589c0,0.34567 -0.53444,0.62589 -1.19372,0.62589c-0.65928,0 -1.19372,-0.28022 -1.19372,-0.62589z" fill="#8b4fff" stroke="none" stroke-width="0"/><path d="M240.09042,180.00623c0,-0.37662 0.59113,-0.68195 1.32033,-0.68195c0.72919,0 1.32033,0.30532 1.32033,0.68195c0,0.37662 -0.59114,0.68195 -1.32033,0.68195c-0.72919,0 -1.32033,-0.30532 -1.32033,-0.68195z" fill="#8b4fff" stroke="#28123b" stroke-width="0.5"/><path d="M238.28176,180.00623c0,-0.12898 0.20244,-0.23354 0.45216,-0.23354c0.24972,0 0.45216,0.10456 0.45216,0.23354c0,0.12898 -0.20244,0.23354 -0.45216,0.23354c-0.24972,0 -0.45216,-0.10456 -0.45216,-0.23354z" fill="#28123b" stroke="none" stroke-width="0"/><path d="M240.74155,180.00623c0,-0.12898 0.20244,-0.23354 0.45216,-0.23354c0.24972,0 0.45216,0.10456 0.45216,0.23354c0,0.12898 -0.20245,0.23354 -0.45216,0.23354c-0.24972,0 -0.45216,-0.10457 -0.45216,-0.23354z" fill="#28123b" stroke="none" stroke-width="0"/></g><path d="M237.03333,180c0,-0.84625 1.32823,-1.53227 2.96667,-1.53227c1.63844,0 2.96667,0.68603 2.96667,1.53227c0,0.84625 -1.32822,1.53227 -2.96667,1.53227c-1.63844,0 -2.96667,-0.68602 -2.96667,-1.53227z" fill="none" stroke="#8b4fff" stroke-width="0.5"/></g></g></svg>