<svg version="1.1" xmlns="http://www.w3.org/2000/svg" xmlns:xlink="http://www.w3.org/1999/xlink" width="436.00001" height="731.15834" viewBox="0,0,436.00001,731.15834"><g transform="translate(-23.72919,174.29563)"><g data-paper-data="{&quot;isPaintingLayer&quot;:true}" fill-rule="nonzero" stroke="none" stroke-width="0" stroke-linecap="butt" stroke-linejoin="miter" stroke-miterlimit="10" stroke-dasharray="" stroke-dashoffset="0" style="mix-blend-mode: normal"><g fill="#382b4d"><path d="M38.22922,126.66669v-85h397v85h-125.60784c-2.62599,-0.46527 -5.24909,-0.86254 -7.87114,-0.86254c-2.988,0 -5.83484,0.39374 -8.65355,0.86254h-22.94757c-1.54203,-0.30075 -3.13527,-0.45834 -4.76531,-0.45834c-0.24143,0 -0.48205,0.00346 -0.72181,0.01033c-3.15674,-0.15483 -6.8453,-0.06876 -11.52819,-0.01033c-4.64374,0.05795 -9.2904,0.23137 -13.93937,0.45834h-18.29532c-1.54203,-0.30075 -3.13527,-0.45834 -4.76531,-0.45834c-0.52705,0 -1.05025,0.01647 -1.56912,0.04894c-1.31422,0.01986 -2.63297,0.14261 -3.96158,0.4094h-21.74331c-1.05587,-0.13744 -2.13265,-0.20834 -3.22599,-0.20834c-1.09333,0 -2.17012,0.0709 -3.22599,0.20834z"/><path d="M42.22922,320.6667v-85h184.30297c3.74232,0.36599 7.47403,0.7716 11.23519,0.94586c3.32333,0.15398 6.84015,-0.39521 10.33513,-0.94586h29.68321c4.858,0.1377 9.7237,0.24501 14.61639,0.29165c8.68092,0.08275 17.35164,1.64314 25.96028,-0.23293c0.09107,-0.01985 0.18202,-0.03942 0.27285,-0.05873h120.59398v85z"/><path d="M357.22924,296.66668v-82.96456c0.50195,-1.75132 0.88046,-3.47384 0.90457,-4.74377c0.02458,-1.29436 -0.42168,-2.67232 -0.90457,-4.01539v-104.77627h86v196.5z"/><path d="M39.72922,294.16668v-196.5h86v196.5z"/></g><path d="M225.71289,-172.03183l34.99422,-2.2638l-0.68523,300.43991c-1.43394,0.01542 -2.98005,0.04176 -4.66256,0.06407c-8.86493,0.11755 -17.74114,0.71034 -26.62386,1.26124c-0.6743,-0.12789 -1.34603,-0.25705 -2.016,-0.38102c-0.36878,-0.10755 -0.74122,-0.2057 -1.11708,-0.29421z" fill="#2a203a"/><path d="M293.4616,-171.83741l34.99423,-2.2638l-0.68709,301.25372c-1.49267,-0.26139 -3.04075,-0.05741 -4.59107,0.22656c-1.39326,-0.27627 -2.83016,-0.42072 -4.29881,-0.42072c-0.81048,0 -1.6113,0.044 -2.40044,0.12986c-2.21598,-0.13661 -4.29356,-0.13683 -6.0636,-0.05623c-3.10583,-0.60104 -6.20669,-1.22783 -9.30598,-1.22783c-2.6756,0 -5.23092,0.35652 -7.75761,0.79498z" fill="#2a203a"/><g fill="#2a203a"><path d="M257.61204,548.99399l-33.19016,-2.1083l0.11382,-311.66435c5.06646,0.39942 10.07694,1.13853 15.14498,1.39122c4.81426,0.24004 10.06549,-1.22874 14.99563,-1.748c0.75351,0.03538 1.50654,0.06699 2.259,0.0938c0.4615,0.01644 0.9228,0.03303 1.38392,0.04973z"/><path d="M324.51365,549.1884l-33.19017,-2.10829l0.11361,-311.10461c7.73725,0.18709 15.46397,1.54953 23.13761,-0.25008c3.74766,-0.87889 7.27948,-1.22183 10.64848,-1.57344z"/><path d="M58.19703,551.81602l-33.19017,-2.10829l0.26255,-718.91752l34.55665,-2.2638z"/><g><path d="M124.51064,556.6683l-33.19017,-2.1083l0.26255,-718.91752l34.55664,-2.2638z"/><path d="M191.41221,556.86271l-33.19017,-2.10831l0.11681,-319.83499c0.43063,0.02584 0.86442,0.03894 1.30107,0.03894c9.61955,1.26155 20.14646,-0.62051 29.87201,-0.43393c0.87551,0.0168 1.75091,0.02905 2.62621,0.03718z"/><path d="M158.48459,-164.16313l34.55665,-2.2638l-0.65973,292.91551c-0.37986,-0.02007 -0.76215,-0.03023 -1.14666,-0.03023c-2.37783,0 -4.67139,0.38832 -6.82888,1.10923c-1.95727,-0.09905 -3.93014,-0.15118 -5.93402,-0.10923c-2.70384,0.0566 -5.48235,-1.0269 -8.10736,-0.32715c-0.76753,0.2046 -1.52758,0.44312 -2.27734,0.71423c-1.94988,-0.57822 -4.00352,-0.88708 -6.1242,-0.88708c-1.21946,0 -2.41676,0.10213 -3.58491,0.29888z"/></g><path d="M390.82726,554.04068l-33.19017,-2.1083l0.26255,-718.91752l34.55664,-2.2638z"/><path d="M457.72885,554.23509l-33.19017,-2.10831l0.26255,-718.91753l34.55665,-2.2638z"/></g><path d="M23.7292,163.66666v-36h102v36z" fill="#382b4d"/><path d="M23.7292,233.16667v-36h102v36z" fill="#382b4d"/><path d="M357.72921,165.16667v-36h102v36z" fill="#382b4d"/><path d="M357.72921,234.66667v-36h102v36z" fill="#382b4d"/><path d="M46.72918,197.41666v-33.5h65.42424v33.5z" fill="#2a203a"/><path d="M369.72919,198.91667v-33.5h65.42425v33.5z" fill="#2a203a"/><path d="M24.7292,96.16666v-36h102v36z" fill="#382b4d"/><path d="M24.2292,301.66666v-36h102v36z" fill="#382b4d"/><path d="M356.72921,97.66666v-36h102v36z" fill="#382b4d"/><path d="M356.72921,303.66666v-36h102v36z" fill="#382b4d"/></g></g></svg>