<svg version="1.1" xmlns="http://www.w3.org/2000/svg" xmlns:xlink="http://www.w3.org/1999/xlink" width="204.32079" height="21.74257" viewBox="0,0,204.32079,21.74257"><defs><linearGradient x1="240.11111" y1="172.91406" x2="240.11111" y2="188.08594" gradientUnits="userSpaceOnUse" id="color-1"><stop offset="0" stop-color="#000000"/><stop offset="1" stop-color="#000000" stop-opacity="0"/></linearGradient><linearGradient x1="240.11111" y1="172.91406" x2="240.11111" y2="188.08594" gradientUnits="userSpaceOnUse" id="color-2"><stop offset="0" stop-color="#000000"/><stop offset="1" stop-color="#000000" stop-opacity="0"/></linearGradient></defs><g transform="translate(-137.89516,-168.64431)"><g data-paper-data="{&quot;isPaintingLayer&quot;:true}" fill-rule="nonzero" stroke-linecap="square" stroke-linejoin="miter" stroke-miterlimit="10" stroke-dasharray="" stroke-dashoffset="0" style="mix-blend-mode: normal"><path d="M147.20938,187.97651c-1,0 -1.94271,-0.1875 -2.82812,-0.5625c-0.875,-0.38542 -1.64062,-0.91667 -2.29687,-1.59375c-0.64583,-0.67708 -1.15625,-1.46875 -1.53125,-2.375c-0.36458,-0.90625 -0.54687,-1.89062 -0.54687,-2.95312c0,-1.04167 0.18229,-2.01042 0.54688,-2.90625c0.375,-0.90625 0.88542,-1.69792 1.53125,-2.375c0.65625,-0.67708 1.41667,-1.20833 2.28125,-1.59375c0.875,-0.38542 1.82292,-0.57812 2.84375,-0.57812c0.95833,0 1.78125,0.125 2.46875,0.375c0.69792,0.23958 1.39583,0.64583 2.09375,1.21875c0.09375,0.07292 0.16667,0.15104 0.21875,0.23438c0.0625,0.08333 0.10417,0.16667 0.125,0.25c0.02083,0.07292 0.03125,0.16667 0.03125,0.28125c0,0.23958 -0.08854,0.44271 -0.26562,0.60938c-0.16667,0.15625 -0.36979,0.23958 -0.60937,0.25c-0.23958,0.01042 -0.46875,-0.06771 -0.6875,-0.23437c-0.45833,-0.40625 -0.93229,-0.71354 -1.42187,-0.92187c-0.48958,-0.20833 -1.14062,-0.3125 -1.95312,-0.3125c-0.72917,0 -1.41667,0.15104 -2.0625,0.45313c-0.64583,0.29167 -1.21875,0.69792 -1.71875,1.21875c-0.48958,0.52083 -0.86979,1.13021 -1.14062,1.82813c-0.27083,0.6875 -0.40625,1.42188 -0.40625,2.20313c0,0.80208 0.13542,1.54688 0.40625,2.23438c0.27083,0.6875 0.65104,1.29167 1.14063,1.8125c0.5,0.52083 1.07292,0.93229 1.71875,1.23438c0.64583,0.29167 1.33333,0.4375 2.0625,0.4375c0.63542,0 1.23438,-0.10937 1.79688,-0.32812c0.57292,-0.21875 1.11979,-0.52083 1.64063,-0.90625c0.21875,-0.16667 0.4375,-0.23958 0.65625,-0.21875c0.21875,0.02083 0.40104,0.10938 0.54688,0.26563c0.15625,0.15625 0.23438,0.36979 0.23438,0.64063c0,0.125 -0.02083,0.25 -0.0625,0.375c-0.04167,0.11458 -0.11979,0.21875 -0.23437,0.3125c-0.65625,0.55208 -1.375,0.96354 -2.15625,1.23438c-0.77083,0.26042 -1.57812,0.39063 -2.42187,0.39063zM152.08438,185.66401l-1.85937,-0.375v-3.34375h-2.57812c-0.28125,0 -0.51562,-0.07812 -0.70312,-0.23437c-0.17708,-0.16667 -0.26562,-0.375 -0.26562,-0.625c0,-0.25 0.08854,-0.45312 0.26563,-0.60937c0.1875,-0.16667 0.42188,-0.25 0.70313,-0.25h3.48438c0.29167,0 0.52083,0.09375 0.6875,0.28125c0.17708,0.17708 0.26563,0.41146 0.26563,0.70313zM161.90841,187.97651c-1.09375,0 -2.09375,-0.18229 -3,-0.54687c-0.90625,-0.375 -1.6875,-0.89062 -2.34375,-1.54687c-0.64583,-0.66667 -1.15104,-1.45833 -1.51562,-2.375c-0.36458,-0.91667 -0.54687,-1.92187 -0.54687,-3.01562c0,-1.09375 0.18229,-2.09375 0.54688,-3c0.36458,-0.90625 0.86979,-1.69271 1.51563,-2.35937c0.65625,-0.66667 1.4375,-1.18229 2.34375,-1.54687c0.90625,-0.36458 1.90625,-0.54687 3,-0.54687c1.10417,0 2.10417,0.18229 3,0.54688c0.90625,0.36458 1.6875,0.88021 2.34375,1.54688c0.65625,0.66667 1.16146,1.45313 1.51563,2.35938c0.36458,0.90625 0.54688,1.90625 0.54688,3c0,1.09375 -0.18229,2.09896 -0.54687,3.01563c-0.35417,0.91667 -0.85937,1.70833 -1.51562,2.375c-0.65625,0.65625 -1.4375,1.17188 -2.34375,1.54688c-0.89583,0.36458 -1.89583,0.54688 -3,0.54688zM161.90841,186.22651c0.8125,0 1.55729,-0.14583 2.23438,-0.4375c0.67708,-0.29167 1.26563,-0.69792 1.76563,-1.21875c0.5,-0.52083 0.88021,-1.125 1.14063,-1.8125c0.27083,-0.69792 0.40625,-1.45312 0.40625,-2.26562c0,-0.80208 -0.13542,-1.55208 -0.40625,-2.25c-0.26042,-0.69792 -0.64062,-1.30208 -1.14062,-1.8125c-0.5,-0.52083 -1.08854,-0.92187 -1.76562,-1.20312c-0.67708,-0.29167 -1.42187,-0.4375 -2.23437,-0.4375c-0.80208,0 -1.54167,0.14583 -2.21875,0.4375c-0.67708,0.28125 -1.26562,0.68229 -1.76562,1.20313c-0.48958,0.51042 -0.86979,1.11458 -1.14062,1.8125c-0.27083,0.69792 -0.40625,1.44792 -0.40625,2.25c0,0.8125 0.13542,1.56771 0.40625,2.26563c0.27083,0.6875 0.65104,1.29167 1.14063,1.8125c0.5,0.52083 1.08854,0.92708 1.76563,1.21875c0.67708,0.29167 1.41667,0.4375 2.21875,0.4375zM178.79147,187.78901c-0.27083,0 -0.5,-0.09375 -0.6875,-0.28125c-0.1875,-0.1875 -0.28125,-0.41667 -0.28125,-0.6875v-12.625c0,-0.29167 0.09375,-0.52604 0.28125,-0.70312c0.1875,-0.1875 0.41667,-0.28125 0.6875,-0.28125h4.46875c0.84375,0 1.58333,0.16667 2.21875,0.5c0.64583,0.33333 1.15104,0.79167 1.51563,1.375c0.36458,0.58333 0.54688,1.25521 0.54688,2.01563c0,0.60417 -0.16667,1.15625 -0.5,1.65625c-0.32292,0.48958 -0.77083,0.875 -1.34375,1.15625c0.82292,0.19792 1.48438,0.58854 1.98438,1.17188c0.5,0.58333 0.75,1.34896 0.75,2.29688c0,0.86458 -0.20312,1.625 -0.60937,2.28125c-0.40625,0.65625 -0.97396,1.17708 -1.70312,1.5625c-0.71875,0.375 -1.54167,0.5625 -2.46875,0.5625zM179.77584,185.99213h3.875c0.57292,0 1.07292,-0.09896 1.5,-0.29687c0.4375,-0.19792 0.78125,-0.48958 1.03125,-0.875c0.25,-0.38542 0.375,-0.86458 0.375,-1.4375c0,-0.53125 -0.125,-0.96875 -0.375,-1.3125c-0.25,-0.35417 -0.59375,-0.61979 -1.03125,-0.79687c-0.42708,-0.1875 -0.92708,-0.28125 -1.5,-0.28125h-3.875zM179.77584,179.21088h3.48438c0.70833,0 1.28646,-0.17187 1.73438,-0.51562c0.45833,-0.35417 0.6875,-0.88542 0.6875,-1.59375c0,-0.70833 -0.22917,-1.23437 -0.6875,-1.57812c-0.44792,-0.34375 -1.02604,-0.51562 -1.73437,-0.51562h-3.48437zM190.17306,187.78901c-0.34375,0 -0.60937,-0.14583 -0.79687,-0.4375c-0.1875,-0.30208 -0.20833,-0.625 -0.0625,-0.96875l5.25,-12.51562c0.1875,-0.4375 0.48958,-0.65625 0.90625,-0.65625c0.44792,0 0.75521,0.21875 0.92188,0.65625l5.26563,12.5625c0.13542,0.34375 0.10938,0.65625 -0.07812,0.9375c-0.17708,0.28125 -0.44271,0.42188 -0.79687,0.42188c-0.1875,0 -0.36979,-0.05208 -0.54687,-0.15625c-0.16667,-0.10417 -0.28646,-0.25 -0.35937,-0.4375l-4.625,-11.5h0.53125l-4.70312,11.5c-0.09375,0.19792 -0.22396,0.34896 -0.39062,0.45313c-0.16667,0.09375 -0.33854,0.14063 -0.51562,0.14063zM191.17306,184.58588l0.73438,-1.60937h7.3125l0.75,1.60938zM210.02444,187.97651c-1,0 -1.94271,-0.1875 -2.82812,-0.5625c-0.875,-0.38542 -1.64062,-0.91667 -2.29687,-1.59375c-0.64583,-0.67708 -1.15625,-1.46875 -1.53125,-2.375c-0.36458,-0.90625 -0.54687,-1.89062 -0.54687,-2.95312c0,-1.04167 0.18229,-2.01042 0.54688,-2.90625c0.375,-0.90625 0.88542,-1.69792 1.53125,-2.375c0.65625,-0.67708 1.41667,-1.20833 2.28125,-1.59375c0.875,-0.38542 1.82292,-0.57812 2.84375,-0.57812c0.95833,0 1.78125,0.125 2.46875,0.375c0.69792,0.23958 1.39583,0.64583 2.09375,1.21875c0.09375,0.07292 0.16667,0.15104 0.21875,0.23438c0.0625,0.08333 0.10417,0.16667 0.125,0.25c0.02083,0.07292 0.03125,0.16667 0.03125,0.28125c0,0.23958 -0.08854,0.4375 -0.26562,0.59375c-0.16667,0.15625 -0.36979,0.24479 -0.60937,0.26563c-0.22917,0.01042 -0.45833,-0.06771 -0.6875,-0.23437c-0.45833,-0.40625 -0.93229,-0.71354 -1.42187,-0.92187c-0.48958,-0.20833 -1.14062,-0.3125 -1.95312,-0.3125c-0.72917,0 -1.41667,0.15104 -2.0625,0.45313c-0.64583,0.29167 -1.21875,0.69792 -1.71875,1.21875c-0.48958,0.52083 -0.86979,1.13021 -1.14062,1.82813c-0.27083,0.6875 -0.40625,1.42188 -0.40625,2.20313c0,0.80208 0.13542,1.54688 0.40625,2.23438c0.27083,0.6875 0.65104,1.29167 1.14063,1.8125c0.5,0.52083 1.07292,0.93229 1.71875,1.23438c0.64583,0.29167 1.33333,0.4375 2.0625,0.4375c0.63542,0 1.23438,-0.10937 1.79688,-0.32812c0.57292,-0.21875 1.11979,-0.52083 1.64063,-0.90625c0.21875,-0.16667 0.4375,-0.23958 0.65625,-0.21875c0.21875,0.02083 0.40104,0.10938 0.54688,0.26563c0.15625,0.15625 0.23438,0.36979 0.23438,0.64063c0,0.125 -0.02604,0.25 -0.07812,0.375c-0.05208,0.11458 -0.125,0.21875 -0.21875,0.3125c-0.67708,0.53125 -1.40104,0.9375 -2.17187,1.21875c-0.76042,0.27083 -1.5625,0.40625 -2.40625,0.40625zM218.95785,187.78901c-0.26042,0 -0.48958,-0.09375 -0.6875,-0.28125c-0.1875,-0.1875 -0.28125,-0.41667 -0.28125,-0.6875v-12.625c0,-0.28125 0.09375,-0.51562 0.28125,-0.70312c0.19792,-0.1875 0.42708,-0.28125 0.6875,-0.28125c0.28125,0 0.51563,0.09375 0.70313,0.28125c0.1875,0.1875 0.28125,0.42188 0.28125,0.70313v5.59375l6.17188,-6.17187c0.14583,-0.15625 0.28125,-0.26042 0.40625,-0.3125c0.125,-0.0625 0.25521,-0.09375 0.39063,-0.09375c0.3125,0 0.53646,0.09375 0.67188,0.28125c0.13542,0.1875 0.18229,0.41146 0.14063,0.67188c-0.03125,0.25 -0.14583,0.48438 -0.34375,0.70313l-4.75,4.76563l4.84375,6.60938c0.14583,0.20833 0.20833,0.4375 0.1875,0.6875c-0.02083,0.23958 -0.10937,0.44271 -0.26562,0.60938c-0.14583,0.16667 -0.34375,0.25 -0.59375,0.25c-0.34375,0 -0.60937,-0.13542 -0.79687,-0.40625l-4.71875,-6.40625l-1.34375,1.34375v4.5c0,0.27083 -0.09375,0.5 -0.28125,0.6875c-0.1875,0.1875 -0.42187,0.28125 -0.70312,0.28125zM240.21164,187.78901c-0.27083,0 -0.5,-0.09375 -0.6875,-0.28125c-0.1875,-0.1875 -0.28125,-0.41667 -0.28125,-0.6875v-13.60937h1.9375v13.60938c0,0.27083 -0.09375,0.5 -0.28125,0.6875c-0.1875,0.1875 -0.41667,0.28125 -0.6875,0.28125zM235.2116,175.00776c-0.26042,0 -0.47396,-0.08333 -0.64062,-0.25c-0.16667,-0.16667 -0.25,-0.38021 -0.25,-0.64062c0,-0.26042 0.08333,-0.47396 0.25,-0.64062c0.16667,-0.17708 0.38021,-0.26562 0.64063,-0.26562h9.98441c0.26042,0 0.47396,0.08854 0.64063,0.26563c0.16667,0.16667 0.25,0.38021 0.25,0.64063c0,0.26042 -0.08333,0.47396 -0.25,0.64063c-0.16667,0.16667 -0.38021,0.25 -0.64062,0.25zM254.03194,187.97651c-1.09375,0 -2.09375,-0.18229 -3,-0.54687c-0.90625,-0.375 -1.6875,-0.89062 -2.34375,-1.54687c-0.64583,-0.66667 -1.15104,-1.45833 -1.51562,-2.375c-0.36458,-0.91667 -0.54687,-1.92187 -0.54687,-3.01562c0,-1.09375 0.18229,-2.09375 0.54688,-3c0.36458,-0.90625 0.86979,-1.69271 1.51563,-2.35937c0.65625,-0.66667 1.4375,-1.18229 2.34375,-1.54687c0.90625,-0.36458 1.90625,-0.54687 3,-0.54687c1.10417,0 2.10417,0.18229 3,0.54688c0.90625,0.36458 1.6875,0.88021 2.34375,1.54688c0.65625,0.66667 1.16146,1.45313 1.51563,2.35938c0.36458,0.90625 0.54688,1.90625 0.54688,3c0,1.09375 -0.18229,2.09896 -0.54687,3.01563c-0.35417,0.91667 -0.85937,1.70833 -1.51562,2.375c-0.65625,0.65625 -1.4375,1.17188 -2.34375,1.54688c-0.89583,0.36458 -1.89583,0.54688 -3,0.54688zM254.03194,186.22651c0.8125,0 1.55729,-0.14583 2.23437,-0.4375c0.67708,-0.29167 1.26563,-0.69792 1.76563,-1.21875c0.5,-0.52083 0.88021,-1.125 1.14063,-1.8125c0.27083,-0.69792 0.40625,-1.45312 0.40625,-2.26562c0,-0.80208 -0.13542,-1.55208 -0.40625,-2.25c-0.26042,-0.69792 -0.64062,-1.30208 -1.14062,-1.8125c-0.5,-0.52083 -1.08854,-0.92187 -1.76562,-1.20312c-0.67708,-0.29167 -1.42187,-0.4375 -2.23437,-0.4375c-0.80208,0 -1.54167,0.14583 -2.21875,0.4375c-0.67708,0.28125 -1.26562,0.68229 -1.76562,1.20313c-0.48958,0.51042 -0.86979,1.11458 -1.14062,1.8125c-0.27083,0.69792 -0.40625,1.44792 -0.40625,2.25c0,0.8125 0.13542,1.56771 0.40625,2.26563c0.27083,0.6875 0.65104,1.29167 1.14063,1.8125c0.5,0.52083 1.08854,0.92708 1.76563,1.21875c0.67708,0.29167 1.41667,0.4375 2.21875,0.4375zM270.91499,187.78901c-0.27083,0 -0.5,-0.09375 -0.6875,-0.28125c-0.1875,-0.1875 -0.28125,-0.41667 -0.28125,-0.6875v-12.625c0,-0.29167 0.09375,-0.52604 0.28125,-0.70312c0.1875,-0.1875 0.41667,-0.28125 0.6875,-0.28125c0.375,0 0.66146,0.17708 0.85938,0.53125l5.84375,11.70313h-0.59375l5.6875,-11.70312c0.19792,-0.35417 0.48438,-0.53125 0.85938,-0.53125c0.27083,0 0.5,0.09375 0.6875,0.28125c0.1875,0.17708 0.28125,0.41146 0.28125,0.70313v12.625c0,0.27083 -0.09896,0.5 -0.29687,0.6875c-0.1875,0.1875 -0.41146,0.28125 -0.67187,0.28125c-0.27083,0 -0.5,-0.09375 -0.6875,-0.28125c-0.1875,-0.1875 -0.28125,-0.41667 -0.28125,-0.6875v-9.9375l0.375,-0.09375l-4.89062,9.95313c-0.20833,0.32292 -0.48958,0.48438 -0.84375,0.48438c-0.40625,0 -0.70312,-0.19271 -0.89062,-0.57812l-4.82812,-9.6875l0.375,-0.07812v9.9375c0,0.27083 -0.09375,0.5 -0.28125,0.6875c-0.1875,0.1875 -0.42187,0.28125 -0.70312,0.28125zM289.23543,187.78901c-0.27083,0 -0.5,-0.09375 -0.6875,-0.28125c-0.1875,-0.1875 -0.28125,-0.41667 -0.28125,-0.6875v-12.625c0,-0.29167 0.09375,-0.52604 0.28125,-0.70312c0.1875,-0.1875 0.41667,-0.28125 0.6875,-0.28125h8.4375c0.29167,0 0.52083,0.08854 0.6875,0.26563c0.17708,0.16667 0.26563,0.38542 0.26563,0.65625c0,0.26042 -0.08854,0.47396 -0.26562,0.64063c-0.16667,0.15625 -0.39583,0.23438 -0.6875,0.23438h-7.45312v4.53125h5.34375c0.29167,0 0.52083,0.08333 0.6875,0.25c0.17708,0.16667 0.26563,0.38542 0.26563,0.65625c0,0.26042 -0.08854,0.47396 -0.26562,0.64063c-0.16667,0.16667 -0.39583,0.25 -0.6875,0.25h-5.34375v4.65625h7.45313c0.29167,0 0.52083,0.08333 0.6875,0.25c0.17708,0.15625 0.26563,0.36458 0.26563,0.625c0,0.28125 -0.08854,0.50521 -0.26562,0.67188c-0.16667,0.16667 -0.39583,0.25 -0.6875,0.25zM302.27919,187.78901c-0.27083,0 -0.5,-0.09375 -0.6875,-0.28125c-0.17708,-0.1875 -0.26562,-0.41667 -0.26562,-0.6875v-12.625c0,-0.29167 0.08854,-0.52604 0.26563,-0.70312c0.1875,-0.1875 0.41667,-0.28125 0.6875,-0.28125c0.30208,0 0.55208,0.11979 0.75,0.35938l8.14063,10.82813v-10.20312c0,-0.29167 0.08854,-0.52604 0.26563,-0.70312c0.1875,-0.1875 0.42188,-0.28125 0.70313,-0.28125c0.28125,0 0.51042,0.09375 0.6875,0.28125c0.17708,0.17708 0.26563,0.41146 0.26563,0.70313v12.625c0,0.27083 -0.08854,0.5 -0.26562,0.6875c-0.17708,0.1875 -0.40625,0.28125 -0.6875,0.28125c-0.125,0 -0.26042,-0.02604 -0.40625,-0.07812c-0.14583,-0.0625 -0.26042,-0.14583 -0.34375,-0.25l-8.14062,-10.82812v10.1875c0,0.27083 -0.08854,0.5 -0.26562,0.6875c-0.17708,0.1875 -0.41146,0.28125 -0.70312,0.28125zM322.92012,188.08588c-1.19792,0 -2.25521,-0.21875 -3.17187,-0.65625c-0.91667,-0.44792 -1.63542,-1.0625 -2.15625,-1.84375c-0.52083,-0.78125 -0.78125,-1.67708 -0.78125,-2.6875v-8.70312c0,-0.29167 0.09375,-0.52604 0.28125,-0.70312c0.1875,-0.1875 0.41667,-0.28125 0.6875,-0.28125c0.29167,0 0.52604,0.09375 0.70313,0.28125c0.1875,0.17708 0.28125,0.41146 0.28125,0.70313v8.70313c0,0.67708 0.17708,1.27604 0.53125,1.79688c0.35417,0.51042 0.84375,0.91146 1.46875,1.20313c0.625,0.29167 1.34375,0.4375 2.15625,0.4375c0.78125,0 1.47396,-0.14583 2.07813,-0.4375c0.60417,-0.29167 1.07813,-0.69271 1.42188,-1.20312c0.34375,-0.52083 0.51563,-1.11979 0.51563,-1.79687v-8.70312c0,-0.29167 0.08854,-0.52604 0.26563,-0.70312c0.1875,-0.1875 0.42188,-0.28125 0.70313,-0.28125c0.28125,0 0.51042,0.09375 0.6875,0.28125c0.17708,0.17708 0.26563,0.41146 0.26563,0.70313v8.70313c0,1.01042 -0.25521,1.90625 -0.76562,2.6875c-0.5,0.78125 -1.19792,1.39583 -2.09375,1.84375c-0.89583,0.4375 -1.92187,0.65625 -3.07812,0.65625zM335.82527,184.33588c-0.27083,0 -0.5,-0.08854 -0.6875,-0.26562c-0.17708,-0.1875 -0.26562,-0.41667 -0.26562,-0.6875c0,-0.47917 0.125,-1.00521 0.375,-1.57812c0.25,-0.58333 0.63542,-1.09896 1.15625,-1.54687c0.35417,-0.30208 0.67708,-0.59896 0.96875,-0.89062c0.29167,-0.29167 0.52604,-0.625 0.70313,-1c0.17708,-0.38542 0.26563,-0.85417 0.26563,-1.40625c0,-0.39583 -0.09375,-0.76562 -0.28125,-1.10937c-0.17708,-0.35417 -0.4375,-0.63542 -0.78125,-0.84375c-0.34375,-0.21875 -0.76562,-0.32812 -1.26562,-0.32812c-0.60417,0 -1.10937,0.11458 -1.51562,0.34375c-0.39583,0.21875 -0.69271,0.52604 -0.89062,0.92188c-0.1875,0.39583 -0.28125,0.85938 -0.28125,1.39063c0,0.28125 -0.08854,0.51042 -0.26562,0.6875c-0.16667,0.17708 -0.39583,0.26563 -0.6875,0.26563c-0.27083,0 -0.5,-0.08854 -0.6875,-0.26562c-0.17708,-0.17708 -0.26562,-0.40625 -0.26562,-0.6875c0,-0.86458 0.1875,-1.625 0.5625,-2.28125c0.38542,-0.66667 0.92188,-1.1875 1.60938,-1.5625c0.69792,-0.38542 1.50521,-0.57812 2.42188,-0.57812c0.8125,0 1.53125,0.17188 2.15625,0.51563c0.625,0.34375 1.11979,0.81771 1.48438,1.42188c0.375,0.60417 0.5625,1.30729 0.5625,2.10938c0,0.69792 -0.11458,1.30208 -0.34375,1.8125c-0.21875,0.51042 -0.52083,0.96875 -0.90625,1.375c-0.38542,0.40625 -0.82812,0.80729 -1.32812,1.20313c-0.32292,0.26042 -0.54687,0.59896 -0.67187,1.01563c-0.125,0.41667 -0.1875,0.75521 -0.1875,1.01563c0,0.27083 -0.08854,0.5 -0.26562,0.6875c-0.16667,0.17708 -0.39583,0.26563 -0.6875,0.26563zM335.82527,187.78901c-0.34375,0 -0.64583,-0.125 -0.90625,-0.375c-0.25,-0.26042 -0.375,-0.5625 -0.375,-0.90625c0,-0.36458 0.125,-0.67187 0.375,-0.92187c0.26042,-0.26042 0.5625,-0.39062 0.90625,-0.39062c0.36458,0 0.67188,0.13021 0.92188,0.39063c0.26042,0.25 0.39063,0.55729 0.39063,0.92188c0,0.34375 -0.13021,0.64583 -0.39062,0.90625c-0.25,0.25 -0.55729,0.375 -0.92187,0.375z" fill="url(#color-1)" stroke="url(#color-2)" stroke-width="4"/><path d="M147.09827,185.97651c-1,0 -1.94271,-0.1875 -2.82812,-0.5625c-0.875,-0.38542 -1.64062,-0.91667 -2.29687,-1.59375c-0.64583,-0.67708 -1.15625,-1.46875 -1.53125,-2.375c-0.36458,-0.90625 -0.54687,-1.89062 -0.54687,-2.95312c0,-1.04167 0.18229,-2.01042 0.54688,-2.90625c0.375,-0.90625 0.88542,-1.69792 1.53125,-2.375c0.65625,-0.67708 1.41667,-1.20833 2.28125,-1.59375c0.875,-0.38542 1.82292,-0.57812 2.84375,-0.57812c0.95833,0 1.78125,0.125 2.46875,0.375c0.69792,0.23958 1.39583,0.64583 2.09375,1.21875c0.09375,0.07292 0.16667,0.15104 0.21875,0.23438c0.0625,0.08333 0.10417,0.16667 0.125,0.25c0.02083,0.07292 0.03125,0.16667 0.03125,0.28125c0,0.23958 -0.08854,0.44271 -0.26562,0.60938c-0.16667,0.15625 -0.36979,0.23958 -0.60937,0.25c-0.23958,0.01042 -0.46875,-0.06771 -0.6875,-0.23437c-0.45833,-0.40625 -0.93229,-0.71354 -1.42187,-0.92187c-0.48958,-0.20833 -1.14062,-0.3125 -1.95312,-0.3125c-0.72917,0 -1.41667,0.15104 -2.0625,0.45313c-0.64583,0.29167 -1.21875,0.69792 -1.71875,1.21875c-0.48958,0.52083 -0.86979,1.13021 -1.14062,1.82813c-0.27083,0.6875 -0.40625,1.42188 -0.40625,2.20313c0,0.80208 0.13542,1.54688 0.40625,2.23438c0.27083,0.6875 0.65104,1.29167 1.14063,1.8125c0.5,0.52083 1.07292,0.93229 1.71875,1.23438c0.64583,0.29167 1.33333,0.4375 2.0625,0.4375c0.63542,0 1.23438,-0.10937 1.79688,-0.32812c0.57292,-0.21875 1.11979,-0.52083 1.64063,-0.90625c0.21875,-0.16667 0.4375,-0.23958 0.65625,-0.21875c0.21875,0.02083 0.40104,0.10938 0.54688,0.26563c0.15625,0.15625 0.23438,0.36979 0.23438,0.64063c0,0.125 -0.02083,0.25 -0.0625,0.375c-0.04167,0.11458 -0.11979,0.21875 -0.23437,0.3125c-0.65625,0.55208 -1.375,0.96354 -2.15625,1.23438c-0.77083,0.26042 -1.57812,0.39063 -2.42187,0.39063zM151.97327,183.66401l-1.85937,-0.375v-3.34375h-2.57812c-0.28125,0 -0.51562,-0.07812 -0.70312,-0.23437c-0.17708,-0.16667 -0.26562,-0.375 -0.26562,-0.625c0,-0.25 0.08854,-0.45312 0.26563,-0.60937c0.1875,-0.16667 0.42188,-0.25 0.70313,-0.25h3.48438c0.29167,0 0.52083,0.09375 0.6875,0.28125c0.17708,0.17708 0.26563,0.41146 0.26563,0.70313zM161.7973,185.97651c-1.09375,0 -2.09375,-0.18229 -3,-0.54687c-0.90625,-0.375 -1.6875,-0.89062 -2.34375,-1.54687c-0.64583,-0.66667 -1.15104,-1.45833 -1.51562,-2.375c-0.36458,-0.91667 -0.54687,-1.92187 -0.54687,-3.01562c0,-1.09375 0.18229,-2.09375 0.54688,-3c0.36458,-0.90625 0.86979,-1.69271 1.51563,-2.35937c0.65625,-0.66667 1.4375,-1.18229 2.34375,-1.54687c0.90625,-0.36458 1.90625,-0.54687 3,-0.54687c1.10417,0 2.10417,0.18229 3,0.54688c0.90625,0.36458 1.6875,0.88021 2.34375,1.54688c0.65625,0.66667 1.16146,1.45313 1.51563,2.35938c0.36458,0.90625 0.54688,1.90625 0.54688,3c0,1.09375 -0.18229,2.09896 -0.54687,3.01563c-0.35417,0.91667 -0.85937,1.70833 -1.51562,2.375c-0.65625,0.65625 -1.4375,1.17188 -2.34375,1.54688c-0.89583,0.36458 -1.89583,0.54688 -3,0.54688zM161.7973,184.22651c0.8125,0 1.55729,-0.14583 2.23438,-0.4375c0.67708,-0.29167 1.26563,-0.69792 1.76563,-1.21875c0.5,-0.52083 0.88021,-1.125 1.14063,-1.8125c0.27083,-0.69792 0.40625,-1.45312 0.40625,-2.26562c0,-0.80208 -0.13542,-1.55208 -0.40625,-2.25c-0.26042,-0.69792 -0.64062,-1.30208 -1.14062,-1.8125c-0.5,-0.52083 -1.08854,-0.92187 -1.76562,-1.20312c-0.67708,-0.29167 -1.42187,-0.4375 -2.23437,-0.4375c-0.80208,0 -1.54167,0.14583 -2.21875,0.4375c-0.67708,0.28125 -1.26562,0.68229 -1.76562,1.20313c-0.48958,0.51042 -0.86979,1.11458 -1.14062,1.8125c-0.27083,0.69792 -0.40625,1.44792 -0.40625,2.25c0,0.8125 0.13542,1.56771 0.40625,2.26563c0.27083,0.6875 0.65104,1.29167 1.14063,1.8125c0.5,0.52083 1.08854,0.92708 1.76563,1.21875c0.67708,0.29167 1.41667,0.4375 2.21875,0.4375zM178.68036,185.78901c-0.27083,0 -0.5,-0.09375 -0.6875,-0.28125c-0.1875,-0.1875 -0.28125,-0.41667 -0.28125,-0.6875v-12.625c0,-0.29167 0.09375,-0.52604 0.28125,-0.70312c0.1875,-0.1875 0.41667,-0.28125 0.6875,-0.28125h4.46875c0.84375,0 1.58333,0.16667 2.21875,0.5c0.64583,0.33333 1.15104,0.79167 1.51563,1.375c0.36458,0.58333 0.54688,1.25521 0.54688,2.01563c0,0.60417 -0.16667,1.15625 -0.5,1.65625c-0.32292,0.48958 -0.77083,0.875 -1.34375,1.15625c0.82292,0.19792 1.48438,0.58854 1.98438,1.17188c0.5,0.58333 0.75,1.34896 0.75,2.29688c0,0.86458 -0.20312,1.625 -0.60937,2.28125c-0.40625,0.65625 -0.97396,1.17708 -1.70312,1.5625c-0.71875,0.375 -1.54167,0.5625 -2.46875,0.5625zM179.66473,183.99213h3.875c0.57292,0 1.07292,-0.09896 1.5,-0.29687c0.4375,-0.19792 0.78125,-0.48958 1.03125,-0.875c0.25,-0.38542 0.375,-0.86458 0.375,-1.4375c0,-0.53125 -0.125,-0.96875 -0.375,-1.3125c-0.25,-0.35417 -0.59375,-0.61979 -1.03125,-0.79687c-0.42708,-0.1875 -0.92708,-0.28125 -1.5,-0.28125h-3.875zM179.66473,177.21088h3.48438c0.70833,0 1.28646,-0.17187 1.73438,-0.51562c0.45833,-0.35417 0.6875,-0.88542 0.6875,-1.59375c0,-0.70833 -0.22917,-1.23437 -0.6875,-1.57812c-0.44792,-0.34375 -1.02604,-0.51562 -1.73437,-0.51562h-3.48437zM190.06195,185.78901c-0.34375,0 -0.60937,-0.14583 -0.79687,-0.4375c-0.1875,-0.30208 -0.20833,-0.625 -0.0625,-0.96875l5.25,-12.51562c0.1875,-0.4375 0.48958,-0.65625 0.90625,-0.65625c0.44792,0 0.75521,0.21875 0.92188,0.65625l5.26563,12.5625c0.13542,0.34375 0.10938,0.65625 -0.07812,0.9375c-0.17708,0.28125 -0.44271,0.42188 -0.79687,0.42188c-0.1875,0 -0.36979,-0.05208 -0.54687,-0.15625c-0.16667,-0.10417 -0.28646,-0.25 -0.35937,-0.4375l-4.625,-11.5h0.53125l-4.70312,11.5c-0.09375,0.19792 -0.22396,0.34896 -0.39062,0.45313c-0.16667,0.09375 -0.33854,0.14063 -0.51562,0.14063zM191.06195,182.58588l0.73438,-1.60937h7.3125l0.75,1.60938zM209.91333,185.97651c-1,0 -1.94271,-0.1875 -2.82812,-0.5625c-0.875,-0.38542 -1.64062,-0.91667 -2.29687,-1.59375c-0.64583,-0.67708 -1.15625,-1.46875 -1.53125,-2.375c-0.36458,-0.90625 -0.54687,-1.89062 -0.54687,-2.95312c0,-1.04167 0.18229,-2.01042 0.54688,-2.90625c0.375,-0.90625 0.88542,-1.69792 1.53125,-2.375c0.65625,-0.67708 1.41667,-1.20833 2.28125,-1.59375c0.875,-0.38542 1.82292,-0.57812 2.84375,-0.57812c0.95833,0 1.78125,0.125 2.46875,0.375c0.69792,0.23958 1.39583,0.64583 2.09375,1.21875c0.09375,0.07292 0.16667,0.15104 0.21875,0.23438c0.0625,0.08333 0.10417,0.16667 0.125,0.25c0.02083,0.07292 0.03125,0.16667 0.03125,0.28125c0,0.23958 -0.08854,0.4375 -0.26562,0.59375c-0.16667,0.15625 -0.36979,0.24479 -0.60937,0.26563c-0.22917,0.01042 -0.45833,-0.06771 -0.6875,-0.23437c-0.45833,-0.40625 -0.93229,-0.71354 -1.42187,-0.92187c-0.48958,-0.20833 -1.14062,-0.3125 -1.95312,-0.3125c-0.72917,0 -1.41667,0.15104 -2.0625,0.45313c-0.64583,0.29167 -1.21875,0.69792 -1.71875,1.21875c-0.48958,0.52083 -0.86979,1.13021 -1.14062,1.82813c-0.27083,0.6875 -0.40625,1.42188 -0.40625,2.20313c0,0.80208 0.13542,1.54688 0.40625,2.23438c0.27083,0.6875 0.65104,1.29167 1.14063,1.8125c0.5,0.52083 1.07292,0.93229 1.71875,1.23438c0.64583,0.29167 1.33333,0.4375 2.0625,0.4375c0.63542,0 1.23438,-0.10937 1.79688,-0.32812c0.57292,-0.21875 1.11979,-0.52083 1.64063,-0.90625c0.21875,-0.16667 0.4375,-0.23958 0.65625,-0.21875c0.21875,0.02083 0.40104,0.10938 0.54688,0.26563c0.15625,0.15625 0.23438,0.36979 0.23438,0.64063c0,0.125 -0.02604,0.25 -0.07812,0.375c-0.05208,0.11458 -0.125,0.21875 -0.21875,0.3125c-0.67708,0.53125 -1.40104,0.9375 -2.17187,1.21875c-0.76042,0.27083 -1.5625,0.40625 -2.40625,0.40625zM218.84674,185.78901c-0.26042,0 -0.48958,-0.09375 -0.6875,-0.28125c-0.1875,-0.1875 -0.28125,-0.41667 -0.28125,-0.6875v-12.625c0,-0.28125 0.09375,-0.51562 0.28125,-0.70312c0.19792,-0.1875 0.42708,-0.28125 0.6875,-0.28125c0.28125,0 0.51563,0.09375 0.70313,0.28125c0.1875,0.1875 0.28125,0.42188 0.28125,0.70313v5.59375l6.17188,-6.17187c0.14583,-0.15625 0.28125,-0.26042 0.40625,-0.3125c0.125,-0.0625 0.25521,-0.09375 0.39063,-0.09375c0.3125,0 0.53646,0.09375 0.67188,0.28125c0.13542,0.1875 0.18229,0.41146 0.14063,0.67188c-0.03125,0.25 -0.14583,0.48438 -0.34375,0.70313l-4.75,4.76563l4.84375,6.60938c0.14583,0.20833 0.20833,0.4375 0.1875,0.6875c-0.02083,0.23958 -0.10937,0.44271 -0.26562,0.60938c-0.14583,0.16667 -0.34375,0.25 -0.59375,0.25c-0.34375,0 -0.60937,-0.13542 -0.79687,-0.40625l-4.71875,-6.40625l-1.34375,1.34375v4.5c0,0.27083 -0.09375,0.5 -0.28125,0.6875c-0.1875,0.1875 -0.42187,0.28125 -0.70312,0.28125zM240.10053,185.78901c-0.27083,0 -0.5,-0.09375 -0.6875,-0.28125c-0.1875,-0.1875 -0.28125,-0.41667 -0.28125,-0.6875v-13.60937h1.9375v13.60938c0,0.27083 -0.09375,0.5 -0.28125,0.6875c-0.1875,0.1875 -0.41667,0.28125 -0.6875,0.28125zM235.10049,173.00776c-0.26042,0 -0.47396,-0.08333 -0.64062,-0.25c-0.16667,-0.16667 -0.25,-0.38021 -0.25,-0.64062c0,-0.26042 0.08333,-0.47396 0.25,-0.64062c0.16667,-0.17708 0.38021,-0.26562 0.64063,-0.26562h9.98441c0.26042,0 0.47396,0.08854 0.64063,0.26563c0.16667,0.16667 0.25,0.38021 0.25,0.64063c0,0.26042 -0.08333,0.47396 -0.25,0.64063c-0.16667,0.16667 -0.38021,0.25 -0.64062,0.25zM253.92084,185.97651c-1.09375,0 -2.09375,-0.18229 -3,-0.54687c-0.90625,-0.375 -1.6875,-0.89062 -2.34375,-1.54687c-0.64583,-0.66667 -1.15104,-1.45833 -1.51562,-2.375c-0.36458,-0.91667 -0.54687,-1.92187 -0.54687,-3.01562c0,-1.09375 0.18229,-2.09375 0.54688,-3c0.36458,-0.90625 0.86979,-1.69271 1.51563,-2.35937c0.65625,-0.66667 1.4375,-1.18229 2.34375,-1.54687c0.90625,-0.36458 1.90625,-0.54687 3,-0.54687c1.10417,0 2.10417,0.18229 3,0.54688c0.90625,0.36458 1.6875,0.88021 2.34375,1.54688c0.65625,0.66667 1.16146,1.45313 1.51563,2.35938c0.36458,0.90625 0.54688,1.90625 0.54688,3c0,1.09375 -0.18229,2.09896 -0.54687,3.01563c-0.35417,0.91667 -0.85937,1.70833 -1.51562,2.375c-0.65625,0.65625 -1.4375,1.17188 -2.34375,1.54688c-0.89583,0.36458 -1.89583,0.54688 -3,0.54688zM253.92084,184.22651c0.8125,0 1.55729,-0.14583 2.23437,-0.4375c0.67708,-0.29167 1.26563,-0.69792 1.76563,-1.21875c0.5,-0.52083 0.88021,-1.125 1.14063,-1.8125c0.27083,-0.69792 0.40625,-1.45312 0.40625,-2.26562c0,-0.80208 -0.13542,-1.55208 -0.40625,-2.25c-0.26042,-0.69792 -0.64062,-1.30208 -1.14062,-1.8125c-0.5,-0.52083 -1.08854,-0.92187 -1.76562,-1.20312c-0.67708,-0.29167 -1.42187,-0.4375 -2.23437,-0.4375c-0.80208,0 -1.54167,0.14583 -2.21875,0.4375c-0.67708,0.28125 -1.26562,0.68229 -1.76562,1.20313c-0.48958,0.51042 -0.86979,1.11458 -1.14062,1.8125c-0.27083,0.69792 -0.40625,1.44792 -0.40625,2.25c0,0.8125 0.13542,1.56771 0.40625,2.26563c0.27083,0.6875 0.65104,1.29167 1.14063,1.8125c0.5,0.52083 1.08854,0.92708 1.76563,1.21875c0.67708,0.29167 1.41667,0.4375 2.21875,0.4375zM270.80388,185.78901c-0.27083,0 -0.5,-0.09375 -0.6875,-0.28125c-0.1875,-0.1875 -0.28125,-0.41667 -0.28125,-0.6875v-12.625c0,-0.29167 0.09375,-0.52604 0.28125,-0.70312c0.1875,-0.1875 0.41667,-0.28125 0.6875,-0.28125c0.375,0 0.66146,0.17708 0.85938,0.53125l5.84375,11.70313h-0.59375l5.6875,-11.70312c0.19792,-0.35417 0.48438,-0.53125 0.85938,-0.53125c0.27083,0 0.5,0.09375 0.6875,0.28125c0.1875,0.17708 0.28125,0.41146 0.28125,0.70313v12.625c0,0.27083 -0.09896,0.5 -0.29687,0.6875c-0.1875,0.1875 -0.41146,0.28125 -0.67187,0.28125c-0.27083,0 -0.5,-0.09375 -0.6875,-0.28125c-0.1875,-0.1875 -0.28125,-0.41667 -0.28125,-0.6875v-9.9375l0.375,-0.09375l-4.89062,9.95313c-0.20833,0.32292 -0.48958,0.48438 -0.84375,0.48438c-0.40625,0 -0.70312,-0.19271 -0.89062,-0.57812l-4.82812,-9.6875l0.375,-0.07812v9.9375c0,0.27083 -0.09375,0.5 -0.28125,0.6875c-0.1875,0.1875 -0.42187,0.28125 -0.70312,0.28125zM289.12432,185.78901c-0.27083,0 -0.5,-0.09375 -0.6875,-0.28125c-0.1875,-0.1875 -0.28125,-0.41667 -0.28125,-0.6875v-12.625c0,-0.29167 0.09375,-0.52604 0.28125,-0.70312c0.1875,-0.1875 0.41667,-0.28125 0.6875,-0.28125h8.4375c0.29167,0 0.52083,0.08854 0.6875,0.26563c0.17708,0.16667 0.26563,0.38542 0.26563,0.65625c0,0.26042 -0.08854,0.47396 -0.26562,0.64063c-0.16667,0.15625 -0.39583,0.23438 -0.6875,0.23438h-7.45312v4.53125h5.34375c0.29167,0 0.52083,0.08333 0.6875,0.25c0.17708,0.16667 0.26563,0.38542 0.26563,0.65625c0,0.26042 -0.08854,0.47396 -0.26562,0.64063c-0.16667,0.16667 -0.39583,0.25 -0.6875,0.25h-5.34375v4.65625h7.45313c0.29167,0 0.52083,0.08333 0.6875,0.25c0.17708,0.15625 0.26563,0.36458 0.26563,0.625c0,0.28125 -0.08854,0.50521 -0.26562,0.67188c-0.16667,0.16667 -0.39583,0.25 -0.6875,0.25zM302.16808,185.78901c-0.27083,0 -0.5,-0.09375 -0.6875,-0.28125c-0.17708,-0.1875 -0.26562,-0.41667 -0.26562,-0.6875v-12.625c0,-0.29167 0.08854,-0.52604 0.26563,-0.70312c0.1875,-0.1875 0.41667,-0.28125 0.6875,-0.28125c0.30208,0 0.55208,0.11979 0.75,0.35938l8.14063,10.82813v-10.20312c0,-0.29167 0.08854,-0.52604 0.26563,-0.70312c0.1875,-0.1875 0.42188,-0.28125 0.70313,-0.28125c0.28125,0 0.51042,0.09375 0.6875,0.28125c0.17708,0.17708 0.26563,0.41146 0.26563,0.70313v12.625c0,0.27083 -0.08854,0.5 -0.26562,0.6875c-0.17708,0.1875 -0.40625,0.28125 -0.6875,0.28125c-0.125,0 -0.26042,-0.02604 -0.40625,-0.07812c-0.14583,-0.0625 -0.26042,-0.14583 -0.34375,-0.25l-8.14062,-10.82812v10.1875c0,0.27083 -0.08854,0.5 -0.26562,0.6875c-0.17708,0.1875 -0.41146,0.28125 -0.70312,0.28125zM322.80901,186.08588c-1.19792,0 -2.25521,-0.21875 -3.17187,-0.65625c-0.91667,-0.44792 -1.63542,-1.0625 -2.15625,-1.84375c-0.52083,-0.78125 -0.78125,-1.67708 -0.78125,-2.6875v-8.70312c0,-0.29167 0.09375,-0.52604 0.28125,-0.70312c0.1875,-0.1875 0.41667,-0.28125 0.6875,-0.28125c0.29167,0 0.52604,0.09375 0.70313,0.28125c0.1875,0.17708 0.28125,0.41146 0.28125,0.70313v8.70313c0,0.67708 0.17708,1.27604 0.53125,1.79688c0.35417,0.51042 0.84375,0.91146 1.46875,1.20313c0.625,0.29167 1.34375,0.4375 2.15625,0.4375c0.78125,0 1.47396,-0.14583 2.07813,-0.4375c0.60417,-0.29167 1.07813,-0.69271 1.42188,-1.20312c0.34375,-0.52083 0.51563,-1.11979 0.51563,-1.79687v-8.70312c0,-0.29167 0.08854,-0.52604 0.26563,-0.70312c0.1875,-0.1875 0.42188,-0.28125 0.70313,-0.28125c0.28125,0 0.51042,0.09375 0.6875,0.28125c0.17708,0.17708 0.26563,0.41146 0.26563,0.70313v8.70313c0,1.01042 -0.25521,1.90625 -0.76562,2.6875c-0.5,0.78125 -1.19792,1.39583 -2.09375,1.84375c-0.89583,0.4375 -1.92187,0.65625 -3.07812,0.65625zM335.71416,182.33588c-0.27083,0 -0.5,-0.08854 -0.6875,-0.26562c-0.17708,-0.1875 -0.26562,-0.41667 -0.26562,-0.6875c0,-0.47917 0.125,-1.00521 0.375,-1.57812c0.25,-0.58333 0.63542,-1.09896 1.15625,-1.54687c0.35417,-0.30208 0.67708,-0.59896 0.96875,-0.89062c0.29167,-0.29167 0.52604,-0.625 0.70313,-1c0.17708,-0.38542 0.26563,-0.85417 0.26563,-1.40625c0,-0.39583 -0.09375,-0.76562 -0.28125,-1.10937c-0.17708,-0.35417 -0.4375,-0.63542 -0.78125,-0.84375c-0.34375,-0.21875 -0.76562,-0.32812 -1.26562,-0.32812c-0.60417,0 -1.10937,0.11458 -1.51562,0.34375c-0.39583,0.21875 -0.69271,0.52604 -0.89062,0.92188c-0.1875,0.39583 -0.28125,0.85938 -0.28125,1.39063c0,0.28125 -0.08854,0.51042 -0.26562,0.6875c-0.16667,0.17708 -0.39583,0.26563 -0.6875,0.26563c-0.27083,0 -0.5,-0.08854 -0.6875,-0.26562c-0.17708,-0.17708 -0.26562,-0.40625 -0.26562,-0.6875c0,-0.86458 0.1875,-1.625 0.5625,-2.28125c0.38542,-0.66667 0.92188,-1.1875 1.60938,-1.5625c0.69792,-0.38542 1.50521,-0.57812 2.42188,-0.57812c0.8125,0 1.53125,0.17188 2.15625,0.51563c0.625,0.34375 1.11979,0.81771 1.48438,1.42188c0.375,0.60417 0.5625,1.30729 0.5625,2.10938c0,0.69792 -0.11458,1.30208 -0.34375,1.8125c-0.21875,0.51042 -0.52083,0.96875 -0.90625,1.375c-0.38542,0.40625 -0.82812,0.80729 -1.32812,1.20313c-0.32292,0.26042 -0.54687,0.59896 -0.67187,1.01563c-0.125,0.41667 -0.1875,0.75521 -0.1875,1.01563c0,0.27083 -0.08854,0.5 -0.26562,0.6875c-0.16667,0.17708 -0.39583,0.26563 -0.6875,0.26563zM335.71416,185.78901c-0.34375,0 -0.64583,-0.125 -0.90625,-0.375c-0.25,-0.26042 -0.375,-0.5625 -0.375,-0.90625c0,-0.36458 0.125,-0.67187 0.375,-0.92187c0.26042,-0.26042 0.5625,-0.39062 0.90625,-0.39062c0.36458,0 0.67188,0.13021 0.92188,0.39063c0.26042,0.25 0.39063,0.55729 0.39063,0.92188c0,0.34375 -0.13021,0.64583 -0.39062,0.90625c-0.25,0.25 -0.55729,0.375 -0.92187,0.375z" fill="#9966ff" stroke="#28123b" stroke-width="4"/><path d="M147.09827,185.97651c-1,0 -1.94271,-0.1875 -2.82812,-0.5625c-0.875,-0.38542 -1.64062,-0.91667 -2.29687,-1.59375c-0.64583,-0.67708 -1.15625,-1.46875 -1.53125,-2.375c-0.36458,-0.90625 -0.54687,-1.89062 -0.54687,-2.95312c0,-1.04167 0.18229,-2.01042 0.54688,-2.90625c0.375,-0.90625 0.88542,-1.69792 1.53125,-2.375c0.65625,-0.67708 1.41667,-1.20833 2.28125,-1.59375c0.875,-0.38542 1.82292,-0.57812 2.84375,-0.57812c0.95833,0 1.78125,0.125 2.46875,0.375c0.69792,0.23958 1.39583,0.64583 2.09375,1.21875c0.09375,0.07292 0.16667,0.15104 0.21875,0.23438c0.0625,0.08333 0.10417,0.16667 0.125,0.25c0.02083,0.07292 0.03125,0.16667 0.03125,0.28125c0,0.23958 -0.08854,0.44271 -0.26562,0.60938c-0.16667,0.15625 -0.36979,0.23958 -0.60937,0.25c-0.23958,0.01042 -0.46875,-0.06771 -0.6875,-0.23437c-0.45833,-0.40625 -0.93229,-0.71354 -1.42187,-0.92187c-0.48958,-0.20833 -1.14062,-0.3125 -1.95312,-0.3125c-0.72917,0 -1.41667,0.15104 -2.0625,0.45313c-0.64583,0.29167 -1.21875,0.69792 -1.71875,1.21875c-0.48958,0.52083 -0.86979,1.13021 -1.14062,1.82813c-0.27083,0.6875 -0.40625,1.42188 -0.40625,2.20313c0,0.80208 0.13542,1.54688 0.40625,2.23438c0.27083,0.6875 0.65104,1.29167 1.14063,1.8125c0.5,0.52083 1.07292,0.93229 1.71875,1.23438c0.64583,0.29167 1.33333,0.4375 2.0625,0.4375c0.63542,0 1.23438,-0.10937 1.79688,-0.32812c0.57292,-0.21875 1.11979,-0.52083 1.64063,-0.90625c0.21875,-0.16667 0.4375,-0.23958 0.65625,-0.21875c0.21875,0.02083 0.40104,0.10938 0.54688,0.26563c0.15625,0.15625 0.23438,0.36979 0.23438,0.64063c0,0.125 -0.02083,0.25 -0.0625,0.375c-0.04167,0.11458 -0.11979,0.21875 -0.23437,0.3125c-0.65625,0.55208 -1.375,0.96354 -2.15625,1.23438c-0.77083,0.26042 -1.57812,0.39063 -2.42187,0.39063zM151.97327,183.66401l-1.85937,-0.375v-3.34375h-2.57812c-0.28125,0 -0.51562,-0.07812 -0.70312,-0.23437c-0.17708,-0.16667 -0.26562,-0.375 -0.26562,-0.625c0,-0.25 0.08854,-0.45312 0.26563,-0.60937c0.1875,-0.16667 0.42188,-0.25 0.70313,-0.25h3.48438c0.29167,0 0.52083,0.09375 0.6875,0.28125c0.17708,0.17708 0.26563,0.41146 0.26563,0.70313zM161.7973,185.97651c-1.09375,0 -2.09375,-0.18229 -3,-0.54687c-0.90625,-0.375 -1.6875,-0.89062 -2.34375,-1.54687c-0.64583,-0.66667 -1.15104,-1.45833 -1.51562,-2.375c-0.36458,-0.91667 -0.54687,-1.92187 -0.54687,-3.01562c0,-1.09375 0.18229,-2.09375 0.54688,-3c0.36458,-0.90625 0.86979,-1.69271 1.51563,-2.35937c0.65625,-0.66667 1.4375,-1.18229 2.34375,-1.54687c0.90625,-0.36458 1.90625,-0.54687 3,-0.54687c1.10417,0 2.10417,0.18229 3,0.54688c0.90625,0.36458 1.6875,0.88021 2.34375,1.54688c0.65625,0.66667 1.16146,1.45313 1.51563,2.35938c0.36458,0.90625 0.54688,1.90625 0.54688,3c0,1.09375 -0.18229,2.09896 -0.54687,3.01563c-0.35417,0.91667 -0.85937,1.70833 -1.51562,2.375c-0.65625,0.65625 -1.4375,1.17188 -2.34375,1.54688c-0.89583,0.36458 -1.89583,0.54688 -3,0.54688zM161.7973,184.22651c0.8125,0 1.55729,-0.14583 2.23438,-0.4375c0.67708,-0.29167 1.26563,-0.69792 1.76563,-1.21875c0.5,-0.52083 0.88021,-1.125 1.14063,-1.8125c0.27083,-0.69792 0.40625,-1.45312 0.40625,-2.26562c0,-0.80208 -0.13542,-1.55208 -0.40625,-2.25c-0.26042,-0.69792 -0.64062,-1.30208 -1.14062,-1.8125c-0.5,-0.52083 -1.08854,-0.92187 -1.76562,-1.20312c-0.67708,-0.29167 -1.42187,-0.4375 -2.23437,-0.4375c-0.80208,0 -1.54167,0.14583 -2.21875,0.4375c-0.67708,0.28125 -1.26562,0.68229 -1.76562,1.20313c-0.48958,0.51042 -0.86979,1.11458 -1.14062,1.8125c-0.27083,0.69792 -0.40625,1.44792 -0.40625,2.25c0,0.8125 0.13542,1.56771 0.40625,2.26563c0.27083,0.6875 0.65104,1.29167 1.14063,1.8125c0.5,0.52083 1.08854,0.92708 1.76563,1.21875c0.67708,0.29167 1.41667,0.4375 2.21875,0.4375zM178.68036,185.78901c-0.27083,0 -0.5,-0.09375 -0.6875,-0.28125c-0.1875,-0.1875 -0.28125,-0.41667 -0.28125,-0.6875v-12.625c0,-0.29167 0.09375,-0.52604 0.28125,-0.70312c0.1875,-0.1875 0.41667,-0.28125 0.6875,-0.28125h4.46875c0.84375,0 1.58333,0.16667 2.21875,0.5c0.64583,0.33333 1.15104,0.79167 1.51563,1.375c0.36458,0.58333 0.54688,1.25521 0.54688,2.01563c0,0.60417 -0.16667,1.15625 -0.5,1.65625c-0.32292,0.48958 -0.77083,0.875 -1.34375,1.15625c0.82292,0.19792 1.48438,0.58854 1.98438,1.17188c0.5,0.58333 0.75,1.34896 0.75,2.29688c0,0.86458 -0.20312,1.625 -0.60937,2.28125c-0.40625,0.65625 -0.97396,1.17708 -1.70312,1.5625c-0.71875,0.375 -1.54167,0.5625 -2.46875,0.5625zM179.66473,183.99213h3.875c0.57292,0 1.07292,-0.09896 1.5,-0.29687c0.4375,-0.19792 0.78125,-0.48958 1.03125,-0.875c0.25,-0.38542 0.375,-0.86458 0.375,-1.4375c0,-0.53125 -0.125,-0.96875 -0.375,-1.3125c-0.25,-0.35417 -0.59375,-0.61979 -1.03125,-0.79687c-0.42708,-0.1875 -0.92708,-0.28125 -1.5,-0.28125h-3.875zM179.66473,177.21088h3.48438c0.70833,0 1.28646,-0.17187 1.73438,-0.51562c0.45833,-0.35417 0.6875,-0.88542 0.6875,-1.59375c0,-0.70833 -0.22917,-1.23437 -0.6875,-1.57812c-0.44792,-0.34375 -1.02604,-0.51562 -1.73437,-0.51562h-3.48437zM190.06195,185.78901c-0.34375,0 -0.60937,-0.14583 -0.79687,-0.4375c-0.1875,-0.30208 -0.20833,-0.625 -0.0625,-0.96875l5.25,-12.51562c0.1875,-0.4375 0.48958,-0.65625 0.90625,-0.65625c0.44792,0 0.75521,0.21875 0.92188,0.65625l5.26563,12.5625c0.13542,0.34375 0.10938,0.65625 -0.07812,0.9375c-0.17708,0.28125 -0.44271,0.42188 -0.79687,0.42188c-0.1875,0 -0.36979,-0.05208 -0.54687,-0.15625c-0.16667,-0.10417 -0.28646,-0.25 -0.35937,-0.4375l-4.625,-11.5h0.53125l-4.70312,11.5c-0.09375,0.19792 -0.22396,0.34896 -0.39062,0.45313c-0.16667,0.09375 -0.33854,0.14063 -0.51562,0.14063zM191.06195,182.58588l0.73438,-1.60937h7.3125l0.75,1.60938zM209.91333,185.97651c-1,0 -1.94271,-0.1875 -2.82812,-0.5625c-0.875,-0.38542 -1.64062,-0.91667 -2.29687,-1.59375c-0.64583,-0.67708 -1.15625,-1.46875 -1.53125,-2.375c-0.36458,-0.90625 -0.54687,-1.89062 -0.54687,-2.95312c0,-1.04167 0.18229,-2.01042 0.54688,-2.90625c0.375,-0.90625 0.88542,-1.69792 1.53125,-2.375c0.65625,-0.67708 1.41667,-1.20833 2.28125,-1.59375c0.875,-0.38542 1.82292,-0.57812 2.84375,-0.57812c0.95833,0 1.78125,0.125 2.46875,0.375c0.69792,0.23958 1.39583,0.64583 2.09375,1.21875c0.09375,0.07292 0.16667,0.15104 0.21875,0.23438c0.0625,0.08333 0.10417,0.16667 0.125,0.25c0.02083,0.07292 0.03125,0.16667 0.03125,0.28125c0,0.23958 -0.08854,0.4375 -0.26562,0.59375c-0.16667,0.15625 -0.36979,0.24479 -0.60937,0.26563c-0.22917,0.01042 -0.45833,-0.06771 -0.6875,-0.23437c-0.45833,-0.40625 -0.93229,-0.71354 -1.42187,-0.92187c-0.48958,-0.20833 -1.14062,-0.3125 -1.95312,-0.3125c-0.72917,0 -1.41667,0.15104 -2.0625,0.45313c-0.64583,0.29167 -1.21875,0.69792 -1.71875,1.21875c-0.48958,0.52083 -0.86979,1.13021 -1.14062,1.82813c-0.27083,0.6875 -0.40625,1.42188 -0.40625,2.20313c0,0.80208 0.13542,1.54688 0.40625,2.23438c0.27083,0.6875 0.65104,1.29167 1.14063,1.8125c0.5,0.52083 1.07292,0.93229 1.71875,1.23438c0.64583,0.29167 1.33333,0.4375 2.0625,0.4375c0.63542,0 1.23438,-0.10937 1.79688,-0.32812c0.57292,-0.21875 1.11979,-0.52083 1.64063,-0.90625c0.21875,-0.16667 0.4375,-0.23958 0.65625,-0.21875c0.21875,0.02083 0.40104,0.10938 0.54688,0.26563c0.15625,0.15625 0.23438,0.36979 0.23438,0.64063c0,0.125 -0.02604,0.25 -0.07812,0.375c-0.05208,0.11458 -0.125,0.21875 -0.21875,0.3125c-0.67708,0.53125 -1.40104,0.9375 -2.17187,1.21875c-0.76042,0.27083 -1.5625,0.40625 -2.40625,0.40625zM218.84674,185.78901c-0.26042,0 -0.48958,-0.09375 -0.6875,-0.28125c-0.1875,-0.1875 -0.28125,-0.41667 -0.28125,-0.6875v-12.625c0,-0.28125 0.09375,-0.51562 0.28125,-0.70312c0.19792,-0.1875 0.42708,-0.28125 0.6875,-0.28125c0.28125,0 0.51563,0.09375 0.70313,0.28125c0.1875,0.1875 0.28125,0.42188 0.28125,0.70313v5.59375l6.17188,-6.17187c0.14583,-0.15625 0.28125,-0.26042 0.40625,-0.3125c0.125,-0.0625 0.25521,-0.09375 0.39063,-0.09375c0.3125,0 0.53646,0.09375 0.67188,0.28125c0.13542,0.1875 0.18229,0.41146 0.14063,0.67188c-0.03125,0.25 -0.14583,0.48438 -0.34375,0.70313l-4.75,4.76563l4.84375,6.60938c0.14583,0.20833 0.20833,0.4375 0.1875,0.6875c-0.02083,0.23958 -0.10937,0.44271 -0.26562,0.60938c-0.14583,0.16667 -0.34375,0.25 -0.59375,0.25c-0.34375,0 -0.60937,-0.13542 -0.79687,-0.40625l-4.71875,-6.40625l-1.34375,1.34375v4.5c0,0.27083 -0.09375,0.5 -0.28125,0.6875c-0.1875,0.1875 -0.42187,0.28125 -0.70312,0.28125zM240.10053,185.78901c-0.27083,0 -0.5,-0.09375 -0.6875,-0.28125c-0.1875,-0.1875 -0.28125,-0.41667 -0.28125,-0.6875v-13.60937h1.9375v13.60938c0,0.27083 -0.09375,0.5 -0.28125,0.6875c-0.1875,0.1875 -0.41667,0.28125 -0.6875,0.28125zM235.10049,173.00776c-0.26042,0 -0.47396,-0.08333 -0.64062,-0.25c-0.16667,-0.16667 -0.25,-0.38021 -0.25,-0.64062c0,-0.26042 0.08333,-0.47396 0.25,-0.64062c0.16667,-0.17708 0.38021,-0.26562 0.64063,-0.26562h9.98441c0.26042,0 0.47396,0.08854 0.64063,0.26563c0.16667,0.16667 0.25,0.38021 0.25,0.64063c0,0.26042 -0.08333,0.47396 -0.25,0.64063c-0.16667,0.16667 -0.38021,0.25 -0.64062,0.25zM253.92084,185.97651c-1.09375,0 -2.09375,-0.18229 -3,-0.54687c-0.90625,-0.375 -1.6875,-0.89062 -2.34375,-1.54687c-0.64583,-0.66667 -1.15104,-1.45833 -1.51562,-2.375c-0.36458,-0.91667 -0.54687,-1.92187 -0.54687,-3.01562c0,-1.09375 0.18229,-2.09375 0.54688,-3c0.36458,-0.90625 0.86979,-1.69271 1.51563,-2.35937c0.65625,-0.66667 1.4375,-1.18229 2.34375,-1.54687c0.90625,-0.36458 1.90625,-0.54687 3,-0.54687c1.10417,0 2.10417,0.18229 3,0.54688c0.90625,0.36458 1.6875,0.88021 2.34375,1.54688c0.65625,0.66667 1.16146,1.45313 1.51563,2.35938c0.36458,0.90625 0.54688,1.90625 0.54688,3c0,1.09375 -0.18229,2.09896 -0.54687,3.01563c-0.35417,0.91667 -0.85937,1.70833 -1.51562,2.375c-0.65625,0.65625 -1.4375,1.17188 -2.34375,1.54688c-0.89583,0.36458 -1.89583,0.54688 -3,0.54688zM253.92084,184.22651c0.8125,0 1.55729,-0.14583 2.23437,-0.4375c0.67708,-0.29167 1.26563,-0.69792 1.76563,-1.21875c0.5,-0.52083 0.88021,-1.125 1.14063,-1.8125c0.27083,-0.69792 0.40625,-1.45312 0.40625,-2.26562c0,-0.80208 -0.13542,-1.55208 -0.40625,-2.25c-0.26042,-0.69792 -0.64062,-1.30208 -1.14062,-1.8125c-0.5,-0.52083 -1.08854,-0.92187 -1.76562,-1.20312c-0.67708,-0.29167 -1.42187,-0.4375 -2.23437,-0.4375c-0.80208,0 -1.54167,0.14583 -2.21875,0.4375c-0.67708,0.28125 -1.26562,0.68229 -1.76562,1.20313c-0.48958,0.51042 -0.86979,1.11458 -1.14062,1.8125c-0.27083,0.69792 -0.40625,1.44792 -0.40625,2.25c0,0.8125 0.13542,1.56771 0.40625,2.26563c0.27083,0.6875 0.65104,1.29167 1.14063,1.8125c0.5,0.52083 1.08854,0.92708 1.76563,1.21875c0.67708,0.29167 1.41667,0.4375 2.21875,0.4375zM270.80388,185.78901c-0.27083,0 -0.5,-0.09375 -0.6875,-0.28125c-0.1875,-0.1875 -0.28125,-0.41667 -0.28125,-0.6875v-12.625c0,-0.29167 0.09375,-0.52604 0.28125,-0.70312c0.1875,-0.1875 0.41667,-0.28125 0.6875,-0.28125c0.375,0 0.66146,0.17708 0.85938,0.53125l5.84375,11.70313h-0.59375l5.6875,-11.70312c0.19792,-0.35417 0.48438,-0.53125 0.85938,-0.53125c0.27083,0 0.5,0.09375 0.6875,0.28125c0.1875,0.17708 0.28125,0.41146 0.28125,0.70313v12.625c0,0.27083 -0.09896,0.5 -0.29687,0.6875c-0.1875,0.1875 -0.41146,0.28125 -0.67187,0.28125c-0.27083,0 -0.5,-0.09375 -0.6875,-0.28125c-0.1875,-0.1875 -0.28125,-0.41667 -0.28125,-0.6875v-9.9375l0.375,-0.09375l-4.89062,9.95313c-0.20833,0.32292 -0.48958,0.48438 -0.84375,0.48438c-0.40625,0 -0.70312,-0.19271 -0.89062,-0.57812l-4.82812,-9.6875l0.375,-0.07812v9.9375c0,0.27083 -0.09375,0.5 -0.28125,0.6875c-0.1875,0.1875 -0.42187,0.28125 -0.70312,0.28125zM289.12432,185.78901c-0.27083,0 -0.5,-0.09375 -0.6875,-0.28125c-0.1875,-0.1875 -0.28125,-0.41667 -0.28125,-0.6875v-12.625c0,-0.29167 0.09375,-0.52604 0.28125,-0.70312c0.1875,-0.1875 0.41667,-0.28125 0.6875,-0.28125h8.4375c0.29167,0 0.52083,0.08854 0.6875,0.26563c0.17708,0.16667 0.26563,0.38542 0.26563,0.65625c0,0.26042 -0.08854,0.47396 -0.26562,0.64063c-0.16667,0.15625 -0.39583,0.23438 -0.6875,0.23438h-7.45312v4.53125h5.34375c0.29167,0 0.52083,0.08333 0.6875,0.25c0.17708,0.16667 0.26563,0.38542 0.26563,0.65625c0,0.26042 -0.08854,0.47396 -0.26562,0.64063c-0.16667,0.16667 -0.39583,0.25 -0.6875,0.25h-5.34375v4.65625h7.45313c0.29167,0 0.52083,0.08333 0.6875,0.25c0.17708,0.15625 0.26563,0.36458 0.26563,0.625c0,0.28125 -0.08854,0.50521 -0.26562,0.67188c-0.16667,0.16667 -0.39583,0.25 -0.6875,0.25zM302.16808,185.78901c-0.27083,0 -0.5,-0.09375 -0.6875,-0.28125c-0.17708,-0.1875 -0.26562,-0.41667 -0.26562,-0.6875v-12.625c0,-0.29167 0.08854,-0.52604 0.26563,-0.70312c0.1875,-0.1875 0.41667,-0.28125 0.6875,-0.28125c0.30208,0 0.55208,0.11979 0.75,0.35938l8.14063,10.82813v-10.20312c0,-0.29167 0.08854,-0.52604 0.26563,-0.70312c0.1875,-0.1875 0.42188,-0.28125 0.70313,-0.28125c0.28125,0 0.51042,0.09375 0.6875,0.28125c0.17708,0.17708 0.26563,0.41146 0.26563,0.70313v12.625c0,0.27083 -0.08854,0.5 -0.26562,0.6875c-0.17708,0.1875 -0.40625,0.28125 -0.6875,0.28125c-0.125,0 -0.26042,-0.02604 -0.40625,-0.07812c-0.14583,-0.0625 -0.26042,-0.14583 -0.34375,-0.25l-8.14062,-10.82812v10.1875c0,0.27083 -0.08854,0.5 -0.26562,0.6875c-0.17708,0.1875 -0.41146,0.28125 -0.70312,0.28125zM322.80901,186.08588c-1.19792,0 -2.25521,-0.21875 -3.17187,-0.65625c-0.91667,-0.44792 -1.63542,-1.0625 -2.15625,-1.84375c-0.52083,-0.78125 -0.78125,-1.67708 -0.78125,-2.6875v-8.70312c0,-0.29167 0.09375,-0.52604 0.28125,-0.70312c0.1875,-0.1875 0.41667,-0.28125 0.6875,-0.28125c0.29167,0 0.52604,0.09375 0.70313,0.28125c0.1875,0.17708 0.28125,0.41146 0.28125,0.70313v8.70313c0,0.67708 0.17708,1.27604 0.53125,1.79688c0.35417,0.51042 0.84375,0.91146 1.46875,1.20313c0.625,0.29167 1.34375,0.4375 2.15625,0.4375c0.78125,0 1.47396,-0.14583 2.07813,-0.4375c0.60417,-0.29167 1.07813,-0.69271 1.42188,-1.20312c0.34375,-0.52083 0.51563,-1.11979 0.51563,-1.79687v-8.70312c0,-0.29167 0.08854,-0.52604 0.26563,-0.70312c0.1875,-0.1875 0.42188,-0.28125 0.70313,-0.28125c0.28125,0 0.51042,0.09375 0.6875,0.28125c0.17708,0.17708 0.26563,0.41146 0.26563,0.70313v8.70313c0,1.01042 -0.25521,1.90625 -0.76562,2.6875c-0.5,0.78125 -1.19792,1.39583 -2.09375,1.84375c-0.89583,0.4375 -1.92187,0.65625 -3.07812,0.65625zM335.71416,182.33588c-0.27083,0 -0.5,-0.08854 -0.6875,-0.26562c-0.17708,-0.1875 -0.26562,-0.41667 -0.26562,-0.6875c0,-0.47917 0.125,-1.00521 0.375,-1.57812c0.25,-0.58333 0.63542,-1.09896 1.15625,-1.54687c0.35417,-0.30208 0.67708,-0.59896 0.96875,-0.89062c0.29167,-0.29167 0.52604,-0.625 0.70313,-1c0.17708,-0.38542 0.26563,-0.85417 0.26563,-1.40625c0,-0.39583 -0.09375,-0.76562 -0.28125,-1.10937c-0.17708,-0.35417 -0.4375,-0.63542 -0.78125,-0.84375c-0.34375,-0.21875 -0.76562,-0.32812 -1.26562,-0.32812c-0.60417,0 -1.10937,0.11458 -1.51562,0.34375c-0.39583,0.21875 -0.69271,0.52604 -0.89062,0.92188c-0.1875,0.39583 -0.28125,0.85938 -0.28125,1.39063c0,0.28125 -0.08854,0.51042 -0.26562,0.6875c-0.16667,0.17708 -0.39583,0.26563 -0.6875,0.26563c-0.27083,0 -0.5,-0.08854 -0.6875,-0.26562c-0.17708,-0.17708 -0.26562,-0.40625 -0.26562,-0.6875c0,-0.86458 0.1875,-1.625 0.5625,-2.28125c0.38542,-0.66667 0.92188,-1.1875 1.60938,-1.5625c0.69792,-0.38542 1.50521,-0.57812 2.42188,-0.57812c0.8125,0 1.53125,0.17188 2.15625,0.51563c0.625,0.34375 1.11979,0.81771 1.48438,1.42188c0.375,0.60417 0.5625,1.30729 0.5625,2.10938c0,0.69792 -0.11458,1.30208 -0.34375,1.8125c-0.21875,0.51042 -0.52083,0.96875 -0.90625,1.375c-0.38542,0.40625 -0.82812,0.80729 -1.32812,1.20313c-0.32292,0.26042 -0.54687,0.59896 -0.67187,1.01563c-0.125,0.41667 -0.1875,0.75521 -0.1875,1.01563c0,0.27083 -0.08854,0.5 -0.26562,0.6875c-0.16667,0.17708 -0.39583,0.26563 -0.6875,0.26563zM335.71416,185.78901c-0.34375,0 -0.64583,-0.125 -0.90625,-0.375c-0.25,-0.26042 -0.375,-0.5625 -0.375,-0.90625c0,-0.36458 0.125,-0.67187 0.375,-0.92187c0.26042,-0.26042 0.5625,-0.39062 0.90625,-0.39062c0.36458,0 0.67188,0.13021 0.92188,0.39063c0.26042,0.25 0.39063,0.55729 0.39063,0.92188c0,0.34375 -0.13021,0.64583 -0.39062,0.90625c-0.25,0.25 -0.55729,0.375 -0.92187,0.375z" fill="#a97eff" stroke="#9966ff" stroke-width="0.5"/></g></g></svg>