<svg version="1.1" xmlns="http://www.w3.org/2000/svg" xmlns:xlink="http://www.w3.org/1999/xlink" width="137.77422" height="119.62744" viewBox="0,0,137.77422,119.62744"><defs><linearGradient x1="-118.66754" y1="-1015.04701" x2="-83.88442" y2="695.21506" gradientUnits="userSpaceOnUse" id="color-1"><stop offset="0" stop-color="#000000"/><stop offset="1" stop-color="#000000" stop-opacity="0"/></linearGradient><linearGradient x1="240.128" y1="134.23559" x2="240.128" y2="147.39257" gradientUnits="userSpaceOnUse" id="color-2"><stop offset="0" stop-color="#000000"/><stop offset="1" stop-color="#000000" stop-opacity="0"/></linearGradient><linearGradient x1="240.128" y1="134.23559" x2="240.128" y2="147.39257" gradientUnits="userSpaceOnUse" id="color-3"><stop offset="0" stop-color="#000000"/><stop offset="1" stop-color="#000000" stop-opacity="0"/></linearGradient><linearGradient x1="177.40397" y1="140.81408" x2="177.40397" y2="242.04724" gradientUnits="userSpaceOnUse" id="color-4"><stop offset="0" stop-color="#000000"/><stop offset="1" stop-color="#000000" stop-opacity="0"/></linearGradient><linearGradient x1="177.40397" y1="140.81408" x2="177.40397" y2="242.04724" gradientUnits="userSpaceOnUse" id="color-5"><stop offset="0" stop-color="#000000"/><stop offset="1" stop-color="#000000" stop-opacity="0"/></linearGradient><linearGradient x1="239.8242" y1="236.48504" x2="239.8242" y2="249.64202" gradientUnits="userSpaceOnUse" id="color-6"><stop offset="0" stop-color="#000000"/><stop offset="1" stop-color="#000000" stop-opacity="0"/></linearGradient><linearGradient x1="239.8242" y1="236.48504" x2="239.8242" y2="249.64202" gradientUnits="userSpaceOnUse" id="color-7"><stop offset="0" stop-color="#000000"/><stop offset="1" stop-color="#000000" stop-opacity="0"/></linearGradient><linearGradient x1="302.54828" y1="141.83038" x2="302.54828" y2="243.06353" gradientUnits="userSpaceOnUse" id="color-8"><stop offset="0" stop-color="#000000"/><stop offset="1" stop-color="#000000" stop-opacity="0"/></linearGradient><linearGradient x1="302.54828" y1="141.83038" x2="302.54828" y2="243.06353" gradientUnits="userSpaceOnUse" id="color-9"><stop offset="0" stop-color="#000000"/><stop offset="1" stop-color="#000000" stop-opacity="0"/></linearGradient></defs><g transform="translate(-171.15397,-129.68609)"><g data-paper-data="{&quot;isPaintingLayer&quot;:true}" fill-rule="nonzero" stroke-linejoin="miter" stroke-miterlimit="10" stroke-dasharray="" stroke-dashoffset="0" style="mix-blend-mode: normal"><path d="M178.29088,236.11065l-0.96904,-98.60731l124.65311,-2.09515l0.63183,98.7816z" fill="url(#color-1)" stroke="none" stroke-width="0" stroke-linecap="butt"/><g stroke-linecap="round"><g stroke-width="12.5"><path d="M301.95849,140.81408h-123.66096" fill="url(#color-2)" stroke="url(#color-3)"/><path d="M177.40397,242.04724v-101.23316" fill="url(#color-4)" stroke="url(#color-5)"/><path d="M301.65468,243.06353h-123.66095" data-paper-data="{&quot;index&quot;:null}" fill="url(#color-6)" stroke="url(#color-7)"/><path d="M302.54828,243.06353v-101.23314" data-paper-data="{&quot;index&quot;:null}" fill="url(#color-8)" stroke="url(#color-9)"/></g><g fill="none" stroke="#28123b" stroke-width="12.5"><path d="M302.08842,136.00852h-123.66096"/><path d="M177.5339,237.24167v-101.23315"/><path d="M301.78461,238.25797h-123.66095" data-paper-data="{&quot;index&quot;:null}"/><path d="M302.67819,238.25797v-101.23315" data-paper-data="{&quot;index&quot;:null}"/></g><g fill="none" stroke="#8b4fff" stroke-width="4.5"><path d="M302.08842,136.00852h-123.66096"/><path d="M177.5339,237.24167v-101.23315"/><path d="M301.78461,238.25797h-123.66095" data-paper-data="{&quot;index&quot;:null}"/><path d="M302.67819,238.25797v-101.23315" data-paper-data="{&quot;index&quot;:null}"/></g></g><g fill="none" stroke-linecap="round"><g stroke="#28123b" stroke-width="12.5"><path d="M301.98245,135.93609h-123.66096"/><path d="M177.42788,236.25092v-100.31483"/><path d="M178.01769,237.25798h123.66096" data-paper-data="{&quot;index&quot;:null}"/><path d="M302.57219,237.25798v-100.31482" data-paper-data="{&quot;index&quot;:null}"/></g><g stroke="#8b4fff" stroke-width="4.5"><path d="M301.98245,135.93609h-123.66096"/><path d="M177.42788,236.25092v-100.31483"/><path d="M178.01769,237.25798h123.66096" data-paper-data="{&quot;index&quot;:null}"/><path d="M302.57219,237.25798v-100.31482" data-paper-data="{&quot;index&quot;:null}"/></g></g><g fill="none" stroke="#28123b" stroke-width="12" stroke-linecap="round"><path d="M215.17759,187.74903c0,0 -9.01843,0.55551 -7.36273,-0.83201c5.43895,-4.55799 32.26216,-32.90382 33.83269,-31.57677c8.51275,7.19297 32.42424,32.37574 31.28956,32.37842c-2.78585,0.00659 -6.48832,0.03036 -6.48832,0.03036"/><path d="M214.80709,219.29299v-32.19789"/><path d="M215.05156,219.61619c0,0 11.81159,1.00881 11.5844,-0.6064c-0.27844,-1.97958 -0.10192,-7.14226 0.67098,-7.10821c2.04698,0.09019 7.21949,0.03893 7.81908,0.03893c0.84972,0 -0.15232,7.67568 0.60496,7.67568c9.20214,0 30.59179,0 30.59179,0" data-paper-data="{&quot;index&quot;:null}"/><path d="M266.69334,219.61622v-32.19789" data-paper-data="{&quot;index&quot;:null}"/></g><path d="M215.17759,187.74903c0,0 -9.01843,0.55551 -7.36273,-0.83201c5.43895,-4.55799 32.26216,-32.90382 33.83269,-31.57677c8.51275,7.19297 32.42424,32.37574 31.28956,32.37842c-2.78585,0.00659 -6.48832,0.03036 -6.48832,0.03036" fill="none" stroke="#8a50ff" stroke-width="4.5" stroke-linecap="round"/><path d="M214.80709,219.29299v-32.19789" fill="none" stroke="#8c52ff" stroke-width="4.5" stroke-linecap="round"/><path d="M215.05156,219.61619c0,0 11.81159,1.00881 11.5844,-0.6064c-0.27844,-1.97958 -0.10192,-7.14226 0.67098,-7.10821c2.04698,0.09019 7.21949,0.03893 7.81908,0.03893c0.84972,0 -0.15232,7.67568 0.60496,7.67568c9.20214,0 30.59179,0 30.59179,0" data-paper-data="{&quot;index&quot;:null}" fill="none" stroke="#884dff" stroke-width="4.5" stroke-linecap="round"/><path d="M266.69335,187.41833v32.19789" data-paper-data="{&quot;index&quot;:null}" fill="none" stroke="#8a4fff" stroke-width="4.5" stroke-linecap="round"/></g></g></svg>