<svg version="1.1" xmlns="http://www.w3.org/2000/svg" xmlns:xlink="http://www.w3.org/1999/xlink" width="8.75023" height="3.95024" viewBox="0,0,8.75023,3.95024"><g transform="translate(-235.62488,-178.02488)"><g data-paper-data="{&quot;isPaintingLayer&quot;:true}" fill-rule="nonzero" stroke-linecap="butt" stroke-linejoin="miter" stroke-miterlimit="10" stroke-dasharray="" stroke-dashoffset="0" style="mix-blend-mode: normal"><path d="M237.20682,181.52015c-1.85972,-0.69641 -2.11676,-1.94156 -0.57413,-2.78111c1.54263,-0.83956 4.30077,-0.9556 6.16049,-0.25919c1.85972,0.69641 2.11676,1.94156 0.57413,2.78111c-1.54263,0.83956 -4.30077,0.9556 -6.16049,0.25919z" fill="#28123b" stroke="none" stroke-width="0"/><path d="M238.42518,180.85706c-1.04852,-0.39264 -1.19345,-1.09467 -0.3237,-1.56802c0.86975,-0.47335 2.42482,-0.53877 3.47335,-0.14613c1.04852,0.39264 1.19346,1.09467 0.3237,1.56802c-0.86975,0.47335 -2.42482,0.53877 -3.47335,0.14613z" fill="none" stroke="#8b4fff" stroke-width="1.5"/><path d="M238.71429,180c0,-0.32057 0.57564,-0.58043 1.28572,-0.58043c0.71008,0 1.28572,0.25986 1.28572,0.58043c0,0.32057 -0.57564,0.58043 -1.28572,0.58043c-0.71008,0 -1.28572,-0.25986 -1.28572,-0.58043z" fill="#8b4fff" stroke="none" stroke-width="0"/><path d="M239.42857,180c0,-0.14246 0.25584,-0.25797 0.57143,-0.25797c0.31559,0 0.57143,0.11549 0.57143,0.25797c0,0.14246 -0.25584,0.25797 -0.57143,0.25797c-0.31559,0 -0.57143,-0.11549 -0.57143,-0.25797z" fill="none" stroke="#28123b" stroke-width="0.5"/><path d="M238.42517,180.85706c-1.04852,-0.39264 -1.19345,-1.09467 -0.3237,-1.56802c0.86975,-0.47335 2.42482,-0.53877 3.47335,-0.14613c1.04852,0.39264 1.19346,1.09467 0.3237,1.56802c-0.86975,0.47335 -2.42482,0.53877 -3.47335,0.14613z" fill="none" stroke="#28123b" stroke-width="0.5"/></g></g></svg>