<svg version="1.1" xmlns="http://www.w3.org/2000/svg" xmlns:xlink="http://www.w3.org/1999/xlink" width="594.78942" height="434.9019" viewBox="0,0,594.78942,434.9019"><defs><linearGradient x1="-43.19163" y1="181.12445" x2="41.48868" y2="181.12445" gradientUnits="userSpaceOnUse" id="color-1"><stop offset="0" stop-color="#28123b"/><stop offset="1" stop-color="#28123b" stop-opacity="0"/></linearGradient><linearGradient x1="436.97365" y1="180.1845" x2="515.1401" y2="180.1845" gradientUnits="userSpaceOnUse" id="color-2"><stop offset="0" stop-color="#28123b" stop-opacity="0"/><stop offset="1" stop-color="#28123b"/></linearGradient><linearGradient x1="249.00196" y1="-11.24859" x2="249.00196" y2="38.87884" gradientUnits="userSpaceOnUse" id="color-3"><stop offset="0" stop-color="#28123b"/><stop offset="1" stop-color="#28123b" stop-opacity="0"/></linearGradient><linearGradient x1="251.82337" y1="320.42708" x2="251.82337" y2="399.16978" gradientUnits="userSpaceOnUse" id="color-4"><stop offset="0" stop-color="#28123b" stop-opacity="0"/><stop offset="1" stop-color="#28123b"/></linearGradient></defs><g transform="translate(62.39472,23.45094)"><g data-paper-data="{&quot;isPaintingLayer&quot;:true}" fill-rule="nonzero" stroke="none" stroke-linecap="butt" stroke-linejoin="miter" stroke-miterlimit="10" stroke-dasharray="" stroke-dashoffset="0" style="mix-blend-mode: normal"><path d="M-62.39471,371.23291v-379.49865h90.20973v379.49865z" fill="#28123b" stroke-width="0"/><g stroke-width="0"><path d="M-43.19163,359.24307v-356.23723h84.68031v356.23723z" fill="url(#color-1)"/><path d="M436.97365,358.30312v-356.23723h78.16645v356.23723z" fill="url(#color-2)"/><path d="M1.39574,-8.48844l495.04938,-2.76016l0.16307,47.36727l-495.04938,2.76016z" fill="url(#color-3)"/></g><path d="M-10.93062,332.60533l527.37488,-4.59445l0.17373,78.84564l-527.37488,4.59445z" fill="#28123b" stroke-width="0"/><path d="M2.89868,324.76289l497.68543,-4.33579l0.16395,74.40689l-497.68543,4.33579z" fill="url(#color-4)" stroke-width="0"/><path d="M27.5793,42.63446v-13.01711h12.88711c0,0 -0.93071,0.18604 -2.7193,0.7586c-0.51655,0.16535 -1.25607,0.51591 -1.87844,0.7147c-1.96396,0.62728 -3.45143,1.91048 -3.87956,2.24898c-0.27736,0.21928 -1.53697,1.01316 -2.7292,3.59203c-1.2142,2.62638 -1.6806,5.70282 -1.6806,5.70282z" fill="#29133c" stroke-width="NaN"/><path d="M29.07984,324.92704c1.12206,2.55754 2.30749,3.34484 2.56853,3.56232c0.40293,0.3357 1.80283,1.60828 3.65118,2.23037c0.58574,0.19715 1.28172,0.54479 1.76787,0.70878c1.68329,0.56782 2.55921,0.75231 2.55921,0.75231h-12.12843v-12.90943c0,0 0.43893,3.05098 1.58166,5.65563z" data-paper-data="{&quot;index&quot;:null}" fill="#29133c" stroke-width="NaN"/><path d="M449.53521,315.91094v13.01711h-12.88711c0,0 0.93071,-0.18604 2.7193,-0.7586c0.51655,-0.16535 1.25608,-0.5159 1.87844,-0.7147c1.96396,-0.62728 3.45143,-1.91048 3.87956,-2.24898c0.27736,-0.21929 1.53697,-1.01316 2.7292,-3.59203c1.2142,-2.62638 1.68059,-5.70281 1.68059,-5.70281z" data-paper-data="{&quot;index&quot;:null}" fill="#29133c" stroke-width="NaN"/><path d="M447.83973,34.72451c-1.19223,-2.57886 -2.45184,-3.37275 -2.7292,-3.59203c-0.42814,-0.33849 -1.91561,-1.6217 -3.87956,-2.24898c-0.62236,-0.19879 -1.3619,-0.54935 -1.87844,-0.7147c-1.78859,-0.57257 -2.7193,-0.7586 -2.7193,-0.7586h12.88711v13.01711c0,0 -0.4664,-3.07644 -1.6806,-5.70282z" data-paper-data="{&quot;index&quot;:null}" fill="#28123b" stroke-width="NaN"/><path d="M449.12419,370.23159v-379.49865h83.27052v379.49865z" fill="#28123b" stroke-width="0"/><path d="M-14.89588,-20.51053l527.37488,-2.9404l0.17373,50.46024l-527.37488,2.9404z" fill="#28123b" stroke-width="0"/></g></g></svg>