<svg version="1.1" xmlns="http://www.w3.org/2000/svg" xmlns:xlink="http://www.w3.org/1999/xlink" width="8.75" height="3.90833" viewBox="0,0,8.75,3.90833"><g transform="translate(-235.625,-178.04583)"><g data-paper-data="{&quot;isPaintingLayer&quot;:true}" fill-rule="nonzero" stroke-linecap="butt" stroke-linejoin="miter" stroke-miterlimit="10" stroke-dasharray="" stroke-dashoffset="0" style="mix-blend-mode: normal"><path d="M235.625,180c0,-1.07925 1.95875,-1.95417 4.375,-1.95417c2.41625,0 4.375,0.87491 4.375,1.95417c0,1.07925 -1.95875,1.95417 -4.375,1.95417c-2.41625,0 -4.375,-0.87491 -4.375,-1.95417z" fill="#28123b" stroke="none" stroke-width="0"/><path d="M237.53333,180c0,-0.6085 1.10437,-1.10177 2.46667,-1.10177c1.3623,0 2.46667,0.49329 2.46667,1.10177c0,0.6085 -1.10436,1.10177 -2.46667,1.10177c-1.3623,0 -2.46667,-0.49329 -2.46667,-1.10177z" fill="none" stroke="#8b4fff" stroke-width="1.5"/><g stroke="none"><path d="M237.98288,180.2463c-0.35913,-0.13743 -0.36691,-0.36331 -0.01739,-0.50451c0.34953,-0.1412 0.92403,-0.14426 1.28315,-0.00684c0.35913,0.13743 0.36691,0.36331 0.01739,0.50451c-0.34953,0.1412 -0.92403,0.14426 -1.28315,0.00684z" fill="#8b4fff" stroke-width="NaN"/><path d="M240.75137,180.25374c-0.35913,-0.13743 -0.36691,-0.36331 -0.01739,-0.50451c0.34953,-0.1412 0.92403,-0.14426 1.28315,-0.00684c0.35913,0.13743 0.36691,0.36331 0.01739,0.50451c-0.34953,0.1412 -0.92403,0.14426 -1.28315,0.00684z" fill="#8b4fff" stroke-width="NaN"/><path d="M239.38638,180.7649c-0.35913,-0.13743 -0.36691,-0.36331 -0.01739,-0.50451c0.34953,-0.1412 0.92403,-0.14426 1.28315,-0.00684c0.35913,0.13743 0.36691,0.36331 0.01739,0.50451c-0.34953,0.1412 -0.92403,0.14426 -1.28315,0.00684z" fill="#8b4fff" stroke-width="NaN"/><path d="M239.3761,179.74645c-0.35913,-0.13743 -0.36691,-0.36331 -0.01739,-0.50451c0.34953,-0.1412 0.92403,-0.14426 1.28315,-0.00684c0.35913,0.13743 0.36691,0.36331 0.01739,0.50451c-0.34953,0.1412 -0.92403,0.14426 -1.28315,0.00684z" fill="#8b4fff" stroke-width="NaN"/><path d="M239.34818,180.27079c-0.38164,-0.14604 -0.38992,-0.38608 -0.01848,-0.53614c0.37144,-0.15005 0.98194,-0.15331 1.36359,-0.00726c0.38164,0.14604 0.38992,0.38608 0.01848,0.53614c-0.37144,0.15005 -0.98194,0.15331 -1.36359,0.00726z" fill="#28123b" stroke-width="0"/></g></g></g></svg>