<svg version="1.1" xmlns="http://www.w3.org/2000/svg" xmlns:xlink="http://www.w3.org/1999/xlink" width="8.75023" height="6.73531" viewBox="0,0,8.75023,6.73531"><g transform="translate(-235.62488,-176.63234)"><g data-paper-data="{&quot;isPaintingLayer&quot;:true}" fill-rule="nonzero" stroke-linejoin="miter" stroke-miterlimit="10" stroke-dasharray="" stroke-dashoffset="0" style="mix-blend-mode: normal"><g stroke-linecap="butt"><path d="M237.20682,182.59192c-1.85972,-1.18741 -2.11676,-3.31043 -0.57413,-4.74191c1.54263,-1.43148 4.30077,-1.62933 6.16049,-0.44192c1.85972,1.18741 2.11676,3.31043 0.57413,4.74191c-1.54263,1.43148 -4.30077,1.62933 -6.16049,0.44192z" fill="#28123b" stroke="none" stroke-width="0"/><path d="M236.4037,180c0,-1.52882 1.61013,-2.76818 3.5963,-2.76818c1.98618,0 3.5963,1.23936 3.5963,2.76818c0,1.52882 -1.61012,2.76818 -3.5963,2.76818c-1.98618,0 -3.5963,-1.23936 -3.5963,-2.76818z" fill="none" stroke="#8b4fff" stroke-width="0.5"/></g><path d="M240.18832,178.94451l-0.16081,0.17682l-0.32161,0.14145l-0.3216,0.03536" fill="none" stroke="#8b4fff" stroke-width="0.2" stroke-linecap="round"/><path d="M241.69073,179.26973l-0.27074,-0.05557l-0.21659,-0.11115l-0.12635,-0.16672" fill="none" stroke="#8b4fff" stroke-width="0.2" stroke-linecap="round"/><path d="M240.44887,179.40183c0,0.13597 -0.19155,0.29082 -0.44575,0.29082c-0.2542,0 -0.46027,-0.11023 -0.46027,-0.2462c0,-0.13597 0.20607,-0.24619 0.46027,-0.24619c0.2542,0 0.44575,0.0656 0.44575,0.20157z" fill="none" stroke="#8b4fff" stroke-width="0.2" stroke-linecap="butt"/><path d="M239.61505,179.49202l0.27074,-0.05557h0.28879l0.16244,0.05557" fill="none" stroke="#8b4fff" stroke-width="0.2" stroke-linecap="round"/><g fill="none" stroke="#8b4fff" stroke-width="0.2"><path d="M241.67565,179.42557c0,0.13597 -0.20606,0.2462 -0.46025,0.2462c-0.2542,0 -0.43129,-0.15485 -0.43129,-0.29082c0,-0.13597 0.17709,-0.20156 0.43129,-0.20156c0.2542,0 0.46025,0.11022 0.46025,0.24618z" stroke-linecap="butt"/><path d="M240.82733,179.47114l0.27074,-0.05557h0.28879l0.16244,0.05557" stroke-linecap="round"/></g><path d="M240.9845,179.79179l-0.05415,-0.18061l-0.21659,-0.09725l-0.09025,-0.18061l-0.01805,-0.25007" fill="none" stroke="#28123b" stroke-width="0.2" stroke-linecap="round"/><path d="M240.75216,179.01965l0.01805,0.25007l0.09024,0.18061l0.2166,0.09725l0.05415,0.18062l-0.05158,0.12348l-0.03305,0.11448l-0.04958,0.34345l0.04958,0.21624l0.08263,0.07632v0.10176l-0.19831,0.10176l-0.26441,0.01272l-0.14873,-0.11448l-0.23135,-0.05088l-0.03306,0.10176l0.16526,0.0636" fill="none" stroke="#8b4fff" stroke-width="0.2" stroke-linecap="round"/><path d="M240.05503,180.72937l-0.04957,-0.10176l0.04957,-0.12721l0.09916,-0.05088" fill="none" stroke="#8b4fff" stroke-width="0.2" stroke-linecap="round"/><path d="M239.87325,181.03465l0.03305,-0.21624l0.11568,-0.30528" fill="none" stroke="#8b4fff" stroke-width="0.2" stroke-linecap="round"/><path d="M241.12919,180.55129l0.1322,0.05088v0.15264l-0.19831,0.02544" fill="none" stroke="#8b4fff" stroke-width="0.2" stroke-linecap="round"/><path d="M241.32749,180.6149l0.1322,0.20352l0.03305,0.20352" fill="none" stroke="#8b4fff" stroke-width="0.2" stroke-linecap="round"/><path d="M240.42115,181.1185l0.06624,-0.03041l0.13246,-0.0811h0.13247l0.07727,0.04055l0.07728,-0.02027l0.11039,-0.02027l0.15454,0.12165l-0.13246,0.06082c0,0 -0.05099,-0.04063 -0.08216,-0.03558c-0.03138,0.00509 -0.06695,0.05427 -0.11654,0.05585c-0.04959,0.00159 -0.10167,-0.05249 -0.13372,-0.04784c-0.03712,0.00538 -0.0981,0.0377 -0.0981,0.0377z" fill="none" stroke="#8b4fff" stroke-width="0.2" stroke-linecap="round"/><path d="M241.17261,181.15021l-0.05439,0.15839l-0.11967,0.10182l-0.33724,0.01132l-0.1523,-0.10182l-0.10879,-0.14707" fill="none" stroke="#8b4fff" stroke-width="0.2" stroke-linecap="round"/><path d="M239.60217,180.67724l0.0459,-0.27089l-0.06121,-0.11778l-0.27542,-0.04712l-0.32133,-0.17667l-0.0459,-0.27089l0.12241,-0.212" fill="none" stroke="#8b4fff" stroke-width="0.2" stroke-linecap="round"/><path d="M241.28531,182.05524l-0.26013,0.09422l-0.41313,0.02355l-1.49953,-0.53" fill="none" stroke="#8b4fff" stroke-width="0.2" stroke-linecap="round"/><path d="M239.12783,180.13545l0.0765,0.29445l0.0153,0.41222l-0.0612,0.29445l-0.09181,0.18845l-0.0459,0.16489l0.06121,0.11778" fill="none" stroke="#8b4fff" stroke-width="0.2" stroke-linecap="round"/><path d="M238.69939,180.14723l-0.39784,-0.14133l-0.32133,-0.47112l-0.0765,-0.62422l0.0918,-0.47111l0.47434,-0.37689l0.91808,-0.20022l1.34652,-0.03534l0.68856,0.14134l0.27542,0.27089l0.09181,0.30622l0.21421,0.07067l0.07651,0.18845l0.0153,0.15311l-0.06121,0.106l-0.13771,0.11778v0.32978l0.13771,0.106l0.04591,0.17667l-0.07651,0.15311l-0.33662,0.20022l-0.06121,0.12956v1.28378l0.24482,0.09421l0.06121,0.18845l-0.0765,0.08245l-0.50495,0.106l0.01531,-0.212l-0.12241,-0.12956h-0.22952" fill="none" stroke="#8b4fff" stroke-width="0.2" stroke-linecap="round"/><path d="M239.03602,178.49833l0.16832,0.18845l0.04591,0.12956l-0.10711,0.14134v0.15311" fill="none" stroke="#8b4fff" stroke-width="0.2" stroke-linecap="round"/><path d="M240.53555,178.30988l0.0306,0.09422v0.17667" fill="none" stroke="#8b4fff" stroke-width="0.2" stroke-linecap="round"/><path d="M240.41314,178.56899l0.09181,0.16489v0.12956" fill="none" stroke="#8b4fff" stroke-width="0.2" stroke-linecap="round"/><path d="M238.65349,180.12368l-0.06121,0.32978l-0.26012,0.44756l-0.29073,0.25911" fill="none" stroke="#8b4fff" stroke-width="0.2" stroke-linecap="round"/><path d="M240.21363,179.50704c0,0.03149 -0.07107,0.05702 -0.15873,0.05702c-0.08766,0 -0.15873,-0.02553 -0.15873,-0.05702c0,-0.03149 0.07107,-0.05701 0.15873,-0.05701c0.08766,0 0.15873,0.02552 0.15873,0.05701z" fill="#8b4fff" stroke="#8b4fff" stroke-width="0.2" stroke-linecap="butt"/><path d="M241.48347,179.47039c0,0.03149 -0.07107,0.05701 -0.15873,0.05701c-0.08766,0 -0.15873,-0.02552 -0.15873,-0.05701c0,-0.03149 0.07107,-0.05701 0.15873,-0.05701c0.08766,0 0.15873,0.02552 0.15873,0.05701z" fill="#8b4fff" stroke="#8b4fff" stroke-width="0.2" stroke-linecap="butt"/><path d="M236.81679,180.91821l0.4127,-0.15883l0.68254,-0.08552l0.46032,0.02444" fill="none" stroke="#8b4fff" stroke-width="0.2" stroke-linecap="round"/><path d="M241.633,181.22153l0.47117,0.14039l0.39517,0.36267" fill="none" stroke="#8b4fff" stroke-width="0.2" stroke-linecap="round"/><path d="M237.83267,182.04227l-0.22222,-0.2688l-0.06349,-0.28101l0.04762,-0.43985l0.31746,-0.30545" fill="none" stroke="#8b4fff" stroke-width="0.2" stroke-linecap="round"/><path d="M240.12258,179.49101c0,0.02465 -0.03244,0.04462 -0.07246,0.04462c-0.04002,0 -0.07246,-0.01997 -0.07246,-0.04462c0,-0.02465 0.03244,-0.04462 0.07246,-0.04462c0.04002,0 0.07246,0.01997 0.07246,0.04462z" fill="#28123b" stroke="none" stroke-width="0.2" stroke-linecap="butt"/><path d="M241.41244,179.46871c0,0.02465 -0.03245,0.04462 -0.07247,0.04462c-0.04002,0 -0.07246,-0.01998 -0.07246,-0.04462c0,-0.02465 0.03244,-0.04462 0.07246,-0.04462c0.04002,0 0.07247,0.01997 0.07247,0.04462z" fill="#28123b" stroke="none" stroke-width="0.2" stroke-linecap="butt"/><path d="M239.36896,179.45756l-0.17391,-0.06694" fill="none" stroke="#8b4fff" stroke-width="0.2" stroke-linecap="round"/><path d="M239.19505,179.55795l0.13043,-0.03347" fill="none" stroke="#8b4fff" stroke-width="0.2" stroke-linecap="round"/><path d="M241.90519,179.39062l-0.11594,0.04462" fill="none" stroke="#8b4fff" stroke-width="0.2" stroke-linecap="round"/><path d="M241.8762,179.55795l-0.13043,-0.01115" fill="none" stroke="#8b4fff" stroke-width="0.2" stroke-linecap="round"/><path d="M238.42693,178.50756c0,0 0.09838,-0.10888 0.16153,-0.14626c0.06245,-0.03698 0.21529,-0.07684 0.21529,-0.07684" fill="none" stroke="#502576" stroke-width="0.2" stroke-linecap="round"/></g></g></svg>