<svg version="1.1" xmlns="http://www.w3.org/2000/svg" xmlns:xlink="http://www.w3.org/1999/xlink" width="290.64873" height="168.61175" viewBox="0,0,290.64873,168.61175"><defs><linearGradient x1="371.72726" y1="179.85116" x2="355.51356" y2="179.85116" gradientUnits="userSpaceOnUse" id="color-1"><stop offset="0" stop-color="#10091d" stop-opacity="0"/><stop offset="1" stop-color="#10091d"/></linearGradient><radialGradient cx="358.30891" cy="124.66442" r="14.92523" gradientUnits="userSpaceOnUse" id="color-2"><stop offset="0" stop-color="#0e081b"/><stop offset="1" stop-color="#0e081b" stop-opacity="0"/></radialGradient><radialGradient cx="358.41224" cy="234.91818" r="14.92522" gradientUnits="userSpaceOnUse" id="color-3"><stop offset="0" stop-color="#0e081b"/><stop offset="1" stop-color="#0e081b" stop-opacity="0"/></radialGradient><linearGradient x1="109.07927" y1="180.02453" x2="125.29297" y2="180.02453" gradientUnits="userSpaceOnUse" id="color-4"><stop offset="0" stop-color="#0e081b" stop-opacity="0"/><stop offset="1" stop-color="#0e081b"/></linearGradient><radialGradient cx="122.49761" cy="124.83779" r="14.92522" gradientUnits="userSpaceOnUse" id="color-5"><stop offset="0" stop-color="#0d0819"/><stop offset="1" stop-color="#0d0819" stop-opacity="0"/></radialGradient><radialGradient cx="122.39429" cy="235.09154" r="14.92522" gradientUnits="userSpaceOnUse" id="color-6"><stop offset="0" stop-color="#0d0819"/><stop offset="1" stop-color="#0d0819" stop-opacity="0"/></radialGradient><linearGradient x1="240.43849" y1="249.90567" x2="240.43849" y2="233.69197" gradientUnits="userSpaceOnUse" id="color-7"><stop offset="0" stop-color="#0d0819" stop-opacity="0"/><stop offset="1" stop-color="#0d0819"/></linearGradient><linearGradient x1="240.46119" y1="110.47665" x2="240.46119" y2="126.69035" gradientUnits="userSpaceOnUse" id="color-8"><stop offset="0" stop-color="#0e081b" stop-opacity="0"/><stop offset="1" stop-color="#0e081b"/></linearGradient><radialGradient cx="132.4976" cy="134.83779" r="14.92522" gradientUnits="userSpaceOnUse" id="color-9"><stop offset="0" stop-color="#452880"/><stop offset="1" stop-color="#452880" stop-opacity="0"/></radialGradient></defs><g transform="translate(-95.07889,-95.57211)"><g data-paper-data="{&quot;isPaintingLayer&quot;:true}" fill-rule="nonzero" stroke-linejoin="miter" stroke-miterlimit="10" stroke-dasharray="" stroke-dashoffset="0" style="mix-blend-mode: normal"><path d="M355.51356,120.50165h16.2137v118.69902h-16.2137z" fill="url(#color-1)" stroke="none" stroke-width="0" stroke-linecap="butt"/><path d="M361.18231,120.45646l0.10401,-24.88435l24.29277,0.1643l0.04522,24.82406z" fill="url(#color-2)" stroke="none" stroke-width="0" stroke-linecap="butt"/><path d="M385.72763,239.02213l-0.04522,24.82406l-24.29277,0.16431l-0.10401,-24.88436z" data-paper-data="{&quot;index&quot;:null}" fill="url(#color-3)" stroke="none" stroke-width="0" stroke-linecap="butt"/><path d="M125.29297,239.37404h-16.2137v-118.69902h16.2137z" fill="url(#color-4)" stroke="none" stroke-width="0" stroke-linecap="butt"/><path d="M95.18222,120.73384l0.04522,-24.82406l24.29277,-0.1643l0.10401,24.88436z" fill="url(#color-5)" stroke="none" stroke-width="0" stroke-linecap="butt"/><path d="M119.5209,239.2995l-0.10401,24.88436l-24.29277,-0.16431l-0.04522,-24.82406z" data-paper-data="{&quot;index&quot;:null}" fill="url(#color-6)" stroke="none" stroke-width="0" stroke-linecap="butt"/><path d="M361.36003,233.69197v16.2137h-241.84309v-16.2137z" data-paper-data="{&quot;index&quot;:null}" fill="url(#color-7)" stroke="none" stroke-width="0" stroke-linecap="butt"/><path d="M119.53964,126.69035v-16.2137h241.84309v16.2137z" fill="url(#color-8)" stroke="none" stroke-width="0" stroke-linecap="butt"/><path d="M257.55521,222.63318c0,0 -1.61274,0.9827 -3.43333,0.93333c-1.89187,-0.05131 -3.06667,-0.93333 -3.06667,-0.93333" data-paper-data="{&quot;index&quot;:null}" fill="none" stroke="#28123b" stroke-width="1" stroke-linecap="round"/><path d="M285.68021,222.57392c0,0 -1.61274,0.9827 -3.43333,0.93333c-1.89187,-0.05131 -3.06667,-0.93333 -3.06667,-0.93333" data-paper-data="{&quot;index&quot;:null}" fill="none" stroke="#28123b" stroke-width="1" stroke-linecap="round"/><path d="M313.34416,222.69244c0,0 -1.61274,0.9827 -3.43333,0.93333c-1.89187,-0.05131 -3.06667,-0.93333 -3.06667,-0.93333" data-paper-data="{&quot;index&quot;:null}" fill="none" stroke="#28123b" stroke-width="1" stroke-linecap="round"/><path d="M341.48137,222.7736c0,0 -1.61274,0.9827 -3.43333,0.93333c-1.89187,-0.05131 -3.06667,-0.93333 -3.06667,-0.93333" data-paper-data="{&quot;index&quot;:null}" fill="none" stroke="#28123b" stroke-width="1" stroke-linecap="round"/><path d="M333.91867,226.93021v-2.86667h8.2v2.86667z" data-paper-data="{&quot;index&quot;:null}" fill="#28123b" stroke="#8b4fff" stroke-width="0" stroke-linecap="butt"/><path d="M341.47267,223.52538c0,0 -1.61274,0.9827 -3.43333,0.93333c-1.89187,-0.05131 -3.06667,-0.93333 -3.06667,-0.93333" data-paper-data="{&quot;index&quot;:null}" fill="none" stroke="#8b4fff" stroke-width="1" stroke-linecap="round"/><path d="M305.96727,226.93021v-2.86667h8.2v2.86667z" data-paper-data="{&quot;index&quot;:null}" fill="#28123b" stroke="#8b4fff" stroke-width="0" stroke-linecap="butt"/><path d="M313.46361,223.52538c0,0 -1.61274,0.9827 -3.43333,0.93333c-1.89187,-0.05131 -3.06667,-0.93333 -3.06667,-0.93333" data-paper-data="{&quot;index&quot;:null}" fill="none" stroke="#8b4fff" stroke-width="1" stroke-linecap="round"/><path d="M278.56533,227.09689v-2.86667h8.2v2.86667z" data-paper-data="{&quot;index&quot;:null}" fill="#28123b" stroke="#8b4fff" stroke-width="0" stroke-linecap="butt"/><path d="M285.66894,223.5961c0,0 -1.61274,0.9827 -3.43333,0.93333c-1.89187,-0.05131 -3.06667,-0.93333 -3.06667,-0.93333" data-paper-data="{&quot;index&quot;:null}" fill="none" stroke="#8b4fff" stroke-width="1" stroke-linecap="round"/><path d="M250.19936,227.09689v-2.86667h8.2v2.86667z" data-paper-data="{&quot;index&quot;:null}" fill="#28123b" stroke="#8b4fff" stroke-width="0" stroke-linecap="butt"/><path d="M257.49927,223.4957c0,0 -1.61274,0.9827 -3.43333,0.93333c-1.89187,-0.05131 -3.06667,-0.93333 -3.06667,-0.93333" data-paper-data="{&quot;index&quot;:null}" fill="none" stroke="#8b4fff" stroke-width="1" stroke-linecap="round"/><path d="M145.34439,222.72426c0,0 -1.61274,0.9827 -3.43333,0.93333c-1.89187,-0.05131 -3.06667,-0.93333 -3.06667,-0.93333" data-paper-data="{&quot;index&quot;:null}" fill="none" stroke="#28123b" stroke-width="1" stroke-linecap="round"/><path d="M173.4694,222.665c0,0 -1.61274,0.9827 -3.43333,0.93333c-1.89187,-0.05131 -3.06667,-0.93333 -3.06667,-0.93333" data-paper-data="{&quot;index&quot;:null}" fill="none" stroke="#28123b" stroke-width="1" stroke-linecap="round"/><path d="M201.13338,222.78352c0,0 -1.61274,0.9827 -3.43333,0.93333c-1.89187,-0.05131 -3.06667,-0.93333 -3.06667,-0.93333" data-paper-data="{&quot;index&quot;:null}" fill="none" stroke="#28123b" stroke-width="1" stroke-linecap="round"/><path d="M229.27051,222.86468c0,0 -1.61274,0.9827 -3.43333,0.93333c-1.89187,-0.05131 -3.06667,-0.93333 -3.06667,-0.93333" data-paper-data="{&quot;index&quot;:null}" fill="none" stroke="#28123b" stroke-width="1" stroke-linecap="round"/><path d="M222.03118,227.02129v-2.86667h8.2v2.86667z" data-paper-data="{&quot;index&quot;:null}" fill="#28123b" stroke="#8b4fff" stroke-width="0" stroke-linecap="butt"/><path d="M229.2618,223.61646c0,0 -1.61274,0.9827 -3.43333,0.93333c-1.89187,-0.05131 -3.06667,-0.93333 -3.06667,-0.93333" data-paper-data="{&quot;index&quot;:null}" fill="none" stroke="#8b4fff" stroke-width="1" stroke-linecap="round"/><path d="M193.75644,227.02129v-2.86667h8.2v2.86667z" data-paper-data="{&quot;index&quot;:null}" fill="#28123b" stroke="#8b4fff" stroke-width="0" stroke-linecap="butt"/><path d="M201.25281,223.61646c0,0 -1.61274,0.9827 -3.43333,0.93333c-1.89187,-0.05131 -3.06667,-0.93333 -3.06667,-0.93333" data-paper-data="{&quot;index&quot;:null}" fill="none" stroke="#8b4fff" stroke-width="1" stroke-linecap="round"/><path d="M166.3545,227.18797v-2.86667h8.2v2.86667z" data-paper-data="{&quot;index&quot;:null}" fill="#28123b" stroke="#8b4fff" stroke-width="0" stroke-linecap="butt"/><path d="M173.45814,223.68718c0,0 -1.61274,0.9827 -3.43333,0.93333c-1.89187,-0.05131 -3.06667,-0.93333 -3.06667,-0.93333" data-paper-data="{&quot;index&quot;:null}" fill="none" stroke="#8b4fff" stroke-width="1" stroke-linecap="round"/><path d="M137.98846,227.18797v-2.86667h8.2v2.86667z" data-paper-data="{&quot;index&quot;:null}" fill="#28123b" stroke="#8b4fff" stroke-width="0" stroke-linecap="butt"/><path d="M145.28842,223.58678c0,0 -1.61274,0.9827 -3.43333,0.93333c-1.89187,-0.05131 -3.06667,-0.93333 -3.06667,-0.93333" data-paper-data="{&quot;index&quot;:null}" fill="none" stroke="#8b4fff" stroke-width="1" stroke-linecap="round"/><path d="M251.15165,138.1784c0,0 1.1748,-0.88202 3.06667,-0.93333c1.82059,-0.04937 3.43333,0.93333 3.43333,0.93333" fill="none" stroke="#28123b" stroke-width="1" stroke-linecap="round"/><path d="M279.27657,138.23766c0,0 1.1748,-0.88202 3.06667,-0.93333c1.82059,-0.04937 3.43333,0.93333 3.43333,0.93333" fill="none" stroke="#28123b" stroke-width="1" stroke-linecap="round"/><path d="M306.9406,138.11914c0,0 1.1748,-0.88202 3.06667,-0.93333c1.82059,-0.04937 3.43333,0.93333 3.43333,0.93333" fill="none" stroke="#28123b" stroke-width="1" stroke-linecap="round"/><path d="M335.07768,138.03797c0,0 1.1748,-0.88202 3.06667,-0.93333c1.82059,-0.04937 3.43333,0.93333 3.43333,0.93333" fill="none" stroke="#28123b" stroke-width="1" stroke-linecap="round"/><path d="M342.2151,133.88137v2.86667h-8.2v-2.86667z" fill="#28123b" stroke="#8b4fff" stroke-width="0" stroke-linecap="butt"/><path d="M335.06899,137.28619c0,0 1.1748,-0.88202 3.06667,-0.93333c1.82059,-0.04937 3.43333,0.93333 3.43333,0.93333" fill="none" stroke="#8b4fff" stroke-width="1" stroke-linecap="round"/><path d="M314.26368,133.88137v2.86667h-8.2v-2.86667z" fill="#28123b" stroke="#8b4fff" stroke-width="0" stroke-linecap="butt"/><path d="M307.06005,137.28619c0,0 1.1748,-0.88202 3.06667,-0.93333c1.82059,-0.04937 3.43333,0.93333 3.43333,0.93333" fill="none" stroke="#8b4fff" stroke-width="1" stroke-linecap="round"/><path d="M286.86171,133.71469v2.86667h-8.2v-2.86667z" fill="#28123b" stroke="#8b4fff" stroke-width="0" stroke-linecap="butt"/><path d="M279.26536,137.21547c0,0 1.1748,-0.88202 3.06667,-0.93333c1.82059,-0.04937 3.43333,0.93333 3.43333,0.93333" fill="none" stroke="#8b4fff" stroke-width="1" stroke-linecap="round"/><path d="M258.49568,133.71469v2.86667h-8.2v-2.86667z" fill="#28123b" stroke="#8b4fff" stroke-width="0" stroke-linecap="butt"/><path d="M251.09571,137.31588c0,0 1.1748,-0.88202 3.06667,-0.93333c1.82059,-0.04937 3.43333,0.93333 3.43333,0.93333" fill="none" stroke="#8b4fff" stroke-width="1" stroke-linecap="round"/><path d="M138.94073,138.08732c0,0 1.1748,-0.88202 3.06667,-0.93333c1.82059,-0.04937 3.43333,0.93333 3.43333,0.93333" fill="none" stroke="#28123b" stroke-width="1" stroke-linecap="round"/><path d="M167.06573,138.14658c0,0 1.1748,-0.88202 3.06667,-0.93333c1.82059,-0.04937 3.43333,0.93333 3.43333,0.93333" fill="none" stroke="#28123b" stroke-width="1" stroke-linecap="round"/><path d="M194.72976,138.02806c0,0 1.1748,-0.88202 3.06667,-0.93333c1.82059,-0.04937 3.43333,0.93333 3.43333,0.93333" fill="none" stroke="#28123b" stroke-width="1" stroke-linecap="round"/><path d="M222.86689,137.94689c0,0 1.1748,-0.88202 3.06667,-0.93333c1.82059,-0.04937 3.43333,0.93333 3.43333,0.93333" fill="none" stroke="#28123b" stroke-width="1" stroke-linecap="round"/><path d="M230.32756,133.79029v2.86667h-8.2v-2.86667z" fill="#28123b" stroke="#8b4fff" stroke-width="0" stroke-linecap="butt"/><path d="M222.85819,137.19511c0,0 1.1748,-0.88202 3.06667,-0.93333c1.82059,-0.04937 3.43333,0.93333 3.43333,0.93333" fill="none" stroke="#8b4fff" stroke-width="1" stroke-linecap="round"/><path d="M202.05282,133.79029v2.86667h-8.2v-2.86667z" fill="#28123b" stroke="#8b4fff" stroke-width="0" stroke-linecap="butt"/><path d="M194.84919,137.19511c0,0 1.1748,-0.88202 3.06667,-0.93333c1.82059,-0.04937 3.43333,0.93333 3.43333,0.93333" fill="none" stroke="#8b4fff" stroke-width="1" stroke-linecap="round"/><path d="M174.6509,133.62361v2.86667h-8.2v-2.86667z" fill="#28123b" stroke="#8b4fff" stroke-width="0" stroke-linecap="butt"/><path d="M167.05445,137.1244c0,0 1.1748,-0.88202 3.06667,-0.93333c1.82059,-0.04937 3.43333,0.93333 3.43333,0.93333" fill="none" stroke="#8b4fff" stroke-width="1" stroke-linecap="round"/><path d="M146.28484,133.62361v2.86667h-8.2v-2.86667z" fill="#28123b" stroke="#8b4fff" stroke-width="0" stroke-linecap="butt"/><path d="M138.88478,137.2248c0,0 1.1748,-0.88202 3.06667,-0.93333c1.82059,-0.04937 3.43333,0.93333 3.43333,0.93333" fill="none" stroke="#8b4fff" stroke-width="1" stroke-linecap="round"/><path d="M349.77214,238.19485v-106.33333h10.33333v106.33333z" fill="#452880" stroke="none" stroke-width="0" stroke-linecap="butt"/><path d="M119.71945,238.5141v-116.66667h10.66667v116.66667z" fill="#452880" stroke="none" stroke-width="0" stroke-linecap="butt"/><path d="M130.05276,133.18073v-10.66667h229.66667v10.66667z" fill="#462882" stroke="none" stroke-width="0" stroke-linecap="butt"/><path d="M121.70945,238.5141v-10h231.33333v10z" fill="#452880" stroke="none" stroke-width="0" stroke-linecap="butt"/><path d="M130.28063,227.8859v-95.06667h220v95.06667z" fill="none" stroke="#8b4fff" stroke-width="2" stroke-linecap="butt"/><path d="M120.28071,238.4859v-117h240v117z" fill="none" stroke="#8b4fff" stroke-width="2" stroke-linecap="butt"/><path d="M128.501,229.90833l-0.1,-98.98034l223.9136,-0.0998v99.08014z" fill="none" stroke="#8b4fff" stroke-width="0.5" stroke-linecap="butt"/><path d="M122.30147,236.446l-0.10544,-112.79082l236.08863,-0.11372v112.90454z" fill="none" stroke="#8b4fff" stroke-width="0.5" stroke-linecap="butt"/><path d="M105.18222,130.73384l0.04522,-24.82406l24.29277,-0.1643l0.10401,24.88436z" fill="url(#color-9)" stroke="none" stroke-width="0" stroke-linecap="butt"/><path d="M201.763,126.74196c0,0.5 -0.5,0.5 -0.5,0.5h-0.48866c-0.94354,0 -1.70278,0.00969 -2.62658,0.24059c-6.3342,0.02389 -12.27475,3.42441 -18.63044,3.42441c-2.10175,-0.01991 -6.91084,-1.81557 -6.01621,-3.32619c-1.03626,0.4433 -2.01098,0.93981 -2.83687,1.43414c-0.56309,0.11662 -1.1462,0.22331 -1.73812,0.31458c-0.34363,0.37311 -0.97919,0.67022 -1.9479,0.81381c-1.25583,0.18615 -2.51466,-0.02111 -3.77857,0.19124c-1.42659,0.11777 -3.68709,0.26807 -5.05983,-0.17531c-0.79528,-0.25687 -1.35376,-0.82741 -0.4367,-1.60828c1.02008,-0.8686 3.90534,-0.32512 5.0502,-0.10087c0.43438,0.08508 0.83697,0.70284 1.23028,0.49977c1.20629,-0.6228 2.82059,-0.60422 4.38735,-0.67448c-0.47971,-0.51551 -1.83487,-0.97618 -2.35305,-1.03714c-2.6475,-0.31149 -5.98566,-0.09402 -8.62185,0.42558c-1.88216,0.36614 -3.58668,1.44957 -5.37353,1.76379c-3.63088,0.6385 -9.28989,0.04832 -12.5229,-1.49068c-3.15396,-1.04269 -6.19729,-1.76166 -9.53433,-1.64743c-0.84502,0.02893 -3.61547,0.44563 -3.457,1.18548c0,0 0,0.5 -0.5,0.5c-0.5,0 -0.5,-0.5 -0.5,-0.5c0.12987,-1.41095 2.02598,-1.9575 3.38618,-2.12738c3.76414,-0.47011 7.45778,0.48025 10.98783,1.66544c2.92616,1.55926 8.56001,1.95788 11.91045,1.44132c1.74617,-0.26922 3.55823,-1.41146 5.41233,-1.77214c2.63228,-0.50592 7.54582,-1.19863 10.04567,-0.15524c1.06393,0.44406 1.74536,1.07963 1.93416,1.69958c0.38285,-0.03079 0.7578,-0.07503 1.1178,-0.14399c3.61069,-2.1917 7.7782,-3.06225 11.97027,-3.06225c1.8185,0 7.96244,0.71834 3.55994,2.8975c-2.86506,0.14068 -5.49066,-0.4315 -8.27027,-0.4315c-1.19985,0 -1.46566,0.03752 -2.49632,0.45061c-0.20968,0.08403 -0.70179,0.07957 -0.99737,0.06605c1.78397,0.20306 3.40378,1.92782 5.44836,1.90401c6.30698,0 12.20841,-3.44402 18.50825,-3.41692c0.95315,-0.23834 1.77301,-0.24808 2.74876,-0.24808h0.48866c0,0 0.5,0 0.5,0.5zM177.69531,126.23692c2.57704,-0.00546 5.51352,0.77527 7.8889,0.7123c0.32315,-0.16394 1.3048,-0.19177 1.00989,-0.40232c-1.65185,-1.17936 -5.3875,-0.64503 -7.28993,-0.52757c-0.51275,0.03166 -1.05338,0.10694 -1.60886,0.2176z" fill="#8b4fff" stroke="none" stroke-width="0.5" stroke-linecap="butt"/><path d="M291.43335,125.76407c0.00056,0.5 -0.49944,0.50055 -0.49944,0.50055l-0.04284,0.00005c-2.46667,0.0027 -4.35771,0.48893 -6.72537,0.98131c-0.25039,0.09181 -0.50216,0.17724 -0.75521,0.2566c-1.37288,1.33319 -5.51398,1.57549 -6.79336,1.92522c-3.98696,0.0452 -7.97688,1.51829 -11.97595,0.78136c-0.56567,-0.10424 -2.79213,-0.49302 -3.14038,-0.918c-0.10927,-0.13334 -0.19629,-0.26306 -0.26311,-0.38905c-1.48652,-0.32564 -2.9871,-0.77418 -4.4742,-1.12504c0.1653,0.70263 -0.14396,1.67227 -0.72488,2.06038c-1.45896,0.97474 -5.68926,0.21314 -7.31874,-0.09688c-0.05654,-0.01076 -1.70985,-0.30618 -1.82395,-0.40093c-1.25699,-1.04372 0.13168,-2.07624 0.97257,-2.51478c0.29395,-0.1533 0.64799,-0.30015 1.03628,-0.4286c-2.62487,0.15676 -5.40704,0.77488 -7.3475,1.77024c0,0 -0.35747,0.17873 -0.59302,-0.10299c-0.44018,1.61422 -3.62578,1.82942 -4.99924,1.86606c-2.13116,0.00009 -4.57264,0.33648 -6.67304,-0.00479c-0.82895,-0.13468 -1.59495,-0.40396 -2.35109,-0.69516c-1.46558,0.39801 -3.24172,0.45129 -4.85541,0.24336c-1.49266,0.03174 -2.98396,0.00477 -4.47069,-0.10671c-0.26499,-0.59435 -0.26111,-1.04203 -0.07823,-1.37851c-0.65087,-0.26729 -1.30671,-0.47436 -1.89123,-0.46129c-1.41878,0.66598 -3.25015,0.63827 -5.08357,0.45324c-0.33696,0.02682 -0.67064,0.0489 -0.99841,0.0638c-3.5285,0.81676 -7.09205,2.2035 -10.75396,2.13032c-0.8699,-0.01738 -6.83706,-1.09081 -3.60786,-2.66958c0.82652,-0.40409 2.63411,-0.20199 3.60424,-0.38102c4.95077,-0.88633 9.74043,-3.23588 15.00113,-2.27378c1.53991,0.28163 2.48177,-0.14904 3.5914,1.11447c-0.14808,0.24137 -0.31244,0.45736 -0.49134,0.65027c0.71685,0.10757 1.42664,0.30283 2.13415,0.53038c0.95942,-0.19139 2.1275,-0.15284 2.88035,-0.13056c1.85738,0.05496 3.38235,0.68413 4.96961,1.23167c0.30447,-0.10885 0.61139,-0.24529 0.92106,-0.41299c2.85781,-1.49363 5.97045,-1.83508 9.16889,-1.83508c0.84192,0 3.32555,-0.32043 3.80066,0.7258c0.03953,0.08705 0.07371,0.17172 0.10279,0.25409c0.08391,0.00874 0.28117,0.0473 0.38828,0.21742c3.12998,-1.4577 7.89142,-2.18163 11.38036,-1.67953c1.32264,0.19034 2.69788,-0.02381 3.43482,1.05908c1.6741,0.34389 3.36597,0.89427 5.04064,1.2895c0.4234,-1.19295 2.73064,-1.85469 3.7197,-1.86508c1.52364,0.21864 3.08375,0.47952 4.65976,0.71621c0.53768,-0.36737 1.07449,-0.76634 1.67639,-1.16343c2.96806,-0.76274 6.89665,-1.34869 9.85633,-0.56973c0.67556,0.1778 2.5741,0.3868 2.79358,1.32305c0.01905,-0.00686 0.03809,-0.01376 0.05712,-0.0207c2.4481,-0.51014 4.44948,-1.01678 6.99853,-1.01966l0.04284,-0.00005c0,0 0.5,-0.00055 0.50055,0.49945zM268.17618,127.52197c-1.14795,-0.17911 -2.28391,-0.36256 -3.39974,-0.52563c-0.24722,-0.00352 -2.15796,0.53371 -2.63488,1.0853c1.36429,0.26016 2.71233,0.36733 4.02492,0.12302c0.77171,-0.14363 1.41852,-0.38293 2.0097,-0.68268zM255.50335,127.50738c-0.86123,-0.16195 -1.71522,-0.26946 -2.55653,-0.2788c-1.14007,-0.57535 -2.94401,-0.10296 -4.1285,0.2332c-0.17269,0.04901 -1.84432,0.90949 -1.31887,1.08049c1.53197,0.49857 6.56132,1.32246 7.96065,0.47953c0.26495,-0.1596 0.70029,-1.11531 0.15588,-1.21925c-0.03354,-0.10772 -0.07117,-0.20582 -0.11262,-0.29518zM265.54125,129.29774c0.08449,0.00791 0.16344,0.0154 0.23568,0.02265c3.59116,0.36054 7.12305,-0.86519 10.70108,-0.88288c0.04952,-0.014 0.09903,-0.02798 0.14853,-0.04195c-2.29514,-0.02464 -4.62063,-0.30195 -6.91322,-0.63951c-0.99282,0.64724 -2.01812,1.18232 -3.36845,1.43255c-0.2663,0.04935 -0.53424,0.08524 -0.80363,0.10914zM270.93156,126.92001c4.02668,0.54964 8.11621,0.81398 11.9305,-0.29866c0.00176,-0.01246 0.00324,-0.02514 0.00439,-0.03806c0.0183,-0.20427 -2.78634,-0.79023 -3.03767,-0.84665c-2.3427,-0.52587 -5.87691,0.15882 -8.23979,0.72957c-0.22485,0.15205 -0.44307,0.30385 -0.65742,0.45379zM239.20178,126.98762c-0.80558,-0.07753 -2.01331,0.01 -2.22076,0.01c-2.36535,0 -4.74263,0.15649 -6.94886,0.93734c2.37949,-0.27484 4.75297,-0.58761 7.12115,-0.80415c0.69502,-0.06319 1.36441,-0.11905 2.04847,-0.14319zM224.73863,128.42853c-0.30398,-0.08859 -0.61412,-0.16425 -0.93348,-0.2205c-0.77087,-0.13575 -1.59455,-0.23322 -2.4103,-0.26224c0.6502,0.21203 1.30291,0.39945 1.96181,0.5194c0.38807,0.00385 0.77432,-0.00153 1.15751,-0.02342c0.07483,-0.00428 0.14965,-0.00869 0.22447,-0.01324zM215.79419,126.52536c0.22559,-0.13334 0.42953,-0.2895 0.60819,-0.47138c-3.47701,-1.37041 -7.4472,-0.5722 -11.2254,0.44698c1.21986,0.06682 2.85562,0.34733 4.52785,0.53659c1.94846,-0.11777 4.07911,-0.45827 5.87483,-0.50954c0.07161,-0.00204 0.14311,-0.00291 0.21453,-0.00265zM207.37349,127.59535c-0.59989,-0.06472 -1.16927,-0.10905 -1.68982,-0.10905c-0.70738,0 -4.11328,-0.28769 -4.21779,0.21228c0,0 -0.2236,0.44721 -0.67082,0.2236c-0.0967,-0.04835 -0.16203,-0.10715 -0.20504,-0.16963c-0.54683,0.13501 -1.08196,0.25553 -1.60279,0.35411c-0.42993,0.07931 -3.50719,0.21291 -3.58336,0.42573c-0.18229,0.50933 0.98304,0.5138 1.52165,0.5643c1.22384,0.11473 2.58205,0.18135 3.80758,0.07898c2.19369,-0.18325 4.44732,-0.94433 6.64039,-1.58031zM239.83465,127.97502c-0.88002,0.00239 -1.71249,0.07183 -2.5908,0.15168c-2.55357,0.23085 -5.13591,0.55013 -7.73014,0.82117c2.02281,0.3171 4.39216,-0.01829 6.43796,-0.0182c0.87236,-0.02342 3.2892,-0.03883 3.88298,-0.95465z" fill="#8b4fff" stroke="none" stroke-width="0.5" stroke-linecap="butt"/><path d="M302.52378,129.92962c-0.51783,0.17718 -1.71054,0.1938 -2.06859,0.21078c-1.04531,0.04955 -1.9934,-0.04792 -2.89826,-0.22966c-0.13688,0.02933 -0.27381,0.05919 -0.4108,0.08963c-2.87286,0.47887 -7.67855,1.31584 -10.21752,-0.93689c-2.69734,-2.39325 3.10124,-3.55453 4.24906,-3.55453c0,0 0.5,0 0.5,0.5c0,0.09817 -0.01928,0.17708 -0.05026,0.24048c1.03636,-0.3381 2.97721,-0.20101 3.92404,-0.25123c2.38925,-0.12673 4.76476,-0.24406 7.14082,-0.33203c0.62213,-0.09935 1.27622,-0.15722 1.98675,-0.15722c0.70814,0 1.41277,0.01391 2.11466,0.03839c1.23333,-0.02467 2.469,-0.03839 3.70901,-0.03839c0.98146,0 1.96044,-0.05011 2.93903,-0.10648c1.6174,-0.31235 3.28985,-0.30978 4.98111,-0.1275c1.98483,0.08964 3.96594,0.33876 5.94547,0.54249c1.95466,-0.68252 4.41595,-1.02631 6.31131,-1.27939c0.55608,-0.07425 2.37353,0.53155 2.76733,1.3209c0.84343,-0.00813 1.69232,0.03749 2.48565,0.14621c0.32259,-0.16758 0.63193,-0.31432 0.92116,-0.42288c1.63286,-0.61292 3.89943,-1.0457 5.63395,-1.05068c1.2502,-0.00359 5.45555,-0.37715 3.59566,2.30433c-0.17847,0.2573 -0.5,0.33272 -0.82565,0.40758c0.22296,-0.01542 0.44733,-0.02384 0.67333,-0.02424c1.20186,0.00527 3.1669,-0.62837 4.90293,-0.87041c-0.34216,-0.20158 -0.7788,-0.26999 -1.37647,-0.10099l-0.00719,0.0018c0,0 -0.48507,0.12126 -0.60634,-0.3638c-0.12127,-0.48507 0.3638,-0.60634 0.3638,-0.60634l0.00719,-0.0018c1.38462,-0.31363 2.48802,0.09301 3.25419,0.99892c0.38973,0.03648 0.73993,0.12485 1.03208,0.28429c0.52195,0.28485 1.25457,2.17006 0.1098,2.37458c-0.99696,0.17811 -1.38445,-0.66914 -1.8435,-1.47454c-0.06525,0.0102 -0.13009,0.01845 -0.19423,0.02323c-1.90339,0.14178 -3.73018,0.72768 -5.64228,0.73506c-6.46376,-0.01259 -13.61996,4.47426 -19.99467,0.7402c0,-0.42965 0.08066,-0.78304 0.22454,-1.07613c-0.84473,-0.2144 -1.7004,-0.43644 -2.56126,-0.64744c-1.63609,1.09586 -2.22015,2.84483 -4.57621,2.93797c-0.59893,-0.04234 -1.18786,-0.07843 -1.76802,-0.12239c-0.26715,0.07135 -0.492,0.11267 -0.63162,0.1212c-2.1139,0.12903 -3.94888,-0.50471 -5.99931,-0.83217c-0.04402,-0.00703 -0.43491,-0.08068 -0.89225,-0.17183c-2.40407,0.16617 -5.01884,0.76093 -7.0709,0.76093zM291.70354,128.17281c-0.84483,-0.83565 -0.91556,-1.34891 -0.56793,-1.66392c-1.13063,-0.00359 -2.11971,-0.1453 -3.06077,0.61908c-0.09233,0.075 -1.02803,0.8358 -0.46675,1.2018c2.24313,1.46272 5.08863,1.3238 7.65304,0.95765c-1.13927,-0.36749 -2.28479,-0.78593 -3.5576,-1.11461zM330.83725,127.059c-0.0836,0.0056 -0.16719,0.01073 -0.25078,0.01541c-0.57186,0.07417 -1.3541,0.19724 -2.0602,0.37299c0.93885,0.20808 1.85962,0.3855 2.75529,0.506c0.78245,0.02869 1.6929,-0.35218 2.60696,-0.82884c-0.35728,-0.05218 -0.7097,-0.09401 -1.05558,-0.12129c-0.58132,0.2682 -1.33842,0.01152 -1.99569,0.05573zM327.72371,126.08242c1.01558,0.04465 2.03106,0.04682 3.04673,-0.02119c0.01905,-0.00127 0.03934,-0.00218 0.06077,-0.00276c0.38382,-0.05667 0.7856,-0.10225 1.19754,-0.13554c-0.36763,-0.25287 -0.49619,-0.54216 -1.18892,-0.39776c-1.02684,0.21404 -2.07346,0.38428 -3.11611,0.55725zM321.72248,127.48412c-0.76511,-0.00678 -1.52681,-0.02912 -2.28609,-0.06277c0.61573,0.69311 0.33469,1.28756 -0.25028,1.74482c1.41278,-0.10076 1.83858,-0.87738 2.53636,-1.68205zM306.38769,126.53439c-1.05198,0.0143 -2.10284,0.03554 -3.15371,0.06596c-1.77832,0.22765 -3.22611,0.84154 -4.99421,1.39414c0.84047,0.0052 1.7582,0.15586 2.55888,0.2942c2.43848,-0.39615 4.87212,-0.68805 7.33465,-1.02298c0.21519,-0.24141 0.53138,-0.44272 0.88596,-0.60865c-0.87362,-0.05418 -1.75029,-0.09725 -2.63155,-0.12268zM298.6445,126.7983c-0.34647,0.02035 -0.69312,0.04205 -1.03999,0.06517c-1.27359,0.08491 -6.03254,0.27394 -5.47228,0.4059c1.19394,0.28749 2.29819,0.80864 3.43538,1.24031c-0.00215,-0.01883 -0.00326,-0.03798 -0.00326,-0.05739c0,-0.1601 0.07524,-0.30263 0.1923,-0.39414l0.67438,-0.53679l0.02006,0.02521l0.06586,-0.08029c0.76064,-0.21277 1.45872,-0.44286 2.12753,-0.66799zM297.0329,128.92878l-0.00385,0.05402c0.01388,0.0035 0.02777,0.00697 0.04167,0.01041c0.05092,-0.01122 0.10183,-0.02236 0.15273,-0.03342c-0.06349,-0.00994 -0.127,-0.02026 -0.19055,-0.031zM316.6194,126.25204c1.05248,0.07681 2.10706,0.14199 3.16647,0.18394c-0.33247,-0.05317 -0.66446,-0.10064 -0.99565,-0.14135c-0.20935,-0.01159 -0.41875,-0.02159 -0.62822,-0.02976c-0.51488,-0.02009 -1.02899,-0.02224 -1.5426,-0.01284zM308.17179,128.80585c-0.13055,-0.17543 -0.21897,-0.34099 -0.27115,-0.49713c-1.55007,0.20843 -3.0919,0.40282 -4.63207,0.62033c1.78092,-0.00332 3.50715,-0.02002 5.21317,-0.02729c-0.1782,-0.04335 -0.29658,-0.07796 -0.30995,-0.09591zM326.91084,127.06811c0.01557,-0.00997 0.03128,-0.01981 0.04713,-0.02951c-0.07608,-0.00481 -0.15215,-0.00981 -0.22823,-0.01499c0.06043,0.01489 0.12079,0.02973 0.18111,0.0445zM340.58441,128.2825c-1.47519,-0.09377 -3.04264,-0.45115 -4.58181,-0.76965c-1.62606,0.73871 -3.22964,1.40354 -4.78735,1.43833c-1.35454,-0.17978 -2.77879,-0.50093 -4.2421,-0.86377c-0.11863,0.10705 -0.18608,0.22243 -0.18608,0.34634c3.26508,0.37694 6.42425,1.05956 9.79198,0.7422c1.37568,-0.12964 2.69392,-0.50542 4.00537,-0.89346zM309.20869,128.12898c1.32855,0.14301 2.71107,0.53581 4.1012,0.79697c1.48244,0.02714 2.9744,0.07794 4.49878,0.16752c0.07411,-0.01941 0.1407,-0.04237 0.1977,-0.06947c0.35057,-0.16663 1.05864,-0.91909 0.6718,-0.95116c-0.58121,-0.04818 -1.18703,-0.04355 -1.73118,-0.25342c-2.02873,-0.82497 -4.53323,-0.16392 -6.6379,0.15012c-0.36742,0.05483 -0.73419,0.1078 -1.10041,0.15943zM338.18956,126.52973c1.98542,0.59732 4.10266,1.31151 6.00188,0.02411c2.93061,-1.46104 -1.14755,-1.19721 -2.6045,-1.02811c-1.1331,0.13151 -2.26809,0.52654 -3.39738,1.004z" fill="#8b4fff" stroke="none" stroke-width="0.5" stroke-linecap="butt"/><path d="M186.13506,126.53908c0.44721,-0.22361 0.67082,0.22361 0.67082,0.22361l0.05999,0.28694c1.28881,-0.13912 2.50857,-0.39302 3.71171,-0.67443c0.31465,-0.5135 0.91584,-0.9413 1.52077,-1.14391c3.02962,-0.60041 7.11449,-1.48437 10.17935,-0.45424c1.18353,0.3978 1.37406,1.00309 2.18018,1.53959c1.27242,0.84683 3.85208,0.89812 5.54535,0.9139c0.43641,0.02818 0.88414,0.079 1.33705,0.13219c-0.43277,-2.35845 5.93688,-3.10572 7.40362,-3.17587c6.90533,-0.33029 13.96687,0.9558 20.72982,2.30848c3.5514,0.65959 7.15177,0.72889 10.7061,1.35956c1.55024,0.27507 4.06184,0.84952 5.57796,0.15656c1.12592,-0.51462 1.63979,-1.45861 3.05307,-1.83811c1.12743,-0.17896 1.62115,-0.81628 2.6742,-1.1363c1.05843,-0.32166 2.76389,-0.02667 3.84041,0.10741c0.23605,0.0294 0.47616,0.05689 0.71959,0.08323c1.11278,-0.41178 2.22328,-0.73251 3.15301,-0.69595c0.84576,0.03324 1.33825,0.49697 2.18867,0.48856l0.59789,0.39078c0,0 0.28292,0.28292 0.08951,0.59567c1.25349,0.27599 2.44418,0.67232 3.47919,1.28381c0,0 0.42875,0.25725 0.1715,0.686c-0.25725,0.42874 -0.68599,0.17149 -0.68599,0.17149c-2.40668,-1.47052 -5.91364,-1.60862 -8.84506,-1.90118c-1.0797,0.42441 -2.15995,0.92091 -3.0639,1.14329c-1.08571,1.65006 -3.733,1.84474 -5.56864,1.97732c-4.8004,0.34671 -9.71273,0.07051 -14.51618,-0.12964c-6.90643,-0.28852 -13.63237,0.6918 -20.47966,0.6918c-2.58058,0 -4.83896,-0.22567 -7.35467,-0.58607c-0.95031,-0.13614 -2.39497,-0.21664 -3.22563,-0.9106c-0.68295,-0.07324 -1.36122,-0.16135 -2.01855,-0.2031c-1.89232,-0.01833 -4.52455,-0.15716 -6.03436,-1.06257c-0.91329,-0.54769 -0.71485,-1.00347 -1.97814,-1.44407c-1.55286,-0.54161 -3.45515,-0.51473 -5.31856,-0.28668c0.58467,0.01887 1.16155,0.00527 1.77564,0.07888c2.16157,0.25908 3.57397,3.19906 0.733,3.67476c-2.1587,0.36146 -6.03379,0.39839 -7.92011,-0.80297c-0.43559,-0.27741 -0.68749,-0.57946 -0.8,-0.88429c-1.27346,0.29277 -2.58687,0.48919 -4.08385,0.39737l-0.42869,-0.69038c0,0 -0.2236,-0.44721 0.22361,-0.67082zM214.86405,127.47033c1.29463,-0.20996 2.39595,-1.15481 3.64737,-1.46276c2.15514,-0.53032 5.41967,-0.00995 7.6736,-0.00995c0,0 0.5,0 0.5,0.5c0,0.5 -0.5,0.5 -0.5,0.5c-2.18731,0 -5.40687,-0.54717 -7.47508,-0.00996c-1.11954,0.2908 -2.11487,1.05313 -3.2467,1.37164c2.38732,0.31727 4.59476,0.57031 7.10211,0.57031c6.85955,0 13.602,-0.97849 20.52129,-0.69093c0.09876,0.00412 0.19756,0.00826 0.29641,0.01244c-1.43706,-0.26252 -2.82263,-0.53685 -4.09871,-0.77389c-6.6849,-1.3369 -13.66697,-2.618 -20.49267,-2.29153c-1.0161,0.0486 -1.86034,0.06777 -2.83668,0.3614c-0.62748,0.18872 -1.27034,0.33133 -1.88385,0.56145c-1.20695,0.4527 -1.7451,0.96719 -1.52025,1.38694c0.78212,0.07099 1.56345,0.09643 2.31318,-0.02517zM191.59294,127.21072c0.36148,0.43682 1.25318,0.84801 1.86281,0.96396c1.4573,0.2772 4.74644,0.47416 6.07838,-0.14771c1.58171,-0.73848 -1.82389,-1.51875 -2.18047,-1.51801c-0.65904,0.00138 -1.32188,-0.06325 -1.96737,-0.19621c-1.35429,0.21924 -2.5758,0.57594 -3.79335,0.89796zM264.12676,125.99002c-0.83153,-0.10646 -1.76738,-0.18289 -2.3851,0.01353c-1.02069,0.32455 -1.59361,0.95168 -2.71926,1.14716c-0.92742,0.24683 -1.56151,0.80056 -2.23906,1.26603c0.23546,-0.01409 0.47066,-0.02962 0.7056,-0.04666c1.72388,-0.12508 4.02347,-0.26526 5.05126,-1.78763c0.4807,-0.15106 1.01884,-0.36238 1.58656,-0.59242zM269.00469,125.52823c0.22264,0.02483 0.44561,0.05099 0.66843,0.07895c-0.15954,-0.03927 -0.32327,-0.0676 -0.49577,-0.07566c-0.0569,-0.00266 -0.11446,-0.00373 -0.17266,-0.00329z" fill="#8b4fff" stroke="none" stroke-width="0.5" stroke-linecap="butt"/><path d="M165.11297,128.94453c-0.00358,0.49999 -0.50356,0.49642 -0.50356,0.49642l-0.56235,-0.00755c-3.04994,-0.75169 -5.77566,-2.1025 -8.83512,-2.83496c-4.21323,3.69677 -11.12814,1.65846 -16.56796,0.59399c-1.02887,0.63878 -1.84698,1.52842 -2.9677,2.17519c-1.75302,0.96759 -5.10516,0.85967 -7.04141,0.55828c-0.47862,-0.0745 -2.16153,-0.66846 -2.14278,-1.3935c0.02859,-1.10612 1.60989,-1.35065 2.31943,-1.54055c2.76494,-0.74 5.13026,-1.54135 8.00555,-1.1306c0.533,0.07615 1.09078,0.17486 1.6676,0.28709c0.44447,-0.25292 0.93158,-0.46171 1.49826,-0.59528c4.96461,-1.17011 9.95936,-0.0519 14.9324,-0.04127c0.01341,0.00285 0.02681,0.00572 0.0402,0.0086c0.91116,-0.46952 1.13559,-1.14993 2.21257,-1.46404c2.7355,-0.79784 8.09897,-0.37937 10.93733,-0.0082c1.03821,0.13577 1.94896,0.44991 2.45421,1.14471c0.63663,-0.48484 1.64975,-0.8499 2.29614,-0.9038c2.69025,-0.22433 4.58014,1.11274 7.02076,1.72195c1.48082,0.36963 3.06351,-0.40174 4.50673,0.28374c0,0 0.44721,0.22361 0.2236,0.67082c-0.2236,0.44721 -0.67082,0.22361 -0.67082,0.22361c-1.23493,-0.66607 -2.9502,0.12533 -4.28927,-0.20493c-2.92075,-0.72033 -5.18527,-2.3145 -8.40112,-1.53838c-0.78662,0.18985 0.41316,0.90246 0.56221,0.94254c1.00204,3.44049 -7.38274,3.86736 -8.1319,0.07843c-0.13827,-0.05397 -0.29599,-0.17707 -0.29599,-0.45788c0,-0.5 0.5,-0.5 0.5,-0.5l0.74434,0.5c-0.10183,2.10296 3.90825,2.70873 5.66133,1.9814c0.2928,-0.12148 0.95779,-0.64687 0.81512,-0.89484c-0.13384,-0.05209 -0.25412,-0.10532 -0.36169,-0.15948c-0.06683,0.03754 -0.15244,0.06159 -0.26209,0.06159c-0.5,0 -0.5,-0.5 -0.5,-0.5c0.12097,-1.72168 -2.80836,-1.45467 -3.94333,-1.45467c-2.61519,0 -6.10836,-0.62453 -8.6358,-0.01338c-0.45567,0.11019 -0.82243,0.45955 -1.20087,0.7959c2.72534,0.74851 5.21858,1.91553 7.97581,2.61585l0.44376,-0.00036c0,0 0.49999,0.00357 0.49642,0.50356zM137.31654,126.95037c-0.21696,-0.03593 -0.43071,-0.06917 -0.64093,-0.0992c-2.39029,-0.34147 -4.32698,0.17804 -6.63864,0.8328c-0.62849,0.17802 -1.27117,0.30597 -1.89405,0.50271c-0.10851,0.03428 -0.30805,0.12375 -0.46415,0.18372c0.15844,0.13433 0.33647,0.50039 0.52009,0.61838c0.4149,0.26658 0.97492,0.18249 1.46807,0.18337c1.51479,0.00271 4.21833,0.10038 5.51318,-0.67279c0.80988,-0.45754 1.46154,-1.02486 2.13643,-1.549zM140.26015,126.51518c4.5068,0.96343 9.74435,2.17435 13.3943,-0.02629c-4.46222,-0.13671 -8.94004,-1.0098 -13.39429,0.02629z" fill="#8b4fff" stroke="none" stroke-width="0.5" stroke-linecap="butt"/><path d="M124.98951,133.0739c-0.22361,0.44721 -0.67082,0.2236 -0.67082,0.2236l-0.69039,-0.42868c-0.06736,-2.18399 0.3591,-6.96163 4.18075,-6.51471c2.67652,0.38106 8.4615,2.96568 10.57699,1.23178c0.90222,-0.73949 2.25075,-0.55494 2.81239,-1.80054c0,0 0.2236,-0.44721 0.67082,-0.22361c0.44721,0.22361 0.2236,0.67082 0.2236,0.67082c-2.74234,5.16037 -10.1168,1.72447 -14.4247,1.11157c-2.80093,-0.50528 -2.99834,3.54576 -3.18919,4.99896l0.28695,0.05998c0,0 0.44721,0.22361 0.22361,0.67082z" fill="#8b4fff" stroke="none" stroke-width="0.5" stroke-linecap="butt"/><path d="M126.7413,209.55967c0.5,0 0.5,0.5 0.5,0.5l-0.00645,1.05742c-0.11474,0.32039 -0.22948,0.64079 -0.34422,0.96119c-0.15042,0.10056 -0.29835,0.20937 -0.44284,0.32559c0.00298,0.01498 0.00598,0.02996 0.00898,0.04493c0.03689,1.42108 1.01297,2.87487 0.77808,4.28797c-0.22446,1.35029 -3.10095,5.11467 -4.13182,2.31025c-0.82344,-2.24012 0.4408,-5.43442 2.25587,-7.03871c-0.15735,-0.88741 -0.27204,-1.78816 -0.35383,-2.69773c-1.20939,0.77082 -2.51841,0.68398 -2.90406,-1.57935c-0.26269,-1.5417 -0.05967,-3.45217 0.0631,-5.00464c1.40125,-2.75601 1.85933,-5.41296 2.86821,-8.41614c0.10358,-0.30833 0.15068,-0.66092 0.15747,-1.04381c-0.80603,0.28698 -1.6543,0.38224 -2.04276,-0.06991c-1.20511,-1.40266 0.06983,-6.21152 0.4444,-8.00543c0.44523,-0.67543 0.77155,-1.38827 1.00819,-2.12898c-0.93596,-3.22789 -1.58044,-6.50616 -1.52128,-10.2562c0.4435,-0.93374 1.25616,-1.60728 1.98729,-1.63951c0.04272,-0.51593 0.10928,-1.02351 0.20804,-1.52002c0,0 0.04594,-0.22968 0.23214,-0.3432c-0.00285,-0.78507 -0.01077,-1.58281 -0.03954,-2.38028c-0.57489,1.05937 -1.23506,2.09036 -1.54706,2.08764c-1.87903,-0.01638 -1.30877,-2.13435 -1.08546,-3.04518c0.30794,-1.23174 0.69653,-2.80447 1.22859,-4.12706c0.04327,-0.40121 0.1296,-0.82038 0.241,-1.26265c0.01434,-0.05694 0.06608,-0.18001 0.13649,-0.3399c-0.51958,-2.13576 -0.95813,-4.22251 -0.36216,-6.22183c-0.93102,-2.1068 0.00594,-3.38883 0.68603,-5.05499l-0.71009,0.02851c0,0 -0.5,0 -0.5,-0.5c0,-0.5 0.5,-0.5 0.5,-0.5l0.76396,0.04781c0.05746,-0.05175 -0.2845,-1.70193 -0.28663,-1.98951c-0.01533,-2.06834 -1.1239,-3.77973 -1.4515,-5.72341c-0.41909,-2.48652 1.20228,-4.15982 2.23729,-6.22984c0,0 0.22361,-0.44721 0.67082,-0.2236c0.44721,0.2236 0.2236,0.67082 0.2236,0.67082c-0.88984,1.7797 -2.51139,3.40882 -2.16072,5.54351c0.19014,1.1575 0.81973,2.67774 1.27478,4.19126c0.03899,-0.30824 0.11123,-0.61061 0.23848,-0.90249c0.31955,-0.73297 0.93509,-1.41506 0.92192,-2.21454c0,0 0,-0.5 0.5,-0.5c0.5,0 0.5,0.5 0.5,0.5c-0.01938,1.49623 -0.51002,1.5157 -1.03275,2.67212c-0.47553,1.05199 0.00863,2.4252 -0.19537,3.5163c-0.40673,2.17538 -1.63084,3.3353 -1.49373,5.13568c0.16919,-0.2764 0.36407,-0.55084 0.58736,-0.82322c1.89837,-1.09248 4.0869,0.12818 3.59021,2.794c-0.34032,1.82656 -1.1388,3.47031 -2.02335,5.08557c-0.08996,1.7487 -0.02035,3.52099 -0.42307,5.19044c-0.01803,0.07474 -0.06555,0.20382 -0.13584,0.37168c0.15242,1.79261 0.14519,3.6319 0.14922,5.37629v0.48982c0,0 0,0.4828 -0.47442,0.49956c-0.00401,0.05071 -0.00781,0.10151 -0.01138,0.15238c0.21144,0.26426 0.37768,0.65281 0.47243,1.18786c0.62955,3.55506 -0.74109,9.41921 0.9652,12.63428c0.90239,1.80452 0.98606,5.35034 -0.61012,6.89267c-0.06986,0.0675 -0.15674,0.13905 -0.25721,0.21221c0.9834,2.12243 0.89284,5.42241 0.89284,7.74119c-0.00105,2.12157 0.43041,4.85067 -0.53951,6.81655c-0.2458,0.4982 -0.59837,0.99539 -1.00378,1.42202c0.06158,0.85476 0.15026,1.70288 0.27427,2.54075c0.01038,-0.03628 0.02076,-0.07258 0.03114,-0.10886l-0.00646,-0.89724c0,0 0,-0.5 0.5,-0.5zM126.01963,195.39966c0,3.68422 -0.29789,7.60565 -0.1656,11.44292c0.94334,-2.01528 0.6305,-4.33688 0.6316,-6.55637c0,-1.7838 0.06549,-4.17765 -0.39343,-6.10835c-0.02266,0.1221 -0.05088,0.24101 -0.08525,0.35636c-0.04869,0.16339 -0.09639,0.32586 -0.14329,0.48746c0.15597,0.14801 0.15597,0.37799 0.15597,0.37799zM125.5574,213.26589c-0.88716,1.02794 -1.49695,2.33838 -1.49244,3.63512c0.00059,0.16918 -0.27661,2.39235 0.44427,2.18876c2.49117,-0.70355 1.40181,-3.9629 1.04816,-5.82388zM123.12753,202.99454c-0.05234,0.95014 -0.52579,6.25573 1.05444,6.09321c0.26424,-0.02717 0.5249,-0.3026 0.75556,-0.63524c-0.23155,-3.40837 -0.0492,-6.91985 0.0401,-10.30178c-0.48368,1.65372 -1.02035,3.24613 -1.85009,4.84381zM124.78663,186.59232c0.5,0 0.5,0.5 0.5,0.5c0,1.20566 0.3922,2.69144 0.65312,4.12573c1.32698,-1.28358 1.723,-3.28456 0.63168,-5.31915c-0.1303,-0.25817 -0.23743,-0.52112 -0.32476,-0.78812l0.01729,0.2712c0,0 0,0.5 -0.5,0.5c-0.5,0 -0.5,-0.5 -0.5,-0.5l0.02566,-0.08622c-0.07448,-0.22922 -0.14798,-0.4582 -0.22033,-0.68709c-0.16089,0.32857 -0.34441,0.65022 -0.55345,0.96401c-0.08138,0.43014 -0.13767,0.86578 -0.18223,1.3036c0.05635,-0.13522 0.18033,-0.28396 0.45303,-0.28396zM123.8075,191.11574c-0.06709,0.25315 -0.49058,1.53963 0.27112,1.58554c0.32355,0.01951 0.41648,-0.52294 0.70599,-0.66872c0.10159,-0.05115 0.20053,-0.10528 0.29671,-0.16225c-0.22681,-1.54217 -0.73224,-3.2679 -0.7894,-4.54945c-0.11161,1.28374 -0.16157,2.57649 -0.48443,3.79487zM125.05015,180.93483c0.3401,-2.79901 -0.11658,-5.84055 -0.04157,-8.69185c-0.24335,-0.14219 -0.55299,0.04382 -0.957,0.79287c0.06225,2.87707 0.40584,5.42047 0.99856,7.89898zM125.92495,181.86674c-0.07231,0.42517 -0.16571,0.84402 -0.28498,1.25503c0.14184,0.47404 0.29254,0.94862 0.45188,1.42565c-0.19531,-0.86554 -0.2146,-1.76687 -0.1669,-2.68068zM126.14268,179.32159c0.0995,-1.16237 0.14489,-2.31014 -0.0859,-3.39574c0.05261,1.13707 0.10668,2.27708 0.0859,3.39574zM126.51129,155.90386c0,0 0.15812,-0.47434 0.63246,-0.31623c0.18993,0.06331 0.27845,0.17731 0.31634,0.29127c0.22424,-0.52598 0.40019,-1.06753 0.50183,-1.62814c0.26016,-1.43498 -1.18964,-2.89016 -1.91913,-1.87c-0.40963,0.49954 -0.70536,1.0146 -0.91043,1.54172c0.04282,0.10246 0.08971,0.20717 0.14089,0.31429c0.01044,1.15855 0.64547,2.75581 0.7671,3.98218c0.08136,-0.78186 0.21954,-1.5566 0.47093,-2.31509zM123.8039,166.2081c-0.79868,3.12524 0.78069,0.66338 1.46389,-0.97803l-0.17675,-0.34595c-0.24083,-0.24442 -0.43382,-0.49072 -0.58558,-0.74081c-0.28206,0.66716 -0.52344,1.35229 -0.70156,2.06479zM125.88321,161.39277c-0.03275,0.05909 -0.06543,0.11821 -0.09802,0.17739c0.02585,0.10518 0.05116,0.21022 0.07579,0.31511c0.00859,-0.16388 0.01583,-0.32808 0.02222,-0.4925zM125.05999,158.45779c-0.02724,-0.04972 -0.05363,-0.10068 -0.0792,-0.15281c0.02448,0.12326 0.05034,0.24666 0.07734,0.37015c0.02108,-0.10039 0.02415,-0.17668 0.00186,-0.21734z" fill="#8b4fff" stroke="none" stroke-width="0.5" stroke-linecap="butt"/><path d="M126.53022,211.51544c0.4989,0.03326 0.46563,0.53215 0.46563,0.53215l-0.05076,0.76141c-0.11128,1.53713 -0.37475,3.05296 -0.59223,4.58533c0.0427,-0.01025 0.09053,-0.01599 0.1441,-0.01599c0.5,0 0.5,0.5 0.5,0.5c-0.00813,2.28257 0.13946,4.03989 -0.42613,5.88006c0.16164,0.21509 0.37001,0.39305 0.6384,0.51406c0,0 0.44721,0.2236 0.22361,0.67082c-0.22361,0.44721 -0.67082,0.22361 -0.67082,0.22361c-0.21283,-0.1131 -0.40466,-0.24353 -0.57717,-0.38951c-0.20872,0.46169 -0.46942,0.93495 -0.79475,1.42862c-0.43572,0.66117 -1.18654,1.74605 -1.33851,2.53789c-0.08519,0.44389 -0.26909,1.78543 -0.1622,1.34625c0.1392,-0.57187 0.46573,-0.75338 0.87871,-1.15345c2.20649,-0.70681 3.10559,1.33718 1.64582,2.91668l-0.20274,0.41992c0,0 -0.2236,0.44721 -0.67082,0.22361c-0.44721,-0.2236 -0.22361,-0.67082 -0.22361,-0.67082l0.28593,-0.55741c0.6611,-0.59276 0.87677,-1.90918 -0.30885,-1.48132c-1.64307,1.7164 -2.67245,0.9496 -2.21549,-1.2732c0.33768,-1.64257 1.84335,-2.95988 2.46641,-4.47053c0.00035,-0.00086 0.00071,-0.00172 0.00106,-0.00258c-1.80306,-2.83457 0.24116,-8.62471 0.40151,-11.29855l0.05076,-0.7614c0,0 0.03325,-0.4989 0.53215,-0.46563zM126.01963,221.29855c-0.00027,0.25169 0.00521,0.52626 0.029,0.80496c0.08952,-0.7567 0.06663,-1.49282 0.02698,-2.25705c-0.03487,0.4802 -0.05546,0.96387 -0.05598,1.4521z" fill="#8b4fff" stroke="none" stroke-width="0.5" stroke-linecap="butt"/><path d="M123.8093,209.09367c-0.5,0 -0.5,-0.5 -0.5,-0.5v-0.97733c0,-2.2324 -0.15002,-4.99874 0.91921,-6.99823l-0.13342,-0.06671l0.23949,-0.47898c0.08017,-0.16913 0.25246,-0.28608 0.45206,-0.28608c0.1996,0 0.37189,0.11695 0.45206,0.28608l0.21275,0.4255c0.37749,0.39128 0.63046,0.90414 0.80607,1.41867c-0.01384,1.39683 0.34619,2.76512 0.21637,4.24442c-0.23319,2.65723 -1.22625,5.16978 -1.43356,7.8275c-0.11244,1.44138 0.00178,3.68527 -0.81623,5.09125c-0.01423,0.11385 -0.02846,0.2277 -0.04269,0.34155l-0.11948,0.95581c-0.02758,0.25006 -0.23955,0.44456 -0.49696,0.44456c-0.27614,0 -0.5,-0.22386 -0.5,-0.5v-0.97733h0.11827c0.04135,-0.33076 0.08857,-0.7086 0.12992,-1.03936c0,0 0.03334,-0.26668 0.24665,-0.38457c0.15896,-0.59283 0.36039,-1.22144 0.48015,-2.04293c0.67296,-4.61626 1.27177,-9.2187 1.23047,-13.80072c-0.04963,-0.15505 -0.11859,-0.30501 -0.2022,-0.4472c-0.00795,0.08566 -0.02057,0.16797 -0.03526,0.24159c-0.4105,2.0581 -0.72367,3.56597 -0.72367,5.74518v0.97733c0,0 0,0.5 -0.5,0.5z" fill="#8b4fff" stroke="none" stroke-width="0.5" stroke-linecap="butt"/><path d="M124.5423,200.29766c-0.5,0 -0.5,-0.5 -0.5,-0.5l0.27639,-0.04146c-3.59413,-1.91001 -1.86963,-7.24329 -0.19241,-9.7649c0,0 0.27735,-0.41603 0.69337,-0.13868c0.41603,0.27735 0.13868,0.69338 0.13868,0.69338c-1.24751,1.86667 -3.25825,6.9334 -0.19242,8.31578l0.27639,0.93588c0,0 0,0.5 -0.5,0.5z" fill="#8b4fff" stroke="none" stroke-width="0.5" stroke-linecap="butt"/><path d="M127.4743,175.86432c-0.5,0 -0.5,-0.5 -0.5,-0.5v-0.733c0.04431,-0.27899 -0.08872,-0.7059 -0.27134,-1.17759c-0.4502,1.31329 -1.19698,2.48474 -2.41632,3.39926l-0.57126,0.20985c0,0 -0.47684,0.15041 -0.62725,-0.32644c-0.15041,-0.47684 0.32643,-0.62725 0.32643,-0.62725l0.27208,-0.05616c1.38968,-1.04224 2.08413,-2.50775 2.4142,-4.14742c-0.03888,-0.1232 -0.07115,-0.24141 -0.09416,-0.35252c0,0 -0.07552,-0.37763 0.23741,-0.53634c0.2929,-2.35044 -0.00279,-4.95106 -0.00279,-7.13605c0,0 0,-0.5 0.5,-0.5c0.5,0 0.5,0.5 0.5,0.5c0,2.51382 0.31191,5.4054 -0.13571,7.97403c0.29731,1.04668 0.789,1.71367 0.86871,2.77664v0.733c0,0 0,0.5 -0.5,0.5z" fill="#8b4fff" stroke="none" stroke-width="0.5" stroke-linecap="butt"/><path d="M125.5083,132.23475c-0.32367,0.92439 -0.45619,1.8038 -0.466,3.05911c-0.00273,0.34896 0.12512,0.81544 0.22043,1.2834c0.00083,-0.02217 0.00126,-0.04308 0.00123,-0.06257c-0.0016,-1.32828 0.27146,-2.65524 0.24434,-3.90872c0,-0.12374 0,-0.24748 0,-0.37122zM126.08357,130.88834c0.42472,0.04748 0.42473,0.49595 0.42473,0.49595c0,0.24434 0,0.97734 0,1.22167c-0.02239,1.4193 -0.00084,3.28917 -0.24995,4.71122c-0.07446,0.42505 -0.29113,2.11794 -1.41872,1.61472c-0.82358,-0.36755 -0.44424,-1.48248 -0.53961,-2.0574c-0.42933,-2.58814 -0.15639,-4.33385 1.01675,-6.69116c0,0 0.22361,-0.44721 0.67082,-0.2236c0.44721,0.2236 0.2236,0.67082 0.2236,0.67082c-0.04398,0.08759 -0.08651,0.17345 -0.12761,0.25778z" fill="#8b4fff" stroke="none" stroke-width="0.5" stroke-linecap="butt"/><path d="M356.27241,139.76666l0.00645,-0.89724c-0.01038,-0.03628 -0.02076,-0.07258 -0.03114,-0.10886c-0.12401,0.83786 -0.21269,1.68599 -0.27427,2.54075c0.40541,0.42663 0.75799,0.92381 1.00378,1.42201c0.96992,1.96588 0.53846,4.69499 0.53951,6.81655c0,2.31877 0.09055,5.61875 -0.89284,7.74119c0.10047,0.07316 0.18735,0.14471 0.25721,0.21221c1.59618,1.54234 1.51251,5.08816 0.61012,6.89267c-1.70629,3.21507 -0.33564,9.07922 -0.96519,12.63428c-0.09475,0.53505 -0.26099,0.9236 -0.47243,1.18786c0.00358,0.05087 0.00737,0.10166 0.01139,0.15238c0.47442,0.01675 0.47442,0.49956 0.47442,0.49956v0.48982c-0.00403,1.74439 0.0032,3.58369 -0.14922,5.37629c0.07029,0.16786 0.11782,0.29694 0.13585,0.37167c0.40272,1.66944 0.33312,3.44173 0.42307,5.19044c0.88455,1.61525 1.68303,3.25901 2.02335,5.08557c0.49669,2.66582 -1.69184,3.88647 -3.59021,2.794c-0.22329,-0.27239 -0.41817,-0.54682 -0.58736,-0.82322c-0.13711,1.80039 1.087,2.96031 1.49373,5.13568c0.204,1.0911 -0.28015,2.46432 0.19537,3.5163c0.52273,1.15643 1.01337,1.1759 1.03275,2.67213c0,0 0,0.5 -0.5,0.5c-0.5,0 -0.5,-0.5 -0.5,-0.5c0.01317,-0.79949 -0.60237,-1.48158 -0.92192,-2.21455c-0.12725,-0.29189 -0.19948,-0.59425 -0.23848,-0.90249c-0.45504,1.51352 -1.08464,3.03377 -1.27478,4.19126c-0.35066,2.13469 1.27088,3.76381 2.16072,5.54351c0,0 0.22361,0.44721 -0.22361,0.67082c-0.44722,0.2236 -0.67082,-0.2236 -0.67082,-0.2236c-1.03501,-2.07002 -2.65637,-3.74331 -2.23728,-6.22984c0.32759,-1.94368 1.43617,-3.65507 1.4515,-5.72341c0.00213,-0.28759 0.34408,-1.93776 0.28662,-1.98951l-0.76396,0.04781c0,0 -0.5,0 -0.5,-0.5c0,-0.5 0.5,-0.5 0.5,-0.5l0.7101,0.02851c-0.68009,-1.66617 -1.61705,-2.9482 -0.68604,-5.055c-0.59598,-1.99932 -0.15742,-4.08607 0.36215,-6.22183c-0.0704,-0.15989 -0.12214,-0.28296 -0.13648,-0.3399c-0.1114,-0.44227 -0.19772,-0.86145 -0.241,-1.26265c-0.53206,-1.32259 -0.92066,-2.89532 -1.22859,-4.12706c-0.22332,-0.91082 -0.79357,-3.0288 1.08546,-3.04518c0.312,-0.00272 0.97216,1.02827 1.54706,2.08764c0.02877,-0.79747 0.03668,-1.59521 0.03954,-2.38028c-0.1862,-0.11352 -0.23214,-0.3432 -0.23214,-0.3432c-0.09876,-0.49651 -0.16533,-1.00409 -0.20805,-1.52002c-0.73113,-0.03223 -1.54379,-0.70576 -1.98729,-1.63951c-0.05916,-3.75005 0.58531,-7.02831 1.52128,-10.2562c-0.23663,-0.74071 -0.56295,-1.45355 -1.00819,-2.12898c-0.37457,-1.7939 -1.64951,-6.60277 -0.4444,-8.00543c0.38846,-0.45214 1.23674,-0.35689 2.04276,-0.06991c-0.00679,-0.38289 -0.05389,-0.73547 -0.15747,-1.0438c-1.00888,-3.00318 -1.46696,-5.66013 -2.86821,-8.41614c-0.12277,-1.55247 -0.32579,-3.46294 -0.0631,-5.00464c0.38565,-2.26333 1.69467,-2.35017 2.90406,-1.57935c0.08179,-0.90957 0.19648,-1.81032 0.35383,-2.69773c-1.81507,-1.6043 -3.07931,-4.7986 -2.25587,-7.03871c1.03087,-2.80442 3.90736,0.95996 4.13182,2.31025c0.2349,1.41311 -0.74118,2.86689 -0.77808,4.28797c-0.003,0.01497 -0.006,0.02994 -0.00898,0.04493c0.14448,0.11622 0.29242,0.22503 0.44284,0.32559c0.11474,0.32039 0.22948,0.64079 0.34422,0.96119l0.00646,1.05742c0,0 0,0.5 -0.5,0.5c-0.5,0 -0.5,-0.5 -0.5,-0.5zM355.89478,154.80466c0.0469,0.1616 0.0946,0.32407 0.14329,0.48746c0.03438,0.11535 0.06259,0.23426 0.08525,0.35636c0.45893,-1.9307 0.39343,-4.32455 0.39343,-6.10835c-0.0011,-2.21949 0.31174,-4.5411 -0.6316,-6.55637c-0.13229,3.83727 0.1656,7.75869 0.1656,11.44292c0,0 0,0.22997 -0.15597,0.37799zM354.54035,130.73656c-0.72088,-0.20359 -0.44368,2.01958 -0.44427,2.18876c-0.00452,1.29674 0.60528,2.60718 1.49244,3.63512c0.35364,-1.86098 1.44301,-5.12033 -1.04816,-5.82388zM355.00873,151.67559c-0.08929,-3.38193 -0.27165,-6.89341 -0.0401,-10.30178c-0.23066,-0.33264 -0.49132,-0.60807 -0.75556,-0.63524c-1.58023,-0.16252 -1.10678,5.14308 -1.05444,6.09322c0.82975,1.59768 1.36642,3.19009 1.85009,4.8438zM354.36472,162.95004c0.04456,0.43783 0.10085,0.87347 0.18224,1.3036c0.20904,0.31379 0.39256,0.63544 0.55345,0.96401c0.07236,-0.22889 0.14585,-0.45788 0.22033,-0.68709l-0.02566,-0.08622c0,0 0,-0.5 0.5,-0.5c0.5,0 0.5,0.5 0.5,0.5l-0.01729,0.2712c0.08734,-0.267 0.19447,-0.52994 0.32477,-0.78812c1.09132,-2.03459 0.69529,-4.03557 -0.63169,-5.31915c-0.26092,1.43429 -0.65312,2.92007 -0.65312,4.12573c0,0 0,0.5 -0.5,0.5c-0.2727,0 -0.39668,-0.14874 -0.45303,-0.28396zM354.32304,162.50546c0.05716,-1.28155 0.56259,-3.00728 0.7894,-4.54945c-0.09618,-0.05696 -0.19513,-0.11109 -0.29672,-0.16225c-0.28951,-0.14578 -0.38243,-0.68823 -0.70599,-0.66872c-0.7617,0.04592 -0.33821,1.33239 -0.27112,1.58554c0.32286,1.21839 0.37282,2.51113 0.48442,3.79487zM354.0827,176.79047c0.404,0.74904 0.71366,0.93506 0.957,0.79287c-0.07501,-2.85129 0.38166,-5.89283 0.04156,-8.69185c-0.59272,2.47851 -0.93631,5.0219 -0.99857,7.89898zM356.12297,165.27891c-0.15934,0.47704 -0.31005,0.95161 -0.45189,1.42565c0.11927,0.411 0.21267,0.82985 0.28499,1.25503c-0.04771,-0.9138 -0.02841,-1.81514 0.1669,-2.68068zM356.0879,173.90048c0.23079,-1.0856 0.1854,-2.23336 0.0859,-3.39574c0.02078,1.11865 -0.03329,2.25867 -0.0859,3.39574zM356.07147,191.60739c-0.12163,1.22637 -0.75666,2.82363 -0.7671,3.98218c-0.05118,0.10712 -0.09807,0.21183 -0.14089,0.31429c0.20506,0.52712 0.5008,1.04218 0.91043,1.54172c0.72949,1.02015 2.17928,-0.43502 1.91913,-1.87c-0.10164,-0.56061 -0.27759,-1.10216 -0.50183,-1.62814c-0.03789,0.11396 -0.12641,0.22796 -0.31634,0.29127c-0.47434,0.15812 -0.63246,-0.31623 -0.63246,-0.31623c-0.2514,-0.75849 -0.38957,-1.53323 -0.47093,-2.31509zM354.53658,185.68301c0.15177,-0.25009 0.34475,-0.4964 0.58558,-0.74081l0.17675,-0.34595c-0.6832,-1.6414 -2.26257,-4.10326 -1.4639,-0.97803c0.17812,0.71249 0.4195,1.39763 0.70156,2.06479zM355.89211,187.94106c-0.02463,0.10489 -0.04995,0.20994 -0.0758,0.31511c0.03258,0.05918 0.06526,0.1183 0.09802,0.17739c-0.00639,-0.16442 -0.01363,-0.32862 -0.02222,-0.4925zM355.08924,191.1512c-0.02699,0.12349 -0.05286,0.24689 -0.07734,0.37015c0.02556,-0.05212 0.05196,-0.10308 0.0792,-0.15281c0.02229,-0.04066 0.01921,-0.11695 -0.00187,-0.21734z" data-paper-data="{&quot;index&quot;:null}" fill="#8b4fff" stroke="none" stroke-width="0.5" stroke-linecap="butt"/><path d="M230.56009,235.72549c-1.44853,-0.0721 -3.08078,-0.53226 -4.5542,-1.18839c-0.12311,0.07489 -0.24811,0.13621 -0.37541,0.17865c-1.27887,0.42639 -2.89969,-0.42752 -4.10853,0.22448l-0.7236,-0.69154c0,0 0,-0.5 0.5,-0.5c0.15096,0 0.25635,0.04557 0.32991,0.10921c0.85891,-0.18822 1.75661,0.03889 2.62136,0.05239c-1.24582,-0.25779 -2.49547,-0.3617 -3.74964,-0.35173c-0.25392,0.27764 -0.50093,0.59862 -0.74029,0.96748c0,0 -0.27735,0.41603 -0.69338,0.13868c-0.41602,-0.27735 -0.13868,-0.69338 -0.13868,-0.69338c0.08558,-0.12564 0.17155,-0.24641 0.25792,-0.36245c-2.06562,0.13892 -4.14404,0.54748 -6.23825,1.0483c-5.07795,1.9902 -12.33,3.5059 -17.67401,1.47248l-0.02748,0.09617l-0.9509,-0.27168c-0.21478,-0.05611 -0.37327,-0.25144 -0.37327,-0.4838c0,-0.04151 0.00505,-0.08184 0.01459,-0.1204c-0.51528,0.02558 -1.02776,0.03712 -1.53263,0.02962c-2.4716,0.37912 -6.06813,0.17099 -8.69977,-0.47459c-2.04264,1.30723 -5.53241,1.7938 -8.12363,1.40886c-0.98893,-0.14834 -1.97809,-0.29525 -2.9668,-0.44502c-1.85341,-0.28075 -3.40231,-1.81677 -0.84539,-2.87095c0.21643,-0.08923 0.44004,-0.16664 0.66972,-0.23361l-0.33026,-0.3267c-0.32682,-0.18101 -0.63313,-0.31476 -0.92202,-0.40821c-0.06656,0.00886 -0.13313,0.01825 -0.19971,0.02819c-2.05258,0.83311 -4.01857,1.81957 -6.24531,2.43027c-1.81264,0.49713 -4.07355,0.3471 -5.94995,0.50346c0,0 -0.49827,0.04153 -0.53979,-0.45675c-0.00876,-0.10511 0.00651,-0.18989 0.03604,-0.25825c-0.60298,-0.16595 -1.21733,-0.34599 -1.83903,-0.52928c-1.73682,-0.19684 -3.24348,-0.11107 -5.04189,0.28913c2.70985,0.78733 5.40856,1.65852 8.2975,1.6659l0.51293,0.00132c0,0 0.5,0.00127 0.49872,0.50127c-0.00128,0.5 -0.50128,0.49872 -0.50128,0.49872l-0.51293,-0.00132c-3.55059,-0.00912 -6.81062,-1.31524 -10.15282,-2.1736c-1.88132,0.56377 -3.73366,1.26181 -5.58763,1.56211c-0.2004,0.24008 -0.40546,0.43016 -0.589,0.54009c-0.26892,0.16107 -1.91986,0.01222 -2.26291,-0.01055c-0.62984,-0.15239 -1.14075,-0.41331 -1.65561,-0.69183c-0.40419,0.05227 -0.69379,0.15026 -1.10264,-0.5677c-0.35331,-0.15894 -0.73953,-0.3012 -1.18677,-0.40597c-1.78792,-0.41882 -3.55539,-0.5834 -5.32514,-0.76145c-2.52016,1.07396 -5.12525,2.64712 -7.64951,0.16477c0,0 -0.35356,-0.35356 0,-0.70711c0.35356,-0.35356 0.70711,0 0.70711,0c1.60004,1.63422 3.40133,1.1244 5.12743,0.34455c-1.54137,-0.18982 -3.09032,-0.45883 -4.66176,-0.98265c0,0 -0.47434,-0.15811 -0.31623,-0.63245c0.15811,-0.47434 0.63246,-0.31623 0.63246,-0.31623c2.04551,0.68184 4.04955,0.92391 6.04904,1.12508c0.32367,-0.14758 0.64084,-0.28125 0.94938,-0.38668c1.78691,-0.61065 4.62917,-0.74885 6.48487,-0.7607c0.76294,0.00026 1.46874,0.24143 2.19749,0.38876c0.58587,-0.07331 1.19608,-0.09215 1.73963,-0.04654c-0.02803,-0.19601 0.08613,-0.36726 0.08613,-0.36726c1.01809,-1.36476 2.30703,-0.95565 3.90469,-0.95565c1.02227,0 2.0471,0.09137 3.07093,0.24374c1.19397,-0.59329 2.47031,0.17916 3.81208,0.50131c0.35367,0.08491 0.72879,0.18343 1.12059,0.28977c2.28479,-0.69833 4.52441,-1.52349 7.07708,-1.52349c0.80329,0 2.23132,-0.32473 2.82809,0.42501c0.50774,0.6379 0.64265,1.29864 0.49249,1.88026c0.25138,-0.09846 0.50168,-0.20042 0.75105,-0.30373c0.35917,-0.42881 0.66353,-0.978 1.41102,-1.33635c0.83928,-0.40236 2.09391,-0.4041 3.21975,-0.19592c1.47093,-0.58911 2.98871,-1.09735 4.67785,-1.33866c1.78546,-0.23448 2.88852,0.5109 3.89318,1.42646c1.49464,0.16547 3.09111,0.6006 4.47486,0.97418l0.07268,0.11513l0.03393,-0.03393l0.48866,0.48867c0.09048,0.09048 0.14645,0.21548 0.14645,0.35355c0,0.27614 -0.22386,0.5 -0.5,0.5h-0.733v-0.07268c-0.26133,0.03707 -0.52377,0.06564 -0.78712,0.08709c0.35002,0.12319 0.73686,0.23745 1.15104,0.34159c0.1535,-0.04958 0.30689,-0.09821 0.46024,-0.14549c3.20968,-0.98957 6.88009,-1.67527 10.20936,-1.91245c2.30691,-0.03769 4.43184,0.18193 6.68205,0.66392c3.79504,-0.76281 7.59303,-1.4223 11.56907,-1.91516c0.52487,-0.21185 1.03273,-0.40856 1.18648,-0.4065c0.55243,0.0074 1.1264,0.22545 1.5653,0.58012c1.75779,0.20536 3.48999,0.54848 5.27263,0.78404c0.20084,0.02654 0.47216,0.0324 0.77015,0.03739c1.91404,-0.92935 3.95875,-0.35307 6.04457,0.47011c0.69438,-0.25456 2.24945,-0.26344 2.34104,-0.70161c0,0 0.2236,-0.44721 0.67082,-0.22361c0.44721,0.2236 0.2236,0.67082 0.2236,0.67082c-0.4786,0.77077 -1.09914,0.75866 -1.7857,0.84839c0.34233,0.14183 0.6852,0.28251 1.02823,0.41658c1.6684,-0.96026 3.2234,-2.29907 5.14204,-2.47421c1.56113,-0.1425 3.14149,0.44022 4.7087,1.14722c1.32592,-0.29008 2.669,-0.41542 4.0345,-0.19497c0.26006,-0.27648 0.537,-0.52784 0.87325,-0.66389c2.35407,-0.95248 5.43051,-0.97617 7.92365,-1.01766c3.04611,0.76534 6.06095,2.41345 9.1136,2.90142c0.52153,0.08337 1.08748,0.13588 1.68182,0.16124c-1.18816,-0.90847 -0.5081,-1.84531 0.97085,-2.08648c2.13549,-0.34823 4.46085,0.10574 6.58542,-0.24345c2.24082,-0.36829 4.19954,-0.73076 6.52953,-0.7382l0.63525,-0.00125c0,0 0.5,-0.00099 0.50098,0.49901c0.00099,0.5 -0.49901,0.50098 -0.49901,0.50098l-0.63464,0.00125c-1.42312,0.00455 -2.80297,0.11218 -4.17414,0.24686l0.35679,0.01162c0.03649,0.05371 0.07298,0.10743 0.10947,0.16114l0.05275,-0.05275l0.48867,0.48867l-0.14607,0.14606c0.08684,0.12783 0.17368,0.25566 0.26051,0.38349l-0.44678,0.14518l0.01174,0.17772l-0.7051,0.04659c-0.30602,0.0614 -0.61205,0.12279 -0.91807,0.18419c-1.07498,0.3135 -2.35017,0.58998 -3.68944,0.79315c0.93615,0.15437 1.89015,0.25251 2.8467,0.31476c1.54239,-0.2919 3.11577,-0.69535 4.75865,-1.1019c1.94256,-0.48072 3.30315,-1.80823 5.41551,-1.94773c1.37107,-0.28972 2.70372,-0.26305 4.10041,-0.25222l0.08952,0.08066l0.02047,-0.04095l0.47898,0.23949c0.16913,0.08017 0.28608,0.25245 0.28608,0.45206c0,0.23795 -0.16622,0.43708 -0.38888,0.48761l-0.95999,0.24l-0.00295,-0.01179c-0.5166,0.25081 -0.98992,0.48547 -1.43211,0.73975l0.28769,0.00164c0.78838,0.01009 1.52376,0.02674 2.27809,0.12273c1.07923,-0.24845 2.15823,-0.5243 3.24531,-0.73746c0.06166,-0.02824 0.1237,-0.05522 0.18619,-0.08081c1.10913,-0.45427 2.28611,-0.62808 3.46559,-0.67328c2.0588,-0.70673 4.4197,-0.52272 6.60474,-0.01592c0.72532,-0.11649 1.4108,-0.28434 2.25243,-0.46263l-0.02418,-0.09671l0.95927,-0.23982c0.0421,-0.0115 0.0864,-0.01764 0.13215,-0.01764c0.27614,0 0.5,0.22386 0.5,0.5c0,0.21448 -0.13505,0.39742 -0.32476,0.46842l-0.71895,0.28822l-0.00674,-0.01681l-0.03665,0.03193c-0.10037,0.01926 -0.19904,0.03868 -0.29623,0.05817c-0.03821,0.05103 -0.0775,0.10092 -0.11783,0.14972c0.10136,0.03399 0.20182,0.06827 0.30129,0.10278c2.08833,-0.65103 5.41975,-0.36077 6.6092,-0.36077c1.92115,0 3.82466,0.0991 5.7192,0.24103c2.94013,-1.36231 8.02079,-1.80125 11.15037,-0.97654c0.06298,0.00161 0.12582,0.00251 0.18845,0.00251h0.48867c0,0 0.41988,0 0.4901,0.38478c1.32583,0.51757 2.60024,1.2278 4.02917,1.58482c0,0 0.00299,0.00074 0.00843,0.00235c-0.61658,-1.19371 1.69671,-1.78703 2.37749,-1.93141c1.77132,-0.37566 4.37185,-0.1153 6.79424,0.22738c0.79307,-0.2551 1.59102,-0.45265 2.40213,-0.51166c1.58198,-0.11509 4.55827,-0.03091 5.93188,0.8235c0.1259,0.07832 0.26272,0.25558 0.38932,0.47814c0.4363,-0.05024 0.87559,-0.07958 1.31884,-0.07886c0.31703,0.05229 1.25318,0.11568 2.17344,0.21935c0.14468,-0.93488 0.53366,-1.91125 0.89134,-2.65058c-0.23626,-0.16958 -0.40109,-0.32351 -0.42725,-0.44187c-0.13365,-0.60464 0.63274,-1.12978 1.22602,-1.34632c-0.09828,-0.20906 -0.17767,-0.38285 -0.22873,-0.51116c-0.594,-2.40034 -0.07339,-4.31323 0.66898,-6.20228c-0.35217,-1.62207 -0.66763,-3.27486 -0.69137,-4.71752c-0.02663,-1.61786 -0.98269,-3.32649 0.79733,-4.10428c0.52755,-0.25113 0.99559,-0.81979 1.57725,-0.7646c2.01587,0.19126 1.32964,3.8982 1.05483,5.03139c-0.39354,1.62278 -1.12414,3.06679 -1.7249,4.52557c-0.00133,0.70451 0.03557,1.38869 0.23476,1.98459c0.34434,1.03018 1.23939,2.40784 1.00861,3.69409c-0.12027,0.67034 -0.91885,0.97493 -1.42289,1.46442c0.98706,2.08555 2.40105,5.05442 0.81584,6.60308c-1.16073,1.13396 -2.79089,0.80647 -3.49899,-0.46882c-1.40688,0.36135 -2.76017,0.48684 -4.24585,0.39198c-0.76816,-0.04905 -2.0756,-0.13891 -2.7657,-0.41123c-0.31455,-0.12412 -0.55046,-0.29137 -0.75179,-0.4647c-1.12241,0.23939 -2.24453,0.43491 -3.39305,0.42675c-0.59137,0.63492 -1.70159,1.05393 -2.23957,1.17476c-1.17783,0.26452 -1.9986,-0.31007 -3.08514,-0.48629c-1.33216,-0.21605 -2.7006,-0.24248 -4.056,-0.33239c-2.97566,0.30506 -6.26671,-0.08279 -9.07066,0.09372c-0.55084,0.03467 -1.70309,0.37373 -2.53616,0.26662c-2.17649,1.58447 -7.25961,-0.0156 -9.47828,-0.05946c-0.4744,-0.07287 -0.97752,-0.14028 -1.49717,-0.20788c-1.91881,0.5969 -3.98233,0.68855 -5.98552,0.92702c-0.91127,0.10849 -2.23051,0.12333 -2.77498,-0.74163c-1.9804,0.28668 -3.96343,0.61521 -5.97117,0.94699c-1.62423,0.26089 -3.39631,0.091 -5.04016,0.091h-0.93201c0,0 -0.5,0 -0.5,-0.5c0,-0.5 0.5,-0.5 0.5,-0.5h0.93201c0.22697,0 0.4571,0.00377 0.68942,0.00946c-0.86744,-0.3784 -1.69635,-0.74584 -2.69052,-0.89589c-2.23016,1.2063 -4.20054,2.42927 -6.841,1.72162l-0.03703,0.14809l-0.95999,-0.24c-0.13821,-0.03136 -0.25466,-0.11997 -0.32313,-0.23959c-2.34184,-0.09234 -5.16405,-0.13348 -7.97207,-0.40942c-2.68592,0.70252 -5.56601,1.18773 -7.73605,0.34373c-0.4031,-0.15678 -0.67997,-0.59865 -1.10461,-0.68074c-0.41249,-0.14511 -0.81575,-0.26577 -1.21283,-0.36715c-0.7308,0.12258 -1.46026,0.23268 -2.18827,0.32451c-1.26468,0.15954 -4.43755,-0.84595 -5.02801,-0.23323c-1.9599,0.51195 -4.96589,2.11619 -7.11516,0.92682c-0.25539,-0.14133 -0.55149,-0.38098 -0.85041,-0.63002l-0.84044,-0.00081c-0.67459,-0.08369 -1.34907,-0.16821 -2.02346,-0.25348c-0.52657,-0.14835 -1.06457,-0.35476 -1.60995,-0.59013c-1.05263,0.4106 -2.42165,0.81727 -3.25046,1.10786c-1.8062,0.63327 -3.241,-0.02491 -5.03473,-0.01896c-0.40243,-0.00051 -0.81356,-0.04887 -1.23135,-0.13292c-0.70072,0.12358 -1.42456,0.17014 -2.15243,0.18042zM212.77774,231.57138c-0.138,0.01741 -0.27579,0.035 -0.41336,0.05279c-0.63111,0.26334 -1.27717,0.56168 -1.68106,0.66265c-2.63356,0.65839 -5.13087,1.57019 -7.78368,2.03513c-0.10567,0.11044 -0.2368,0.22764 -0.39644,0.35205c-0.87076,0.67858 -3.14879,0.70652 -5.0774,0.78821c1.15151,0.18782 2.35528,0.48547 3.34854,0.48547c3.24723,0 7.02454,-0.60918 10.28977,-1.6764c0.10047,-0.20354 0.33964,-0.26334 0.33964,-0.26334c0.40316,-0.09948 0.80798,-0.19843 1.21413,-0.29533c0.04636,-0.01831 0.09255,-0.03671 0.13859,-0.05522c0.61578,-0.24632 2.3762,-1.28141 2.45977,-1.93725c-0.80466,-0.08998 -1.61515,-0.14793 -2.43848,-0.14875zM175.69132,230.6929c-0.43386,0.06198 -0.85631,0.14206 -1.26951,0.23695c1.14099,0.03484 2.29297,0.11108 3.46879,0.12785c-0.62543,-0.3329 -1.33399,-0.50149 -2.19928,-0.36481zM192.88824,234.2728c1.89604,-0.42924 3.7627,-0.8447 5.6204,-1.23899c-1.34254,-0.19748 -2.60563,-0.232 -4.00474,-0.20968c-2.00946,0.14392 -3.82061,0.60568 -5.72695,1.01256c0.98686,0.37463 2.13135,0.54058 3.34323,0.57851c0.27029,-0.03958 0.52728,-0.08692 0.76806,-0.14239zM312.81794,233.89139l0.22153,-0.21686c-0.04357,0.00666 -0.0871,0.01355 -0.13062,0.02069c-0.10245,0.32046 -0.47413,0.32046 -0.47413,0.32046c-0.00834,-0.00002 -0.01668,-0.00006 -0.02502,-0.00008c0.09912,0.01013 0.1988,0.02138 0.29897,0.03357c0.04708,-0.0969 0.10927,-0.15778 0.10927,-0.15778zM187.24653,234.19507l-0.07048,-0.04286c-0.33246,0.05751 -0.75731,0.09874 -1.20359,0.15153c0.60668,0.08686 1.2327,0.15434 1.85862,0.20003c-0.20092,-0.0938 -0.39597,-0.19649 -0.58455,-0.3087zM173.93747,233.5231c-0.274,0.03446 -3.02065,0.44114 -2.54328,1.15932c0.31171,0.46896 3.70555,0.54817 4.33439,0.64249c2.33387,0.35374 4.41555,-0.23415 6.4277,-0.89869c-0.47949,-0.19845 -0.90733,-0.49319 -1.31074,-0.83211c-2.30391,-0.03024 -4.64595,-0.35549 -6.90806,-0.07102zM203.12888,233.27398c0.99477,-0.18376 1.97391,-0.42628 2.94765,-0.6937c-1.03084,0.17896 -2.056,0.3671 -3.07905,0.56339c0.04987,0.04099 0.09407,0.08436 0.13139,0.13031zM216.11222,232.76153c-0.02925,0.07969 -0.06601,0.1557 -0.10936,0.2283c1.38167,-0.2483 2.76829,-0.42545 4.1475,-0.47309c0.0176,-0.01645 0.03521,-0.03274 0.05284,-0.04886c-1.35422,-0.19178 -2.68391,-0.43938 -4.02193,-0.62577c0.0634,0.28773 0.04885,0.59821 -0.06906,0.91942zM331.73348,233.63695c-0.00504,0.02015 -0.0107,0.03925 -0.01693,0.05736c0.04028,0.0069 0.08062,0.01374 0.12101,0.0205c0.08435,-0.00724 0.16844,-0.01494 0.25227,-0.02311c-0.11587,-0.03759 -0.22868,-0.09985 -0.33702,-0.19128c-0.00097,0.04194 -0.00703,0.08737 -0.01932,0.13653zM313.94507,234.18738l-0.03928,0.03846c1.77657,0.2928 3.63051,0.66967 5.25539,0.26922c0.19943,-0.04915 0.49101,-0.10335 0.77389,-0.17313c-0.13763,-0.29341 -0.15733,-0.56766 -0.09204,-0.81879c-0.15445,-0.01477 -0.30892,-0.02962 -0.46341,-0.04452c-0.3803,0.02475 -0.72822,0.0684 -0.8819,0.0684c-1.27228,0 -2.54738,-0.0615 -3.81051,-0.00638c-0.25405,0.21479 -0.50152,0.43743 -0.74215,0.66675zM320.57075,232.52241c0.01677,0.00153 0.03355,0.00306 0.05032,0.00459c0.65657,-0.45312 1.55501,-0.70211 2.08406,-0.67382c0.05375,-0.08062 0.11035,-0.15407 0.16959,-0.22091c-1.69369,-0.03643 -3.5557,0.15552 -5.15357,0.53546c1.10283,-0.00326 2.11466,0.09676 2.8496,0.35468zM323.17699,232.73485c-0.00157,0.00007 -0.01649,0.00295 -0.04274,0.00845c1.77234,0.1402 3.54772,0.24708 5.33332,0.27401c-0.81093,-0.35658 -1.61221,-0.71657 -2.45346,-0.96554c-1.15172,-0.05698 -2.16425,-0.32622 -2.83711,0.68308zM355.32893,227.35722c0.23881,-0.11066 0.52659,-0.17888 0.74039,-0.3163c0.7015,-0.45095 -0.30741,-1.75706 -0.38552,-2.20637c-0.10883,-0.62601 -0.25052,-1.29579 -0.40306,-1.98857c-0.35974,1.27873 -0.48998,2.62427 -0.10231,4.15618c0.04474,0.11175 0.0953,0.23038 0.15051,0.35506zM355.8809,218.70907c0.30128,-0.76185 0.57927,-1.54973 0.78078,-2.39124c0.51447,-2.14846 0.93212,-4.28585 -1.27725,-3.10855c-1.1368,0.16381 -0.00912,3.73198 0.2706,4.47772c0.11879,0.31668 0.18742,0.66102 0.22587,1.02207zM356.167,232.32375c-0.31467,0.28937 -0.70114,0.52108 -1.13165,0.70659c0.2391,0.63164 -0.54573,0.93158 -1.0658,1.07621c0.2011,0.40732 0.60589,0.60198 1.32299,0.39659c0.88968,-0.25483 1.05123,-1.12211 0.87447,-2.17938zM353.94935,231.98923c0.67254,-0.08495 1.71641,-0.10131 1.93595,-0.79123c-0.0295,-0.09285 -0.06038,-0.186 -0.09242,-0.27924c-0.23224,-0.1848 -0.76015,-0.4726 -1.27722,-0.77246c-0.17514,0.41692 -0.41468,1.11884 -0.5663,1.84293zM354.8261,228.60402c-0.55046,0.09662 -0.19605,0.37138 0.35299,0.77297c-0.12016,-0.27188 -0.23998,-0.53188 -0.35299,-0.77297zM338.59891,233.09579c0.00266,-0.00708 0.00538,-0.01402 0.00817,-0.02081c-0.939,0.35429 -1.88125,0.68519 -2.83703,0.84284c-0.21053,0.08285 -0.42512,0.15804 -0.64335,0.22624c1.05122,0.11379 2.08268,0.2169 3.04429,0.34428c0.20351,0.02695 1.18838,-0.13758 2.00285,-0.36909c-0.39534,-0.0827 -0.79512,-0.19702 -1.20032,-0.34897l-0.08201,-0.03075c0,0 -0.46816,-0.17556 -0.2926,-0.64372zM339.32465,232.83394c0.58711,0.22017 1.16662,0.35532 1.74072,0.42618c-0.32813,-0.20642 -0.89223,-0.3885 -1.50417,-0.54763c-0.09295,0.03498 -0.18589,0.07022 -0.27885,0.10559zM344.31365,233.10631c-0.16835,-0.06459 -0.36266,-0.09322 -0.60424,-0.06797c0,0 -0.31586,0 -0.44548,-0.25105c-0.46047,-0.04181 -0.92201,-0.07506 -1.38424,-0.10402c0.17411,0.13121 0.29532,0.26955 0.34407,0.41477c0.02546,0.07584 0.04197,0.15028 0.05034,0.22328c0.68421,-0.01158 1.36279,-0.09536 2.03956,-0.21502zM346.77889,233.54067c0.25696,0.08055 0.51272,0.13783 0.7674,0.17606c-0.24142,-0.05674 -0.48863,-0.11921 -0.73345,-0.18349c-0.01132,0.00247 -0.02264,0.00495 -0.03395,0.00743zM268.24577,231.57109c-0.85965,0.05101 -4.61449,0.51773 -4.12694,0.5615c0.41834,0.20963 0.84816,0.3957 1.28746,0.56086c1.95855,-0.39364 3.92578,-0.80823 5.89816,-1.13697c0,0 0.45876,-0.07646 0.56511,0.36056c0.10314,-0.02874 0.20456,-0.05788 0.3041,-0.08741c-0.03969,-0.06776 -0.06534,-0.15536 -0.06534,-0.26862c0,-0.16712 0.05586,-0.27839 0.13025,-0.35246c-1.31944,0.13873 -2.64006,0.28226 -3.9928,0.36254zM277.25068,233.99301c1.11109,0 2.0438,0.55108 2.932,0.48867c0,0 0.20499,-0.00001 0.35246,0.13125l0.06842,-0.03421c0.09848,-0.14707 0.20549,-0.30179 0.3204,-0.46085c-0.90661,-0.34931 -1.64808,-0.92088 -1.272,-1.65663c-0.9823,0.44617 -1.90324,1.0098 -3.01666,1.29606c-0.27684,0.07118 -0.56715,0.15087 -0.86881,0.23648c0.50122,0.00054 0.99675,-0.00078 1.48419,-0.00078zM264.33002,233.92869c-0.04864,0.00947 -0.09728,0.0189 -0.14591,0.02831c1.07732,0.25074 2.13917,0.36111 3.19865,0.36796c-0.53845,-0.12885 -1.06471,-0.27422 -1.57452,-0.43855c-0.49978,0.02817 -0.99477,0.04286 -1.47822,0.04227zM295.03372,234.89247c1.97945,-0.32087 3.93347,-0.63755 5.88376,-0.91679c0.00293,-0.36773 0.11643,-0.67674 0.31564,-0.93609c-1.82199,1.11678 -4.43317,1.31554 -6.28332,1.86646c0.02803,-0.00439 0.056,-0.00891 0.08392,-0.01358zM292.77237,232.77717c-0.95259,0.06362 -1.90364,0.22383 -2.85323,0.42255c-0.19556,0.08657 -0.3879,0.17646 -0.57749,0.26867c1.51369,0.53823 3.09126,1.32658 4.23509,0.98828c1.21582,-0.35959 3.19279,-0.46212 4.27205,-0.93815c0.67115,-0.29603 1.308,-0.69517 1.9478,-1.0918c-0.5489,0.07572 -1.12681,0.12295 -1.78426,0.12292c-1.33916,-0.03573 -2.78867,-0.20559 -4.24484,-0.17018c-0.33929,0.10804 -0.67167,0.23976 -0.99512,0.39772zM282.85126,234.50398c-0.23312,0.00753 -0.54668,-0.02353 -0.88807,-0.08998c-0.15285,0.1746 -0.30392,0.36281 -0.45407,0.56715l0.00931,0.00232l-0.00566,0.02264c1.40496,-0.28088 2.93483,0.12499 4.35005,-0.43099c0.4008,-0.15746 0.78059,-0.36704 1.14935,-0.60086c-0.09136,-0.01629 -0.18205,-0.0312 -0.27224,-0.04485c-1.2987,0.29126 -2.59485,0.5328 -3.88868,0.57458zM282.87037,231.79401c0,0 0.12077,0 0.24361,0.05936c0.12001,-0.0823 0.2422,-0.15909 0.36638,-0.22933c-0.39603,0.02731 -0.7919,0.06998 -1.19126,0.13931c0.26049,0.01633 0.47287,0.03065 0.58128,0.03065zM343.64482,231.79476c0.33287,0.04917 0.64902,0.0939 0.94419,0.13182c0.89242,0.1164 1.72658,0.31447 2.5358,0.57263c0.21368,-0.04701 0.42771,-0.09261 0.6422,-0.13565c-0.08737,-0.02787 -0.1756,-0.05129 -0.26235,-0.07135c-1.1871,-0.27446 -2.58306,-0.49864 -3.85984,-0.49746zM348.92669,233.17622c0.05629,0.02396 0.04436,0.0081 -0.00167,-0.02914c-0.01705,0.00222 -0.03409,0.00446 -0.05113,0.00673c0.0176,0.00744 0.0352,0.01492 0.0528,0.02241zM302.73995,233.21844c-0.02028,0.00632 -0.04054,0.01275 -0.06077,0.01929c-0.2595,0.08388 -0.59107,0.32189 -0.73419,0.59444c0.60865,-0.08275 1.21732,-0.16128 1.82665,-0.23458c-0.13109,-0.04447 -0.25963,-0.09075 -0.38534,-0.13897c-0.2095,-0.08035 -0.42519,-0.16073 -0.64635,-0.24018zM304.81064,234.48416c0.6551,-0.06516 1.3089,-0.1148 1.9563,-0.1803c-0.04832,-0.0081 -0.09658,-0.01629 -0.14477,-0.02457c-1.33259,0.11864 -2.65733,0.27176 -3.98079,0.44786c0.70333,0.14125 1.52299,-0.1787 2.16926,-0.24299zM312.01077,232.86028c-0.89923,-0.04188 -1.8013,-0.06627 -2.70705,-0.06627c-0.94306,0 -1.88437,-0.00309 -2.82708,0.02354c-0.57306,0.01619 -1.15332,0.0227 -1.73023,0.06147c0.5897,0.16762 1.23313,0.30218 1.89841,0.41627c1.57624,-0.13993 3.16374,-0.23481 4.77369,-0.26745c0.01643,-0.00958 0.03284,-0.01923 0.04924,-0.02895c0.16643,-0.04607 0.34822,-0.0925 0.54302,-0.13861zM333.2899,232.27884c-0.64538,0.21502 -1.36114,0.49555 -0.96407,0.38576c0.36957,-0.10219 0.68389,-0.23684 0.96407,-0.38576zM334.87208,232.04062c-0.40369,0.34065 -1.135,1.19154 -1.88079,1.54183c0.89483,-0.13148 1.74451,-0.33096 2.51336,-0.62877c0.68844,-0.11588 1.36771,-0.31401 2.04292,-0.54458c-0.31889,-0.02992 -0.63759,-0.06409 -0.95596,-0.10388c-0.51846,-0.06481 -1.13182,-0.21563 -1.71953,-0.2646zM320.79949,233.89845c0.02375,-0.06026 0.01736,-0.12656 -0.02802,-0.19983c-0.02717,0.06606 -0.02088,0.13297 0.02802,0.19983zM323.69228,233.83382c-0.64297,-0.04549 -1.28552,-0.09757 -1.92794,-0.15364c-0.00313,0.13091 -0.0365,0.27135 -0.10363,0.42194c0.6096,-0.02339 1.42253,-0.17138 2.03157,-0.2683zM283.34772,233.2685c0.00018,-0.03106 0.00227,-0.06018 0.00604,-0.08748c-0.14855,0.10185 -0.29388,0.20859 -0.43656,0.32187c0.1538,-0.01026 0.30742,-0.02309 0.46087,-0.03822c-0.01947,-0.05496 -0.03078,-0.11976 -0.03035,-0.19617zM247.42129,233.71856c0,0 -0.08898,0.04448 -0.20739,0.05409c0.37089,0.30111 0.74741,0.62364 1.03878,0.81884c1.52455,1.0214 4.65917,-0.70494 6.05175,-1.03453c0.0537,-0.03698 0.10952,-0.07013 0.16731,-0.09972c-2.4055,-0.33856 -4.72692,-0.9076 -7.05044,0.26132zM246.97409,232.82413c2.68449,-1.335 5.29408,-0.64456 8.08959,-0.2969c1.13413,0.14104 2.18759,0.20727 3.2148,0.28849c-1.89625,-0.66347 -3.78548,-1.48096 -5.6824,-1.97623c-2.33718,0.06049 -5.16809,0.08158 -7.38563,0.93013c-0.03349,0.01281 -0.06649,0.02709 -0.09902,0.04271c0.03975,0.0126 0.07952,0.02552 0.11931,0.03879l0.05526,0.0598l0.01268,-0.01691l0.79534,0.59651c0.12409,0.09098 0.20466,0.23783 0.20466,0.40349c0,0.07408 -0.01611,0.14441 -0.04503,0.20765c0.00278,0.00128 0.00556,0.00258 0.00834,0.00387c0.13111,0.06107 0.28195,0.15712 0.44329,0.27303c-0.10083,-0.36963 0.26879,-0.55444 0.26879,-0.55444zM235.28023,231.56933c-1.47744,0.12051 -2.79134,1.04245 -4.11033,1.89451c0.50705,0.16664 1.0135,0.3056 1.51809,0.39925c0.15599,-0.02866 0.31087,-0.06185 0.46444,-0.10021c1.71236,-0.42775 3.43914,-1.1179 5.19289,-1.63941c-1.03863,-0.38783 -2.06912,-0.63537 -3.06509,-0.55413zM228.47024,233.77434c0.20495,-0.06793 0.40649,-0.14705 0.60533,-0.23502c-0.41434,-0.17809 -0.82941,-0.35683 -1.24348,-0.52604c-0.26468,0.1677 -0.52778,0.40964 -0.79443,0.66096c0.24177,0.10247 0.4826,0.21262 0.72239,0.33081c0.14008,-0.0027 0.281,-0.00377 0.42261,-0.00368c0.0999,-0.16447 0.28758,-0.22703 0.28758,-0.22703zM236.93941,234.42691c1.17427,0.01414 2.06475,-0.58457 3.00768,-1.09298c-0.0538,-0.07207 -0.09073,-0.17103 -0.09073,-0.30692c0,-0.09793 0.01918,-0.17667 0.05003,-0.24c-0.05541,-0.02562 -0.11083,-0.05112 -0.16626,-0.07645c-1.51175,0.36534 -3.00431,0.95411 -4.4553,1.44953c0.55306,0.11939 1.09706,0.2601 1.65459,0.26681zM226.03471,233.29401c0.24507,-0.21539 0.48904,-0.46599 0.72943,-0.69064c-1.03227,-0.3645 -2.04901,-0.61333 -3.02318,-0.58494c0.58875,0.38778 1.23342,0.78661 1.91781,1.15515c0.12553,0.03829 0.25084,0.07842 0.37593,0.12043zM181.35416,232.47623c-0.20694,-0.04719 -0.41473,-0.09262 -0.62244,-0.13501c0.06371,0.05652 0.12801,0.11236 0.19304,0.16733c0.13517,-0.00928 0.27966,-0.02095 0.42941,-0.03232zM178.34099,232.06101c-1.82932,0 -3.60185,-0.19199 -5.36123,-0.15945l0.28953,0.27869c0,0 0.15736,0.15336 0.16179,0.36106c1.99697,-0.3308 4.29254,-0.09125 6.26668,-0.02831c-0.13851,-0.13623 -0.27733,-0.27153 -0.41778,-0.40338c-0.31955,-0.03304 -0.63372,-0.05094 -0.939,-0.04862zM148.08897,232.06101c-1.14396,0.00187 -3.48306,-0.51219 -4.06113,0.48976c0.10967,0.03408 0.21096,0.07292 0.30229,0.11671c0.59849,0.07116 1.1935,0.14713 1.78096,0.20585c1.12516,0.11528 2.22773,0.34192 3.32067,0.61889c0.32216,-0.08408 0.64813,-0.16641 0.97892,-0.2476l0.32122,-0.22496c0.69586,-0.05063 1.37073,-0.15761 2.03254,-0.29981c-0.76569,-0.1868 -1.53075,-0.3477 -2.28813,-0.46373c-0.06346,0.04075 -0.12034,0.08951 -0.16979,0.14711c0,0 -0.35356,0.35356 -0.70711,0c-0.0942,-0.0942 -0.13819,-0.18839 -0.15206,-0.27589c-0.45738,-0.04351 -0.91071,-0.06706 -1.35838,-0.06633zM201.20018,233.54544c0.04313,-0.00402 0.08623,-0.00817 0.12928,-0.01247c-0.06606,-0.00189 -0.1253,-0.00711 -0.17321,-0.01748c-0.0077,-0.00167 -0.01541,-0.00333 -0.02312,-0.00499c-0.14143,0.02849 -0.28286,0.05712 -0.4243,0.0859c0.16791,-0.01883 0.33183,-0.03594 0.49135,-0.05096zM146.01156,233.86837c-0.3504,-0.03506 -0.69758,-0.07063 -1.04302,-0.1049c-0.00539,0.38985 -0.13333,0.82619 -0.32548,1.24193c0.92503,-0.35316 1.83911,-0.66279 2.76866,-0.94518c-0.4634,-0.08067 -0.92981,-0.1461 -1.40016,-0.19185zM137.3923,233.98114c0.25713,0.06068 0.51501,0.15418 0.77104,0.26648c0.02337,-0.06876 0.05356,-0.1352 0.0899,-0.19928c-0.19964,-0.18198 -0.33039,-0.41508 -0.27285,-0.63748c0.02304,-0.08904 0.25822,-0.2236 0.56772,-0.36101c-1.34152,0.02723 -2.96466,0.12367 -4.35069,0.3948c1.06015,0.1245 2.12328,0.28359 3.19488,0.53648zM144.01676,233.67339c-0.3372,-0.02982 -0.67404,-0.0568 -1.01194,-0.07924c-0.09171,0.10838 -0.22875,0.17719 -0.38185,0.17719h-0.97734v-0.1287c-0.19542,0.02869 -0.39265,0.05895 -0.58756,0.09369c-0.64158,0.25391 -1.25227,0.53521 -1.74003,0.62147c-0.06368,0.04776 -0.12353,0.09891 -0.17909,0.15375c-0.12828,0.12662 2.71761,1.01836 3.92228,1.02283c0.37742,-0.48951 1.08648,-1.56214 0.95552,-1.86098zM163.49156,233.52556c2.63392,-0.84855 0.05161,-1.95321 -1.32191,-1.95321c-1.85978,0 -3.55815,0.49267 -5.23387,1.03106c2.03763,0.5529 4.29021,1.08958 6.25489,1.00129c0.10342,-0.02165 0.20385,-0.04788 0.30089,-0.07914zM281.99269,232.82311c-1.46627,0.10874 -1.50144,0.49266 -0.56718,0.64171c0.17737,-0.21661 0.36692,-0.43303 0.56718,-0.64171z" fill="#8b4fff" stroke="none" stroke-width="0.5" stroke-linecap="butt"/><path d="M194.433,232.53834c0,0.5 -0.5,0.5 -0.5,0.5l-0.71227,-0.05279c-2.6202,-1.3101 -5.42703,-1.90202 -8.37338,-1.28568c-1.06591,0.22298 -1.62927,0.83511 -2.75176,0.95436c-4.29115,2.1941 -7.94279,1.52655 -12.45822,2.48674c-1.5572,0.33113 -3.60645,0.88232 -4.88927,-0.29441c0,0 -0.35355,-0.35355 0,-0.70711c0.35355,-0.35355 0.70711,0 0.70711,0c0.79064,0.92099 2.93512,0.24023 3.97605,0.02299c4.51841,-0.943 8.09148,-0.36169 12.3857,-2.46861c1.15663,-0.11149 1.69536,-0.72438 2.82022,-0.97163c3.13904,-0.68997 6.23451,-0.02921 9.03076,1.36892l0.26506,-0.05279c0,0 0.5,0 0.5,0.5z" fill="#8b4fff" stroke="none" stroke-width="0.5" stroke-linecap="butt"/><path d="M216.17868,235.22601c0,0.5 -0.5,0.5 -0.5,0.5l-0.31504,-0.00503c-3.62763,-0.51823 -6.65165,-2.69809 -10.43563,-2.68264c0,0 -0.5,0 -0.5,-0.5c0,-0.5 0.5,-0.5 0.5,-0.5c3.84194,0.01386 6.90721,2.16843 10.57705,2.69269l0.17362,-0.00503c0,0 0.5,0 0.5,0.5z" fill="#8b4fff" stroke="none" stroke-width="0.5" stroke-linecap="butt"/><path d="M348.37277,234.49013c-0.27735,-0.41603 0.13868,-0.69338 0.13868,-0.69338l0.13795,-0.09197c1.49437,-0.99409 5.463,-4.41306 7.04976,-2.74614c1.8362,1.92895 -1.47783,4.34993 -3.03035,4.40081c0,0 -0.5,0 -0.5,-0.5c0,-0.5 0.5,-0.5 0.5,-0.5c0.79897,0.03905 3.35606,-1.59417 2.30461,-2.71284c-0.10011,-0.10651 -1.32489,-0.2269 -1.4148,-0.19173c-0.27673,0.10824 -1.06513,1.27137 -1.17067,1.37262c-0.83807,0.804 -2.20147,1.0529 -3.18386,1.70934l-0.13795,0.09197c0,0 -0.41603,0.27735 -0.69338,-0.13868z" fill="#8b4fff" stroke="none" stroke-width="0.5" stroke-linecap="butt"/><path d="M124.97894,226.27994c0.49614,-0.06202 0.55816,0.43412 0.55816,0.43412l0.07527,0.60212c0.14534,1.16276 -0.14416,3.67361 0.19353,5.31106c0.84825,0.65128 3.75706,1.09344 4.73176,1.08554h0.97v0c0.27614,0 0.5,0.22386 0.5,0.5c0,0.17631 -0.09125,0.3313 -0.2291,0.42033l-0.8256,0.5504l-0.22994,-0.34491c-1.57166,0.63504 -3.90223,0.82574 -5.02456,-0.23551c-0.3579,-0.33842 -0.59147,-0.82915 -0.74348,-1.40448c-0.73522,-0.85292 -0.60378,-3.05943 -0.7335,-4.09717c0,0 -0.06202,-0.49614 0.43412,-0.55816c0.0078,-0.00098 0.0155,-0.00181 0.02309,-0.00252c-0.00463,-0.41206 -0.01936,-0.78652 -0.05861,-1.10055l-0.07527,-0.60212c0,0 -0.06202,-0.49614 0.43412,-0.55816z" fill="#8b4fff" stroke="none" stroke-width="0.5" stroke-linecap="butt"/><path d="M345.38039,125.5321c0.04011,-0.49839 0.5385,-0.45828 0.5385,-0.45828l0.84931,0.06851c1.25798,0.16479 2.52985,0.35345 3.73827,0.66649c2.71408,-0.55101 5.20253,-0.2032 5.5258,3.58903c0.07045,0.10872 0.13891,0.22041 0.20532,0.33519c0.78413,0.85022 0.83209,4.56895 -1.01055,2.98453c-0.78551,-0.67543 -0.47543,-1.97589 -0.38432,-3.24648c-1.21697,-1.50787 -2.87463,-2.27106 -4.70678,-2.73143c-0.90868,0.30021 -1.78278,0.69037 -2.48238,0.92357c0,0 -0.47434,0.15811 -0.63246,-0.31623c-0.15811,-0.47434 0.31623,-0.63246 0.31623,-0.63246c0.33411,-0.11137 0.67704,-0.22433 1.02465,-0.33344c-0.56078,-0.09177 -1.12932,-0.16952 -1.69896,-0.24432l-0.82436,-0.06619c0,0 -0.49839,-0.04011 -0.45828,-0.5385zM352.10927,126.32284c0.95914,0.37788 1.84779,0.87732 2.61923,1.55902c-0.14945,-0.47962 -0.44398,-0.90147 -0.98675,-1.21418c-0.48768,-0.28096 -1.04543,-0.37193 -1.63247,-0.34484z" fill="#8b4fff" stroke="none" stroke-width="0.5" stroke-linecap="butt"/></g></g></svg>