<svg version="1.1" xmlns="http://www.w3.org/2000/svg" xmlns:xlink="http://www.w3.org/1999/xlink" width="310.59403" height="88.58022" viewBox="0,0,310.59403,88.58022"><defs><linearGradient x1="-619.90502" y1="-674.966" x2="-536.54416" y2="540.45693" gradientUnits="userSpaceOnUse" id="color-1"><stop offset="0" stop-color="#000000"/><stop offset="1" stop-color="#000000" stop-opacity="0"/></linearGradient><linearGradient x1="241.70009" y1="140.6999" x2="241.70009" y2="150.0501" gradientUnits="userSpaceOnUse" id="color-2"><stop offset="0" stop-color="#000000"/><stop offset="1" stop-color="#000000" stop-opacity="0"/></linearGradient><linearGradient x1="241.70009" y1="140.6999" x2="241.70009" y2="150.0501" gradientUnits="userSpaceOnUse" id="color-3"><stop offset="0" stop-color="#000000"/><stop offset="1" stop-color="#000000" stop-opacity="0"/></linearGradient><linearGradient x1="92.44619" y1="145.37501" x2="92.44619" y2="217.31787" gradientUnits="userSpaceOnUse" id="color-4"><stop offset="0" stop-color="#000000"/><stop offset="1" stop-color="#000000" stop-opacity="0"/></linearGradient><linearGradient x1="92.44619" y1="145.37501" x2="92.44619" y2="217.31787" gradientUnits="userSpaceOnUse" id="color-5"><stop offset="0" stop-color="#000000"/><stop offset="1" stop-color="#000000" stop-opacity="0"/></linearGradient><linearGradient x1="240.97717" y1="213.36499" x2="240.97717" y2="222.71519" gradientUnits="userSpaceOnUse" id="color-6"><stop offset="0" stop-color="#000000"/><stop offset="1" stop-color="#000000" stop-opacity="0"/></linearGradient><linearGradient x1="240.97717" y1="213.36499" x2="240.97717" y2="222.71519" gradientUnits="userSpaceOnUse" id="color-7"><stop offset="0" stop-color="#000000"/><stop offset="1" stop-color="#000000" stop-opacity="0"/></linearGradient><linearGradient x1="390.23105" y1="146.09726" x2="390.23105" y2="218.04011" gradientUnits="userSpaceOnUse" id="color-8"><stop offset="0" stop-color="#000000"/><stop offset="1" stop-color="#000000" stop-opacity="0"/></linearGradient><linearGradient x1="390.23105" y1="146.09726" x2="390.23105" y2="218.04011" gradientUnits="userSpaceOnUse" id="color-9"><stop offset="0" stop-color="#000000"/><stop offset="1" stop-color="#000000" stop-opacity="0"/></linearGradient><linearGradient x1="241.24911" y1="173.90254" x2="241.24911" y2="210.61608" gradientUnits="userSpaceOnUse" id="color-10"><stop offset="0" stop-color="#000000"/><stop offset="1" stop-color="#000000" stop-opacity="0"/></linearGradient><linearGradient x1="241.24911" y1="173.90254" x2="241.24911" y2="210.61608" gradientUnits="userSpaceOnUse" id="color-11"><stop offset="0" stop-color="#000000"/><stop offset="1" stop-color="#000000" stop-opacity="0"/></linearGradient></defs><g transform="translate(-86.19618,-135.70989)"><g data-paper-data="{&quot;isPaintingLayer&quot;:true}" fill-rule="nonzero" stroke-linejoin="miter" stroke-miterlimit="10" stroke-dasharray="" stroke-dashoffset="0" style="mix-blend-mode: normal"><g><path d="M91.78233,214.1876l-2.3224,-70.07674l298.7423,-1.48895l1.51423,70.2006z" fill="url(#color-1)" stroke="none" stroke-width="0" stroke-linecap="butt"/><g stroke-linecap="round"><g stroke-width="12.5"><path d="M388.82765,145.37501h-294.25513" fill="url(#color-2)" stroke="url(#color-3)"/><path d="M92.44619,145.37502v71.94284" fill="url(#color-4)" stroke="url(#color-5)"/><path d="M93.84959,218.04011h294.25513" data-paper-data="{&quot;index&quot;:null}" fill="url(#color-6)" stroke="url(#color-7)"/><path d="M390.23105,146.09728v71.94283" data-paper-data="{&quot;index&quot;:null}" fill="url(#color-8)" stroke="url(#color-9)"/></g><g fill="none" stroke="#28123b" stroke-width="12.5"><path d="M389.13683,141.95989h-294.25513"/><path d="M92.75536,141.95989v71.94283"/><path d="M94.15879,214.62496h294.25513" data-paper-data="{&quot;index&quot;:null}"/><path d="M390.54022,214.62496v-71.94283" data-paper-data="{&quot;index&quot;:null}"/></g><g fill="none" stroke="#8b4fff" stroke-width="4.5"><path d="M94.88168,141.95989h294.25513"/><path d="M92.75536,141.95989v71.94283"/><path d="M94.15879,214.62496h294.25513" data-paper-data="{&quot;index&quot;:null}"/><path d="M390.54022,214.62496v-71.94283" data-paper-data="{&quot;index&quot;:null}"/></g></g><g stroke-linecap="square"><path d="M139.76083,209.96797v-7.47233h2.28744v-20.47266h-2.28744v-7.47233h17.30835v7.47233h-2.28745v20.47266h2.28745v7.47233zM185.10875,174.55065h14.90654v7.47233h-2.24932v27.94499h-12.80971l-13.34345,-20.51078v13.03846h2.2112v7.47233h-14.94466v-7.47233h2.28745v-20.47266h-2.28745v-7.47233h16.43151l11.97097,18.26146v-10.78913h-2.17307zM215.86532,210.61608c-2.92284,0 -5.6805,-0.25415 -8.27294,-0.76248c-2.59244,-0.50833 -4.58761,-1.08019 -5.98549,-1.71559v-8.9973h10.02665c0,0.94039 0.20333,1.62662 0.60999,2.05871c0.43208,0.40666 1.21997,0.60998 2.3637,0.60998c0.94039,0 1.61392,-0.13979 2.02058,-0.41937c0.40666,-0.27958 0.60998,-0.71164 0.60998,-1.29622c0,-0.4829 -0.20333,-0.90226 -0.60998,-1.25809c-0.38124,-0.35583 -1.05477,-0.71165 -2.02058,-1.06748l-3.92678,-1.37247c-3.38034,-1.27081 -5.80758,-2.77035 -7.28171,-4.49865c-1.44871,-1.7283 -2.17307,-4.06657 -2.17307,-7.01484c0,-3.58367 1.16913,-6.3032 3.50742,-8.15857c2.3637,-1.88079 6.29048,-2.82118 11.78036,-2.82118c2.64327,0 5.12135,0.26686 7.43421,0.8006c2.31286,0.53374 4.18094,1.24539 5.60424,2.13495v8.12044h-9.07355c0,-1.49955 -0.94039,-2.24932 -2.82119,-2.24932c-0.91498,0 -1.56309,0.11437 -1.94433,0.34312c-0.38124,0.22875 -0.57186,0.6227 -0.57186,1.18185c0,0.53374 0.21603,0.9531 0.64811,1.25809c0.45749,0.305 1.18185,0.6227 2.17308,0.9531l3.96491,1.37247c3.20242,1.09289 5.54071,2.51619 7.01484,4.2699c1.47413,1.7283 2.2112,4.00304 2.2112,6.82422c0,3.83783 -1.29622,6.74798 -3.88866,8.73043c-2.59244,1.98246 -6.39214,2.97368 -11.39912,2.97368zM265.83676,202.49564h1.82996v7.47233h-17.8421v-7.47233h2.74494l-0.72436,-3.62179h-6.21423l-0.72436,3.62179h2.74494v7.47233h-15.59277v-7.47233h1.82996l7.70108,-27.94499h16.54588zM246.62219,194.03208h4.19366l-1.86809,-9.07354h-0.45749zM295.35868,174.55065h14.90653v7.47233h-2.24932v27.94499h-12.80971l-13.34345,-20.51078v13.03846h2.2112v7.47233h-14.94466v-7.47233h2.28745v-20.47266h-2.28745v-7.47233h16.4315l11.97098,18.26146v-10.78913h-2.17308zM312.00933,209.96797v-7.47233h2.28745v-20.47266h-2.28745v-7.47233h30.72805v13.76281h-10.21727v-6.29048h-5.48987v7.20546h4.00304v5.18489h-4.00304v8.08231h5.48987v-7.16734h10.21727v14.63967z" fill="url(#color-10)" stroke="url(#color-11)" stroke-width="10"/><path d="M139.76083,194.96797v-7.47233h2.28744v-20.47266h-2.28744v-7.47233h17.30835v7.47233h-2.28745v20.47266h2.28745v7.47233zM185.10875,159.55065h14.90654v7.47233h-2.24932v27.94499h-12.80971l-13.34345,-20.51079v13.03846h2.21119v7.47233h-14.94466v-7.47233h2.28745v-20.47266h-2.28745v-7.47233h16.4315l11.97097,18.26146v-10.78913h-2.17307zM215.86532,195.61608c-2.92284,0 -5.68049,-0.25415 -8.27293,-0.76248c-2.59244,-0.50833 -4.58761,-1.08019 -5.98549,-1.71559v-8.9973h10.02665c0,0.94039 0.20333,1.62662 0.60998,2.05871c0.43208,0.40666 1.21997,0.60998 2.3637,0.60998c0.94039,0 1.61392,-0.13979 2.02058,-0.41937c0.40666,-0.27958 0.60998,-0.71164 0.60998,-1.29622c0,-0.4829 -0.20333,-0.90226 -0.60998,-1.25809c-0.38124,-0.35583 -1.05477,-0.71165 -2.02058,-1.06748l-3.92678,-1.37247c-3.38034,-1.27081 -5.80758,-2.77035 -7.28171,-4.49865c-1.44871,-1.7283 -2.17307,-4.06657 -2.17307,-7.01484c0,-3.58367 1.16913,-6.3032 3.50742,-8.15857c2.3637,-1.88079 6.29048,-2.82119 11.78036,-2.82119c2.64327,0 5.12135,0.26686 7.43421,0.80061c2.31286,0.53374 4.18094,1.24539 5.60424,2.13495v8.12044h-9.07354c0,-1.49955 -0.94039,-2.24932 -2.82119,-2.24932c-0.91498,0 -1.56309,0.11437 -1.94433,0.34312c-0.38124,0.22875 -0.57186,0.6227 -0.57186,1.18185c0,0.53374 0.21603,0.9531 0.64811,1.25809c0.45749,0.305 1.18185,0.6227 2.17308,0.9531l3.96491,1.37247c3.20243,1.09289 5.54071,2.51619 7.01484,4.2699c1.47413,1.7283 2.2112,4.00304 2.2112,6.82422c0,3.83783 -1.29622,6.74797 -3.88866,8.73043c-2.59244,1.98246 -6.39214,2.97368 -11.39912,2.97368zM265.83676,187.49564h1.82996v7.47233h-17.8421v-7.47233h2.74494l-0.72436,-3.62179h-6.21424l-0.72436,3.62179h2.74494v7.47233h-15.59277v-7.47233h1.82996l7.70107,-27.94499h16.54588zM246.62219,179.03208h4.19365l-1.86808,-9.07354h-0.45749zM295.35868,159.55065h14.90654v7.47233h-2.24932v27.94499h-12.80971l-13.34345,-20.51079v13.03846h2.2112v7.47233h-14.94466v-7.47233h2.28745v-20.47266h-2.28745v-7.47233h16.43151l11.97097,18.26146v-10.78913h-2.17308zM312.00933,194.96797v-7.47233h2.28745v-20.47266h-2.28745v-7.47233h30.72806v13.76281h-10.21727v-6.29048h-5.48988v7.20546h4.00303v5.18489h-4.00303v8.08231h5.48988v-7.16734h10.21727v14.63967z" fill="#a97fff" stroke="#28123b" stroke-width="10"/><path d="M139.76083,194.96797v-7.47233h2.28745v-20.47266h-2.28745v-7.47233h17.30836v7.47233h-2.28745v20.47266h2.28745v7.47233zM185.10875,159.55065h14.90654v7.47233h-2.24932v27.94499h-12.80971l-13.34345,-20.51078v13.03845h2.2112v7.47233h-14.94466v-7.47233h2.28745v-20.47266h-2.28745v-7.47233h16.4315l11.97098,18.26146v-10.78913h-2.17308zM215.86532,195.61608c-2.92285,0 -5.6805,-0.25416 -8.27294,-0.76248c-2.59244,-0.50833 -4.58761,-1.08019 -5.98549,-1.71559v-8.9973h10.02665c0,0.94039 0.20333,1.62663 0.60999,2.0587c0.43208,0.40665 1.21997,0.60999 2.3637,0.60999c0.94039,0 1.61393,-0.13978 2.02058,-0.41937c0.40665,-0.27958 0.60999,-0.71165 0.60999,-1.29622c0,-0.4829 -0.20333,-0.90227 -0.60999,-1.2581c-0.38124,-0.35583 -1.05476,-0.71165 -2.02058,-1.06748l-3.92679,-1.37247c-3.38034,-1.27081 -5.80758,-2.77035 -7.28171,-4.49865c-1.44872,-1.7283 -2.17308,-4.06657 -2.17308,-7.01484c0,-3.58367 1.16914,-6.30319 3.50742,-8.15856c2.3637,-1.88079 6.29048,-2.82119 11.78036,-2.82119c2.64328,0 5.12135,0.26687 7.43421,0.80061c2.31286,0.53374 4.18094,1.24538 5.60425,2.13495v8.12044h-9.07354c0,-1.49955 -0.94039,-2.24932 -2.82119,-2.24932c-0.91498,0 -1.56309,0.11437 -1.94433,0.34312c-0.38124,0.22874 -0.57186,0.6227 -0.57186,1.18185c0,0.53374 0.21603,0.9531 0.64811,1.2581c0.45749,0.30499 1.18185,0.6227 2.17308,0.9531l3.96491,1.37247c3.20243,1.09289 5.54071,2.51619 7.01484,4.2699c1.47413,1.7283 2.2112,4.00303 2.2112,6.82422c0,3.83783 -1.29622,6.74797 -3.88866,8.73043c-2.59244,1.98246 -6.39214,2.97368 -11.39912,2.97368zM265.83676,187.49564h1.82996v7.47233h-17.8421v-7.47233h2.74494l-0.72436,-3.62179h-6.21423l-0.72436,3.62179h2.74494v7.47233h-15.59277v-7.47233h1.82996l7.70108,-27.94499h16.54587zM246.62219,179.03208h4.19365l-1.86808,-9.07354h-0.45749zM295.35868,159.55065h14.90654v7.47233h-2.24932v27.94499h-12.80971l-13.34345,-20.51078v13.03845h2.2112v7.47233h-14.94466v-7.47233h2.28745v-20.47266h-2.28745v-7.47233h16.4315l11.97098,18.26146v-10.78913h-2.17308zM312.00933,194.96797v-7.47233h2.28745v-20.47266h-2.28745v-7.47233h30.72805v13.76281h-10.21727v-6.29048h-5.48988v7.20546h4.00303v5.18488h-4.00303v8.08232h5.48988v-7.16734h10.21727v14.63967z" fill="#a97fff" stroke="none" stroke-width="1"/></g></g></g></g></svg>