<svg version="1.1" xmlns="http://www.w3.org/2000/svg" xmlns:xlink="http://www.w3.org/1999/xlink" width="205.41455" height="82.24689" viewBox="0,0,205.41455,82.24689"><defs><linearGradient x1="-312.2708" y1="-673.37078" x2="-258.70692" y2="542.05216" gradientUnits="userSpaceOnUse" id="color-1"><stop offset="0" stop-color="#000000"/><stop offset="1" stop-color="#000000" stop-opacity="0"/></linearGradient><linearGradient x1="240.36377" y1="145.01814" x2="240.36377" y2="153.58998" gradientUnits="userSpaceOnUse" id="color-2"><stop offset="0" stop-color="#000000"/><stop offset="1" stop-color="#000000" stop-opacity="0"/></linearGradient><linearGradient x1="240.36377" y1="145.01814" x2="240.36377" y2="153.58998" gradientUnits="userSpaceOnUse" id="color-3"><stop offset="0" stop-color="#000000"/><stop offset="1" stop-color="#000000" stop-opacity="0"/></linearGradient><linearGradient x1="143.77261" y1="149.30406" x2="143.77261" y2="215.25798" gradientUnits="userSpaceOnUse" id="color-4"><stop offset="0" stop-color="#000000"/><stop offset="1" stop-color="#000000" stop-opacity="0"/></linearGradient><linearGradient x1="143.77261" y1="149.30406" x2="143.77261" y2="215.25798" gradientUnits="userSpaceOnUse" id="color-5"><stop offset="0" stop-color="#000000"/><stop offset="1" stop-color="#000000" stop-opacity="0"/></linearGradient><linearGradient x1="239.89593" y1="211.63418" x2="239.89593" y2="220.20602" gradientUnits="userSpaceOnUse" id="color-6"><stop offset="0" stop-color="#000000"/><stop offset="1" stop-color="#000000" stop-opacity="0"/></linearGradient><linearGradient x1="239.89593" y1="211.63418" x2="239.89593" y2="220.20602" gradientUnits="userSpaceOnUse" id="color-7"><stop offset="0" stop-color="#000000"/><stop offset="1" stop-color="#000000" stop-opacity="0"/></linearGradient><linearGradient x1="336.48708" y1="149.96618" x2="336.48708" y2="215.9201" gradientUnits="userSpaceOnUse" id="color-8"><stop offset="0" stop-color="#000000"/><stop offset="1" stop-color="#000000" stop-opacity="0"/></linearGradient><linearGradient x1="336.48708" y1="149.96618" x2="336.48708" y2="215.9201" gradientUnits="userSpaceOnUse" id="color-9"><stop offset="0" stop-color="#000000"/><stop offset="1" stop-color="#000000" stop-opacity="0"/></linearGradient><linearGradient x1="227.04016" y1="156.12777" x2="239.97135" y2="180.05629" gradientUnits="userSpaceOnUse" id="color-10"><stop offset="0" stop-color="#8b4fff" stop-opacity="0"/><stop offset="1" stop-color="#8b4fff" stop-opacity="0"/></linearGradient><linearGradient x1="234.12508" y1="161.73728" x2="247.05627" y2="193.56716" gradientUnits="userSpaceOnUse" id="color-11"><stop offset="0" stop-color="#8b4fff" stop-opacity="0"/><stop offset="1" stop-color="#8b4fff" stop-opacity="0"/></linearGradient><linearGradient x1="227.04016" y1="156.12777" x2="239.97134" y2="180.05629" gradientUnits="userSpaceOnUse" id="color-12"><stop offset="0" stop-color="#8b4fff" stop-opacity="0"/><stop offset="1" stop-color="#8b4fff" stop-opacity="0"/></linearGradient><linearGradient x1="234.12507" y1="161.73728" x2="247.05627" y2="193.56716" gradientUnits="userSpaceOnUse" id="color-13"><stop offset="0" stop-color="#8b4fff" stop-opacity="0"/><stop offset="1" stop-color="#8b4fff" stop-opacity="0"/></linearGradient></defs><g transform="translate(-137.52261,-139.92321)"><g data-paper-data="{&quot;isPaintingLayer&quot;:true}" fill-rule="nonzero" stroke-linejoin="miter" stroke-miterlimit="10" stroke-dasharray="" stroke-dashoffset="0" style="mix-blend-mode: normal"><path d="M145.02675,215.78285l-1.49226,-70.07674l191.95805,-1.48895l0.97298,70.2006z" fill="url(#color-1)" stroke="none" stroke-width="0" stroke-linecap="butt"/><g stroke-width="12.5" stroke-linecap="round"><path d="M335.57886,149.30406h-190.43018" fill="url(#color-2)" stroke="url(#color-3)"/><path d="M143.77261,149.30406v65.95393" fill="url(#color-4)" stroke="url(#color-5)"/><path d="M144.68083,215.9201h190.43018" data-paper-data="{&quot;index&quot;:null}" fill="url(#color-6)" stroke="url(#color-7)"/><path d="M336.48708,149.96619v65.95391" data-paper-data="{&quot;index&quot;:null}" fill="url(#color-8)" stroke="url(#color-9)"/></g><g fill="none" stroke="#28123b" stroke-width="12.5" stroke-linecap="round"><path d="M145.34876,146.17321h190.43018"/><path d="M143.97269,146.17321v65.95391"/><path d="M335.31109,212.78924h-190.43018" data-paper-data="{&quot;index&quot;:null}"/><path d="M336.68716,146.83533v65.95391" data-paper-data="{&quot;index&quot;:null}"/></g><g fill="none" stroke="#8b4fff" stroke-width="4.5" stroke-linecap="round"><path d="M145.34876,146.17321h190.43018"/><path d="M143.97269,146.17321v65.95391"/><path d="M335.31109,212.78924h-190.43018" data-paper-data="{&quot;index&quot;:null}"/><path d="M336.68716,146.83533v65.95391" data-paper-data="{&quot;index&quot;:null}"/></g><path d="M207.1115,180.30248l43.71993,-18.62636c0,0 6.11252,-1.9608 10.54409,-0.59888c2.54895,0.78334 13.22484,6.53547 10.401,5.81659c-4.79675,-1.22114 -8.72529,-0.20929 -8.72529,-0.20929l-46.21067,19.99305z" fill="url(#color-10)" stroke="#28123b" stroke-width="9" stroke-linecap="butt"/><path d="M216.89912,187.80089l41.53845,-19.20439c0,0 8.45804,-4.17195 12.88962,-2.36032c5.57612,3.12203 6.85268,5.48601 8.24827,11.88684c0.20909,7.39281 -1.52298,10.02004 -5.78871,14.27829c-2.26121,2.25725 -4.89851,3.53861 -7.20305,4.95207c-6.56885,2.69166 -15.88521,3.6518 -20.57918,-2.95218c-3.22371,-4.53546 -1.40857,-10.91087 -1.40857,-10.91087l-27.70704,12.2678z" fill="url(#color-11)" stroke="#28123b" stroke-width="9" stroke-linecap="butt"/><path d="M211.87477,198.17719l-11.46703,-7.2972v-7.81843" fill="none" stroke="#28123b" stroke-width="9" stroke-linecap="round"/><path d="M247.31831,196.01025l-10.42457,-8.07904" fill="none" stroke="#28123b" stroke-width="9" stroke-linecap="round"/><path d="M252.00937,168.38513l-2.34553,1.04246l-4.69106,-3.12737l3.12737,-1.30307" fill="none" stroke="#28123b" stroke-width="9" stroke-linecap="round"/><path d="M252.79121,168.12452l-4.69106,-3.12737" fill="none" stroke="#28123b" stroke-width="9" stroke-linecap="round"/><path d="M202.65722,181.84434l48.1742,-20.16823c0,0 6.11252,-1.9608 10.54409,-0.59888c2.54895,0.78334 13.22484,6.53547 10.401,5.81659c-4.79675,-1.22114 -8.72529,-0.20929 -8.72529,-0.20929l-49.80835,21.53492z" fill="url(#color-12)" stroke="#ab80ff" stroke-width="3.5" stroke-linecap="butt"/><path d="M213.13012,187.97221l45.30745,-19.37571c0,0 8.45804,-4.17195 12.88962,-2.36032c5.57612,3.12203 6.85268,5.48601 8.24827,11.88684c0.20909,7.39281 -1.52298,10.02004 -5.78871,14.27829c-2.26121,2.25725 -4.89851,3.53861 -7.20305,4.95207c-6.56885,2.69166 -15.88521,3.6518 -20.57918,-2.95218c-3.22371,-4.53546 -1.40857,-10.91087 -1.40857,-10.91087l-31.30473,13.63834z" fill="url(#color-13)" stroke="#ab80ff" stroke-width="3.5" stroke-linecap="butt"/><path d="M211.87477,197.83455l-11.46703,-7.2972v-7.81843" fill="none" stroke="#a97eff" stroke-width="3.5" stroke-linecap="round"/><path d="M247.31831,196.01025l-10.42457,-8.07904" fill="none" stroke="#a97eff" stroke-width="3.5" stroke-linecap="round"/><g fill="none" stroke="#ab80ff" stroke-width="1.5" stroke-linecap="round"><path d="M252.00937,168.38513l-2.34553,1.04246l-4.69106,-3.12737l3.12737,-1.30307"/><path d="M252.79121,168.12451l-4.69106,-3.12737"/></g></g></g></svg>