<svg version="1.1" xmlns="http://www.w3.org/2000/svg" xmlns:xlink="http://www.w3.org/1999/xlink" width="202.22719" height="49.6163" viewBox="0,0,202.22719,49.6163"><defs><linearGradient x1="249.6736" y1="179.67231" x2="249.6736" y2="206.70212" gradientUnits="userSpaceOnUse" id="color-1"><stop offset="0" stop-color="#000000"/><stop offset="1" stop-color="#000000" stop-opacity="0"/></linearGradient><linearGradient x1="249.6736" y1="179.67231" x2="249.6736" y2="206.70212" gradientUnits="userSpaceOnUse" id="color-2"><stop offset="0" stop-color="#000000"/><stop offset="1" stop-color="#000000" stop-opacity="0"/></linearGradient><linearGradient x1="249.6736" y1="179.67231" x2="249.6736" y2="206.70212" gradientUnits="userSpaceOnUse" id="color-3"><stop offset="0" stop-color="#000000"/><stop offset="1" stop-color="#000000" stop-opacity="0"/></linearGradient><linearGradient x1="249.6736" y1="179.67231" x2="249.6736" y2="206.70212" gradientUnits="userSpaceOnUse" id="color-4"><stop offset="0" stop-color="#000000"/><stop offset="1" stop-color="#000000" stop-opacity="0"/></linearGradient><linearGradient x1="264.0736" y1="239.67231" x2="264.0736" y2="266.70212" gradientUnits="userSpaceOnUse" id="color-5"><stop offset="0" stop-color="#000000"/><stop offset="1" stop-color="#000000" stop-opacity="0"/></linearGradient><linearGradient x1="264.0736" y1="239.67231" x2="264.0736" y2="266.70212" gradientUnits="userSpaceOnUse" id="color-6"><stop offset="0" stop-color="#000000"/><stop offset="1" stop-color="#000000" stop-opacity="0"/></linearGradient><linearGradient x1="264.0736" y1="239.67231" x2="264.0736" y2="266.70212" gradientUnits="userSpaceOnUse" id="color-7"><stop offset="0" stop-color="#000000"/><stop offset="1" stop-color="#000000" stop-opacity="0"/></linearGradient><linearGradient x1="264.0736" y1="239.67231" x2="264.0736" y2="266.70212" gradientUnits="userSpaceOnUse" id="color-8"><stop offset="0" stop-color="#000000"/><stop offset="1" stop-color="#000000" stop-opacity="0"/></linearGradient><linearGradient x1="264.0736" y1="239.67231" x2="264.0736" y2="266.70212" gradientUnits="userSpaceOnUse" id="color-9"><stop offset="0" stop-color="#000000"/><stop offset="1" stop-color="#000000" stop-opacity="0"/></linearGradient><linearGradient x1="264.0736" y1="239.67231" x2="264.0736" y2="266.70212" gradientUnits="userSpaceOnUse" id="color-10"><stop offset="0" stop-color="#000000"/><stop offset="1" stop-color="#000000" stop-opacity="0"/></linearGradient><linearGradient x1="264.0736" y1="239.67231" x2="264.0736" y2="266.70212" gradientUnits="userSpaceOnUse" id="color-11"><stop offset="0" stop-color="#000000"/><stop offset="1" stop-color="#000000" stop-opacity="0"/></linearGradient><linearGradient x1="264.0736" y1="239.67231" x2="264.0736" y2="266.70212" gradientUnits="userSpaceOnUse" id="color-12"><stop offset="0" stop-color="#000000"/><stop offset="1" stop-color="#000000" stop-opacity="0"/></linearGradient><linearGradient x1="264.0736" y1="239.67231" x2="264.0736" y2="266.70212" gradientUnits="userSpaceOnUse" id="color-13"><stop offset="0" stop-color="#000000"/><stop offset="1" stop-color="#000000" stop-opacity="0"/></linearGradient><linearGradient x1="264.0736" y1="239.67231" x2="264.0736" y2="266.70212" gradientUnits="userSpaceOnUse" id="color-14"><stop offset="0" stop-color="#000000"/><stop offset="1" stop-color="#000000" stop-opacity="0"/></linearGradient><linearGradient x1="264.0736" y1="239.67231" x2="264.0736" y2="266.70212" gradientUnits="userSpaceOnUse" id="color-15"><stop offset="0" stop-color="#000000"/><stop offset="1" stop-color="#000000" stop-opacity="0"/></linearGradient><linearGradient x1="264.0736" y1="239.67231" x2="264.0736" y2="266.70212" gradientUnits="userSpaceOnUse" id="color-16"><stop offset="0" stop-color="#000000"/><stop offset="1" stop-color="#000000" stop-opacity="0"/></linearGradient><linearGradient x1="264.0736" y1="239.67231" x2="264.0736" y2="266.70212" gradientUnits="userSpaceOnUse" id="color-17"><stop offset="0" stop-color="#000000"/><stop offset="1" stop-color="#000000" stop-opacity="0"/></linearGradient><linearGradient x1="264.0736" y1="239.67231" x2="264.0736" y2="266.70212" gradientUnits="userSpaceOnUse" id="color-18"><stop offset="0" stop-color="#000000"/><stop offset="1" stop-color="#000000" stop-opacity="0"/></linearGradient><linearGradient x1="264.0736" y1="239.67231" x2="264.0736" y2="266.70212" gradientUnits="userSpaceOnUse" id="color-19"><stop offset="0" stop-color="#000000"/><stop offset="1" stop-color="#000000" stop-opacity="0"/></linearGradient><linearGradient x1="264.0736" y1="239.67231" x2="264.0736" y2="266.70212" gradientUnits="userSpaceOnUse" id="color-20"><stop offset="0" stop-color="#000000"/><stop offset="1" stop-color="#000000" stop-opacity="0"/></linearGradient><linearGradient x1="244.1736" y1="176.42231" x2="244.1736" y2="203.45212" gradientUnits="userSpaceOnUse" id="color-21"><stop offset="0" stop-color="#000000"/><stop offset="1" stop-color="#000000" stop-opacity="0"/></linearGradient><linearGradient x1="244.1736" y1="176.42231" x2="244.1736" y2="203.45212" gradientUnits="userSpaceOnUse" id="color-22"><stop offset="0" stop-color="#000000"/><stop offset="1" stop-color="#000000" stop-opacity="0"/></linearGradient><linearGradient x1="244.1736" y1="176.42231" x2="244.1736" y2="203.45212" gradientUnits="userSpaceOnUse" id="color-23"><stop offset="0" stop-color="#000000"/><stop offset="1" stop-color="#000000" stop-opacity="0"/></linearGradient><linearGradient x1="244.1736" y1="176.42231" x2="244.1736" y2="203.45212" gradientUnits="userSpaceOnUse" id="color-24"><stop offset="0" stop-color="#000000"/><stop offset="1" stop-color="#000000" stop-opacity="0"/></linearGradient><linearGradient x1="244.1736" y1="176.42231" x2="244.1736" y2="203.45212" gradientUnits="userSpaceOnUse" id="color-25"><stop offset="0" stop-color="#000000"/><stop offset="1" stop-color="#000000" stop-opacity="0"/></linearGradient><linearGradient x1="244.1736" y1="176.42231" x2="244.1736" y2="203.45212" gradientUnits="userSpaceOnUse" id="color-26"><stop offset="0" stop-color="#000000"/><stop offset="1" stop-color="#000000" stop-opacity="0"/></linearGradient><linearGradient x1="244.1736" y1="176.42231" x2="244.1736" y2="203.45212" gradientUnits="userSpaceOnUse" id="color-27"><stop offset="0" stop-color="#000000"/><stop offset="1" stop-color="#000000" stop-opacity="0"/></linearGradient><linearGradient x1="244.1736" y1="176.42231" x2="244.1736" y2="203.45212" gradientUnits="userSpaceOnUse" id="color-28"><stop offset="0" stop-color="#000000"/><stop offset="1" stop-color="#000000" stop-opacity="0"/></linearGradient><linearGradient x1="244.1736" y1="176.42231" x2="244.1736" y2="203.45212" gradientUnits="userSpaceOnUse" id="color-29"><stop offset="0" stop-color="#000000"/><stop offset="1" stop-color="#000000" stop-opacity="0"/></linearGradient><linearGradient x1="244.1736" y1="176.42231" x2="244.1736" y2="203.45212" gradientUnits="userSpaceOnUse" id="color-30"><stop offset="0" stop-color="#000000"/><stop offset="1" stop-color="#000000" stop-opacity="0"/></linearGradient><linearGradient x1="244.1736" y1="176.42231" x2="244.1736" y2="203.45212" gradientUnits="userSpaceOnUse" id="color-31"><stop offset="0" stop-color="#000000"/><stop offset="1" stop-color="#000000" stop-opacity="0"/></linearGradient><linearGradient x1="244.1736" y1="176.42231" x2="244.1736" y2="203.45212" gradientUnits="userSpaceOnUse" id="color-32"><stop offset="0" stop-color="#000000"/><stop offset="1" stop-color="#000000" stop-opacity="0"/></linearGradient><linearGradient x1="242.94027" y1="176.45564" x2="242.94027" y2="203.48545" gradientUnits="userSpaceOnUse" id="color-33"><stop offset="0" stop-color="#000000"/><stop offset="1" stop-color="#000000" stop-opacity="0"/></linearGradient><linearGradient x1="242.94027" y1="176.45564" x2="242.94027" y2="203.48545" gradientUnits="userSpaceOnUse" id="color-34"><stop offset="0" stop-color="#000000"/><stop offset="1" stop-color="#000000" stop-opacity="0"/></linearGradient><linearGradient x1="242.94027" y1="176.45564" x2="242.94027" y2="203.48545" gradientUnits="userSpaceOnUse" id="color-35"><stop offset="0" stop-color="#000000"/><stop offset="1" stop-color="#000000" stop-opacity="0"/></linearGradient><linearGradient x1="242.94027" y1="176.45564" x2="242.94027" y2="203.48545" gradientUnits="userSpaceOnUse" id="color-36"><stop offset="0" stop-color="#000000"/><stop offset="1" stop-color="#000000" stop-opacity="0"/></linearGradient></defs><g transform="translate(-143.06001,-157.86898)"><g data-paper-data="{&quot;isPaintingLayer&quot;:true}" fill-rule="nonzero" stroke-linecap="butt" stroke-linejoin="miter" stroke-miterlimit="10" stroke-dasharray="" stroke-dashoffset="0" style="mix-blend-mode: normal"><path d="" fill="url(#color-1)" stroke="url(#color-2)" stroke-width="8"/><path d="" fill="url(#color-3)" stroke="url(#color-4)" stroke-width="8"/><path d="" fill="#9966ff" stroke="#28123b" stroke-width="8"/><path d="" fill="#9966ff" stroke="#28123b" stroke-width="8"/><path d="" fill="#af87ff" stroke="#af87ff" stroke-width="2"/><path d="" fill="#af87ff" stroke="#af87ff" stroke-width="2"/><path d="" fill="#ffffff" stroke="none" stroke-width="0.5"/><path d="" fill="#ffffff" stroke="none" stroke-width="0.5"/><path d="" fill="#28123b" stroke="none" stroke-width="0"/><path d="" fill="#28123b" stroke="none" stroke-width="0"/><path d="" fill="#ffffff" stroke="#ffffff" stroke-width="1"/><path d="" fill="#ffffff" stroke="#ffffff" stroke-width="1"/><path d="" fill="#c5a8ff" stroke="none" stroke-width="0"/><path d="" fill="#c5a8ff" stroke="none" stroke-width="0"/><path d="" fill="#ffffff" stroke="none" stroke-width="0.5"/><path d="" fill="#ffffff" stroke="none" stroke-width="0.5"/><path d="" fill="#ffffff" stroke="none" stroke-width="0.5"/><path d="" fill="#ffffff" stroke="none" stroke-width="0.5"/><path d="" fill="url(#color-5)" stroke="url(#color-6)" stroke-width="8"/><path d="" fill="url(#color-7)" stroke="url(#color-8)" stroke-width="8"/><path d="" fill="url(#color-9)" stroke="url(#color-10)" stroke-width="8"/><path d="" fill="url(#color-11)" stroke="url(#color-12)" stroke-width="8"/><path d="" fill="url(#color-13)" stroke="url(#color-14)" stroke-width="8"/><path d="" fill="url(#color-15)" stroke="url(#color-16)" stroke-width="8"/><path d="" fill="url(#color-17)" stroke="url(#color-18)" stroke-width="8"/><path d="" fill="url(#color-19)" stroke="url(#color-20)" stroke-width="8"/><path d="" fill="#9966ff" stroke="#28123b" stroke-width="8"/><path d="" fill="#9966ff" stroke="#28123b" stroke-width="8"/><path d="" fill="#9966ff" stroke="#28123b" stroke-width="8"/><path d="" fill="#9966ff" stroke="#28123b" stroke-width="8"/><path d="" fill="#9966ff" stroke="#28123b" stroke-width="8"/><path d="" fill="#9966ff" stroke="#28123b" stroke-width="8"/><path d="" fill="#9966ff" stroke="#28123b" stroke-width="8"/><path d="" fill="#af87ff" stroke="#af87ff" stroke-width="2"/><path d="" fill="#af87ff" stroke="#af87ff" stroke-width="2"/><path d="" fill="#af87ff" stroke="#af87ff" stroke-width="2"/><path d="" fill="#af87ff" stroke="#af87ff" stroke-width="2"/><path d="" fill="#af87ff" stroke="#af87ff" stroke-width="2"/><path d="" fill="#af87ff" stroke="#af87ff" stroke-width="2"/><path d="" fill="#af87ff" stroke="#af87ff" stroke-width="2"/><path d="" fill="#ffffff" stroke="none" stroke-width="0.5"/><path d="" fill="#ffffff" stroke="none" stroke-width="0.5"/><path d="" fill="#ffffff" stroke="#ffffff" stroke-width="1"/><path d="" fill="#ffffff" stroke="#ffffff" stroke-width="1"/><path d="" fill="#ffffff" stroke="#ffffff" stroke-width="1"/><path d="" fill="#ffffff" stroke="#ffffff" stroke-width="1"/><path d="" fill="#ffffff" stroke="#ffffff" stroke-width="1"/><path d="" fill="#ffffff" stroke="#ffffff" stroke-width="1"/><g><g><path d="M147.46189,164.44019c-0.36304,0 -0.36304,-0.36304 -0.36304,-0.36304l0.03832,-0.40439c0.48449,-0.9039 1.22114,-1.30491 2.18132,-0.88845c0,0 0.32473,0.16236 0.16236,0.48707c-0.16236,0.32473 -0.48707,0.16236 -0.48707,0.16236c-0.50237,-0.3181 -0.97938,0.05368 -1.20715,0.56374l0.03832,0.07967c0,0 0,0.36304 -0.36304,0.36304z" fill="#ffffff" stroke="none" stroke-width="0.5"/><path d="M147.46189,164.44019c-0.36304,0 -0.36304,-0.36304 -0.36304,-0.36304l0.03832,-0.40439c0.48449,-0.9039 1.22114,-1.30491 2.18132,-0.88845c0,0 0.32473,0.16236 0.16236,0.48707c-0.16236,0.32473 -0.48707,0.16236 -0.48707,0.16236c-0.50237,-0.3181 -0.97938,0.05368 -1.20715,0.56374l0.03832,0.07967c0,0 0,0.36304 -0.36304,0.36304z" fill="#ffffff" stroke="#ffffff" stroke-width="1"/><g><path d="M301.98451,164.18705c-0.36304,0 -0.36304,-0.36304 -0.36304,-0.36304l0.03832,-0.40439c0.48449,-0.9039 1.22114,-1.30491 2.18132,-0.88845c0,0 0.32473,0.16236 0.16236,0.48707c-0.16236,0.32473 -0.48707,0.16236 -0.48707,0.16236c-0.50237,-0.3181 -0.97938,0.05368 -1.20715,0.56374l0.03832,0.07967c0,0 0,0.36304 -0.36304,0.36304z" fill="#ffffff" stroke="none" stroke-width="0.5"/><path d="M284.75212,164.43348c-0.32473,-0.16237 -0.16236,-0.48707 -0.16236,-0.48707l0.16787,-0.32948c0.48954,-0.72931 0.85152,-1.02441 1.75427,-1.03298c0,0 0.36304,0 0.36304,0.36304c0,0.36304 -0.36304,0.36304 -0.36304,0.36304c-0.66117,-0.0082 -0.7927,0.16928 -1.15012,0.70965l-0.12258,0.25142c0,0 -0.16237,0.32473 -0.48707,0.16236z" fill="#ffffff" stroke="none" stroke-width="0.5"/><path d="M323.47701,164.04181c-0.36304,0 -0.36304,-0.36304 -0.36304,-0.36304l0.03832,-0.40439c0.48449,-0.9039 1.22114,-1.30491 2.18132,-0.88845c0,0 0.32473,0.16236 0.16236,0.48707c-0.16236,0.32473 -0.48707,0.16236 -0.48707,0.16236c-0.50237,-0.3181 -0.97938,0.05368 -1.20715,0.56374l0.03832,0.07967c0,0 0,0.36304 -0.36304,0.36304z" fill="#ffffff" stroke="none" stroke-width="0.5"/><path d="M256.76701,203.11263c-0.49007,0 -0.90476,-0.16965 -1.24404,-0.50894c-0.33927,-0.33927 -0.50893,-0.75396 -0.50893,-1.24404v-22.84516c0,-0.52779 0.16965,-0.95188 0.50893,-1.27231c0.33927,-0.33927 0.75396,-0.50894 1.24404,-0.50894h8.0863c1.52677,0 2.86507,0.30159 4.01487,0.90476c1.16865,0.60317 2.08282,1.43254 2.74256,2.48807c0.65969,1.05554 0.98958,2.27133 0.98958,3.64732c0,1.09326 -0.30159,2.09225 -0.90476,2.99701c-0.58433,0.88591 -1.39484,1.58333 -2.43154,2.09225c1.4891,0.35814 2.68601,1.06497 3.59077,2.12054c0.90476,1.05554 1.35714,2.44097 1.35714,4.15624c0,1.56447 -0.36755,2.94047 -1.10267,4.12797c-0.73512,1.18749 -1.7624,2.12996 -3.08183,2.82737c-1.30058,0.67856 -2.78969,1.01786 -4.46724,1.01786zM258.54824,199.86118h7.01188c1.03671,0 1.94147,-0.17908 2.71429,-0.53719c0.79166,-0.35814 1.41368,-0.8859 1.86607,-1.58332c0.45239,-0.69741 0.67856,-1.56447 0.67856,-2.60119c0,-0.96131 -0.22618,-1.75295 -0.67856,-2.37498c-0.45239,-0.64089 -1.0744,-1.12153 -1.86607,-1.44195c-0.7728,-0.33927 -1.67758,-0.50893 -2.71429,-0.50893h-7.01188zM258.54824,187.5904h6.30506c1.28174,0 2.32787,-0.31102 3.13841,-0.93302c0.82935,-0.64089 1.24404,-1.60219 1.24404,-2.88392c0,-1.28174 -0.41469,-2.23361 -1.24404,-2.85563c-0.81051,-0.62202 -1.85663,-0.93304 -3.13837,-0.93304h-6.30503z" fill="url(#color-21)" stroke="url(#color-22)" stroke-width="8"/><path d="M277.36218,203.11263c-0.62202,0 -1.10267,-0.26388 -1.44194,-0.79166c-0.33927,-0.54662 -0.37698,-1.13094 -0.1131,-1.75295l9.49998,-22.64723c0.33927,-0.79166 0.88591,-1.1875 1.63988,-1.1875c0.81051,0 1.36656,0.39584 1.66814,1.1875l9.52825,22.73206c0.24504,0.62202 0.19792,1.18749 -0.14136,1.69642c-0.32042,0.50894 -0.80109,0.7634 -1.44194,0.7634c-0.33927,0 -0.66914,-0.09425 -0.98957,-0.28273c-0.30159,-0.1885 -0.51835,-0.45239 -0.65027,-0.79166l-1.89894,-4.72169l-12.0881,-0.00002l-1.93103,4.72174c-0.16965,0.35814 -0.40525,0.63146 -0.70683,0.81995c-0.30159,0.16965 -0.6126,0.25446 -0.93302,0.25446zM291.8501,194.40439l-4.82223,-11.99041l-4.90368,11.99041z" fill="url(#color-23)" stroke="url(#color-24)" stroke-width="8"/><path d="M240.18525,203.45191c-1.45138,0 -2.82737,-0.22618 -4.12797,-0.67856c-1.30058,-0.45237 -2.44097,-1.08384 -3.42112,-1.89433c-0.96131,-0.81051 -1.66814,-1.74354 -2.12052,-2.7991c-0.22618,-0.47123 -0.22618,-0.90476 0,-1.30058c0.24504,-0.41469 0.6503,-0.67856 1.21577,-0.79166c0.41469,-0.09425 0.81052,-0.02825 1.1875,0.19794c0.39583,0.20735 0.69741,0.52777 0.90475,0.9613c0.26388,0.56549 0.70686,1.08384 1.32887,1.55507c0.62202,0.47123 1.36656,0.85763 2.23363,1.15924c0.88591,0.28273 1.81893,0.42412 2.7991,0.42412c1.0744,0 2.06399,-0.16965 2.96875,-0.50894c0.92361,-0.33927 1.65872,-0.82935 2.20535,-1.47024c0.56549,-0.64089 0.84821,-1.43254 0.84821,-2.37499c0,-1.20635 -0.47122,-2.28075 -1.41368,-3.22319c-0.92361,-0.94247 -2.4504,-1.5268 -4.58033,-1.75298c-2.78969,-0.26388 -4.98561,-1.08381 -6.58777,-2.4598c-1.60219,-1.376 -2.40325,-3.0724 -2.40325,-5.08927c0,-1.4891 0.41469,-2.75197 1.24404,-3.78868c0.82935,-1.03671 1.96031,-1.81893 3.39285,-2.3467c1.43254,-0.54662 3.0253,-0.81994 4.77826,-0.81994c1.376,0 2.57292,0.1885 3.59077,0.56546c1.03671,0.37698 1.93205,0.90476 2.68601,1.58333c0.7728,0.67856 1.44195,1.47966 2.00744,2.40326c0.30159,0.49007 0.42412,0.96131 0.36756,1.41368c-0.0377,0.43353 -0.25445,0.7728 -0.65027,1.01786c-0.41469,0.26388 -0.87649,0.32042 -1.38542,0.16965c-0.49007,-0.15079 -0.85762,-0.44295 -1.10265,-0.87646c-0.35814,-0.65969 -0.8011,-1.21576 -1.32886,-1.66814c-0.50894,-0.45237 -1.11209,-0.80109 -1.80951,-1.04612c-0.69741,-0.26388 -1.51734,-0.39583 -2.4598,-0.39583c-1.67756,-0.01885 -3.08183,0.29217 -4.21277,0.93304c-1.11209,0.64089 -1.66814,1.62103 -1.66814,2.94047c0,0.67856 0.16965,1.32887 0.50893,1.95089c0.35814,0.62202 0.999,1.15924 1.92262,1.61162c0.94247,0.45237 2.29019,0.7634 4.04316,0.93304c2.67659,0.26388 4.75941,1.08384 6.24851,2.45982c1.50793,1.35714 2.26189,3.14779 2.26189,5.37201c0,1.28174 -0.26388,2.39384 -0.79166,3.33631c-0.52779,0.94247 -1.23461,1.74354 -2.12051,2.40329c-0.88591,0.64089 -1.90375,1.12151 -3.05356,1.44195c-1.13094,0.30159 -2.29959,0.45237 -3.50594,0.45237z" fill="url(#color-25)" stroke="url(#color-26)" stroke-width="8"/><path d="M148.81299,203.11263c-0.49007,0 -0.90476,-0.16965 -1.24404,-0.50894c-0.33927,-0.33927 -0.50894,-0.75396 -0.50894,-1.24404v-22.84516c0,-0.52779 0.16965,-0.95188 0.50894,-1.27231c0.33927,-0.33927 0.75396,-0.50894 1.24404,-0.50894h15.2678c0.50894,0 0.92361,0.16022 1.24404,0.48066c0.32042,0.30159 0.48066,0.69741 0.48066,1.18749c0,0.47123 -0.16021,0.85763 -0.48064,1.15924c-0.32042,0.28273 -0.73512,0.42412 -1.24405,0.42412h-13.51484v8.19939h9.69789c0.50894,0 0.92361,0.15079 1.24404,0.45239c0.32042,0.30159 0.48066,0.69741 0.48066,1.18749c0,0.47123 -0.16022,0.85763 -0.48065,1.15924c-0.32042,0.30159 -0.73511,0.45237 -1.24404,0.45237h-9.69788v9.92409c0,0.49007 -0.16965,0.90476 -0.50894,1.24404c-0.32042,0.33927 -0.73511,0.50893 -1.24404,0.50893z" fill="url(#color-27)" stroke="url(#color-28)" stroke-width="8"/><path d="M325.53862,203.11263c-0.49007,0 -0.90476,-0.16965 -1.24404,-0.50894c-0.32042,-0.33927 -0.48065,-0.75396 -0.48065,-1.24404v-22.84516c0,-0.50894 0.16965,-0.93302 0.50894,-1.27231c0.33927,-0.33927 0.74454,-0.50894 1.21577,-0.50894c0.50894,0 0.92363,0.16965 1.24405,0.50894c0.33927,0.33927 0.50893,0.76339 0.50893,1.27233v21.09221h12.24254c0.4901,0 0.90481,0.16965 1.2441,0.50893c0.33927,0.33927 0.50894,0.75396 0.50894,1.24404c0,0.49007 -0.16965,0.90476 -0.50894,1.24405c-0.33927,0.33927 -0.75398,0.50893 -1.2441,0.50893z" fill="url(#color-29)" stroke="url(#color-30)" stroke-width="8"/><path d="M303.86549,203.11263c-0.49007,0 -0.90476,-0.16965 -1.24404,-0.50894c-0.32042,-0.33927 -0.48065,-0.75396 -0.48065,-1.24404v-22.84516c0,-0.50894 0.16965,-0.93302 0.50894,-1.27231c0.33927,-0.33927 0.74454,-0.50894 1.21577,-0.50894c0.50894,0 0.92361,0.16965 1.24404,0.50894c0.33927,0.33927 0.50894,0.76339 0.50894,1.27233v21.09221h12.24254c0.49007,0 0.90476,0.16965 1.24404,0.50893c0.33927,0.33927 0.50894,0.75396 0.50894,1.24404c0,0.49007 -0.16965,0.90476 -0.50894,1.24405c-0.33927,0.33927 -0.75396,0.50893 -1.24404,0.50893z" fill="url(#color-31)" stroke="url(#color-32)" stroke-width="8"/><path d="M256.76701,189.21066c-0.49007,0 -0.90476,-0.16965 -1.24404,-0.50894c-0.33927,-0.33927 -0.50893,-0.75396 -0.50893,-1.24404v-22.84516c0,-0.52779 0.16965,-0.95188 0.50893,-1.27231c0.33927,-0.33927 0.75396,-0.50894 1.24404,-0.50894h8.0863c1.52677,0 2.86507,0.30159 4.01487,0.90476c1.16865,0.60317 2.08282,1.43254 2.74256,2.48807c0.65969,1.05554 0.98958,2.27133 0.98958,3.64732c0,1.09326 -0.30159,2.09225 -0.90476,2.99701c-0.58433,0.88591 -1.39484,1.58332 -2.43154,2.09225c1.4891,0.35814 2.68601,1.06498 3.59077,2.12054c0.90476,1.05554 1.35714,2.44097 1.35714,4.15624c0,1.56447 -0.36755,2.94047 -1.10267,4.12797c-0.73512,1.18749 -1.7624,2.12996 -3.08183,2.82737c-1.30058,0.67856 -2.78969,1.01786 -4.46724,1.01786zM258.54824,185.95917h7.01188c1.03671,0 1.94147,-0.17907 2.71429,-0.53719c0.79166,-0.35814 1.41368,-0.8859 1.86607,-1.58333c0.45239,-0.69741 0.67856,-1.56447 0.67856,-2.60119c0,-0.96131 -0.22618,-1.75298 -0.67856,-2.37499c-0.45239,-0.64089 -1.0744,-1.12151 -1.86607,-1.44194c-0.7728,-0.33927 -1.67758,-0.50893 -2.71429,-0.50893h-7.01188zM258.54824,173.68839h6.30506c1.28174,0 2.32787,-0.311 3.13841,-0.93302c0.82935,-0.64089 1.24404,-1.60219 1.24404,-2.88392c0,-1.28174 -0.41469,-2.23363 -1.24404,-2.85564c-0.81051,-0.62202 -1.85663,-0.93302 -3.13837,-0.93302h-6.30503z" fill="#9966ff" stroke="#28123b" stroke-width="8"/><path d="M277.36218,189.21066c-0.62202,0 -1.10267,-0.26388 -1.44194,-0.79166c-0.33927,-0.54662 -0.37698,-1.13095 -0.1131,-1.75298l9.49998,-22.64722c0.33927,-0.79166 0.88591,-1.1875 1.63988,-1.1875c0.81051,0 1.36656,0.39584 1.66814,1.1875l9.52825,22.73206c0.24504,0.62202 0.19792,1.18749 -0.14136,1.69643c-0.32042,0.50894 -0.80109,0.7634 -1.44194,0.7634c-0.33927,0 -0.66914,-0.09425 -0.98957,-0.28273c-0.30159,-0.1885 -0.51835,-0.45239 -0.65027,-0.79166l-1.89895,-4.72172l-12.08809,-0.00002l-1.93103,4.72174c-0.16965,0.35814 -0.40525,0.63146 -0.70683,0.81995c-0.30159,0.16965 -0.6126,0.25446 -0.93302,0.25446zM291.85009,180.50238l-4.82222,-11.99041l-4.90368,11.99041z" fill="#9966ff" stroke="#28123b" stroke-width="8"/><path d="M240.18525,189.54995c-1.45138,0 -2.82737,-0.22618 -4.12797,-0.67856c-1.30058,-0.45239 -2.44097,-1.08384 -3.42112,-1.89433c-0.96131,-0.81051 -1.66814,-1.74354 -2.12052,-2.7991c-0.22618,-0.47123 -0.22618,-0.90476 0,-1.30058c0.24504,-0.41469 0.6503,-0.67856 1.21577,-0.79166c0.41469,-0.09425 0.81052,-0.02825 1.1875,0.19794c0.39583,0.20735 0.69741,0.52777 0.90475,0.9613c0.26388,0.56549 0.70686,1.08384 1.32887,1.55507c0.62202,0.47123 1.36656,0.85763 2.23363,1.15924c0.88591,0.28273 1.81893,0.42413 2.7991,0.42413c1.0744,0 2.06399,-0.16965 2.96875,-0.50894c0.92361,-0.33927 1.65872,-0.82935 2.20535,-1.47024c0.56549,-0.64089 0.84821,-1.43254 0.84821,-2.37499c0,-1.20635 -0.47122,-2.28075 -1.41368,-3.22321c-0.92361,-0.94247 -2.4504,-1.52677 -4.58033,-1.75295c-2.78969,-0.26388 -4.98561,-1.08381 -6.58777,-2.4598c-1.60219,-1.376 -2.40325,-3.0724 -2.40325,-5.08927c0,-1.4891 0.41469,-2.75197 1.24404,-3.78868c0.82935,-1.03671 1.96031,-1.81896 3.39285,-2.3467c1.43254,-0.54662 3.0253,-0.81993 4.77826,-0.81993c1.376,0 2.57292,0.1885 3.59077,0.56546c1.03671,0.37698 1.93205,0.90476 2.68601,1.58333c0.7728,0.67856 1.44195,1.47967 2.00744,2.40329c0.30159,0.49007 0.42412,0.9613 0.36756,1.41368c-0.0377,0.43353 -0.25445,0.77281 -0.65027,1.01786c-0.41469,0.26388 -0.87649,0.32042 -1.38542,0.16965c-0.49007,-0.15079 -0.85762,-0.44295 -1.10265,-0.87646c-0.35814,-0.65969 -0.8011,-1.21576 -1.32886,-1.66814c-0.50894,-0.45239 -1.11209,-0.80109 -1.80951,-1.04612c-0.69741,-0.26388 -1.51734,-0.39583 -2.4598,-0.39583c-1.67756,-0.01885 -3.08183,0.29217 -4.21277,0.93304c-1.11209,0.64089 -1.66814,1.62102 -1.66814,2.94047c0,0.67856 0.16965,1.32889 0.50893,1.95089c0.35814,0.62202 0.999,1.15924 1.92262,1.61162c0.94247,0.45239 2.29019,0.76339 4.04316,0.93304c2.67659,0.26388 4.75941,1.08384 6.24851,2.45983c1.50793,1.35714 2.26189,3.1478 2.26189,5.37201c0,1.28174 -0.26388,2.39384 -0.79166,3.33631c-0.52779,0.94247 -1.23461,1.74354 -2.12051,2.40326c-0.88591,0.64089 -1.90375,1.12153 -3.05356,1.44197c-1.13094,0.30159 -2.29959,0.45237 -3.50594,0.45237z" fill="#9966ff" stroke="#28123b" stroke-width="8"/><path d="M148.81299,189.21066c-0.49007,0 -0.90476,-0.16965 -1.24404,-0.50894c-0.33927,-0.33927 -0.50894,-0.75396 -0.50894,-1.24404v-22.84516c0,-0.52779 0.16965,-0.95188 0.50894,-1.27231c0.33927,-0.33927 0.75396,-0.50894 1.24404,-0.50894h15.2678c0.50894,0 0.92361,0.16022 1.24404,0.48066c0.32042,0.30159 0.48066,0.69741 0.48066,1.18749c0,0.47123 -0.16021,0.85763 -0.48064,1.15924c-0.32042,0.28273 -0.73512,0.42412 -1.24405,0.42412h-13.51484v8.19939h9.69789c0.50894,0 0.92361,0.15079 1.24404,0.45239c0.32042,0.30159 0.48066,0.69741 0.48066,1.18749c0,0.47123 -0.16022,0.85766 -0.48065,1.15924c-0.32042,0.30159 -0.73511,0.45237 -1.24404,0.45237h-9.69788v9.92409c0,0.49007 -0.16965,0.90475 -0.50894,1.24404c-0.32042,0.33927 -0.73511,0.50894 -1.24404,0.50894z" fill="#9966ff" stroke="#28123b" stroke-width="8"/><path d="M325.53862,189.21066c-0.49007,0 -0.90476,-0.16965 -1.24404,-0.50894c-0.32042,-0.33927 -0.48065,-0.75396 -0.48065,-1.24404v-22.84516c0,-0.50894 0.16965,-0.93302 0.50894,-1.27231c0.33927,-0.33927 0.74454,-0.50894 1.21577,-0.50894c0.50894,0 0.92363,0.16965 1.24405,0.50894c0.33927,0.33927 0.50893,0.76339 0.50893,1.27233v21.09218h12.24254c0.4901,0 0.90481,0.16965 1.2441,0.50894c0.33927,0.33927 0.50894,0.75396 0.50894,1.24404c0,0.49007 -0.16965,0.90476 -0.50894,1.24404c-0.33927,0.33927 -0.75398,0.50894 -1.2441,0.50894z" fill="#9966ff" stroke="#28123b" stroke-width="8"/><path d="M303.86549,189.21066c-0.49007,0 -0.90476,-0.16965 -1.24404,-0.50894c-0.32042,-0.33927 -0.48065,-0.75396 -0.48065,-1.24404v-22.84516c0,-0.50894 0.16965,-0.93302 0.50894,-1.27231c0.33927,-0.33927 0.74454,-0.50894 1.21577,-0.50894c0.50894,0 0.92361,0.16965 1.24404,0.50894c0.33927,0.33927 0.50894,0.76339 0.50894,1.27233v21.09218h12.24254c0.49007,0 0.90476,0.16965 1.24404,0.50894c0.33927,0.33927 0.50894,0.75396 0.50894,1.24404c0,0.49007 -0.16965,0.90476 -0.50894,1.24404c-0.33927,0.33927 -0.75396,0.50894 -1.24404,0.50894z" fill="#9966ff" stroke="#28123b" stroke-width="8"/><path d="M256.64598,188.96865c-0.49007,0 -0.90476,-0.16965 -1.24404,-0.50893c-0.33927,-0.33927 -0.50894,-0.75398 -0.50894,-1.24405v-22.84516c0,-0.52779 0.16965,-0.95188 0.50894,-1.27231c0.33927,-0.33927 0.75396,-0.50893 1.24404,-0.50893h8.08628c1.52677,0 2.86507,0.30159 4.01487,0.90476c1.16865,0.60317 2.08282,1.43254 2.74256,2.48807c0.65969,1.05554 0.98958,2.27133 0.98958,3.64732c0,1.09326 -0.30159,2.09225 -0.90476,2.99701c-0.58433,0.88591 -1.39484,1.58333 -2.43154,2.09225c1.4891,0.35814 2.68601,1.06497 3.59077,2.12054c0.90476,1.05554 1.35714,2.44097 1.35714,4.15624c0,1.56447 -0.36755,2.94047 -1.10267,4.12797c-0.73512,1.18749 -1.7624,2.12996 -3.08183,2.82738c-1.30058,0.67856 -2.78969,1.01786 -4.46724,1.01786zM258.42725,185.71718h7.01187c1.03671,0 1.94147,-0.17907 2.71426,-0.53719c0.79166,-0.35814 1.41368,-0.88591 1.86607,-1.58333c0.45239,-0.69741 0.67858,-1.56447 0.67858,-2.60117c0,-0.96131 -0.22619,-1.75298 -0.67858,-2.37499c-0.45239,-0.64089 -1.0744,-1.12153 -1.86607,-1.44195c-0.7728,-0.33927 -1.67756,-0.50893 -2.71426,-0.50893h-7.01187zM258.42725,173.44638h6.30504c1.28174,0 2.32787,-0.31102 3.13841,-0.93302c0.82935,-0.64089 1.24404,-1.60219 1.24404,-2.88392c0,-1.28174 -0.41469,-2.23361 -1.24404,-2.85563c-0.81051,-0.62202 -1.85663,-0.93302 -3.13837,-0.93302h-6.30503z" fill="#af87ff" stroke="#af87ff" stroke-width="2"/><path d="M277.24118,188.96865c-0.62202,0 -1.10267,-0.26388 -1.44194,-0.79166c-0.33927,-0.54662 -0.37698,-1.13095 -0.1131,-1.75298l9.49998,-22.64723c0.33927,-0.79166 0.8859,-1.18749 1.63986,-1.18749c0.81051,0 1.36656,0.39583 1.66814,1.18749l9.52825,22.73206c0.24504,0.62202 0.19792,1.18749 -0.14136,1.69643c-0.32042,0.50894 -0.80109,0.76339 -1.44194,0.76339c-0.33927,0 -0.66914,-0.09425 -0.98957,-0.28273c-0.30159,-0.1885 -0.51835,-0.45239 -0.65027,-0.79166l-1.89896,-4.72173l-12.08808,-0.00001l-1.93105,4.72177c-0.16965,0.35814 -0.40527,0.63146 -0.70684,0.81995c-0.30159,0.16965 -0.6126,0.25448 -0.93302,0.25448zM291.72906,180.26034l-4.82221,-11.99037l-4.90366,11.99037z" fill="#af87ff" stroke="#af87ff" stroke-width="2"/><path d="M240.06424,189.30792c-1.45138,0 -2.82737,-0.22618 -4.12795,-0.67856c-1.30058,-0.45239 -2.44097,-1.08384 -3.42112,-1.89433c-0.96131,-0.81051 -1.66814,-1.74354 -2.12052,-2.79907c-0.22618,-0.47123 -0.22618,-0.90476 0,-1.30058c0.24504,-0.41469 0.6503,-0.67856 1.21577,-0.79166c0.41469,-0.09425 0.81051,-0.02825 1.18749,0.19792c0.39583,0.20735 0.69741,0.52779 0.90476,0.96131c0.26388,0.56549 0.70686,1.08381 1.32887,1.55505c0.62202,0.47123 1.36656,0.85766 2.23363,1.15924c0.88591,0.28273 1.81896,0.42412 2.79911,0.42412c1.0744,0 2.06399,-0.16965 2.96875,-0.50894c0.92361,-0.33927 1.65872,-0.82935 2.20535,-1.47024c0.56549,-0.64089 0.84821,-1.43253 0.84821,-2.37499c0,-1.20635 -0.47122,-2.28075 -1.41368,-3.22321c-0.92361,-0.94247 -2.4504,-1.5268 -4.58033,-1.75298c-2.78969,-0.26388 -4.98561,-1.08381 -6.58777,-2.4598c-1.60219,-1.376 -2.40325,-3.0724 -2.40325,-5.08927c0,-1.4891 0.41469,-2.75197 1.24404,-3.78868c0.82935,-1.03671 1.9603,-1.81896 3.39283,-2.3467c1.43254,-0.54662 3.0253,-0.81993 4.77827,-0.81993c1.376,0 2.57292,0.1885 3.59077,0.56546c1.03671,0.37698 1.93205,0.90476 2.68602,1.58333c0.7728,0.67856 1.44195,1.47966 2.00744,2.40326c0.30159,0.49007 0.42412,0.9613 0.36756,1.41368c-0.0377,0.43353 -0.25445,0.77281 -0.6503,1.01786c-0.41469,0.26388 -0.87646,0.32042 -1.38539,0.16965c-0.49007,-0.15079 -0.85763,-0.44295 -1.10267,-0.87646c-0.35814,-0.65969 -0.80109,-1.21576 -1.32885,-1.66814c-0.50894,-0.45237 -1.1121,-0.80109 -1.80952,-1.04612c-0.69741,-0.26388 -1.51734,-0.39584 -2.4598,-0.39584c-1.67756,-0.01885 -3.08183,0.29217 -4.21277,0.93304c-1.11209,0.64089 -1.66814,1.62103 -1.66814,2.94047c0,0.67856 0.16965,1.32887 0.50893,1.95089c0.35814,0.62202 0.999,1.15924 1.92262,1.61161c0.94247,0.45239 2.29019,0.7634 4.04316,0.93304c2.67659,0.26388 4.75941,1.08381 6.2485,2.45982c1.50793,1.35714 2.26189,3.1478 2.26189,5.37201c0,1.28174 -0.26388,2.39385 -0.79166,3.33631c-0.52779,0.94247 -1.23461,1.74354 -2.12052,2.40326c-0.88591,0.64089 -1.90375,1.12151 -3.05356,1.44195c-1.13094,0.30159 -2.29958,0.45239 -3.50593,0.45239z" fill="#af87ff" stroke="#af87ff" stroke-width="2"/><path d="M148.69196,188.96865c-0.49007,0 -0.90476,-0.16965 -1.24404,-0.50893c-0.33927,-0.33927 -0.50893,-0.75398 -0.50893,-1.24405v-22.84516c0,-0.52779 0.16965,-0.95188 0.50893,-1.27231c0.33927,-0.33927 0.75396,-0.50893 1.24404,-0.50893h15.26782c0.50894,0 0.92361,0.16021 1.24404,0.48066c0.32042,0.30159 0.48066,0.69741 0.48066,1.18749c0,0.47123 -0.16021,0.85763 -0.48064,1.15924c-0.32042,0.28273 -0.73512,0.42412 -1.24404,0.42412h-13.51485v8.19939h9.69789c0.50894,0 0.92361,0.15078 1.24404,0.45237c0.32042,0.30159 0.48066,0.69741 0.48066,1.18749c0,0.47123 -0.16021,0.85763 -0.48064,1.15924c-0.32042,0.30159 -0.73512,0.45239 -1.24405,0.45239h-9.69788v9.92407c0,0.49007 -0.16965,0.90476 -0.50893,1.24404c-0.32042,0.33927 -0.73512,0.50893 -1.24404,0.50893z" fill="#af87ff" stroke="#af87ff" stroke-width="2"/><path d="M325.41759,188.96865c-0.49007,0 -0.90476,-0.16965 -1.24405,-0.50893c-0.32042,-0.33927 -0.48065,-0.75398 -0.48065,-1.24405v-22.84516c0,-0.50894 0.16965,-0.93302 0.50893,-1.27231c0.33927,-0.33927 0.74454,-0.50893 1.21577,-0.50893c0.50894,0 0.92363,0.16965 1.24405,0.50893c0.33927,0.33927 0.50894,0.7634 0.50894,1.27233v21.09218h12.24251c0.4901,0 0.90481,0.16965 1.2441,0.50893c0.33927,0.33927 0.50894,0.75398 0.50894,1.24405c0,0.49007 -0.16965,0.90476 -0.50894,1.24404c-0.33927,0.33927 -0.75398,0.50893 -1.2441,0.50893z" fill="#af87ff" stroke="#af87ff" stroke-width="2"/><path d="M303.74447,188.96865c-0.49007,0 -0.90475,-0.16965 -1.24404,-0.50893c-0.32042,-0.33927 -0.48065,-0.75398 -0.48065,-1.24405v-22.84516c0,-0.50894 0.16965,-0.93302 0.50894,-1.27231c0.33927,-0.33927 0.74454,-0.50893 1.21577,-0.50893c0.50894,0 0.92363,0.16965 1.24405,0.50893c0.33927,0.33927 0.50893,0.7634 0.50893,1.27233v21.09218h12.24254c0.49007,0 0.90476,0.16965 1.24405,0.50893c0.33927,0.33927 0.50893,0.75398 0.50893,1.24405c0,0.49007 -0.16965,0.90476 -0.50893,1.24404c-0.33927,0.33927 -0.75398,0.50893 -1.24405,0.50893z" fill="#af87ff" stroke="#af87ff" stroke-width="2"/><path d="M255.03017,163.99344c-0.36304,0 -0.36304,-0.36304 -0.36304,-0.36304l0.03832,-0.40439c0.48449,-0.9039 1.22114,-1.30491 2.18132,-0.88845c0,0 0.32473,0.16236 0.16236,0.48707c-0.16236,0.32473 -0.48707,0.16236 -0.48707,0.16236c-0.50237,-0.3181 -0.97938,0.05368 -1.20715,0.56374l0.03832,0.07967c0,0 0,0.36304 -0.36304,0.36304z" fill="#ffffff" stroke="none" stroke-width="0.5"/><path d="M233.24673,164.45317c-0.34441,-0.1148 -0.22961,-0.45923 -0.22961,-0.45923l0.18082,-0.51171c0.49399,-0.50902 0.83682,-0.70878 1.52775,-0.88746c0,0 0.35222,-0.08804 0.44026,0.26418c0.08804,0.35222 -0.26415,0.44026 -0.26415,0.44026c-0.49281,0.11802 -0.72509,0.22281 -1.0862,0.56476l-0.10964,0.35959c0,0 -0.1148,0.34441 -0.45923,0.22961z" fill="#ffffff" stroke="none" stroke-width="0.5"/><path d="M255.03017,163.99344c-0.36304,0 -0.36304,-0.36304 -0.36304,-0.36304l0.03832,-0.40439c0.48449,-0.9039 1.22114,-1.30491 2.18132,-0.88845c0,0 0.32473,0.16236 0.16236,0.48707c-0.16236,0.32473 -0.48707,0.16236 -0.48707,0.16236c-0.50237,-0.3181 -0.97938,0.05368 -1.20715,0.56374l0.03832,0.07967c0,0 0,0.36304 -0.36304,0.36304z" fill="#ffffff" stroke="#ffffff" stroke-width="1"/><path d="M233.24673,164.45317c-0.34441,-0.1148 -0.22961,-0.45923 -0.22961,-0.45923l0.18082,-0.51171c0.49399,-0.50902 0.83682,-0.70878 1.52775,-0.88746c0,0 0.35222,-0.08804 0.44026,0.26418c0.08804,0.35222 -0.26415,0.44026 -0.26415,0.44026c-0.49281,0.11802 -0.72509,0.22281 -1.0862,0.56476l-0.10964,0.35959c0,0 -0.1148,0.34441 -0.45923,0.22961z" fill="#ffffff" stroke="#ffffff" stroke-width="1"/><path d="M301.98451,164.18705c-0.36304,0 -0.36304,-0.36304 -0.36304,-0.36304l0.03832,-0.40439c0.48449,-0.9039 1.22114,-1.30491 2.18132,-0.88845c0,0 0.32473,0.16236 0.16236,0.48707c-0.16236,0.32473 -0.48707,0.16236 -0.48707,0.16236c-0.50237,-0.3181 -0.97938,0.05368 -1.20715,0.56374l0.03832,0.07967c0,0 0,0.36304 -0.36304,0.36304z" fill="#ffffff" stroke="#ffffff" stroke-width="1"/><path d="M284.75212,164.43348c-0.32473,-0.16237 -0.16236,-0.48707 -0.16236,-0.48707l0.16787,-0.32948c0.48954,-0.72931 0.85152,-1.02441 1.75427,-1.03298c0,0 0.36304,0 0.36304,0.36304c0,0.36304 -0.36304,0.36304 -0.36304,0.36304c-0.66117,-0.0082 -0.7927,0.16928 -1.15012,0.70965l-0.12258,0.25142c0,0 -0.16237,0.32473 -0.48707,0.16236z" fill="#ffffff" stroke="#ffffff" stroke-width="1"/><path d="M323.47701,164.04181c-0.36304,0 -0.36304,-0.36304 -0.36304,-0.36304l0.03832,-0.40439c0.48449,-0.9039 1.22114,-1.30491 2.18132,-0.88845c0,0 0.32473,0.16236 0.16236,0.48707c-0.16236,0.32473 -0.48707,0.16236 -0.48707,0.16236c-0.50237,-0.3181 -0.97938,0.05368 -1.20715,0.56374l0.03832,0.07967c0,0 0,0.36304 -0.36304,0.36304z" fill="#ffffff" stroke="#ffffff" stroke-width="1"/><g><path d="M181.23246,203.48524c-1.97917,0 -3.78868,-0.32987 -5.42855,-0.98957c-1.63988,-0.67856 -3.05356,-1.61158 -4.24106,-2.7991c-1.16865,-1.20635 -2.08284,-2.63887 -2.74254,-4.2976c-0.65969,-1.65872 -0.98957,-3.47766 -0.98957,-5.45682c0,-1.97917 0.32987,-3.78868 0.9896,-5.42855c0.65969,-1.63988 1.57389,-3.06298 2.74256,-4.26933c1.18749,-1.20635 2.60117,-2.13939 4.24106,-2.7991c1.63988,-0.65969 3.44938,-0.98957 5.42855,-0.98957c1.99801,0 3.80752,0.32987 5.42855,0.98958c1.63988,0.65969 3.05356,1.59275 4.24106,2.79911c1.18749,1.20635 2.10167,2.62947 2.74256,4.26934c0.65969,1.63988 0.9896,3.44938 0.9896,5.42855c0,1.97917 -0.32987,3.7981 -0.98957,5.45682c-0.64089,1.65872 -1.55505,3.09125 -2.74254,4.2976c-1.18749,1.18749 -2.60117,2.12054 -4.24106,2.79911c-1.62102,0.65969 -3.43054,0.98958 -5.42855,0.98958zM181.23246,200.31859c1.47024,0 2.81794,-0.26388 4.04314,-0.79166c1.22518,-0.52779 2.29017,-1.26289 3.19493,-2.20535c0.90476,-0.94247 1.59275,-2.0357 2.06399,-3.27974c0.49007,-1.26291 0.73512,-2.62944 0.73512,-4.09968c0,-1.45138 -0.24504,-2.80852 -0.73512,-4.07142c-0.47123,-1.26291 -1.15921,-2.35615 -2.06398,-3.27975c-0.90476,-0.94247 -1.96972,-1.66814 -3.19492,-2.17707c-1.22518,-0.52779 -2.5729,-0.79166 -4.04313,-0.79166c-1.45138,0 -2.78967,0.26388 -4.01486,0.79166c-1.22518,0.50894 -2.29017,1.23461 -3.19493,2.17708c-0.88591,0.92361 -1.57389,2.01686 -2.06396,3.27975c-0.49007,1.26291 -0.73512,2.62003 -0.73512,4.07142c0,1.47024 0.24504,2.83679 0.73512,4.09969c0.49007,1.24404 1.17808,2.33729 2.06399,3.27975c0.90476,0.94247 1.96972,1.67756 3.19493,2.20535c1.22518,0.52779 2.5635,0.79166 4.01486,0.79166z" fill="url(#color-33)" stroke="url(#color-34)" stroke-width="8"/><path d="M211.64873,203.48524c-1.97917,0 -3.78866,-0.32987 -5.42855,-0.98957c-1.63988,-0.67856 -3.05356,-1.61158 -4.24106,-2.7991c-1.16865,-1.20635 -2.08282,-2.63887 -2.74254,-4.2976c-0.65969,-1.65872 -0.98957,-3.47766 -0.98957,-5.45682c0,-1.97917 0.32987,-3.78868 0.98958,-5.42855c0.65969,-1.63988 1.57391,-3.06298 2.74256,-4.26933c1.18749,-1.20635 2.60117,-2.13939 4.24106,-2.7991c1.63988,-0.65969 3.44938,-0.98957 5.42854,-0.98957c1.99801,0 3.80754,0.32987 5.42855,0.98958c1.63988,0.65969 3.05356,1.59275 4.24106,2.79911c1.18749,1.20635 2.10168,2.62947 2.74256,4.26934c0.65969,1.63988 0.98958,3.44938 0.98958,5.42855c0,1.97917 -0.32987,3.7981 -0.98957,5.45682c-0.64089,1.65872 -1.55504,3.09125 -2.74254,4.2976c-1.18749,1.18749 -2.60117,2.12054 -4.24106,2.79911c-1.62102,0.65969 -3.43054,0.98958 -5.42855,0.98958zM211.64873,200.31859c1.47024,0 2.81794,-0.26388 4.04316,-0.79166c1.22518,-0.52779 2.29017,-1.26289 3.19493,-2.20535c0.90476,-0.94247 1.59275,-2.0357 2.06399,-3.27974c0.49007,-1.26291 0.73512,-2.62944 0.73512,-4.09968c0,-1.45138 -0.24504,-2.80852 -0.73512,-4.07142c-0.47123,-1.26291 -1.15921,-2.35615 -2.06398,-3.27975c-0.90476,-0.94247 -1.96972,-1.66814 -3.19492,-2.17707c-1.22518,-0.52779 -2.5729,-0.79166 -4.04313,-0.79166c-1.45138,0 -2.78969,0.26388 -4.01487,0.79166c-1.22518,0.50894 -2.29016,1.23461 -3.19492,2.17708c-0.88591,0.92361 -1.57391,2.01686 -2.06398,3.27975c-0.49007,1.26291 -0.73512,2.62003 -0.73512,4.07142c0,1.47024 0.24504,2.83679 0.73512,4.09969c0.49007,1.24404 1.17807,2.33729 2.06399,3.27975c0.90476,0.94247 1.96972,1.67756 3.19493,2.20535c1.22518,0.52779 2.5635,0.79166 4.01487,0.79166z" fill="url(#color-35)" stroke="url(#color-36)" stroke-width="8"/><path d="M181.23246,189.58328c-1.97917,0 -3.78868,-0.32987 -5.42855,-0.98957c-1.63988,-0.67856 -3.05356,-1.61158 -4.24106,-2.7991c-1.16865,-1.20635 -2.08284,-2.63889 -2.74254,-4.29762c-0.65969,-1.65872 -0.98957,-3.47764 -0.98957,-5.45682c0,-1.97917 0.32987,-3.78868 0.9896,-5.42855c0.65969,-1.63988 1.57389,-3.06298 2.74256,-4.26933c1.18749,-1.20635 2.60117,-2.13939 4.24106,-2.7991c1.63988,-0.65969 3.44938,-0.98957 5.42855,-0.98957c1.99801,0 3.80752,0.32987 5.42855,0.98958c1.63988,0.65969 3.05356,1.59275 4.24106,2.79911c1.18749,1.20635 2.10167,2.62947 2.74256,4.26934c0.65969,1.63988 0.9896,3.44938 0.9896,5.42855c0,1.97917 -0.32987,3.7981 -0.98957,5.45682c-0.64089,1.65872 -1.55505,3.09125 -2.74254,4.2976c-1.18749,1.18749 -2.60117,2.12054 -4.24106,2.79911c-1.62102,0.65969 -3.43054,0.98958 -5.42855,0.98958zM181.23246,186.41661c1.47024,0 2.81794,-0.26388 4.04314,-0.79166c1.22518,-0.52779 2.29017,-1.26289 3.19493,-2.20535c0.90476,-0.94247 1.59275,-2.0357 2.06399,-3.27975c0.49007,-1.26291 0.73512,-2.62944 0.73512,-4.09968c0,-1.45138 -0.24504,-2.8085 -0.73512,-4.0714c-0.47123,-1.26291 -1.15921,-2.35615 -2.06398,-3.27975c-0.90476,-0.94247 -1.96972,-1.66814 -3.19492,-2.17707c-1.22518,-0.52779 -2.5729,-0.79166 -4.04313,-0.79166c-1.45138,0 -2.78967,0.26388 -4.01486,0.79166c-1.22518,0.50894 -2.29017,1.23461 -3.19493,2.17708c-0.88591,0.92361 -1.57389,2.01686 -2.06396,3.27975c-0.49007,1.26291 -0.73512,2.62003 -0.73512,4.07142c0,1.47024 0.24504,2.83679 0.73512,4.09969c0.49007,1.24404 1.17808,2.33731 2.06399,3.27975c0.90476,0.94247 1.96972,1.67756 3.19493,2.20535c1.22518,0.52779 2.5635,0.79166 4.01486,0.79166z" fill="#9966ff" stroke="#28123b" stroke-width="8"/><path d="M211.64873,189.58328c-1.97917,0 -3.78866,-0.32987 -5.42855,-0.98957c-1.63988,-0.67856 -3.05356,-1.61158 -4.24106,-2.7991c-1.16865,-1.20635 -2.08282,-2.63889 -2.74254,-4.29762c-0.65969,-1.65872 -0.98957,-3.47764 -0.98957,-5.45682c0,-1.97917 0.32987,-3.78868 0.98958,-5.42855c0.65969,-1.63988 1.57391,-3.06298 2.74256,-4.26933c1.18749,-1.20635 2.60117,-2.13939 4.24106,-2.7991c1.63988,-0.65969 3.44938,-0.98957 5.42854,-0.98957c1.99801,0 3.80754,0.32987 5.42855,0.98958c1.63988,0.65969 3.05356,1.59275 4.24106,2.79911c1.18749,1.20635 2.10168,2.62947 2.74256,4.26934c0.65969,1.63988 0.98958,3.44938 0.98958,5.42855c0,1.97917 -0.32987,3.7981 -0.98957,5.45682c-0.64089,1.65872 -1.55504,3.09125 -2.74254,4.2976c-1.18749,1.18749 -2.60117,2.12054 -4.24106,2.79911c-1.62102,0.65969 -3.43054,0.98958 -5.42855,0.98958zM211.64873,186.41661c1.47024,0 2.81794,-0.26388 4.04316,-0.79166c1.22518,-0.52779 2.29017,-1.26289 3.19493,-2.20535c0.90476,-0.94247 1.59275,-2.0357 2.06399,-3.27975c0.49007,-1.26291 0.73512,-2.62944 0.73512,-4.09968c0,-1.45138 -0.24504,-2.8085 -0.73512,-4.0714c-0.47123,-1.26291 -1.15921,-2.35615 -2.06398,-3.27975c-0.90476,-0.94247 -1.96972,-1.66814 -3.19492,-2.17707c-1.22518,-0.52779 -2.5729,-0.79166 -4.04313,-0.79166c-1.45138,0 -2.78969,0.26388 -4.01487,0.79166c-1.22518,0.50894 -2.29016,1.23461 -3.19492,2.17708c-0.88591,0.92361 -1.57391,2.01686 -2.06398,3.27975c-0.49007,1.26291 -0.73512,2.62003 -0.73512,4.07142c0,1.47024 0.24504,2.83679 0.73512,4.09969c0.49007,1.24404 1.17807,2.33731 2.06399,3.27975c0.90476,0.94247 1.96972,1.67756 3.19493,2.20535c1.22518,0.52779 2.5635,0.79166 4.01487,0.79166z" fill="#9966ff" stroke="#28123b" stroke-width="8"/><path d="M211.52772,189.34125c-1.97917,0 -3.78868,-0.32987 -5.42855,-0.98957c-1.63988,-0.67856 -3.05356,-1.61161 -4.24106,-2.7991c-1.16865,-1.20635 -2.08284,-2.63887 -2.74254,-4.2976c-0.65969,-1.65872 -0.98957,-3.47766 -0.98957,-5.45682c0,-1.97917 0.32987,-3.78868 0.9896,-5.42855c0.65969,-1.63988 1.57389,-3.06298 2.74256,-4.26933c1.18749,-1.20635 2.60117,-2.13938 4.24106,-2.7991c1.63988,-0.65969 3.44938,-0.98957 5.42855,-0.98957c1.99801,0 3.80752,0.32987 5.42855,0.98958c1.63988,0.65969 3.05356,1.59275 4.24106,2.79911c1.18749,1.20635 2.10167,2.62947 2.74256,4.26934c0.65969,1.63988 0.9896,3.44938 0.9896,5.42855c0,1.97917 -0.32987,3.7981 -0.98957,5.45682c-0.64089,1.65872 -1.55505,3.09125 -2.74254,4.2976c-1.18749,1.18749 -2.60117,2.12054 -4.24106,2.79911c-1.62102,0.65969 -3.43054,0.98958 -5.42855,0.98958zM211.52772,186.17459c1.47024,0 2.81794,-0.26388 4.04314,-0.79166c1.22518,-0.52779 2.29019,-1.26289 3.19494,-2.20535c0.90476,-0.94247 1.59275,-2.0357 2.06399,-3.27975c0.49007,-1.26291 0.73512,-2.62944 0.73512,-4.09968c0,-1.45138 -0.24504,-2.80852 -0.73512,-4.07142c-0.47123,-1.26291 -1.15921,-2.35615 -2.06398,-3.27975c-0.90476,-0.94247 -1.96972,-1.66814 -3.19492,-2.17707c-1.22518,-0.52779 -2.5729,-0.79166 -4.04313,-0.79166c-1.45138,0 -2.78967,0.26388 -4.01486,0.79166c-1.22518,0.50894 -2.29017,1.23461 -3.19493,2.17708c-0.88591,0.92361 -1.57389,2.01686 -2.06396,3.27975c-0.49007,1.26291 -0.73512,2.62003 -0.73512,4.07142c0,1.47024 0.24504,2.83679 0.73512,4.09969c0.49007,1.24404 1.17808,2.33729 2.06399,3.27975c0.90476,0.94247 1.96972,1.67756 3.19493,2.20535c1.22518,0.52779 2.5635,0.79166 4.01486,0.79166z" fill="#ff7a90" stroke="#ff7a90" stroke-width="2"/><path d="M181.27812,189.17459c-1.97917,0 -3.78868,-0.32987 -5.42855,-0.98957c-1.63988,-0.67856 -3.05356,-1.61161 -4.24106,-2.7991c-1.16865,-1.20635 -2.08282,-2.63887 -2.74254,-4.2976c-0.65969,-1.65872 -0.98957,-3.47766 -0.98957,-5.45682c0,-1.97917 0.32987,-3.78868 0.98958,-5.42855c0.65969,-1.63988 1.57391,-3.06298 2.74256,-4.26933c1.18749,-1.20635 2.60117,-2.13938 4.24106,-2.7991c1.63988,-0.65969 3.44938,-0.98957 5.42855,-0.98957c1.99801,0 3.80754,0.32987 5.42855,0.98958c1.63988,0.65969 3.05356,1.59275 4.24106,2.79911c1.18749,1.20635 2.10167,2.62947 2.74256,4.26934c0.65969,1.63988 0.98958,3.44938 0.98958,5.42855c0,1.97917 -0.32987,3.7981 -0.98957,5.45682c-0.64089,1.65872 -1.55504,3.09125 -2.74254,4.2976c-1.18749,1.18749 -2.60117,2.12054 -4.24106,2.79911c-1.62102,0.65969 -3.43054,0.98958 -5.42855,0.98958zM181.27812,186.00792c1.47024,0 2.81794,-0.26388 4.04316,-0.79166c1.22518,-0.52779 2.29019,-1.26289 3.19494,-2.20535c0.90476,-0.94247 1.59274,-2.0357 2.06398,-3.27975c0.49007,-1.26291 0.73512,-2.62944 0.73512,-4.09968c0,-1.45138 -0.24504,-2.80852 -0.73512,-4.07142c-0.47123,-1.26291 -1.15921,-2.35615 -2.06398,-3.27975c-0.90476,-0.94247 -1.96972,-1.66814 -3.19492,-2.17707c-1.22518,-0.52779 -2.57292,-0.79166 -4.04313,-0.79166c-1.45138,0 -2.78969,0.26388 -4.01487,0.79166c-1.22518,0.50894 -2.29016,1.23461 -3.19492,2.17708c-0.88591,0.92361 -1.57391,2.01686 -2.06398,3.27975c-0.49007,1.26291 -0.73512,2.62003 -0.73512,4.07142c0,1.47024 0.24504,2.83679 0.73512,4.09969c0.49007,1.24404 1.17808,2.33729 2.06399,3.27975c0.90476,0.94247 1.96972,1.67756 3.19493,2.20535c1.22518,0.52779 2.5635,0.79166 4.01487,0.79166z" fill="#57a0ff" stroke="#57a0ff" stroke-width="2"/><path d="M172.75643,165.06456c-0.32473,-0.16236 -0.16236,-0.48707 -0.16236,-0.48707l0.22936,-0.41707c0.59306,-0.58882 1.14056,-1.00943 1.94357,-1.22499c0,0 0.35222,-0.08804 0.44026,0.26415c0.08804,0.35222 -0.26415,0.44026 -0.26415,0.44026c-0.65294,0.14725 -1.12747,0.55119 -1.60624,1.034l-0.09335,0.22836c0,0 -0.16236,0.32473 -0.48707,0.16236z" fill="#ffffff" stroke="none" stroke-width="0.5"/><path d="M203.49459,164.72571c-0.32471,-0.16237 -0.16236,-0.48707 -0.16236,-0.48707l0.22936,-0.41706c0.59307,-0.58882 1.14056,-1.00943 1.94357,-1.22499c0,0 0.35222,-0.08807 0.44026,0.26415c0.08804,0.35222 -0.26418,0.44026 -0.26418,0.44026c-0.65293,0.14723 -1.12747,0.55119 -1.60624,1.034l-0.09335,0.22836c0,0 -0.16237,0.32471 -0.48707,0.16236z" fill="#ffffff" stroke="none" stroke-width="0.5"/><path d="M171.98442,175.95115c0,-5.05184 4.09532,-9.14716 9.14716,-9.14716c5.05184,0 9.14716,4.09532 9.14716,9.14716c0,5.05184 -4.09532,9.14716 -9.14716,9.14716c-5.05184,0 -9.14716,-4.09532 -9.14716,-9.14716z" fill="#28123b" stroke="none" stroke-width="0"/><path d="M202.44578,175.68856c0,-5.05184 4.09532,-9.14717 9.14717,-9.14717c5.05184,0 9.14716,4.09532 9.14716,9.14717c0,5.05184 -4.09532,9.14716 -9.14716,9.14716c-5.05184,0 -9.14717,-4.09532 -9.14717,-9.14716z" fill="#28123b" stroke="none" stroke-width="0"/><path d="M172.75643,165.06456c-0.32473,-0.16236 -0.16236,-0.48707 -0.16236,-0.48707l0.22936,-0.41707c0.59306,-0.58882 1.14056,-1.00943 1.94357,-1.22499c0,0 0.35222,-0.08804 0.44026,0.26415c0.08804,0.35222 -0.26415,0.44026 -0.26415,0.44026c-0.65294,0.14725 -1.12747,0.55119 -1.60624,1.034l-0.09335,0.22836c0,0 -0.16236,0.32473 -0.48707,0.16236z" fill="#ffffff" stroke="#ffffff" stroke-width="1"/><path d="M203.49459,164.72571c-0.32471,-0.16237 -0.16236,-0.48707 -0.16236,-0.48707l0.22936,-0.41706c0.59307,-0.58882 1.14056,-1.00943 1.94357,-1.22499c0,0 0.35222,-0.08807 0.44026,0.26415c0.08804,0.35222 -0.26418,0.44026 -0.26418,0.44026c-0.65293,0.14723 -1.12747,0.55119 -1.60624,1.034l-0.09335,0.22836c0,0 -0.16237,0.32471 -0.48707,0.16236z" fill="#ffffff" stroke="#ffffff" stroke-width="1"/><path d="M169.48255,175.7522c0,-6.38839 5.1788,-11.56719 11.56719,-11.56719c6.38839,0 11.5672,5.1788 11.5672,11.56719c0,6.38839 -5.1788,11.56719 -11.5672,11.56719c-6.38839,0 -11.56719,-5.1788 -11.56719,-11.56719z" fill="#86baff" stroke="none" stroke-width="0"/><path d="M199.93861,176.1199c0,-6.38839 5.1788,-11.5672 11.56719,-11.5672c6.38839,0 11.5672,5.1788 11.5672,11.5672c0,6.38839 -5.1788,11.56719 -11.5672,11.56719c-6.38839,0 -11.56719,-5.1788 -11.56719,-11.56719z" fill="#ff9aab" stroke="none" stroke-width="0"/></g></g></g><path d="M147.71189,163.94019c-0.36304,0 -0.36304,-0.36304 -0.36304,-0.36304l0.03832,-0.40439c0.48449,-0.9039 1.22114,-1.30491 2.18132,-0.88845c0,0 0.32473,0.16236 0.16236,0.48707c-0.16236,0.32473 -0.48707,0.16236 -0.48707,0.16236c-0.50237,-0.3181 -0.97938,0.05368 -1.20715,0.56374l0.03832,0.07967c0,0 0,0.36304 -0.36304,0.36304z" fill="#ffffff" stroke="#ffffff" stroke-width="1"/></g></g></g></svg>